<?xml version="1.0" encoding="utf-8" standalone="no"?>
<!DOCTYPE svg PUBLIC "-//W3C//DTD SVG 1.1//EN"
  "http://www.w3.org/Graphics/SVG/1.1/DTD/svg11.dtd">
<!-- Created with matplotlib (https://matplotlib.org/) -->
<svg height="379.76625pt" version="1.1" viewBox="0 0 398.452625 379.76625" width="398.452625pt" xmlns="http://www.w3.org/2000/svg" xmlns:xlink="http://www.w3.org/1999/xlink">
 <metadata>
  <rdf:RDF xmlns:cc="http://creativecommons.org/ns#" xmlns:dc="http://purl.org/dc/elements/1.1/" xmlns:rdf="http://www.w3.org/1999/02/22-rdf-syntax-ns#">
   <cc:Work>
    <dc:type rdf:resource="http://purl.org/dc/dcmitype/StillImage"/>
    <dc:date>2022-02-28T15:42:58.456994</dc:date>
    <dc:format>image/svg+xml</dc:format>
    <dc:creator>
     <cc:Agent>
      <dc:title>Matplotlib v3.3.4, https://matplotlib.org/</dc:title>
     </cc:Agent>
    </dc:creator>
   </cc:Work>
  </rdf:RDF>
 </metadata>
 <defs>
  <style type="text/css">*{stroke-linecap:butt;stroke-linejoin:round;}</style>
 </defs>
 <g id="figure_1">
  <g id="patch_1">
   <path d="M 0 379.76625 
L 398.452625 379.76625 
L 398.452625 -0 
L 0 -0 
z
" style="fill:#ffffff;"/>
  </g>
  <g id="axes_1">
   <g id="patch_2">
    <path d="M 48.38475 342.4585 
L 352.72375 342.4585 
L 352.72375 20.4945 
L 48.38475 20.4945 
z
" style="fill:#ffffff;"/>
   </g>
   <g id="matplotlib.axis_1">
    <g id="xtick_1">
     <g id="line2d_1">
      <defs>
       <path d="M 0 0 
L 0 4.8 
" id="m656516c067" style="stroke:#262626;"/>
      </defs>
      <g>
       <use style="fill:#262626;stroke:#262626;" x="48.38475" xlink:href="#m656516c067" y="342.4585"/>
      </g>
     </g>
     <g id="text_1">
      <!-- Extremely harmful -->
      <g style="fill:#262626;" transform="translate(7.5775 357.445125)scale(0.088 -0.088)">
       <defs>
        <path d="M 9.8125 72.90625 
L 55.90625 72.90625 
L 55.90625 64.59375 
L 19.671875 64.59375 
L 19.671875 43.015625 
L 54.390625 43.015625 
L 54.390625 34.71875 
L 19.671875 34.71875 
L 19.671875 8.296875 
L 56.78125 8.296875 
L 56.78125 0 
L 9.8125 0 
z
" id="DejaVuSans-69"/>
        <path d="M 54.890625 54.6875 
L 35.109375 28.078125 
L 55.90625 0 
L 45.3125 0 
L 29.390625 21.484375 
L 13.484375 0 
L 2.875 0 
L 24.125 28.609375 
L 4.6875 54.6875 
L 15.28125 54.6875 
L 29.78125 35.203125 
L 44.28125 54.6875 
z
" id="DejaVuSans-120"/>
        <path d="M 18.3125 70.21875 
L 18.3125 54.6875 
L 36.8125 54.6875 
L 36.8125 47.703125 
L 18.3125 47.703125 
L 18.3125 18.015625 
Q 18.3125 11.328125 20.140625 9.421875 
Q 21.96875 7.515625 27.59375 7.515625 
L 36.8125 7.515625 
L 36.8125 0 
L 27.59375 0 
Q 17.1875 0 13.234375 3.875 
Q 9.28125 7.765625 9.28125 18.015625 
L 9.28125 47.703125 
L 2.6875 47.703125 
L 2.6875 54.6875 
L 9.28125 54.6875 
L 9.28125 70.21875 
z
" id="DejaVuSans-116"/>
        <path d="M 41.109375 46.296875 
Q 39.59375 47.171875 37.8125 47.578125 
Q 36.03125 48 33.890625 48 
Q 26.265625 48 22.1875 43.046875 
Q 18.109375 38.09375 18.109375 28.8125 
L 18.109375 0 
L 9.078125 0 
L 9.078125 54.6875 
L 18.109375 54.6875 
L 18.109375 46.1875 
Q 20.953125 51.171875 25.484375 53.578125 
Q 30.03125 56 36.53125 56 
Q 37.453125 56 38.578125 55.875 
Q 39.703125 55.765625 41.0625 55.515625 
z
" id="DejaVuSans-114"/>
        <path d="M 56.203125 29.59375 
L 56.203125 25.203125 
L 14.890625 25.203125 
Q 15.484375 15.921875 20.484375 11.0625 
Q 25.484375 6.203125 34.421875 6.203125 
Q 39.59375 6.203125 44.453125 7.46875 
Q 49.3125 8.734375 54.109375 11.28125 
L 54.109375 2.78125 
Q 49.265625 0.734375 44.1875 -0.34375 
Q 39.109375 -1.421875 33.890625 -1.421875 
Q 20.796875 -1.421875 13.15625 6.1875 
Q 5.515625 13.8125 5.515625 26.8125 
Q 5.515625 40.234375 12.765625 48.109375 
Q 20.015625 56 32.328125 56 
Q 43.359375 56 49.78125 48.890625 
Q 56.203125 41.796875 56.203125 29.59375 
z
M 47.21875 32.234375 
Q 47.125 39.59375 43.09375 43.984375 
Q 39.0625 48.390625 32.421875 48.390625 
Q 24.90625 48.390625 20.390625 44.140625 
Q 15.875 39.890625 15.1875 32.171875 
z
" id="DejaVuSans-101"/>
        <path d="M 52 44.1875 
Q 55.375 50.25 60.0625 53.125 
Q 64.75 56 71.09375 56 
Q 79.640625 56 84.28125 50.015625 
Q 88.921875 44.046875 88.921875 33.015625 
L 88.921875 0 
L 79.890625 0 
L 79.890625 32.71875 
Q 79.890625 40.578125 77.09375 44.375 
Q 74.3125 48.1875 68.609375 48.1875 
Q 61.625 48.1875 57.5625 43.546875 
Q 53.515625 38.921875 53.515625 30.90625 
L 53.515625 0 
L 44.484375 0 
L 44.484375 32.71875 
Q 44.484375 40.625 41.703125 44.40625 
Q 38.921875 48.1875 33.109375 48.1875 
Q 26.21875 48.1875 22.15625 43.53125 
Q 18.109375 38.875 18.109375 30.90625 
L 18.109375 0 
L 9.078125 0 
L 9.078125 54.6875 
L 18.109375 54.6875 
L 18.109375 46.1875 
Q 21.1875 51.21875 25.484375 53.609375 
Q 29.78125 56 35.6875 56 
Q 41.65625 56 45.828125 52.96875 
Q 50 49.953125 52 44.1875 
z
" id="DejaVuSans-109"/>
        <path d="M 9.421875 75.984375 
L 18.40625 75.984375 
L 18.40625 0 
L 9.421875 0 
z
" id="DejaVuSans-108"/>
        <path d="M 32.171875 -5.078125 
Q 28.375 -14.84375 24.75 -17.8125 
Q 21.140625 -20.796875 15.09375 -20.796875 
L 7.90625 -20.796875 
L 7.90625 -13.28125 
L 13.1875 -13.28125 
Q 16.890625 -13.28125 18.9375 -11.515625 
Q 21 -9.765625 23.484375 -3.21875 
L 25.09375 0.875 
L 2.984375 54.6875 
L 12.5 54.6875 
L 29.59375 11.921875 
L 46.6875 54.6875 
L 56.203125 54.6875 
z
" id="DejaVuSans-121"/>
        <path id="DejaVuSans-32"/>
        <path d="M 54.890625 33.015625 
L 54.890625 0 
L 45.90625 0 
L 45.90625 32.71875 
Q 45.90625 40.484375 42.875 44.328125 
Q 39.84375 48.1875 33.796875 48.1875 
Q 26.515625 48.1875 22.3125 43.546875 
Q 18.109375 38.921875 18.109375 30.90625 
L 18.109375 0 
L 9.078125 0 
L 9.078125 75.984375 
L 18.109375 75.984375 
L 18.109375 46.1875 
Q 21.34375 51.125 25.703125 53.5625 
Q 30.078125 56 35.796875 56 
Q 45.21875 56 50.046875 50.171875 
Q 54.890625 44.34375 54.890625 33.015625 
z
" id="DejaVuSans-104"/>
        <path d="M 34.28125 27.484375 
Q 23.390625 27.484375 19.1875 25 
Q 14.984375 22.515625 14.984375 16.5 
Q 14.984375 11.71875 18.140625 8.90625 
Q 21.296875 6.109375 26.703125 6.109375 
Q 34.1875 6.109375 38.703125 11.40625 
Q 43.21875 16.703125 43.21875 25.484375 
L 43.21875 27.484375 
z
M 52.203125 31.203125 
L 52.203125 0 
L 43.21875 0 
L 43.21875 8.296875 
Q 40.140625 3.328125 35.546875 0.953125 
Q 30.953125 -1.421875 24.3125 -1.421875 
Q 15.921875 -1.421875 10.953125 3.296875 
Q 6 8.015625 6 15.921875 
Q 6 25.140625 12.171875 29.828125 
Q 18.359375 34.515625 30.609375 34.515625 
L 43.21875 34.515625 
L 43.21875 35.40625 
Q 43.21875 41.609375 39.140625 45 
Q 35.0625 48.390625 27.6875 48.390625 
Q 23 48.390625 18.546875 47.265625 
Q 14.109375 46.140625 10.015625 43.890625 
L 10.015625 52.203125 
Q 14.9375 54.109375 19.578125 55.046875 
Q 24.21875 56 28.609375 56 
Q 40.484375 56 46.34375 49.84375 
Q 52.203125 43.703125 52.203125 31.203125 
z
" id="DejaVuSans-97"/>
        <path d="M 37.109375 75.984375 
L 37.109375 68.5 
L 28.515625 68.5 
Q 23.6875 68.5 21.796875 66.546875 
Q 19.921875 64.59375 19.921875 59.515625 
L 19.921875 54.6875 
L 34.71875 54.6875 
L 34.71875 47.703125 
L 19.921875 47.703125 
L 19.921875 0 
L 10.890625 0 
L 10.890625 47.703125 
L 2.296875 47.703125 
L 2.296875 54.6875 
L 10.890625 54.6875 
L 10.890625 58.5 
Q 10.890625 67.625 15.140625 71.796875 
Q 19.390625 75.984375 28.609375 75.984375 
z
" id="DejaVuSans-102"/>
        <path d="M 8.5 21.578125 
L 8.5 54.6875 
L 17.484375 54.6875 
L 17.484375 21.921875 
Q 17.484375 14.15625 20.5 10.265625 
Q 23.53125 6.390625 29.59375 6.390625 
Q 36.859375 6.390625 41.078125 11.03125 
Q 45.3125 15.671875 45.3125 23.6875 
L 45.3125 54.6875 
L 54.296875 54.6875 
L 54.296875 0 
L 45.3125 0 
L 45.3125 8.40625 
Q 42.046875 3.421875 37.71875 1 
Q 33.40625 -1.421875 27.6875 -1.421875 
Q 18.265625 -1.421875 13.375 4.4375 
Q 8.5 10.296875 8.5 21.578125 
z
M 31.109375 56 
z
" id="DejaVuSans-117"/>
       </defs>
       <use xlink:href="#DejaVuSans-69"/>
       <use x="63.183594" xlink:href="#DejaVuSans-120"/>
       <use x="122.363281" xlink:href="#DejaVuSans-116"/>
       <use x="161.572266" xlink:href="#DejaVuSans-114"/>
       <use x="200.435547" xlink:href="#DejaVuSans-101"/>
       <use x="261.958984" xlink:href="#DejaVuSans-109"/>
       <use x="359.371094" xlink:href="#DejaVuSans-101"/>
       <use x="420.894531" xlink:href="#DejaVuSans-108"/>
       <use x="448.677734" xlink:href="#DejaVuSans-121"/>
       <use x="507.857422" xlink:href="#DejaVuSans-32"/>
       <use x="539.644531" xlink:href="#DejaVuSans-104"/>
       <use x="603.023438" xlink:href="#DejaVuSans-97"/>
       <use x="664.302734" xlink:href="#DejaVuSans-114"/>
       <use x="703.666016" xlink:href="#DejaVuSans-109"/>
       <use x="801.078125" xlink:href="#DejaVuSans-102"/>
       <use x="836.283203" xlink:href="#DejaVuSans-117"/>
       <use x="899.662109" xlink:href="#DejaVuSans-108"/>
      </g>
     </g>
    </g>
    <g id="xtick_2">
     <g id="line2d_2">
      <g>
       <use style="fill:#262626;stroke:#262626;" x="124.4695" xlink:href="#m656516c067" y="342.4585"/>
      </g>
     </g>
     <g id="text_2">
      <!-- Very harmful -->
      <g style="fill:#262626;" transform="translate(96.219438 357.445125)scale(0.088 -0.088)">
       <defs>
        <path d="M 28.609375 0 
L 0.78125 72.90625 
L 11.078125 72.90625 
L 34.1875 11.53125 
L 57.328125 72.90625 
L 67.578125 72.90625 
L 39.796875 0 
z
" id="DejaVuSans-86"/>
       </defs>
       <use xlink:href="#DejaVuSans-86"/>
       <use x="60.658203" xlink:href="#DejaVuSans-101"/>
       <use x="122.181641" xlink:href="#DejaVuSans-114"/>
       <use x="163.294922" xlink:href="#DejaVuSans-121"/>
       <use x="222.474609" xlink:href="#DejaVuSans-32"/>
       <use x="254.261719" xlink:href="#DejaVuSans-104"/>
       <use x="317.640625" xlink:href="#DejaVuSans-97"/>
       <use x="378.919922" xlink:href="#DejaVuSans-114"/>
       <use x="418.283203" xlink:href="#DejaVuSans-109"/>
       <use x="515.695312" xlink:href="#DejaVuSans-102"/>
       <use x="550.900391" xlink:href="#DejaVuSans-117"/>
       <use x="614.279297" xlink:href="#DejaVuSans-108"/>
      </g>
     </g>
    </g>
    <g id="xtick_3">
     <g id="line2d_3">
      <g>
       <use style="fill:#262626;stroke:#262626;" x="200.55425" xlink:href="#m656516c067" y="342.4585"/>
      </g>
     </g>
     <g id="text_3">
      <!-- Harmful -->
      <g style="fill:#262626;" transform="translate(182.971438 357.445125)scale(0.088 -0.088)">
       <defs>
        <path d="M 9.8125 72.90625 
L 19.671875 72.90625 
L 19.671875 43.015625 
L 55.515625 43.015625 
L 55.515625 72.90625 
L 65.375 72.90625 
L 65.375 0 
L 55.515625 0 
L 55.515625 34.71875 
L 19.671875 34.71875 
L 19.671875 0 
L 9.8125 0 
z
" id="DejaVuSans-72"/>
       </defs>
       <use xlink:href="#DejaVuSans-72"/>
       <use x="75.195312" xlink:href="#DejaVuSans-97"/>
       <use x="136.474609" xlink:href="#DejaVuSans-114"/>
       <use x="175.837891" xlink:href="#DejaVuSans-109"/>
       <use x="273.25" xlink:href="#DejaVuSans-102"/>
       <use x="308.455078" xlink:href="#DejaVuSans-117"/>
       <use x="371.833984" xlink:href="#DejaVuSans-108"/>
      </g>
     </g>
    </g>
    <g id="xtick_4">
     <g id="line2d_4">
      <g>
       <use style="fill:#262626;stroke:#262626;" x="276.639" xlink:href="#m656516c067" y="342.4585"/>
      </g>
     </g>
     <g id="text_4">
      <!-- Not very harmful -->
      <g style="fill:#262626;" transform="translate(239.34625 357.445125)scale(0.088 -0.088)">
       <defs>
        <path d="M 9.8125 72.90625 
L 23.09375 72.90625 
L 55.421875 11.921875 
L 55.421875 72.90625 
L 64.984375 72.90625 
L 64.984375 0 
L 51.703125 0 
L 19.390625 60.984375 
L 19.390625 0 
L 9.8125 0 
z
" id="DejaVuSans-78"/>
        <path d="M 30.609375 48.390625 
Q 23.390625 48.390625 19.1875 42.75 
Q 14.984375 37.109375 14.984375 27.296875 
Q 14.984375 17.484375 19.15625 11.84375 
Q 23.34375 6.203125 30.609375 6.203125 
Q 37.796875 6.203125 41.984375 11.859375 
Q 46.1875 17.53125 46.1875 27.296875 
Q 46.1875 37.015625 41.984375 42.703125 
Q 37.796875 48.390625 30.609375 48.390625 
z
M 30.609375 56 
Q 42.328125 56 49.015625 48.375 
Q 55.71875 40.765625 55.71875 27.296875 
Q 55.71875 13.875 49.015625 6.21875 
Q 42.328125 -1.421875 30.609375 -1.421875 
Q 18.84375 -1.421875 12.171875 6.21875 
Q 5.515625 13.875 5.515625 27.296875 
Q 5.515625 40.765625 12.171875 48.375 
Q 18.84375 56 30.609375 56 
z
" id="DejaVuSans-111"/>
        <path d="M 2.984375 54.6875 
L 12.5 54.6875 
L 29.59375 8.796875 
L 46.6875 54.6875 
L 56.203125 54.6875 
L 35.6875 0 
L 23.484375 0 
z
" id="DejaVuSans-118"/>
       </defs>
       <use xlink:href="#DejaVuSans-78"/>
       <use x="74.804688" xlink:href="#DejaVuSans-111"/>
       <use x="135.986328" xlink:href="#DejaVuSans-116"/>
       <use x="175.195312" xlink:href="#DejaVuSans-32"/>
       <use x="206.982422" xlink:href="#DejaVuSans-118"/>
       <use x="266.162109" xlink:href="#DejaVuSans-101"/>
       <use x="327.685547" xlink:href="#DejaVuSans-114"/>
       <use x="368.798828" xlink:href="#DejaVuSans-121"/>
       <use x="427.978516" xlink:href="#DejaVuSans-32"/>
       <use x="459.765625" xlink:href="#DejaVuSans-104"/>
       <use x="523.144531" xlink:href="#DejaVuSans-97"/>
       <use x="584.423828" xlink:href="#DejaVuSans-114"/>
       <use x="623.787109" xlink:href="#DejaVuSans-109"/>
       <use x="721.199219" xlink:href="#DejaVuSans-102"/>
       <use x="756.404297" xlink:href="#DejaVuSans-117"/>
       <use x="819.783203" xlink:href="#DejaVuSans-108"/>
      </g>
     </g>
    </g>
    <g id="xtick_5">
     <g id="line2d_5">
      <g>
       <use style="fill:#262626;stroke:#262626;" x="352.72375" xlink:href="#m656516c067" y="342.4585"/>
      </g>
     </g>
     <g id="text_5">
      <!-- Not harmful at all -->
      <g style="fill:#262626;" transform="translate(314.194875 357.445125)scale(0.088 -0.088)">
       <use xlink:href="#DejaVuSans-78"/>
       <use x="74.804688" xlink:href="#DejaVuSans-111"/>
       <use x="135.986328" xlink:href="#DejaVuSans-116"/>
       <use x="175.195312" xlink:href="#DejaVuSans-32"/>
       <use x="206.982422" xlink:href="#DejaVuSans-104"/>
       <use x="270.361328" xlink:href="#DejaVuSans-97"/>
       <use x="331.640625" xlink:href="#DejaVuSans-114"/>
       <use x="371.003906" xlink:href="#DejaVuSans-109"/>
       <use x="468.416016" xlink:href="#DejaVuSans-102"/>
       <use x="503.621094" xlink:href="#DejaVuSans-117"/>
       <use x="567" xlink:href="#DejaVuSans-108"/>
       <use x="594.783203" xlink:href="#DejaVuSans-32"/>
       <use x="626.570312" xlink:href="#DejaVuSans-97"/>
       <use x="687.849609" xlink:href="#DejaVuSans-116"/>
       <use x="727.058594" xlink:href="#DejaVuSans-32"/>
       <use x="758.845703" xlink:href="#DejaVuSans-97"/>
       <use x="820.125" xlink:href="#DejaVuSans-108"/>
       <use x="847.908203" xlink:href="#DejaVuSans-108"/>
      </g>
     </g>
    </g>
    <g id="text_6">
     <!-- Water Quality Perception -->
     <g style="fill:#262626;" transform="translate(140.78825 370.56975)scale(0.096 -0.096)">
      <defs>
       <path d="M 3.328125 72.90625 
L 13.28125 72.90625 
L 28.609375 11.28125 
L 43.890625 72.90625 
L 54.984375 72.90625 
L 70.3125 11.28125 
L 85.59375 72.90625 
L 95.609375 72.90625 
L 77.296875 0 
L 64.890625 0 
L 49.515625 63.28125 
L 33.984375 0 
L 21.578125 0 
z
" id="DejaVuSans-87"/>
       <path d="M 39.40625 66.21875 
Q 28.65625 66.21875 22.328125 58.203125 
Q 16.015625 50.203125 16.015625 36.375 
Q 16.015625 22.609375 22.328125 14.59375 
Q 28.65625 6.59375 39.40625 6.59375 
Q 50.140625 6.59375 56.421875 14.59375 
Q 62.703125 22.609375 62.703125 36.375 
Q 62.703125 50.203125 56.421875 58.203125 
Q 50.140625 66.21875 39.40625 66.21875 
z
M 53.21875 1.3125 
L 66.21875 -12.890625 
L 54.296875 -12.890625 
L 43.5 -1.21875 
Q 41.890625 -1.3125 41.03125 -1.359375 
Q 40.1875 -1.421875 39.40625 -1.421875 
Q 24.03125 -1.421875 14.8125 8.859375 
Q 5.609375 19.140625 5.609375 36.375 
Q 5.609375 53.65625 14.8125 63.9375 
Q 24.03125 74.21875 39.40625 74.21875 
Q 54.734375 74.21875 63.90625 63.9375 
Q 73.09375 53.65625 73.09375 36.375 
Q 73.09375 23.6875 67.984375 14.640625 
Q 62.890625 5.609375 53.21875 1.3125 
z
" id="DejaVuSans-81"/>
       <path d="M 9.421875 54.6875 
L 18.40625 54.6875 
L 18.40625 0 
L 9.421875 0 
z
M 9.421875 75.984375 
L 18.40625 75.984375 
L 18.40625 64.59375 
L 9.421875 64.59375 
z
" id="DejaVuSans-105"/>
       <path d="M 19.671875 64.796875 
L 19.671875 37.40625 
L 32.078125 37.40625 
Q 38.96875 37.40625 42.71875 40.96875 
Q 46.484375 44.53125 46.484375 51.125 
Q 46.484375 57.671875 42.71875 61.234375 
Q 38.96875 64.796875 32.078125 64.796875 
z
M 9.8125 72.90625 
L 32.078125 72.90625 
Q 44.34375 72.90625 50.609375 67.359375 
Q 56.890625 61.8125 56.890625 51.125 
Q 56.890625 40.328125 50.609375 34.8125 
Q 44.34375 29.296875 32.078125 29.296875 
L 19.671875 29.296875 
L 19.671875 0 
L 9.8125 0 
z
" id="DejaVuSans-80"/>
       <path d="M 48.78125 52.59375 
L 48.78125 44.1875 
Q 44.96875 46.296875 41.140625 47.34375 
Q 37.3125 48.390625 33.40625 48.390625 
Q 24.65625 48.390625 19.8125 42.84375 
Q 14.984375 37.3125 14.984375 27.296875 
Q 14.984375 17.28125 19.8125 11.734375 
Q 24.65625 6.203125 33.40625 6.203125 
Q 37.3125 6.203125 41.140625 7.25 
Q 44.96875 8.296875 48.78125 10.40625 
L 48.78125 2.09375 
Q 45.015625 0.34375 40.984375 -0.53125 
Q 36.96875 -1.421875 32.421875 -1.421875 
Q 20.0625 -1.421875 12.78125 6.34375 
Q 5.515625 14.109375 5.515625 27.296875 
Q 5.515625 40.671875 12.859375 48.328125 
Q 20.21875 56 33.015625 56 
Q 37.15625 56 41.109375 55.140625 
Q 45.0625 54.296875 48.78125 52.59375 
z
" id="DejaVuSans-99"/>
       <path d="M 18.109375 8.203125 
L 18.109375 -20.796875 
L 9.078125 -20.796875 
L 9.078125 54.6875 
L 18.109375 54.6875 
L 18.109375 46.390625 
Q 20.953125 51.265625 25.265625 53.625 
Q 29.59375 56 35.59375 56 
Q 45.5625 56 51.78125 48.09375 
Q 58.015625 40.1875 58.015625 27.296875 
Q 58.015625 14.40625 51.78125 6.484375 
Q 45.5625 -1.421875 35.59375 -1.421875 
Q 29.59375 -1.421875 25.265625 0.953125 
Q 20.953125 3.328125 18.109375 8.203125 
z
M 48.6875 27.296875 
Q 48.6875 37.203125 44.609375 42.84375 
Q 40.53125 48.484375 33.40625 48.484375 
Q 26.265625 48.484375 22.1875 42.84375 
Q 18.109375 37.203125 18.109375 27.296875 
Q 18.109375 17.390625 22.1875 11.75 
Q 26.265625 6.109375 33.40625 6.109375 
Q 40.53125 6.109375 44.609375 11.75 
Q 48.6875 17.390625 48.6875 27.296875 
z
" id="DejaVuSans-112"/>
       <path d="M 54.890625 33.015625 
L 54.890625 0 
L 45.90625 0 
L 45.90625 32.71875 
Q 45.90625 40.484375 42.875 44.328125 
Q 39.84375 48.1875 33.796875 48.1875 
Q 26.515625 48.1875 22.3125 43.546875 
Q 18.109375 38.921875 18.109375 30.90625 
L 18.109375 0 
L 9.078125 0 
L 9.078125 54.6875 
L 18.109375 54.6875 
L 18.109375 46.1875 
Q 21.34375 51.125 25.703125 53.5625 
Q 30.078125 56 35.796875 56 
Q 45.21875 56 50.046875 50.171875 
Q 54.890625 44.34375 54.890625 33.015625 
z
" id="DejaVuSans-110"/>
      </defs>
      <use xlink:href="#DejaVuSans-87"/>
      <use x="92.501953" xlink:href="#DejaVuSans-97"/>
      <use x="153.78125" xlink:href="#DejaVuSans-116"/>
      <use x="192.990234" xlink:href="#DejaVuSans-101"/>
      <use x="254.513672" xlink:href="#DejaVuSans-114"/>
      <use x="295.626953" xlink:href="#DejaVuSans-32"/>
      <use x="327.414062" xlink:href="#DejaVuSans-81"/>
      <use x="406.125" xlink:href="#DejaVuSans-117"/>
      <use x="469.503906" xlink:href="#DejaVuSans-97"/>
      <use x="530.783203" xlink:href="#DejaVuSans-108"/>
      <use x="558.566406" xlink:href="#DejaVuSans-105"/>
      <use x="586.349609" xlink:href="#DejaVuSans-116"/>
      <use x="625.558594" xlink:href="#DejaVuSans-121"/>
      <use x="684.738281" xlink:href="#DejaVuSans-32"/>
      <use x="716.525391" xlink:href="#DejaVuSans-80"/>
      <use x="773.203125" xlink:href="#DejaVuSans-101"/>
      <use x="834.726562" xlink:href="#DejaVuSans-114"/>
      <use x="873.589844" xlink:href="#DejaVuSans-99"/>
      <use x="928.570312" xlink:href="#DejaVuSans-101"/>
      <use x="990.09375" xlink:href="#DejaVuSans-112"/>
      <use x="1053.570312" xlink:href="#DejaVuSans-116"/>
      <use x="1092.779297" xlink:href="#DejaVuSans-105"/>
      <use x="1120.5625" xlink:href="#DejaVuSans-111"/>
      <use x="1181.744141" xlink:href="#DejaVuSans-110"/>
     </g>
    </g>
   </g>
   <g id="matplotlib.axis_2">
    <g id="ytick_1">
     <g id="line2d_6">
      <defs>
       <path d="M 0 0 
L -4.8 0 
" id="mcbc81c7807" style="stroke:#262626;"/>
      </defs>
      <g>
       <use style="fill:#262626;stroke:#262626;" x="48.38475" xlink:href="#mcbc81c7807" y="309.135381"/>
      </g>
     </g>
     <g id="text_7">
      <!-- 14.5 -->
      <g style="fill:#262626;" transform="translate(20.491 312.478693)scale(0.088 -0.088)">
       <defs>
        <path d="M 12.40625 8.296875 
L 28.515625 8.296875 
L 28.515625 63.921875 
L 10.984375 60.40625 
L 10.984375 69.390625 
L 28.421875 72.90625 
L 38.28125 72.90625 
L 38.28125 8.296875 
L 54.390625 8.296875 
L 54.390625 0 
L 12.40625 0 
z
" id="DejaVuSans-49"/>
        <path d="M 37.796875 64.3125 
L 12.890625 25.390625 
L 37.796875 25.390625 
z
M 35.203125 72.90625 
L 47.609375 72.90625 
L 47.609375 25.390625 
L 58.015625 25.390625 
L 58.015625 17.1875 
L 47.609375 17.1875 
L 47.609375 0 
L 37.796875 0 
L 37.796875 17.1875 
L 4.890625 17.1875 
L 4.890625 26.703125 
z
" id="DejaVuSans-52"/>
        <path d="M 10.6875 12.40625 
L 21 12.40625 
L 21 0 
L 10.6875 0 
z
" id="DejaVuSans-46"/>
        <path d="M 10.796875 72.90625 
L 49.515625 72.90625 
L 49.515625 64.59375 
L 19.828125 64.59375 
L 19.828125 46.734375 
Q 21.96875 47.46875 24.109375 47.828125 
Q 26.265625 48.1875 28.421875 48.1875 
Q 40.625 48.1875 47.75 41.5 
Q 54.890625 34.8125 54.890625 23.390625 
Q 54.890625 11.625 47.5625 5.09375 
Q 40.234375 -1.421875 26.90625 -1.421875 
Q 22.3125 -1.421875 17.546875 -0.640625 
Q 12.796875 0.140625 7.71875 1.703125 
L 7.71875 11.625 
Q 12.109375 9.234375 16.796875 8.0625 
Q 21.484375 6.890625 26.703125 6.890625 
Q 35.15625 6.890625 40.078125 11.328125 
Q 45.015625 15.765625 45.015625 23.390625 
Q 45.015625 31 40.078125 35.4375 
Q 35.15625 39.890625 26.703125 39.890625 
Q 22.75 39.890625 18.8125 39.015625 
Q 14.890625 38.140625 10.796875 36.28125 
z
" id="DejaVuSans-53"/>
       </defs>
       <use xlink:href="#DejaVuSans-49"/>
       <use x="63.623047" xlink:href="#DejaVuSans-52"/>
       <use x="127.246094" xlink:href="#DejaVuSans-46"/>
       <use x="159.033203" xlink:href="#DejaVuSans-53"/>
      </g>
     </g>
    </g>
    <g id="ytick_2">
     <g id="line2d_7">
      <g>
       <use style="fill:#262626;stroke:#262626;" x="48.38475" xlink:href="#mcbc81c7807" y="267.846602"/>
      </g>
     </g>
     <g id="text_8">
      <!-- 15.0 -->
      <g style="fill:#262626;" transform="translate(20.491 271.189915)scale(0.088 -0.088)">
       <defs>
        <path d="M 31.78125 66.40625 
Q 24.171875 66.40625 20.328125 58.90625 
Q 16.5 51.421875 16.5 36.375 
Q 16.5 21.390625 20.328125 13.890625 
Q 24.171875 6.390625 31.78125 6.390625 
Q 39.453125 6.390625 43.28125 13.890625 
Q 47.125 21.390625 47.125 36.375 
Q 47.125 51.421875 43.28125 58.90625 
Q 39.453125 66.40625 31.78125 66.40625 
z
M 31.78125 74.21875 
Q 44.046875 74.21875 50.515625 64.515625 
Q 56.984375 54.828125 56.984375 36.375 
Q 56.984375 17.96875 50.515625 8.265625 
Q 44.046875 -1.421875 31.78125 -1.421875 
Q 19.53125 -1.421875 13.0625 8.265625 
Q 6.59375 17.96875 6.59375 36.375 
Q 6.59375 54.828125 13.0625 64.515625 
Q 19.53125 74.21875 31.78125 74.21875 
z
" id="DejaVuSans-48"/>
       </defs>
       <use xlink:href="#DejaVuSans-49"/>
       <use x="63.623047" xlink:href="#DejaVuSans-53"/>
       <use x="127.246094" xlink:href="#DejaVuSans-46"/>
       <use x="159.033203" xlink:href="#DejaVuSans-48"/>
      </g>
     </g>
    </g>
    <g id="ytick_3">
     <g id="line2d_8">
      <g>
       <use style="fill:#262626;stroke:#262626;" x="48.38475" xlink:href="#mcbc81c7807" y="226.557823"/>
      </g>
     </g>
     <g id="text_9">
      <!-- 15.5 -->
      <g style="fill:#262626;" transform="translate(20.491 229.901136)scale(0.088 -0.088)">
       <use xlink:href="#DejaVuSans-49"/>
       <use x="63.623047" xlink:href="#DejaVuSans-53"/>
       <use x="127.246094" xlink:href="#DejaVuSans-46"/>
       <use x="159.033203" xlink:href="#DejaVuSans-53"/>
      </g>
     </g>
    </g>
    <g id="ytick_4">
     <g id="line2d_9">
      <g>
       <use style="fill:#262626;stroke:#262626;" x="48.38475" xlink:href="#mcbc81c7807" y="185.269044"/>
      </g>
     </g>
     <g id="text_10">
      <!-- 16.0 -->
      <g style="fill:#262626;" transform="translate(20.491 188.612357)scale(0.088 -0.088)">
       <defs>
        <path d="M 33.015625 40.375 
Q 26.375 40.375 22.484375 35.828125 
Q 18.609375 31.296875 18.609375 23.390625 
Q 18.609375 15.53125 22.484375 10.953125 
Q 26.375 6.390625 33.015625 6.390625 
Q 39.65625 6.390625 43.53125 10.953125 
Q 47.40625 15.53125 47.40625 23.390625 
Q 47.40625 31.296875 43.53125 35.828125 
Q 39.65625 40.375 33.015625 40.375 
z
M 52.59375 71.296875 
L 52.59375 62.3125 
Q 48.875 64.0625 45.09375 64.984375 
Q 41.3125 65.921875 37.59375 65.921875 
Q 27.828125 65.921875 22.671875 59.328125 
Q 17.53125 52.734375 16.796875 39.40625 
Q 19.671875 43.65625 24.015625 45.921875 
Q 28.375 48.1875 33.59375 48.1875 
Q 44.578125 48.1875 50.953125 41.515625 
Q 57.328125 34.859375 57.328125 23.390625 
Q 57.328125 12.15625 50.6875 5.359375 
Q 44.046875 -1.421875 33.015625 -1.421875 
Q 20.359375 -1.421875 13.671875 8.265625 
Q 6.984375 17.96875 6.984375 36.375 
Q 6.984375 53.65625 15.1875 63.9375 
Q 23.390625 74.21875 37.203125 74.21875 
Q 40.921875 74.21875 44.703125 73.484375 
Q 48.484375 72.75 52.59375 71.296875 
z
" id="DejaVuSans-54"/>
       </defs>
       <use xlink:href="#DejaVuSans-49"/>
       <use x="63.623047" xlink:href="#DejaVuSans-54"/>
       <use x="127.246094" xlink:href="#DejaVuSans-46"/>
       <use x="159.033203" xlink:href="#DejaVuSans-48"/>
      </g>
     </g>
    </g>
    <g id="ytick_5">
     <g id="line2d_10">
      <g>
       <use style="fill:#262626;stroke:#262626;" x="48.38475" xlink:href="#mcbc81c7807" y="143.980266"/>
      </g>
     </g>
     <g id="text_11">
      <!-- 16.5 -->
      <g style="fill:#262626;" transform="translate(20.491 147.323578)scale(0.088 -0.088)">
       <use xlink:href="#DejaVuSans-49"/>
       <use x="63.623047" xlink:href="#DejaVuSans-54"/>
       <use x="127.246094" xlink:href="#DejaVuSans-46"/>
       <use x="159.033203" xlink:href="#DejaVuSans-53"/>
      </g>
     </g>
    </g>
    <g id="ytick_6">
     <g id="line2d_11">
      <g>
       <use style="fill:#262626;stroke:#262626;" x="48.38475" xlink:href="#mcbc81c7807" y="102.691487"/>
      </g>
     </g>
     <g id="text_12">
      <!-- 17.0 -->
      <g style="fill:#262626;" transform="translate(20.491 106.034799)scale(0.088 -0.088)">
       <defs>
        <path d="M 8.203125 72.90625 
L 55.078125 72.90625 
L 55.078125 68.703125 
L 28.609375 0 
L 18.3125 0 
L 43.21875 64.59375 
L 8.203125 64.59375 
z
" id="DejaVuSans-55"/>
       </defs>
       <use xlink:href="#DejaVuSans-49"/>
       <use x="63.623047" xlink:href="#DejaVuSans-55"/>
       <use x="127.246094" xlink:href="#DejaVuSans-46"/>
       <use x="159.033203" xlink:href="#DejaVuSans-48"/>
      </g>
     </g>
    </g>
    <g id="ytick_7">
     <g id="line2d_12">
      <g>
       <use style="fill:#262626;stroke:#262626;" x="48.38475" xlink:href="#mcbc81c7807" y="61.402708"/>
      </g>
     </g>
     <g id="text_13">
      <!-- 17.5 -->
      <g style="fill:#262626;" transform="translate(20.491 64.74602)scale(0.088 -0.088)">
       <use xlink:href="#DejaVuSans-49"/>
       <use x="63.623047" xlink:href="#DejaVuSans-55"/>
       <use x="127.246094" xlink:href="#DejaVuSans-46"/>
       <use x="159.033203" xlink:href="#DejaVuSans-53"/>
      </g>
     </g>
    </g>
    <g id="text_14">
     <!-- Water Quality Score -->
     <g style="fill:#262626;" transform="translate(14.4945 229.3115)rotate(-90)scale(0.096 -0.096)">
      <defs>
       <path d="M 53.515625 70.515625 
L 53.515625 60.890625 
Q 47.90625 63.578125 42.921875 64.890625 
Q 37.9375 66.21875 33.296875 66.21875 
Q 25.25 66.21875 20.875 63.09375 
Q 16.5 59.96875 16.5 54.203125 
Q 16.5 49.359375 19.40625 46.890625 
Q 22.3125 44.4375 30.421875 42.921875 
L 36.375 41.703125 
Q 47.40625 39.59375 52.65625 34.296875 
Q 57.90625 29 57.90625 20.125 
Q 57.90625 9.515625 50.796875 4.046875 
Q 43.703125 -1.421875 29.984375 -1.421875 
Q 24.8125 -1.421875 18.96875 -0.25 
Q 13.140625 0.921875 6.890625 3.21875 
L 6.890625 13.375 
Q 12.890625 10.015625 18.65625 8.296875 
Q 24.421875 6.59375 29.984375 6.59375 
Q 38.421875 6.59375 43.015625 9.90625 
Q 47.609375 13.234375 47.609375 19.390625 
Q 47.609375 24.75 44.3125 27.78125 
Q 41.015625 30.8125 33.5 32.328125 
L 27.484375 33.5 
Q 16.453125 35.6875 11.515625 40.375 
Q 6.59375 45.0625 6.59375 53.421875 
Q 6.59375 63.09375 13.40625 68.65625 
Q 20.21875 74.21875 32.171875 74.21875 
Q 37.3125 74.21875 42.625 73.28125 
Q 47.953125 72.359375 53.515625 70.515625 
z
" id="DejaVuSans-83"/>
      </defs>
      <use xlink:href="#DejaVuSans-87"/>
      <use x="92.501953" xlink:href="#DejaVuSans-97"/>
      <use x="153.78125" xlink:href="#DejaVuSans-116"/>
      <use x="192.990234" xlink:href="#DejaVuSans-101"/>
      <use x="254.513672" xlink:href="#DejaVuSans-114"/>
      <use x="295.626953" xlink:href="#DejaVuSans-32"/>
      <use x="327.414062" xlink:href="#DejaVuSans-81"/>
      <use x="406.125" xlink:href="#DejaVuSans-117"/>
      <use x="469.503906" xlink:href="#DejaVuSans-97"/>
      <use x="530.783203" xlink:href="#DejaVuSans-108"/>
      <use x="558.566406" xlink:href="#DejaVuSans-105"/>
      <use x="586.349609" xlink:href="#DejaVuSans-116"/>
      <use x="625.558594" xlink:href="#DejaVuSans-121"/>
      <use x="684.738281" xlink:href="#DejaVuSans-32"/>
      <use x="716.525391" xlink:href="#DejaVuSans-83"/>
      <use x="780.001953" xlink:href="#DejaVuSans-99"/>
      <use x="834.982422" xlink:href="#DejaVuSans-111"/>
      <use x="896.164062" xlink:href="#DejaVuSans-114"/>
      <use x="935.027344" xlink:href="#DejaVuSans-101"/>
     </g>
    </g>
   </g>
   <g id="PathCollection_1">
    <defs>
     <path d="M 0 3.535534 
C 0.937635 3.535534 1.836992 3.163008 2.5 2.5 
C 3.163008 1.836992 3.535534 0.937635 3.535534 0 
C 3.535534 -0.937635 3.163008 -1.836992 2.5 -2.5 
C 1.836992 -3.163008 0.937635 -3.535534 0 -3.535534 
C -0.937635 -3.535534 -1.836992 -3.163008 -2.5 -2.5 
C -3.163008 -1.836992 -3.535534 -0.937635 -3.535534 0 
C -3.535534 0.937635 -3.163008 1.836992 -2.5 2.5 
C -1.836992 3.163008 -0.937635 3.535534 0 3.535534 
z
" id="m43a2ccd755" style="stroke:#6a51a3;stroke-width:0.8;"/>
    </defs>
    <g clip-path="url(#pa98a242291)">
     <use style="fill:#6a51a3;stroke:#6a51a3;stroke-width:0.8;" x="48.38475" xlink:href="#m43a2ccd755" y="64.868051"/>
     <use style="fill:#6a51a3;stroke:#6a51a3;stroke-width:0.8;" x="124.4695" xlink:href="#m43a2ccd755" y="120.690735"/>
     <use style="fill:#6a51a3;stroke:#6a51a3;stroke-width:0.8;" x="200.55425" xlink:href="#m43a2ccd755" y="164.262109"/>
     <use style="fill:#6a51a3;stroke:#6a51a3;stroke-width:0.8;" x="276.639" xlink:href="#m43a2ccd755" y="192.507532"/>
     <use style="fill:#6a51a3;stroke:#6a51a3;stroke-width:0.8;" x="352.72375" xlink:href="#m43a2ccd755" y="211.38905"/>
    </g>
   </g>
   <g id="PolyCollection_1">
    <defs>
     <path d="M 48.38475 -329.182519 
L 48.38475 -283.226993 
L 51.458881 -281.960091 
L 54.533013 -280.693188 
L 57.607144 -279.430946 
L 60.681275 -278.172996 
L 63.755407 -276.915047 
L 66.829538 -275.657097 
L 69.903669 -274.511898 
L 72.977801 -273.129571 
L 76.051932 -271.8469 
L 79.126063 -270.500448 
L 82.200194 -269.043593 
L 85.274326 -267.784555 
L 88.348457 -266.430383 
L 91.422588 -264.977496 
L 94.49672 -263.718772 
L 97.570851 -262.336173 
L 100.644982 -261.013865 
L 103.719114 -259.670293 
L 106.793245 -258.226335 
L 109.867376 -256.96109 
L 112.941508 -255.479142 
L 116.015639 -254.091825 
L 119.08977 -252.857587 
L 122.163902 -251.138563 
L 125.238033 -249.621176 
L 128.312164 -248.294351 
L 131.386295 -246.778082 
L 134.460427 -245.158243 
L 137.534558 -243.479107 
L 140.608689 -241.832916 
L 143.682821 -240.091668 
L 146.756952 -238.101588 
L 149.831083 -236.507631 
L 152.905215 -234.658507 
L 155.979346 -232.941527 
L 159.053477 -231.02451 
L 162.127609 -229.215008 
L 165.20174 -227.234271 
L 168.275871 -225.118741 
L 171.350003 -223.499941 
L 174.424134 -221.506755 
L 177.498265 -219.452685 
L 180.572396 -217.5223 
L 183.646528 -215.71056 
L 186.720659 -213.678079 
L 189.79479 -211.539465 
L 192.868922 -209.316649 
L 195.943053 -207.211671 
L 199.017184 -205.216192 
L 202.091316 -203.083324 
L 205.165447 -201.015796 
L 208.239578 -198.879521 
L 211.31371 -196.676725 
L 214.387841 -194.440727 
L 217.461972 -192.210472 
L 220.536104 -190.070416 
L 223.610235 -187.930385 
L 226.684366 -185.790353 
L 229.758497 -183.577216 
L 232.832629 -181.348201 
L 235.90676 -179.162866 
L 238.980891 -176.879667 
L 242.055023 -174.64729 
L 245.129154 -172.414913 
L 248.203285 -170.158361 
L 251.277417 -167.840545 
L 254.351548 -165.518715 
L 257.425679 -163.201893 
L 260.499811 -160.885639 
L 263.573942 -158.569571 
L 266.648073 -156.274473 
L 269.722205 -153.936876 
L 272.796336 -151.684501 
L 275.870467 -149.52178 
L 278.944598 -147.429787 
L 282.01873 -145.337793 
L 285.092861 -143.245799 
L 288.166992 -141.106432 
L 291.241124 -138.833405 
L 294.315255 -136.560378 
L 297.389386 -134.287351 
L 300.463518 -132.014324 
L 303.537649 -129.741297 
L 306.61178 -127.46827 
L 309.685912 -125.195242 
L 312.760043 -122.922215 
L 315.834174 -120.649188 
L 318.908306 -118.34862 
L 321.982437 -115.97935 
L 325.056568 -113.610079 
L 328.130699 -111.240809 
L 331.204831 -108.925442 
L 334.278962 -106.671906 
L 337.353093 -104.41837 
L 340.427225 -102.165386 
L 343.501356 -99.914668 
L 346.575487 -97.663949 
L 349.649619 -95.413231 
L 352.72375 -93.162513 
L 352.72375 -172.422624 
L 352.72375 -172.422624 
L 349.649619 -173.596216 
L 346.575487 -174.769808 
L 343.501356 -175.9434 
L 340.427225 -177.138121 
L 337.353093 -178.364043 
L 334.278962 -179.589965 
L 331.204831 -180.841661 
L 328.130699 -182.132667 
L 325.056568 -183.32287 
L 321.982437 -184.50094 
L 318.908306 -185.729718 
L 315.834174 -186.955006 
L 312.760043 -188.260618 
L 309.685912 -189.409161 
L 306.61178 -190.634443 
L 303.537649 -191.860251 
L 300.463518 -193.133897 
L 297.389386 -194.408733 
L 294.315255 -195.683568 
L 291.241124 -196.958403 
L 288.166992 -198.23108 
L 285.092861 -199.503603 
L 282.01873 -200.76111 
L 278.944598 -201.971076 
L 275.870467 -203.181041 
L 272.796336 -204.391007 
L 269.722205 -205.667844 
L 266.648073 -207.01617 
L 263.573942 -208.291791 
L 260.499811 -209.360993 
L 257.425679 -210.741827 
L 254.351548 -212.121302 
L 251.277417 -213.232791 
L 248.203285 -214.386649 
L 245.129154 -215.689534 
L 242.055023 -216.918312 
L 238.980891 -218.184295 
L 235.90676 -219.455956 
L 232.832629 -220.72636 
L 229.758497 -222.113469 
L 226.684366 -223.555127 
L 223.610235 -224.986017 
L 220.536104 -226.237759 
L 217.461972 -227.538128 
L 214.387841 -228.819585 
L 211.31371 -230.263602 
L 208.239578 -231.405011 
L 205.165447 -232.991388 
L 202.091316 -234.158329 
L 199.017184 -235.789051 
L 195.943053 -237.424998 
L 192.868922 -238.71503 
L 189.79479 -240.236938 
L 186.720659 -241.622763 
L 183.646528 -243.097538 
L 180.572396 -244.587221 
L 177.498265 -246.074386 
L 174.424134 -247.570724 
L 171.350003 -249.063868 
L 168.275871 -250.766406 
L 165.20174 -252.221555 
L 162.127609 -253.791945 
L 159.053477 -255.362321 
L 155.979346 -256.808284 
L 152.905215 -258.478491 
L 149.831083 -260.309197 
L 146.756952 -262.092201 
L 143.682821 -263.904235 
L 140.608689 -265.602965 
L 137.534558 -267.538843 
L 134.460427 -269.595868 
L 131.386295 -271.202856 
L 128.312164 -273.152474 
L 125.238033 -274.998355 
L 122.163902 -276.974856 
L 119.08977 -278.869342 
L 116.015639 -281.12312 
L 112.941508 -283.247944 
L 109.867376 -285.223556 
L 106.793245 -287.257421 
L 103.719114 -289.313908 
L 100.644982 -291.358397 
L 97.570851 -293.389701 
L 94.49672 -295.480228 
L 91.422588 -297.534335 
L 88.348457 -299.516089 
L 85.274326 -301.435882 
L 82.200194 -303.795866 
L 79.126063 -306.204166 
L 76.051932 -308.667817 
L 72.977801 -311.150683 
L 69.903669 -313.298437 
L 66.829538 -315.3113 
L 63.755407 -317.617693 
L 60.681275 -319.931303 
L 57.607144 -322.248865 
L 54.533013 -324.566428 
L 51.458881 -326.877297 
L 48.38475 -329.182519 
z
" id="mf4e338bdbe" style="stroke:#ffffff;stroke-opacity:0.15;stroke-width:0.8;"/>
    </defs>
    <g clip-path="url(#pa98a242291)">
     <use style="fill:#6a51a3;fill-opacity:0.15;stroke:#ffffff;stroke-opacity:0.15;stroke-width:0.8;" x="0" xlink:href="#mf4e338bdbe" y="379.76625"/>
    </g>
   </g>
   <g id="line2d_13">
    <path clip-path="url(#pa98a242291)" d="M 48.38475 95.892519 
L 48.38475 35.129227 
" style="fill:none;stroke:#6a51a3;stroke-linecap:round;stroke-width:2.1;"/>
   </g>
   <g id="line2d_14">
    <path clip-path="url(#pa98a242291)" d="M 124.4695 138.973645 
L 124.4695 100.103652 
" style="fill:none;stroke:#6a51a3;stroke-linecap:round;stroke-width:2.1;"/>
   </g>
   <g id="line2d_15">
    <path clip-path="url(#pa98a242291)" d="M 200.55425 185.354851 
L 200.55425 140.36218 
" style="fill:none;stroke:#6a51a3;stroke-linecap:round;stroke-width:2.1;"/>
   </g>
   <g id="line2d_16">
    <path clip-path="url(#pa98a242291)" d="M 276.639 236.286341 
L 276.639 148.171996 
" style="fill:none;stroke:#6a51a3;stroke-linecap:round;stroke-width:2.1;"/>
   </g>
   <g id="line2d_17">
    <path clip-path="url(#pa98a242291)" d="M 352.72375 327.823773 
L 352.72375 102.00194 
" style="fill:none;stroke:#6a51a3;stroke-linecap:round;stroke-width:2.1;"/>
   </g>
   <g id="line2d_18">
    <path clip-path="url(#pa98a242291)" d="M 48.38475 74.055359 
L 51.458881 75.794374 
L 54.533013 77.533389 
L 57.607144 79.272404 
L 60.681275 81.011419 
L 63.755407 82.750433 
L 66.829538 84.489448 
L 69.903669 86.228463 
L 72.977801 87.967478 
L 76.051932 89.706492 
L 79.126063 91.445507 
L 82.200194 93.184522 
L 85.274326 94.923537 
L 88.348457 96.662552 
L 91.422588 98.401566 
L 94.49672 100.140581 
L 97.570851 101.879596 
L 100.644982 103.618611 
L 103.719114 105.357626 
L 106.793245 107.09664 
L 109.867376 108.835655 
L 112.941508 110.57467 
L 116.015639 112.313685 
L 119.08977 114.0527 
L 122.163902 115.791714 
L 125.238033 117.530729 
L 128.312164 119.269744 
L 131.386295 121.008759 
L 134.460427 122.747774 
L 137.534558 124.486788 
L 140.608689 126.225803 
L 143.682821 127.964818 
L 146.756952 129.703833 
L 149.831083 131.442848 
L 152.905215 133.181862 
L 155.979346 134.920877 
L 159.053477 136.659892 
L 162.127609 138.398907 
L 165.20174 140.137922 
L 168.275871 141.876936 
L 171.350003 143.615951 
L 174.424134 145.354966 
L 177.498265 147.093981 
L 180.572396 148.832995 
L 183.646528 150.57201 
L 186.720659 152.311025 
L 189.79479 154.05004 
L 192.868922 155.789055 
L 195.943053 157.528069 
L 199.017184 159.267084 
L 202.091316 161.006099 
L 205.165447 162.745114 
L 208.239578 164.484129 
L 211.31371 166.223143 
L 214.387841 167.962158 
L 217.461972 169.701173 
L 220.536104 171.440188 
L 223.610235 173.179203 
L 226.684366 174.918217 
L 229.758497 176.657232 
L 232.832629 178.396247 
L 235.90676 180.135262 
L 238.980891 181.874277 
L 242.055023 183.613291 
L 245.129154 185.352306 
L 248.203285 187.091321 
L 251.277417 188.830336 
L 254.351548 190.569351 
L 257.425679 192.308365 
L 260.499811 194.04738 
L 263.573942 195.786395 
L 266.648073 197.52541 
L 269.722205 199.264425 
L 272.796336 201.003439 
L 275.870467 202.742454 
L 278.944598 204.481469 
L 282.01873 206.220484 
L 285.092861 207.959499 
L 288.166992 209.698513 
L 291.241124 211.437528 
L 294.315255 213.176543 
L 297.389386 214.915558 
L 300.463518 216.654572 
L 303.537649 218.393587 
L 306.61178 220.132602 
L 309.685912 221.871617 
L 312.760043 223.610632 
L 315.834174 225.349646 
L 318.908306 227.088661 
L 321.982437 228.827676 
L 325.056568 230.566691 
L 328.130699 232.305706 
L 331.204831 234.04472 
L 334.278962 235.783735 
L 337.353093 237.52275 
L 340.427225 239.261765 
L 343.501356 241.00078 
L 346.575487 242.739794 
L 349.649619 244.478809 
L 352.72375 246.217824 
" style="fill:none;stroke:#6a51a3;stroke-linecap:round;stroke-width:1.8;"/>
   </g>
   <g id="patch_3">
    <path d="M 48.38475 342.4585 
L 48.38475 20.4945 
" style="fill:none;stroke:#262626;stroke-linecap:square;stroke-linejoin:miter;"/>
   </g>
   <g id="patch_4">
    <path d="M 48.38475 342.4585 
L 352.72375 342.4585 
" style="fill:none;stroke:#262626;stroke-linecap:square;stroke-linejoin:miter;"/>
   </g>
   <g id="text_15">
    <!-- Water Quality vs. Water Quality Perception -->
    <g style="fill:#262626;" transform="translate(98.003 14.4945)scale(0.096 -0.096)">
     <defs>
      <path d="M 44.28125 53.078125 
L 44.28125 44.578125 
Q 40.484375 46.53125 36.375 47.5 
Q 32.28125 48.484375 27.875 48.484375 
Q 21.1875 48.484375 17.84375 46.4375 
Q 14.5 44.390625 14.5 40.28125 
Q 14.5 37.15625 16.890625 35.375 
Q 19.28125 33.59375 26.515625 31.984375 
L 29.59375 31.296875 
Q 39.15625 29.25 43.1875 25.515625 
Q 47.21875 21.78125 47.21875 15.09375 
Q 47.21875 7.46875 41.1875 3.015625 
Q 35.15625 -1.421875 24.609375 -1.421875 
Q 20.21875 -1.421875 15.453125 -0.5625 
Q 10.6875 0.296875 5.421875 2 
L 5.421875 11.28125 
Q 10.40625 8.6875 15.234375 7.390625 
Q 20.0625 6.109375 24.8125 6.109375 
Q 31.15625 6.109375 34.5625 8.28125 
Q 37.984375 10.453125 37.984375 14.40625 
Q 37.984375 18.0625 35.515625 20.015625 
Q 33.0625 21.96875 24.703125 23.78125 
L 21.578125 24.515625 
Q 13.234375 26.265625 9.515625 29.90625 
Q 5.8125 33.546875 5.8125 39.890625 
Q 5.8125 47.609375 11.28125 51.796875 
Q 16.75 56 26.8125 56 
Q 31.78125 56 36.171875 55.265625 
Q 40.578125 54.546875 44.28125 53.078125 
z
" id="DejaVuSans-115"/>
     </defs>
     <use xlink:href="#DejaVuSans-87"/>
     <use x="92.501953" xlink:href="#DejaVuSans-97"/>
     <use x="153.78125" xlink:href="#DejaVuSans-116"/>
     <use x="192.990234" xlink:href="#DejaVuSans-101"/>
     <use x="254.513672" xlink:href="#DejaVuSans-114"/>
     <use x="295.626953" xlink:href="#DejaVuSans-32"/>
     <use x="327.414062" xlink:href="#DejaVuSans-81"/>
     <use x="406.125" xlink:href="#DejaVuSans-117"/>
     <use x="469.503906" xlink:href="#DejaVuSans-97"/>
     <use x="530.783203" xlink:href="#DejaVuSans-108"/>
     <use x="558.566406" xlink:href="#DejaVuSans-105"/>
     <use x="586.349609" xlink:href="#DejaVuSans-116"/>
     <use x="625.558594" xlink:href="#DejaVuSans-121"/>
     <use x="684.738281" xlink:href="#DejaVuSans-32"/>
     <use x="716.525391" xlink:href="#DejaVuSans-118"/>
     <use x="775.705078" xlink:href="#DejaVuSans-115"/>
     <use x="827.804688" xlink:href="#DejaVuSans-46"/>
     <use x="859.591797" xlink:href="#DejaVuSans-32"/>
     <use x="891.378906" xlink:href="#DejaVuSans-87"/>
     <use x="983.880859" xlink:href="#DejaVuSans-97"/>
     <use x="1045.160156" xlink:href="#DejaVuSans-116"/>
     <use x="1084.369141" xlink:href="#DejaVuSans-101"/>
     <use x="1145.892578" xlink:href="#DejaVuSans-114"/>
     <use x="1187.005859" xlink:href="#DejaVuSans-32"/>
     <use x="1218.792969" xlink:href="#DejaVuSans-81"/>
     <use x="1297.503906" xlink:href="#DejaVuSans-117"/>
     <use x="1360.882812" xlink:href="#DejaVuSans-97"/>
     <use x="1422.162109" xlink:href="#DejaVuSans-108"/>
     <use x="1449.945312" xlink:href="#DejaVuSans-105"/>
     <use x="1477.728516" xlink:href="#DejaVuSans-116"/>
     <use x="1516.9375" xlink:href="#DejaVuSans-121"/>
     <use x="1576.117188" xlink:href="#DejaVuSans-32"/>
     <use x="1607.904297" xlink:href="#DejaVuSans-80"/>
     <use x="1664.582031" xlink:href="#DejaVuSans-101"/>
     <use x="1726.105469" xlink:href="#DejaVuSans-114"/>
     <use x="1764.96875" xlink:href="#DejaVuSans-99"/>
     <use x="1819.949219" xlink:href="#DejaVuSans-101"/>
     <use x="1881.472656" xlink:href="#DejaVuSans-112"/>
     <use x="1944.949219" xlink:href="#DejaVuSans-116"/>
     <use x="1984.158203" xlink:href="#DejaVuSans-105"/>
     <use x="2011.941406" xlink:href="#DejaVuSans-111"/>
     <use x="2073.123047" xlink:href="#DejaVuSans-110"/>
    </g>
   </g>
  </g>
 </g>
 <defs>
  <clipPath id="pa98a242291">
   <rect height="321.964" width="304.339" x="48.38475" y="20.4945"/>
  </clipPath>
 </defs>
</svg>
