<?xml version="1.0" encoding="utf-8" standalone="no"?>
<!DOCTYPE svg PUBLIC "-//W3C//DTD SVG 1.1//EN"
  "http://www.w3.org/Graphics/SVG/1.1/DTD/svg11.dtd">
<!-- Created with matplotlib (https://matplotlib.org/) -->
<svg height="491.126383pt" version="1.1" viewBox="0 0 366.94975 491.126383" width="366.94975pt" xmlns="http://www.w3.org/2000/svg" xmlns:xlink="http://www.w3.org/1999/xlink">
 <metadata>
  <rdf:RDF xmlns:cc="http://creativecommons.org/ns#" xmlns:dc="http://purl.org/dc/elements/1.1/" xmlns:rdf="http://www.w3.org/1999/02/22-rdf-syntax-ns#">
   <cc:Work>
    <dc:type rdf:resource="http://purl.org/dc/dcmitype/StillImage"/>
    <dc:date>2022-02-28T15:43:00.554371</dc:date>
    <dc:format>image/svg+xml</dc:format>
    <dc:creator>
     <cc:Agent>
      <dc:title>Matplotlib v3.3.4, https://matplotlib.org/</dc:title>
     </cc:Agent>
    </dc:creator>
   </cc:Work>
  </rdf:RDF>
 </metadata>
 <defs>
  <style type="text/css">*{stroke-linecap:butt;stroke-linejoin:round;}</style>
 </defs>
 <g id="figure_1">
  <g id="patch_1">
   <path d="M 0 491.126383 
L 366.94975 491.126383 
L 366.94975 0 
L 0 0 
z
" style="fill:#ffffff;"/>
  </g>
  <g id="axes_1">
   <g id="patch_2">
    <path d="M 42.78575 342.4585 
L 359.74975 342.4585 
L 359.74975 20.4945 
L 42.78575 20.4945 
z
" style="fill:#ffffff;"/>
   </g>
   <g id="matplotlib.axis_1">
    <g id="xtick_1">
     <g id="line2d_1">
      <defs>
       <path d="M 0 0 
L 0 4.8 
" id="m3da8446836" style="stroke:#262626;"/>
      </defs>
      <g>
       <use style="fill:#262626;stroke:#262626;" x="42.78575" xlink:href="#m3da8446836" y="342.4585"/>
      </g>
     </g>
     <g id="text_1">
      <!-- No Education -->
      <g style="fill:#262626;" transform="translate(25.857304 409.069559)rotate(-75)scale(0.088 -0.088)">
       <defs>
        <path d="M 9.8125 72.90625 
L 23.09375 72.90625 
L 55.421875 11.921875 
L 55.421875 72.90625 
L 64.984375 72.90625 
L 64.984375 0 
L 51.703125 0 
L 19.390625 60.984375 
L 19.390625 0 
L 9.8125 0 
z
" id="DejaVuSans-78"/>
        <path d="M 30.609375 48.390625 
Q 23.390625 48.390625 19.1875 42.75 
Q 14.984375 37.109375 14.984375 27.296875 
Q 14.984375 17.484375 19.15625 11.84375 
Q 23.34375 6.203125 30.609375 6.203125 
Q 37.796875 6.203125 41.984375 11.859375 
Q 46.1875 17.53125 46.1875 27.296875 
Q 46.1875 37.015625 41.984375 42.703125 
Q 37.796875 48.390625 30.609375 48.390625 
z
M 30.609375 56 
Q 42.328125 56 49.015625 48.375 
Q 55.71875 40.765625 55.71875 27.296875 
Q 55.71875 13.875 49.015625 6.21875 
Q 42.328125 -1.421875 30.609375 -1.421875 
Q 18.84375 -1.421875 12.171875 6.21875 
Q 5.515625 13.875 5.515625 27.296875 
Q 5.515625 40.765625 12.171875 48.375 
Q 18.84375 56 30.609375 56 
z
" id="DejaVuSans-111"/>
        <path id="DejaVuSans-32"/>
        <path d="M 9.8125 72.90625 
L 55.90625 72.90625 
L 55.90625 64.59375 
L 19.671875 64.59375 
L 19.671875 43.015625 
L 54.390625 43.015625 
L 54.390625 34.71875 
L 19.671875 34.71875 
L 19.671875 8.296875 
L 56.78125 8.296875 
L 56.78125 0 
L 9.8125 0 
z
" id="DejaVuSans-69"/>
        <path d="M 45.40625 46.390625 
L 45.40625 75.984375 
L 54.390625 75.984375 
L 54.390625 0 
L 45.40625 0 
L 45.40625 8.203125 
Q 42.578125 3.328125 38.25 0.953125 
Q 33.9375 -1.421875 27.875 -1.421875 
Q 17.96875 -1.421875 11.734375 6.484375 
Q 5.515625 14.40625 5.515625 27.296875 
Q 5.515625 40.1875 11.734375 48.09375 
Q 17.96875 56 27.875 56 
Q 33.9375 56 38.25 53.625 
Q 42.578125 51.265625 45.40625 46.390625 
z
M 14.796875 27.296875 
Q 14.796875 17.390625 18.875 11.75 
Q 22.953125 6.109375 30.078125 6.109375 
Q 37.203125 6.109375 41.296875 11.75 
Q 45.40625 17.390625 45.40625 27.296875 
Q 45.40625 37.203125 41.296875 42.84375 
Q 37.203125 48.484375 30.078125 48.484375 
Q 22.953125 48.484375 18.875 42.84375 
Q 14.796875 37.203125 14.796875 27.296875 
z
" id="DejaVuSans-100"/>
        <path d="M 8.5 21.578125 
L 8.5 54.6875 
L 17.484375 54.6875 
L 17.484375 21.921875 
Q 17.484375 14.15625 20.5 10.265625 
Q 23.53125 6.390625 29.59375 6.390625 
Q 36.859375 6.390625 41.078125 11.03125 
Q 45.3125 15.671875 45.3125 23.6875 
L 45.3125 54.6875 
L 54.296875 54.6875 
L 54.296875 0 
L 45.3125 0 
L 45.3125 8.40625 
Q 42.046875 3.421875 37.71875 1 
Q 33.40625 -1.421875 27.6875 -1.421875 
Q 18.265625 -1.421875 13.375 4.4375 
Q 8.5 10.296875 8.5 21.578125 
z
M 31.109375 56 
z
" id="DejaVuSans-117"/>
        <path d="M 48.78125 52.59375 
L 48.78125 44.1875 
Q 44.96875 46.296875 41.140625 47.34375 
Q 37.3125 48.390625 33.40625 48.390625 
Q 24.65625 48.390625 19.8125 42.84375 
Q 14.984375 37.3125 14.984375 27.296875 
Q 14.984375 17.28125 19.8125 11.734375 
Q 24.65625 6.203125 33.40625 6.203125 
Q 37.3125 6.203125 41.140625 7.25 
Q 44.96875 8.296875 48.78125 10.40625 
L 48.78125 2.09375 
Q 45.015625 0.34375 40.984375 -0.53125 
Q 36.96875 -1.421875 32.421875 -1.421875 
Q 20.0625 -1.421875 12.78125 6.34375 
Q 5.515625 14.109375 5.515625 27.296875 
Q 5.515625 40.671875 12.859375 48.328125 
Q 20.21875 56 33.015625 56 
Q 37.15625 56 41.109375 55.140625 
Q 45.0625 54.296875 48.78125 52.59375 
z
" id="DejaVuSans-99"/>
        <path d="M 34.28125 27.484375 
Q 23.390625 27.484375 19.1875 25 
Q 14.984375 22.515625 14.984375 16.5 
Q 14.984375 11.71875 18.140625 8.90625 
Q 21.296875 6.109375 26.703125 6.109375 
Q 34.1875 6.109375 38.703125 11.40625 
Q 43.21875 16.703125 43.21875 25.484375 
L 43.21875 27.484375 
z
M 52.203125 31.203125 
L 52.203125 0 
L 43.21875 0 
L 43.21875 8.296875 
Q 40.140625 3.328125 35.546875 0.953125 
Q 30.953125 -1.421875 24.3125 -1.421875 
Q 15.921875 -1.421875 10.953125 3.296875 
Q 6 8.015625 6 15.921875 
Q 6 25.140625 12.171875 29.828125 
Q 18.359375 34.515625 30.609375 34.515625 
L 43.21875 34.515625 
L 43.21875 35.40625 
Q 43.21875 41.609375 39.140625 45 
Q 35.0625 48.390625 27.6875 48.390625 
Q 23 48.390625 18.546875 47.265625 
Q 14.109375 46.140625 10.015625 43.890625 
L 10.015625 52.203125 
Q 14.9375 54.109375 19.578125 55.046875 
Q 24.21875 56 28.609375 56 
Q 40.484375 56 46.34375 49.84375 
Q 52.203125 43.703125 52.203125 31.203125 
z
" id="DejaVuSans-97"/>
        <path d="M 18.3125 70.21875 
L 18.3125 54.6875 
L 36.8125 54.6875 
L 36.8125 47.703125 
L 18.3125 47.703125 
L 18.3125 18.015625 
Q 18.3125 11.328125 20.140625 9.421875 
Q 21.96875 7.515625 27.59375 7.515625 
L 36.8125 7.515625 
L 36.8125 0 
L 27.59375 0 
Q 17.1875 0 13.234375 3.875 
Q 9.28125 7.765625 9.28125 18.015625 
L 9.28125 47.703125 
L 2.6875 47.703125 
L 2.6875 54.6875 
L 9.28125 54.6875 
L 9.28125 70.21875 
z
" id="DejaVuSans-116"/>
        <path d="M 9.421875 54.6875 
L 18.40625 54.6875 
L 18.40625 0 
L 9.421875 0 
z
M 9.421875 75.984375 
L 18.40625 75.984375 
L 18.40625 64.59375 
L 9.421875 64.59375 
z
" id="DejaVuSans-105"/>
        <path d="M 54.890625 33.015625 
L 54.890625 0 
L 45.90625 0 
L 45.90625 32.71875 
Q 45.90625 40.484375 42.875 44.328125 
Q 39.84375 48.1875 33.796875 48.1875 
Q 26.515625 48.1875 22.3125 43.546875 
Q 18.109375 38.921875 18.109375 30.90625 
L 18.109375 0 
L 9.078125 0 
L 9.078125 54.6875 
L 18.109375 54.6875 
L 18.109375 46.1875 
Q 21.34375 51.125 25.703125 53.5625 
Q 30.078125 56 35.796875 56 
Q 45.21875 56 50.046875 50.171875 
Q 54.890625 44.34375 54.890625 33.015625 
z
" id="DejaVuSans-110"/>
       </defs>
       <use xlink:href="#DejaVuSans-78"/>
       <use x="74.804688" xlink:href="#DejaVuSans-111"/>
       <use x="135.986328" xlink:href="#DejaVuSans-32"/>
       <use x="167.773438" xlink:href="#DejaVuSans-69"/>
       <use x="230.957031" xlink:href="#DejaVuSans-100"/>
       <use x="294.433594" xlink:href="#DejaVuSans-117"/>
       <use x="357.8125" xlink:href="#DejaVuSans-99"/>
       <use x="412.792969" xlink:href="#DejaVuSans-97"/>
       <use x="474.072266" xlink:href="#DejaVuSans-116"/>
       <use x="513.28125" xlink:href="#DejaVuSans-105"/>
       <use x="541.064453" xlink:href="#DejaVuSans-111"/>
       <use x="602.246094" xlink:href="#DejaVuSans-110"/>
      </g>
     </g>
    </g>
    <g id="xtick_2">
     <g id="line2d_2">
      <g>
       <use style="fill:#262626;stroke:#262626;" x="69.199417" xlink:href="#m3da8446836" y="342.4585"/>
      </g>
     </g>
     <g id="text_2">
      <!-- Private School -->
      <g style="fill:#262626;" transform="translate(51.205477 413.046034)rotate(-75)scale(0.088 -0.088)">
       <defs>
        <path d="M 19.671875 64.796875 
L 19.671875 37.40625 
L 32.078125 37.40625 
Q 38.96875 37.40625 42.71875 40.96875 
Q 46.484375 44.53125 46.484375 51.125 
Q 46.484375 57.671875 42.71875 61.234375 
Q 38.96875 64.796875 32.078125 64.796875 
z
M 9.8125 72.90625 
L 32.078125 72.90625 
Q 44.34375 72.90625 50.609375 67.359375 
Q 56.890625 61.8125 56.890625 51.125 
Q 56.890625 40.328125 50.609375 34.8125 
Q 44.34375 29.296875 32.078125 29.296875 
L 19.671875 29.296875 
L 19.671875 0 
L 9.8125 0 
z
" id="DejaVuSans-80"/>
        <path d="M 41.109375 46.296875 
Q 39.59375 47.171875 37.8125 47.578125 
Q 36.03125 48 33.890625 48 
Q 26.265625 48 22.1875 43.046875 
Q 18.109375 38.09375 18.109375 28.8125 
L 18.109375 0 
L 9.078125 0 
L 9.078125 54.6875 
L 18.109375 54.6875 
L 18.109375 46.1875 
Q 20.953125 51.171875 25.484375 53.578125 
Q 30.03125 56 36.53125 56 
Q 37.453125 56 38.578125 55.875 
Q 39.703125 55.765625 41.0625 55.515625 
z
" id="DejaVuSans-114"/>
        <path d="M 2.984375 54.6875 
L 12.5 54.6875 
L 29.59375 8.796875 
L 46.6875 54.6875 
L 56.203125 54.6875 
L 35.6875 0 
L 23.484375 0 
z
" id="DejaVuSans-118"/>
        <path d="M 56.203125 29.59375 
L 56.203125 25.203125 
L 14.890625 25.203125 
Q 15.484375 15.921875 20.484375 11.0625 
Q 25.484375 6.203125 34.421875 6.203125 
Q 39.59375 6.203125 44.453125 7.46875 
Q 49.3125 8.734375 54.109375 11.28125 
L 54.109375 2.78125 
Q 49.265625 0.734375 44.1875 -0.34375 
Q 39.109375 -1.421875 33.890625 -1.421875 
Q 20.796875 -1.421875 13.15625 6.1875 
Q 5.515625 13.8125 5.515625 26.8125 
Q 5.515625 40.234375 12.765625 48.109375 
Q 20.015625 56 32.328125 56 
Q 43.359375 56 49.78125 48.890625 
Q 56.203125 41.796875 56.203125 29.59375 
z
M 47.21875 32.234375 
Q 47.125 39.59375 43.09375 43.984375 
Q 39.0625 48.390625 32.421875 48.390625 
Q 24.90625 48.390625 20.390625 44.140625 
Q 15.875 39.890625 15.1875 32.171875 
z
" id="DejaVuSans-101"/>
        <path d="M 53.515625 70.515625 
L 53.515625 60.890625 
Q 47.90625 63.578125 42.921875 64.890625 
Q 37.9375 66.21875 33.296875 66.21875 
Q 25.25 66.21875 20.875 63.09375 
Q 16.5 59.96875 16.5 54.203125 
Q 16.5 49.359375 19.40625 46.890625 
Q 22.3125 44.4375 30.421875 42.921875 
L 36.375 41.703125 
Q 47.40625 39.59375 52.65625 34.296875 
Q 57.90625 29 57.90625 20.125 
Q 57.90625 9.515625 50.796875 4.046875 
Q 43.703125 -1.421875 29.984375 -1.421875 
Q 24.8125 -1.421875 18.96875 -0.25 
Q 13.140625 0.921875 6.890625 3.21875 
L 6.890625 13.375 
Q 12.890625 10.015625 18.65625 8.296875 
Q 24.421875 6.59375 29.984375 6.59375 
Q 38.421875 6.59375 43.015625 9.90625 
Q 47.609375 13.234375 47.609375 19.390625 
Q 47.609375 24.75 44.3125 27.78125 
Q 41.015625 30.8125 33.5 32.328125 
L 27.484375 33.5 
Q 16.453125 35.6875 11.515625 40.375 
Q 6.59375 45.0625 6.59375 53.421875 
Q 6.59375 63.09375 13.40625 68.65625 
Q 20.21875 74.21875 32.171875 74.21875 
Q 37.3125 74.21875 42.625 73.28125 
Q 47.953125 72.359375 53.515625 70.515625 
z
" id="DejaVuSans-83"/>
        <path d="M 54.890625 33.015625 
L 54.890625 0 
L 45.90625 0 
L 45.90625 32.71875 
Q 45.90625 40.484375 42.875 44.328125 
Q 39.84375 48.1875 33.796875 48.1875 
Q 26.515625 48.1875 22.3125 43.546875 
Q 18.109375 38.921875 18.109375 30.90625 
L 18.109375 0 
L 9.078125 0 
L 9.078125 75.984375 
L 18.109375 75.984375 
L 18.109375 46.1875 
Q 21.34375 51.125 25.703125 53.5625 
Q 30.078125 56 35.796875 56 
Q 45.21875 56 50.046875 50.171875 
Q 54.890625 44.34375 54.890625 33.015625 
z
" id="DejaVuSans-104"/>
        <path d="M 9.421875 75.984375 
L 18.40625 75.984375 
L 18.40625 0 
L 9.421875 0 
z
" id="DejaVuSans-108"/>
       </defs>
       <use xlink:href="#DejaVuSans-80"/>
       <use x="58.552734" xlink:href="#DejaVuSans-114"/>
       <use x="99.666016" xlink:href="#DejaVuSans-105"/>
       <use x="127.449219" xlink:href="#DejaVuSans-118"/>
       <use x="186.628906" xlink:href="#DejaVuSans-97"/>
       <use x="247.908203" xlink:href="#DejaVuSans-116"/>
       <use x="287.117188" xlink:href="#DejaVuSans-101"/>
       <use x="348.640625" xlink:href="#DejaVuSans-32"/>
       <use x="380.427734" xlink:href="#DejaVuSans-83"/>
       <use x="443.904297" xlink:href="#DejaVuSans-99"/>
       <use x="498.884766" xlink:href="#DejaVuSans-104"/>
       <use x="562.263672" xlink:href="#DejaVuSans-111"/>
       <use x="623.445312" xlink:href="#DejaVuSans-111"/>
       <use x="684.626953" xlink:href="#DejaVuSans-108"/>
      </g>
     </g>
    </g>
    <g id="xtick_3">
     <g id="line2d_3">
      <g>
       <use style="fill:#262626;stroke:#262626;" x="95.613083" xlink:href="#m3da8446836" y="342.4585"/>
      </g>
     </g>
     <g id="text_3">
      <!-- Primary School -->
      <g style="fill:#262626;" transform="translate(76.758635 416.257496)rotate(-75)scale(0.088 -0.088)">
       <defs>
        <path d="M 52 44.1875 
Q 55.375 50.25 60.0625 53.125 
Q 64.75 56 71.09375 56 
Q 79.640625 56 84.28125 50.015625 
Q 88.921875 44.046875 88.921875 33.015625 
L 88.921875 0 
L 79.890625 0 
L 79.890625 32.71875 
Q 79.890625 40.578125 77.09375 44.375 
Q 74.3125 48.1875 68.609375 48.1875 
Q 61.625 48.1875 57.5625 43.546875 
Q 53.515625 38.921875 53.515625 30.90625 
L 53.515625 0 
L 44.484375 0 
L 44.484375 32.71875 
Q 44.484375 40.625 41.703125 44.40625 
Q 38.921875 48.1875 33.109375 48.1875 
Q 26.21875 48.1875 22.15625 43.53125 
Q 18.109375 38.875 18.109375 30.90625 
L 18.109375 0 
L 9.078125 0 
L 9.078125 54.6875 
L 18.109375 54.6875 
L 18.109375 46.1875 
Q 21.1875 51.21875 25.484375 53.609375 
Q 29.78125 56 35.6875 56 
Q 41.65625 56 45.828125 52.96875 
Q 50 49.953125 52 44.1875 
z
" id="DejaVuSans-109"/>
        <path d="M 32.171875 -5.078125 
Q 28.375 -14.84375 24.75 -17.8125 
Q 21.140625 -20.796875 15.09375 -20.796875 
L 7.90625 -20.796875 
L 7.90625 -13.28125 
L 13.1875 -13.28125 
Q 16.890625 -13.28125 18.9375 -11.515625 
Q 21 -9.765625 23.484375 -3.21875 
L 25.09375 0.875 
L 2.984375 54.6875 
L 12.5 54.6875 
L 29.59375 11.921875 
L 46.6875 54.6875 
L 56.203125 54.6875 
z
" id="DejaVuSans-121"/>
       </defs>
       <use xlink:href="#DejaVuSans-80"/>
       <use x="58.552734" xlink:href="#DejaVuSans-114"/>
       <use x="99.666016" xlink:href="#DejaVuSans-105"/>
       <use x="127.449219" xlink:href="#DejaVuSans-109"/>
       <use x="224.861328" xlink:href="#DejaVuSans-97"/>
       <use x="286.140625" xlink:href="#DejaVuSans-114"/>
       <use x="327.253906" xlink:href="#DejaVuSans-121"/>
       <use x="386.433594" xlink:href="#DejaVuSans-32"/>
       <use x="418.220703" xlink:href="#DejaVuSans-83"/>
       <use x="481.697266" xlink:href="#DejaVuSans-99"/>
       <use x="536.677734" xlink:href="#DejaVuSans-104"/>
       <use x="600.056641" xlink:href="#DejaVuSans-111"/>
       <use x="661.238281" xlink:href="#DejaVuSans-111"/>
       <use x="722.419922" xlink:href="#DejaVuSans-108"/>
      </g>
     </g>
    </g>
    <g id="xtick_4">
     <g id="line2d_4">
      <g>
       <use style="fill:#262626;stroke:#262626;" x="122.02675" xlink:href="#m3da8446836" y="342.4585"/>
      </g>
     </g>
     <g id="text_4">
      <!-- Junior High School -->
      <g style="fill:#262626;" transform="translate(99.493254 429.98789)rotate(-75)scale(0.088 -0.088)">
       <defs>
        <path d="M 9.8125 72.90625 
L 19.671875 72.90625 
L 19.671875 5.078125 
Q 19.671875 -8.109375 14.671875 -14.0625 
Q 9.671875 -20.015625 -1.421875 -20.015625 
L -5.171875 -20.015625 
L -5.171875 -11.71875 
L -2.09375 -11.71875 
Q 4.4375 -11.71875 7.125 -8.046875 
Q 9.8125 -4.390625 9.8125 5.078125 
z
" id="DejaVuSans-74"/>
        <path d="M 9.8125 72.90625 
L 19.671875 72.90625 
L 19.671875 43.015625 
L 55.515625 43.015625 
L 55.515625 72.90625 
L 65.375 72.90625 
L 65.375 0 
L 55.515625 0 
L 55.515625 34.71875 
L 19.671875 34.71875 
L 19.671875 0 
L 9.8125 0 
z
" id="DejaVuSans-72"/>
        <path d="M 45.40625 27.984375 
Q 45.40625 37.75 41.375 43.109375 
Q 37.359375 48.484375 30.078125 48.484375 
Q 22.859375 48.484375 18.828125 43.109375 
Q 14.796875 37.75 14.796875 27.984375 
Q 14.796875 18.265625 18.828125 12.890625 
Q 22.859375 7.515625 30.078125 7.515625 
Q 37.359375 7.515625 41.375 12.890625 
Q 45.40625 18.265625 45.40625 27.984375 
z
M 54.390625 6.78125 
Q 54.390625 -7.171875 48.1875 -13.984375 
Q 42 -20.796875 29.203125 -20.796875 
Q 24.46875 -20.796875 20.265625 -20.09375 
Q 16.0625 -19.390625 12.109375 -17.921875 
L 12.109375 -9.1875 
Q 16.0625 -11.328125 19.921875 -12.34375 
Q 23.78125 -13.375 27.78125 -13.375 
Q 36.625 -13.375 41.015625 -8.765625 
Q 45.40625 -4.15625 45.40625 5.171875 
L 45.40625 9.625 
Q 42.625 4.78125 38.28125 2.390625 
Q 33.9375 0 27.875 0 
Q 17.828125 0 11.671875 7.65625 
Q 5.515625 15.328125 5.515625 27.984375 
Q 5.515625 40.671875 11.671875 48.328125 
Q 17.828125 56 27.875 56 
Q 33.9375 56 38.28125 53.609375 
Q 42.625 51.21875 45.40625 46.390625 
L 45.40625 54.6875 
L 54.390625 54.6875 
z
" id="DejaVuSans-103"/>
       </defs>
       <use xlink:href="#DejaVuSans-74"/>
       <use x="29.492188" xlink:href="#DejaVuSans-117"/>
       <use x="92.871094" xlink:href="#DejaVuSans-110"/>
       <use x="156.25" xlink:href="#DejaVuSans-105"/>
       <use x="184.033203" xlink:href="#DejaVuSans-111"/>
       <use x="245.214844" xlink:href="#DejaVuSans-114"/>
       <use x="286.328125" xlink:href="#DejaVuSans-32"/>
       <use x="318.115234" xlink:href="#DejaVuSans-72"/>
       <use x="393.310547" xlink:href="#DejaVuSans-105"/>
       <use x="421.09375" xlink:href="#DejaVuSans-103"/>
       <use x="484.570312" xlink:href="#DejaVuSans-104"/>
       <use x="547.949219" xlink:href="#DejaVuSans-32"/>
       <use x="579.736328" xlink:href="#DejaVuSans-83"/>
       <use x="643.212891" xlink:href="#DejaVuSans-99"/>
       <use x="698.193359" xlink:href="#DejaVuSans-104"/>
       <use x="761.572266" xlink:href="#DejaVuSans-111"/>
       <use x="822.753906" xlink:href="#DejaVuSans-111"/>
       <use x="883.935547" xlink:href="#DejaVuSans-108"/>
      </g>
     </g>
    </g>
    <g id="xtick_5">
     <g id="line2d_5">
      <g>
       <use style="fill:#262626;stroke:#262626;" x="148.440417" xlink:href="#m3da8446836" y="342.4585"/>
      </g>
     </g>
     <g id="text_5">
      <!-- Vocational High School -->
      <g style="fill:#262626;" transform="translate(120.613974 449.741436)rotate(-75)scale(0.088 -0.088)">
       <defs>
        <path d="M 28.609375 0 
L 0.78125 72.90625 
L 11.078125 72.90625 
L 34.1875 11.53125 
L 57.328125 72.90625 
L 67.578125 72.90625 
L 39.796875 0 
z
" id="DejaVuSans-86"/>
       </defs>
       <use xlink:href="#DejaVuSans-86"/>
       <use x="60.658203" xlink:href="#DejaVuSans-111"/>
       <use x="121.839844" xlink:href="#DejaVuSans-99"/>
       <use x="176.820312" xlink:href="#DejaVuSans-97"/>
       <use x="238.099609" xlink:href="#DejaVuSans-116"/>
       <use x="277.308594" xlink:href="#DejaVuSans-105"/>
       <use x="305.091797" xlink:href="#DejaVuSans-111"/>
       <use x="366.273438" xlink:href="#DejaVuSans-110"/>
       <use x="429.652344" xlink:href="#DejaVuSans-97"/>
       <use x="490.931641" xlink:href="#DejaVuSans-108"/>
       <use x="518.714844" xlink:href="#DejaVuSans-32"/>
       <use x="550.501953" xlink:href="#DejaVuSans-72"/>
       <use x="625.697266" xlink:href="#DejaVuSans-105"/>
       <use x="653.480469" xlink:href="#DejaVuSans-103"/>
       <use x="716.957031" xlink:href="#DejaVuSans-104"/>
       <use x="780.335938" xlink:href="#DejaVuSans-32"/>
       <use x="812.123047" xlink:href="#DejaVuSans-83"/>
       <use x="875.599609" xlink:href="#DejaVuSans-99"/>
       <use x="930.580078" xlink:href="#DejaVuSans-104"/>
       <use x="993.958984" xlink:href="#DejaVuSans-111"/>
       <use x="1055.140625" xlink:href="#DejaVuSans-111"/>
       <use x="1116.322266" xlink:href="#DejaVuSans-108"/>
      </g>
     </g>
    </g>
    <g id="xtick_6">
     <g id="line2d_6">
      <g>
       <use style="fill:#262626;stroke:#262626;" x="174.854083" xlink:href="#m3da8446836" y="342.4585"/>
      </g>
     </g>
     <g id="text_6">
      <!-- Standard High School -->
      <g style="fill:#262626;" transform="translate(148.479971 444.321264)rotate(-75)scale(0.088 -0.088)">
       <use xlink:href="#DejaVuSans-83"/>
       <use x="63.476562" xlink:href="#DejaVuSans-116"/>
       <use x="102.685547" xlink:href="#DejaVuSans-97"/>
       <use x="163.964844" xlink:href="#DejaVuSans-110"/>
       <use x="227.34375" xlink:href="#DejaVuSans-100"/>
       <use x="290.820312" xlink:href="#DejaVuSans-97"/>
       <use x="352.099609" xlink:href="#DejaVuSans-114"/>
       <use x="391.462891" xlink:href="#DejaVuSans-100"/>
       <use x="454.939453" xlink:href="#DejaVuSans-32"/>
       <use x="486.726562" xlink:href="#DejaVuSans-72"/>
       <use x="561.921875" xlink:href="#DejaVuSans-105"/>
       <use x="589.705078" xlink:href="#DejaVuSans-103"/>
       <use x="653.181641" xlink:href="#DejaVuSans-104"/>
       <use x="716.560547" xlink:href="#DejaVuSans-32"/>
       <use x="748.347656" xlink:href="#DejaVuSans-83"/>
       <use x="811.824219" xlink:href="#DejaVuSans-99"/>
       <use x="866.804688" xlink:href="#DejaVuSans-104"/>
       <use x="930.183594" xlink:href="#DejaVuSans-111"/>
       <use x="991.365234" xlink:href="#DejaVuSans-111"/>
       <use x="1052.546875" xlink:href="#DejaVuSans-108"/>
      </g>
     </g>
    </g>
    <g id="xtick_7">
     <g id="line2d_7">
      <g>
       <use style="fill:#262626;stroke:#262626;" x="201.26775" xlink:href="#m3da8446836" y="342.4585"/>
      </g>
     </g>
     <g id="text_7">
      <!-- Technical Secondary School -->
      <g style="fill:#262626;" transform="translate(167.969711 470.161712)rotate(-75)scale(0.088 -0.088)">
       <defs>
        <path d="M -0.296875 72.90625 
L 61.375 72.90625 
L 61.375 64.59375 
L 35.5 64.59375 
L 35.5 0 
L 25.59375 0 
L 25.59375 64.59375 
L -0.296875 64.59375 
z
" id="DejaVuSans-84"/>
       </defs>
       <use xlink:href="#DejaVuSans-84"/>
       <use x="44.083984" xlink:href="#DejaVuSans-101"/>
       <use x="105.607422" xlink:href="#DejaVuSans-99"/>
       <use x="160.587891" xlink:href="#DejaVuSans-104"/>
       <use x="223.966797" xlink:href="#DejaVuSans-110"/>
       <use x="287.345703" xlink:href="#DejaVuSans-105"/>
       <use x="315.128906" xlink:href="#DejaVuSans-99"/>
       <use x="370.109375" xlink:href="#DejaVuSans-97"/>
       <use x="431.388672" xlink:href="#DejaVuSans-108"/>
       <use x="459.171875" xlink:href="#DejaVuSans-32"/>
       <use x="490.958984" xlink:href="#DejaVuSans-83"/>
       <use x="554.435547" xlink:href="#DejaVuSans-101"/>
       <use x="615.958984" xlink:href="#DejaVuSans-99"/>
       <use x="670.939453" xlink:href="#DejaVuSans-111"/>
       <use x="732.121094" xlink:href="#DejaVuSans-110"/>
       <use x="795.5" xlink:href="#DejaVuSans-100"/>
       <use x="858.976562" xlink:href="#DejaVuSans-97"/>
       <use x="920.255859" xlink:href="#DejaVuSans-114"/>
       <use x="961.369141" xlink:href="#DejaVuSans-121"/>
       <use x="1020.548828" xlink:href="#DejaVuSans-32"/>
       <use x="1052.335938" xlink:href="#DejaVuSans-83"/>
       <use x="1115.8125" xlink:href="#DejaVuSans-99"/>
       <use x="1170.792969" xlink:href="#DejaVuSans-104"/>
       <use x="1234.171875" xlink:href="#DejaVuSans-111"/>
       <use x="1295.353516" xlink:href="#DejaVuSans-111"/>
       <use x="1356.535156" xlink:href="#DejaVuSans-108"/>
      </g>
     </g>
    </g>
    <g id="xtick_8">
     <g id="line2d_8">
      <g>
       <use style="fill:#262626;stroke:#262626;" x="227.681417" xlink:href="#m3da8446836" y="342.4585"/>
      </g>
     </g>
     <g id="text_8">
      <!-- Technical School -->
      <g style="fill:#262626;" transform="translate(207.170009 422.441353)rotate(-75)scale(0.088 -0.088)">
       <use xlink:href="#DejaVuSans-84"/>
       <use x="44.083984" xlink:href="#DejaVuSans-101"/>
       <use x="105.607422" xlink:href="#DejaVuSans-99"/>
       <use x="160.587891" xlink:href="#DejaVuSans-104"/>
       <use x="223.966797" xlink:href="#DejaVuSans-110"/>
       <use x="287.345703" xlink:href="#DejaVuSans-105"/>
       <use x="315.128906" xlink:href="#DejaVuSans-99"/>
       <use x="370.109375" xlink:href="#DejaVuSans-97"/>
       <use x="431.388672" xlink:href="#DejaVuSans-108"/>
       <use x="459.171875" xlink:href="#DejaVuSans-32"/>
       <use x="490.958984" xlink:href="#DejaVuSans-83"/>
       <use x="554.435547" xlink:href="#DejaVuSans-99"/>
       <use x="609.416016" xlink:href="#DejaVuSans-104"/>
       <use x="672.794922" xlink:href="#DejaVuSans-111"/>
       <use x="733.976562" xlink:href="#DejaVuSans-111"/>
       <use x="795.158203" xlink:href="#DejaVuSans-108"/>
      </g>
     </g>
    </g>
    <g id="xtick_9">
     <g id="line2d_9">
      <g>
       <use style="fill:#262626;stroke:#262626;" x="254.095083" xlink:href="#m3da8446836" y="342.4585"/>
      </g>
     </g>
     <g id="text_9">
      <!-- College (Adult) -->
      <g style="fill:#262626;" transform="translate(235.394729 415.682408)rotate(-75)scale(0.088 -0.088)">
       <defs>
        <path d="M 64.40625 67.28125 
L 64.40625 56.890625 
Q 59.421875 61.53125 53.78125 63.8125 
Q 48.140625 66.109375 41.796875 66.109375 
Q 29.296875 66.109375 22.65625 58.46875 
Q 16.015625 50.828125 16.015625 36.375 
Q 16.015625 21.96875 22.65625 14.328125 
Q 29.296875 6.6875 41.796875 6.6875 
Q 48.140625 6.6875 53.78125 8.984375 
Q 59.421875 11.28125 64.40625 15.921875 
L 64.40625 5.609375 
Q 59.234375 2.09375 53.4375 0.328125 
Q 47.65625 -1.421875 41.21875 -1.421875 
Q 24.65625 -1.421875 15.125 8.703125 
Q 5.609375 18.84375 5.609375 36.375 
Q 5.609375 53.953125 15.125 64.078125 
Q 24.65625 74.21875 41.21875 74.21875 
Q 47.75 74.21875 53.53125 72.484375 
Q 59.328125 70.75 64.40625 67.28125 
z
" id="DejaVuSans-67"/>
        <path d="M 31 75.875 
Q 24.46875 64.65625 21.28125 53.65625 
Q 18.109375 42.671875 18.109375 31.390625 
Q 18.109375 20.125 21.3125 9.0625 
Q 24.515625 -2 31 -13.1875 
L 23.1875 -13.1875 
Q 15.875 -1.703125 12.234375 9.375 
Q 8.59375 20.453125 8.59375 31.390625 
Q 8.59375 42.28125 12.203125 53.3125 
Q 15.828125 64.359375 23.1875 75.875 
z
" id="DejaVuSans-40"/>
        <path d="M 34.1875 63.1875 
L 20.796875 26.90625 
L 47.609375 26.90625 
z
M 28.609375 72.90625 
L 39.796875 72.90625 
L 67.578125 0 
L 57.328125 0 
L 50.6875 18.703125 
L 17.828125 18.703125 
L 11.1875 0 
L 0.78125 0 
z
" id="DejaVuSans-65"/>
        <path d="M 8.015625 75.875 
L 15.828125 75.875 
Q 23.140625 64.359375 26.78125 53.3125 
Q 30.421875 42.28125 30.421875 31.390625 
Q 30.421875 20.453125 26.78125 9.375 
Q 23.140625 -1.703125 15.828125 -13.1875 
L 8.015625 -13.1875 
Q 14.5 -2 17.703125 9.0625 
Q 20.90625 20.125 20.90625 31.390625 
Q 20.90625 42.671875 17.703125 53.65625 
Q 14.5 64.65625 8.015625 75.875 
z
" id="DejaVuSans-41"/>
       </defs>
       <use xlink:href="#DejaVuSans-67"/>
       <use x="69.824219" xlink:href="#DejaVuSans-111"/>
       <use x="131.005859" xlink:href="#DejaVuSans-108"/>
       <use x="158.789062" xlink:href="#DejaVuSans-108"/>
       <use x="186.572266" xlink:href="#DejaVuSans-101"/>
       <use x="248.095703" xlink:href="#DejaVuSans-103"/>
       <use x="311.572266" xlink:href="#DejaVuSans-101"/>
       <use x="373.095703" xlink:href="#DejaVuSans-32"/>
       <use x="404.882812" xlink:href="#DejaVuSans-40"/>
       <use x="443.896484" xlink:href="#DejaVuSans-65"/>
       <use x="510.554688" xlink:href="#DejaVuSans-100"/>
       <use x="574.03125" xlink:href="#DejaVuSans-117"/>
       <use x="637.410156" xlink:href="#DejaVuSans-108"/>
       <use x="665.193359" xlink:href="#DejaVuSans-116"/>
       <use x="704.402344" xlink:href="#DejaVuSans-41"/>
      </g>
     </g>
    </g>
    <g id="xtick_10">
     <g id="line2d_10">
      <g>
       <use style="fill:#262626;stroke:#262626;" x="280.50875" xlink:href="#m3da8446836" y="342.4585"/>
      </g>
     </g>
     <g id="text_10">
      <!-- College (Regular) -->
      <g style="fill:#262626;" transform="translate(259.005871 426.141574)rotate(-75)scale(0.088 -0.088)">
       <defs>
        <path d="M 44.390625 34.1875 
Q 47.5625 33.109375 50.5625 29.59375 
Q 53.5625 26.078125 56.59375 19.921875 
L 66.609375 0 
L 56 0 
L 46.6875 18.703125 
Q 43.0625 26.03125 39.671875 28.421875 
Q 36.28125 30.8125 30.421875 30.8125 
L 19.671875 30.8125 
L 19.671875 0 
L 9.8125 0 
L 9.8125 72.90625 
L 32.078125 72.90625 
Q 44.578125 72.90625 50.734375 67.671875 
Q 56.890625 62.453125 56.890625 51.90625 
Q 56.890625 45.015625 53.6875 40.46875 
Q 50.484375 35.9375 44.390625 34.1875 
z
M 19.671875 64.796875 
L 19.671875 38.921875 
L 32.078125 38.921875 
Q 39.203125 38.921875 42.84375 42.21875 
Q 46.484375 45.515625 46.484375 51.90625 
Q 46.484375 58.296875 42.84375 61.546875 
Q 39.203125 64.796875 32.078125 64.796875 
z
" id="DejaVuSans-82"/>
       </defs>
       <use xlink:href="#DejaVuSans-67"/>
       <use x="69.824219" xlink:href="#DejaVuSans-111"/>
       <use x="131.005859" xlink:href="#DejaVuSans-108"/>
       <use x="158.789062" xlink:href="#DejaVuSans-108"/>
       <use x="186.572266" xlink:href="#DejaVuSans-101"/>
       <use x="248.095703" xlink:href="#DejaVuSans-103"/>
       <use x="311.572266" xlink:href="#DejaVuSans-101"/>
       <use x="373.095703" xlink:href="#DejaVuSans-32"/>
       <use x="404.882812" xlink:href="#DejaVuSans-40"/>
       <use x="443.896484" xlink:href="#DejaVuSans-82"/>
       <use x="508.878906" xlink:href="#DejaVuSans-101"/>
       <use x="570.402344" xlink:href="#DejaVuSans-103"/>
       <use x="633.878906" xlink:href="#DejaVuSans-117"/>
       <use x="697.257812" xlink:href="#DejaVuSans-108"/>
       <use x="725.041016" xlink:href="#DejaVuSans-97"/>
       <use x="786.320312" xlink:href="#DejaVuSans-114"/>
       <use x="827.433594" xlink:href="#DejaVuSans-41"/>
      </g>
     </g>
    </g>
    <g id="xtick_11">
     <g id="line2d_11">
      <g>
       <use style="fill:#262626;stroke:#262626;" x="306.922417" xlink:href="#m3da8446836" y="342.4585"/>
      </g>
     </g>
     <g id="text_11">
      <!-- University (Adult) -->
      <g style="fill:#262626;" transform="translate(285.231279 426.844164)rotate(-75)scale(0.088 -0.088)">
       <defs>
        <path d="M 8.6875 72.90625 
L 18.609375 72.90625 
L 18.609375 28.609375 
Q 18.609375 16.890625 22.84375 11.734375 
Q 27.09375 6.59375 36.625 6.59375 
Q 46.09375 6.59375 50.34375 11.734375 
Q 54.59375 16.890625 54.59375 28.609375 
L 54.59375 72.90625 
L 64.5 72.90625 
L 64.5 27.390625 
Q 64.5 13.140625 57.4375 5.859375 
Q 50.390625 -1.421875 36.625 -1.421875 
Q 22.796875 -1.421875 15.734375 5.859375 
Q 8.6875 13.140625 8.6875 27.390625 
z
" id="DejaVuSans-85"/>
        <path d="M 44.28125 53.078125 
L 44.28125 44.578125 
Q 40.484375 46.53125 36.375 47.5 
Q 32.28125 48.484375 27.875 48.484375 
Q 21.1875 48.484375 17.84375 46.4375 
Q 14.5 44.390625 14.5 40.28125 
Q 14.5 37.15625 16.890625 35.375 
Q 19.28125 33.59375 26.515625 31.984375 
L 29.59375 31.296875 
Q 39.15625 29.25 43.1875 25.515625 
Q 47.21875 21.78125 47.21875 15.09375 
Q 47.21875 7.46875 41.1875 3.015625 
Q 35.15625 -1.421875 24.609375 -1.421875 
Q 20.21875 -1.421875 15.453125 -0.5625 
Q 10.6875 0.296875 5.421875 2 
L 5.421875 11.28125 
Q 10.40625 8.6875 15.234375 7.390625 
Q 20.0625 6.109375 24.8125 6.109375 
Q 31.15625 6.109375 34.5625 8.28125 
Q 37.984375 10.453125 37.984375 14.40625 
Q 37.984375 18.0625 35.515625 20.015625 
Q 33.0625 21.96875 24.703125 23.78125 
L 21.578125 24.515625 
Q 13.234375 26.265625 9.515625 29.90625 
Q 5.8125 33.546875 5.8125 39.890625 
Q 5.8125 47.609375 11.28125 51.796875 
Q 16.75 56 26.8125 56 
Q 31.78125 56 36.171875 55.265625 
Q 40.578125 54.546875 44.28125 53.078125 
z
" id="DejaVuSans-115"/>
       </defs>
       <use xlink:href="#DejaVuSans-85"/>
       <use x="73.193359" xlink:href="#DejaVuSans-110"/>
       <use x="136.572266" xlink:href="#DejaVuSans-105"/>
       <use x="164.355469" xlink:href="#DejaVuSans-118"/>
       <use x="223.535156" xlink:href="#DejaVuSans-101"/>
       <use x="285.058594" xlink:href="#DejaVuSans-114"/>
       <use x="326.171875" xlink:href="#DejaVuSans-115"/>
       <use x="378.271484" xlink:href="#DejaVuSans-105"/>
       <use x="406.054688" xlink:href="#DejaVuSans-116"/>
       <use x="445.263672" xlink:href="#DejaVuSans-121"/>
       <use x="504.443359" xlink:href="#DejaVuSans-32"/>
       <use x="536.230469" xlink:href="#DejaVuSans-40"/>
       <use x="575.244141" xlink:href="#DejaVuSans-65"/>
       <use x="641.902344" xlink:href="#DejaVuSans-100"/>
       <use x="705.378906" xlink:href="#DejaVuSans-117"/>
       <use x="768.757812" xlink:href="#DejaVuSans-108"/>
       <use x="796.541016" xlink:href="#DejaVuSans-116"/>
       <use x="835.75" xlink:href="#DejaVuSans-41"/>
      </g>
     </g>
    </g>
    <g id="xtick_12">
     <g id="line2d_12">
      <g>
       <use style="fill:#262626;stroke:#262626;" x="333.336083" xlink:href="#m3da8446836" y="342.4585"/>
      </g>
     </g>
     <g id="text_12">
      <!-- University (Regular) -->
      <g style="fill:#262626;" transform="translate(308.842421 437.30333)rotate(-75)scale(0.088 -0.088)">
       <use xlink:href="#DejaVuSans-85"/>
       <use x="73.193359" xlink:href="#DejaVuSans-110"/>
       <use x="136.572266" xlink:href="#DejaVuSans-105"/>
       <use x="164.355469" xlink:href="#DejaVuSans-118"/>
       <use x="223.535156" xlink:href="#DejaVuSans-101"/>
       <use x="285.058594" xlink:href="#DejaVuSans-114"/>
       <use x="326.171875" xlink:href="#DejaVuSans-115"/>
       <use x="378.271484" xlink:href="#DejaVuSans-105"/>
       <use x="406.054688" xlink:href="#DejaVuSans-116"/>
       <use x="445.263672" xlink:href="#DejaVuSans-121"/>
       <use x="504.443359" xlink:href="#DejaVuSans-32"/>
       <use x="536.230469" xlink:href="#DejaVuSans-40"/>
       <use x="575.244141" xlink:href="#DejaVuSans-82"/>
       <use x="640.226562" xlink:href="#DejaVuSans-101"/>
       <use x="701.75" xlink:href="#DejaVuSans-103"/>
       <use x="765.226562" xlink:href="#DejaVuSans-117"/>
       <use x="828.605469" xlink:href="#DejaVuSans-108"/>
       <use x="856.388672" xlink:href="#DejaVuSans-97"/>
       <use x="917.667969" xlink:href="#DejaVuSans-114"/>
       <use x="958.78125" xlink:href="#DejaVuSans-41"/>
      </g>
     </g>
    </g>
    <g id="xtick_13">
     <g id="line2d_13">
      <g>
       <use style="fill:#262626;stroke:#262626;" x="359.74975" xlink:href="#m3da8446836" y="342.4585"/>
      </g>
     </g>
     <g id="text_13">
      <!-- Graduate School or Above -->
      <g style="fill:#262626;" transform="translate(328.095503 464.026996)rotate(-75)scale(0.088 -0.088)">
       <defs>
        <path d="M 59.515625 10.40625 
L 59.515625 29.984375 
L 43.40625 29.984375 
L 43.40625 38.09375 
L 69.28125 38.09375 
L 69.28125 6.78125 
Q 63.578125 2.734375 56.6875 0.65625 
Q 49.8125 -1.421875 42 -1.421875 
Q 24.90625 -1.421875 15.25 8.5625 
Q 5.609375 18.5625 5.609375 36.375 
Q 5.609375 54.25 15.25 64.234375 
Q 24.90625 74.21875 42 74.21875 
Q 49.125 74.21875 55.546875 72.453125 
Q 61.96875 70.703125 67.390625 67.28125 
L 67.390625 56.78125 
Q 61.921875 61.421875 55.765625 63.765625 
Q 49.609375 66.109375 42.828125 66.109375 
Q 29.4375 66.109375 22.71875 58.640625 
Q 16.015625 51.171875 16.015625 36.375 
Q 16.015625 21.625 22.71875 14.15625 
Q 29.4375 6.6875 42.828125 6.6875 
Q 48.046875 6.6875 52.140625 7.59375 
Q 56.25 8.5 59.515625 10.40625 
z
" id="DejaVuSans-71"/>
        <path d="M 48.6875 27.296875 
Q 48.6875 37.203125 44.609375 42.84375 
Q 40.53125 48.484375 33.40625 48.484375 
Q 26.265625 48.484375 22.1875 42.84375 
Q 18.109375 37.203125 18.109375 27.296875 
Q 18.109375 17.390625 22.1875 11.75 
Q 26.265625 6.109375 33.40625 6.109375 
Q 40.53125 6.109375 44.609375 11.75 
Q 48.6875 17.390625 48.6875 27.296875 
z
M 18.109375 46.390625 
Q 20.953125 51.265625 25.265625 53.625 
Q 29.59375 56 35.59375 56 
Q 45.5625 56 51.78125 48.09375 
Q 58.015625 40.1875 58.015625 27.296875 
Q 58.015625 14.40625 51.78125 6.484375 
Q 45.5625 -1.421875 35.59375 -1.421875 
Q 29.59375 -1.421875 25.265625 0.953125 
Q 20.953125 3.328125 18.109375 8.203125 
L 18.109375 0 
L 9.078125 0 
L 9.078125 75.984375 
L 18.109375 75.984375 
z
" id="DejaVuSans-98"/>
       </defs>
       <use xlink:href="#DejaVuSans-71"/>
       <use x="77.490234" xlink:href="#DejaVuSans-114"/>
       <use x="118.603516" xlink:href="#DejaVuSans-97"/>
       <use x="179.882812" xlink:href="#DejaVuSans-100"/>
       <use x="243.359375" xlink:href="#DejaVuSans-117"/>
       <use x="306.738281" xlink:href="#DejaVuSans-97"/>
       <use x="368.017578" xlink:href="#DejaVuSans-116"/>
       <use x="407.226562" xlink:href="#DejaVuSans-101"/>
       <use x="468.75" xlink:href="#DejaVuSans-32"/>
       <use x="500.537109" xlink:href="#DejaVuSans-83"/>
       <use x="564.013672" xlink:href="#DejaVuSans-99"/>
       <use x="618.994141" xlink:href="#DejaVuSans-104"/>
       <use x="682.373047" xlink:href="#DejaVuSans-111"/>
       <use x="743.554688" xlink:href="#DejaVuSans-111"/>
       <use x="804.736328" xlink:href="#DejaVuSans-108"/>
       <use x="832.519531" xlink:href="#DejaVuSans-32"/>
       <use x="864.306641" xlink:href="#DejaVuSans-111"/>
       <use x="925.488281" xlink:href="#DejaVuSans-114"/>
       <use x="966.601562" xlink:href="#DejaVuSans-32"/>
       <use x="998.388672" xlink:href="#DejaVuSans-65"/>
       <use x="1066.796875" xlink:href="#DejaVuSans-98"/>
       <use x="1130.273438" xlink:href="#DejaVuSans-111"/>
       <use x="1191.455078" xlink:href="#DejaVuSans-118"/>
       <use x="1250.634766" xlink:href="#DejaVuSans-101"/>
      </g>
     </g>
    </g>
    <g id="text_14">
     <!-- Education Level -->
     <g style="fill:#262626;" transform="translate(163.173 481.929883)scale(0.096 -0.096)">
      <defs>
       <path d="M 9.8125 72.90625 
L 19.671875 72.90625 
L 19.671875 8.296875 
L 55.171875 8.296875 
L 55.171875 0 
L 9.8125 0 
z
" id="DejaVuSans-76"/>
      </defs>
      <use xlink:href="#DejaVuSans-69"/>
      <use x="63.183594" xlink:href="#DejaVuSans-100"/>
      <use x="126.660156" xlink:href="#DejaVuSans-117"/>
      <use x="190.039062" xlink:href="#DejaVuSans-99"/>
      <use x="245.019531" xlink:href="#DejaVuSans-97"/>
      <use x="306.298828" xlink:href="#DejaVuSans-116"/>
      <use x="345.507812" xlink:href="#DejaVuSans-105"/>
      <use x="373.291016" xlink:href="#DejaVuSans-111"/>
      <use x="434.472656" xlink:href="#DejaVuSans-110"/>
      <use x="497.851562" xlink:href="#DejaVuSans-32"/>
      <use x="529.638672" xlink:href="#DejaVuSans-76"/>
      <use x="583.601562" xlink:href="#DejaVuSans-101"/>
      <use x="645.125" xlink:href="#DejaVuSans-118"/>
      <use x="704.304688" xlink:href="#DejaVuSans-101"/>
      <use x="765.828125" xlink:href="#DejaVuSans-108"/>
     </g>
    </g>
   </g>
   <g id="matplotlib.axis_2">
    <g id="ytick_1">
     <g id="line2d_14">
      <defs>
       <path d="M 0 0 
L -4.8 0 
" id="ma1f070ede6" style="stroke:#262626;"/>
      </defs>
      <g>
       <use style="fill:#262626;stroke:#262626;" x="42.78575" xlink:href="#ma1f070ede6" y="320.506409"/>
      </g>
     </g>
     <g id="text_15">
      <!-- 1.4 -->
      <g style="fill:#262626;" transform="translate(20.491 323.849722)scale(0.088 -0.088)">
       <defs>
        <path d="M 12.40625 8.296875 
L 28.515625 8.296875 
L 28.515625 63.921875 
L 10.984375 60.40625 
L 10.984375 69.390625 
L 28.421875 72.90625 
L 38.28125 72.90625 
L 38.28125 8.296875 
L 54.390625 8.296875 
L 54.390625 0 
L 12.40625 0 
z
" id="DejaVuSans-49"/>
        <path d="M 10.6875 12.40625 
L 21 12.40625 
L 21 0 
L 10.6875 0 
z
" id="DejaVuSans-46"/>
        <path d="M 37.796875 64.3125 
L 12.890625 25.390625 
L 37.796875 25.390625 
z
M 35.203125 72.90625 
L 47.609375 72.90625 
L 47.609375 25.390625 
L 58.015625 25.390625 
L 58.015625 17.1875 
L 47.609375 17.1875 
L 47.609375 0 
L 37.796875 0 
L 37.796875 17.1875 
L 4.890625 17.1875 
L 4.890625 26.703125 
z
" id="DejaVuSans-52"/>
       </defs>
       <use xlink:href="#DejaVuSans-49"/>
       <use x="63.623047" xlink:href="#DejaVuSans-46"/>
       <use x="95.410156" xlink:href="#DejaVuSans-52"/>
      </g>
     </g>
    </g>
    <g id="ytick_2">
     <g id="line2d_15">
      <g>
       <use style="fill:#262626;stroke:#262626;" x="42.78575" xlink:href="#ma1f070ede6" y="272.943545"/>
      </g>
     </g>
     <g id="text_16">
      <!-- 1.5 -->
      <g style="fill:#262626;" transform="translate(20.491 276.286858)scale(0.088 -0.088)">
       <defs>
        <path d="M 10.796875 72.90625 
L 49.515625 72.90625 
L 49.515625 64.59375 
L 19.828125 64.59375 
L 19.828125 46.734375 
Q 21.96875 47.46875 24.109375 47.828125 
Q 26.265625 48.1875 28.421875 48.1875 
Q 40.625 48.1875 47.75 41.5 
Q 54.890625 34.8125 54.890625 23.390625 
Q 54.890625 11.625 47.5625 5.09375 
Q 40.234375 -1.421875 26.90625 -1.421875 
Q 22.3125 -1.421875 17.546875 -0.640625 
Q 12.796875 0.140625 7.71875 1.703125 
L 7.71875 11.625 
Q 12.109375 9.234375 16.796875 8.0625 
Q 21.484375 6.890625 26.703125 6.890625 
Q 35.15625 6.890625 40.078125 11.328125 
Q 45.015625 15.765625 45.015625 23.390625 
Q 45.015625 31 40.078125 35.4375 
Q 35.15625 39.890625 26.703125 39.890625 
Q 22.75 39.890625 18.8125 39.015625 
Q 14.890625 38.140625 10.796875 36.28125 
z
" id="DejaVuSans-53"/>
       </defs>
       <use xlink:href="#DejaVuSans-49"/>
       <use x="63.623047" xlink:href="#DejaVuSans-46"/>
       <use x="95.410156" xlink:href="#DejaVuSans-53"/>
      </g>
     </g>
    </g>
    <g id="ytick_3">
     <g id="line2d_16">
      <g>
       <use style="fill:#262626;stroke:#262626;" x="42.78575" xlink:href="#ma1f070ede6" y="225.380682"/>
      </g>
     </g>
     <g id="text_17">
      <!-- 1.6 -->
      <g style="fill:#262626;" transform="translate(20.491 228.723994)scale(0.088 -0.088)">
       <defs>
        <path d="M 33.015625 40.375 
Q 26.375 40.375 22.484375 35.828125 
Q 18.609375 31.296875 18.609375 23.390625 
Q 18.609375 15.53125 22.484375 10.953125 
Q 26.375 6.390625 33.015625 6.390625 
Q 39.65625 6.390625 43.53125 10.953125 
Q 47.40625 15.53125 47.40625 23.390625 
Q 47.40625 31.296875 43.53125 35.828125 
Q 39.65625 40.375 33.015625 40.375 
z
M 52.59375 71.296875 
L 52.59375 62.3125 
Q 48.875 64.0625 45.09375 64.984375 
Q 41.3125 65.921875 37.59375 65.921875 
Q 27.828125 65.921875 22.671875 59.328125 
Q 17.53125 52.734375 16.796875 39.40625 
Q 19.671875 43.65625 24.015625 45.921875 
Q 28.375 48.1875 33.59375 48.1875 
Q 44.578125 48.1875 50.953125 41.515625 
Q 57.328125 34.859375 57.328125 23.390625 
Q 57.328125 12.15625 50.6875 5.359375 
Q 44.046875 -1.421875 33.015625 -1.421875 
Q 20.359375 -1.421875 13.671875 8.265625 
Q 6.984375 17.96875 6.984375 36.375 
Q 6.984375 53.65625 15.1875 63.9375 
Q 23.390625 74.21875 37.203125 74.21875 
Q 40.921875 74.21875 44.703125 73.484375 
Q 48.484375 72.75 52.59375 71.296875 
z
" id="DejaVuSans-54"/>
       </defs>
       <use xlink:href="#DejaVuSans-49"/>
       <use x="63.623047" xlink:href="#DejaVuSans-46"/>
       <use x="95.410156" xlink:href="#DejaVuSans-54"/>
      </g>
     </g>
    </g>
    <g id="ytick_4">
     <g id="line2d_17">
      <g>
       <use style="fill:#262626;stroke:#262626;" x="42.78575" xlink:href="#ma1f070ede6" y="177.817818"/>
      </g>
     </g>
     <g id="text_18">
      <!-- 1.7 -->
      <g style="fill:#262626;" transform="translate(20.491 181.161131)scale(0.088 -0.088)">
       <defs>
        <path d="M 8.203125 72.90625 
L 55.078125 72.90625 
L 55.078125 68.703125 
L 28.609375 0 
L 18.3125 0 
L 43.21875 64.59375 
L 8.203125 64.59375 
z
" id="DejaVuSans-55"/>
       </defs>
       <use xlink:href="#DejaVuSans-49"/>
       <use x="63.623047" xlink:href="#DejaVuSans-46"/>
       <use x="95.410156" xlink:href="#DejaVuSans-55"/>
      </g>
     </g>
    </g>
    <g id="ytick_5">
     <g id="line2d_18">
      <g>
       <use style="fill:#262626;stroke:#262626;" x="42.78575" xlink:href="#ma1f070ede6" y="130.254955"/>
      </g>
     </g>
     <g id="text_19">
      <!-- 1.8 -->
      <g style="fill:#262626;" transform="translate(20.491 133.598267)scale(0.088 -0.088)">
       <defs>
        <path d="M 31.78125 34.625 
Q 24.75 34.625 20.71875 30.859375 
Q 16.703125 27.09375 16.703125 20.515625 
Q 16.703125 13.921875 20.71875 10.15625 
Q 24.75 6.390625 31.78125 6.390625 
Q 38.8125 6.390625 42.859375 10.171875 
Q 46.921875 13.96875 46.921875 20.515625 
Q 46.921875 27.09375 42.890625 30.859375 
Q 38.875 34.625 31.78125 34.625 
z
M 21.921875 38.8125 
Q 15.578125 40.375 12.03125 44.71875 
Q 8.5 49.078125 8.5 55.328125 
Q 8.5 64.0625 14.71875 69.140625 
Q 20.953125 74.21875 31.78125 74.21875 
Q 42.671875 74.21875 48.875 69.140625 
Q 55.078125 64.0625 55.078125 55.328125 
Q 55.078125 49.078125 51.53125 44.71875 
Q 48 40.375 41.703125 38.8125 
Q 48.828125 37.15625 52.796875 32.3125 
Q 56.78125 27.484375 56.78125 20.515625 
Q 56.78125 9.90625 50.3125 4.234375 
Q 43.84375 -1.421875 31.78125 -1.421875 
Q 19.734375 -1.421875 13.25 4.234375 
Q 6.78125 9.90625 6.78125 20.515625 
Q 6.78125 27.484375 10.78125 32.3125 
Q 14.796875 37.15625 21.921875 38.8125 
z
M 18.3125 54.390625 
Q 18.3125 48.734375 21.84375 45.5625 
Q 25.390625 42.390625 31.78125 42.390625 
Q 38.140625 42.390625 41.71875 45.5625 
Q 45.3125 48.734375 45.3125 54.390625 
Q 45.3125 60.0625 41.71875 63.234375 
Q 38.140625 66.40625 31.78125 66.40625 
Q 25.390625 66.40625 21.84375 63.234375 
Q 18.3125 60.0625 18.3125 54.390625 
z
" id="DejaVuSans-56"/>
       </defs>
       <use xlink:href="#DejaVuSans-49"/>
       <use x="63.623047" xlink:href="#DejaVuSans-46"/>
       <use x="95.410156" xlink:href="#DejaVuSans-56"/>
      </g>
     </g>
    </g>
    <g id="ytick_6">
     <g id="line2d_19">
      <g>
       <use style="fill:#262626;stroke:#262626;" x="42.78575" xlink:href="#ma1f070ede6" y="82.692091"/>
      </g>
     </g>
     <g id="text_20">
      <!-- 1.9 -->
      <g style="fill:#262626;" transform="translate(20.491 86.035403)scale(0.088 -0.088)">
       <defs>
        <path d="M 10.984375 1.515625 
L 10.984375 10.5 
Q 14.703125 8.734375 18.5 7.8125 
Q 22.3125 6.890625 25.984375 6.890625 
Q 35.75 6.890625 40.890625 13.453125 
Q 46.046875 20.015625 46.78125 33.40625 
Q 43.953125 29.203125 39.59375 26.953125 
Q 35.25 24.703125 29.984375 24.703125 
Q 19.046875 24.703125 12.671875 31.3125 
Q 6.296875 37.9375 6.296875 49.421875 
Q 6.296875 60.640625 12.9375 67.421875 
Q 19.578125 74.21875 30.609375 74.21875 
Q 43.265625 74.21875 49.921875 64.515625 
Q 56.59375 54.828125 56.59375 36.375 
Q 56.59375 19.140625 48.40625 8.859375 
Q 40.234375 -1.421875 26.421875 -1.421875 
Q 22.703125 -1.421875 18.890625 -0.6875 
Q 15.09375 0.046875 10.984375 1.515625 
z
M 30.609375 32.421875 
Q 37.25 32.421875 41.125 36.953125 
Q 45.015625 41.5 45.015625 49.421875 
Q 45.015625 57.28125 41.125 61.84375 
Q 37.25 66.40625 30.609375 66.40625 
Q 23.96875 66.40625 20.09375 61.84375 
Q 16.21875 57.28125 16.21875 49.421875 
Q 16.21875 41.5 20.09375 36.953125 
Q 23.96875 32.421875 30.609375 32.421875 
z
" id="DejaVuSans-57"/>
       </defs>
       <use xlink:href="#DejaVuSans-49"/>
       <use x="63.623047" xlink:href="#DejaVuSans-46"/>
       <use x="95.410156" xlink:href="#DejaVuSans-57"/>
      </g>
     </g>
    </g>
    <g id="ytick_7">
     <g id="line2d_20">
      <g>
       <use style="fill:#262626;stroke:#262626;" x="42.78575" xlink:href="#ma1f070ede6" y="35.129227"/>
      </g>
     </g>
     <g id="text_21">
      <!-- 2.0 -->
      <g style="fill:#262626;" transform="translate(20.491 38.47254)scale(0.088 -0.088)">
       <defs>
        <path d="M 19.1875 8.296875 
L 53.609375 8.296875 
L 53.609375 0 
L 7.328125 0 
L 7.328125 8.296875 
Q 12.9375 14.109375 22.625 23.890625 
Q 32.328125 33.6875 34.8125 36.53125 
Q 39.546875 41.84375 41.421875 45.53125 
Q 43.3125 49.21875 43.3125 52.78125 
Q 43.3125 58.59375 39.234375 62.25 
Q 35.15625 65.921875 28.609375 65.921875 
Q 23.96875 65.921875 18.8125 64.3125 
Q 13.671875 62.703125 7.8125 59.421875 
L 7.8125 69.390625 
Q 13.765625 71.78125 18.9375 73 
Q 24.125 74.21875 28.421875 74.21875 
Q 39.75 74.21875 46.484375 68.546875 
Q 53.21875 62.890625 53.21875 53.421875 
Q 53.21875 48.921875 51.53125 44.890625 
Q 49.859375 40.875 45.40625 35.40625 
Q 44.1875 33.984375 37.640625 27.21875 
Q 31.109375 20.453125 19.1875 8.296875 
z
" id="DejaVuSans-50"/>
        <path d="M 31.78125 66.40625 
Q 24.171875 66.40625 20.328125 58.90625 
Q 16.5 51.421875 16.5 36.375 
Q 16.5 21.390625 20.328125 13.890625 
Q 24.171875 6.390625 31.78125 6.390625 
Q 39.453125 6.390625 43.28125 13.890625 
Q 47.125 21.390625 47.125 36.375 
Q 47.125 51.421875 43.28125 58.90625 
Q 39.453125 66.40625 31.78125 66.40625 
z
M 31.78125 74.21875 
Q 44.046875 74.21875 50.515625 64.515625 
Q 56.984375 54.828125 56.984375 36.375 
Q 56.984375 17.96875 50.515625 8.265625 
Q 44.046875 -1.421875 31.78125 -1.421875 
Q 19.53125 -1.421875 13.0625 8.265625 
Q 6.59375 17.96875 6.59375 36.375 
Q 6.59375 54.828125 13.0625 64.515625 
Q 19.53125 74.21875 31.78125 74.21875 
z
" id="DejaVuSans-48"/>
       </defs>
       <use xlink:href="#DejaVuSans-50"/>
       <use x="63.623047" xlink:href="#DejaVuSans-46"/>
       <use x="95.410156" xlink:href="#DejaVuSans-48"/>
      </g>
     </g>
    </g>
    <g id="text_22">
     <!-- Water Quality Knowledge -->
     <g style="fill:#262626;" transform="translate(14.4945 242.2565)rotate(-90)scale(0.096 -0.096)">
      <defs>
       <path d="M 3.328125 72.90625 
L 13.28125 72.90625 
L 28.609375 11.28125 
L 43.890625 72.90625 
L 54.984375 72.90625 
L 70.3125 11.28125 
L 85.59375 72.90625 
L 95.609375 72.90625 
L 77.296875 0 
L 64.890625 0 
L 49.515625 63.28125 
L 33.984375 0 
L 21.578125 0 
z
" id="DejaVuSans-87"/>
       <path d="M 39.40625 66.21875 
Q 28.65625 66.21875 22.328125 58.203125 
Q 16.015625 50.203125 16.015625 36.375 
Q 16.015625 22.609375 22.328125 14.59375 
Q 28.65625 6.59375 39.40625 6.59375 
Q 50.140625 6.59375 56.421875 14.59375 
Q 62.703125 22.609375 62.703125 36.375 
Q 62.703125 50.203125 56.421875 58.203125 
Q 50.140625 66.21875 39.40625 66.21875 
z
M 53.21875 1.3125 
L 66.21875 -12.890625 
L 54.296875 -12.890625 
L 43.5 -1.21875 
Q 41.890625 -1.3125 41.03125 -1.359375 
Q 40.1875 -1.421875 39.40625 -1.421875 
Q 24.03125 -1.421875 14.8125 8.859375 
Q 5.609375 19.140625 5.609375 36.375 
Q 5.609375 53.65625 14.8125 63.9375 
Q 24.03125 74.21875 39.40625 74.21875 
Q 54.734375 74.21875 63.90625 63.9375 
Q 73.09375 53.65625 73.09375 36.375 
Q 73.09375 23.6875 67.984375 14.640625 
Q 62.890625 5.609375 53.21875 1.3125 
z
" id="DejaVuSans-81"/>
       <path d="M 9.8125 72.90625 
L 19.671875 72.90625 
L 19.671875 42.09375 
L 52.390625 72.90625 
L 65.09375 72.90625 
L 28.90625 38.921875 
L 67.671875 0 
L 54.6875 0 
L 19.671875 35.109375 
L 19.671875 0 
L 9.8125 0 
z
" id="DejaVuSans-75"/>
       <path d="M 4.203125 54.6875 
L 13.1875 54.6875 
L 24.421875 12.015625 
L 35.59375 54.6875 
L 46.1875 54.6875 
L 57.421875 12.015625 
L 68.609375 54.6875 
L 77.59375 54.6875 
L 63.28125 0 
L 52.6875 0 
L 40.921875 44.828125 
L 29.109375 0 
L 18.5 0 
z
" id="DejaVuSans-119"/>
      </defs>
      <use xlink:href="#DejaVuSans-87"/>
      <use x="92.501953" xlink:href="#DejaVuSans-97"/>
      <use x="153.78125" xlink:href="#DejaVuSans-116"/>
      <use x="192.990234" xlink:href="#DejaVuSans-101"/>
      <use x="254.513672" xlink:href="#DejaVuSans-114"/>
      <use x="295.626953" xlink:href="#DejaVuSans-32"/>
      <use x="327.414062" xlink:href="#DejaVuSans-81"/>
      <use x="406.125" xlink:href="#DejaVuSans-117"/>
      <use x="469.503906" xlink:href="#DejaVuSans-97"/>
      <use x="530.783203" xlink:href="#DejaVuSans-108"/>
      <use x="558.566406" xlink:href="#DejaVuSans-105"/>
      <use x="586.349609" xlink:href="#DejaVuSans-116"/>
      <use x="625.558594" xlink:href="#DejaVuSans-121"/>
      <use x="684.738281" xlink:href="#DejaVuSans-32"/>
      <use x="716.525391" xlink:href="#DejaVuSans-75"/>
      <use x="782.101562" xlink:href="#DejaVuSans-110"/>
      <use x="845.480469" xlink:href="#DejaVuSans-111"/>
      <use x="906.662109" xlink:href="#DejaVuSans-119"/>
      <use x="988.449219" xlink:href="#DejaVuSans-108"/>
      <use x="1016.232422" xlink:href="#DejaVuSans-101"/>
      <use x="1077.755859" xlink:href="#DejaVuSans-100"/>
      <use x="1141.232422" xlink:href="#DejaVuSans-103"/>
      <use x="1204.708984" xlink:href="#DejaVuSans-101"/>
     </g>
    </g>
   </g>
   <g id="PathCollection_1">
    <defs>
     <path d="M 0 3.535534 
C 0.937635 3.535534 1.836992 3.163008 2.5 2.5 
C 3.163008 1.836992 3.535534 0.937635 3.535534 0 
C 3.535534 -0.937635 3.163008 -1.836992 2.5 -2.5 
C 1.836992 -3.163008 0.937635 -3.535534 0 -3.535534 
C -0.937635 -3.535534 -1.836992 -3.163008 -2.5 -2.5 
C -3.163008 -1.836992 -3.535534 -0.937635 -3.535534 0 
C -3.535534 0.937635 -3.163008 1.836992 -2.5 2.5 
C -1.836992 3.163008 -0.937635 3.535534 0 3.535534 
z
" id="m871a511608" style="stroke:#6a51a3;stroke-width:0.8;"/>
    </defs>
    <g clip-path="url(#p4f671849b5)">
     <use style="fill:#6a51a3;stroke:#6a51a3;stroke-width:0.8;" x="42.78575" xlink:href="#m871a511608" y="239.913779"/>
     <use style="fill:#6a51a3;stroke:#6a51a3;stroke-width:0.8;" x="69.199417" xlink:href="#m871a511608" y="171.023123"/>
     <use style="fill:#6a51a3;stroke:#6a51a3;stroke-width:0.8;" x="95.613083" xlink:href="#m871a511608" y="241.110133"/>
     <use style="fill:#6a51a3;stroke:#6a51a3;stroke-width:0.8;" x="122.02675" xlink:href="#m871a511608" y="201.132947"/>
     <use style="fill:#6a51a3;stroke:#6a51a3;stroke-width:0.8;" x="148.440417" xlink:href="#m871a511608" y="171.023123"/>
     <use style="fill:#6a51a3;stroke:#6a51a3;stroke-width:0.8;" x="174.854083" xlink:href="#m871a511608" y="205.308281"/>
     <use style="fill:#6a51a3;stroke:#6a51a3;stroke-width:0.8;" x="201.26775" xlink:href="#m871a511608" y="171.023123"/>
     <use style="fill:#6a51a3;stroke:#6a51a3;stroke-width:0.8;" x="227.681417" xlink:href="#m871a511608" y="218.063318"/>
     <use style="fill:#6a51a3;stroke:#6a51a3;stroke-width:0.8;" x="254.095083" xlink:href="#m871a511608" y="148.86651"/>
     <use style="fill:#6a51a3;stroke:#6a51a3;stroke-width:0.8;" x="280.50875" xlink:href="#m871a511608" y="142.81873"/>
     <use style="fill:#6a51a3;stroke:#6a51a3;stroke-width:0.8;" x="306.922417" xlink:href="#m871a511608" y="82.692091"/>
     <use style="fill:#6a51a3;stroke:#6a51a3;stroke-width:0.8;" x="333.336083" xlink:href="#m871a511608" y="121.08621"/>
     <use style="fill:#6a51a3;stroke:#6a51a3;stroke-width:0.8;" x="359.74975" xlink:href="#m871a511608" y="183.763176"/>
    </g>
   </g>
   <g id="PolyCollection_1">
    <defs>
     <path d="M 42.78575 -272.573604 
L 42.78575 -216.367504 
L 45.987407 -218.368496 
L 49.189063 -220.380781 
L 52.39072 -222.393066 
L 55.592376 -224.405352 
L 58.794033 -226.417637 
L 61.995689 -228.429922 
L 65.197346 -230.429121 
L 68.399003 -231.937694 
L 71.600659 -233.514296 
L 74.802316 -235.421312 
L 78.003972 -237.133859 
L 81.205629 -238.80822 
L 84.407285 -240.761623 
L 87.608942 -242.719857 
L 90.810598 -244.619984 
L 94.012255 -246.371629 
L 97.213912 -247.954321 
L 100.415568 -249.624565 
L 103.617225 -251.418394 
L 106.818881 -253.140556 
L 110.020538 -254.996531 
L 113.222194 -257.019651 
L 116.423851 -258.925626 
L 119.625508 -260.557856 
L 122.827164 -262.19527 
L 126.028821 -263.709922 
L 129.230477 -264.973788 
L 132.432134 -266.231484 
L 135.63379 -267.691047 
L 138.835447 -269.559087 
L 142.037104 -271.295865 
L 145.23876 -273.095844 
L 148.440417 -274.898149 
L 151.642073 -276.607099 
L 154.84373 -278.234203 
L 158.045386 -279.656404 
L 161.247043 -281.141952 
L 164.448699 -282.684796 
L 167.650356 -284.239264 
L 170.852013 -285.642441 
L 174.053669 -286.976257 
L 177.255326 -288.414089 
L 180.456982 -289.866341 
L 183.658639 -291.318594 
L 186.860295 -292.749761 
L 190.061952 -294.176097 
L 193.263609 -295.686094 
L 196.465265 -297.106502 
L 199.666922 -298.594883 
L 202.868578 -299.8179 
L 206.070235 -301.229721 
L 209.271891 -302.334018 
L 212.473548 -303.669585 
L 215.675205 -304.912416 
L 218.876861 -306.196253 
L 222.078518 -307.282933 
L 225.280174 -308.661449 
L 228.481831 -309.997574 
L 231.683487 -311.117461 
L 234.885144 -312.189795 
L 238.086801 -313.179221 
L 241.288457 -314.245706 
L 244.490114 -315.25246 
L 247.69177 -316.268679 
L 250.893427 -317.336217 
L 254.095083 -318.393319 
L 257.29674 -319.624661 
L 260.498396 -320.643496 
L 263.700053 -321.598888 
L 266.90171 -322.55428 
L 270.103366 -323.509672 
L 273.305023 -324.465064 
L 276.506679 -325.420456 
L 279.708336 -326.463486 
L 282.909992 -327.535379 
L 286.111649 -328.400323 
L 289.313306 -329.411722 
L 292.514962 -330.273643 
L 295.716619 -331.142964 
L 298.918275 -332.092216 
L 302.119932 -333.047212 
L 305.321588 -334.004207 
L 308.523245 -334.954918 
L 311.724902 -335.846042 
L 314.926558 -336.766131 
L 318.128215 -337.809046 
L 321.329871 -338.683409 
L 324.531528 -339.417606 
L 327.733184 -340.273493 
L 330.934841 -341.291501 
L 334.136497 -342.309509 
L 337.338154 -343.334645 
L 340.539811 -344.361932 
L 343.741467 -345.389218 
L 346.943124 -346.396792 
L 350.14478 -347.310757 
L 353.346437 -348.14555 
L 356.548093 -349.195342 
L 359.74975 -350.214712 
L 359.74975 -408.893954 
L 359.74975 -408.893954 
L 356.548093 -407.137399 
L 353.346437 -405.233848 
L 350.14478 -403.511164 
L 346.943124 -401.838555 
L 343.741467 -400.126099 
L 340.539811 -398.37272 
L 337.338154 -396.622036 
L 334.136497 -394.785994 
L 330.934841 -392.854438 
L 327.733184 -390.974386 
L 324.531528 -389.418754 
L 321.329871 -387.776524 
L 318.128215 -386.108197 
L 314.926558 -384.355813 
L 311.724902 -382.60229 
L 308.523245 -380.848767 
L 305.321588 -379.069394 
L 302.119932 -377.341354 
L 298.918275 -375.587166 
L 295.716619 -373.880145 
L 292.514962 -372.10262 
L 289.313306 -370.346004 
L 286.111649 -368.926754 
L 282.909992 -367.173107 
L 279.708336 -365.450727 
L 276.506679 -363.60207 
L 273.305023 -362.082739 
L 270.103366 -360.350389 
L 266.90171 -358.652231 
L 263.700053 -356.898513 
L 260.498396 -355.290656 
L 257.29674 -353.80237 
L 254.095083 -352.347846 
L 250.893427 -350.866793 
L 247.69177 -349.445906 
L 244.490114 -348.026008 
L 241.288457 -346.601306 
L 238.086801 -345.041028 
L 234.885144 -343.376177 
L 231.683487 -342.066122 
L 228.481831 -340.280192 
L 225.280174 -338.754846 
L 222.078518 -337.086945 
L 218.876861 -335.964648 
L 215.675205 -334.565519 
L 212.473548 -332.837971 
L 209.271891 -331.116935 
L 206.070235 -329.71822 
L 202.868578 -328.475739 
L 199.666922 -327.246231 
L 196.465265 -325.98337 
L 193.263609 -324.723667 
L 190.061952 -323.287305 
L 186.860295 -321.942327 
L 183.658639 -320.565696 
L 180.456982 -319.154844 
L 177.255326 -317.733359 
L 174.053669 -316.31445 
L 170.852013 -315.081468 
L 167.650356 -313.938883 
L 164.448699 -312.751505 
L 161.247043 -311.369797 
L 158.045386 -310.443894 
L 154.84373 -309.057423 
L 151.642073 -308.021839 
L 148.440417 -306.489226 
L 145.23876 -305.247408 
L 142.037104 -304.078161 
L 138.835447 -302.975137 
L 135.63379 -301.853409 
L 132.432134 -300.756143 
L 129.230477 -299.684473 
L 126.028821 -298.561612 
L 122.827164 -297.165057 
L 119.625508 -295.841344 
L 116.423851 -294.868186 
L 113.222194 -293.93098 
L 110.020538 -293.003768 
L 106.818881 -291.891463 
L 103.617225 -290.869209 
L 100.415568 -289.820205 
L 97.213912 -288.965621 
L 94.012255 -287.877767 
L 90.810598 -286.616031 
L 87.608942 -285.647002 
L 84.407285 -284.857135 
L 81.205629 -283.95285 
L 78.003972 -283.288071 
L 74.802316 -282.134456 
L 71.600659 -281.186931 
L 68.399003 -280.035086 
L 65.197346 -279.009506 
L 61.995689 -278.285643 
L 58.794033 -277.424976 
L 55.592376 -276.353806 
L 52.39072 -275.282043 
L 49.189063 -274.220586 
L 45.987407 -273.376298 
L 42.78575 -272.573604 
z
" id="m724bdde2e8" style="stroke:#ffffff;stroke-opacity:0.15;stroke-width:0.8;"/>
    </defs>
    <g clip-path="url(#p4f671849b5)">
     <use style="fill:#6a51a3;fill-opacity:0.15;stroke:#ffffff;stroke-opacity:0.15;stroke-width:0.8;" x="0" xlink:href="#m724bdde2e8" y="491.126383"/>
    </g>
   </g>
   <g id="line2d_21">
    <path clip-path="url(#p4f671849b5)" d="M 42.78575 292.761405 
L 42.78575 187.066153 
" style="fill:none;stroke:#6a51a3;stroke-linecap:round;stroke-width:2.1;"/>
   </g>
   <g id="line2d_22">
    <path clip-path="url(#p4f671849b5)" d="M 69.199417 306.917019 
L 69.199417 35.129227 
" style="fill:none;stroke:#6a51a3;stroke-linecap:round;stroke-width:2.1;"/>
   </g>
   <g id="line2d_23">
    <path clip-path="url(#p4f671849b5)" d="M 95.613083 282.306314 
L 95.613083 199.913952 
" style="fill:none;stroke:#6a51a3;stroke-linecap:round;stroke-width:2.1;"/>
   </g>
   <g id="line2d_24">
    <path clip-path="url(#p4f671849b5)" d="M 122.02675 229.111102 
L 122.02675 175.020003 
" style="fill:none;stroke:#6a51a3;stroke-linecap:round;stroke-width:2.1;"/>
   </g>
   <g id="line2d_25">
    <path clip-path="url(#p4f671849b5)" d="M 148.440417 272.943545 
L 148.440417 69.102701 
" style="fill:none;stroke:#6a51a3;stroke-linecap:round;stroke-width:2.1;"/>
   </g>
   <g id="line2d_26">
    <path clip-path="url(#p4f671849b5)" d="M 174.854083 244.58037 
L 174.854083 161.672626 
" style="fill:none;stroke:#6a51a3;stroke-linecap:round;stroke-width:2.1;"/>
   </g>
   <g id="line2d_27">
    <path clip-path="url(#p4f671849b5)" d="M 201.26775 230.476703 
L 201.26775 111.569544 
" style="fill:none;stroke:#6a51a3;stroke-linecap:round;stroke-width:2.1;"/>
   </g>
   <g id="line2d_28">
    <path clip-path="url(#p4f671849b5)" d="M 227.681417 327.823773 
L 227.681417 71.716045 
" style="fill:none;stroke:#6a51a3;stroke-linecap:round;stroke-width:2.1;"/>
   </g>
   <g id="line2d_29">
    <path clip-path="url(#p4f671849b5)" d="M 254.095083 210.905028 
L 254.095083 97.167745 
" style="fill:none;stroke:#6a51a3;stroke-linecap:round;stroke-width:2.1;"/>
   </g>
   <g id="line2d_30">
    <path clip-path="url(#p4f671849b5)" d="M 280.50875 196.663481 
L 280.50875 88.973979 
" style="fill:none;stroke:#6a51a3;stroke-linecap:round;stroke-width:2.1;"/>
   </g>
   <g id="line2d_31">
    <path clip-path="url(#p4f671849b5)" d="M 306.922417 146.109242 
L 306.922417 35.129227 
" style="fill:none;stroke:#6a51a3;stroke-linecap:round;stroke-width:2.1;"/>
   </g>
   <g id="line2d_32">
    <path clip-path="url(#p4f671849b5)" d="M 333.336083 166.929934 
L 333.336083 86.703417 
" style="fill:none;stroke:#6a51a3;stroke-linecap:round;stroke-width:2.1;"/>
   </g>
   <g id="line2d_33">
    <path clip-path="url(#p4f671849b5)" d="M 359.74975 272.943545 
L 359.74975 94.582807 
" style="fill:none;stroke:#6a51a3;stroke-linecap:round;stroke-width:2.1;"/>
   </g>
   <g id="line2d_34">
    <path clip-path="url(#p4f671849b5)" d="M 42.78575 243.702792 
L 45.987407 242.372165 
L 49.189063 241.041539 
L 52.39072 239.710912 
L 55.592376 238.380285 
L 58.794033 237.049659 
L 61.995689 235.719032 
L 65.197346 234.388405 
L 68.399003 233.057779 
L 71.600659 231.727152 
L 74.802316 230.396525 
L 78.003972 229.065899 
L 81.205629 227.735272 
L 84.407285 226.404645 
L 87.608942 225.074019 
L 90.810598 223.743392 
L 94.012255 222.412765 
L 97.213912 221.082139 
L 100.415568 219.751512 
L 103.617225 218.420885 
L 106.818881 217.090259 
L 110.020538 215.759632 
L 113.222194 214.429005 
L 116.423851 213.098379 
L 119.625508 211.767752 
L 122.827164 210.437125 
L 126.028821 209.106499 
L 129.230477 207.775872 
L 132.432134 206.445245 
L 135.63379 205.114618 
L 138.835447 203.783992 
L 142.037104 202.453365 
L 145.23876 201.122738 
L 148.440417 199.792112 
L 151.642073 198.461485 
L 154.84373 197.130858 
L 158.045386 195.800232 
L 161.247043 194.469605 
L 164.448699 193.138978 
L 167.650356 191.808352 
L 170.852013 190.477725 
L 174.053669 189.147098 
L 177.255326 187.816472 
L 180.456982 186.485845 
L 183.658639 185.155218 
L 186.860295 183.824592 
L 190.061952 182.493965 
L 193.263609 181.163338 
L 196.465265 179.832712 
L 199.666922 178.502085 
L 202.868578 177.171458 
L 206.070235 175.840832 
L 209.271891 174.510205 
L 212.473548 173.179578 
L 215.675205 171.848952 
L 218.876861 170.518325 
L 222.078518 169.187698 
L 225.280174 167.857072 
L 228.481831 166.526445 
L 231.683487 165.195818 
L 234.885144 163.865192 
L 238.086801 162.534565 
L 241.288457 161.203938 
L 244.490114 159.873312 
L 247.69177 158.542685 
L 250.893427 157.212058 
L 254.095083 155.881432 
L 257.29674 154.550805 
L 260.498396 153.220178 
L 263.700053 151.889552 
L 266.90171 150.558925 
L 270.103366 149.228298 
L 273.305023 147.897672 
L 276.506679 146.567045 
L 279.708336 145.236418 
L 282.909992 143.905792 
L 286.111649 142.575165 
L 289.313306 141.244538 
L 292.514962 139.913912 
L 295.716619 138.583285 
L 298.918275 137.252658 
L 302.119932 135.922032 
L 305.321588 134.591405 
L 308.523245 133.260778 
L 311.724902 131.930152 
L 314.926558 130.599525 
L 318.128215 129.268898 
L 321.329871 127.938272 
L 324.531528 126.607645 
L 327.733184 125.277018 
L 330.934841 123.946392 
L 334.136497 122.615765 
L 337.338154 121.285138 
L 340.539811 119.954511 
L 343.741467 118.623885 
L 346.943124 117.293258 
L 350.14478 115.962631 
L 353.346437 114.632005 
L 356.548093 113.301378 
L 359.74975 111.970751 
" style="fill:none;stroke:#6a51a3;stroke-linecap:round;stroke-width:1.8;"/>
   </g>
   <g id="patch_3">
    <path d="M 42.78575 342.4585 
L 42.78575 20.4945 
" style="fill:none;stroke:#262626;stroke-linecap:square;stroke-linejoin:miter;"/>
   </g>
   <g id="patch_4">
    <path d="M 42.78575 342.4585 
L 359.74975 342.4585 
" style="fill:none;stroke:#262626;stroke-linecap:square;stroke-linejoin:miter;"/>
   </g>
   <g id="text_23">
    <!-- Water Quality Knowledge vs. Education Level -->
    <g style="fill:#262626;" transform="translate(92.475 14.4945)scale(0.096 -0.096)">
     <use xlink:href="#DejaVuSans-87"/>
     <use x="92.501953" xlink:href="#DejaVuSans-97"/>
     <use x="153.78125" xlink:href="#DejaVuSans-116"/>
     <use x="192.990234" xlink:href="#DejaVuSans-101"/>
     <use x="254.513672" xlink:href="#DejaVuSans-114"/>
     <use x="295.626953" xlink:href="#DejaVuSans-32"/>
     <use x="327.414062" xlink:href="#DejaVuSans-81"/>
     <use x="406.125" xlink:href="#DejaVuSans-117"/>
     <use x="469.503906" xlink:href="#DejaVuSans-97"/>
     <use x="530.783203" xlink:href="#DejaVuSans-108"/>
     <use x="558.566406" xlink:href="#DejaVuSans-105"/>
     <use x="586.349609" xlink:href="#DejaVuSans-116"/>
     <use x="625.558594" xlink:href="#DejaVuSans-121"/>
     <use x="684.738281" xlink:href="#DejaVuSans-32"/>
     <use x="716.525391" xlink:href="#DejaVuSans-75"/>
     <use x="782.101562" xlink:href="#DejaVuSans-110"/>
     <use x="845.480469" xlink:href="#DejaVuSans-111"/>
     <use x="906.662109" xlink:href="#DejaVuSans-119"/>
     <use x="988.449219" xlink:href="#DejaVuSans-108"/>
     <use x="1016.232422" xlink:href="#DejaVuSans-101"/>
     <use x="1077.755859" xlink:href="#DejaVuSans-100"/>
     <use x="1141.232422" xlink:href="#DejaVuSans-103"/>
     <use x="1204.708984" xlink:href="#DejaVuSans-101"/>
     <use x="1266.232422" xlink:href="#DejaVuSans-32"/>
     <use x="1298.019531" xlink:href="#DejaVuSans-118"/>
     <use x="1357.199219" xlink:href="#DejaVuSans-115"/>
     <use x="1409.298828" xlink:href="#DejaVuSans-46"/>
     <use x="1441.085938" xlink:href="#DejaVuSans-32"/>
     <use x="1472.873047" xlink:href="#DejaVuSans-69"/>
     <use x="1536.056641" xlink:href="#DejaVuSans-100"/>
     <use x="1599.533203" xlink:href="#DejaVuSans-117"/>
     <use x="1662.912109" xlink:href="#DejaVuSans-99"/>
     <use x="1717.892578" xlink:href="#DejaVuSans-97"/>
     <use x="1779.171875" xlink:href="#DejaVuSans-116"/>
     <use x="1818.380859" xlink:href="#DejaVuSans-105"/>
     <use x="1846.164062" xlink:href="#DejaVuSans-111"/>
     <use x="1907.345703" xlink:href="#DejaVuSans-110"/>
     <use x="1970.724609" xlink:href="#DejaVuSans-32"/>
     <use x="2002.511719" xlink:href="#DejaVuSans-76"/>
     <use x="2056.474609" xlink:href="#DejaVuSans-101"/>
     <use x="2117.998047" xlink:href="#DejaVuSans-118"/>
     <use x="2177.177734" xlink:href="#DejaVuSans-101"/>
     <use x="2238.701172" xlink:href="#DejaVuSans-108"/>
    </g>
   </g>
  </g>
 </g>
 <defs>
  <clipPath id="p4f671849b5">
   <rect height="321.964" width="316.964" x="42.78575" y="20.4945"/>
  </clipPath>
 </defs>
</svg>
