<?xml version="1.0" encoding="utf-8" standalone="no"?>
<!DOCTYPE svg PUBLIC "-//W3C//DTD SVG 1.1//EN"
  "http://www.w3.org/Graphics/SVG/1.1/DTD/svg11.dtd">
<!-- Created with matplotlib (https://matplotlib.org/) -->
<svg height="363.514219pt" version="1.1" viewBox="0 0 363.361406 363.514219" width="363.361406pt" xmlns="http://www.w3.org/2000/svg" xmlns:xlink="http://www.w3.org/1999/xlink">
 <metadata>
  <rdf:RDF xmlns:cc="http://creativecommons.org/ns#" xmlns:dc="http://purl.org/dc/elements/1.1/" xmlns:rdf="http://www.w3.org/1999/02/22-rdf-syntax-ns#">
   <cc:Work>
    <dc:type rdf:resource="http://purl.org/dc/dcmitype/StillImage"/>
    <dc:date>2021-03-08T09:36:16.945035</dc:date>
    <dc:format>image/svg+xml</dc:format>
    <dc:creator>
     <cc:Agent>
      <dc:title>Matplotlib v3.3.2, https://matplotlib.org/</dc:title>
     </cc:Agent>
    </dc:creator>
   </cc:Work>
  </rdf:RDF>
 </metadata>
 <defs>
  <style type="text/css">*{stroke-linecap:butt;stroke-linejoin:round;}</style>
 </defs>
 <g id="figure_1">
  <g id="patch_1">
   <path d="M 0 363.514219 
L 363.361406 363.514219 
L 363.361406 0 
L 0 0 
z
" style="fill:#ffffff;"/>
  </g>
  <g id="axes_1">
   <g id="patch_2">
    <path d="M 46.964375 321.78 
L 350.044375 321.78 
L 350.044375 7.2 
L 46.964375 7.2 
z
" style="fill:#ffffff;"/>
   </g>
   <g id="matplotlib.axis_1">
    <g id="xtick_1">
     <g id="line2d_1">
      <defs>
       <path d="M 0 0 
L 0 6 
" id="m527a948d52" style="stroke:#262626;stroke-width:1.25;"/>
      </defs>
      <g>
       <use style="fill:#262626;stroke:#262626;stroke-width:1.25;" x="70.278221" xlink:href="#m527a948d52" y="321.78"/>
      </g>
     </g>
     <g id="text_1">
      <!-- 2 -->
      <g style="fill:#262626;" transform="translate(67.219706 339.153594)scale(0.11 -0.11)">
       <defs>
        <path d="M 50.34375 8.453125 
L 50.34375 0 
L 3.03125 0 
Q 2.9375 3.171875 4.046875 6.109375 
Q 5.859375 10.9375 9.828125 15.625 
Q 13.8125 20.3125 21.34375 26.46875 
Q 33.015625 36.03125 37.109375 41.625 
Q 41.21875 47.21875 41.21875 52.203125 
Q 41.21875 57.421875 37.46875 61 
Q 33.734375 64.59375 27.734375 64.59375 
Q 21.390625 64.59375 17.578125 60.78125 
Q 13.765625 56.984375 13.71875 50.25 
L 4.6875 51.171875 
Q 5.609375 61.28125 11.65625 66.578125 
Q 17.71875 71.875 27.9375 71.875 
Q 38.234375 71.875 44.234375 66.15625 
Q 50.25 60.453125 50.25 52 
Q 50.25 47.703125 48.484375 43.546875 
Q 46.734375 39.40625 42.65625 34.8125 
Q 38.578125 30.21875 29.109375 22.21875 
Q 21.1875 15.578125 18.9375 13.203125 
Q 16.703125 10.84375 15.234375 8.453125 
z
" id="ArialMT-50"/>
       </defs>
       <use xlink:href="#ArialMT-50"/>
      </g>
     </g>
    </g>
    <g id="xtick_2">
     <g id="line2d_2">
      <g>
       <use style="fill:#262626;stroke:#262626;stroke-width:1.25;" x="116.905913" xlink:href="#m527a948d52" y="321.78"/>
      </g>
     </g>
     <g id="text_2">
      <!-- 4 -->
      <g style="fill:#262626;" transform="translate(113.847398 339.153594)scale(0.11 -0.11)">
       <defs>
        <path d="M 32.328125 0 
L 32.328125 17.140625 
L 1.265625 17.140625 
L 1.265625 25.203125 
L 33.9375 71.578125 
L 41.109375 71.578125 
L 41.109375 25.203125 
L 50.78125 25.203125 
L 50.78125 17.140625 
L 41.109375 17.140625 
L 41.109375 0 
z
M 32.328125 25.203125 
L 32.328125 57.46875 
L 9.90625 25.203125 
z
" id="ArialMT-52"/>
       </defs>
       <use xlink:href="#ArialMT-52"/>
      </g>
     </g>
    </g>
    <g id="xtick_3">
     <g id="line2d_3">
      <g>
       <use style="fill:#262626;stroke:#262626;stroke-width:1.25;" x="163.533606" xlink:href="#m527a948d52" y="321.78"/>
      </g>
     </g>
     <g id="text_3">
      <!-- 6 -->
      <g style="fill:#262626;" transform="translate(160.47509 339.153594)scale(0.11 -0.11)">
       <defs>
        <path d="M 49.75 54.046875 
L 41.015625 53.375 
Q 39.84375 58.546875 37.703125 60.890625 
Q 34.125 64.65625 28.90625 64.65625 
Q 24.703125 64.65625 21.53125 62.3125 
Q 17.390625 59.28125 14.984375 53.46875 
Q 12.59375 47.65625 12.5 36.921875 
Q 15.671875 41.75 20.265625 44.09375 
Q 24.859375 46.4375 29.890625 46.4375 
Q 38.671875 46.4375 44.84375 39.96875 
Q 51.03125 33.5 51.03125 23.25 
Q 51.03125 16.5 48.125 10.71875 
Q 45.21875 4.9375 40.140625 1.859375 
Q 35.0625 -1.21875 28.609375 -1.21875 
Q 17.625 -1.21875 10.6875 6.859375 
Q 3.765625 14.9375 3.765625 33.5 
Q 3.765625 54.25 11.421875 63.671875 
Q 18.109375 71.875 29.4375 71.875 
Q 37.890625 71.875 43.28125 67.140625 
Q 48.6875 62.40625 49.75 54.046875 
z
M 13.875 23.1875 
Q 13.875 18.65625 15.796875 14.5 
Q 17.71875 10.359375 21.1875 8.171875 
Q 24.65625 6 28.46875 6 
Q 34.03125 6 38.03125 10.484375 
Q 42.046875 14.984375 42.046875 22.703125 
Q 42.046875 30.125 38.078125 34.390625 
Q 34.125 38.671875 28.125 38.671875 
Q 22.171875 38.671875 18.015625 34.390625 
Q 13.875 30.125 13.875 23.1875 
z
" id="ArialMT-54"/>
       </defs>
       <use xlink:href="#ArialMT-54"/>
      </g>
     </g>
    </g>
    <g id="xtick_4">
     <g id="line2d_4">
      <g>
       <use style="fill:#262626;stroke:#262626;stroke-width:1.25;" x="210.161298" xlink:href="#m527a948d52" y="321.78"/>
      </g>
     </g>
     <g id="text_4">
      <!-- 8 -->
      <g style="fill:#262626;" transform="translate(207.102782 339.153594)scale(0.11 -0.11)">
       <defs>
        <path d="M 17.671875 38.8125 
Q 12.203125 40.828125 9.5625 44.53125 
Q 6.9375 48.25 6.9375 53.421875 
Q 6.9375 61.234375 12.546875 66.546875 
Q 18.171875 71.875 27.484375 71.875 
Q 36.859375 71.875 42.578125 66.421875 
Q 48.296875 60.984375 48.296875 53.171875 
Q 48.296875 48.1875 45.671875 44.5 
Q 43.0625 40.828125 37.75 38.8125 
Q 44.34375 36.671875 47.78125 31.875 
Q 51.21875 27.09375 51.21875 20.453125 
Q 51.21875 11.28125 44.71875 5.03125 
Q 38.234375 -1.21875 27.640625 -1.21875 
Q 17.046875 -1.21875 10.546875 5.046875 
Q 4.046875 11.328125 4.046875 20.703125 
Q 4.046875 27.6875 7.59375 32.390625 
Q 11.140625 37.109375 17.671875 38.8125 
z
M 15.921875 53.71875 
Q 15.921875 48.640625 19.1875 45.40625 
Q 22.46875 42.1875 27.6875 42.1875 
Q 32.765625 42.1875 36.015625 45.375 
Q 39.265625 48.578125 39.265625 53.21875 
Q 39.265625 58.0625 35.90625 61.359375 
Q 32.5625 64.65625 27.59375 64.65625 
Q 22.5625 64.65625 19.234375 61.421875 
Q 15.921875 58.203125 15.921875 53.71875 
z
M 13.09375 20.65625 
Q 13.09375 16.890625 14.875 13.375 
Q 16.65625 9.859375 20.171875 7.921875 
Q 23.6875 6 27.734375 6 
Q 34.03125 6 38.125 10.046875 
Q 42.234375 14.109375 42.234375 20.359375 
Q 42.234375 26.703125 38.015625 30.859375 
Q 33.796875 35.015625 27.4375 35.015625 
Q 21.234375 35.015625 17.15625 30.90625 
Q 13.09375 26.8125 13.09375 20.65625 
z
" id="ArialMT-56"/>
       </defs>
       <use xlink:href="#ArialMT-56"/>
      </g>
     </g>
    </g>
    <g id="xtick_5">
     <g id="line2d_5">
      <g>
       <use style="fill:#262626;stroke:#262626;stroke-width:1.25;" x="256.78899" xlink:href="#m527a948d52" y="321.78"/>
      </g>
     </g>
     <g id="text_5">
      <!-- 10 -->
      <g style="fill:#262626;" transform="translate(250.671959 339.153594)scale(0.11 -0.11)">
       <defs>
        <path d="M 37.25 0 
L 28.46875 0 
L 28.46875 56 
Q 25.296875 52.984375 20.140625 49.953125 
Q 14.984375 46.921875 10.890625 45.40625 
L 10.890625 53.90625 
Q 18.265625 57.375 23.78125 62.296875 
Q 29.296875 67.234375 31.59375 71.875 
L 37.25 71.875 
z
" id="ArialMT-49"/>
        <path d="M 4.15625 35.296875 
Q 4.15625 48 6.765625 55.734375 
Q 9.375 63.484375 14.515625 67.671875 
Q 19.671875 71.875 27.484375 71.875 
Q 33.25 71.875 37.59375 69.546875 
Q 41.9375 67.234375 44.765625 62.859375 
Q 47.609375 58.5 49.21875 52.21875 
Q 50.828125 45.953125 50.828125 35.296875 
Q 50.828125 22.703125 48.234375 14.96875 
Q 45.65625 7.234375 40.5 3 
Q 35.359375 -1.21875 27.484375 -1.21875 
Q 17.140625 -1.21875 11.234375 6.203125 
Q 4.15625 15.140625 4.15625 35.296875 
z
M 13.1875 35.296875 
Q 13.1875 17.671875 17.3125 11.828125 
Q 21.4375 6 27.484375 6 
Q 33.546875 6 37.671875 11.859375 
Q 41.796875 17.71875 41.796875 35.296875 
Q 41.796875 52.984375 37.671875 58.78125 
Q 33.546875 64.59375 27.390625 64.59375 
Q 21.34375 64.59375 17.71875 59.46875 
Q 13.1875 52.9375 13.1875 35.296875 
z
" id="ArialMT-48"/>
       </defs>
       <use xlink:href="#ArialMT-49"/>
       <use x="55.615234" xlink:href="#ArialMT-48"/>
      </g>
     </g>
    </g>
    <g id="xtick_6">
     <g id="line2d_6">
      <g>
       <use style="fill:#262626;stroke:#262626;stroke-width:1.25;" x="303.416683" xlink:href="#m527a948d52" y="321.78"/>
      </g>
     </g>
     <g id="text_6">
      <!-- 12 -->
      <g style="fill:#262626;" transform="translate(297.299651 339.153594)scale(0.11 -0.11)">
       <use xlink:href="#ArialMT-49"/>
       <use x="55.615234" xlink:href="#ArialMT-50"/>
      </g>
     </g>
    </g>
    <g id="xtick_7">
     <g id="line2d_7">
      <g>
       <use style="fill:#262626;stroke:#262626;stroke-width:1.25;" x="350.044375" xlink:href="#m527a948d52" y="321.78"/>
      </g>
     </g>
     <g id="text_7">
      <!-- 14 -->
      <g style="fill:#262626;" transform="translate(343.927344 339.153594)scale(0.11 -0.11)">
       <use xlink:href="#ArialMT-49"/>
       <use x="55.615234" xlink:href="#ArialMT-52"/>
      </g>
     </g>
    </g>
    <g id="text_8">
     <!-- a7a -->
     <g style="fill:#262626;" transform="translate(188.494687 353.929219)scale(0.12 -0.12)">
      <defs>
       <path d="M 40.4375 6.390625 
Q 35.546875 2.25 31.03125 0.53125 
Q 26.515625 -1.171875 21.34375 -1.171875 
Q 12.796875 -1.171875 8.203125 3 
Q 3.609375 7.171875 3.609375 13.671875 
Q 3.609375 17.484375 5.34375 20.625 
Q 7.078125 23.78125 9.890625 25.6875 
Q 12.703125 27.59375 16.21875 28.5625 
Q 18.796875 29.25 24.03125 29.890625 
Q 34.671875 31.15625 39.703125 32.90625 
Q 39.75 34.71875 39.75 35.203125 
Q 39.75 40.578125 37.25 42.78125 
Q 33.890625 45.75 27.25 45.75 
Q 21.046875 45.75 18.09375 43.578125 
Q 15.140625 41.40625 13.71875 35.890625 
L 5.125 37.0625 
Q 6.296875 42.578125 8.984375 45.96875 
Q 11.671875 49.359375 16.75 51.1875 
Q 21.828125 53.03125 28.515625 53.03125 
Q 35.15625 53.03125 39.296875 51.46875 
Q 43.453125 49.90625 45.40625 47.53125 
Q 47.359375 45.171875 48.140625 41.546875 
Q 48.578125 39.3125 48.578125 33.453125 
L 48.578125 21.734375 
Q 48.578125 9.46875 49.140625 6.21875 
Q 49.703125 2.984375 51.375 0 
L 42.1875 0 
Q 40.828125 2.734375 40.4375 6.390625 
z
M 39.703125 26.03125 
Q 34.90625 24.078125 25.34375 22.703125 
Q 19.921875 21.921875 17.671875 20.9375 
Q 15.4375 19.96875 14.203125 18.09375 
Q 12.984375 16.21875 12.984375 13.921875 
Q 12.984375 10.40625 15.640625 8.0625 
Q 18.3125 5.71875 23.4375 5.71875 
Q 28.515625 5.71875 32.46875 7.9375 
Q 36.421875 10.15625 38.28125 14.015625 
Q 39.703125 17 39.703125 22.796875 
z
" id="ArialMT-97"/>
       <path d="M 4.734375 62.203125 
L 4.734375 70.65625 
L 51.078125 70.65625 
L 51.078125 63.8125 
Q 44.234375 56.546875 37.515625 44.484375 
Q 30.8125 32.421875 27.15625 19.671875 
Q 24.515625 10.6875 23.78125 0 
L 14.75 0 
Q 14.890625 8.453125 18.0625 20.40625 
Q 21.234375 32.375 27.171875 43.484375 
Q 33.109375 54.59375 39.796875 62.203125 
z
" id="ArialMT-55"/>
      </defs>
      <use xlink:href="#ArialMT-97"/>
      <use x="55.615234" xlink:href="#ArialMT-55"/>
      <use x="111.230469" xlink:href="#ArialMT-97"/>
     </g>
    </g>
   </g>
   <g id="matplotlib.axis_2">
    <g id="ytick_1">
     <g id="line2d_8">
      <defs>
       <path d="M 0 0 
L -6 0 
" id="m5db3c8ac20" style="stroke:#262626;stroke-width:1.25;"/>
      </defs>
      <g>
       <use style="fill:#262626;stroke:#262626;stroke-width:1.25;" x="46.964375" xlink:href="#m5db3c8ac20" y="279.342601"/>
      </g>
     </g>
     <g id="text_9">
      <!-- 1.8 -->
      <g style="fill:#262626;" transform="translate(22.174375 283.279398)scale(0.11 -0.11)">
       <defs>
        <path d="M 9.078125 0 
L 9.078125 10.015625 
L 19.09375 10.015625 
L 19.09375 0 
z
" id="ArialMT-46"/>
       </defs>
       <use xlink:href="#ArialMT-49"/>
       <use x="55.615234" xlink:href="#ArialMT-46"/>
       <use x="83.398438" xlink:href="#ArialMT-56"/>
      </g>
     </g>
    </g>
    <g id="ytick_2">
     <g id="line2d_9">
      <g>
       <use style="fill:#262626;stroke:#262626;stroke-width:1.25;" x="46.964375" xlink:href="#m5db3c8ac20" y="215.839741"/>
      </g>
     </g>
     <g id="text_10">
      <!-- 2.0 -->
      <g style="fill:#262626;" transform="translate(22.174375 219.776538)scale(0.11 -0.11)">
       <use xlink:href="#ArialMT-50"/>
       <use x="55.615234" xlink:href="#ArialMT-46"/>
       <use x="83.398438" xlink:href="#ArialMT-48"/>
      </g>
     </g>
    </g>
    <g id="ytick_3">
     <g id="line2d_10">
      <g>
       <use style="fill:#262626;stroke:#262626;stroke-width:1.25;" x="46.964375" xlink:href="#m5db3c8ac20" y="152.336881"/>
      </g>
     </g>
     <g id="text_11">
      <!-- 2.2 -->
      <g style="fill:#262626;" transform="translate(22.174375 156.273678)scale(0.11 -0.11)">
       <use xlink:href="#ArialMT-50"/>
       <use x="55.615234" xlink:href="#ArialMT-46"/>
       <use x="83.398438" xlink:href="#ArialMT-50"/>
      </g>
     </g>
    </g>
    <g id="ytick_4">
     <g id="line2d_11">
      <g>
       <use style="fill:#262626;stroke:#262626;stroke-width:1.25;" x="46.964375" xlink:href="#m5db3c8ac20" y="88.83402"/>
      </g>
     </g>
     <g id="text_12">
      <!-- 2.4 -->
      <g style="fill:#262626;" transform="translate(22.174375 92.770817)scale(0.11 -0.11)">
       <use xlink:href="#ArialMT-50"/>
       <use x="55.615234" xlink:href="#ArialMT-46"/>
       <use x="83.398438" xlink:href="#ArialMT-52"/>
      </g>
     </g>
    </g>
    <g id="ytick_5">
     <g id="line2d_12">
      <g>
       <use style="fill:#262626;stroke:#262626;stroke-width:1.25;" x="46.964375" xlink:href="#m5db3c8ac20" y="25.33116"/>
      </g>
     </g>
     <g id="text_13">
      <!-- 2.6 -->
      <g style="fill:#262626;" transform="translate(22.174375 29.267957)scale(0.11 -0.11)">
       <use xlink:href="#ArialMT-50"/>
       <use x="55.615234" xlink:href="#ArialMT-46"/>
       <use x="83.398438" xlink:href="#ArialMT-54"/>
      </g>
     </g>
    </g>
    <g id="text_14">
     <!-- l14d -->
     <g style="fill:#262626;" transform="translate(15.789375 175.832812)rotate(-90)scale(0.12 -0.12)">
      <defs>
       <path d="M 6.390625 0 
L 6.390625 71.578125 
L 15.1875 71.578125 
L 15.1875 0 
z
" id="ArialMT-108"/>
       <path d="M 40.234375 0 
L 40.234375 6.546875 
Q 35.296875 -1.171875 25.734375 -1.171875 
Q 19.53125 -1.171875 14.328125 2.25 
Q 9.125 5.671875 6.265625 11.796875 
Q 3.421875 17.921875 3.421875 25.875 
Q 3.421875 33.640625 6 39.96875 
Q 8.59375 46.296875 13.765625 49.65625 
Q 18.953125 53.03125 25.34375 53.03125 
Q 30.03125 53.03125 33.6875 51.046875 
Q 37.359375 49.078125 39.65625 45.90625 
L 39.65625 71.578125 
L 48.390625 71.578125 
L 48.390625 0 
z
M 12.453125 25.875 
Q 12.453125 15.921875 16.640625 10.984375 
Q 20.84375 6.0625 26.5625 6.0625 
Q 32.328125 6.0625 36.34375 10.765625 
Q 40.375 15.484375 40.375 25.140625 
Q 40.375 35.796875 36.265625 40.765625 
Q 32.171875 45.75 26.171875 45.75 
Q 20.3125 45.75 16.375 40.96875 
Q 12.453125 36.1875 12.453125 25.875 
z
" id="ArialMT-100"/>
      </defs>
      <use xlink:href="#ArialMT-108"/>
      <use x="22.216797" xlink:href="#ArialMT-49"/>
      <use x="77.832031" xlink:href="#ArialMT-52"/>
      <use x="133.447266" xlink:href="#ArialMT-100"/>
     </g>
    </g>
   </g>
   <g id="PathCollection_1">
    <defs>
     <path d="M 0 3 
C 0.795609 3 1.55874 2.683901 2.12132 2.12132 
C 2.683901 1.55874 3 0.795609 3 0 
C 3 -0.795609 2.683901 -1.55874 2.12132 -2.12132 
C 1.55874 -2.683901 0.795609 -3 0 -3 
C -0.795609 -3 -1.55874 -2.683901 -2.12132 -2.12132 
C -2.683901 -1.55874 -3 -0.795609 -3 0 
C -3 0.795609 -2.683901 1.55874 -2.12132 2.12132 
C -1.55874 2.683901 -0.795609 3 0 3 
z
" id="ma788ea16b6" style="stroke:#4c72b0;stroke-opacity:0.8;"/>
    </defs>
    <g clip-path="url(#p5185e64621)">
     <use style="fill:#4c72b0;fill-opacity:0.8;stroke:#4c72b0;stroke-opacity:0.8;" x="46.964375" xlink:href="#ma788ea16b6" y="21.499091"/>
     <use style="fill:#4c72b0;fill-opacity:0.8;stroke:#4c72b0;stroke-opacity:0.8;" x="70.278221" xlink:href="#ma788ea16b6" y="71.515058"/>
     <use style="fill:#4c72b0;fill-opacity:0.8;stroke:#4c72b0;stroke-opacity:0.8;" x="93.592067" xlink:href="#ma788ea16b6" y="63.372493"/>
     <use style="fill:#4c72b0;fill-opacity:0.8;stroke:#4c72b0;stroke-opacity:0.8;" x="116.905913" xlink:href="#ma788ea16b6" y="104.121746"/>
     <use style="fill:#4c72b0;fill-opacity:0.8;stroke:#4c72b0;stroke-opacity:0.8;" x="140.21976" xlink:href="#ma788ea16b6" y="226.78851"/>
     <use style="fill:#4c72b0;fill-opacity:0.8;stroke:#4c72b0;stroke-opacity:0.8;" x="163.533606" xlink:href="#ma788ea16b6" y="121.465213"/>
     <use style="fill:#4c72b0;fill-opacity:0.8;stroke:#4c72b0;stroke-opacity:0.8;" x="186.847452" xlink:href="#ma788ea16b6" y="159.428571"/>
     <use style="fill:#4c72b0;fill-opacity:0.8;stroke:#4c72b0;stroke-opacity:0.8;" x="210.161298" xlink:href="#ma788ea16b6" y="195.995097"/>
     <use style="fill:#4c72b0;fill-opacity:0.8;stroke:#4c72b0;stroke-opacity:0.8;" x="233.475144" xlink:href="#ma788ea16b6" y="203.223279"/>
     <use style="fill:#4c72b0;fill-opacity:0.8;stroke:#4c72b0;stroke-opacity:0.8;" x="256.78899" xlink:href="#ma788ea16b6" y="209.61397"/>
     <use style="fill:#4c72b0;fill-opacity:0.8;stroke:#4c72b0;stroke-opacity:0.8;" x="280.102837" xlink:href="#ma788ea16b6" y="206.501085"/>
     <use style="fill:#4c72b0;fill-opacity:0.8;stroke:#4c72b0;stroke-opacity:0.8;" x="303.416683" xlink:href="#ma788ea16b6" y="226.027366"/>
     <use style="fill:#4c72b0;fill-opacity:0.8;stroke:#4c72b0;stroke-opacity:0.8;" x="326.730529" xlink:href="#ma788ea16b6" y="289.926411"/>
     <use style="fill:#4c72b0;fill-opacity:0.8;stroke:#4c72b0;stroke-opacity:0.8;" x="350.044375" xlink:href="#ma788ea16b6" y="268.758791"/>
    </g>
   </g>
   <g id="PolyCollection_1">
    <defs>
     <path d="M 46.964375 -334.789601 
L 46.964375 -255.886769 
L 50.025789 -254.254143 
L 53.087203 -252.682141 
L 56.148617 -250.987105 
L 59.210032 -249.353481 
L 62.271446 -247.72124 
L 65.33286 -246.088998 
L 68.394274 -244.456756 
L 71.455688 -242.824514 
L 74.517102 -241.192273 
L 77.578516 -239.560031 
L 80.639931 -237.927789 
L 83.701345 -236.295547 
L 86.762759 -234.663305 
L 89.824173 -233.031064 
L 92.885587 -231.398822 
L 95.947001 -229.76658 
L 99.008415 -228.134338 
L 102.06983 -226.502097 
L 105.131244 -224.871052 
L 108.192658 -223.330532 
L 111.254072 -221.903269 
L 114.315486 -220.43548 
L 117.3769 -218.340888 
L 120.438314 -216.708646 
L 123.499729 -215.07687 
L 126.561143 -213.447426 
L 129.622557 -211.894497 
L 132.683971 -210.375719 
L 135.745385 -208.848829 
L 138.806799 -207.194485 
L 141.868213 -205.285399 
L 144.929628 -203.650712 
L 147.991042 -202.018504 
L 151.052456 -200.387628 
L 154.11387 -198.756751 
L 157.175284 -197.124832 
L 160.236698 -195.491266 
L 163.298112 -193.76658 
L 166.359527 -192.07382 
L 169.420941 -190.440885 
L 172.482355 -188.809962 
L 175.543769 -187.175015 
L 178.605183 -185.542081 
L 181.666597 -183.724674 
L 184.728011 -181.781004 
L 187.789426 -179.99964 
L 190.85084 -177.801957 
L 193.912254 -175.824857 
L 196.973668 -173.844283 
L 200.035082 -171.872026 
L 203.096496 -170.060653 
L 206.15791 -168.072075 
L 209.219324 -166.105351 
L 212.280739 -164.99277 
L 215.342153 -162.616179 
L 218.403567 -160.292561 
L 221.464981 -158.379872 
L 224.526395 -156.428954 
L 227.587809 -154.290028 
L 230.649223 -152.211646 
L 233.710638 -150.477283 
L 236.772052 -148.406231 
L 239.833466 -146.205296 
L 242.89488 -144.083062 
L 245.956294 -141.916593 
L 249.017708 -139.474715 
L 252.079122 -137.124351 
L 255.140537 -134.97255 
L 258.201951 -132.668429 
L 261.263365 -130.214683 
L 264.324779 -127.798463 
L 267.386193 -125.408663 
L 270.447607 -122.919522 
L 273.509021 -120.174231 
L 276.570436 -117.626058 
L 279.63185 -115.078327 
L 282.693264 -112.527565 
L 285.754678 -109.981182 
L 288.816092 -107.498155 
L 291.877506 -104.883716 
L 294.93892 -102.386838 
L 298.000335 -99.786159 
L 301.061749 -97.330011 
L 304.123163 -94.94394 
L 307.184577 -92.511997 
L 310.245991 -89.912932 
L 313.307405 -87.394565 
L 316.368819 -84.866974 
L 319.430234 -82.313746 
L 322.491648 -79.437601 
L 325.553062 -76.846789 
L 328.614476 -74.254899 
L 331.67589 -71.710436 
L 334.737304 -69.198391 
L 337.798718 -66.648925 
L 340.860133 -63.984471 
L 343.921547 -61.365292 
L 346.982961 -58.641582 
L 350.044375 -56.03331 
L 350.044375 -101.414995 
L 350.044375 -101.414995 
L 346.982961 -102.978121 
L 343.921547 -104.83268 
L 340.860133 -106.547862 
L 337.798718 -108.252079 
L 334.737304 -110.111391 
L 331.67589 -112.040168 
L 328.614476 -113.983457 
L 325.553062 -115.909027 
L 322.491648 -117.819264 
L 319.430234 -119.745062 
L 316.368819 -121.709706 
L 313.307405 -123.737263 
L 310.245991 -125.81297 
L 307.184577 -127.86929 
L 304.123163 -129.80294 
L 301.061749 -131.963062 
L 298.000335 -134.20748 
L 294.93892 -136.25923 
L 291.877506 -138.345177 
L 288.816092 -140.474163 
L 285.754678 -142.46833 
L 282.693264 -144.565311 
L 279.63185 -146.805696 
L 276.570436 -149.145737 
L 273.509021 -151.291841 
L 270.447607 -153.575409 
L 267.386193 -155.912327 
L 264.324779 -158.205543 
L 261.263365 -160.574294 
L 258.201951 -162.908585 
L 255.140537 -165.277555 
L 252.079122 -167.646428 
L 249.017708 -170.014617 
L 245.956294 -172.383586 
L 242.89488 -174.737629 
L 239.833466 -177.091511 
L 236.772052 -179.406205 
L 233.710638 -181.739952 
L 230.649223 -184.060296 
L 227.587809 -186.453165 
L 224.526395 -188.858822 
L 221.464981 -191.196643 
L 218.403567 -193.600057 
L 215.342153 -195.941677 
L 212.280739 -198.283297 
L 209.219324 -200.804991 
L 206.15791 -203.207711 
L 203.096496 -205.587281 
L 200.035082 -207.949384 
L 196.973668 -210.313727 
L 193.912254 -212.656684 
L 190.85084 -215.016259 
L 187.789426 -217.420307 
L 184.728011 -219.802125 
L 181.666597 -222.353577 
L 178.605183 -224.822253 
L 175.543769 -227.257294 
L 172.482355 -229.600954 
L 169.420941 -231.984206 
L 166.359527 -234.580474 
L 163.298112 -237.006688 
L 160.236698 -239.408841 
L 157.175284 -241.818346 
L 154.11387 -244.235921 
L 151.052456 -246.756875 
L 147.991042 -249.238142 
L 144.929628 -251.800227 
L 141.868213 -254.355757 
L 138.806799 -256.845316 
L 135.745385 -259.352381 
L 132.683971 -261.70129 
L 129.622557 -264.411407 
L 126.561143 -266.956788 
L 123.499729 -269.488662 
L 120.438314 -272.097082 
L 117.3769 -274.618177 
L 114.315486 -277.139272 
L 111.254072 -279.657771 
L 108.192658 -282.33803 
L 105.131244 -285.073956 
L 102.06983 -287.617245 
L 99.008415 -290.339879 
L 95.947001 -292.864782 
L 92.885587 -295.459234 
L 89.824173 -297.856113 
L 86.762759 -300.351416 
L 83.701345 -303.052371 
L 80.639931 -305.758136 
L 77.578516 -308.461537 
L 74.517102 -311.005265 
L 71.455688 -313.668591 
L 68.394274 -316.276883 
L 65.33286 -318.973773 
L 62.271446 -321.441017 
L 59.210032 -324.105433 
L 56.148617 -326.768135 
L 53.087203 -329.462198 
L 50.025789 -332.11255 
L 46.964375 -334.789601 
z
" id="mf2f935211e" style="stroke:#ffffff;stroke-opacity:0.15;"/>
    </defs>
    <g clip-path="url(#p5185e64621)">
     <use style="fill:#4c72b0;fill-opacity:0.15;stroke:#ffffff;stroke-opacity:0.15;" x="0" xlink:href="#mf2f935211e" y="363.514219"/>
    </g>
   </g>
   <g id="line2d_13">
    <path clip-path="url(#p5185e64621)" d="M 46.964375 54.968074 
L 50.025789 57.274977 
L 53.087203 59.58188 
L 56.148617 61.888782 
L 59.210032 64.195685 
L 62.271446 66.502588 
L 65.33286 68.809491 
L 68.394274 71.116394 
L 71.455688 73.423296 
L 74.517102 75.730199 
L 77.578516 78.037102 
L 80.639931 80.344005 
L 83.701345 82.650908 
L 86.762759 84.95781 
L 89.824173 87.264713 
L 92.885587 89.571616 
L 95.947001 91.878519 
L 99.008415 94.185422 
L 102.06983 96.492325 
L 105.131244 98.799227 
L 108.192658 101.10613 
L 111.254072 103.413033 
L 114.315486 105.719936 
L 117.3769 108.026839 
L 120.438314 110.333741 
L 123.499729 112.640644 
L 126.561143 114.947547 
L 129.622557 117.25445 
L 132.683971 119.561353 
L 135.745385 121.868255 
L 138.806799 124.175158 
L 141.868213 126.482061 
L 144.929628 128.788964 
L 147.991042 131.095867 
L 151.052456 133.402769 
L 154.11387 135.709672 
L 157.175284 138.016575 
L 160.236698 140.323478 
L 163.298112 142.630381 
L 166.359527 144.937284 
L 169.420941 147.244186 
L 172.482355 149.551089 
L 175.543769 151.857992 
L 178.605183 154.164895 
L 181.666597 156.471798 
L 184.728011 158.7787 
L 187.789426 161.085603 
L 190.85084 163.392506 
L 193.912254 165.699409 
L 196.973668 168.006312 
L 200.035082 170.313214 
L 203.096496 172.620117 
L 206.15791 174.92702 
L 209.219324 177.233923 
L 212.280739 179.540826 
L 215.342153 181.847729 
L 218.403567 184.154631 
L 221.464981 186.461534 
L 224.526395 188.768437 
L 227.587809 191.07534 
L 230.649223 193.382243 
L 233.710638 195.689145 
L 236.772052 197.996048 
L 239.833466 200.302951 
L 242.89488 202.609854 
L 245.956294 204.916757 
L 249.017708 207.223659 
L 252.079122 209.530562 
L 255.140537 211.837465 
L 258.201951 214.144368 
L 261.263365 216.451271 
L 264.324779 218.758174 
L 267.386193 221.065076 
L 270.447607 223.371979 
L 273.509021 225.678882 
L 276.570436 227.985785 
L 279.63185 230.292688 
L 282.693264 232.59959 
L 285.754678 234.906493 
L 288.816092 237.213396 
L 291.877506 239.520299 
L 294.93892 241.827202 
L 298.000335 244.134104 
L 301.061749 246.441007 
L 304.123163 248.74791 
L 307.184577 251.054813 
L 310.245991 253.361716 
L 313.307405 255.668618 
L 316.368819 257.975521 
L 319.430234 260.282424 
L 322.491648 262.589327 
L 325.553062 264.89623 
L 328.614476 267.203133 
L 331.67589 269.510035 
L 334.737304 271.816938 
L 337.798718 274.123841 
L 340.860133 276.430744 
L 343.921547 278.737647 
L 346.982961 281.044549 
L 350.044375 283.351452 
" style="fill:none;stroke:#4c72b0;stroke-linecap:round;stroke-width:2.25;"/>
   </g>
   <g id="patch_3">
    <path d="M 46.964375 321.78 
L 46.964375 7.2 
" style="fill:none;stroke:#262626;stroke-linecap:square;stroke-linejoin:miter;stroke-width:1.25;"/>
   </g>
   <g id="patch_4">
    <path d="M 46.964375 321.78 
L 350.044375 321.78 
" style="fill:none;stroke:#262626;stroke-linecap:square;stroke-linejoin:miter;stroke-width:1.25;"/>
   </g>
  </g>
 </g>
 <defs>
  <clipPath id="p5185e64621">
   <rect height="314.58" width="303.08" x="46.964375" y="7.2"/>
  </clipPath>
 </defs>
</svg>
