<?xml version="1.0" encoding="utf-8" standalone="no"?>
<!DOCTYPE svg PUBLIC "-//W3C//DTD SVG 1.1//EN"
  "http://www.w3.org/Graphics/SVG/1.1/DTD/svg11.dtd">
<!-- Created with matplotlib (https://matplotlib.org/) -->
<svg height="363.514219pt" version="1.1" viewBox="0 0 420.026655 363.514219" width="420.026655pt" xmlns="http://www.w3.org/2000/svg" xmlns:xlink="http://www.w3.org/1999/xlink">
 <metadata>
  <rdf:RDF xmlns:cc="http://creativecommons.org/ns#" xmlns:dc="http://purl.org/dc/elements/1.1/" xmlns:rdf="http://www.w3.org/1999/02/22-rdf-syntax-ns#">
   <cc:Work>
    <dc:type rdf:resource="http://purl.org/dc/dcmitype/StillImage"/>
    <dc:date>2021-03-08T09:36:18.423366</dc:date>
    <dc:format>image/svg+xml</dc:format>
    <dc:creator>
     <cc:Agent>
      <dc:title>Matplotlib v3.3.2, https://matplotlib.org/</dc:title>
     </cc:Agent>
    </dc:creator>
   </cc:Work>
  </rdf:RDF>
 </metadata>
 <defs>
  <style type="text/css">*{stroke-linecap:butt;stroke-linejoin:round;}</style>
 </defs>
 <g id="figure_1">
  <g id="patch_1">
   <path d="M -0 363.514219 
L 420.026655 363.514219 
L 420.026655 0 
L -0 0 
z
" style="fill:#ffffff;"/>
  </g>
  <g id="axes_1">
   <g id="patch_2">
    <path d="M 46.964375 321.78 
L 359.201905 321.78 
L 359.201905 7.2 
L 46.964375 7.2 
z
" style="fill:#ffffff;"/>
   </g>
   <g id="matplotlib.axis_1">
    <g id="xtick_1">
     <g id="line2d_1">
      <defs>
       <path d="M 0 0 
L 0 6 
" id="m68e7cbbd3c" style="stroke:#262626;stroke-width:1.25;"/>
      </defs>
      <g>
       <use style="fill:#262626;stroke:#262626;stroke-width:1.25;" x="70.982647" xlink:href="#m68e7cbbd3c" y="321.78"/>
      </g>
     </g>
     <g id="text_1">
      <!-- 2 -->
      <g style="fill:#262626;" transform="translate(67.924131 339.153594)scale(0.11 -0.11)">
       <defs>
        <path d="M 50.34375 8.453125 
L 50.34375 0 
L 3.03125 0 
Q 2.9375 3.171875 4.046875 6.109375 
Q 5.859375 10.9375 9.828125 15.625 
Q 13.8125 20.3125 21.34375 26.46875 
Q 33.015625 36.03125 37.109375 41.625 
Q 41.21875 47.21875 41.21875 52.203125 
Q 41.21875 57.421875 37.46875 61 
Q 33.734375 64.59375 27.734375 64.59375 
Q 21.390625 64.59375 17.578125 60.78125 
Q 13.765625 56.984375 13.71875 50.25 
L 4.6875 51.171875 
Q 5.609375 61.28125 11.65625 66.578125 
Q 17.71875 71.875 27.9375 71.875 
Q 38.234375 71.875 44.234375 66.15625 
Q 50.25 60.453125 50.25 52 
Q 50.25 47.703125 48.484375 43.546875 
Q 46.734375 39.40625 42.65625 34.8125 
Q 38.578125 30.21875 29.109375 22.21875 
Q 21.1875 15.578125 18.9375 13.203125 
Q 16.703125 10.84375 15.234375 8.453125 
z
" id="ArialMT-50"/>
       </defs>
       <use xlink:href="#ArialMT-50"/>
      </g>
     </g>
    </g>
    <g id="xtick_2">
     <g id="line2d_2">
      <g>
       <use style="fill:#262626;stroke:#262626;stroke-width:1.25;" x="119.01919" xlink:href="#m68e7cbbd3c" y="321.78"/>
      </g>
     </g>
     <g id="text_2">
      <!-- 4 -->
      <g style="fill:#262626;" transform="translate(115.960674 339.153594)scale(0.11 -0.11)">
       <defs>
        <path d="M 32.328125 0 
L 32.328125 17.140625 
L 1.265625 17.140625 
L 1.265625 25.203125 
L 33.9375 71.578125 
L 41.109375 71.578125 
L 41.109375 25.203125 
L 50.78125 25.203125 
L 50.78125 17.140625 
L 41.109375 17.140625 
L 41.109375 0 
z
M 32.328125 25.203125 
L 32.328125 57.46875 
L 9.90625 25.203125 
z
" id="ArialMT-52"/>
       </defs>
       <use xlink:href="#ArialMT-52"/>
      </g>
     </g>
    </g>
    <g id="xtick_3">
     <g id="line2d_3">
      <g>
       <use style="fill:#262626;stroke:#262626;stroke-width:1.25;" x="167.055733" xlink:href="#m68e7cbbd3c" y="321.78"/>
      </g>
     </g>
     <g id="text_3">
      <!-- 6 -->
      <g style="fill:#262626;" transform="translate(163.997217 339.153594)scale(0.11 -0.11)">
       <defs>
        <path d="M 49.75 54.046875 
L 41.015625 53.375 
Q 39.84375 58.546875 37.703125 60.890625 
Q 34.125 64.65625 28.90625 64.65625 
Q 24.703125 64.65625 21.53125 62.3125 
Q 17.390625 59.28125 14.984375 53.46875 
Q 12.59375 47.65625 12.5 36.921875 
Q 15.671875 41.75 20.265625 44.09375 
Q 24.859375 46.4375 29.890625 46.4375 
Q 38.671875 46.4375 44.84375 39.96875 
Q 51.03125 33.5 51.03125 23.25 
Q 51.03125 16.5 48.125 10.71875 
Q 45.21875 4.9375 40.140625 1.859375 
Q 35.0625 -1.21875 28.609375 -1.21875 
Q 17.625 -1.21875 10.6875 6.859375 
Q 3.765625 14.9375 3.765625 33.5 
Q 3.765625 54.25 11.421875 63.671875 
Q 18.109375 71.875 29.4375 71.875 
Q 37.890625 71.875 43.28125 67.140625 
Q 48.6875 62.40625 49.75 54.046875 
z
M 13.875 23.1875 
Q 13.875 18.65625 15.796875 14.5 
Q 17.71875 10.359375 21.1875 8.171875 
Q 24.65625 6 28.46875 6 
Q 34.03125 6 38.03125 10.484375 
Q 42.046875 14.984375 42.046875 22.703125 
Q 42.046875 30.125 38.078125 34.390625 
Q 34.125 38.671875 28.125 38.671875 
Q 22.171875 38.671875 18.015625 34.390625 
Q 13.875 30.125 13.875 23.1875 
z
" id="ArialMT-54"/>
       </defs>
       <use xlink:href="#ArialMT-54"/>
      </g>
     </g>
    </g>
    <g id="xtick_4">
     <g id="line2d_4">
      <g>
       <use style="fill:#262626;stroke:#262626;stroke-width:1.25;" x="215.092276" xlink:href="#m68e7cbbd3c" y="321.78"/>
      </g>
     </g>
     <g id="text_4">
      <!-- 8 -->
      <g style="fill:#262626;" transform="translate(212.03376 339.153594)scale(0.11 -0.11)">
       <defs>
        <path d="M 17.671875 38.8125 
Q 12.203125 40.828125 9.5625 44.53125 
Q 6.9375 48.25 6.9375 53.421875 
Q 6.9375 61.234375 12.546875 66.546875 
Q 18.171875 71.875 27.484375 71.875 
Q 36.859375 71.875 42.578125 66.421875 
Q 48.296875 60.984375 48.296875 53.171875 
Q 48.296875 48.1875 45.671875 44.5 
Q 43.0625 40.828125 37.75 38.8125 
Q 44.34375 36.671875 47.78125 31.875 
Q 51.21875 27.09375 51.21875 20.453125 
Q 51.21875 11.28125 44.71875 5.03125 
Q 38.234375 -1.21875 27.640625 -1.21875 
Q 17.046875 -1.21875 10.546875 5.046875 
Q 4.046875 11.328125 4.046875 20.703125 
Q 4.046875 27.6875 7.59375 32.390625 
Q 11.140625 37.109375 17.671875 38.8125 
z
M 15.921875 53.71875 
Q 15.921875 48.640625 19.1875 45.40625 
Q 22.46875 42.1875 27.6875 42.1875 
Q 32.765625 42.1875 36.015625 45.375 
Q 39.265625 48.578125 39.265625 53.21875 
Q 39.265625 58.0625 35.90625 61.359375 
Q 32.5625 64.65625 27.59375 64.65625 
Q 22.5625 64.65625 19.234375 61.421875 
Q 15.921875 58.203125 15.921875 53.71875 
z
M 13.09375 20.65625 
Q 13.09375 16.890625 14.875 13.375 
Q 16.65625 9.859375 20.171875 7.921875 
Q 23.6875 6 27.734375 6 
Q 34.03125 6 38.125 10.046875 
Q 42.234375 14.109375 42.234375 20.359375 
Q 42.234375 26.703125 38.015625 30.859375 
Q 33.796875 35.015625 27.4375 35.015625 
Q 21.234375 35.015625 17.15625 30.90625 
Q 13.09375 26.8125 13.09375 20.65625 
z
" id="ArialMT-56"/>
       </defs>
       <use xlink:href="#ArialMT-56"/>
      </g>
     </g>
    </g>
    <g id="xtick_5">
     <g id="line2d_5">
      <g>
       <use style="fill:#262626;stroke:#262626;stroke-width:1.25;" x="263.128819" xlink:href="#m68e7cbbd3c" y="321.78"/>
      </g>
     </g>
     <g id="text_5">
      <!-- 10 -->
      <g style="fill:#262626;" transform="translate(257.011788 339.153594)scale(0.11 -0.11)">
       <defs>
        <path d="M 37.25 0 
L 28.46875 0 
L 28.46875 56 
Q 25.296875 52.984375 20.140625 49.953125 
Q 14.984375 46.921875 10.890625 45.40625 
L 10.890625 53.90625 
Q 18.265625 57.375 23.78125 62.296875 
Q 29.296875 67.234375 31.59375 71.875 
L 37.25 71.875 
z
" id="ArialMT-49"/>
        <path d="M 4.15625 35.296875 
Q 4.15625 48 6.765625 55.734375 
Q 9.375 63.484375 14.515625 67.671875 
Q 19.671875 71.875 27.484375 71.875 
Q 33.25 71.875 37.59375 69.546875 
Q 41.9375 67.234375 44.765625 62.859375 
Q 47.609375 58.5 49.21875 52.21875 
Q 50.828125 45.953125 50.828125 35.296875 
Q 50.828125 22.703125 48.234375 14.96875 
Q 45.65625 7.234375 40.5 3 
Q 35.359375 -1.21875 27.484375 -1.21875 
Q 17.140625 -1.21875 11.234375 6.203125 
Q 4.15625 15.140625 4.15625 35.296875 
z
M 13.1875 35.296875 
Q 13.1875 17.671875 17.3125 11.828125 
Q 21.4375 6 27.484375 6 
Q 33.546875 6 37.671875 11.859375 
Q 41.796875 17.71875 41.796875 35.296875 
Q 41.796875 52.984375 37.671875 58.78125 
Q 33.546875 64.59375 27.390625 64.59375 
Q 21.34375 64.59375 17.71875 59.46875 
Q 13.1875 52.9375 13.1875 35.296875 
z
" id="ArialMT-48"/>
       </defs>
       <use xlink:href="#ArialMT-49"/>
       <use x="55.615234" xlink:href="#ArialMT-48"/>
      </g>
     </g>
    </g>
    <g id="xtick_6">
     <g id="line2d_6">
      <g>
       <use style="fill:#262626;stroke:#262626;stroke-width:1.25;" x="311.165362" xlink:href="#m68e7cbbd3c" y="321.78"/>
      </g>
     </g>
     <g id="text_6">
      <!-- 12 -->
      <g style="fill:#262626;" transform="translate(305.048331 339.153594)scale(0.11 -0.11)">
       <use xlink:href="#ArialMT-49"/>
       <use x="55.615234" xlink:href="#ArialMT-50"/>
      </g>
     </g>
    </g>
    <g id="xtick_7">
     <g id="line2d_7">
      <g>
       <use style="fill:#262626;stroke:#262626;stroke-width:1.25;" x="359.201905" xlink:href="#m68e7cbbd3c" y="321.78"/>
      </g>
     </g>
     <g id="text_7">
      <!-- 14 -->
      <g style="fill:#262626;" transform="translate(353.084874 339.153594)scale(0.11 -0.11)">
       <use xlink:href="#ArialMT-49"/>
       <use x="55.615234" xlink:href="#ArialMT-52"/>
      </g>
     </g>
    </g>
    <g id="text_8">
     <!-- a7a -->
     <g style="fill:#262626;" transform="translate(193.073453 353.929219)scale(0.12 -0.12)">
      <defs>
       <path d="M 40.4375 6.390625 
Q 35.546875 2.25 31.03125 0.53125 
Q 26.515625 -1.171875 21.34375 -1.171875 
Q 12.796875 -1.171875 8.203125 3 
Q 3.609375 7.171875 3.609375 13.671875 
Q 3.609375 17.484375 5.34375 20.625 
Q 7.078125 23.78125 9.890625 25.6875 
Q 12.703125 27.59375 16.21875 28.5625 
Q 18.796875 29.25 24.03125 29.890625 
Q 34.671875 31.15625 39.703125 32.90625 
Q 39.75 34.71875 39.75 35.203125 
Q 39.75 40.578125 37.25 42.78125 
Q 33.890625 45.75 27.25 45.75 
Q 21.046875 45.75 18.09375 43.578125 
Q 15.140625 41.40625 13.71875 35.890625 
L 5.125 37.0625 
Q 6.296875 42.578125 8.984375 45.96875 
Q 11.671875 49.359375 16.75 51.1875 
Q 21.828125 53.03125 28.515625 53.03125 
Q 35.15625 53.03125 39.296875 51.46875 
Q 43.453125 49.90625 45.40625 47.53125 
Q 47.359375 45.171875 48.140625 41.546875 
Q 48.578125 39.3125 48.578125 33.453125 
L 48.578125 21.734375 
Q 48.578125 9.46875 49.140625 6.21875 
Q 49.703125 2.984375 51.375 0 
L 42.1875 0 
Q 40.828125 2.734375 40.4375 6.390625 
z
M 39.703125 26.03125 
Q 34.90625 24.078125 25.34375 22.703125 
Q 19.921875 21.921875 17.671875 20.9375 
Q 15.4375 19.96875 14.203125 18.09375 
Q 12.984375 16.21875 12.984375 13.921875 
Q 12.984375 10.40625 15.640625 8.0625 
Q 18.3125 5.71875 23.4375 5.71875 
Q 28.515625 5.71875 32.46875 7.9375 
Q 36.421875 10.15625 38.28125 14.015625 
Q 39.703125 17 39.703125 22.796875 
z
" id="ArialMT-97"/>
       <path d="M 4.734375 62.203125 
L 4.734375 70.65625 
L 51.078125 70.65625 
L 51.078125 63.8125 
Q 44.234375 56.546875 37.515625 44.484375 
Q 30.8125 32.421875 27.15625 19.671875 
Q 24.515625 10.6875 23.78125 0 
L 14.75 0 
Q 14.890625 8.453125 18.0625 20.40625 
Q 21.234375 32.375 27.171875 43.484375 
Q 33.109375 54.59375 39.796875 62.203125 
z
" id="ArialMT-55"/>
      </defs>
      <use xlink:href="#ArialMT-97"/>
      <use x="55.615234" xlink:href="#ArialMT-55"/>
      <use x="111.230469" xlink:href="#ArialMT-97"/>
     </g>
    </g>
   </g>
   <g id="matplotlib.axis_2">
    <g id="ytick_1">
     <g id="line2d_8">
      <defs>
       <path d="M 0 0 
L -6 0 
" id="mbc23c2930a" style="stroke:#262626;stroke-width:1.25;"/>
      </defs>
      <g>
       <use style="fill:#262626;stroke:#262626;stroke-width:1.25;" x="46.964375" xlink:href="#mbc23c2930a" y="307.480909"/>
      </g>
     </g>
     <g id="text_9">
      <!-- 1.0 -->
      <g style="fill:#262626;" transform="translate(22.174375 311.417706)scale(0.11 -0.11)">
       <defs>
        <path d="M 9.078125 0 
L 9.078125 10.015625 
L 19.09375 10.015625 
L 19.09375 0 
z
" id="ArialMT-46"/>
       </defs>
       <use xlink:href="#ArialMT-49"/>
       <use x="55.615234" xlink:href="#ArialMT-46"/>
       <use x="83.398438" xlink:href="#ArialMT-48"/>
      </g>
     </g>
    </g>
    <g id="ytick_2">
     <g id="line2d_9">
      <g>
       <use style="fill:#262626;stroke:#262626;stroke-width:1.25;" x="46.964375" xlink:href="#mbc23c2930a" y="259.817273"/>
      </g>
     </g>
     <g id="text_10">
      <!-- 1.5 -->
      <g style="fill:#262626;" transform="translate(22.174375 263.75407)scale(0.11 -0.11)">
       <defs>
        <path d="M 4.15625 18.75 
L 13.375 19.53125 
Q 14.40625 12.796875 18.140625 9.390625 
Q 21.875 6 27.15625 6 
Q 33.5 6 37.890625 10.78125 
Q 42.28125 15.578125 42.28125 23.484375 
Q 42.28125 31 38.0625 35.34375 
Q 33.84375 39.703125 27 39.703125 
Q 22.75 39.703125 19.328125 37.765625 
Q 15.921875 35.84375 13.96875 32.765625 
L 5.71875 33.84375 
L 12.640625 70.609375 
L 48.25 70.609375 
L 48.25 62.203125 
L 19.671875 62.203125 
L 15.828125 42.96875 
Q 22.265625 47.46875 29.34375 47.46875 
Q 38.71875 47.46875 45.15625 40.96875 
Q 51.609375 34.46875 51.609375 24.265625 
Q 51.609375 14.546875 45.953125 7.46875 
Q 39.0625 -1.21875 27.15625 -1.21875 
Q 17.390625 -1.21875 11.203125 4.25 
Q 5.03125 9.71875 4.15625 18.75 
z
" id="ArialMT-53"/>
       </defs>
       <use xlink:href="#ArialMT-49"/>
       <use x="55.615234" xlink:href="#ArialMT-46"/>
       <use x="83.398438" xlink:href="#ArialMT-53"/>
      </g>
     </g>
    </g>
    <g id="ytick_3">
     <g id="line2d_10">
      <g>
       <use style="fill:#262626;stroke:#262626;stroke-width:1.25;" x="46.964375" xlink:href="#mbc23c2930a" y="212.153636"/>
      </g>
     </g>
     <g id="text_11">
      <!-- 2.0 -->
      <g style="fill:#262626;" transform="translate(22.174375 216.090433)scale(0.11 -0.11)">
       <use xlink:href="#ArialMT-50"/>
       <use x="55.615234" xlink:href="#ArialMT-46"/>
       <use x="83.398438" xlink:href="#ArialMT-48"/>
      </g>
     </g>
    </g>
    <g id="ytick_4">
     <g id="line2d_11">
      <g>
       <use style="fill:#262626;stroke:#262626;stroke-width:1.25;" x="46.964375" xlink:href="#mbc23c2930a" y="164.49"/>
      </g>
     </g>
     <g id="text_12">
      <!-- 2.5 -->
      <g style="fill:#262626;" transform="translate(22.174375 168.426797)scale(0.11 -0.11)">
       <use xlink:href="#ArialMT-50"/>
       <use x="55.615234" xlink:href="#ArialMT-46"/>
       <use x="83.398438" xlink:href="#ArialMT-53"/>
      </g>
     </g>
    </g>
    <g id="ytick_5">
     <g id="line2d_12">
      <g>
       <use style="fill:#262626;stroke:#262626;stroke-width:1.25;" x="46.964375" xlink:href="#mbc23c2930a" y="116.826364"/>
      </g>
     </g>
     <g id="text_13">
      <!-- 3.0 -->
      <g style="fill:#262626;" transform="translate(22.174375 120.763161)scale(0.11 -0.11)">
       <defs>
        <path d="M 4.203125 18.890625 
L 12.984375 20.0625 
Q 14.5 12.59375 18.140625 9.296875 
Q 21.78125 6 27 6 
Q 33.203125 6 37.46875 10.296875 
Q 41.75 14.59375 41.75 20.953125 
Q 41.75 27 37.796875 30.921875 
Q 33.84375 34.859375 27.734375 34.859375 
Q 25.25 34.859375 21.53125 33.890625 
L 22.515625 41.609375 
Q 23.390625 41.5 23.921875 41.5 
Q 29.546875 41.5 34.03125 44.421875 
Q 38.53125 47.359375 38.53125 53.46875 
Q 38.53125 58.296875 35.25 61.46875 
Q 31.984375 64.65625 26.8125 64.65625 
Q 21.6875 64.65625 18.265625 61.421875 
Q 14.84375 58.203125 13.875 51.765625 
L 5.078125 53.328125 
Q 6.6875 62.15625 12.390625 67.015625 
Q 18.109375 71.875 26.609375 71.875 
Q 32.46875 71.875 37.390625 69.359375 
Q 42.328125 66.84375 44.9375 62.5 
Q 47.5625 58.15625 47.5625 53.265625 
Q 47.5625 48.640625 45.0625 44.828125 
Q 42.578125 41.015625 37.703125 38.765625 
Q 44.046875 37.3125 47.5625 32.6875 
Q 51.078125 28.078125 51.078125 21.140625 
Q 51.078125 11.765625 44.234375 5.25 
Q 37.40625 -1.265625 26.953125 -1.265625 
Q 17.53125 -1.265625 11.296875 4.34375 
Q 5.078125 9.96875 4.203125 18.890625 
z
" id="ArialMT-51"/>
       </defs>
       <use xlink:href="#ArialMT-51"/>
       <use x="55.615234" xlink:href="#ArialMT-46"/>
       <use x="83.398438" xlink:href="#ArialMT-48"/>
      </g>
     </g>
    </g>
    <g id="ytick_6">
     <g id="line2d_13">
      <g>
       <use style="fill:#262626;stroke:#262626;stroke-width:1.25;" x="46.964375" xlink:href="#mbc23c2930a" y="69.162727"/>
      </g>
     </g>
     <g id="text_14">
      <!-- 3.5 -->
      <g style="fill:#262626;" transform="translate(22.174375 73.099524)scale(0.11 -0.11)">
       <use xlink:href="#ArialMT-51"/>
       <use x="55.615234" xlink:href="#ArialMT-46"/>
       <use x="83.398438" xlink:href="#ArialMT-53"/>
      </g>
     </g>
    </g>
    <g id="ytick_7">
     <g id="line2d_14">
      <g>
       <use style="fill:#262626;stroke:#262626;stroke-width:1.25;" x="46.964375" xlink:href="#mbc23c2930a" y="21.499091"/>
      </g>
     </g>
     <g id="text_15">
      <!-- 4.0 -->
      <g style="fill:#262626;" transform="translate(22.174375 25.435888)scale(0.11 -0.11)">
       <use xlink:href="#ArialMT-52"/>
       <use x="55.615234" xlink:href="#ArialMT-46"/>
       <use x="83.398438" xlink:href="#ArialMT-48"/>
      </g>
     </g>
    </g>
    <g id="text_16">
     <!-- l14d -->
     <g style="fill:#262626;" transform="translate(15.789375 175.832812)rotate(-90)scale(0.12 -0.12)">
      <defs>
       <path d="M 6.390625 0 
L 6.390625 71.578125 
L 15.1875 71.578125 
L 15.1875 0 
z
" id="ArialMT-108"/>
       <path d="M 40.234375 0 
L 40.234375 6.546875 
Q 35.296875 -1.171875 25.734375 -1.171875 
Q 19.53125 -1.171875 14.328125 2.25 
Q 9.125 5.671875 6.265625 11.796875 
Q 3.421875 17.921875 3.421875 25.875 
Q 3.421875 33.640625 6 39.96875 
Q 8.59375 46.296875 13.765625 49.65625 
Q 18.953125 53.03125 25.34375 53.03125 
Q 30.03125 53.03125 33.6875 51.046875 
Q 37.359375 49.078125 39.65625 45.90625 
L 39.65625 71.578125 
L 48.390625 71.578125 
L 48.390625 0 
z
M 12.453125 25.875 
Q 12.453125 15.921875 16.640625 10.984375 
Q 20.84375 6.0625 26.5625 6.0625 
Q 32.328125 6.0625 36.34375 10.765625 
Q 40.375 15.484375 40.375 25.140625 
Q 40.375 35.796875 36.265625 40.765625 
Q 32.171875 45.75 26.171875 45.75 
Q 20.3125 45.75 16.375 40.96875 
Q 12.453125 36.1875 12.453125 25.875 
z
" id="ArialMT-100"/>
      </defs>
      <use xlink:href="#ArialMT-108"/>
      <use x="22.216797" xlink:href="#ArialMT-49"/>
      <use x="77.832031" xlink:href="#ArialMT-52"/>
      <use x="133.447266" xlink:href="#ArialMT-100"/>
     </g>
    </g>
   </g>
   <g id="PathCollection_1">
    <defs>
     <path d="M 0 3.535534 
C 0.937635 3.535534 1.836992 3.163008 2.5 2.5 
C 3.163008 1.836992 3.535534 0.937635 3.535534 0 
C 3.535534 -0.937635 3.163008 -1.836992 2.5 -2.5 
C 1.836992 -3.163008 0.937635 -3.535534 0 -3.535534 
C -0.937635 -3.535534 -1.836992 -3.163008 -2.5 -2.5 
C -3.163008 -1.836992 -3.535534 -0.937635 -3.535534 0 
C -3.535534 0.937635 -3.163008 1.836992 -2.5 2.5 
C -1.836992 3.163008 -0.937635 3.535534 0 3.535534 
z
" id="ma6beef7121" style="stroke:#4c72b0;"/>
    </defs>
    <g clip-path="url(#p9d3f16b61c)">
     <use style="fill:#4c72b0;stroke:#4c72b0;" x="46.964375" xlink:href="#ma6beef7121" y="146.590997"/>
     <use style="fill:#4c72b0;stroke:#4c72b0;" x="70.982647" xlink:href="#ma6beef7121" y="159.19404"/>
     <use style="fill:#4c72b0;stroke:#4c72b0;" x="95.000918" xlink:href="#ma6beef7121" y="156.315498"/>
     <use style="fill:#4c72b0;stroke:#4c72b0;" x="119.01919" xlink:href="#ma6beef7121" y="167.653967"/>
     <use style="fill:#4c72b0;stroke:#4c72b0;" x="143.037461" xlink:href="#ma6beef7121" y="186.155289"/>
     <use style="fill:#4c72b0;stroke:#4c72b0;" x="167.055733" xlink:href="#ma6beef7121" y="168.228324"/>
     <use style="fill:#4c72b0;stroke:#4c72b0;" x="191.074004" xlink:href="#ma6beef7121" y="154.957273"/>
     <use style="fill:#4c72b0;stroke:#4c72b0;" x="215.092276" xlink:href="#ma6beef7121" y="164.49"/>
     <use style="fill:#4c72b0;stroke:#4c72b0;" x="239.110547" xlink:href="#ma6beef7121" y="190.969798"/>
     <use style="fill:#4c72b0;stroke:#4c72b0;" x="263.128819" xlink:href="#ma6beef7121" y="235.985455"/>
     <use style="fill:#4c72b0;stroke:#4c72b0;" x="287.147091" xlink:href="#ma6beef7121" y="212.153636"/>
     <use style="fill:#4c72b0;stroke:#4c72b0;" x="311.165362" xlink:href="#ma6beef7121" y="212.153636"/>
     <use style="fill:#4c72b0;stroke:#4c72b0;" x="359.201905" xlink:href="#ma6beef7121" y="212.153636"/>
    </g>
   </g>
   <g id="PolyCollection_1">
    <defs>
     <path d="M 46.964375 -224.498678 
L 46.964375 -208.770417 
L 50.118289 -208.361184 
L 53.272204 -207.86978 
L 56.426118 -207.353351 
L 59.580033 -206.759402 
L 62.733947 -206.196125 
L 65.887862 -205.631724 
L 69.041776 -205.073973 
L 72.195691 -204.505239 
L 75.349605 -203.975345 
L 78.503519 -203.426662 
L 81.657434 -202.838131 
L 84.811348 -202.250528 
L 87.965263 -201.647889 
L 91.119177 -201.035952 
L 94.273092 -200.406981 
L 97.427006 -199.782044 
L 100.580921 -199.081328 
L 103.734835 -198.443036 
L 106.888749 -197.747373 
L 110.042664 -197.063389 
L 113.196578 -196.265405 
L 116.350493 -195.403263 
L 119.504407 -194.678569 
L 122.658322 -193.949479 
L 125.812236 -193.057667 
L 128.966151 -192.175638 
L 132.120065 -191.20148 
L 135.27398 -190.274774 
L 138.427894 -189.402104 
L 141.581808 -188.589977 
L 144.735723 -187.513844 
L 147.889637 -186.566563 
L 151.043552 -185.5291 
L 154.197466 -184.516064 
L 157.351381 -183.487556 
L 160.505295 -182.574327 
L 163.65921 -181.658503 
L 166.813124 -180.712325 
L 169.967038 -179.795975 
L 173.120953 -178.850591 
L 176.274867 -177.920775 
L 179.428782 -176.815993 
L 182.582696 -175.669712 
L 185.736611 -174.52343 
L 188.890525 -173.536285 
L 192.04444 -172.480561 
L 195.198354 -171.474231 
L 198.352268 -170.527416 
L 201.506183 -169.55076 
L 204.660097 -168.497961 
L 207.814012 -167.460772 
L 210.967926 -166.437953 
L 214.121841 -165.369214 
L 217.275755 -164.321813 
L 220.42967 -163.277229 
L 223.583584 -162.229902 
L 226.737498 -161.215021 
L 229.891413 -160.226756 
L 233.045327 -159.275941 
L 236.199242 -158.222998 
L 239.353156 -157.170054 
L 242.507071 -156.117111 
L 245.660985 -155.064167 
L 248.8149 -154.011224 
L 251.968814 -152.972667 
L 255.122728 -151.902189 
L 258.276643 -150.849231 
L 261.430557 -149.796273 
L 264.584472 -148.761896 
L 267.738386 -147.739754 
L 270.892301 -146.677311 
L 274.046215 -145.580117 
L 277.20013 -144.525806 
L 280.354044 -143.472232 
L 283.507958 -142.414591 
L 286.661873 -141.316966 
L 289.815787 -140.260714 
L 292.969702 -139.206533 
L 296.123616 -138.170354 
L 299.277531 -137.123066 
L 302.431445 -136.075779 
L 305.58536 -135.028491 
L 308.739274 -133.98092 
L 311.893189 -132.926021 
L 315.047103 -131.871774 
L 318.201017 -130.818483 
L 321.354932 -129.765191 
L 324.508846 -128.7119 
L 327.662761 -127.658609 
L 330.816675 -126.605317 
L 333.97059 -125.552026 
L 337.124504 -124.498734 
L 340.278419 -123.445443 
L 343.432333 -122.392152 
L 346.586247 -121.325145 
L 349.740162 -120.248789 
L 352.894076 -119.172432 
L 356.047991 -118.096076 
L 359.201905 -117.019719 
L 359.201905 -172.059531 
L 359.201905 -172.059531 
L 356.047991 -172.458715 
L 352.894076 -172.840561 
L 349.740162 -173.188856 
L 346.586247 -173.537425 
L 343.432333 -173.915333 
L 340.278419 -174.29324 
L 337.124504 -174.671147 
L 333.97059 -175.049054 
L 330.816675 -175.442944 
L 327.662761 -175.879524 
L 324.508846 -176.316103 
L 321.354932 -176.752683 
L 318.201017 -177.189262 
L 315.047103 -177.625841 
L 311.893189 -178.062421 
L 308.739274 -178.466537 
L 305.58536 -178.867985 
L 302.431445 -179.269433 
L 299.277531 -179.670282 
L 296.123616 -180.069982 
L 292.969702 -180.469681 
L 289.815787 -180.86938 
L 286.661873 -181.258909 
L 283.507958 -181.627287 
L 280.354044 -181.995666 
L 277.20013 -182.364044 
L 274.046215 -182.75793 
L 270.892301 -183.194194 
L 267.738386 -183.651281 
L 264.584472 -184.049134 
L 261.430557 -184.395091 
L 258.276643 -184.741047 
L 255.122728 -185.087004 
L 251.968814 -185.483845 
L 248.8149 -185.944345 
L 245.660985 -186.404846 
L 242.507071 -186.865347 
L 239.353156 -187.232262 
L 236.199242 -187.565476 
L 233.045327 -187.89869 
L 229.891413 -188.231904 
L 226.737498 -188.577289 
L 223.583584 -189.012532 
L 220.42967 -189.447776 
L 217.275755 -189.88302 
L 214.121841 -190.313155 
L 210.967926 -190.677108 
L 207.814012 -191.041061 
L 204.660097 -191.401768 
L 201.506183 -191.762409 
L 198.352268 -192.123996 
L 195.198354 -192.491827 
L 192.04444 -192.858497 
L 188.890525 -193.317057 
L 185.736611 -193.810474 
L 182.582696 -194.277455 
L 179.428782 -194.684828 
L 176.274867 -195.002875 
L 173.120953 -195.546061 
L 169.967038 -195.949257 
L 166.813124 -196.490737 
L 163.65921 -197.007705 
L 160.505295 -197.548927 
L 157.351381 -197.963414 
L 154.197466 -198.465522 
L 151.043552 -198.968079 
L 147.889637 -199.360552 
L 144.735723 -199.84774 
L 141.581808 -200.353455 
L 138.427894 -200.79929 
L 135.27398 -201.237597 
L 132.120065 -201.875649 
L 128.966151 -202.428843 
L 125.812236 -202.913691 
L 122.658322 -203.501707 
L 119.504407 -204.25823 
L 116.350493 -204.948711 
L 113.196578 -205.588991 
L 110.042664 -206.270878 
L 106.888749 -207.014648 
L 103.734835 -207.748263 
L 100.580921 -208.687982 
L 97.427006 -209.460554 
L 94.273092 -210.427897 
L 91.119177 -211.216691 
L 87.965263 -212.079946 
L 84.811348 -212.966777 
L 81.657434 -213.897081 
L 78.503519 -214.761899 
L 75.349605 -215.715746 
L 72.195691 -216.675248 
L 69.041776 -217.514718 
L 65.887862 -218.511627 
L 62.733947 -219.449212 
L 59.580033 -220.418992 
L 56.426118 -221.499729 
L 53.272204 -222.513234 
L 50.118289 -223.51279 
L 46.964375 -224.498678 
z
" id="mab2ad943e1" style="stroke:#ffffff;stroke-opacity:0.15;"/>
    </defs>
    <g clip-path="url(#p9d3f16b61c)">
     <use style="fill:#4c72b0;fill-opacity:0.15;stroke:#ffffff;stroke-opacity:0.15;" x="0" xlink:href="#mab2ad943e1" y="363.514219"/>
    </g>
   </g>
   <g id="PathCollection_2">
    <defs>
     <path d="M -3.535534 3.535534 
L 3.535534 -3.535534 
M -3.535534 -3.535534 
L 3.535534 3.535534 
" id="mec13de202d" style="stroke:#dd8452;stroke-width:1.5;"/>
    </defs>
    <g clip-path="url(#p9d3f16b61c)">
     <use style="fill:#dd8452;stroke:#dd8452;stroke-width:1.5;" x="46.964375" xlink:href="#mec13de202d" y="169.213423"/>
     <use style="fill:#dd8452;stroke:#dd8452;stroke-width:1.5;" x="70.982647" xlink:href="#mec13de202d" y="175.489301"/>
     <use style="fill:#dd8452;stroke:#dd8452;stroke-width:1.5;" x="95.000918" xlink:href="#mec13de202d" y="181.512727"/>
     <use style="fill:#dd8452;stroke:#dd8452;stroke-width:1.5;" x="119.01919" xlink:href="#mec13de202d" y="188.746544"/>
     <use style="fill:#dd8452;stroke:#dd8452;stroke-width:1.5;" x="143.037461" xlink:href="#mec13de202d" y="222.294836"/>
     <use style="fill:#dd8452;stroke:#dd8452;stroke-width:1.5;" x="167.055733" xlink:href="#mec13de202d" y="189.210462"/>
     <use style="fill:#dd8452;stroke:#dd8452;stroke-width:1.5;" x="191.074004" xlink:href="#mec13de202d" y="201.06907"/>
     <use style="fill:#dd8452;stroke:#dd8452;stroke-width:1.5;" x="215.092276" xlink:href="#mec13de202d" y="208.976061"/>
     <use style="fill:#dd8452;stroke:#dd8452;stroke-width:1.5;" x="239.110547" xlink:href="#mec13de202d" y="209.468361"/>
     <use style="fill:#dd8452;stroke:#dd8452;stroke-width:1.5;" x="263.128819" xlink:href="#mec13de202d" y="208.866489"/>
     <use style="fill:#dd8452;stroke:#dd8452;stroke-width:1.5;" x="287.147091" xlink:href="#mec13de202d" y="209.22049"/>
     <use style="fill:#dd8452;stroke:#dd8452;stroke-width:1.5;" x="311.165362" xlink:href="#mec13de202d" y="215.296294"/>
     <use style="fill:#dd8452;stroke:#dd8452;stroke-width:1.5;" x="335.183634" xlink:href="#mec13de202d" y="234.396667"/>
     <use style="fill:#dd8452;stroke:#dd8452;stroke-width:1.5;" x="359.201905" xlink:href="#mec13de202d" y="231.219091"/>
    </g>
   </g>
   <g id="PolyCollection_2">
    <defs>
     <path d="M 46.964375 -194.921917 
L 46.964375 -182.384375 
L 50.118289 -181.952842 
L 53.272204 -181.494068 
L 56.426118 -181.035572 
L 59.580033 -180.600385 
L 62.733947 -180.207321 
L 65.887862 -179.814257 
L 69.041776 -179.421193 
L 72.195691 -179.009179 
L 75.349605 -178.567225 
L 78.503519 -178.126288 
L 81.657434 -177.685038 
L 84.811348 -177.243567 
L 87.965263 -176.808047 
L 91.119177 -176.387321 
L 94.273092 -175.950992 
L 97.427006 -175.521646 
L 100.580921 -175.124219 
L 103.734835 -174.677744 
L 106.888749 -174.215831 
L 110.042664 -173.76183 
L 113.196578 -173.329471 
L 116.350493 -172.885352 
L 119.504407 -172.424232 
L 122.658322 -171.94867 
L 125.812236 -171.506453 
L 128.966151 -171.062956 
L 132.120065 -170.607363 
L 135.27398 -170.151771 
L 138.427894 -169.696178 
L 141.581808 -169.241101 
L 144.735723 -168.77518 
L 147.889637 -168.308747 
L 151.043552 -167.795746 
L 154.197466 -167.23703 
L 157.351381 -166.78643 
L 160.505295 -166.278436 
L 163.65921 -165.805289 
L 166.813124 -165.342648 
L 169.967038 -164.851993 
L 173.120953 -164.383057 
L 176.274867 -163.915603 
L 179.428782 -163.388501 
L 182.582696 -162.858689 
L 185.736611 -162.270625 
L 188.890525 -161.68203 
L 192.04444 -161.147087 
L 195.198354 -160.633696 
L 198.352268 -160.136904 
L 201.506183 -159.59034 
L 204.660097 -159.049346 
L 207.814012 -158.496187 
L 210.967926 -157.937934 
L 214.121841 -157.384724 
L 217.275755 -156.748952 
L 220.42967 -156.16313 
L 223.583584 -155.583895 
L 226.737498 -154.997847 
L 229.891413 -154.404563 
L 233.045327 -153.841506 
L 236.199242 -153.298248 
L 239.353156 -152.714583 
L 242.507071 -152.130231 
L 245.660985 -151.52511 
L 248.8149 -150.898433 
L 251.968814 -150.27152 
L 255.122728 -149.697565 
L 258.276643 -149.123611 
L 261.430557 -148.541093 
L 264.584472 -147.888468 
L 267.738386 -147.245152 
L 270.892301 -146.584829 
L 274.046215 -145.950031 
L 277.20013 -145.33658 
L 280.354044 -144.744391 
L 283.507958 -144.141131 
L 286.661873 -143.539003 
L 289.815787 -142.936874 
L 292.969702 -142.334746 
L 296.123616 -141.702139 
L 299.277531 -141.067268 
L 302.431445 -140.426594 
L 305.58536 -139.794354 
L 308.739274 -139.122342 
L 311.893189 -138.45033 
L 315.047103 -137.778318 
L 318.201017 -137.106147 
L 321.354932 -136.436674 
L 324.508846 -135.818569 
L 327.662761 -135.115555 
L 330.816675 -134.489898 
L 333.97059 -133.832741 
L 337.124504 -133.144727 
L 340.278419 -132.508441 
L 343.432333 -131.882897 
L 346.586247 -131.257353 
L 349.740162 -130.631808 
L 352.894076 -130.006264 
L 356.047991 -129.382347 
L 359.201905 -128.758441 
L 359.201905 -145.579587 
L 359.201905 -145.579587 
L 356.047991 -146.003209 
L 352.894076 -146.42485 
L 349.740162 -146.848996 
L 346.586247 -147.273118 
L 343.432333 -147.667422 
L 340.278419 -148.073792 
L 337.124504 -148.49546 
L 333.97059 -148.917128 
L 330.816675 -149.338796 
L 327.662761 -149.760464 
L 324.508846 -150.182132 
L 321.354932 -150.609527 
L 318.201017 -151.084639 
L 315.047103 -151.514601 
L 311.893189 -151.938747 
L 308.739274 -152.362893 
L 305.58536 -152.795375 
L 302.431445 -153.211169 
L 299.277531 -153.622112 
L 296.123616 -153.981376 
L 292.969702 -154.423149 
L 289.815787 -154.866171 
L 286.661873 -155.308581 
L 283.507958 -155.750806 
L 280.354044 -156.174774 
L 277.20013 -156.561272 
L 274.046215 -156.963556 
L 270.892301 -157.398427 
L 267.738386 -157.810645 
L 264.584472 -158.213134 
L 261.430557 -158.617958 
L 258.276643 -159.03439 
L 255.122728 -159.43764 
L 251.968814 -159.848768 
L 248.8149 -160.283753 
L 245.660985 -160.704026 
L 242.507071 -161.140912 
L 239.353156 -161.564174 
L 236.199242 -161.986645 
L 233.045327 -162.409116 
L 229.891413 -162.82969 
L 226.737498 -163.2158 
L 223.583584 -163.672715 
L 220.42967 -164.095476 
L 217.275755 -164.516613 
L 214.121841 -164.97601 
L 210.967926 -165.458172 
L 207.814012 -165.923872 
L 204.660097 -166.352601 
L 201.506183 -166.783854 
L 198.352268 -167.212781 
L 195.198354 -167.663543 
L 192.04444 -168.18861 
L 188.890525 -168.714164 
L 185.736611 -169.176028 
L 182.582696 -169.688643 
L 179.428782 -170.213194 
L 176.274867 -170.726478 
L 173.120953 -171.22664 
L 169.967038 -171.747836 
L 166.813124 -172.309416 
L 163.65921 -172.850566 
L 160.505295 -173.357614 
L 157.351381 -173.866205 
L 154.197466 -174.404563 
L 151.043552 -174.959402 
L 147.889637 -175.572047 
L 144.735723 -176.118677 
L 141.581808 -176.661073 
L 138.427894 -177.254588 
L 135.27398 -177.815037 
L 132.120065 -178.383454 
L 128.966151 -179.009615 
L 125.812236 -179.557405 
L 122.658322 -180.105079 
L 119.504407 -180.669673 
L 116.350493 -181.254826 
L 113.196578 -181.946183 
L 110.042664 -182.578566 
L 106.888749 -183.103915 
L 103.734835 -183.614905 
L 100.580921 -184.278632 
L 97.427006 -184.924323 
L 94.273092 -185.542807 
L 91.119177 -186.191648 
L 87.965263 -186.842584 
L 84.811348 -187.439354 
L 81.657434 -188.070872 
L 78.503519 -188.718784 
L 75.349605 -189.319587 
L 72.195691 -189.887565 
L 69.041776 -190.539741 
L 65.887862 -191.1864 
L 62.733947 -191.809686 
L 59.580033 -192.400624 
L 56.426118 -193.018004 
L 53.272204 -193.651831 
L 50.118289 -194.287192 
L 46.964375 -194.921917 
z
" id="mc00cd760c4" style="stroke:#ffffff;stroke-opacity:0.15;"/>
    </defs>
    <g clip-path="url(#p9d3f16b61c)">
     <use style="fill:#dd8452;fill-opacity:0.15;stroke:#ffffff;stroke-opacity:0.15;" x="0" xlink:href="#mc00cd760c4" y="363.514219"/>
    </g>
   </g>
   <g id="line2d_15">
    <path clip-path="url(#p9d3f16b61c)" d="M 46.964375 157.451066 
L 46.964375 134.926479 
" style="fill:none;stroke:#4c72b0;stroke-linecap:round;stroke-width:2.625;"/>
   </g>
   <g id="line2d_16">
    <path clip-path="url(#p9d3f16b61c)" d="M 70.982647 201.561717 
L 70.982647 127.153485 
" style="fill:none;stroke:#4c72b0;stroke-linecap:round;stroke-width:2.625;"/>
   </g>
   <g id="line2d_17">
    <path clip-path="url(#p9d3f16b61c)" d="M 95.000918 164.873573 
L 95.000918 148.511992 
" style="fill:none;stroke:#4c72b0;stroke-linecap:round;stroke-width:2.625;"/>
   </g>
   <g id="line2d_18">
    <path clip-path="url(#p9d3f16b61c)" d="M 119.01919 174.79841 
L 119.01919 159.693017 
" style="fill:none;stroke:#4c72b0;stroke-linecap:round;stroke-width:2.625;"/>
   </g>
   <g id="line2d_19">
    <path clip-path="url(#p9d3f16b61c)" d="M 143.037461 229.485868 
L 143.037461 134.158595 
" style="fill:none;stroke:#4c72b0;stroke-linecap:round;stroke-width:2.625;"/>
   </g>
   <g id="line2d_20">
    <path clip-path="url(#p9d3f16b61c)" d="M 167.055733 184.116203 
L 167.055733 154.209608 
" style="fill:none;stroke:#4c72b0;stroke-linecap:round;stroke-width:2.625;"/>
   </g>
   <g id="line2d_21">
    <path clip-path="url(#p9d3f16b61c)" d="M 191.074004 189.275091 
L 191.074004 120.639455 
" style="fill:none;stroke:#4c72b0;stroke-linecap:round;stroke-width:2.625;"/>
   </g>
   <g id="line2d_22">
    <path clip-path="url(#p9d3f16b61c)" d="M 215.092276 307.480909 
L 215.092276 21.499091 
" style="fill:none;stroke:#4c72b0;stroke-linecap:round;stroke-width:2.625;"/>
   </g>
   <g id="line2d_23">
    <path clip-path="url(#p9d3f16b61c)" d="M 239.110547 233.337475 
L 239.110547 148.602121 
" style="fill:none;stroke:#4c72b0;stroke-linecap:round;stroke-width:2.625;"/>
   </g>
   <g id="line2d_24">
    <path clip-path="url(#p9d3f16b61c)" d="M 263.128819 283.649091 
L 263.128819 188.321818 
" style="fill:none;stroke:#4c72b0;stroke-linecap:round;stroke-width:2.625;"/>
   </g>
   <g id="line2d_25">
    <path clip-path="url(#p9d3f16b61c)" d="M 287.147091 212.153636 
L 287.147091 212.153636 
" style="fill:none;stroke:#4c72b0;stroke-linecap:round;stroke-width:2.625;"/>
   </g>
   <g id="line2d_26">
    <path clip-path="url(#p9d3f16b61c)" d="M 311.165362 307.480909 
L 311.165362 92.994545 
" style="fill:none;stroke:#4c72b0;stroke-linecap:round;stroke-width:2.625;"/>
   </g>
   <g id="line2d_27">
    <path clip-path="url(#p9d3f16b61c)" d="M 359.201905 212.153636 
L 359.201905 212.153636 
" style="fill:none;stroke:#4c72b0;stroke-linecap:round;stroke-width:2.625;"/>
   </g>
   <g id="line2d_28">
    <path clip-path="url(#p9d3f16b61c)" d="M 46.964375 147.320483 
L 50.118289 148.046968 
L 53.272204 148.773454 
L 56.426118 149.499939 
L 59.580033 150.226424 
L 62.733947 150.952909 
L 65.887862 151.679395 
L 69.041776 152.40588 
L 72.195691 153.132365 
L 75.349605 153.85885 
L 78.503519 154.585335 
L 81.657434 155.311821 
L 84.811348 156.038306 
L 87.965263 156.764791 
L 91.119177 157.491276 
L 94.273092 158.217762 
L 97.427006 158.944247 
L 100.580921 159.670732 
L 103.734835 160.397217 
L 106.888749 161.123703 
L 110.042664 161.850188 
L 113.196578 162.576673 
L 116.350493 163.303158 
L 119.504407 164.029644 
L 122.658322 164.756129 
L 125.812236 165.482614 
L 128.966151 166.209099 
L 132.120065 166.935584 
L 135.27398 167.66207 
L 138.427894 168.388555 
L 141.581808 169.11504 
L 144.735723 169.841525 
L 147.889637 170.568011 
L 151.043552 171.294496 
L 154.197466 172.020981 
L 157.351381 172.747466 
L 160.505295 173.473952 
L 163.65921 174.200437 
L 166.813124 174.926922 
L 169.967038 175.653407 
L 173.120953 176.379893 
L 176.274867 177.106378 
L 179.428782 177.832863 
L 182.582696 178.559348 
L 185.736611 179.285834 
L 188.890525 180.012319 
L 192.04444 180.738804 
L 195.198354 181.465289 
L 198.352268 182.191774 
L 201.506183 182.91826 
L 204.660097 183.644745 
L 207.814012 184.37123 
L 210.967926 185.097715 
L 214.121841 185.824201 
L 217.275755 186.550686 
L 220.42967 187.277171 
L 223.583584 188.003656 
L 226.737498 188.730142 
L 229.891413 189.456627 
L 233.045327 190.183112 
L 236.199242 190.909597 
L 239.353156 191.636083 
L 242.507071 192.362568 
L 245.660985 193.089053 
L 248.8149 193.815538 
L 251.968814 194.542024 
L 255.122728 195.268509 
L 258.276643 195.994994 
L 261.430557 196.721479 
L 264.584472 197.447964 
L 267.738386 198.17445 
L 270.892301 198.900935 
L 274.046215 199.62742 
L 277.20013 200.353905 
L 280.354044 201.080391 
L 283.507958 201.806876 
L 286.661873 202.533361 
L 289.815787 203.259846 
L 292.969702 203.986332 
L 296.123616 204.712817 
L 299.277531 205.439302 
L 302.431445 206.165787 
L 305.58536 206.892273 
L 308.739274 207.618758 
L 311.893189 208.345243 
L 315.047103 209.071728 
L 318.201017 209.798213 
L 321.354932 210.524699 
L 324.508846 211.251184 
L 327.662761 211.977669 
L 330.816675 212.704154 
L 333.97059 213.43064 
L 337.124504 214.157125 
L 340.278419 214.88361 
L 343.432333 215.610095 
L 346.586247 216.336581 
L 349.740162 217.063066 
L 352.894076 217.789551 
L 356.047991 218.516036 
L 359.201905 219.242522 
" style="fill:none;stroke:#4c72b0;stroke-linecap:round;stroke-width:2.25;"/>
   </g>
   <g id="line2d_29">
    <path clip-path="url(#p9d3f16b61c)" d="M 46.964375 183.813096 
L 46.964375 154.613751 
" style="fill:none;stroke:#dd8452;stroke-linecap:round;stroke-width:2.625;"/>
   </g>
   <g id="line2d_30">
    <path clip-path="url(#p9d3f16b61c)" d="M 70.982647 226.819371 
L 70.982647 116.826364 
" style="fill:none;stroke:#dd8452;stroke-linecap:round;stroke-width:2.625;"/>
   </g>
   <g id="line2d_31">
    <path clip-path="url(#p9d3f16b61c)" d="M 95.000918 191.726364 
L 95.000918 171.667917 
" style="fill:none;stroke:#dd8452;stroke-linecap:round;stroke-width:2.625;"/>
   </g>
   <g id="line2d_32">
    <path clip-path="url(#p9d3f16b61c)" d="M 119.01919 195.919685 
L 119.01919 181.007102 
" style="fill:none;stroke:#dd8452;stroke-linecap:round;stroke-width:2.625;"/>
   </g>
   <g id="line2d_33">
    <path clip-path="url(#p9d3f16b61c)" d="M 143.037461 242.577234 
L 143.037461 202.012437 
" style="fill:none;stroke:#dd8452;stroke-linecap:round;stroke-width:2.625;"/>
   </g>
   <g id="line2d_34">
    <path clip-path="url(#p9d3f16b61c)" d="M 167.055733 198.581618 
L 167.055733 180.16245 
" style="fill:none;stroke:#dd8452;stroke-linecap:round;stroke-width:2.625;"/>
   </g>
   <g id="line2d_35">
    <path clip-path="url(#p9d3f16b61c)" d="M 191.074004 214.37055 
L 191.074004 189.430275 
" style="fill:none;stroke:#dd8452;stroke-linecap:round;stroke-width:2.625;"/>
   </g>
   <g id="line2d_36">
    <path clip-path="url(#p9d3f16b61c)" d="M 215.092276 234.396667 
L 215.092276 183.555455 
" style="fill:none;stroke:#dd8452;stroke-linecap:round;stroke-width:2.625;"/>
   </g>
   <g id="line2d_37">
    <path clip-path="url(#p9d3f16b61c)" d="M 239.110547 222.223419 
L 239.110547 197.384622 
" style="fill:none;stroke:#dd8452;stroke-linecap:round;stroke-width:2.625;"/>
   </g>
   <g id="line2d_38">
    <path clip-path="url(#p9d3f16b61c)" d="M 263.128819 221.357649 
L 263.128819 194.386605 
" style="fill:none;stroke:#dd8452;stroke-linecap:round;stroke-width:2.625;"/>
   </g>
   <g id="line2d_39">
    <path clip-path="url(#p9d3f16b61c)" d="M 287.147091 228.285944 
L 287.147091 191.584944 
" style="fill:none;stroke:#dd8452;stroke-linecap:round;stroke-width:2.625;"/>
   </g>
   <g id="line2d_40">
    <path clip-path="url(#p9d3f16b61c)" d="M 311.165362 225.771818 
L 311.165362 203.773217 
" style="fill:none;stroke:#dd8452;stroke-linecap:round;stroke-width:2.625;"/>
   </g>
   <g id="line2d_41">
    <path clip-path="url(#p9d3f16b61c)" d="M 335.183634 256.639697 
L 335.183634 212.153636 
" style="fill:none;stroke:#dd8452;stroke-linecap:round;stroke-width:2.625;"/>
   </g>
   <g id="line2d_42">
    <path clip-path="url(#p9d3f16b61c)" d="M 359.201905 269.35 
L 359.201905 212.153636 
" style="fill:none;stroke:#dd8452;stroke-linecap:round;stroke-width:2.625;"/>
   </g>
   <g id="line2d_43">
    <path clip-path="url(#p9d3f16b61c)" d="M 46.964375 175.088696 
L 50.118289 175.605092 
L 53.272204 176.121489 
L 56.426118 176.637886 
L 59.580033 177.154282 
L 62.733947 177.670679 
L 65.887862 178.187076 
L 69.041776 178.703473 
L 72.195691 179.219869 
L 75.349605 179.736266 
L 78.503519 180.252663 
L 81.657434 180.769059 
L 84.811348 181.285456 
L 87.965263 181.801853 
L 91.119177 182.31825 
L 94.273092 182.834646 
L 97.427006 183.351043 
L 100.580921 183.86744 
L 103.734835 184.383836 
L 106.888749 184.900233 
L 110.042664 185.41663 
L 113.196578 185.933026 
L 116.350493 186.449423 
L 119.504407 186.96582 
L 122.658322 187.482217 
L 125.812236 187.998613 
L 128.966151 188.51501 
L 132.120065 189.031407 
L 135.27398 189.547803 
L 138.427894 190.0642 
L 141.581808 190.580597 
L 144.735723 191.096994 
L 147.889637 191.61339 
L 151.043552 192.129787 
L 154.197466 192.646184 
L 157.351381 193.16258 
L 160.505295 193.678977 
L 163.65921 194.195374 
L 166.813124 194.711771 
L 169.967038 195.228167 
L 173.120953 195.744564 
L 176.274867 196.260961 
L 179.428782 196.777357 
L 182.582696 197.293754 
L 185.736611 197.810151 
L 188.890525 198.326547 
L 192.04444 198.842944 
L 195.198354 199.359341 
L 198.352268 199.875738 
L 201.506183 200.392134 
L 204.660097 200.908531 
L 207.814012 201.424928 
L 210.967926 201.941324 
L 214.121841 202.457721 
L 217.275755 202.974118 
L 220.42967 203.490515 
L 223.583584 204.006911 
L 226.737498 204.523308 
L 229.891413 205.039705 
L 233.045327 205.556101 
L 236.199242 206.072498 
L 239.353156 206.588895 
L 242.507071 207.105292 
L 245.660985 207.621688 
L 248.8149 208.138085 
L 251.968814 208.654482 
L 255.122728 209.170878 
L 258.276643 209.687275 
L 261.430557 210.203672 
L 264.584472 210.720068 
L 267.738386 211.236465 
L 270.892301 211.752862 
L 274.046215 212.269259 
L 277.20013 212.785655 
L 280.354044 213.302052 
L 283.507958 213.818449 
L 286.661873 214.334845 
L 289.815787 214.851242 
L 292.969702 215.367639 
L 296.123616 215.884036 
L 299.277531 216.400432 
L 302.431445 216.916829 
L 305.58536 217.433226 
L 308.739274 217.949622 
L 311.893189 218.466019 
L 315.047103 218.982416 
L 318.201017 219.498813 
L 321.354932 220.015209 
L 324.508846 220.531606 
L 327.662761 221.048003 
L 330.816675 221.564399 
L 333.97059 222.080796 
L 337.124504 222.597193 
L 340.278419 223.113589 
L 343.432333 223.629986 
L 346.586247 224.146383 
L 349.740162 224.66278 
L 352.894076 225.179176 
L 356.047991 225.695573 
L 359.201905 226.21197 
" style="fill:none;stroke:#dd8452;stroke-linecap:round;stroke-width:2.25;"/>
   </g>
   <g id="patch_3">
    <path d="M 46.964375 321.78 
L 46.964375 7.2 
" style="fill:none;stroke:#262626;stroke-linecap:square;stroke-linejoin:miter;stroke-width:1.25;"/>
   </g>
   <g id="patch_4">
    <path d="M 46.964375 321.78 
L 359.201905 321.78 
" style="fill:none;stroke:#262626;stroke-linecap:square;stroke-linejoin:miter;stroke-width:1.25;"/>
   </g>
  </g>
  <g id="legend_1">
   <g id="text_17">
    <!-- a91 -->
    <g style="fill:#262626;" transform="translate(377.071968 169.299453)scale(0.12 -0.12)">
     <defs>
      <path d="M 5.46875 16.546875 
L 13.921875 17.328125 
Q 14.984375 11.375 18.015625 8.6875 
Q 21.046875 6 25.78125 6 
Q 29.828125 6 32.875 7.859375 
Q 35.9375 9.71875 37.890625 12.8125 
Q 39.84375 15.921875 41.15625 21.1875 
Q 42.484375 26.46875 42.484375 31.9375 
Q 42.484375 32.515625 42.4375 33.6875 
Q 39.796875 29.5 35.234375 26.875 
Q 30.671875 24.265625 25.34375 24.265625 
Q 16.453125 24.265625 10.296875 30.703125 
Q 4.15625 37.15625 4.15625 47.703125 
Q 4.15625 58.59375 10.578125 65.234375 
Q 17 71.875 26.65625 71.875 
Q 33.640625 71.875 39.421875 68.109375 
Q 45.21875 64.359375 48.21875 57.390625 
Q 51.21875 50.4375 51.21875 37.25 
Q 51.21875 23.53125 48.234375 15.40625 
Q 45.265625 7.28125 39.375 3.03125 
Q 33.5 -1.21875 25.59375 -1.21875 
Q 17.1875 -1.21875 11.859375 3.4375 
Q 6.546875 8.109375 5.46875 16.546875 
z
M 41.453125 48.140625 
Q 41.453125 55.71875 37.421875 60.15625 
Q 33.40625 64.59375 27.734375 64.59375 
Q 21.875 64.59375 17.53125 59.8125 
Q 13.1875 55.03125 13.1875 47.40625 
Q 13.1875 40.578125 17.3125 36.296875 
Q 21.4375 32.03125 27.484375 32.03125 
Q 33.59375 32.03125 37.515625 36.296875 
Q 41.453125 40.578125 41.453125 48.140625 
z
" id="ArialMT-57"/>
     </defs>
     <use xlink:href="#ArialMT-97"/>
     <use x="55.615234" xlink:href="#ArialMT-57"/>
     <use x="111.230469" xlink:href="#ArialMT-49"/>
    </g>
   </g>
   <g id="PathCollection_3">
    <g>
     <use style="fill:#4c72b0;stroke:#4c72b0;" x="375.036655" xlink:href="#ma6beef7121" y="182.170547"/>
    </g>
   </g>
   <g id="text_18">
    <!-- 1.0 -->
    <g style="fill:#262626;" transform="translate(394.836655 185.058047)scale(0.11 -0.11)">
     <use xlink:href="#ArialMT-49"/>
     <use x="55.615234" xlink:href="#ArialMT-46"/>
     <use x="83.398438" xlink:href="#ArialMT-48"/>
    </g>
   </g>
   <g id="PathCollection_4">
    <g>
     <use style="fill:#dd8452;stroke:#dd8452;stroke-width:1.5;" x="375.036655" xlink:href="#mec13de202d" y="197.730391"/>
    </g>
   </g>
   <g id="text_19">
    <!-- 2.0 -->
    <g style="fill:#262626;" transform="translate(394.836655 200.617891)scale(0.11 -0.11)">
     <use xlink:href="#ArialMT-50"/>
     <use x="55.615234" xlink:href="#ArialMT-46"/>
     <use x="83.398438" xlink:href="#ArialMT-48"/>
    </g>
   </g>
  </g>
 </g>
 <defs>
  <clipPath id="p9d3f16b61c">
   <rect height="314.58" width="312.23753" x="46.964375" y="7.2"/>
  </clipPath>
 </defs>
</svg>
