<?xml version="1.0" encoding="utf-8" standalone="no"?>
<!DOCTYPE svg PUBLIC "-//W3C//DTD SVG 1.1//EN"
  "http://www.w3.org/Graphics/SVG/1.1/DTD/svg11.dtd">
<!-- Created with matplotlib (https://matplotlib.org/) -->
<svg height="377.418841pt" version="1.1" viewBox="0 0 442.9445 377.418841" width="442.9445pt" xmlns="http://www.w3.org/2000/svg" xmlns:xlink="http://www.w3.org/1999/xlink">
 <metadata>
  <rdf:RDF xmlns:cc="http://creativecommons.org/ns#" xmlns:dc="http://purl.org/dc/elements/1.1/" xmlns:rdf="http://www.w3.org/1999/02/22-rdf-syntax-ns#">
   <cc:Work>
    <dc:type rdf:resource="http://purl.org/dc/dcmitype/StillImage"/>
    <dc:date>2022-02-28T15:42:59.181875</dc:date>
    <dc:format>image/svg+xml</dc:format>
    <dc:creator>
     <cc:Agent>
      <dc:title>Matplotlib v3.3.4, https://matplotlib.org/</dc:title>
     </cc:Agent>
    </dc:creator>
   </cc:Work>
  </rdf:RDF>
 </metadata>
 <defs>
  <style type="text/css">*{stroke-linecap:butt;stroke-linejoin:round;}</style>
 </defs>
 <g id="figure_1">
  <g id="patch_1">
   <path d="M 0 377.418841 
L 442.9445 377.418841 
L 442.9445 0 
L 0 0 
z
" style="fill:#ffffff;"/>
  </g>
  <g id="axes_1">
   <g id="patch_2">
    <path d="M 110.4055 340.111091 
L 435.7445 340.111091 
L 435.7445 20.4945 
L 110.4055 20.4945 
z
" style="fill:#ffffff;"/>
   </g>
   <g id="matplotlib.axis_1">
    <g id="xtick_1">
     <g id="line2d_1">
      <defs>
       <path d="M 0 0 
L 0 4.8 
" id="m82dc141128" style="stroke:#262626;"/>
      </defs>
      <g>
       <use style="fill:#262626;stroke:#262626;" x="191.74025" xlink:href="#m82dc141128" y="340.111091"/>
      </g>
     </g>
     <g id="text_1">
      <!-- (incorrect response) -->
      <g style="fill:#262626;" transform="translate(147.509938 355.097716)scale(0.088 -0.088)">
       <defs>
        <path d="M 31 75.875 
Q 24.46875 64.65625 21.28125 53.65625 
Q 18.109375 42.671875 18.109375 31.390625 
Q 18.109375 20.125 21.3125 9.0625 
Q 24.515625 -2 31 -13.1875 
L 23.1875 -13.1875 
Q 15.875 -1.703125 12.234375 9.375 
Q 8.59375 20.453125 8.59375 31.390625 
Q 8.59375 42.28125 12.203125 53.3125 
Q 15.828125 64.359375 23.1875 75.875 
z
" id="DejaVuSans-40"/>
        <path d="M 9.421875 54.6875 
L 18.40625 54.6875 
L 18.40625 0 
L 9.421875 0 
z
M 9.421875 75.984375 
L 18.40625 75.984375 
L 18.40625 64.59375 
L 9.421875 64.59375 
z
" id="DejaVuSans-105"/>
        <path d="M 54.890625 33.015625 
L 54.890625 0 
L 45.90625 0 
L 45.90625 32.71875 
Q 45.90625 40.484375 42.875 44.328125 
Q 39.84375 48.1875 33.796875 48.1875 
Q 26.515625 48.1875 22.3125 43.546875 
Q 18.109375 38.921875 18.109375 30.90625 
L 18.109375 0 
L 9.078125 0 
L 9.078125 54.6875 
L 18.109375 54.6875 
L 18.109375 46.1875 
Q 21.34375 51.125 25.703125 53.5625 
Q 30.078125 56 35.796875 56 
Q 45.21875 56 50.046875 50.171875 
Q 54.890625 44.34375 54.890625 33.015625 
z
" id="DejaVuSans-110"/>
        <path d="M 48.78125 52.59375 
L 48.78125 44.1875 
Q 44.96875 46.296875 41.140625 47.34375 
Q 37.3125 48.390625 33.40625 48.390625 
Q 24.65625 48.390625 19.8125 42.84375 
Q 14.984375 37.3125 14.984375 27.296875 
Q 14.984375 17.28125 19.8125 11.734375 
Q 24.65625 6.203125 33.40625 6.203125 
Q 37.3125 6.203125 41.140625 7.25 
Q 44.96875 8.296875 48.78125 10.40625 
L 48.78125 2.09375 
Q 45.015625 0.34375 40.984375 -0.53125 
Q 36.96875 -1.421875 32.421875 -1.421875 
Q 20.0625 -1.421875 12.78125 6.34375 
Q 5.515625 14.109375 5.515625 27.296875 
Q 5.515625 40.671875 12.859375 48.328125 
Q 20.21875 56 33.015625 56 
Q 37.15625 56 41.109375 55.140625 
Q 45.0625 54.296875 48.78125 52.59375 
z
" id="DejaVuSans-99"/>
        <path d="M 30.609375 48.390625 
Q 23.390625 48.390625 19.1875 42.75 
Q 14.984375 37.109375 14.984375 27.296875 
Q 14.984375 17.484375 19.15625 11.84375 
Q 23.34375 6.203125 30.609375 6.203125 
Q 37.796875 6.203125 41.984375 11.859375 
Q 46.1875 17.53125 46.1875 27.296875 
Q 46.1875 37.015625 41.984375 42.703125 
Q 37.796875 48.390625 30.609375 48.390625 
z
M 30.609375 56 
Q 42.328125 56 49.015625 48.375 
Q 55.71875 40.765625 55.71875 27.296875 
Q 55.71875 13.875 49.015625 6.21875 
Q 42.328125 -1.421875 30.609375 -1.421875 
Q 18.84375 -1.421875 12.171875 6.21875 
Q 5.515625 13.875 5.515625 27.296875 
Q 5.515625 40.765625 12.171875 48.375 
Q 18.84375 56 30.609375 56 
z
" id="DejaVuSans-111"/>
        <path d="M 41.109375 46.296875 
Q 39.59375 47.171875 37.8125 47.578125 
Q 36.03125 48 33.890625 48 
Q 26.265625 48 22.1875 43.046875 
Q 18.109375 38.09375 18.109375 28.8125 
L 18.109375 0 
L 9.078125 0 
L 9.078125 54.6875 
L 18.109375 54.6875 
L 18.109375 46.1875 
Q 20.953125 51.171875 25.484375 53.578125 
Q 30.03125 56 36.53125 56 
Q 37.453125 56 38.578125 55.875 
Q 39.703125 55.765625 41.0625 55.515625 
z
" id="DejaVuSans-114"/>
        <path d="M 56.203125 29.59375 
L 56.203125 25.203125 
L 14.890625 25.203125 
Q 15.484375 15.921875 20.484375 11.0625 
Q 25.484375 6.203125 34.421875 6.203125 
Q 39.59375 6.203125 44.453125 7.46875 
Q 49.3125 8.734375 54.109375 11.28125 
L 54.109375 2.78125 
Q 49.265625 0.734375 44.1875 -0.34375 
Q 39.109375 -1.421875 33.890625 -1.421875 
Q 20.796875 -1.421875 13.15625 6.1875 
Q 5.515625 13.8125 5.515625 26.8125 
Q 5.515625 40.234375 12.765625 48.109375 
Q 20.015625 56 32.328125 56 
Q 43.359375 56 49.78125 48.890625 
Q 56.203125 41.796875 56.203125 29.59375 
z
M 47.21875 32.234375 
Q 47.125 39.59375 43.09375 43.984375 
Q 39.0625 48.390625 32.421875 48.390625 
Q 24.90625 48.390625 20.390625 44.140625 
Q 15.875 39.890625 15.1875 32.171875 
z
" id="DejaVuSans-101"/>
        <path d="M 18.3125 70.21875 
L 18.3125 54.6875 
L 36.8125 54.6875 
L 36.8125 47.703125 
L 18.3125 47.703125 
L 18.3125 18.015625 
Q 18.3125 11.328125 20.140625 9.421875 
Q 21.96875 7.515625 27.59375 7.515625 
L 36.8125 7.515625 
L 36.8125 0 
L 27.59375 0 
Q 17.1875 0 13.234375 3.875 
Q 9.28125 7.765625 9.28125 18.015625 
L 9.28125 47.703125 
L 2.6875 47.703125 
L 2.6875 54.6875 
L 9.28125 54.6875 
L 9.28125 70.21875 
z
" id="DejaVuSans-116"/>
        <path id="DejaVuSans-32"/>
        <path d="M 44.28125 53.078125 
L 44.28125 44.578125 
Q 40.484375 46.53125 36.375 47.5 
Q 32.28125 48.484375 27.875 48.484375 
Q 21.1875 48.484375 17.84375 46.4375 
Q 14.5 44.390625 14.5 40.28125 
Q 14.5 37.15625 16.890625 35.375 
Q 19.28125 33.59375 26.515625 31.984375 
L 29.59375 31.296875 
Q 39.15625 29.25 43.1875 25.515625 
Q 47.21875 21.78125 47.21875 15.09375 
Q 47.21875 7.46875 41.1875 3.015625 
Q 35.15625 -1.421875 24.609375 -1.421875 
Q 20.21875 -1.421875 15.453125 -0.5625 
Q 10.6875 0.296875 5.421875 2 
L 5.421875 11.28125 
Q 10.40625 8.6875 15.234375 7.390625 
Q 20.0625 6.109375 24.8125 6.109375 
Q 31.15625 6.109375 34.5625 8.28125 
Q 37.984375 10.453125 37.984375 14.40625 
Q 37.984375 18.0625 35.515625 20.015625 
Q 33.0625 21.96875 24.703125 23.78125 
L 21.578125 24.515625 
Q 13.234375 26.265625 9.515625 29.90625 
Q 5.8125 33.546875 5.8125 39.890625 
Q 5.8125 47.609375 11.28125 51.796875 
Q 16.75 56 26.8125 56 
Q 31.78125 56 36.171875 55.265625 
Q 40.578125 54.546875 44.28125 53.078125 
z
" id="DejaVuSans-115"/>
        <path d="M 18.109375 8.203125 
L 18.109375 -20.796875 
L 9.078125 -20.796875 
L 9.078125 54.6875 
L 18.109375 54.6875 
L 18.109375 46.390625 
Q 20.953125 51.265625 25.265625 53.625 
Q 29.59375 56 35.59375 56 
Q 45.5625 56 51.78125 48.09375 
Q 58.015625 40.1875 58.015625 27.296875 
Q 58.015625 14.40625 51.78125 6.484375 
Q 45.5625 -1.421875 35.59375 -1.421875 
Q 29.59375 -1.421875 25.265625 0.953125 
Q 20.953125 3.328125 18.109375 8.203125 
z
M 48.6875 27.296875 
Q 48.6875 37.203125 44.609375 42.84375 
Q 40.53125 48.484375 33.40625 48.484375 
Q 26.265625 48.484375 22.1875 42.84375 
Q 18.109375 37.203125 18.109375 27.296875 
Q 18.109375 17.390625 22.1875 11.75 
Q 26.265625 6.109375 33.40625 6.109375 
Q 40.53125 6.109375 44.609375 11.75 
Q 48.6875 17.390625 48.6875 27.296875 
z
" id="DejaVuSans-112"/>
        <path d="M 8.015625 75.875 
L 15.828125 75.875 
Q 23.140625 64.359375 26.78125 53.3125 
Q 30.421875 42.28125 30.421875 31.390625 
Q 30.421875 20.453125 26.78125 9.375 
Q 23.140625 -1.703125 15.828125 -13.1875 
L 8.015625 -13.1875 
Q 14.5 -2 17.703125 9.0625 
Q 20.90625 20.125 20.90625 31.390625 
Q 20.90625 42.671875 17.703125 53.65625 
Q 14.5 64.65625 8.015625 75.875 
z
" id="DejaVuSans-41"/>
       </defs>
       <use xlink:href="#DejaVuSans-40"/>
       <use x="39.013672" xlink:href="#DejaVuSans-105"/>
       <use x="66.796875" xlink:href="#DejaVuSans-110"/>
       <use x="130.175781" xlink:href="#DejaVuSans-99"/>
       <use x="185.15625" xlink:href="#DejaVuSans-111"/>
       <use x="246.337891" xlink:href="#DejaVuSans-114"/>
       <use x="285.701172" xlink:href="#DejaVuSans-114"/>
       <use x="324.564453" xlink:href="#DejaVuSans-101"/>
       <use x="386.087891" xlink:href="#DejaVuSans-99"/>
       <use x="441.068359" xlink:href="#DejaVuSans-116"/>
       <use x="480.277344" xlink:href="#DejaVuSans-32"/>
       <use x="512.064453" xlink:href="#DejaVuSans-114"/>
       <use x="550.927734" xlink:href="#DejaVuSans-101"/>
       <use x="612.451172" xlink:href="#DejaVuSans-115"/>
       <use x="664.550781" xlink:href="#DejaVuSans-112"/>
       <use x="728.027344" xlink:href="#DejaVuSans-111"/>
       <use x="789.208984" xlink:href="#DejaVuSans-110"/>
       <use x="852.587891" xlink:href="#DejaVuSans-115"/>
       <use x="904.6875" xlink:href="#DejaVuSans-101"/>
       <use x="966.210938" xlink:href="#DejaVuSans-41"/>
      </g>
     </g>
    </g>
    <g id="xtick_2">
     <g id="line2d_2">
      <g>
       <use style="fill:#262626;stroke:#262626;" x="354.40975" xlink:href="#m82dc141128" y="340.111091"/>
      </g>
     </g>
     <g id="text_2">
      <!-- (correct response) -->
      <g style="fill:#262626;" transform="translate(314.190313 355.097716)scale(0.088 -0.088)">
       <use xlink:href="#DejaVuSans-40"/>
       <use x="39.013672" xlink:href="#DejaVuSans-99"/>
       <use x="93.994141" xlink:href="#DejaVuSans-111"/>
       <use x="155.175781" xlink:href="#DejaVuSans-114"/>
       <use x="194.539062" xlink:href="#DejaVuSans-114"/>
       <use x="233.402344" xlink:href="#DejaVuSans-101"/>
       <use x="294.925781" xlink:href="#DejaVuSans-99"/>
       <use x="349.90625" xlink:href="#DejaVuSans-116"/>
       <use x="389.115234" xlink:href="#DejaVuSans-32"/>
       <use x="420.902344" xlink:href="#DejaVuSans-114"/>
       <use x="459.765625" xlink:href="#DejaVuSans-101"/>
       <use x="521.289062" xlink:href="#DejaVuSans-115"/>
       <use x="573.388672" xlink:href="#DejaVuSans-112"/>
       <use x="636.865234" xlink:href="#DejaVuSans-111"/>
       <use x="698.046875" xlink:href="#DejaVuSans-110"/>
       <use x="761.425781" xlink:href="#DejaVuSans-115"/>
       <use x="813.525391" xlink:href="#DejaVuSans-101"/>
       <use x="875.048828" xlink:href="#DejaVuSans-41"/>
      </g>
     </g>
    </g>
    <g id="text_3">
     <!-- Water Quality Knowledge -->
     <g style="fill:#262626;" transform="translate(212.295 368.222341)scale(0.096 -0.096)">
      <defs>
       <path d="M 3.328125 72.90625 
L 13.28125 72.90625 
L 28.609375 11.28125 
L 43.890625 72.90625 
L 54.984375 72.90625 
L 70.3125 11.28125 
L 85.59375 72.90625 
L 95.609375 72.90625 
L 77.296875 0 
L 64.890625 0 
L 49.515625 63.28125 
L 33.984375 0 
L 21.578125 0 
z
" id="DejaVuSans-87"/>
       <path d="M 34.28125 27.484375 
Q 23.390625 27.484375 19.1875 25 
Q 14.984375 22.515625 14.984375 16.5 
Q 14.984375 11.71875 18.140625 8.90625 
Q 21.296875 6.109375 26.703125 6.109375 
Q 34.1875 6.109375 38.703125 11.40625 
Q 43.21875 16.703125 43.21875 25.484375 
L 43.21875 27.484375 
z
M 52.203125 31.203125 
L 52.203125 0 
L 43.21875 0 
L 43.21875 8.296875 
Q 40.140625 3.328125 35.546875 0.953125 
Q 30.953125 -1.421875 24.3125 -1.421875 
Q 15.921875 -1.421875 10.953125 3.296875 
Q 6 8.015625 6 15.921875 
Q 6 25.140625 12.171875 29.828125 
Q 18.359375 34.515625 30.609375 34.515625 
L 43.21875 34.515625 
L 43.21875 35.40625 
Q 43.21875 41.609375 39.140625 45 
Q 35.0625 48.390625 27.6875 48.390625 
Q 23 48.390625 18.546875 47.265625 
Q 14.109375 46.140625 10.015625 43.890625 
L 10.015625 52.203125 
Q 14.9375 54.109375 19.578125 55.046875 
Q 24.21875 56 28.609375 56 
Q 40.484375 56 46.34375 49.84375 
Q 52.203125 43.703125 52.203125 31.203125 
z
" id="DejaVuSans-97"/>
       <path d="M 39.40625 66.21875 
Q 28.65625 66.21875 22.328125 58.203125 
Q 16.015625 50.203125 16.015625 36.375 
Q 16.015625 22.609375 22.328125 14.59375 
Q 28.65625 6.59375 39.40625 6.59375 
Q 50.140625 6.59375 56.421875 14.59375 
Q 62.703125 22.609375 62.703125 36.375 
Q 62.703125 50.203125 56.421875 58.203125 
Q 50.140625 66.21875 39.40625 66.21875 
z
M 53.21875 1.3125 
L 66.21875 -12.890625 
L 54.296875 -12.890625 
L 43.5 -1.21875 
Q 41.890625 -1.3125 41.03125 -1.359375 
Q 40.1875 -1.421875 39.40625 -1.421875 
Q 24.03125 -1.421875 14.8125 8.859375 
Q 5.609375 19.140625 5.609375 36.375 
Q 5.609375 53.65625 14.8125 63.9375 
Q 24.03125 74.21875 39.40625 74.21875 
Q 54.734375 74.21875 63.90625 63.9375 
Q 73.09375 53.65625 73.09375 36.375 
Q 73.09375 23.6875 67.984375 14.640625 
Q 62.890625 5.609375 53.21875 1.3125 
z
" id="DejaVuSans-81"/>
       <path d="M 8.5 21.578125 
L 8.5 54.6875 
L 17.484375 54.6875 
L 17.484375 21.921875 
Q 17.484375 14.15625 20.5 10.265625 
Q 23.53125 6.390625 29.59375 6.390625 
Q 36.859375 6.390625 41.078125 11.03125 
Q 45.3125 15.671875 45.3125 23.6875 
L 45.3125 54.6875 
L 54.296875 54.6875 
L 54.296875 0 
L 45.3125 0 
L 45.3125 8.40625 
Q 42.046875 3.421875 37.71875 1 
Q 33.40625 -1.421875 27.6875 -1.421875 
Q 18.265625 -1.421875 13.375 4.4375 
Q 8.5 10.296875 8.5 21.578125 
z
M 31.109375 56 
z
" id="DejaVuSans-117"/>
       <path d="M 9.421875 75.984375 
L 18.40625 75.984375 
L 18.40625 0 
L 9.421875 0 
z
" id="DejaVuSans-108"/>
       <path d="M 32.171875 -5.078125 
Q 28.375 -14.84375 24.75 -17.8125 
Q 21.140625 -20.796875 15.09375 -20.796875 
L 7.90625 -20.796875 
L 7.90625 -13.28125 
L 13.1875 -13.28125 
Q 16.890625 -13.28125 18.9375 -11.515625 
Q 21 -9.765625 23.484375 -3.21875 
L 25.09375 0.875 
L 2.984375 54.6875 
L 12.5 54.6875 
L 29.59375 11.921875 
L 46.6875 54.6875 
L 56.203125 54.6875 
z
" id="DejaVuSans-121"/>
       <path d="M 9.8125 72.90625 
L 19.671875 72.90625 
L 19.671875 42.09375 
L 52.390625 72.90625 
L 65.09375 72.90625 
L 28.90625 38.921875 
L 67.671875 0 
L 54.6875 0 
L 19.671875 35.109375 
L 19.671875 0 
L 9.8125 0 
z
" id="DejaVuSans-75"/>
       <path d="M 4.203125 54.6875 
L 13.1875 54.6875 
L 24.421875 12.015625 
L 35.59375 54.6875 
L 46.1875 54.6875 
L 57.421875 12.015625 
L 68.609375 54.6875 
L 77.59375 54.6875 
L 63.28125 0 
L 52.6875 0 
L 40.921875 44.828125 
L 29.109375 0 
L 18.5 0 
z
" id="DejaVuSans-119"/>
       <path d="M 45.40625 46.390625 
L 45.40625 75.984375 
L 54.390625 75.984375 
L 54.390625 0 
L 45.40625 0 
L 45.40625 8.203125 
Q 42.578125 3.328125 38.25 0.953125 
Q 33.9375 -1.421875 27.875 -1.421875 
Q 17.96875 -1.421875 11.734375 6.484375 
Q 5.515625 14.40625 5.515625 27.296875 
Q 5.515625 40.1875 11.734375 48.09375 
Q 17.96875 56 27.875 56 
Q 33.9375 56 38.25 53.625 
Q 42.578125 51.265625 45.40625 46.390625 
z
M 14.796875 27.296875 
Q 14.796875 17.390625 18.875 11.75 
Q 22.953125 6.109375 30.078125 6.109375 
Q 37.203125 6.109375 41.296875 11.75 
Q 45.40625 17.390625 45.40625 27.296875 
Q 45.40625 37.203125 41.296875 42.84375 
Q 37.203125 48.484375 30.078125 48.484375 
Q 22.953125 48.484375 18.875 42.84375 
Q 14.796875 37.203125 14.796875 27.296875 
z
" id="DejaVuSans-100"/>
       <path d="M 45.40625 27.984375 
Q 45.40625 37.75 41.375 43.109375 
Q 37.359375 48.484375 30.078125 48.484375 
Q 22.859375 48.484375 18.828125 43.109375 
Q 14.796875 37.75 14.796875 27.984375 
Q 14.796875 18.265625 18.828125 12.890625 
Q 22.859375 7.515625 30.078125 7.515625 
Q 37.359375 7.515625 41.375 12.890625 
Q 45.40625 18.265625 45.40625 27.984375 
z
M 54.390625 6.78125 
Q 54.390625 -7.171875 48.1875 -13.984375 
Q 42 -20.796875 29.203125 -20.796875 
Q 24.46875 -20.796875 20.265625 -20.09375 
Q 16.0625 -19.390625 12.109375 -17.921875 
L 12.109375 -9.1875 
Q 16.0625 -11.328125 19.921875 -12.34375 
Q 23.78125 -13.375 27.78125 -13.375 
Q 36.625 -13.375 41.015625 -8.765625 
Q 45.40625 -4.15625 45.40625 5.171875 
L 45.40625 9.625 
Q 42.625 4.78125 38.28125 2.390625 
Q 33.9375 0 27.875 0 
Q 17.828125 0 11.671875 7.65625 
Q 5.515625 15.328125 5.515625 27.984375 
Q 5.515625 40.671875 11.671875 48.328125 
Q 17.828125 56 27.875 56 
Q 33.9375 56 38.28125 53.609375 
Q 42.625 51.21875 45.40625 46.390625 
L 45.40625 54.6875 
L 54.390625 54.6875 
z
" id="DejaVuSans-103"/>
      </defs>
      <use xlink:href="#DejaVuSans-87"/>
      <use x="92.501953" xlink:href="#DejaVuSans-97"/>
      <use x="153.78125" xlink:href="#DejaVuSans-116"/>
      <use x="192.990234" xlink:href="#DejaVuSans-101"/>
      <use x="254.513672" xlink:href="#DejaVuSans-114"/>
      <use x="295.626953" xlink:href="#DejaVuSans-32"/>
      <use x="327.414062" xlink:href="#DejaVuSans-81"/>
      <use x="406.125" xlink:href="#DejaVuSans-117"/>
      <use x="469.503906" xlink:href="#DejaVuSans-97"/>
      <use x="530.783203" xlink:href="#DejaVuSans-108"/>
      <use x="558.566406" xlink:href="#DejaVuSans-105"/>
      <use x="586.349609" xlink:href="#DejaVuSans-116"/>
      <use x="625.558594" xlink:href="#DejaVuSans-121"/>
      <use x="684.738281" xlink:href="#DejaVuSans-32"/>
      <use x="716.525391" xlink:href="#DejaVuSans-75"/>
      <use x="782.101562" xlink:href="#DejaVuSans-110"/>
      <use x="845.480469" xlink:href="#DejaVuSans-111"/>
      <use x="906.662109" xlink:href="#DejaVuSans-119"/>
      <use x="988.449219" xlink:href="#DejaVuSans-108"/>
      <use x="1016.232422" xlink:href="#DejaVuSans-101"/>
      <use x="1077.755859" xlink:href="#DejaVuSans-100"/>
      <use x="1141.232422" xlink:href="#DejaVuSans-103"/>
      <use x="1204.708984" xlink:href="#DejaVuSans-101"/>
     </g>
    </g>
   </g>
   <g id="matplotlib.axis_2">
    <g id="ytick_1">
     <g id="line2d_3">
      <defs>
       <path d="M 0 0 
L -4.8 0 
" id="me2a6746d6e" style="stroke:#262626;"/>
      </defs>
      <g>
       <use style="fill:#262626;stroke:#262626;" x="110.4055" xlink:href="#me2a6746d6e" y="286.070484"/>
      </g>
     </g>
     <g id="text_4">
      <!-- Extremely harmful -->
      <g style="fill:#262626;" transform="translate(20.491 289.413797)scale(0.088 -0.088)">
       <defs>
        <path d="M 9.8125 72.90625 
L 55.90625 72.90625 
L 55.90625 64.59375 
L 19.671875 64.59375 
L 19.671875 43.015625 
L 54.390625 43.015625 
L 54.390625 34.71875 
L 19.671875 34.71875 
L 19.671875 8.296875 
L 56.78125 8.296875 
L 56.78125 0 
L 9.8125 0 
z
" id="DejaVuSans-69"/>
        <path d="M 54.890625 54.6875 
L 35.109375 28.078125 
L 55.90625 0 
L 45.3125 0 
L 29.390625 21.484375 
L 13.484375 0 
L 2.875 0 
L 24.125 28.609375 
L 4.6875 54.6875 
L 15.28125 54.6875 
L 29.78125 35.203125 
L 44.28125 54.6875 
z
" id="DejaVuSans-120"/>
        <path d="M 52 44.1875 
Q 55.375 50.25 60.0625 53.125 
Q 64.75 56 71.09375 56 
Q 79.640625 56 84.28125 50.015625 
Q 88.921875 44.046875 88.921875 33.015625 
L 88.921875 0 
L 79.890625 0 
L 79.890625 32.71875 
Q 79.890625 40.578125 77.09375 44.375 
Q 74.3125 48.1875 68.609375 48.1875 
Q 61.625 48.1875 57.5625 43.546875 
Q 53.515625 38.921875 53.515625 30.90625 
L 53.515625 0 
L 44.484375 0 
L 44.484375 32.71875 
Q 44.484375 40.625 41.703125 44.40625 
Q 38.921875 48.1875 33.109375 48.1875 
Q 26.21875 48.1875 22.15625 43.53125 
Q 18.109375 38.875 18.109375 30.90625 
L 18.109375 0 
L 9.078125 0 
L 9.078125 54.6875 
L 18.109375 54.6875 
L 18.109375 46.1875 
Q 21.1875 51.21875 25.484375 53.609375 
Q 29.78125 56 35.6875 56 
Q 41.65625 56 45.828125 52.96875 
Q 50 49.953125 52 44.1875 
z
" id="DejaVuSans-109"/>
        <path d="M 54.890625 33.015625 
L 54.890625 0 
L 45.90625 0 
L 45.90625 32.71875 
Q 45.90625 40.484375 42.875 44.328125 
Q 39.84375 48.1875 33.796875 48.1875 
Q 26.515625 48.1875 22.3125 43.546875 
Q 18.109375 38.921875 18.109375 30.90625 
L 18.109375 0 
L 9.078125 0 
L 9.078125 75.984375 
L 18.109375 75.984375 
L 18.109375 46.1875 
Q 21.34375 51.125 25.703125 53.5625 
Q 30.078125 56 35.796875 56 
Q 45.21875 56 50.046875 50.171875 
Q 54.890625 44.34375 54.890625 33.015625 
z
" id="DejaVuSans-104"/>
        <path d="M 37.109375 75.984375 
L 37.109375 68.5 
L 28.515625 68.5 
Q 23.6875 68.5 21.796875 66.546875 
Q 19.921875 64.59375 19.921875 59.515625 
L 19.921875 54.6875 
L 34.71875 54.6875 
L 34.71875 47.703125 
L 19.921875 47.703125 
L 19.921875 0 
L 10.890625 0 
L 10.890625 47.703125 
L 2.296875 47.703125 
L 2.296875 54.6875 
L 10.890625 54.6875 
L 10.890625 58.5 
Q 10.890625 67.625 15.140625 71.796875 
Q 19.390625 75.984375 28.609375 75.984375 
z
" id="DejaVuSans-102"/>
       </defs>
       <use xlink:href="#DejaVuSans-69"/>
       <use x="63.183594" xlink:href="#DejaVuSans-120"/>
       <use x="122.363281" xlink:href="#DejaVuSans-116"/>
       <use x="161.572266" xlink:href="#DejaVuSans-114"/>
       <use x="200.435547" xlink:href="#DejaVuSans-101"/>
       <use x="261.958984" xlink:href="#DejaVuSans-109"/>
       <use x="359.371094" xlink:href="#DejaVuSans-101"/>
       <use x="420.894531" xlink:href="#DejaVuSans-108"/>
       <use x="448.677734" xlink:href="#DejaVuSans-121"/>
       <use x="507.857422" xlink:href="#DejaVuSans-32"/>
       <use x="539.644531" xlink:href="#DejaVuSans-104"/>
       <use x="603.023438" xlink:href="#DejaVuSans-97"/>
       <use x="664.302734" xlink:href="#DejaVuSans-114"/>
       <use x="703.666016" xlink:href="#DejaVuSans-109"/>
       <use x="801.078125" xlink:href="#DejaVuSans-102"/>
       <use x="836.283203" xlink:href="#DejaVuSans-117"/>
       <use x="899.662109" xlink:href="#DejaVuSans-108"/>
      </g>
     </g>
    </g>
    <g id="ytick_2">
     <g id="line2d_4">
      <g>
       <use style="fill:#262626;stroke:#262626;" x="110.4055" xlink:href="#me2a6746d6e" y="233.18664"/>
      </g>
     </g>
     <g id="text_5">
      <!-- Very harmful -->
      <g style="fill:#262626;" transform="translate(45.605375 236.529952)scale(0.088 -0.088)">
       <defs>
        <path d="M 28.609375 0 
L 0.78125 72.90625 
L 11.078125 72.90625 
L 34.1875 11.53125 
L 57.328125 72.90625 
L 67.578125 72.90625 
L 39.796875 0 
z
" id="DejaVuSans-86"/>
       </defs>
       <use xlink:href="#DejaVuSans-86"/>
       <use x="60.658203" xlink:href="#DejaVuSans-101"/>
       <use x="122.181641" xlink:href="#DejaVuSans-114"/>
       <use x="163.294922" xlink:href="#DejaVuSans-121"/>
       <use x="222.474609" xlink:href="#DejaVuSans-32"/>
       <use x="254.261719" xlink:href="#DejaVuSans-104"/>
       <use x="317.640625" xlink:href="#DejaVuSans-97"/>
       <use x="378.919922" xlink:href="#DejaVuSans-114"/>
       <use x="418.283203" xlink:href="#DejaVuSans-109"/>
       <use x="515.695312" xlink:href="#DejaVuSans-102"/>
       <use x="550.900391" xlink:href="#DejaVuSans-117"/>
       <use x="614.279297" xlink:href="#DejaVuSans-108"/>
      </g>
     </g>
    </g>
    <g id="ytick_3">
     <g id="line2d_5">
      <g>
       <use style="fill:#262626;stroke:#262626;" x="110.4055" xlink:href="#me2a6746d6e" y="180.302795"/>
      </g>
     </g>
     <g id="text_6">
      <!-- Harmful -->
      <g style="fill:#262626;" transform="translate(66.939875 183.646108)scale(0.088 -0.088)">
       <defs>
        <path d="M 9.8125 72.90625 
L 19.671875 72.90625 
L 19.671875 43.015625 
L 55.515625 43.015625 
L 55.515625 72.90625 
L 65.375 72.90625 
L 65.375 0 
L 55.515625 0 
L 55.515625 34.71875 
L 19.671875 34.71875 
L 19.671875 0 
L 9.8125 0 
z
" id="DejaVuSans-72"/>
       </defs>
       <use xlink:href="#DejaVuSans-72"/>
       <use x="75.195312" xlink:href="#DejaVuSans-97"/>
       <use x="136.474609" xlink:href="#DejaVuSans-114"/>
       <use x="175.837891" xlink:href="#DejaVuSans-109"/>
       <use x="273.25" xlink:href="#DejaVuSans-102"/>
       <use x="308.455078" xlink:href="#DejaVuSans-117"/>
       <use x="371.833984" xlink:href="#DejaVuSans-108"/>
      </g>
     </g>
    </g>
    <g id="ytick_4">
     <g id="line2d_6">
      <g>
       <use style="fill:#262626;stroke:#262626;" x="110.4055" xlink:href="#me2a6746d6e" y="127.418951"/>
      </g>
     </g>
     <g id="text_7">
      <!-- Not very harmful -->
      <g style="fill:#262626;" transform="translate(27.52 130.762263)scale(0.088 -0.088)">
       <defs>
        <path d="M 9.8125 72.90625 
L 23.09375 72.90625 
L 55.421875 11.921875 
L 55.421875 72.90625 
L 64.984375 72.90625 
L 64.984375 0 
L 51.703125 0 
L 19.390625 60.984375 
L 19.390625 0 
L 9.8125 0 
z
" id="DejaVuSans-78"/>
        <path d="M 2.984375 54.6875 
L 12.5 54.6875 
L 29.59375 8.796875 
L 46.6875 54.6875 
L 56.203125 54.6875 
L 35.6875 0 
L 23.484375 0 
z
" id="DejaVuSans-118"/>
       </defs>
       <use xlink:href="#DejaVuSans-78"/>
       <use x="74.804688" xlink:href="#DejaVuSans-111"/>
       <use x="135.986328" xlink:href="#DejaVuSans-116"/>
       <use x="175.195312" xlink:href="#DejaVuSans-32"/>
       <use x="206.982422" xlink:href="#DejaVuSans-118"/>
       <use x="266.162109" xlink:href="#DejaVuSans-101"/>
       <use x="327.685547" xlink:href="#DejaVuSans-114"/>
       <use x="368.798828" xlink:href="#DejaVuSans-121"/>
       <use x="427.978516" xlink:href="#DejaVuSans-32"/>
       <use x="459.765625" xlink:href="#DejaVuSans-104"/>
       <use x="523.144531" xlink:href="#DejaVuSans-97"/>
       <use x="584.423828" xlink:href="#DejaVuSans-114"/>
       <use x="623.787109" xlink:href="#DejaVuSans-109"/>
       <use x="721.199219" xlink:href="#DejaVuSans-102"/>
       <use x="756.404297" xlink:href="#DejaVuSans-117"/>
       <use x="819.783203" xlink:href="#DejaVuSans-108"/>
      </g>
     </g>
    </g>
    <g id="ytick_5">
     <g id="line2d_7">
      <g>
       <use style="fill:#262626;stroke:#262626;" x="110.4055" xlink:href="#me2a6746d6e" y="74.535107"/>
      </g>
     </g>
     <g id="text_8">
      <!-- Not harmful at all -->
      <g style="fill:#262626;" transform="translate(25.04775 77.878419)scale(0.088 -0.088)">
       <use xlink:href="#DejaVuSans-78"/>
       <use x="74.804688" xlink:href="#DejaVuSans-111"/>
       <use x="135.986328" xlink:href="#DejaVuSans-116"/>
       <use x="175.195312" xlink:href="#DejaVuSans-32"/>
       <use x="206.982422" xlink:href="#DejaVuSans-104"/>
       <use x="270.361328" xlink:href="#DejaVuSans-97"/>
       <use x="331.640625" xlink:href="#DejaVuSans-114"/>
       <use x="371.003906" xlink:href="#DejaVuSans-109"/>
       <use x="468.416016" xlink:href="#DejaVuSans-102"/>
       <use x="503.621094" xlink:href="#DejaVuSans-117"/>
       <use x="567" xlink:href="#DejaVuSans-108"/>
       <use x="594.783203" xlink:href="#DejaVuSans-32"/>
       <use x="626.570312" xlink:href="#DejaVuSans-97"/>
       <use x="687.849609" xlink:href="#DejaVuSans-116"/>
       <use x="727.058594" xlink:href="#DejaVuSans-32"/>
       <use x="758.845703" xlink:href="#DejaVuSans-97"/>
       <use x="820.125" xlink:href="#DejaVuSans-108"/>
       <use x="847.908203" xlink:href="#DejaVuSans-108"/>
      </g>
     </g>
    </g>
    <g id="text_9">
     <!-- Water Quality Perception -->
     <g style="fill:#262626;" transform="translate(14.4945 240.068795)rotate(-90)scale(0.096 -0.096)">
      <defs>
       <path d="M 19.671875 64.796875 
L 19.671875 37.40625 
L 32.078125 37.40625 
Q 38.96875 37.40625 42.71875 40.96875 
Q 46.484375 44.53125 46.484375 51.125 
Q 46.484375 57.671875 42.71875 61.234375 
Q 38.96875 64.796875 32.078125 64.796875 
z
M 9.8125 72.90625 
L 32.078125 72.90625 
Q 44.34375 72.90625 50.609375 67.359375 
Q 56.890625 61.8125 56.890625 51.125 
Q 56.890625 40.328125 50.609375 34.8125 
Q 44.34375 29.296875 32.078125 29.296875 
L 19.671875 29.296875 
L 19.671875 0 
L 9.8125 0 
z
" id="DejaVuSans-80"/>
      </defs>
      <use xlink:href="#DejaVuSans-87"/>
      <use x="92.501953" xlink:href="#DejaVuSans-97"/>
      <use x="153.78125" xlink:href="#DejaVuSans-116"/>
      <use x="192.990234" xlink:href="#DejaVuSans-101"/>
      <use x="254.513672" xlink:href="#DejaVuSans-114"/>
      <use x="295.626953" xlink:href="#DejaVuSans-32"/>
      <use x="327.414062" xlink:href="#DejaVuSans-81"/>
      <use x="406.125" xlink:href="#DejaVuSans-117"/>
      <use x="469.503906" xlink:href="#DejaVuSans-97"/>
      <use x="530.783203" xlink:href="#DejaVuSans-108"/>
      <use x="558.566406" xlink:href="#DejaVuSans-105"/>
      <use x="586.349609" xlink:href="#DejaVuSans-116"/>
      <use x="625.558594" xlink:href="#DejaVuSans-121"/>
      <use x="684.738281" xlink:href="#DejaVuSans-32"/>
      <use x="716.525391" xlink:href="#DejaVuSans-80"/>
      <use x="773.203125" xlink:href="#DejaVuSans-101"/>
      <use x="834.726562" xlink:href="#DejaVuSans-114"/>
      <use x="873.589844" xlink:href="#DejaVuSans-99"/>
      <use x="928.570312" xlink:href="#DejaVuSans-101"/>
      <use x="990.09375" xlink:href="#DejaVuSans-112"/>
      <use x="1053.570312" xlink:href="#DejaVuSans-116"/>
      <use x="1092.779297" xlink:href="#DejaVuSans-105"/>
      <use x="1120.5625" xlink:href="#DejaVuSans-111"/>
      <use x="1181.744141" xlink:href="#DejaVuSans-110"/>
     </g>
    </g>
   </g>
   <g id="PolyCollection_1">
    <defs>
     <path d="M 191.74025 -51.835777 
L 189.163088 -51.835777 
L 188.308999 -54.770732 
L 187.271239 -57.705687 
L 186.046027 -60.640642 
L 184.642094 -63.575597 
L 183.083 -66.510551 
L 181.408114 -69.445506 
L 179.671734 -72.380461 
L 177.940021 -75.315416 
L 176.28567 -78.250371 
L 174.780627 -81.185326 
L 173.487532 -84.120281 
L 172.450864 -87.055236 
L 171.689021 -89.990191 
L 171.188557 -92.925146 
L 170.901686 -95.860101 
L 170.747818 -98.795056 
L 170.619424 -101.73001 
L 170.391973 -104.664965 
L 169.937128 -107.59992 
L 169.137899 -110.534875 
L 167.904049 -113.46983 
L 166.185889 -116.404785 
L 163.984571 -119.33974 
L 161.357276 -122.274695 
L 158.416124 -125.20965 
L 155.320358 -128.144605 
L 152.262154 -131.07956 
L 149.44731 -134.014515 
L 147.072846 -136.94947 
L 145.304165 -139.884424 
L 144.254675 -142.819379 
L 143.97063 -145.754334 
L 144.423397 -148.689289 
L 145.510421 -151.624244 
L 147.065083 -154.559199 
L 148.874413 -157.494154 
L 150.702622 -160.429109 
L 152.317657 -163.364064 
L 153.51758 -166.299019 
L 154.153644 -169.233974 
L 154.147327 -172.168929 
L 153.499317 -175.103883 
L 152.289418 -178.038838 
L 150.667371 -180.973793 
L 148.835663 -183.908748 
L 147.02634 -186.843703 
L 145.474555 -189.778658 
L 144.39202 -192.713613 
L 143.943533 -195.648568 
L 144.229377 -198.583523 
L 145.27564 -201.518478 
L 147.033438 -204.453433 
L 149.386876 -207.388388 
L 152.168433 -210.323343 
L 155.179559 -213.258297 
L 158.213713 -216.193252 
L 161.078913 -219.128207 
L 163.617161 -222.063162 
L 165.718662 -224.998117 
L 167.329577 -227.933072 
L 168.452954 -230.868027 
L 169.143268 -233.802982 
L 169.495743 -236.737937 
L 169.632102 -239.672892 
L 169.684655 -242.607847 
L 169.780661 -245.542802 
L 170.028722 -248.477756 
L 170.508567 -251.412711 
L 171.265112 -254.347666 
L 172.307064 -257.282621 
L 173.60979 -260.217576 
L 175.121657 -263.152531 
L 176.772698 -266.087486 
L 178.484277 -269.022441 
L 180.178472 -271.957396 
L 181.786073 -274.892351 
L 183.252438 -277.827306 
L 184.540833 -280.762261 
L 185.633259 -283.697215 
L 186.529096 -286.63217 
L 187.242112 -289.567125 
L 187.796473 -292.50208 
L 188.222406 -295.437035 
L 188.552069 -298.37199 
L 188.816059 -301.306945 
L 189.040802 -304.2419 
L 189.246959 -307.176855 
L 189.448781 -310.11181 
L 189.654316 -313.046765 
L 189.866237 -315.98172 
L 190.083075 -318.916675 
L 190.300622 -321.851629 
L 190.513295 -324.786584 
L 190.715319 -327.721539 
L 190.901627 -330.656494 
L 191.06843 -333.591449 
L 191.213476 -336.526404 
L 191.336053 -339.461359 
L 191.436792 -342.396314 
L 191.74025 -342.396314 
L 191.74025 -342.396314 
L 191.74025 -339.461359 
L 191.74025 -336.526404 
L 191.74025 -333.591449 
L 191.74025 -330.656494 
L 191.74025 -327.721539 
L 191.74025 -324.786584 
L 191.74025 -321.851629 
L 191.74025 -318.916675 
L 191.74025 -315.98172 
L 191.74025 -313.046765 
L 191.74025 -310.11181 
L 191.74025 -307.176855 
L 191.74025 -304.2419 
L 191.74025 -301.306945 
L 191.74025 -298.37199 
L 191.74025 -295.437035 
L 191.74025 -292.50208 
L 191.74025 -289.567125 
L 191.74025 -286.63217 
L 191.74025 -283.697215 
L 191.74025 -280.762261 
L 191.74025 -277.827306 
L 191.74025 -274.892351 
L 191.74025 -271.957396 
L 191.74025 -269.022441 
L 191.74025 -266.087486 
L 191.74025 -263.152531 
L 191.74025 -260.217576 
L 191.74025 -257.282621 
L 191.74025 -254.347666 
L 191.74025 -251.412711 
L 191.74025 -248.477756 
L 191.74025 -245.542802 
L 191.74025 -242.607847 
L 191.74025 -239.672892 
L 191.74025 -236.737937 
L 191.74025 -233.802982 
L 191.74025 -230.868027 
L 191.74025 -227.933072 
L 191.74025 -224.998117 
L 191.74025 -222.063162 
L 191.74025 -219.128207 
L 191.74025 -216.193252 
L 191.74025 -213.258297 
L 191.74025 -210.323343 
L 191.74025 -207.388388 
L 191.74025 -204.453433 
L 191.74025 -201.518478 
L 191.74025 -198.583523 
L 191.74025 -195.648568 
L 191.74025 -192.713613 
L 191.74025 -189.778658 
L 191.74025 -186.843703 
L 191.74025 -183.908748 
L 191.74025 -180.973793 
L 191.74025 -178.038838 
L 191.74025 -175.103883 
L 191.74025 -172.168929 
L 191.74025 -169.233974 
L 191.74025 -166.299019 
L 191.74025 -163.364064 
L 191.74025 -160.429109 
L 191.74025 -157.494154 
L 191.74025 -154.559199 
L 191.74025 -151.624244 
L 191.74025 -148.689289 
L 191.74025 -145.754334 
L 191.74025 -142.819379 
L 191.74025 -139.884424 
L 191.74025 -136.94947 
L 191.74025 -134.014515 
L 191.74025 -131.07956 
L 191.74025 -128.144605 
L 191.74025 -125.20965 
L 191.74025 -122.274695 
L 191.74025 -119.33974 
L 191.74025 -116.404785 
L 191.74025 -113.46983 
L 191.74025 -110.534875 
L 191.74025 -107.59992 
L 191.74025 -104.664965 
L 191.74025 -101.73001 
L 191.74025 -98.795056 
L 191.74025 -95.860101 
L 191.74025 -92.925146 
L 191.74025 -89.990191 
L 191.74025 -87.055236 
L 191.74025 -84.120281 
L 191.74025 -81.185326 
L 191.74025 -78.250371 
L 191.74025 -75.315416 
L 191.74025 -72.380461 
L 191.74025 -69.445506 
L 191.74025 -66.510551 
L 191.74025 -63.575597 
L 191.74025 -60.640642 
L 191.74025 -57.705687 
L 191.74025 -54.770732 
L 191.74025 -51.835777 
z
" id="m86075fe203" style="stroke:#494949;stroke-width:1.2;"/>
    </defs>
    <g clip-path="url(#p0340964371)">
     <use style="fill:#6e5c99;stroke:#494949;stroke-width:1.2;" x="0" xlink:href="#m86075fe203" y="377.418841"/>
    </g>
   </g>
   <g id="PolyCollection_2">
    <defs>
     <path d="M 196.301701 -57.375753 
L 191.74025 -57.375753 
L 191.74025 -60.198789 
L 191.74025 -63.021825 
L 191.74025 -65.844862 
L 191.74025 -68.667898 
L 191.74025 -71.490934 
L 191.74025 -74.31397 
L 191.74025 -77.137007 
L 191.74025 -79.960043 
L 191.74025 -82.783079 
L 191.74025 -85.606115 
L 191.74025 -88.429151 
L 191.74025 -91.252188 
L 191.74025 -94.075224 
L 191.74025 -96.89826 
L 191.74025 -99.721296 
L 191.74025 -102.544332 
L 191.74025 -105.367369 
L 191.74025 -108.190405 
L 191.74025 -111.013441 
L 191.74025 -113.836477 
L 191.74025 -116.659513 
L 191.74025 -119.48255 
L 191.74025 -122.305586 
L 191.74025 -125.128622 
L 191.74025 -127.951658 
L 191.74025 -130.774694 
L 191.74025 -133.597731 
L 191.74025 -136.420767 
L 191.74025 -139.243803 
L 191.74025 -142.066839 
L 191.74025 -144.889876 
L 191.74025 -147.712912 
L 191.74025 -150.535948 
L 191.74025 -153.358984 
L 191.74025 -156.18202 
L 191.74025 -159.005057 
L 191.74025 -161.828093 
L 191.74025 -164.651129 
L 191.74025 -167.474165 
L 191.74025 -170.297201 
L 191.74025 -173.120238 
L 191.74025 -175.943274 
L 191.74025 -178.76631 
L 191.74025 -181.589346 
L 191.74025 -184.412382 
L 191.74025 -187.235419 
L 191.74025 -190.058455 
L 191.74025 -192.881491 
L 191.74025 -195.704527 
L 191.74025 -198.527563 
L 191.74025 -201.3506 
L 191.74025 -204.173636 
L 191.74025 -206.996672 
L 191.74025 -209.819708 
L 191.74025 -212.642745 
L 191.74025 -215.465781 
L 191.74025 -218.288817 
L 191.74025 -221.111853 
L 191.74025 -223.934889 
L 191.74025 -226.757926 
L 191.74025 -229.580962 
L 191.74025 -232.403998 
L 191.74025 -235.227034 
L 191.74025 -238.05007 
L 191.74025 -240.873107 
L 191.74025 -243.696143 
L 191.74025 -246.519179 
L 191.74025 -249.342215 
L 191.74025 -252.165251 
L 191.74025 -254.988288 
L 191.74025 -257.811324 
L 191.74025 -260.63436 
L 191.74025 -263.457396 
L 191.74025 -266.280432 
L 191.74025 -269.103469 
L 191.74025 -271.926505 
L 191.74025 -274.749541 
L 191.74025 -277.572577 
L 191.74025 -280.395614 
L 191.74025 -283.21865 
L 191.74025 -286.041686 
L 191.74025 -288.864722 
L 191.74025 -291.687758 
L 191.74025 -294.510795 
L 191.74025 -297.333831 
L 191.74025 -300.156867 
L 191.74025 -302.979903 
L 191.74025 -305.802939 
L 191.74025 -308.625976 
L 191.74025 -311.449012 
L 191.74025 -314.272048 
L 191.74025 -317.095084 
L 191.74025 -319.91812 
L 191.74025 -322.741157 
L 191.74025 -325.564193 
L 191.74025 -328.387229 
L 191.74025 -331.210265 
L 191.74025 -334.033301 
L 191.74025 -336.856338 
L 191.874429 -336.856338 
L 191.874429 -336.856338 
L 191.924791 -334.033301 
L 191.98716 -331.210265 
L 192.06165 -328.387229 
L 192.147306 -325.564193 
L 192.24193 -322.741157 
L 192.342078 -319.91812 
L 192.443276 -317.095084 
L 192.540498 -314.272048 
L 192.628894 -311.449012 
L 192.70473 -308.625976 
L 192.766445 -305.802939 
L 192.815696 -302.979903 
L 192.858258 -300.156867 
L 192.904622 -297.333831 
L 192.97015 -294.510795 
L 193.07465 -291.687758 
L 193.241287 -288.864722 
L 193.494745 -286.041686 
L 193.858669 -283.21865 
L 194.352494 -280.395614 
L 194.987916 -277.572577 
L 195.765443 -274.749541 
L 196.671575 -271.926505 
L 197.677304 -269.103469 
L 198.738542 -266.280432 
L 199.798948 -263.457396 
L 200.795282 -260.63436 
L 201.664998 -257.811324 
L 202.355306 -254.988288 
L 202.8326 -252.165251 
L 203.090905 -249.342215 
L 203.158045 -246.519179 
L 203.098398 -243.696143 
L 203.01154 -240.873107 
L 203.026434 -238.05007 
L 203.291319 -235.227034 
L 203.959771 -232.403998 
L 205.173831 -229.580962 
L 207.04544 -226.757926 
L 209.637918 -223.934889 
L 212.949653 -221.111853 
L 216.90258 -218.288817 
L 221.338099 -215.465781 
L 226.022683 -212.642745 
L 230.664376 -209.819708 
L 234.939781 -206.996672 
L 238.529173 -204.173636 
L 241.155507 -201.3506 
L 242.621808 -198.527563 
L 242.841093 -195.704527 
L 241.853835 -192.881491 
L 239.829814 -190.058455 
L 237.05369 -187.235419 
L 233.896138 -184.412382 
L 230.774404 -181.589346 
L 228.107311 -178.76631 
L 226.269995 -175.943274 
L 225.553146 -173.120238 
L 226.130647 -170.297201 
L 228.038514 -167.474165 
L 231.16719 -164.651129 
L 235.268348 -161.828093 
L 239.976456 -159.005057 
L 244.844029 -156.18202 
L 249.387837 -153.358984 
L 253.141527 -150.535948 
L 255.708498 -147.712912 
L 256.80805 -144.889876 
L 256.308149 -142.066839 
L 254.23987 -139.243803 
L 250.791291 -136.420767 
L 246.281975 -133.597731 
L 241.122197 -130.774694 
L 235.763278 -127.951658 
L 230.646248 -125.128622 
L 226.155499 -122.305586 
L 222.582546 -119.48255 
L 220.102916 -116.659513 
L 218.767079 -113.836477 
L 218.50471 -111.013441 
L 219.140448 -108.190405 
L 220.418695 -105.367369 
L 222.034649 -102.544332 
L 223.668502 -99.721296 
L 225.019491 -96.89826 
L 225.836352 -94.075224 
L 225.940914 -91.252188 
L 225.24214 -88.429151 
L 223.739144 -85.606115 
L 221.513176 -82.783079 
L 218.710292 -79.960043 
L 215.517782 -77.137007 
L 212.138274 -74.31397 
L 208.765459 -71.490934 
L 205.564709 -68.667898 
L 202.660592 -65.844862 
L 200.131863 -63.021825 
L 198.01316 -60.198789 
L 196.301701 -57.375753 
z
" id="mfbacc21c77" style="stroke:#494949;stroke-width:1.2;"/>
    </defs>
    <g clip-path="url(#p0340964371)">
     <use style="fill:#a3a0c3;stroke:#494949;stroke-width:1.2;" x="0" xlink:href="#mfbacc21c77" y="377.418841"/>
    </g>
   </g>
   <g id="PolyCollection_3">
    <defs>
     <path d="M 354.40975 -55.781251 
L 353.715967 -55.781251 
L 353.465414 -58.636499 
L 353.157009 -61.491747 
L 352.790016 -64.346996 
L 352.368477 -67.202244 
L 351.902052 -70.057493 
L 351.406199 -72.912741 
L 350.901502 -75.767989 
L 350.411983 -78.623238 
L 349.962437 -81.478486 
L 349.574963 -84.333734 
L 349.265073 -87.188983 
L 349.037871 -90.044231 
L 348.884868 -92.89948 
L 348.781985 -95.754728 
L 348.689209 -98.609976 
L 348.552225 -101.465225 
L 348.306148 -104.320473 
L 347.88127 -107.175721 
L 347.210513 -110.03097 
L 346.238013 -112.886218 
L 344.928029 -115.741467 
L 343.273135 -118.596715 
L 341.300469 -121.451963 
L 339.074826 -124.307212 
L 336.697521 -127.16246 
L 334.300407 -130.017709 
L 332.035072 -132.872957 
L 330.058047 -135.728205 
L 328.513686 -138.583454 
L 327.51696 -141.438702 
L 327.138687 -144.29395 
L 327.395524 -147.149199 
L 328.246385 -150.004447 
L 329.595971 -152.859696 
L 331.304978 -155.714944 
L 333.205538 -158.570192 
L 335.119733 -161.425441 
L 336.878712 -164.280689 
L 338.340058 -167.135937 
L 339.401477 -169.991186 
L 340.009529 -172.846434 
L 340.162784 -175.701683 
L 339.909411 -178.556931 
L 339.339733 -181.412179 
L 338.57471 -184.267428 
L 337.751629 -187.122676 
L 337.008546 -189.977924 
L 336.469168 -192.833173 
L 336.229847 -195.688421 
L 336.350171 -198.54367 
L 336.848197 -201.398918 
L 337.700775 -204.254166 
L 338.848716 -207.109415 
L 340.205881 -209.964663 
L 341.670767 -212.819911 
L 343.138922 -215.67516 
L 344.514547 -218.530408 
L 345.71994 -221.385657 
L 346.701898 -224.240905 
L 347.434713 -227.096153 
L 347.919851 -229.951402 
L 348.182781 -232.80665 
L 348.267657 -235.661898 
L 348.230642 -238.517147 
L 348.132693 -241.372395 
L 348.032579 -244.227644 
L 347.980801 -247.082892 
L 348.014976 -249.93814 
L 348.157043 -252.793389 
L 348.412472 -255.648637 
L 348.771409 -258.503885 
L 349.211461 -261.359134 
L 349.701652 -264.214382 
L 350.206956 -267.069631 
L 350.692816 -269.924879 
L 351.129088 -272.780127 
L 351.493039 -275.635376 
L 351.771161 -278.490624 
L 351.959756 -281.345872 
L 352.064395 -284.201121 
L 352.098439 -287.056369 
L 352.080901 -289.911618 
L 352.033921 -292.766866 
L 351.980167 -295.622114 
L 351.940401 -298.477363 
L 351.931486 -301.332611 
L 351.964988 -304.18786 
L 352.046495 -307.043108 
L 352.175691 -309.898356 
L 352.347085 -312.753605 
L 352.551267 -315.608853 
L 352.776466 -318.464101 
L 353.010167 -321.31935 
L 353.240567 -324.174598 
L 353.4577 -327.029847 
L 353.654142 -329.885095 
L 353.825266 -332.740343 
L 353.96912 -335.595592 
L 354.086012 -338.45084 
L 354.40975 -338.45084 
L 354.40975 -338.45084 
L 354.40975 -335.595592 
L 354.40975 -332.740343 
L 354.40975 -329.885095 
L 354.40975 -327.029847 
L 354.40975 -324.174598 
L 354.40975 -321.31935 
L 354.40975 -318.464101 
L 354.40975 -315.608853 
L 354.40975 -312.753605 
L 354.40975 -309.898356 
L 354.40975 -307.043108 
L 354.40975 -304.18786 
L 354.40975 -301.332611 
L 354.40975 -298.477363 
L 354.40975 -295.622114 
L 354.40975 -292.766866 
L 354.40975 -289.911618 
L 354.40975 -287.056369 
L 354.40975 -284.201121 
L 354.40975 -281.345872 
L 354.40975 -278.490624 
L 354.40975 -275.635376 
L 354.40975 -272.780127 
L 354.40975 -269.924879 
L 354.40975 -267.069631 
L 354.40975 -264.214382 
L 354.40975 -261.359134 
L 354.40975 -258.503885 
L 354.40975 -255.648637 
L 354.40975 -252.793389 
L 354.40975 -249.93814 
L 354.40975 -247.082892 
L 354.40975 -244.227644 
L 354.40975 -241.372395 
L 354.40975 -238.517147 
L 354.40975 -235.661898 
L 354.40975 -232.80665 
L 354.40975 -229.951402 
L 354.40975 -227.096153 
L 354.40975 -224.240905 
L 354.40975 -221.385657 
L 354.40975 -218.530408 
L 354.40975 -215.67516 
L 354.40975 -212.819911 
L 354.40975 -209.964663 
L 354.40975 -207.109415 
L 354.40975 -204.254166 
L 354.40975 -201.398918 
L 354.40975 -198.54367 
L 354.40975 -195.688421 
L 354.40975 -192.833173 
L 354.40975 -189.977924 
L 354.40975 -187.122676 
L 354.40975 -184.267428 
L 354.40975 -181.412179 
L 354.40975 -178.556931 
L 354.40975 -175.701683 
L 354.40975 -172.846434 
L 354.40975 -169.991186 
L 354.40975 -167.135937 
L 354.40975 -164.280689 
L 354.40975 -161.425441 
L 354.40975 -158.570192 
L 354.40975 -155.714944 
L 354.40975 -152.859696 
L 354.40975 -150.004447 
L 354.40975 -147.149199 
L 354.40975 -144.29395 
L 354.40975 -141.438702 
L 354.40975 -138.583454 
L 354.40975 -135.728205 
L 354.40975 -132.872957 
L 354.40975 -130.017709 
L 354.40975 -127.16246 
L 354.40975 -124.307212 
L 354.40975 -121.451963 
L 354.40975 -118.596715 
L 354.40975 -115.741467 
L 354.40975 -112.886218 
L 354.40975 -110.03097 
L 354.40975 -107.175721 
L 354.40975 -104.320473 
L 354.40975 -101.465225 
L 354.40975 -98.609976 
L 354.40975 -95.754728 
L 354.40975 -92.89948 
L 354.40975 -90.044231 
L 354.40975 -87.188983 
L 354.40975 -84.333734 
L 354.40975 -81.478486 
L 354.40975 -78.623238 
L 354.40975 -75.767989 
L 354.40975 -72.912741 
L 354.40975 -70.057493 
L 354.40975 -67.202244 
L 354.40975 -64.346996 
L 354.40975 -61.491747 
L 354.40975 -58.636499 
L 354.40975 -55.781251 
z
" id="m250f2ecc04" style="stroke:#494949;stroke-width:1.2;"/>
    </defs>
    <g clip-path="url(#p0340964371)">
     <use style="fill:#6e5c99;stroke:#494949;stroke-width:1.2;" x="0" xlink:href="#m250f2ecc04" y="377.418841"/>
    </g>
   </g>
   <g id="PolyCollection_4">
    <defs>
     <path d="M 359.12099 -64.448023 
L 354.40975 -64.448023 
L 354.40975 -67.128185 
L 354.40975 -69.808347 
L 354.40975 -72.488509 
L 354.40975 -75.168671 
L 354.40975 -77.848834 
L 354.40975 -80.528996 
L 354.40975 -83.209158 
L 354.40975 -85.88932 
L 354.40975 -88.569482 
L 354.40975 -91.249644 
L 354.40975 -93.929806 
L 354.40975 -96.609968 
L 354.40975 -99.29013 
L 354.40975 -101.970292 
L 354.40975 -104.650454 
L 354.40975 -107.330616 
L 354.40975 -110.010778 
L 354.40975 -112.69094 
L 354.40975 -115.371102 
L 354.40975 -118.051264 
L 354.40975 -120.731427 
L 354.40975 -123.411589 
L 354.40975 -126.091751 
L 354.40975 -128.771913 
L 354.40975 -131.452075 
L 354.40975 -134.132237 
L 354.40975 -136.812399 
L 354.40975 -139.492561 
L 354.40975 -142.172723 
L 354.40975 -144.852885 
L 354.40975 -147.533047 
L 354.40975 -150.213209 
L 354.40975 -152.893371 
L 354.40975 -155.573533 
L 354.40975 -158.253695 
L 354.40975 -160.933858 
L 354.40975 -163.61402 
L 354.40975 -166.294182 
L 354.40975 -168.974344 
L 354.40975 -171.654506 
L 354.40975 -174.334668 
L 354.40975 -177.01483 
L 354.40975 -179.694992 
L 354.40975 -182.375154 
L 354.40975 -185.055316 
L 354.40975 -187.735478 
L 354.40975 -190.41564 
L 354.40975 -193.095802 
L 354.40975 -195.775964 
L 354.40975 -198.456126 
L 354.40975 -201.136288 
L 354.40975 -203.816451 
L 354.40975 -206.496613 
L 354.40975 -209.176775 
L 354.40975 -211.856937 
L 354.40975 -214.537099 
L 354.40975 -217.217261 
L 354.40975 -219.897423 
L 354.40975 -222.577585 
L 354.40975 -225.257747 
L 354.40975 -227.937909 
L 354.40975 -230.618071 
L 354.40975 -233.298233 
L 354.40975 -235.978395 
L 354.40975 -238.658557 
L 354.40975 -241.338719 
L 354.40975 -244.018881 
L 354.40975 -246.699044 
L 354.40975 -249.379206 
L 354.40975 -252.059368 
L 354.40975 -254.73953 
L 354.40975 -257.419692 
L 354.40975 -260.099854 
L 354.40975 -262.780016 
L 354.40975 -265.460178 
L 354.40975 -268.14034 
L 354.40975 -270.820502 
L 354.40975 -273.500664 
L 354.40975 -276.180826 
L 354.40975 -278.860988 
L 354.40975 -281.54115 
L 354.40975 -284.221312 
L 354.40975 -286.901475 
L 354.40975 -289.581637 
L 354.40975 -292.261799 
L 354.40975 -294.941961 
L 354.40975 -297.622123 
L 354.40975 -300.302285 
L 354.40975 -302.982447 
L 354.40975 -305.662609 
L 354.40975 -308.342771 
L 354.40975 -311.022933 
L 354.40975 -313.703095 
L 354.40975 -316.383257 
L 354.40975 -319.063419 
L 354.40975 -321.743581 
L 354.40975 -324.423743 
L 354.40975 -327.103905 
L 354.40975 -329.784068 
L 354.715108 -329.784068 
L 354.715108 -329.784068 
L 354.855681 -327.103905 
L 355.035616 -324.423743 
L 355.253961 -321.743581 
L 355.504152 -319.063419 
L 355.773265 -316.383257 
L 356.042432 -313.703095 
L 356.288661 -311.022933 
L 356.487927 -308.342771 
L 356.619028 -305.662609 
L 356.667374 -302.982447 
L 356.62784 -300.302285 
L 356.505965 -297.622123 
L 356.317241 -294.941961 
L 356.084745 -292.261799 
L 355.835771 -289.581637 
L 355.598301 -286.901475 
L 355.398068 -284.221312 
L 355.25657 -281.54115 
L 355.190034 -278.860988 
L 355.208955 -276.180826 
L 355.317732 -273.500664 
L 355.514064 -270.820502 
L 355.788112 -268.14034 
L 356.121776 -265.460178 
L 356.488743 -262.780016 
L 356.85593 -260.099854 
L 357.186662 -257.419692 
L 357.44543 -254.73953 
L 357.603484 -252.059368 
L 357.644189 -249.379206 
L 357.567024 -246.699044 
L 357.389498 -244.018881 
L 357.146867 -241.338719 
L 356.890186 -238.658557 
L 356.683542 -235.978395 
L 356.601197 -233.298233 
L 356.724732 -230.618071 
L 357.139465 -227.937909 
L 357.928722 -225.257747 
L 359.164471 -222.577585 
L 360.893684 -219.897423 
L 363.12149 -217.217261 
L 365.794366 -214.537099 
L 368.788391 -211.856937 
L 371.908161 -209.176775 
L 374.900551 -206.496613 
L 377.484148 -203.816451 
L 379.390675 -201.136288 
L 380.410523 -198.456126 
L 380.432279 -195.775964 
L 379.466906 -193.095802 
L 377.651138 -190.41564 
L 375.230265 -187.735478 
L 372.525965 -185.055316 
L 369.898045 -182.375154 
L 367.708818 -179.694992 
L 366.295495 -177.01483 
L 365.95095 -174.334668 
L 366.908686 -171.654506 
L 369.325814 -168.974344 
L 373.259505 -166.294182 
L 378.637325 -163.61402 
L 385.228282 -160.933858 
L 392.626719 -158.253695 
L 400.262474 -155.573533 
L 407.446643 -152.893371 
L 413.453024 -150.213209 
L 417.623734 -147.533047 
L 419.47755 -144.852885 
L 418.795355 -142.172723 
L 415.6609 -139.492561 
L 410.446184 -136.812399 
L 403.745526 -134.132237 
L 396.275719 -131.452075 
L 388.767057 -128.771913 
L 381.869275 -126.091751 
L 376.088609 -123.411589 
L 371.760718 -120.731427 
L 369.053443 -118.051264 
L 367.987 -115.371102 
L 368.458531 -112.69094 
L 370.262368 -110.010778 
L 373.104206 -107.330616 
L 376.613692 -104.650454 
L 380.362966 -101.970292 
L 383.897492 -99.29013 
L 386.780508 -96.609968 
L 388.645827 -93.929806 
L 389.248225 -91.249644 
L 388.498683 -88.569482 
L 386.474322 -85.88932 
L 383.399181 -83.209158 
L 379.599902 -80.528996 
L 375.44691 -77.848834 
L 371.29484 -75.168671 
L 367.434733 -72.488509 
L 364.065974 -69.808347 
L 361.289829 -67.128185 
L 359.12099 -64.448023 
z
" id="m6a05871c62" style="stroke:#494949;stroke-width:1.2;"/>
    </defs>
    <g clip-path="url(#p0340964371)">
     <use style="fill:#a3a0c3;stroke:#494949;stroke-width:1.2;" x="0" xlink:href="#m6a05871c62" y="377.418841"/>
    </g>
   </g>
   <g id="patch_3">
    <path clip-path="url(#p0340964371)" d="M 191.74025 338.954329 
L 191.74025 338.954329 
L 191.74025 338.954329 
L 191.74025 338.954329 
z
" style="fill:#6e5c99;stroke:#494949;stroke-linejoin:miter;stroke-width:0.6;"/>
   </g>
   <g id="patch_4">
    <path clip-path="url(#p0340964371)" d="M 191.74025 338.954329 
L 191.74025 338.954329 
L 191.74025 338.954329 
L 191.74025 338.954329 
z
" style="fill:#a3a0c3;stroke:#494949;stroke-linejoin:miter;stroke-width:0.6;"/>
   </g>
   <g id="line2d_8">
    <path clip-path="url(#p0340964371)" d="M 191.74025 286.070484 
L 191.74025 127.418951 
" style="fill:none;stroke:#494949;stroke-linecap:round;stroke-width:1.2;"/>
   </g>
   <g id="line2d_9">
    <path clip-path="url(#p0340964371)" d="M 191.74025 233.18664 
L 191.74025 180.302795 
" style="fill:none;stroke:#494949;stroke-linecap:round;stroke-width:3.6;"/>
   </g>
   <g id="line2d_10">
    <path clip-path="url(#p0340964371)" d="M 354.40975 286.070484 
L 354.40975 127.418951 
" style="fill:none;stroke:#494949;stroke-linecap:round;stroke-width:1.2;"/>
   </g>
   <g id="line2d_11">
    <path clip-path="url(#p0340964371)" d="M 354.40975 233.18664 
L 354.40975 180.302795 
" style="fill:none;stroke:#494949;stroke-linecap:round;stroke-width:3.6;"/>
   </g>
   <g id="patch_5">
    <path d="M 110.4055 340.111091 
L 110.4055 20.4945 
" style="fill:none;stroke:#262626;stroke-linecap:square;stroke-linejoin:miter;"/>
   </g>
   <g id="patch_6">
    <path d="M 110.4055 340.111091 
L 435.7445 340.111091 
" style="fill:none;stroke:#262626;stroke-linecap:square;stroke-linejoin:miter;"/>
   </g>
   <g id="PathCollection_1">
    <defs>
     <path d="M 0 1.2 
C 0.318244 1.2 0.623496 1.07356 0.848528 0.848528 
C 1.07356 0.623496 1.2 0.318244 1.2 0 
C 1.2 -0.318244 1.07356 -0.623496 0.848528 -0.848528 
C 0.623496 -1.07356 0.318244 -1.2 0 -1.2 
C -0.318244 -1.2 -0.623496 -1.07356 -0.848528 -0.848528 
C -1.07356 -0.623496 -1.2 -0.318244 -1.2 0 
C -1.2 0.318244 -1.07356 0.623496 -0.848528 0.848528 
C -0.623496 1.07356 -0.318244 1.2 0 1.2 
z
" id="m73453ce9f1" style="stroke:#494949;stroke-width:0.8;"/>
    </defs>
    <g clip-path="url(#p0340964371)">
     <use style="fill:#ffffff;stroke:#494949;stroke-width:0.8;" x="191.74025" xlink:href="#m73453ce9f1" y="233.18664"/>
    </g>
   </g>
   <g id="PathCollection_2">
    <g clip-path="url(#p0340964371)">
     <use style="fill:#ffffff;stroke:#494949;stroke-width:0.8;" x="354.40975" xlink:href="#m73453ce9f1" y="233.18664"/>
    </g>
   </g>
   <g id="text_10">
    <!-- Water Quality Perception vs. Water Quality Knowledge -->
    <g style="fill:#262626;" transform="translate(142.611 14.4945)scale(0.096 -0.096)">
     <defs>
      <path d="M 10.6875 12.40625 
L 21 12.40625 
L 21 0 
L 10.6875 0 
z
" id="DejaVuSans-46"/>
     </defs>
     <use xlink:href="#DejaVuSans-87"/>
     <use x="92.501953" xlink:href="#DejaVuSans-97"/>
     <use x="153.78125" xlink:href="#DejaVuSans-116"/>
     <use x="192.990234" xlink:href="#DejaVuSans-101"/>
     <use x="254.513672" xlink:href="#DejaVuSans-114"/>
     <use x="295.626953" xlink:href="#DejaVuSans-32"/>
     <use x="327.414062" xlink:href="#DejaVuSans-81"/>
     <use x="406.125" xlink:href="#DejaVuSans-117"/>
     <use x="469.503906" xlink:href="#DejaVuSans-97"/>
     <use x="530.783203" xlink:href="#DejaVuSans-108"/>
     <use x="558.566406" xlink:href="#DejaVuSans-105"/>
     <use x="586.349609" xlink:href="#DejaVuSans-116"/>
     <use x="625.558594" xlink:href="#DejaVuSans-121"/>
     <use x="684.738281" xlink:href="#DejaVuSans-32"/>
     <use x="716.525391" xlink:href="#DejaVuSans-80"/>
     <use x="773.203125" xlink:href="#DejaVuSans-101"/>
     <use x="834.726562" xlink:href="#DejaVuSans-114"/>
     <use x="873.589844" xlink:href="#DejaVuSans-99"/>
     <use x="928.570312" xlink:href="#DejaVuSans-101"/>
     <use x="990.09375" xlink:href="#DejaVuSans-112"/>
     <use x="1053.570312" xlink:href="#DejaVuSans-116"/>
     <use x="1092.779297" xlink:href="#DejaVuSans-105"/>
     <use x="1120.5625" xlink:href="#DejaVuSans-111"/>
     <use x="1181.744141" xlink:href="#DejaVuSans-110"/>
     <use x="1245.123047" xlink:href="#DejaVuSans-32"/>
     <use x="1276.910156" xlink:href="#DejaVuSans-118"/>
     <use x="1336.089844" xlink:href="#DejaVuSans-115"/>
     <use x="1388.189453" xlink:href="#DejaVuSans-46"/>
     <use x="1419.976562" xlink:href="#DejaVuSans-32"/>
     <use x="1451.763672" xlink:href="#DejaVuSans-87"/>
     <use x="1544.265625" xlink:href="#DejaVuSans-97"/>
     <use x="1605.544922" xlink:href="#DejaVuSans-116"/>
     <use x="1644.753906" xlink:href="#DejaVuSans-101"/>
     <use x="1706.277344" xlink:href="#DejaVuSans-114"/>
     <use x="1747.390625" xlink:href="#DejaVuSans-32"/>
     <use x="1779.177734" xlink:href="#DejaVuSans-81"/>
     <use x="1857.888672" xlink:href="#DejaVuSans-117"/>
     <use x="1921.267578" xlink:href="#DejaVuSans-97"/>
     <use x="1982.546875" xlink:href="#DejaVuSans-108"/>
     <use x="2010.330078" xlink:href="#DejaVuSans-105"/>
     <use x="2038.113281" xlink:href="#DejaVuSans-116"/>
     <use x="2077.322266" xlink:href="#DejaVuSans-121"/>
     <use x="2136.501953" xlink:href="#DejaVuSans-32"/>
     <use x="2168.289062" xlink:href="#DejaVuSans-75"/>
     <use x="2233.865234" xlink:href="#DejaVuSans-110"/>
     <use x="2297.244141" xlink:href="#DejaVuSans-111"/>
     <use x="2358.425781" xlink:href="#DejaVuSans-119"/>
     <use x="2440.212891" xlink:href="#DejaVuSans-108"/>
     <use x="2467.996094" xlink:href="#DejaVuSans-101"/>
     <use x="2529.519531" xlink:href="#DejaVuSans-100"/>
     <use x="2592.996094" xlink:href="#DejaVuSans-103"/>
     <use x="2656.472656" xlink:href="#DejaVuSans-101"/>
    </g>
   </g>
   <g id="legend_1">
    <g id="patch_7">
     <path d="M 334.6755 67.059 
L 429.5845 67.059 
Q 431.3445 67.059 431.3445 65.299 
L 431.3445 26.6545 
Q 431.3445 24.8945 429.5845 24.8945 
L 334.6755 24.8945 
Q 332.9155 24.8945 332.9155 26.6545 
L 332.9155 65.299 
Q 332.9155 67.059 334.6755 67.059 
z
" style="fill:#ffffff;opacity:0.8;stroke:#cccccc;stroke-linejoin:miter;stroke-width:0.8;"/>
    </g>
    <g id="text_11">
     <!-- Rural Classification -->
     <g style="fill:#262626;" transform="translate(336.4355 35.709)scale(0.096 -0.096)">
      <defs>
       <path d="M 44.390625 34.1875 
Q 47.5625 33.109375 50.5625 29.59375 
Q 53.5625 26.078125 56.59375 19.921875 
L 66.609375 0 
L 56 0 
L 46.6875 18.703125 
Q 43.0625 26.03125 39.671875 28.421875 
Q 36.28125 30.8125 30.421875 30.8125 
L 19.671875 30.8125 
L 19.671875 0 
L 9.8125 0 
L 9.8125 72.90625 
L 32.078125 72.90625 
Q 44.578125 72.90625 50.734375 67.671875 
Q 56.890625 62.453125 56.890625 51.90625 
Q 56.890625 45.015625 53.6875 40.46875 
Q 50.484375 35.9375 44.390625 34.1875 
z
M 19.671875 64.796875 
L 19.671875 38.921875 
L 32.078125 38.921875 
Q 39.203125 38.921875 42.84375 42.21875 
Q 46.484375 45.515625 46.484375 51.90625 
Q 46.484375 58.296875 42.84375 61.546875 
Q 39.203125 64.796875 32.078125 64.796875 
z
" id="DejaVuSans-82"/>
       <path d="M 64.40625 67.28125 
L 64.40625 56.890625 
Q 59.421875 61.53125 53.78125 63.8125 
Q 48.140625 66.109375 41.796875 66.109375 
Q 29.296875 66.109375 22.65625 58.46875 
Q 16.015625 50.828125 16.015625 36.375 
Q 16.015625 21.96875 22.65625 14.328125 
Q 29.296875 6.6875 41.796875 6.6875 
Q 48.140625 6.6875 53.78125 8.984375 
Q 59.421875 11.28125 64.40625 15.921875 
L 64.40625 5.609375 
Q 59.234375 2.09375 53.4375 0.328125 
Q 47.65625 -1.421875 41.21875 -1.421875 
Q 24.65625 -1.421875 15.125 8.703125 
Q 5.609375 18.84375 5.609375 36.375 
Q 5.609375 53.953125 15.125 64.078125 
Q 24.65625 74.21875 41.21875 74.21875 
Q 47.75 74.21875 53.53125 72.484375 
Q 59.328125 70.75 64.40625 67.28125 
z
" id="DejaVuSans-67"/>
      </defs>
      <use xlink:href="#DejaVuSans-82"/>
      <use x="64.982422" xlink:href="#DejaVuSans-117"/>
      <use x="128.361328" xlink:href="#DejaVuSans-114"/>
      <use x="169.474609" xlink:href="#DejaVuSans-97"/>
      <use x="230.753906" xlink:href="#DejaVuSans-108"/>
      <use x="258.537109" xlink:href="#DejaVuSans-32"/>
      <use x="290.324219" xlink:href="#DejaVuSans-67"/>
      <use x="360.148438" xlink:href="#DejaVuSans-108"/>
      <use x="387.931641" xlink:href="#DejaVuSans-97"/>
      <use x="449.210938" xlink:href="#DejaVuSans-115"/>
      <use x="501.310547" xlink:href="#DejaVuSans-115"/>
      <use x="553.410156" xlink:href="#DejaVuSans-105"/>
      <use x="581.193359" xlink:href="#DejaVuSans-102"/>
      <use x="616.398438" xlink:href="#DejaVuSans-105"/>
      <use x="644.181641" xlink:href="#DejaVuSans-99"/>
      <use x="699.162109" xlink:href="#DejaVuSans-97"/>
      <use x="760.441406" xlink:href="#DejaVuSans-116"/>
      <use x="799.650391" xlink:href="#DejaVuSans-105"/>
      <use x="827.433594" xlink:href="#DejaVuSans-111"/>
      <use x="888.615234" xlink:href="#DejaVuSans-110"/>
     </g>
    </g>
    <g id="patch_8">
     <path d="M 348.074687 48.792125 
L 365.674687 48.792125 
L 365.674687 42.632125 
L 348.074687 42.632125 
z
" style="fill:#6e5c99;stroke:#494949;stroke-linejoin:miter;stroke-width:0.6;"/>
    </g>
    <g id="text_12">
     <!-- Rural -->
     <g style="fill:#262626;" transform="translate(372.714687 48.792125)scale(0.088 -0.088)">
      <use xlink:href="#DejaVuSans-82"/>
      <use x="64.982422" xlink:href="#DejaVuSans-117"/>
      <use x="128.361328" xlink:href="#DejaVuSans-114"/>
      <use x="169.474609" xlink:href="#DejaVuSans-97"/>
      <use x="230.753906" xlink:href="#DejaVuSans-108"/>
     </g>
    </g>
    <g id="patch_9">
     <path d="M 348.074687 61.708875 
L 365.674687 61.708875 
L 365.674687 55.548875 
L 348.074687 55.548875 
z
" style="fill:#a3a0c3;stroke:#494949;stroke-linejoin:miter;stroke-width:0.6;"/>
    </g>
    <g id="text_13">
     <!-- Non-Rural -->
     <g style="fill:#262626;" transform="translate(372.714687 61.708875)scale(0.088 -0.088)">
      <defs>
       <path d="M 4.890625 31.390625 
L 31.203125 31.390625 
L 31.203125 23.390625 
L 4.890625 23.390625 
z
" id="DejaVuSans-45"/>
      </defs>
      <use xlink:href="#DejaVuSans-78"/>
      <use x="74.804688" xlink:href="#DejaVuSans-111"/>
      <use x="135.986328" xlink:href="#DejaVuSans-110"/>
      <use x="199.365234" xlink:href="#DejaVuSans-45"/>
      <use x="235.449219" xlink:href="#DejaVuSans-82"/>
      <use x="300.431641" xlink:href="#DejaVuSans-117"/>
      <use x="363.810547" xlink:href="#DejaVuSans-114"/>
      <use x="404.923828" xlink:href="#DejaVuSans-97"/>
      <use x="466.203125" xlink:href="#DejaVuSans-108"/>
     </g>
    </g>
   </g>
  </g>
 </g>
 <defs>
  <clipPath id="p0340964371">
   <rect height="319.616591" width="325.339" x="110.4055" y="20.4945"/>
  </clipPath>
 </defs>
</svg>
