<?xml version="1.0" encoding="utf-8" standalone="no"?>
<!DOCTYPE svg PUBLIC "-//W3C//DTD SVG 1.1//EN"
  "http://www.w3.org/Graphics/SVG/1.1/DTD/svg11.dtd">
<!-- Created with matplotlib (https://matplotlib.org/) -->
<svg height="379.76625pt" version="1.1" viewBox="0 0 467.295169 379.76625" width="467.295169pt" xmlns="http://www.w3.org/2000/svg" xmlns:xlink="http://www.w3.org/1999/xlink">
 <metadata>
  <rdf:RDF xmlns:cc="http://creativecommons.org/ns#" xmlns:dc="http://purl.org/dc/elements/1.1/" xmlns:rdf="http://www.w3.org/1999/02/22-rdf-syntax-ns#">
   <cc:Work>
    <dc:type rdf:resource="http://purl.org/dc/dcmitype/StillImage"/>
    <dc:date>2022-02-28T15:43:05.734146</dc:date>
    <dc:format>image/svg+xml</dc:format>
    <dc:creator>
     <cc:Agent>
      <dc:title>Matplotlib v3.3.4, https://matplotlib.org/</dc:title>
     </cc:Agent>
    </dc:creator>
   </cc:Work>
  </rdf:RDF>
 </metadata>
 <defs>
  <style type="text/css">*{stroke-linecap:butt;stroke-linejoin:round;}</style>
 </defs>
 <g id="figure_1">
  <g id="patch_1">
   <path d="M 0 379.76625 
L 467.295169 379.76625 
L 467.295169 -0 
L 0 -0 
z
" style="fill:#ffffff;"/>
  </g>
  <g id="axes_1">
   <g id="patch_2">
    <path d="M 95.628375 342.4585 
L 414.758369 342.4585 
L 414.758369 20.4945 
L 95.628375 20.4945 
z
" style="fill:#ffffff;"/>
   </g>
   <g id="matplotlib.axis_1">
    <g id="xtick_1">
     <g id="line2d_1">
      <defs>
       <path d="M 0 0 
L 0 4.8 
" id="m3ea7ef5a85" style="stroke:#262626;"/>
      </defs>
      <g>
       <use style="fill:#262626;stroke:#262626;" x="95.628375" xlink:href="#m3ea7ef5a85" y="342.4585"/>
      </g>
     </g>
     <g id="text_1">
      <!-- I don't care at all -->
      <g style="fill:#262626;" transform="translate(58.43325 357.445125)scale(0.088 -0.088)">
       <defs>
        <path d="M 9.8125 72.90625 
L 19.671875 72.90625 
L 19.671875 0 
L 9.8125 0 
z
" id="DejaVuSans-73"/>
        <path id="DejaVuSans-32"/>
        <path d="M 45.40625 46.390625 
L 45.40625 75.984375 
L 54.390625 75.984375 
L 54.390625 0 
L 45.40625 0 
L 45.40625 8.203125 
Q 42.578125 3.328125 38.25 0.953125 
Q 33.9375 -1.421875 27.875 -1.421875 
Q 17.96875 -1.421875 11.734375 6.484375 
Q 5.515625 14.40625 5.515625 27.296875 
Q 5.515625 40.1875 11.734375 48.09375 
Q 17.96875 56 27.875 56 
Q 33.9375 56 38.25 53.625 
Q 42.578125 51.265625 45.40625 46.390625 
z
M 14.796875 27.296875 
Q 14.796875 17.390625 18.875 11.75 
Q 22.953125 6.109375 30.078125 6.109375 
Q 37.203125 6.109375 41.296875 11.75 
Q 45.40625 17.390625 45.40625 27.296875 
Q 45.40625 37.203125 41.296875 42.84375 
Q 37.203125 48.484375 30.078125 48.484375 
Q 22.953125 48.484375 18.875 42.84375 
Q 14.796875 37.203125 14.796875 27.296875 
z
" id="DejaVuSans-100"/>
        <path d="M 30.609375 48.390625 
Q 23.390625 48.390625 19.1875 42.75 
Q 14.984375 37.109375 14.984375 27.296875 
Q 14.984375 17.484375 19.15625 11.84375 
Q 23.34375 6.203125 30.609375 6.203125 
Q 37.796875 6.203125 41.984375 11.859375 
Q 46.1875 17.53125 46.1875 27.296875 
Q 46.1875 37.015625 41.984375 42.703125 
Q 37.796875 48.390625 30.609375 48.390625 
z
M 30.609375 56 
Q 42.328125 56 49.015625 48.375 
Q 55.71875 40.765625 55.71875 27.296875 
Q 55.71875 13.875 49.015625 6.21875 
Q 42.328125 -1.421875 30.609375 -1.421875 
Q 18.84375 -1.421875 12.171875 6.21875 
Q 5.515625 13.875 5.515625 27.296875 
Q 5.515625 40.765625 12.171875 48.375 
Q 18.84375 56 30.609375 56 
z
" id="DejaVuSans-111"/>
        <path d="M 54.890625 33.015625 
L 54.890625 0 
L 45.90625 0 
L 45.90625 32.71875 
Q 45.90625 40.484375 42.875 44.328125 
Q 39.84375 48.1875 33.796875 48.1875 
Q 26.515625 48.1875 22.3125 43.546875 
Q 18.109375 38.921875 18.109375 30.90625 
L 18.109375 0 
L 9.078125 0 
L 9.078125 54.6875 
L 18.109375 54.6875 
L 18.109375 46.1875 
Q 21.34375 51.125 25.703125 53.5625 
Q 30.078125 56 35.796875 56 
Q 45.21875 56 50.046875 50.171875 
Q 54.890625 44.34375 54.890625 33.015625 
z
" id="DejaVuSans-110"/>
        <path d="M 17.921875 72.90625 
L 17.921875 45.796875 
L 9.625 45.796875 
L 9.625 72.90625 
z
" id="DejaVuSans-39"/>
        <path d="M 18.3125 70.21875 
L 18.3125 54.6875 
L 36.8125 54.6875 
L 36.8125 47.703125 
L 18.3125 47.703125 
L 18.3125 18.015625 
Q 18.3125 11.328125 20.140625 9.421875 
Q 21.96875 7.515625 27.59375 7.515625 
L 36.8125 7.515625 
L 36.8125 0 
L 27.59375 0 
Q 17.1875 0 13.234375 3.875 
Q 9.28125 7.765625 9.28125 18.015625 
L 9.28125 47.703125 
L 2.6875 47.703125 
L 2.6875 54.6875 
L 9.28125 54.6875 
L 9.28125 70.21875 
z
" id="DejaVuSans-116"/>
        <path d="M 48.78125 52.59375 
L 48.78125 44.1875 
Q 44.96875 46.296875 41.140625 47.34375 
Q 37.3125 48.390625 33.40625 48.390625 
Q 24.65625 48.390625 19.8125 42.84375 
Q 14.984375 37.3125 14.984375 27.296875 
Q 14.984375 17.28125 19.8125 11.734375 
Q 24.65625 6.203125 33.40625 6.203125 
Q 37.3125 6.203125 41.140625 7.25 
Q 44.96875 8.296875 48.78125 10.40625 
L 48.78125 2.09375 
Q 45.015625 0.34375 40.984375 -0.53125 
Q 36.96875 -1.421875 32.421875 -1.421875 
Q 20.0625 -1.421875 12.78125 6.34375 
Q 5.515625 14.109375 5.515625 27.296875 
Q 5.515625 40.671875 12.859375 48.328125 
Q 20.21875 56 33.015625 56 
Q 37.15625 56 41.109375 55.140625 
Q 45.0625 54.296875 48.78125 52.59375 
z
" id="DejaVuSans-99"/>
        <path d="M 34.28125 27.484375 
Q 23.390625 27.484375 19.1875 25 
Q 14.984375 22.515625 14.984375 16.5 
Q 14.984375 11.71875 18.140625 8.90625 
Q 21.296875 6.109375 26.703125 6.109375 
Q 34.1875 6.109375 38.703125 11.40625 
Q 43.21875 16.703125 43.21875 25.484375 
L 43.21875 27.484375 
z
M 52.203125 31.203125 
L 52.203125 0 
L 43.21875 0 
L 43.21875 8.296875 
Q 40.140625 3.328125 35.546875 0.953125 
Q 30.953125 -1.421875 24.3125 -1.421875 
Q 15.921875 -1.421875 10.953125 3.296875 
Q 6 8.015625 6 15.921875 
Q 6 25.140625 12.171875 29.828125 
Q 18.359375 34.515625 30.609375 34.515625 
L 43.21875 34.515625 
L 43.21875 35.40625 
Q 43.21875 41.609375 39.140625 45 
Q 35.0625 48.390625 27.6875 48.390625 
Q 23 48.390625 18.546875 47.265625 
Q 14.109375 46.140625 10.015625 43.890625 
L 10.015625 52.203125 
Q 14.9375 54.109375 19.578125 55.046875 
Q 24.21875 56 28.609375 56 
Q 40.484375 56 46.34375 49.84375 
Q 52.203125 43.703125 52.203125 31.203125 
z
" id="DejaVuSans-97"/>
        <path d="M 41.109375 46.296875 
Q 39.59375 47.171875 37.8125 47.578125 
Q 36.03125 48 33.890625 48 
Q 26.265625 48 22.1875 43.046875 
Q 18.109375 38.09375 18.109375 28.8125 
L 18.109375 0 
L 9.078125 0 
L 9.078125 54.6875 
L 18.109375 54.6875 
L 18.109375 46.1875 
Q 20.953125 51.171875 25.484375 53.578125 
Q 30.03125 56 36.53125 56 
Q 37.453125 56 38.578125 55.875 
Q 39.703125 55.765625 41.0625 55.515625 
z
" id="DejaVuSans-114"/>
        <path d="M 56.203125 29.59375 
L 56.203125 25.203125 
L 14.890625 25.203125 
Q 15.484375 15.921875 20.484375 11.0625 
Q 25.484375 6.203125 34.421875 6.203125 
Q 39.59375 6.203125 44.453125 7.46875 
Q 49.3125 8.734375 54.109375 11.28125 
L 54.109375 2.78125 
Q 49.265625 0.734375 44.1875 -0.34375 
Q 39.109375 -1.421875 33.890625 -1.421875 
Q 20.796875 -1.421875 13.15625 6.1875 
Q 5.515625 13.8125 5.515625 26.8125 
Q 5.515625 40.234375 12.765625 48.109375 
Q 20.015625 56 32.328125 56 
Q 43.359375 56 49.78125 48.890625 
Q 56.203125 41.796875 56.203125 29.59375 
z
M 47.21875 32.234375 
Q 47.125 39.59375 43.09375 43.984375 
Q 39.0625 48.390625 32.421875 48.390625 
Q 24.90625 48.390625 20.390625 44.140625 
Q 15.875 39.890625 15.1875 32.171875 
z
" id="DejaVuSans-101"/>
        <path d="M 9.421875 75.984375 
L 18.40625 75.984375 
L 18.40625 0 
L 9.421875 0 
z
" id="DejaVuSans-108"/>
       </defs>
       <use xlink:href="#DejaVuSans-73"/>
       <use x="29.492188" xlink:href="#DejaVuSans-32"/>
       <use x="61.279297" xlink:href="#DejaVuSans-100"/>
       <use x="124.755859" xlink:href="#DejaVuSans-111"/>
       <use x="185.9375" xlink:href="#DejaVuSans-110"/>
       <use x="249.316406" xlink:href="#DejaVuSans-39"/>
       <use x="276.806641" xlink:href="#DejaVuSans-116"/>
       <use x="316.015625" xlink:href="#DejaVuSans-32"/>
       <use x="347.802734" xlink:href="#DejaVuSans-99"/>
       <use x="402.783203" xlink:href="#DejaVuSans-97"/>
       <use x="464.0625" xlink:href="#DejaVuSans-114"/>
       <use x="502.925781" xlink:href="#DejaVuSans-101"/>
       <use x="564.449219" xlink:href="#DejaVuSans-32"/>
       <use x="596.236328" xlink:href="#DejaVuSans-97"/>
       <use x="657.515625" xlink:href="#DejaVuSans-116"/>
       <use x="696.724609" xlink:href="#DejaVuSans-32"/>
       <use x="728.511719" xlink:href="#DejaVuSans-97"/>
       <use x="789.791016" xlink:href="#DejaVuSans-108"/>
       <use x="817.574219" xlink:href="#DejaVuSans-108"/>
      </g>
     </g>
    </g>
    <g id="xtick_2">
     <g id="line2d_2">
      <g>
       <use style="fill:#262626;stroke:#262626;" x="175.410873" xlink:href="#m3ea7ef5a85" y="342.4585"/>
      </g>
     </g>
     <g id="text_2">
      <!-- Less caring -->
      <g style="fill:#262626;" transform="translate(150.617561 357.445125)scale(0.088 -0.088)">
       <defs>
        <path d="M 9.8125 72.90625 
L 19.671875 72.90625 
L 19.671875 8.296875 
L 55.171875 8.296875 
L 55.171875 0 
L 9.8125 0 
z
" id="DejaVuSans-76"/>
        <path d="M 44.28125 53.078125 
L 44.28125 44.578125 
Q 40.484375 46.53125 36.375 47.5 
Q 32.28125 48.484375 27.875 48.484375 
Q 21.1875 48.484375 17.84375 46.4375 
Q 14.5 44.390625 14.5 40.28125 
Q 14.5 37.15625 16.890625 35.375 
Q 19.28125 33.59375 26.515625 31.984375 
L 29.59375 31.296875 
Q 39.15625 29.25 43.1875 25.515625 
Q 47.21875 21.78125 47.21875 15.09375 
Q 47.21875 7.46875 41.1875 3.015625 
Q 35.15625 -1.421875 24.609375 -1.421875 
Q 20.21875 -1.421875 15.453125 -0.5625 
Q 10.6875 0.296875 5.421875 2 
L 5.421875 11.28125 
Q 10.40625 8.6875 15.234375 7.390625 
Q 20.0625 6.109375 24.8125 6.109375 
Q 31.15625 6.109375 34.5625 8.28125 
Q 37.984375 10.453125 37.984375 14.40625 
Q 37.984375 18.0625 35.515625 20.015625 
Q 33.0625 21.96875 24.703125 23.78125 
L 21.578125 24.515625 
Q 13.234375 26.265625 9.515625 29.90625 
Q 5.8125 33.546875 5.8125 39.890625 
Q 5.8125 47.609375 11.28125 51.796875 
Q 16.75 56 26.8125 56 
Q 31.78125 56 36.171875 55.265625 
Q 40.578125 54.546875 44.28125 53.078125 
z
" id="DejaVuSans-115"/>
        <path d="M 9.421875 54.6875 
L 18.40625 54.6875 
L 18.40625 0 
L 9.421875 0 
z
M 9.421875 75.984375 
L 18.40625 75.984375 
L 18.40625 64.59375 
L 9.421875 64.59375 
z
" id="DejaVuSans-105"/>
        <path d="M 45.40625 27.984375 
Q 45.40625 37.75 41.375 43.109375 
Q 37.359375 48.484375 30.078125 48.484375 
Q 22.859375 48.484375 18.828125 43.109375 
Q 14.796875 37.75 14.796875 27.984375 
Q 14.796875 18.265625 18.828125 12.890625 
Q 22.859375 7.515625 30.078125 7.515625 
Q 37.359375 7.515625 41.375 12.890625 
Q 45.40625 18.265625 45.40625 27.984375 
z
M 54.390625 6.78125 
Q 54.390625 -7.171875 48.1875 -13.984375 
Q 42 -20.796875 29.203125 -20.796875 
Q 24.46875 -20.796875 20.265625 -20.09375 
Q 16.0625 -19.390625 12.109375 -17.921875 
L 12.109375 -9.1875 
Q 16.0625 -11.328125 19.921875 -12.34375 
Q 23.78125 -13.375 27.78125 -13.375 
Q 36.625 -13.375 41.015625 -8.765625 
Q 45.40625 -4.15625 45.40625 5.171875 
L 45.40625 9.625 
Q 42.625 4.78125 38.28125 2.390625 
Q 33.9375 0 27.875 0 
Q 17.828125 0 11.671875 7.65625 
Q 5.515625 15.328125 5.515625 27.984375 
Q 5.515625 40.671875 11.671875 48.328125 
Q 17.828125 56 27.875 56 
Q 33.9375 56 38.28125 53.609375 
Q 42.625 51.21875 45.40625 46.390625 
L 45.40625 54.6875 
L 54.390625 54.6875 
z
" id="DejaVuSans-103"/>
       </defs>
       <use xlink:href="#DejaVuSans-76"/>
       <use x="53.962891" xlink:href="#DejaVuSans-101"/>
       <use x="115.486328" xlink:href="#DejaVuSans-115"/>
       <use x="167.585938" xlink:href="#DejaVuSans-115"/>
       <use x="219.685547" xlink:href="#DejaVuSans-32"/>
       <use x="251.472656" xlink:href="#DejaVuSans-99"/>
       <use x="306.453125" xlink:href="#DejaVuSans-97"/>
       <use x="367.732422" xlink:href="#DejaVuSans-114"/>
       <use x="408.845703" xlink:href="#DejaVuSans-105"/>
       <use x="436.628906" xlink:href="#DejaVuSans-110"/>
       <use x="500.007812" xlink:href="#DejaVuSans-103"/>
      </g>
     </g>
    </g>
    <g id="xtick_3">
     <g id="line2d_3">
      <g>
       <use style="fill:#262626;stroke:#262626;" x="255.193372" xlink:href="#m3ea7ef5a85" y="342.4585"/>
      </g>
     </g>
     <g id="text_3">
      <!-- Neutral -->
      <g style="fill:#262626;" transform="translate(238.953247 357.445125)scale(0.088 -0.088)">
       <defs>
        <path d="M 9.8125 72.90625 
L 23.09375 72.90625 
L 55.421875 11.921875 
L 55.421875 72.90625 
L 64.984375 72.90625 
L 64.984375 0 
L 51.703125 0 
L 19.390625 60.984375 
L 19.390625 0 
L 9.8125 0 
z
" id="DejaVuSans-78"/>
        <path d="M 8.5 21.578125 
L 8.5 54.6875 
L 17.484375 54.6875 
L 17.484375 21.921875 
Q 17.484375 14.15625 20.5 10.265625 
Q 23.53125 6.390625 29.59375 6.390625 
Q 36.859375 6.390625 41.078125 11.03125 
Q 45.3125 15.671875 45.3125 23.6875 
L 45.3125 54.6875 
L 54.296875 54.6875 
L 54.296875 0 
L 45.3125 0 
L 45.3125 8.40625 
Q 42.046875 3.421875 37.71875 1 
Q 33.40625 -1.421875 27.6875 -1.421875 
Q 18.265625 -1.421875 13.375 4.4375 
Q 8.5 10.296875 8.5 21.578125 
z
M 31.109375 56 
z
" id="DejaVuSans-117"/>
       </defs>
       <use xlink:href="#DejaVuSans-78"/>
       <use x="74.804688" xlink:href="#DejaVuSans-101"/>
       <use x="136.328125" xlink:href="#DejaVuSans-117"/>
       <use x="199.707031" xlink:href="#DejaVuSans-116"/>
       <use x="238.916016" xlink:href="#DejaVuSans-114"/>
       <use x="280.029297" xlink:href="#DejaVuSans-97"/>
       <use x="341.308594" xlink:href="#DejaVuSans-108"/>
      </g>
     </g>
    </g>
    <g id="xtick_4">
     <g id="line2d_4">
      <g>
       <use style="fill:#262626;stroke:#262626;" x="334.97587" xlink:href="#m3ea7ef5a85" y="342.4585"/>
      </g>
     </g>
     <g id="text_4">
      <!-- Quite concerned -->
      <g style="fill:#262626;" transform="translate(298.622933 357.445125)scale(0.088 -0.088)">
       <defs>
        <path d="M 39.40625 66.21875 
Q 28.65625 66.21875 22.328125 58.203125 
Q 16.015625 50.203125 16.015625 36.375 
Q 16.015625 22.609375 22.328125 14.59375 
Q 28.65625 6.59375 39.40625 6.59375 
Q 50.140625 6.59375 56.421875 14.59375 
Q 62.703125 22.609375 62.703125 36.375 
Q 62.703125 50.203125 56.421875 58.203125 
Q 50.140625 66.21875 39.40625 66.21875 
z
M 53.21875 1.3125 
L 66.21875 -12.890625 
L 54.296875 -12.890625 
L 43.5 -1.21875 
Q 41.890625 -1.3125 41.03125 -1.359375 
Q 40.1875 -1.421875 39.40625 -1.421875 
Q 24.03125 -1.421875 14.8125 8.859375 
Q 5.609375 19.140625 5.609375 36.375 
Q 5.609375 53.65625 14.8125 63.9375 
Q 24.03125 74.21875 39.40625 74.21875 
Q 54.734375 74.21875 63.90625 63.9375 
Q 73.09375 53.65625 73.09375 36.375 
Q 73.09375 23.6875 67.984375 14.640625 
Q 62.890625 5.609375 53.21875 1.3125 
z
" id="DejaVuSans-81"/>
       </defs>
       <use xlink:href="#DejaVuSans-81"/>
       <use x="78.710938" xlink:href="#DejaVuSans-117"/>
       <use x="142.089844" xlink:href="#DejaVuSans-105"/>
       <use x="169.873047" xlink:href="#DejaVuSans-116"/>
       <use x="209.082031" xlink:href="#DejaVuSans-101"/>
       <use x="270.605469" xlink:href="#DejaVuSans-32"/>
       <use x="302.392578" xlink:href="#DejaVuSans-99"/>
       <use x="357.373047" xlink:href="#DejaVuSans-111"/>
       <use x="418.554688" xlink:href="#DejaVuSans-110"/>
       <use x="481.933594" xlink:href="#DejaVuSans-99"/>
       <use x="536.914062" xlink:href="#DejaVuSans-101"/>
       <use x="598.4375" xlink:href="#DejaVuSans-114"/>
       <use x="637.800781" xlink:href="#DejaVuSans-110"/>
       <use x="701.179688" xlink:href="#DejaVuSans-101"/>
       <use x="762.703125" xlink:href="#DejaVuSans-100"/>
      </g>
     </g>
    </g>
    <g id="xtick_5">
     <g id="line2d_5">
      <g>
       <use style="fill:#262626;stroke:#262626;" x="414.758369" xlink:href="#m3ea7ef5a85" y="342.4585"/>
      </g>
     </g>
     <g id="text_5">
      <!-- Very concerned -->
      <g style="fill:#262626;" transform="translate(380.522931 357.445125)scale(0.088 -0.088)">
       <defs>
        <path d="M 28.609375 0 
L 0.78125 72.90625 
L 11.078125 72.90625 
L 34.1875 11.53125 
L 57.328125 72.90625 
L 67.578125 72.90625 
L 39.796875 0 
z
" id="DejaVuSans-86"/>
        <path d="M 32.171875 -5.078125 
Q 28.375 -14.84375 24.75 -17.8125 
Q 21.140625 -20.796875 15.09375 -20.796875 
L 7.90625 -20.796875 
L 7.90625 -13.28125 
L 13.1875 -13.28125 
Q 16.890625 -13.28125 18.9375 -11.515625 
Q 21 -9.765625 23.484375 -3.21875 
L 25.09375 0.875 
L 2.984375 54.6875 
L 12.5 54.6875 
L 29.59375 11.921875 
L 46.6875 54.6875 
L 56.203125 54.6875 
z
" id="DejaVuSans-121"/>
       </defs>
       <use xlink:href="#DejaVuSans-86"/>
       <use x="60.658203" xlink:href="#DejaVuSans-101"/>
       <use x="122.181641" xlink:href="#DejaVuSans-114"/>
       <use x="163.294922" xlink:href="#DejaVuSans-121"/>
       <use x="222.474609" xlink:href="#DejaVuSans-32"/>
       <use x="254.261719" xlink:href="#DejaVuSans-99"/>
       <use x="309.242188" xlink:href="#DejaVuSans-111"/>
       <use x="370.423828" xlink:href="#DejaVuSans-110"/>
       <use x="433.802734" xlink:href="#DejaVuSans-99"/>
       <use x="488.783203" xlink:href="#DejaVuSans-101"/>
       <use x="550.306641" xlink:href="#DejaVuSans-114"/>
       <use x="589.669922" xlink:href="#DejaVuSans-110"/>
       <use x="653.048828" xlink:href="#DejaVuSans-101"/>
       <use x="714.572266" xlink:href="#DejaVuSans-100"/>
      </g>
     </g>
    </g>
    <g id="text_6">
     <!-- Environmental Concern -->
     <g style="fill:#262626;" transform="translate(198.891622 370.56975)scale(0.096 -0.096)">
      <defs>
       <path d="M 9.8125 72.90625 
L 55.90625 72.90625 
L 55.90625 64.59375 
L 19.671875 64.59375 
L 19.671875 43.015625 
L 54.390625 43.015625 
L 54.390625 34.71875 
L 19.671875 34.71875 
L 19.671875 8.296875 
L 56.78125 8.296875 
L 56.78125 0 
L 9.8125 0 
z
" id="DejaVuSans-69"/>
       <path d="M 2.984375 54.6875 
L 12.5 54.6875 
L 29.59375 8.796875 
L 46.6875 54.6875 
L 56.203125 54.6875 
L 35.6875 0 
L 23.484375 0 
z
" id="DejaVuSans-118"/>
       <path d="M 52 44.1875 
Q 55.375 50.25 60.0625 53.125 
Q 64.75 56 71.09375 56 
Q 79.640625 56 84.28125 50.015625 
Q 88.921875 44.046875 88.921875 33.015625 
L 88.921875 0 
L 79.890625 0 
L 79.890625 32.71875 
Q 79.890625 40.578125 77.09375 44.375 
Q 74.3125 48.1875 68.609375 48.1875 
Q 61.625 48.1875 57.5625 43.546875 
Q 53.515625 38.921875 53.515625 30.90625 
L 53.515625 0 
L 44.484375 0 
L 44.484375 32.71875 
Q 44.484375 40.625 41.703125 44.40625 
Q 38.921875 48.1875 33.109375 48.1875 
Q 26.21875 48.1875 22.15625 43.53125 
Q 18.109375 38.875 18.109375 30.90625 
L 18.109375 0 
L 9.078125 0 
L 9.078125 54.6875 
L 18.109375 54.6875 
L 18.109375 46.1875 
Q 21.1875 51.21875 25.484375 53.609375 
Q 29.78125 56 35.6875 56 
Q 41.65625 56 45.828125 52.96875 
Q 50 49.953125 52 44.1875 
z
" id="DejaVuSans-109"/>
       <path d="M 64.40625 67.28125 
L 64.40625 56.890625 
Q 59.421875 61.53125 53.78125 63.8125 
Q 48.140625 66.109375 41.796875 66.109375 
Q 29.296875 66.109375 22.65625 58.46875 
Q 16.015625 50.828125 16.015625 36.375 
Q 16.015625 21.96875 22.65625 14.328125 
Q 29.296875 6.6875 41.796875 6.6875 
Q 48.140625 6.6875 53.78125 8.984375 
Q 59.421875 11.28125 64.40625 15.921875 
L 64.40625 5.609375 
Q 59.234375 2.09375 53.4375 0.328125 
Q 47.65625 -1.421875 41.21875 -1.421875 
Q 24.65625 -1.421875 15.125 8.703125 
Q 5.609375 18.84375 5.609375 36.375 
Q 5.609375 53.953125 15.125 64.078125 
Q 24.65625 74.21875 41.21875 74.21875 
Q 47.75 74.21875 53.53125 72.484375 
Q 59.328125 70.75 64.40625 67.28125 
z
" id="DejaVuSans-67"/>
      </defs>
      <use xlink:href="#DejaVuSans-69"/>
      <use x="63.183594" xlink:href="#DejaVuSans-110"/>
      <use x="126.5625" xlink:href="#DejaVuSans-118"/>
      <use x="185.742188" xlink:href="#DejaVuSans-105"/>
      <use x="213.525391" xlink:href="#DejaVuSans-114"/>
      <use x="252.388672" xlink:href="#DejaVuSans-111"/>
      <use x="313.570312" xlink:href="#DejaVuSans-110"/>
      <use x="376.949219" xlink:href="#DejaVuSans-109"/>
      <use x="474.361328" xlink:href="#DejaVuSans-101"/>
      <use x="535.884766" xlink:href="#DejaVuSans-110"/>
      <use x="599.263672" xlink:href="#DejaVuSans-116"/>
      <use x="638.472656" xlink:href="#DejaVuSans-97"/>
      <use x="699.751953" xlink:href="#DejaVuSans-108"/>
      <use x="727.535156" xlink:href="#DejaVuSans-32"/>
      <use x="759.322266" xlink:href="#DejaVuSans-67"/>
      <use x="829.146484" xlink:href="#DejaVuSans-111"/>
      <use x="890.328125" xlink:href="#DejaVuSans-110"/>
      <use x="953.707031" xlink:href="#DejaVuSans-99"/>
      <use x="1008.6875" xlink:href="#DejaVuSans-101"/>
      <use x="1070.210938" xlink:href="#DejaVuSans-114"/>
      <use x="1109.574219" xlink:href="#DejaVuSans-110"/>
     </g>
    </g>
   </g>
   <g id="matplotlib.axis_2">
    <g id="ytick_1">
     <g id="line2d_6">
      <defs>
       <path d="M 0 0 
L -4.8 0 
" id="m545e1d2ac0" style="stroke:#262626;"/>
      </defs>
      <g>
       <use style="fill:#262626;stroke:#262626;" x="95.628375" xlink:href="#m545e1d2ac0" y="332.397125"/>
      </g>
     </g>
     <g id="text_7">
      <!-- Very serions -->
      <g style="fill:#262626;" transform="translate(33.345875 335.740437)scale(0.088 -0.088)">
       <use xlink:href="#DejaVuSans-86"/>
       <use x="60.658203" xlink:href="#DejaVuSans-101"/>
       <use x="122.181641" xlink:href="#DejaVuSans-114"/>
       <use x="163.294922" xlink:href="#DejaVuSans-121"/>
       <use x="222.474609" xlink:href="#DejaVuSans-32"/>
       <use x="254.261719" xlink:href="#DejaVuSans-115"/>
       <use x="306.361328" xlink:href="#DejaVuSans-101"/>
       <use x="367.884766" xlink:href="#DejaVuSans-114"/>
       <use x="408.998047" xlink:href="#DejaVuSans-105"/>
       <use x="436.78125" xlink:href="#DejaVuSans-111"/>
       <use x="497.962891" xlink:href="#DejaVuSans-110"/>
       <use x="561.341797" xlink:href="#DejaVuSans-115"/>
      </g>
     </g>
    </g>
    <g id="ytick_2">
     <g id="line2d_7">
      <g>
       <use style="fill:#262626;stroke:#262626;" x="95.628375" xlink:href="#m545e1d2ac0" y="231.783375"/>
      </g>
     </g>
     <g id="text_8">
      <!-- Quite serious -->
      <g style="fill:#262626;" transform="translate(29.110875 235.126687)scale(0.088 -0.088)">
       <use xlink:href="#DejaVuSans-81"/>
       <use x="78.710938" xlink:href="#DejaVuSans-117"/>
       <use x="142.089844" xlink:href="#DejaVuSans-105"/>
       <use x="169.873047" xlink:href="#DejaVuSans-116"/>
       <use x="209.082031" xlink:href="#DejaVuSans-101"/>
       <use x="270.605469" xlink:href="#DejaVuSans-32"/>
       <use x="302.392578" xlink:href="#DejaVuSans-115"/>
       <use x="354.492188" xlink:href="#DejaVuSans-101"/>
       <use x="416.015625" xlink:href="#DejaVuSans-114"/>
       <use x="457.128906" xlink:href="#DejaVuSans-105"/>
       <use x="484.912109" xlink:href="#DejaVuSans-111"/>
       <use x="546.09375" xlink:href="#DejaVuSans-117"/>
       <use x="609.472656" xlink:href="#DejaVuSans-115"/>
      </g>
     </g>
    </g>
    <g id="ytick_3">
     <g id="line2d_8">
      <g>
       <use style="fill:#262626;stroke:#262626;" x="95.628375" xlink:href="#m545e1d2ac0" y="131.169625"/>
      </g>
     </g>
     <g id="text_9">
      <!-- Neutral -->
      <g style="fill:#262626;" transform="translate(54.848125 134.512937)scale(0.088 -0.088)">
       <use xlink:href="#DejaVuSans-78"/>
       <use x="74.804688" xlink:href="#DejaVuSans-101"/>
       <use x="136.328125" xlink:href="#DejaVuSans-117"/>
       <use x="199.707031" xlink:href="#DejaVuSans-116"/>
       <use x="238.916016" xlink:href="#DejaVuSans-114"/>
       <use x="280.029297" xlink:href="#DejaVuSans-97"/>
       <use x="341.308594" xlink:href="#DejaVuSans-108"/>
      </g>
     </g>
    </g>
    <g id="ytick_4">
     <g id="line2d_9">
      <g>
       <use style="fill:#262626;stroke:#262626;" x="95.628375" xlink:href="#m545e1d2ac0" y="30.555875"/>
      </g>
     </g>
     <g id="text_10">
      <!-- Not too serious -->
      <g style="fill:#262626;" transform="translate(20.491 33.899187)scale(0.088 -0.088)">
       <use xlink:href="#DejaVuSans-78"/>
       <use x="74.804688" xlink:href="#DejaVuSans-111"/>
       <use x="135.986328" xlink:href="#DejaVuSans-116"/>
       <use x="175.195312" xlink:href="#DejaVuSans-32"/>
       <use x="206.982422" xlink:href="#DejaVuSans-116"/>
       <use x="246.191406" xlink:href="#DejaVuSans-111"/>
       <use x="307.373047" xlink:href="#DejaVuSans-111"/>
       <use x="368.554688" xlink:href="#DejaVuSans-32"/>
       <use x="400.341797" xlink:href="#DejaVuSans-115"/>
       <use x="452.441406" xlink:href="#DejaVuSans-101"/>
       <use x="513.964844" xlink:href="#DejaVuSans-114"/>
       <use x="555.078125" xlink:href="#DejaVuSans-105"/>
       <use x="582.861328" xlink:href="#DejaVuSans-111"/>
       <use x="644.042969" xlink:href="#DejaVuSans-117"/>
       <use x="707.421875" xlink:href="#DejaVuSans-115"/>
      </g>
     </g>
    </g>
    <g id="text_11">
     <!-- Environmental Severity in China -->
     <g style="fill:#262626;" transform="translate(14.4945 258.8855)rotate(-90)scale(0.096 -0.096)">
      <defs>
       <path d="M 53.515625 70.515625 
L 53.515625 60.890625 
Q 47.90625 63.578125 42.921875 64.890625 
Q 37.9375 66.21875 33.296875 66.21875 
Q 25.25 66.21875 20.875 63.09375 
Q 16.5 59.96875 16.5 54.203125 
Q 16.5 49.359375 19.40625 46.890625 
Q 22.3125 44.4375 30.421875 42.921875 
L 36.375 41.703125 
Q 47.40625 39.59375 52.65625 34.296875 
Q 57.90625 29 57.90625 20.125 
Q 57.90625 9.515625 50.796875 4.046875 
Q 43.703125 -1.421875 29.984375 -1.421875 
Q 24.8125 -1.421875 18.96875 -0.25 
Q 13.140625 0.921875 6.890625 3.21875 
L 6.890625 13.375 
Q 12.890625 10.015625 18.65625 8.296875 
Q 24.421875 6.59375 29.984375 6.59375 
Q 38.421875 6.59375 43.015625 9.90625 
Q 47.609375 13.234375 47.609375 19.390625 
Q 47.609375 24.75 44.3125 27.78125 
Q 41.015625 30.8125 33.5 32.328125 
L 27.484375 33.5 
Q 16.453125 35.6875 11.515625 40.375 
Q 6.59375 45.0625 6.59375 53.421875 
Q 6.59375 63.09375 13.40625 68.65625 
Q 20.21875 74.21875 32.171875 74.21875 
Q 37.3125 74.21875 42.625 73.28125 
Q 47.953125 72.359375 53.515625 70.515625 
z
" id="DejaVuSans-83"/>
       <path d="M 54.890625 33.015625 
L 54.890625 0 
L 45.90625 0 
L 45.90625 32.71875 
Q 45.90625 40.484375 42.875 44.328125 
Q 39.84375 48.1875 33.796875 48.1875 
Q 26.515625 48.1875 22.3125 43.546875 
Q 18.109375 38.921875 18.109375 30.90625 
L 18.109375 0 
L 9.078125 0 
L 9.078125 75.984375 
L 18.109375 75.984375 
L 18.109375 46.1875 
Q 21.34375 51.125 25.703125 53.5625 
Q 30.078125 56 35.796875 56 
Q 45.21875 56 50.046875 50.171875 
Q 54.890625 44.34375 54.890625 33.015625 
z
" id="DejaVuSans-104"/>
      </defs>
      <use xlink:href="#DejaVuSans-69"/>
      <use x="63.183594" xlink:href="#DejaVuSans-110"/>
      <use x="126.5625" xlink:href="#DejaVuSans-118"/>
      <use x="185.742188" xlink:href="#DejaVuSans-105"/>
      <use x="213.525391" xlink:href="#DejaVuSans-114"/>
      <use x="252.388672" xlink:href="#DejaVuSans-111"/>
      <use x="313.570312" xlink:href="#DejaVuSans-110"/>
      <use x="376.949219" xlink:href="#DejaVuSans-109"/>
      <use x="474.361328" xlink:href="#DejaVuSans-101"/>
      <use x="535.884766" xlink:href="#DejaVuSans-110"/>
      <use x="599.263672" xlink:href="#DejaVuSans-116"/>
      <use x="638.472656" xlink:href="#DejaVuSans-97"/>
      <use x="699.751953" xlink:href="#DejaVuSans-108"/>
      <use x="727.535156" xlink:href="#DejaVuSans-32"/>
      <use x="759.322266" xlink:href="#DejaVuSans-83"/>
      <use x="822.798828" xlink:href="#DejaVuSans-101"/>
      <use x="884.322266" xlink:href="#DejaVuSans-118"/>
      <use x="943.501953" xlink:href="#DejaVuSans-101"/>
      <use x="1005.025391" xlink:href="#DejaVuSans-114"/>
      <use x="1046.138672" xlink:href="#DejaVuSans-105"/>
      <use x="1073.921875" xlink:href="#DejaVuSans-116"/>
      <use x="1113.130859" xlink:href="#DejaVuSans-121"/>
      <use x="1172.310547" xlink:href="#DejaVuSans-32"/>
      <use x="1204.097656" xlink:href="#DejaVuSans-105"/>
      <use x="1231.880859" xlink:href="#DejaVuSans-110"/>
      <use x="1295.259766" xlink:href="#DejaVuSans-32"/>
      <use x="1327.046875" xlink:href="#DejaVuSans-67"/>
      <use x="1396.871094" xlink:href="#DejaVuSans-104"/>
      <use x="1460.25" xlink:href="#DejaVuSans-105"/>
      <use x="1488.033203" xlink:href="#DejaVuSans-110"/>
      <use x="1551.412109" xlink:href="#DejaVuSans-97"/>
     </g>
    </g>
   </g>
   <g id="PathCollection_1">
    <defs>
     <path d="M 0 3.535534 
C 0.937635 3.535534 1.836992 3.163008 2.5 2.5 
C 3.163008 1.836992 3.535534 0.937635 3.535534 0 
C 3.535534 -0.937635 3.163008 -1.836992 2.5 -2.5 
C 1.836992 -3.163008 0.937635 -3.535534 0 -3.535534 
C -0.937635 -3.535534 -1.836992 -3.163008 -2.5 -2.5 
C -3.163008 -1.836992 -3.535534 -0.937635 -3.535534 0 
C -3.535534 0.937635 -3.163008 1.836992 -2.5 2.5 
C -1.836992 3.163008 -0.937635 3.535534 0 3.535534 
z
" id="m7985688bb3" style="stroke:#6a51a3;stroke-width:0.8;"/>
    </defs>
    <g clip-path="url(#p039402e4b8)">
     <use style="fill:#6a51a3;stroke:#6a51a3;stroke-width:0.8;" x="95.628375" xlink:href="#m7985688bb3" y="126.977385"/>
     <use style="fill:#6a51a3;stroke:#6a51a3;stroke-width:0.8;" x="175.410873" xlink:href="#m7985688bb3" y="163.465397"/>
     <use style="fill:#6a51a3;stroke:#6a51a3;stroke-width:0.8;" x="255.193372" xlink:href="#m7985688bb3" y="175.886847"/>
     <use style="fill:#6a51a3;stroke:#6a51a3;stroke-width:0.8;" x="334.97587" xlink:href="#m7985688bb3" y="204.814741"/>
     <use style="fill:#6a51a3;stroke:#6a51a3;stroke-width:0.8;" x="414.758369" xlink:href="#m7985688bb3" y="239.220043"/>
    </g>
   </g>
   <g id="PolyCollection_1">
    <defs>
     <path d="M 95.628375 -267.44992 
L 95.628375 -235.90901 
L 98.85191 -235.07551 
L 102.075446 -234.198801 
L 105.298981 -233.274267 
L 108.522516 -232.350331 
L 111.746051 -231.426395 
L 114.969587 -230.554392 
L 118.193122 -229.689854 
L 121.416657 -228.77999 
L 124.640193 -227.907892 
L 127.863728 -227.090366 
L 131.087263 -226.273795 
L 134.310798 -225.458126 
L 137.534334 -224.614276 
L 140.757869 -223.707592 
L 143.981404 -222.800907 
L 147.20494 -221.899659 
L 150.428475 -221.061028 
L 153.65201 -220.223852 
L 156.875546 -219.386675 
L 160.099081 -218.549499 
L 163.322616 -217.712322 
L 166.546151 -216.875927 
L 169.769687 -216.039781 
L 172.993222 -215.237339 
L 176.216757 -214.396336 
L 179.440293 -213.562865 
L 182.663828 -212.779579 
L 185.887363 -211.935305 
L 189.110898 -211.028866 
L 192.334434 -210.120204 
L 195.557969 -209.232708 
L 198.781504 -208.329141 
L 202.00504 -207.396245 
L 205.228575 -206.516661 
L 208.45211 -205.61844 
L 211.675645 -204.714873 
L 214.899181 -203.883583 
L 218.122716 -203.012637 
L 221.346251 -202.071018 
L 224.569787 -201.164974 
L 227.793322 -200.308723 
L 231.016857 -199.452733 
L 234.240392 -198.62712 
L 237.463928 -197.74574 
L 240.687463 -196.891259 
L 243.910998 -196.035706 
L 247.134534 -195.180153 
L 250.358069 -194.325792 
L 253.581604 -193.419125 
L 256.80514 -192.52006 
L 260.028675 -191.62055 
L 263.25221 -190.667202 
L 266.475745 -189.668495 
L 269.699281 -188.657592 
L 272.922816 -187.689877 
L 276.146351 -186.668062 
L 279.369887 -185.717803 
L 282.593422 -184.786868 
L 285.816957 -183.761226 
L 289.040492 -182.740294 
L 292.264028 -181.789868 
L 295.487563 -180.772052 
L 298.711098 -179.640674 
L 301.934634 -178.592592 
L 305.158169 -177.435769 
L 308.381704 -176.469449 
L 311.605239 -175.45879 
L 314.828775 -174.369329 
L 318.05231 -173.235434 
L 321.275845 -172.132115 
L 324.499381 -170.978109 
L 327.722916 -169.879643 
L 330.946451 -168.683776 
L 334.169987 -167.462907 
L 337.393522 -166.509758 
L 340.617057 -165.358483 
L 343.840592 -164.199172 
L 347.064128 -162.972484 
L 350.287663 -161.724144 
L 353.511198 -160.506893 
L 356.734734 -159.297556 
L 359.958269 -158.116472 
L 363.181804 -156.875256 
L 366.405339 -155.663809 
L 369.628875 -154.40038 
L 372.85241 -153.128867 
L 376.075945 -152.008024 
L 379.299481 -150.767154 
L 382.523016 -149.520464 
L 385.746551 -148.240793 
L 388.970086 -146.959267 
L 392.193622 -145.753659 
L 395.417157 -144.433637 
L 398.640692 -143.229968 
L 401.864228 -141.937337 
L 405.087763 -140.578517 
L 408.311298 -139.30525 
L 411.534833 -138.039062 
L 414.758369 -136.762613 
L 414.758369 -154.884256 
L 414.758369 -154.884256 
L 411.534833 -155.824451 
L 408.311298 -156.721243 
L 405.087763 -157.706347 
L 401.864228 -158.601448 
L 398.640692 -159.402203 
L 395.417157 -160.250827 
L 392.193622 -161.131095 
L 388.970086 -162.019841 
L 385.746551 -162.94071 
L 382.523016 -163.883933 
L 379.299481 -164.750285 
L 376.075945 -165.64013 
L 372.85241 -166.608306 
L 369.628875 -167.543965 
L 366.405339 -168.47876 
L 363.181804 -169.411116 
L 359.958269 -170.342428 
L 356.734734 -171.285538 
L 353.511198 -172.315549 
L 350.287663 -173.275542 
L 347.064128 -174.239211 
L 343.840592 -175.270517 
L 340.617057 -176.254743 
L 337.393522 -177.298664 
L 334.169987 -178.338609 
L 330.946451 -179.359022 
L 327.722916 -180.323685 
L 324.499381 -181.486502 
L 321.275845 -182.649383 
L 318.05231 -183.608749 
L 314.828775 -184.493874 
L 311.605239 -185.558127 
L 308.381704 -186.716039 
L 305.158169 -187.756641 
L 301.934634 -188.970013 
L 298.711098 -190.164747 
L 295.487563 -191.329513 
L 292.264028 -192.377844 
L 289.040492 -193.431216 
L 285.816957 -194.501487 
L 282.593422 -195.555167 
L 279.369887 -196.676531 
L 276.146351 -197.900727 
L 272.922816 -199.124923 
L 269.699281 -200.305783 
L 266.475745 -201.447439 
L 263.25221 -202.643008 
L 260.028675 -203.848681 
L 256.80514 -204.898937 
L 253.581604 -206.085756 
L 250.358069 -207.392903 
L 247.134534 -208.562675 
L 243.910998 -209.722878 
L 240.687463 -211.018684 
L 237.463928 -212.279785 
L 234.240392 -213.461731 
L 231.016857 -214.744596 
L 227.793322 -215.914763 
L 224.569787 -217.157802 
L 221.346251 -218.458555 
L 218.122716 -219.628905 
L 214.899181 -220.965829 
L 211.675645 -222.109674 
L 208.45211 -223.299067 
L 205.228575 -224.543982 
L 202.00504 -225.79881 
L 198.781504 -227.001432 
L 195.557969 -228.264901 
L 192.334434 -229.534784 
L 189.110898 -230.702367 
L 185.887363 -231.950048 
L 182.663828 -233.231102 
L 179.440293 -234.559764 
L 176.216757 -235.852062 
L 172.993222 -237.098989 
L 169.769687 -238.324764 
L 166.546151 -239.57033 
L 163.322616 -240.878495 
L 160.099081 -242.136868 
L 156.875546 -243.404807 
L 153.65201 -244.651289 
L 150.428475 -245.907456 
L 147.20494 -247.165032 
L 143.981404 -248.420644 
L 140.757869 -249.676256 
L 137.534334 -250.958265 
L 134.310798 -252.247825 
L 131.087263 -253.449556 
L 127.863728 -254.706746 
L 124.640193 -255.982386 
L 121.416657 -257.258026 
L 118.193122 -258.533666 
L 114.969587 -259.809306 
L 111.746051 -261.083136 
L 108.522516 -262.355823 
L 105.298981 -263.628509 
L 102.075446 -264.840575 
L 98.85191 -266.145247 
L 95.628375 -267.44992 
z
" id="m5789ccb7bf" style="stroke:#ffffff;stroke-opacity:0.15;stroke-width:0.8;"/>
    </defs>
    <g clip-path="url(#p039402e4b8)">
     <use style="fill:#6a51a3;fill-opacity:0.15;stroke:#ffffff;stroke-opacity:0.15;stroke-width:0.8;" x="0" xlink:href="#m5789ccb7bf" y="379.76625"/>
    </g>
   </g>
   <g id="PathCollection_2">
    <defs>
     <path d="M -3.535534 3.535534 
L 3.535534 -3.535534 
M -3.535534 -3.535534 
L 3.535534 3.535534 
" id="mec5adafd0f" style="stroke:#9e9bc8;stroke-width:1.2;"/>
    </defs>
    <g clip-path="url(#p039402e4b8)">
     <use style="fill:#9e9bc8;stroke:#9e9bc8;stroke-width:1.2;" x="95.628375" xlink:href="#mec5adafd0f" y="112.537449"/>
     <use style="fill:#9e9bc8;stroke:#9e9bc8;stroke-width:1.2;" x="175.410873" xlink:href="#mec5adafd0f" y="213.279697"/>
     <use style="fill:#9e9bc8;stroke:#9e9bc8;stroke-width:1.2;" x="255.193372" xlink:href="#mec5adafd0f" y="202.749121"/>
     <use style="fill:#9e9bc8;stroke:#9e9bc8;stroke-width:1.2;" x="334.97587" xlink:href="#mec5adafd0f" y="227.937694"/>
     <use style="fill:#9e9bc8;stroke:#9e9bc8;stroke-width:1.2;" x="414.758369" xlink:href="#mec5adafd0f" y="270.18557"/>
    </g>
   </g>
   <g id="PolyCollection_2">
    <defs>
     <path d="M 95.628375 -234.694416 
L 95.628375 -207.494358 
L 98.85191 -206.67533 
L 102.075446 -205.856301 
L 105.298981 -205.03572 
L 108.522516 -204.174634 
L 111.746051 -203.313549 
L 114.969587 -202.52515 
L 118.193122 -201.6903 
L 121.416657 -200.843049 
L 124.640193 -199.945311 
L 127.863728 -199.04833 
L 131.087263 -198.212489 
L 134.310798 -197.384647 
L 137.534334 -196.524045 
L 140.757869 -195.649053 
L 143.981404 -194.774879 
L 147.20494 -193.951255 
L 150.428475 -193.145072 
L 153.65201 -192.411504 
L 156.875546 -191.600098 
L 160.099081 -190.774272 
L 163.322616 -189.948266 
L 166.546151 -189.121956 
L 169.769687 -188.301133 
L 172.993222 -187.493323 
L 176.216757 -186.673067 
L 179.440293 -185.815003 
L 182.663828 -184.987525 
L 185.887363 -184.160675 
L 189.110898 -183.333825 
L 192.334434 -182.506975 
L 195.557969 -181.680125 
L 198.781504 -180.790997 
L 202.00504 -179.900129 
L 205.228575 -179.027588 
L 208.45211 -178.18683 
L 211.675645 -177.346072 
L 214.899181 -176.507744 
L 218.122716 -175.695685 
L 221.346251 -174.869991 
L 224.569787 -173.990789 
L 227.793322 -173.149703 
L 231.016857 -172.233872 
L 234.240392 -171.388348 
L 237.463928 -170.480999 
L 240.687463 -169.572515 
L 243.910998 -168.66701 
L 247.134534 -167.836608 
L 250.358069 -167.00818 
L 253.581604 -166.158405 
L 256.80514 -165.354939 
L 260.028675 -164.383647 
L 263.25221 -163.455869 
L 266.475745 -162.637205 
L 269.699281 -161.776092 
L 272.922816 -160.872855 
L 276.146351 -159.952708 
L 279.369887 -159.03256 
L 282.593422 -158.111928 
L 285.816957 -157.194129 
L 289.040492 -156.327704 
L 292.264028 -155.442936 
L 295.487563 -154.567396 
L 298.711098 -153.549531 
L 301.934634 -152.615455 
L 305.158169 -151.699264 
L 308.381704 -150.730739 
L 311.605239 -149.786682 
L 314.828775 -148.887229 
L 318.05231 -147.895201 
L 321.275845 -146.889729 
L 324.499381 -145.950536 
L 327.722916 -144.950311 
L 330.946451 -143.949024 
L 334.169987 -142.942622 
L 337.393522 -141.881201 
L 340.617057 -140.886908 
L 343.840592 -139.811245 
L 347.064128 -138.777536 
L 350.287663 -137.75795 
L 353.511198 -136.686255 
L 356.734734 -135.655944 
L 359.958269 -134.580222 
L 363.181804 -133.489418 
L 366.405339 -132.427289 
L 369.628875 -131.278364 
L 372.85241 -130.171472 
L 376.075945 -129.076251 
L 379.299481 -127.941821 
L 382.523016 -126.837668 
L 385.746551 -125.724143 
L 388.970086 -124.636279 
L 392.193622 -123.51721 
L 395.417157 -122.419813 
L 398.640692 -121.312736 
L 401.864228 -120.105003 
L 405.087763 -118.902369 
L 408.311298 -117.802431 
L 411.534833 -116.654726 
L 414.758369 -115.46061 
L 414.758369 -127.127867 
L 414.758369 -127.127867 
L 411.534833 -128.035746 
L 408.311298 -128.889981 
L 405.087763 -129.737596 
L 401.864228 -130.607696 
L 398.640692 -131.536524 
L 395.417157 -132.319796 
L 392.193622 -133.150048 
L 388.970086 -134.004705 
L 385.746551 -134.890048 
L 382.523016 -135.781863 
L 379.299481 -136.727469 
L 376.075945 -137.611535 
L 372.85241 -138.539655 
L 369.628875 -139.505037 
L 366.405339 -140.483014 
L 363.181804 -141.451362 
L 359.958269 -142.41652 
L 356.734734 -143.373177 
L 353.511198 -144.356789 
L 350.287663 -145.296292 
L 347.064128 -146.294598 
L 343.840592 -147.262257 
L 340.617057 -148.232273 
L 337.393522 -149.244102 
L 334.169987 -150.316881 
L 330.946451 -151.298889 
L 327.722916 -152.298889 
L 324.499381 -153.371259 
L 321.275845 -154.38367 
L 318.05231 -155.436482 
L 314.828775 -156.512139 
L 311.605239 -157.546146 
L 308.381704 -158.532697 
L 305.158169 -159.582384 
L 301.934634 -160.656801 
L 298.711098 -161.667554 
L 295.487563 -162.659389 
L 292.264028 -163.747431 
L 289.040492 -164.8514 
L 285.816957 -165.975903 
L 282.593422 -167.113518 
L 279.369887 -168.175235 
L 276.146351 -169.299529 
L 272.922816 -170.371336 
L 269.699281 -171.55142 
L 266.475745 -172.698855 
L 263.25221 -173.83036 
L 260.028675 -174.997936 
L 256.80514 -176.198863 
L 253.581604 -177.296804 
L 250.358069 -178.447107 
L 247.134534 -179.602551 
L 243.910998 -180.767835 
L 240.687463 -181.932885 
L 237.463928 -183.065304 
L 234.240392 -184.194937 
L 231.016857 -185.359864 
L 227.793322 -186.528455 
L 224.569787 -187.67462 
L 221.346251 -188.868616 
L 218.122716 -190.064429 
L 214.899181 -191.226746 
L 211.675645 -192.399809 
L 208.45211 -193.524035 
L 205.228575 -194.708201 
L 202.00504 -195.892368 
L 198.781504 -197.087672 
L 195.557969 -198.262423 
L 192.334434 -199.44835 
L 189.110898 -200.632105 
L 185.887363 -201.815036 
L 182.663828 -203.001048 
L 179.440293 -204.185494 
L 176.216757 -205.365421 
L 172.993222 -206.489219 
L 169.769687 -207.720886 
L 166.546151 -208.890517 
L 163.322616 -210.048118 
L 160.099081 -211.219064 
L 156.875546 -212.407785 
L 153.65201 -213.59628 
L 150.428475 -214.784775 
L 147.20494 -215.951419 
L 143.981404 -217.114587 
L 140.757869 -218.277756 
L 137.534334 -219.440925 
L 134.310798 -220.604094 
L 131.087263 -221.767263 
L 127.863728 -222.930432 
L 124.640193 -224.093601 
L 121.416657 -225.25677 
L 118.193122 -226.419939 
L 114.969587 -227.583108 
L 111.746051 -228.746276 
L 108.522516 -229.911528 
L 105.298981 -231.107288 
L 102.075446 -232.302997 
L 98.85191 -233.498706 
L 95.628375 -234.694416 
z
" id="m59353a93d0" style="stroke:#ffffff;stroke-opacity:0.15;stroke-width:0.8;"/>
    </defs>
    <g clip-path="url(#p039402e4b8)">
     <use style="fill:#9e9bc8;fill-opacity:0.15;stroke:#ffffff;stroke-opacity:0.15;stroke-width:0.8;" x="0" xlink:href="#m59353a93d0" y="379.76625"/>
    </g>
   </g>
   <g id="line2d_10">
    <path clip-path="url(#p039402e4b8)" d="M 95.628375 166.856064 
L 95.628375 87.098706 
" style="fill:none;stroke:#6a51a3;stroke-linecap:round;stroke-width:2.1;"/>
   </g>
   <g id="line2d_11">
    <path clip-path="url(#p039402e4b8)" d="M 175.410873 177.750065 
L 175.410873 148.559656 
" style="fill:none;stroke:#6a51a3;stroke-linecap:round;stroke-width:2.1;"/>
   </g>
   <g id="line2d_12">
    <path clip-path="url(#p039402e4b8)" d="M 255.193372 186.320866 
L 255.193372 165.825472 
" style="fill:none;stroke:#6a51a3;stroke-linecap:round;stroke-width:2.1;"/>
   </g>
   <g id="line2d_13">
    <path clip-path="url(#p039402e4b8)" d="M 334.97587 212.248403 
L 334.97587 197.035327 
" style="fill:none;stroke:#6a51a3;stroke-linecap:round;stroke-width:2.1;"/>
   </g>
   <g id="line2d_14">
    <path clip-path="url(#p039402e4b8)" d="M 414.758369 251.906125 
L 414.758369 226.096511 
" style="fill:none;stroke:#6a51a3;stroke-linecap:round;stroke-width:2.1;"/>
   </g>
   <g id="line2d_15">
    <path clip-path="url(#p039402e4b8)" d="M 95.628375 128.322441 
L 98.85191 129.384078 
L 102.075446 130.445715 
L 105.298981 131.507352 
L 108.522516 132.56899 
L 111.746051 133.630627 
L 114.969587 134.692264 
L 118.193122 135.753901 
L 121.416657 136.815538 
L 124.640193 137.877176 
L 127.863728 138.938813 
L 131.087263 140.00045 
L 134.310798 141.062087 
L 137.534334 142.123724 
L 140.757869 143.185361 
L 143.981404 144.246999 
L 147.20494 145.308636 
L 150.428475 146.370273 
L 153.65201 147.43191 
L 156.875546 148.493547 
L 160.099081 149.555185 
L 163.322616 150.616822 
L 166.546151 151.678459 
L 169.769687 152.740096 
L 172.993222 153.801733 
L 176.216757 154.863371 
L 179.440293 155.925008 
L 182.663828 156.986645 
L 185.887363 158.048282 
L 189.110898 159.109919 
L 192.334434 160.171557 
L 195.557969 161.233194 
L 198.781504 162.294831 
L 202.00504 163.356468 
L 205.228575 164.418105 
L 208.45211 165.479743 
L 211.675645 166.54138 
L 214.899181 167.603017 
L 218.122716 168.664654 
L 221.346251 169.726291 
L 224.569787 170.787929 
L 227.793322 171.849566 
L 231.016857 172.911203 
L 234.240392 173.97284 
L 237.463928 175.034477 
L 240.687463 176.096115 
L 243.910998 177.157752 
L 247.134534 178.219389 
L 250.358069 179.281026 
L 253.581604 180.342663 
L 256.80514 181.404301 
L 260.028675 182.465938 
L 263.25221 183.527575 
L 266.475745 184.589212 
L 269.699281 185.650849 
L 272.922816 186.712486 
L 276.146351 187.774124 
L 279.369887 188.835761 
L 282.593422 189.897398 
L 285.816957 190.959035 
L 289.040492 192.020672 
L 292.264028 193.08231 
L 295.487563 194.143947 
L 298.711098 195.205584 
L 301.934634 196.267221 
L 305.158169 197.328858 
L 308.381704 198.390496 
L 311.605239 199.452133 
L 314.828775 200.51377 
L 318.05231 201.575407 
L 321.275845 202.637044 
L 324.499381 203.698682 
L 327.722916 204.760319 
L 330.946451 205.821956 
L 334.169987 206.883593 
L 337.393522 207.94523 
L 340.617057 209.006868 
L 343.840592 210.068505 
L 347.064128 211.130142 
L 350.287663 212.191779 
L 353.511198 213.253416 
L 356.734734 214.315054 
L 359.958269 215.376691 
L 363.181804 216.438328 
L 366.405339 217.499965 
L 369.628875 218.561602 
L 372.85241 219.62324 
L 376.075945 220.684877 
L 379.299481 221.746514 
L 382.523016 222.808151 
L 385.746551 223.869788 
L 388.970086 224.931425 
L 392.193622 225.993063 
L 395.417157 227.0547 
L 398.640692 228.116337 
L 401.864228 229.177974 
L 405.087763 230.239611 
L 408.311298 231.301249 
L 411.534833 232.362886 
L 414.758369 233.424523 
" style="fill:none;stroke:#6a51a3;stroke-linecap:round;stroke-width:1.8;"/>
   </g>
   <g id="line2d_16">
    <path clip-path="url(#p039402e4b8)" d="M 95.628375 160.981106 
L 95.628375 60.367356 
" style="fill:none;stroke:#9e9bc8;stroke-linecap:round;stroke-width:2.1;"/>
   </g>
   <g id="line2d_17">
    <path clip-path="url(#p039402e4b8)" d="M 175.410873 226.000976 
L 175.410873 199.980178 
" style="fill:none;stroke:#9e9bc8;stroke-linecap:round;stroke-width:2.1;"/>
   </g>
   <g id="line2d_18">
    <path clip-path="url(#p039402e4b8)" d="M 255.193372 211.660625 
L 255.193372 193.262682 
" style="fill:none;stroke:#9e9bc8;stroke-linecap:round;stroke-width:2.1;"/>
   </g>
   <g id="line2d_19">
    <path clip-path="url(#p039402e4b8)" d="M 334.97587 232.498851 
L 334.97587 222.750496 
" style="fill:none;stroke:#9e9bc8;stroke-linecap:round;stroke-width:2.1;"/>
   </g>
   <g id="line2d_20">
    <path clip-path="url(#p039402e4b8)" d="M 414.758369 278.128424 
L 414.758369 262.242716 
" style="fill:none;stroke:#9e9bc8;stroke-linecap:round;stroke-width:2.1;"/>
   </g>
   <g id="line2d_21">
    <path clip-path="url(#p039402e4b8)" d="M 95.628375 158.602717 
L 98.85191 159.613167 
L 102.075446 160.623616 
L 105.298981 161.634065 
L 108.522516 162.644515 
L 111.746051 163.654964 
L 114.969587 164.665413 
L 118.193122 165.675863 
L 121.416657 166.686312 
L 124.640193 167.696761 
L 127.863728 168.707211 
L 131.087263 169.71766 
L 134.310798 170.728109 
L 137.534334 171.738559 
L 140.757869 172.749008 
L 143.981404 173.759457 
L 147.20494 174.769907 
L 150.428475 175.780356 
L 153.65201 176.790805 
L 156.875546 177.801255 
L 160.099081 178.811704 
L 163.322616 179.822153 
L 166.546151 180.832603 
L 169.769687 181.843052 
L 172.993222 182.853501 
L 176.216757 183.863951 
L 179.440293 184.8744 
L 182.663828 185.884849 
L 185.887363 186.895299 
L 189.110898 187.905748 
L 192.334434 188.916197 
L 195.557969 189.926647 
L 198.781504 190.937096 
L 202.00504 191.947545 
L 205.228575 192.957995 
L 208.45211 193.968444 
L 211.675645 194.978893 
L 214.899181 195.989343 
L 218.122716 196.999792 
L 221.346251 198.010241 
L 224.569787 199.020691 
L 227.793322 200.03114 
L 231.016857 201.041589 
L 234.240392 202.052039 
L 237.463928 203.062488 
L 240.687463 204.072937 
L 243.910998 205.083387 
L 247.134534 206.093836 
L 250.358069 207.104285 
L 253.581604 208.114735 
L 256.80514 209.125184 
L 260.028675 210.135633 
L 263.25221 211.146083 
L 266.475745 212.156532 
L 269.699281 213.166981 
L 272.922816 214.177431 
L 276.146351 215.18788 
L 279.369887 216.198329 
L 282.593422 217.208779 
L 285.816957 218.219228 
L 289.040492 219.229677 
L 292.264028 220.240127 
L 295.487563 221.250576 
L 298.711098 222.261026 
L 301.934634 223.271475 
L 305.158169 224.281924 
L 308.381704 225.292374 
L 311.605239 226.302823 
L 314.828775 227.313272 
L 318.05231 228.323722 
L 321.275845 229.334171 
L 324.499381 230.34462 
L 327.722916 231.35507 
L 330.946451 232.365519 
L 334.169987 233.375968 
L 337.393522 234.386418 
L 340.617057 235.396867 
L 343.840592 236.407316 
L 347.064128 237.417766 
L 350.287663 238.428215 
L 353.511198 239.438664 
L 356.734734 240.449114 
L 359.958269 241.459563 
L 363.181804 242.470012 
L 366.405339 243.480462 
L 369.628875 244.490911 
L 372.85241 245.50136 
L 376.075945 246.51181 
L 379.299481 247.522259 
L 382.523016 248.532708 
L 385.746551 249.543158 
L 388.970086 250.553607 
L 392.193622 251.564056 
L 395.417157 252.574506 
L 398.640692 253.584955 
L 401.864228 254.595404 
L 405.087763 255.605854 
L 408.311298 256.616303 
L 411.534833 257.626752 
L 414.758369 258.637202 
" style="fill:none;stroke:#9e9bc8;stroke-linecap:round;stroke-width:1.8;"/>
   </g>
   <g id="patch_3">
    <path d="M 95.628375 342.4585 
L 95.628375 20.4945 
" style="fill:none;stroke:#262626;stroke-linecap:square;stroke-linejoin:miter;"/>
   </g>
   <g id="patch_4">
    <path d="M 95.628375 342.4585 
L 414.758369 342.4585 
" style="fill:none;stroke:#262626;stroke-linecap:square;stroke-linejoin:miter;"/>
   </g>
   <g id="text_12">
    <!-- Environmental Severity vs. Concern -->
    <g style="fill:#262626;" transform="translate(169.148872 14.4945)scale(0.096 -0.096)">
     <defs>
      <path d="M 10.6875 12.40625 
L 21 12.40625 
L 21 0 
L 10.6875 0 
z
" id="DejaVuSans-46"/>
     </defs>
     <use xlink:href="#DejaVuSans-69"/>
     <use x="63.183594" xlink:href="#DejaVuSans-110"/>
     <use x="126.5625" xlink:href="#DejaVuSans-118"/>
     <use x="185.742188" xlink:href="#DejaVuSans-105"/>
     <use x="213.525391" xlink:href="#DejaVuSans-114"/>
     <use x="252.388672" xlink:href="#DejaVuSans-111"/>
     <use x="313.570312" xlink:href="#DejaVuSans-110"/>
     <use x="376.949219" xlink:href="#DejaVuSans-109"/>
     <use x="474.361328" xlink:href="#DejaVuSans-101"/>
     <use x="535.884766" xlink:href="#DejaVuSans-110"/>
     <use x="599.263672" xlink:href="#DejaVuSans-116"/>
     <use x="638.472656" xlink:href="#DejaVuSans-97"/>
     <use x="699.751953" xlink:href="#DejaVuSans-108"/>
     <use x="727.535156" xlink:href="#DejaVuSans-32"/>
     <use x="759.322266" xlink:href="#DejaVuSans-83"/>
     <use x="822.798828" xlink:href="#DejaVuSans-101"/>
     <use x="884.322266" xlink:href="#DejaVuSans-118"/>
     <use x="943.501953" xlink:href="#DejaVuSans-101"/>
     <use x="1005.025391" xlink:href="#DejaVuSans-114"/>
     <use x="1046.138672" xlink:href="#DejaVuSans-105"/>
     <use x="1073.921875" xlink:href="#DejaVuSans-116"/>
     <use x="1113.130859" xlink:href="#DejaVuSans-121"/>
     <use x="1172.310547" xlink:href="#DejaVuSans-32"/>
     <use x="1204.097656" xlink:href="#DejaVuSans-118"/>
     <use x="1263.277344" xlink:href="#DejaVuSans-115"/>
     <use x="1315.376953" xlink:href="#DejaVuSans-46"/>
     <use x="1347.164062" xlink:href="#DejaVuSans-32"/>
     <use x="1378.951172" xlink:href="#DejaVuSans-67"/>
     <use x="1448.775391" xlink:href="#DejaVuSans-111"/>
     <use x="1509.957031" xlink:href="#DejaVuSans-110"/>
     <use x="1573.335938" xlink:href="#DejaVuSans-99"/>
     <use x="1628.316406" xlink:href="#DejaVuSans-101"/>
     <use x="1689.839844" xlink:href="#DejaVuSans-114"/>
     <use x="1729.203125" xlink:href="#DejaVuSans-110"/>
    </g>
   </g>
  </g>
  <g id="legend_1">
   <g id="text_13">
    <!-- Rural Classification -->
    <g style="fill:#262626;" transform="translate(367.986169 179.615375)scale(0.096 -0.096)">
     <defs>
      <path d="M 44.390625 34.1875 
Q 47.5625 33.109375 50.5625 29.59375 
Q 53.5625 26.078125 56.59375 19.921875 
L 66.609375 0 
L 56 0 
L 46.6875 18.703125 
Q 43.0625 26.03125 39.671875 28.421875 
Q 36.28125 30.8125 30.421875 30.8125 
L 19.671875 30.8125 
L 19.671875 0 
L 9.8125 0 
L 9.8125 72.90625 
L 32.078125 72.90625 
Q 44.578125 72.90625 50.734375 67.671875 
Q 56.890625 62.453125 56.890625 51.90625 
Q 56.890625 45.015625 53.6875 40.46875 
Q 50.484375 35.9375 44.390625 34.1875 
z
M 19.671875 64.796875 
L 19.671875 38.921875 
L 32.078125 38.921875 
Q 39.203125 38.921875 42.84375 42.21875 
Q 46.484375 45.515625 46.484375 51.90625 
Q 46.484375 58.296875 42.84375 61.546875 
Q 39.203125 64.796875 32.078125 64.796875 
z
" id="DejaVuSans-82"/>
      <path d="M 37.109375 75.984375 
L 37.109375 68.5 
L 28.515625 68.5 
Q 23.6875 68.5 21.796875 66.546875 
Q 19.921875 64.59375 19.921875 59.515625 
L 19.921875 54.6875 
L 34.71875 54.6875 
L 34.71875 47.703125 
L 19.921875 47.703125 
L 19.921875 0 
L 10.890625 0 
L 10.890625 47.703125 
L 2.296875 47.703125 
L 2.296875 54.6875 
L 10.890625 54.6875 
L 10.890625 58.5 
Q 10.890625 67.625 15.140625 71.796875 
Q 19.390625 75.984375 28.609375 75.984375 
z
" id="DejaVuSans-102"/>
     </defs>
     <use xlink:href="#DejaVuSans-82"/>
     <use x="64.982422" xlink:href="#DejaVuSans-117"/>
     <use x="128.361328" xlink:href="#DejaVuSans-114"/>
     <use x="169.474609" xlink:href="#DejaVuSans-97"/>
     <use x="230.753906" xlink:href="#DejaVuSans-108"/>
     <use x="258.537109" xlink:href="#DejaVuSans-32"/>
     <use x="290.324219" xlink:href="#DejaVuSans-67"/>
     <use x="360.148438" xlink:href="#DejaVuSans-108"/>
     <use x="387.931641" xlink:href="#DejaVuSans-97"/>
     <use x="449.210938" xlink:href="#DejaVuSans-115"/>
     <use x="501.310547" xlink:href="#DejaVuSans-115"/>
     <use x="553.410156" xlink:href="#DejaVuSans-105"/>
     <use x="581.193359" xlink:href="#DejaVuSans-102"/>
     <use x="616.398438" xlink:href="#DejaVuSans-105"/>
     <use x="644.181641" xlink:href="#DejaVuSans-99"/>
     <use x="699.162109" xlink:href="#DejaVuSans-97"/>
     <use x="760.441406" xlink:href="#DejaVuSans-116"/>
     <use x="799.650391" xlink:href="#DejaVuSans-105"/>
     <use x="827.433594" xlink:href="#DejaVuSans-111"/>
     <use x="888.615234" xlink:href="#DejaVuSans-110"/>
    </g>
   </g>
   <g id="PathCollection_3">
    <g>
     <use style="fill:#6a51a3;stroke:#6a51a3;stroke-width:0.8;" x="388.425356" xlink:href="#m7985688bb3" y="190.3885"/>
    </g>
   </g>
   <g id="text_14">
    <!-- Rural -->
    <g style="fill:#262626;" transform="translate(404.265356 192.6985)scale(0.088 -0.088)">
     <use xlink:href="#DejaVuSans-82"/>
     <use x="64.982422" xlink:href="#DejaVuSans-117"/>
     <use x="128.361328" xlink:href="#DejaVuSans-114"/>
     <use x="169.474609" xlink:href="#DejaVuSans-97"/>
     <use x="230.753906" xlink:href="#DejaVuSans-108"/>
    </g>
   </g>
   <g id="PathCollection_4">
    <g>
     <use style="fill:#9e9bc8;stroke:#9e9bc8;stroke-width:1.2;" x="388.425356" xlink:href="#mec5adafd0f" y="203.30525"/>
    </g>
   </g>
   <g id="text_15">
    <!-- Non-Rural -->
    <g style="fill:#262626;" transform="translate(404.265356 205.61525)scale(0.088 -0.088)">
     <defs>
      <path d="M 4.890625 31.390625 
L 31.203125 31.390625 
L 31.203125 23.390625 
L 4.890625 23.390625 
z
" id="DejaVuSans-45"/>
     </defs>
     <use xlink:href="#DejaVuSans-78"/>
     <use x="74.804688" xlink:href="#DejaVuSans-111"/>
     <use x="135.986328" xlink:href="#DejaVuSans-110"/>
     <use x="199.365234" xlink:href="#DejaVuSans-45"/>
     <use x="235.449219" xlink:href="#DejaVuSans-82"/>
     <use x="300.431641" xlink:href="#DejaVuSans-117"/>
     <use x="363.810547" xlink:href="#DejaVuSans-114"/>
     <use x="404.923828" xlink:href="#DejaVuSans-97"/>
     <use x="466.203125" xlink:href="#DejaVuSans-108"/>
    </g>
   </g>
  </g>
 </g>
 <defs>
  <clipPath id="p039402e4b8">
   <rect height="321.964" width="319.129994" x="95.628375" y="20.4945"/>
  </clipPath>
 </defs>
</svg>
