<?xml version="1.0" encoding="utf-8" standalone="no"?>
<!DOCTYPE svg PUBLIC "-//W3C//DTD SVG 1.1//EN"
  "http://www.w3.org/Graphics/SVG/1.1/DTD/svg11.dtd">
<!-- Created with matplotlib (https://matplotlib.org/) -->
<svg height="378.721375pt" version="1.1" viewBox="0 0 366.670625 378.721375" width="366.670625pt" xmlns="http://www.w3.org/2000/svg" xmlns:xlink="http://www.w3.org/1999/xlink">
 <metadata>
  <rdf:RDF xmlns:cc="http://creativecommons.org/ns#" xmlns:dc="http://purl.org/dc/elements/1.1/" xmlns:rdf="http://www.w3.org/1999/02/22-rdf-syntax-ns#">
   <cc:Work>
    <dc:type rdf:resource="http://purl.org/dc/dcmitype/StillImage"/>
    <dc:date>2021-03-25T10:42:56.311777</dc:date>
    <dc:format>image/svg+xml</dc:format>
    <dc:creator>
     <cc:Agent>
      <dc:title>Matplotlib v3.3.4, https://matplotlib.org/</dc:title>
     </cc:Agent>
    </dc:creator>
   </cc:Work>
  </rdf:RDF>
 </metadata>
 <defs>
  <style type="text/css">*{stroke-linecap:butt;stroke-linejoin:round;}</style>
 </defs>
 <g id="figure_1">
  <g id="patch_1">
   <path d="M 0 378.721375 
L 366.670625 378.721375 
L 366.670625 0 
L 0 0 
z
" style="fill:#ffffff;"/>
  </g>
  <g id="axes_1">
   <g id="patch_2">
    <path d="M 45.640625 342.1585 
L 353.354625 342.1585 
L 353.354625 20.1945 
L 45.640625 20.1945 
z
" style="fill:#ffffff;"/>
   </g>
   <g id="matplotlib.axis_1">
    <g id="xtick_1">
     <g id="line2d_1">
      <defs>
       <path d="M 0 0 
L 0 4.8 
" id="m64085c6e7d" style="stroke:#262626;"/>
      </defs>
      <g>
       <use style="fill:#262626;stroke:#262626;" x="45.640625" xlink:href="#m64085c6e7d" y="342.1585"/>
      </g>
     </g>
     <g id="text_1">
      <!-- 1.0 -->
      <g style="fill:#262626;" transform="translate(39.524625 356.757375)scale(0.088 -0.088)">
       <defs>
        <path d="M 37.25 0 
L 28.46875 0 
L 28.46875 56 
Q 25.296875 52.984375 20.140625 49.953125 
Q 14.984375 46.921875 10.890625 45.40625 
L 10.890625 53.90625 
Q 18.265625 57.375 23.78125 62.296875 
Q 29.296875 67.234375 31.59375 71.875 
L 37.25 71.875 
z
" id="ArialMT-49"/>
        <path d="M 9.078125 0 
L 9.078125 10.015625 
L 19.09375 10.015625 
L 19.09375 0 
z
" id="ArialMT-46"/>
        <path d="M 4.15625 35.296875 
Q 4.15625 48 6.765625 55.734375 
Q 9.375 63.484375 14.515625 67.671875 
Q 19.671875 71.875 27.484375 71.875 
Q 33.25 71.875 37.59375 69.546875 
Q 41.9375 67.234375 44.765625 62.859375 
Q 47.609375 58.5 49.21875 52.21875 
Q 50.828125 45.953125 50.828125 35.296875 
Q 50.828125 22.703125 48.234375 14.96875 
Q 45.65625 7.234375 40.5 3 
Q 35.359375 -1.21875 27.484375 -1.21875 
Q 17.140625 -1.21875 11.234375 6.203125 
Q 4.15625 15.140625 4.15625 35.296875 
z
M 13.1875 35.296875 
Q 13.1875 17.671875 17.3125 11.828125 
Q 21.4375 6 27.484375 6 
Q 33.546875 6 37.671875 11.859375 
Q 41.796875 17.71875 41.796875 35.296875 
Q 41.796875 52.984375 37.671875 58.78125 
Q 33.546875 64.59375 27.390625 64.59375 
Q 21.34375 64.59375 17.71875 59.46875 
Q 13.1875 52.9375 13.1875 35.296875 
z
" id="ArialMT-48"/>
       </defs>
       <use xlink:href="#ArialMT-49"/>
       <use x="55.615234" xlink:href="#ArialMT-46"/>
       <use x="83.398438" xlink:href="#ArialMT-48"/>
      </g>
     </g>
    </g>
    <g id="xtick_2">
     <g id="line2d_2">
      <g>
       <use style="fill:#262626;stroke:#262626;" x="84.104875" xlink:href="#m64085c6e7d" y="342.1585"/>
      </g>
     </g>
     <g id="text_2">
      <!-- 1.5 -->
      <g style="fill:#262626;" transform="translate(77.988875 356.757375)scale(0.088 -0.088)">
       <defs>
        <path d="M 4.15625 18.75 
L 13.375 19.53125 
Q 14.40625 12.796875 18.140625 9.390625 
Q 21.875 6 27.15625 6 
Q 33.5 6 37.890625 10.78125 
Q 42.28125 15.578125 42.28125 23.484375 
Q 42.28125 31 38.0625 35.34375 
Q 33.84375 39.703125 27 39.703125 
Q 22.75 39.703125 19.328125 37.765625 
Q 15.921875 35.84375 13.96875 32.765625 
L 5.71875 33.84375 
L 12.640625 70.609375 
L 48.25 70.609375 
L 48.25 62.203125 
L 19.671875 62.203125 
L 15.828125 42.96875 
Q 22.265625 47.46875 29.34375 47.46875 
Q 38.71875 47.46875 45.15625 40.96875 
Q 51.609375 34.46875 51.609375 24.265625 
Q 51.609375 14.546875 45.953125 7.46875 
Q 39.0625 -1.21875 27.15625 -1.21875 
Q 17.390625 -1.21875 11.203125 4.25 
Q 5.03125 9.71875 4.15625 18.75 
z
" id="ArialMT-53"/>
       </defs>
       <use xlink:href="#ArialMT-49"/>
       <use x="55.615234" xlink:href="#ArialMT-46"/>
       <use x="83.398438" xlink:href="#ArialMT-53"/>
      </g>
     </g>
    </g>
    <g id="xtick_3">
     <g id="line2d_3">
      <g>
       <use style="fill:#262626;stroke:#262626;" x="122.569125" xlink:href="#m64085c6e7d" y="342.1585"/>
      </g>
     </g>
     <g id="text_3">
      <!-- 2.0 -->
      <g style="fill:#262626;" transform="translate(116.453125 356.757375)scale(0.088 -0.088)">
       <defs>
        <path d="M 50.34375 8.453125 
L 50.34375 0 
L 3.03125 0 
Q 2.9375 3.171875 4.046875 6.109375 
Q 5.859375 10.9375 9.828125 15.625 
Q 13.8125 20.3125 21.34375 26.46875 
Q 33.015625 36.03125 37.109375 41.625 
Q 41.21875 47.21875 41.21875 52.203125 
Q 41.21875 57.421875 37.46875 61 
Q 33.734375 64.59375 27.734375 64.59375 
Q 21.390625 64.59375 17.578125 60.78125 
Q 13.765625 56.984375 13.71875 50.25 
L 4.6875 51.171875 
Q 5.609375 61.28125 11.65625 66.578125 
Q 17.71875 71.875 27.9375 71.875 
Q 38.234375 71.875 44.234375 66.15625 
Q 50.25 60.453125 50.25 52 
Q 50.25 47.703125 48.484375 43.546875 
Q 46.734375 39.40625 42.65625 34.8125 
Q 38.578125 30.21875 29.109375 22.21875 
Q 21.1875 15.578125 18.9375 13.203125 
Q 16.703125 10.84375 15.234375 8.453125 
z
" id="ArialMT-50"/>
       </defs>
       <use xlink:href="#ArialMT-50"/>
       <use x="55.615234" xlink:href="#ArialMT-46"/>
       <use x="83.398438" xlink:href="#ArialMT-48"/>
      </g>
     </g>
    </g>
    <g id="xtick_4">
     <g id="line2d_4">
      <g>
       <use style="fill:#262626;stroke:#262626;" x="161.033375" xlink:href="#m64085c6e7d" y="342.1585"/>
      </g>
     </g>
     <g id="text_4">
      <!-- 2.5 -->
      <g style="fill:#262626;" transform="translate(154.917375 356.757375)scale(0.088 -0.088)">
       <use xlink:href="#ArialMT-50"/>
       <use x="55.615234" xlink:href="#ArialMT-46"/>
       <use x="83.398438" xlink:href="#ArialMT-53"/>
      </g>
     </g>
    </g>
    <g id="xtick_5">
     <g id="line2d_5">
      <g>
       <use style="fill:#262626;stroke:#262626;" x="199.497625" xlink:href="#m64085c6e7d" y="342.1585"/>
      </g>
     </g>
     <g id="text_5">
      <!-- 3.0 -->
      <g style="fill:#262626;" transform="translate(193.381625 356.757375)scale(0.088 -0.088)">
       <defs>
        <path d="M 4.203125 18.890625 
L 12.984375 20.0625 
Q 14.5 12.59375 18.140625 9.296875 
Q 21.78125 6 27 6 
Q 33.203125 6 37.46875 10.296875 
Q 41.75 14.59375 41.75 20.953125 
Q 41.75 27 37.796875 30.921875 
Q 33.84375 34.859375 27.734375 34.859375 
Q 25.25 34.859375 21.53125 33.890625 
L 22.515625 41.609375 
Q 23.390625 41.5 23.921875 41.5 
Q 29.546875 41.5 34.03125 44.421875 
Q 38.53125 47.359375 38.53125 53.46875 
Q 38.53125 58.296875 35.25 61.46875 
Q 31.984375 64.65625 26.8125 64.65625 
Q 21.6875 64.65625 18.265625 61.421875 
Q 14.84375 58.203125 13.875 51.765625 
L 5.078125 53.328125 
Q 6.6875 62.15625 12.390625 67.015625 
Q 18.109375 71.875 26.609375 71.875 
Q 32.46875 71.875 37.390625 69.359375 
Q 42.328125 66.84375 44.9375 62.5 
Q 47.5625 58.15625 47.5625 53.265625 
Q 47.5625 48.640625 45.0625 44.828125 
Q 42.578125 41.015625 37.703125 38.765625 
Q 44.046875 37.3125 47.5625 32.6875 
Q 51.078125 28.078125 51.078125 21.140625 
Q 51.078125 11.765625 44.234375 5.25 
Q 37.40625 -1.265625 26.953125 -1.265625 
Q 17.53125 -1.265625 11.296875 4.34375 
Q 5.078125 9.96875 4.203125 18.890625 
z
" id="ArialMT-51"/>
       </defs>
       <use xlink:href="#ArialMT-51"/>
       <use x="55.615234" xlink:href="#ArialMT-46"/>
       <use x="83.398438" xlink:href="#ArialMT-48"/>
      </g>
     </g>
    </g>
    <g id="xtick_6">
     <g id="line2d_6">
      <g>
       <use style="fill:#262626;stroke:#262626;" x="237.961875" xlink:href="#m64085c6e7d" y="342.1585"/>
      </g>
     </g>
     <g id="text_6">
      <!-- 3.5 -->
      <g style="fill:#262626;" transform="translate(231.845875 356.757375)scale(0.088 -0.088)">
       <use xlink:href="#ArialMT-51"/>
       <use x="55.615234" xlink:href="#ArialMT-46"/>
       <use x="83.398438" xlink:href="#ArialMT-53"/>
      </g>
     </g>
    </g>
    <g id="xtick_7">
     <g id="line2d_7">
      <g>
       <use style="fill:#262626;stroke:#262626;" x="276.426125" xlink:href="#m64085c6e7d" y="342.1585"/>
      </g>
     </g>
     <g id="text_7">
      <!-- 4.0 -->
      <g style="fill:#262626;" transform="translate(270.310125 356.757375)scale(0.088 -0.088)">
       <defs>
        <path d="M 32.328125 0 
L 32.328125 17.140625 
L 1.265625 17.140625 
L 1.265625 25.203125 
L 33.9375 71.578125 
L 41.109375 71.578125 
L 41.109375 25.203125 
L 50.78125 25.203125 
L 50.78125 17.140625 
L 41.109375 17.140625 
L 41.109375 0 
z
M 32.328125 25.203125 
L 32.328125 57.46875 
L 9.90625 25.203125 
z
" id="ArialMT-52"/>
       </defs>
       <use xlink:href="#ArialMT-52"/>
       <use x="55.615234" xlink:href="#ArialMT-46"/>
       <use x="83.398438" xlink:href="#ArialMT-48"/>
      </g>
     </g>
    </g>
    <g id="xtick_8">
     <g id="line2d_8">
      <g>
       <use style="fill:#262626;stroke:#262626;" x="314.890375" xlink:href="#m64085c6e7d" y="342.1585"/>
      </g>
     </g>
     <g id="text_8">
      <!-- 4.5 -->
      <g style="fill:#262626;" transform="translate(308.774375 356.757375)scale(0.088 -0.088)">
       <use xlink:href="#ArialMT-52"/>
       <use x="55.615234" xlink:href="#ArialMT-46"/>
       <use x="83.398438" xlink:href="#ArialMT-53"/>
      </g>
     </g>
    </g>
    <g id="xtick_9">
     <g id="line2d_9">
      <g>
       <use style="fill:#262626;stroke:#262626;" x="353.354625" xlink:href="#m64085c6e7d" y="342.1585"/>
      </g>
     </g>
     <g id="text_9">
      <!-- 5.0 -->
      <g style="fill:#262626;" transform="translate(347.238625 356.757375)scale(0.088 -0.088)">
       <use xlink:href="#ArialMT-53"/>
       <use x="55.615234" xlink:href="#ArialMT-46"/>
       <use x="83.398438" xlink:href="#ArialMT-48"/>
      </g>
     </g>
    </g>
    <g id="text_10">
     <!-- Water Quality Perception -->
     <g style="fill:#262626;" transform="translate(146.324875 369.500875)scale(0.096 -0.096)">
      <defs>
       <path d="M 20.21875 0 
L 1.21875 71.578125 
L 10.9375 71.578125 
L 21.828125 24.65625 
Q 23.578125 17.28125 24.859375 10.015625 
Q 27.59375 21.484375 28.078125 23.25 
L 41.703125 71.578125 
L 53.125 71.578125 
L 63.375 35.359375 
Q 67.234375 21.875 68.953125 10.015625 
Q 70.3125 16.796875 72.515625 25.59375 
L 83.734375 71.578125 
L 93.265625 71.578125 
L 73.640625 0 
L 64.5 0 
L 49.421875 54.546875 
Q 47.515625 61.375 47.171875 62.9375 
Q 46.046875 58.015625 45.0625 54.546875 
L 29.890625 0 
z
" id="ArialMT-87"/>
       <path d="M 40.4375 6.390625 
Q 35.546875 2.25 31.03125 0.53125 
Q 26.515625 -1.171875 21.34375 -1.171875 
Q 12.796875 -1.171875 8.203125 3 
Q 3.609375 7.171875 3.609375 13.671875 
Q 3.609375 17.484375 5.34375 20.625 
Q 7.078125 23.78125 9.890625 25.6875 
Q 12.703125 27.59375 16.21875 28.5625 
Q 18.796875 29.25 24.03125 29.890625 
Q 34.671875 31.15625 39.703125 32.90625 
Q 39.75 34.71875 39.75 35.203125 
Q 39.75 40.578125 37.25 42.78125 
Q 33.890625 45.75 27.25 45.75 
Q 21.046875 45.75 18.09375 43.578125 
Q 15.140625 41.40625 13.71875 35.890625 
L 5.125 37.0625 
Q 6.296875 42.578125 8.984375 45.96875 
Q 11.671875 49.359375 16.75 51.1875 
Q 21.828125 53.03125 28.515625 53.03125 
Q 35.15625 53.03125 39.296875 51.46875 
Q 43.453125 49.90625 45.40625 47.53125 
Q 47.359375 45.171875 48.140625 41.546875 
Q 48.578125 39.3125 48.578125 33.453125 
L 48.578125 21.734375 
Q 48.578125 9.46875 49.140625 6.21875 
Q 49.703125 2.984375 51.375 0 
L 42.1875 0 
Q 40.828125 2.734375 40.4375 6.390625 
z
M 39.703125 26.03125 
Q 34.90625 24.078125 25.34375 22.703125 
Q 19.921875 21.921875 17.671875 20.9375 
Q 15.4375 19.96875 14.203125 18.09375 
Q 12.984375 16.21875 12.984375 13.921875 
Q 12.984375 10.40625 15.640625 8.0625 
Q 18.3125 5.71875 23.4375 5.71875 
Q 28.515625 5.71875 32.46875 7.9375 
Q 36.421875 10.15625 38.28125 14.015625 
Q 39.703125 17 39.703125 22.796875 
z
" id="ArialMT-97"/>
       <path d="M 25.78125 7.859375 
L 27.046875 0.09375 
Q 23.34375 -0.6875 20.40625 -0.6875 
Q 15.625 -0.6875 12.984375 0.828125 
Q 10.359375 2.34375 9.28125 4.8125 
Q 8.203125 7.28125 8.203125 15.1875 
L 8.203125 45.015625 
L 1.765625 45.015625 
L 1.765625 51.859375 
L 8.203125 51.859375 
L 8.203125 64.703125 
L 16.9375 69.96875 
L 16.9375 51.859375 
L 25.78125 51.859375 
L 25.78125 45.015625 
L 16.9375 45.015625 
L 16.9375 14.703125 
Q 16.9375 10.9375 17.40625 9.859375 
Q 17.875 8.796875 18.921875 8.15625 
Q 19.96875 7.515625 21.921875 7.515625 
Q 23.390625 7.515625 25.78125 7.859375 
z
" id="ArialMT-116"/>
       <path d="M 42.09375 16.703125 
L 51.171875 15.578125 
Q 49.03125 7.625 43.21875 3.21875 
Q 37.40625 -1.171875 28.375 -1.171875 
Q 17 -1.171875 10.328125 5.828125 
Q 3.65625 12.84375 3.65625 25.484375 
Q 3.65625 38.578125 10.390625 45.796875 
Q 17.140625 53.03125 27.875 53.03125 
Q 38.28125 53.03125 44.875 45.953125 
Q 51.46875 38.875 51.46875 26.03125 
Q 51.46875 25.25 51.421875 23.6875 
L 12.75 23.6875 
Q 13.234375 15.140625 17.578125 10.59375 
Q 21.921875 6.0625 28.421875 6.0625 
Q 33.25 6.0625 36.671875 8.59375 
Q 40.09375 11.140625 42.09375 16.703125 
z
M 13.234375 30.90625 
L 42.1875 30.90625 
Q 41.609375 37.453125 38.875 40.71875 
Q 34.671875 45.796875 27.984375 45.796875 
Q 21.921875 45.796875 17.796875 41.75 
Q 13.671875 37.703125 13.234375 30.90625 
z
" id="ArialMT-101"/>
       <path d="M 6.5 0 
L 6.5 51.859375 
L 14.40625 51.859375 
L 14.40625 44 
Q 17.4375 49.515625 20 51.265625 
Q 22.5625 53.03125 25.640625 53.03125 
Q 30.078125 53.03125 34.671875 50.203125 
L 31.640625 42.046875 
Q 28.421875 43.953125 25.203125 43.953125 
Q 22.3125 43.953125 20.015625 42.21875 
Q 17.71875 40.484375 16.75 37.40625 
Q 15.28125 32.71875 15.28125 27.15625 
L 15.28125 0 
z
" id="ArialMT-114"/>
       <path id="ArialMT-32"/>
       <path d="M 61.96875 7.671875 
Q 68.5625 3.125 74.125 1.03125 
L 71.34375 -5.5625 
Q 63.625 -2.78125 55.953125 3.21875 
Q 48 -1.21875 38.375 -1.21875 
Q 28.65625 -1.21875 20.75 3.46875 
Q 12.84375 8.15625 8.5625 16.640625 
Q 4.296875 25.140625 4.296875 35.796875 
Q 4.296875 46.390625 8.59375 55.078125 
Q 12.890625 63.765625 20.828125 68.3125 
Q 28.765625 72.859375 38.578125 72.859375 
Q 48.484375 72.859375 56.4375 68.140625 
Q 64.40625 63.421875 68.578125 54.953125 
Q 72.75 46.484375 72.75 35.84375 
Q 72.75 27 70.0625 19.9375 
Q 67.390625 12.890625 61.96875 7.671875 
z
M 41.109375 19.78125 
Q 49.3125 17.484375 54.640625 12.9375 
Q 62.984375 20.5625 62.984375 35.84375 
Q 62.984375 44.53125 60.03125 51.015625 
Q 57.078125 57.515625 51.390625 61.109375 
Q 45.703125 64.703125 38.625 64.703125 
Q 28.03125 64.703125 21.046875 57.453125 
Q 14.0625 50.203125 14.0625 35.796875 
Q 14.0625 21.828125 20.96875 14.359375 
Q 27.875 6.890625 38.625 6.890625 
Q 43.703125 6.890625 48.1875 8.796875 
Q 43.75 11.671875 38.8125 12.890625 
z
" id="ArialMT-81"/>
       <path d="M 40.578125 0 
L 40.578125 7.625 
Q 34.515625 -1.171875 24.125 -1.171875 
Q 19.53125 -1.171875 15.546875 0.578125 
Q 11.578125 2.34375 9.640625 5 
Q 7.71875 7.671875 6.9375 11.53125 
Q 6.390625 14.109375 6.390625 19.734375 
L 6.390625 51.859375 
L 15.1875 51.859375 
L 15.1875 23.09375 
Q 15.1875 16.21875 15.71875 13.8125 
Q 16.546875 10.359375 19.234375 8.375 
Q 21.921875 6.390625 25.875 6.390625 
Q 29.828125 6.390625 33.296875 8.421875 
Q 36.765625 10.453125 38.203125 13.9375 
Q 39.65625 17.4375 39.65625 24.078125 
L 39.65625 51.859375 
L 48.4375 51.859375 
L 48.4375 0 
z
" id="ArialMT-117"/>
       <path d="M 6.390625 0 
L 6.390625 71.578125 
L 15.1875 71.578125 
L 15.1875 0 
z
" id="ArialMT-108"/>
       <path d="M 6.640625 61.46875 
L 6.640625 71.578125 
L 15.4375 71.578125 
L 15.4375 61.46875 
z
M 6.640625 0 
L 6.640625 51.859375 
L 15.4375 51.859375 
L 15.4375 0 
z
" id="ArialMT-105"/>
       <path d="M 6.203125 -19.96875 
L 5.21875 -11.71875 
Q 8.109375 -12.5 10.25 -12.5 
Q 13.1875 -12.5 14.9375 -11.515625 
Q 16.703125 -10.546875 17.828125 -8.796875 
Q 18.65625 -7.46875 20.515625 -2.25 
Q 20.75 -1.515625 21.296875 -0.09375 
L 1.609375 51.859375 
L 11.078125 51.859375 
L 21.875 21.828125 
Q 23.96875 16.109375 25.640625 9.8125 
Q 27.15625 15.875 29.25 21.625 
L 40.328125 51.859375 
L 49.125 51.859375 
L 29.390625 -0.875 
Q 26.21875 -9.421875 24.46875 -12.640625 
Q 22.125 -17 19.09375 -19.015625 
Q 16.0625 -21.046875 11.859375 -21.046875 
Q 9.328125 -21.046875 6.203125 -19.96875 
z
" id="ArialMT-121"/>
       <path d="M 7.71875 0 
L 7.71875 71.578125 
L 34.71875 71.578125 
Q 41.84375 71.578125 45.609375 70.90625 
Q 50.875 70.015625 54.4375 67.546875 
Q 58.015625 65.09375 60.1875 60.640625 
Q 62.359375 56.203125 62.359375 50.875 
Q 62.359375 41.75 56.546875 35.421875 
Q 50.734375 29.109375 35.546875 29.109375 
L 17.1875 29.109375 
L 17.1875 0 
z
M 17.1875 37.546875 
L 35.6875 37.546875 
Q 44.875 37.546875 48.734375 40.96875 
Q 52.59375 44.390625 52.59375 50.59375 
Q 52.59375 55.078125 50.3125 58.265625 
Q 48.046875 61.46875 44.34375 62.5 
Q 41.9375 63.140625 35.5 63.140625 
L 17.1875 63.140625 
z
" id="ArialMT-80"/>
       <path d="M 40.4375 19 
L 49.078125 17.875 
Q 47.65625 8.9375 41.8125 3.875 
Q 35.984375 -1.171875 27.484375 -1.171875 
Q 16.84375 -1.171875 10.375 5.78125 
Q 3.90625 12.75 3.90625 25.734375 
Q 3.90625 34.125 6.6875 40.421875 
Q 9.46875 46.734375 15.15625 49.875 
Q 20.84375 53.03125 27.546875 53.03125 
Q 35.984375 53.03125 41.359375 48.75 
Q 46.734375 44.484375 48.25 36.625 
L 39.703125 35.296875 
Q 38.484375 40.53125 35.375 43.15625 
Q 32.28125 45.796875 27.875 45.796875 
Q 21.234375 45.796875 17.078125 41.03125 
Q 12.9375 36.28125 12.9375 25.984375 
Q 12.9375 15.53125 16.9375 10.796875 
Q 20.953125 6.0625 27.390625 6.0625 
Q 32.5625 6.0625 36.03125 9.234375 
Q 39.5 12.40625 40.4375 19 
z
" id="ArialMT-99"/>
       <path d="M 6.59375 -19.875 
L 6.59375 51.859375 
L 14.59375 51.859375 
L 14.59375 45.125 
Q 17.4375 49.078125 21 51.046875 
Q 24.5625 53.03125 29.640625 53.03125 
Q 36.28125 53.03125 41.359375 49.609375 
Q 46.4375 46.1875 49.015625 39.953125 
Q 51.609375 33.734375 51.609375 26.3125 
Q 51.609375 18.359375 48.75 11.984375 
Q 45.90625 5.609375 40.453125 2.21875 
Q 35.015625 -1.171875 29 -1.171875 
Q 24.609375 -1.171875 21.109375 0.6875 
Q 17.625 2.546875 15.375 5.375 
L 15.375 -19.875 
z
M 14.546875 25.640625 
Q 14.546875 15.625 18.59375 10.84375 
Q 22.65625 6.0625 28.421875 6.0625 
Q 34.28125 6.0625 38.453125 11.015625 
Q 42.625 15.96875 42.625 26.375 
Q 42.625 36.28125 38.546875 41.203125 
Q 34.46875 46.140625 28.8125 46.140625 
Q 23.1875 46.140625 18.859375 40.890625 
Q 14.546875 35.640625 14.546875 25.640625 
z
" id="ArialMT-112"/>
       <path d="M 3.328125 25.921875 
Q 3.328125 40.328125 11.328125 47.265625 
Q 18.015625 53.03125 27.640625 53.03125 
Q 38.328125 53.03125 45.109375 46.015625 
Q 51.90625 39.015625 51.90625 26.65625 
Q 51.90625 16.65625 48.90625 10.90625 
Q 45.90625 5.171875 40.15625 2 
Q 34.421875 -1.171875 27.640625 -1.171875 
Q 16.75 -1.171875 10.03125 5.8125 
Q 3.328125 12.796875 3.328125 25.921875 
z
M 12.359375 25.921875 
Q 12.359375 15.96875 16.703125 11.015625 
Q 21.046875 6.0625 27.640625 6.0625 
Q 34.1875 6.0625 38.53125 11.03125 
Q 42.875 16.015625 42.875 26.21875 
Q 42.875 35.84375 38.5 40.796875 
Q 34.125 45.75 27.640625 45.75 
Q 21.046875 45.75 16.703125 40.8125 
Q 12.359375 35.890625 12.359375 25.921875 
z
" id="ArialMT-111"/>
       <path d="M 6.59375 0 
L 6.59375 51.859375 
L 14.5 51.859375 
L 14.5 44.484375 
Q 20.21875 53.03125 31 53.03125 
Q 35.6875 53.03125 39.625 51.34375 
Q 43.5625 49.65625 45.515625 46.921875 
Q 47.46875 44.1875 48.25 40.4375 
Q 48.734375 37.984375 48.734375 31.890625 
L 48.734375 0 
L 39.9375 0 
L 39.9375 31.546875 
Q 39.9375 36.921875 38.90625 39.578125 
Q 37.890625 42.234375 35.28125 43.8125 
Q 32.671875 45.40625 29.15625 45.40625 
Q 23.53125 45.40625 19.453125 41.84375 
Q 15.375 38.28125 15.375 28.328125 
L 15.375 0 
z
" id="ArialMT-110"/>
      </defs>
      <use xlink:href="#ArialMT-87"/>
      <use x="90.634766" xlink:href="#ArialMT-97"/>
      <use x="146.25" xlink:href="#ArialMT-116"/>
      <use x="174.033203" xlink:href="#ArialMT-101"/>
      <use x="229.648438" xlink:href="#ArialMT-114"/>
      <use x="262.949219" xlink:href="#ArialMT-32"/>
      <use x="290.732422" xlink:href="#ArialMT-81"/>
      <use x="368.515625" xlink:href="#ArialMT-117"/>
      <use x="424.130859" xlink:href="#ArialMT-97"/>
      <use x="479.746094" xlink:href="#ArialMT-108"/>
      <use x="501.962891" xlink:href="#ArialMT-105"/>
      <use x="524.179688" xlink:href="#ArialMT-116"/>
      <use x="551.962891" xlink:href="#ArialMT-121"/>
      <use x="601.962891" xlink:href="#ArialMT-32"/>
      <use x="629.746094" xlink:href="#ArialMT-80"/>
      <use x="696.445312" xlink:href="#ArialMT-101"/>
      <use x="752.060547" xlink:href="#ArialMT-114"/>
      <use x="785.361328" xlink:href="#ArialMT-99"/>
      <use x="835.361328" xlink:href="#ArialMT-101"/>
      <use x="890.976562" xlink:href="#ArialMT-112"/>
      <use x="946.591797" xlink:href="#ArialMT-116"/>
      <use x="974.375" xlink:href="#ArialMT-105"/>
      <use x="996.591797" xlink:href="#ArialMT-111"/>
      <use x="1052.207031" xlink:href="#ArialMT-110"/>
     </g>
    </g>
   </g>
   <g id="matplotlib.axis_2">
    <g id="ytick_1">
     <g id="line2d_10">
      <defs>
       <path d="M 0 0 
L -4.8 0 
" id="m308d6c0146" style="stroke:#262626;"/>
      </defs>
      <g>
       <use style="fill:#262626;stroke:#262626;" x="45.640625" xlink:href="#m308d6c0146" y="307.619265"/>
      </g>
     </g>
     <g id="text_11">
      <!-- 14.5 -->
      <g style="fill:#262626;" transform="translate(20.215 310.768702)scale(0.088 -0.088)">
       <use xlink:href="#ArialMT-49"/>
       <use x="55.615234" xlink:href="#ArialMT-52"/>
       <use x="111.230469" xlink:href="#ArialMT-46"/>
       <use x="139.013672" xlink:href="#ArialMT-53"/>
      </g>
     </g>
    </g>
    <g id="ytick_2">
     <g id="line2d_11">
      <g>
       <use style="fill:#262626;stroke:#262626;" x="45.640625" xlink:href="#m308d6c0146" y="266.477714"/>
      </g>
     </g>
     <g id="text_12">
      <!-- 15.0 -->
      <g style="fill:#262626;" transform="translate(20.215 269.627151)scale(0.088 -0.088)">
       <use xlink:href="#ArialMT-49"/>
       <use x="55.615234" xlink:href="#ArialMT-53"/>
       <use x="111.230469" xlink:href="#ArialMT-46"/>
       <use x="139.013672" xlink:href="#ArialMT-48"/>
      </g>
     </g>
    </g>
    <g id="ytick_3">
     <g id="line2d_12">
      <g>
       <use style="fill:#262626;stroke:#262626;" x="45.640625" xlink:href="#m308d6c0146" y="225.336163"/>
      </g>
     </g>
     <g id="text_13">
      <!-- 15.5 -->
      <g style="fill:#262626;" transform="translate(20.215 228.4856)scale(0.088 -0.088)">
       <use xlink:href="#ArialMT-49"/>
       <use x="55.615234" xlink:href="#ArialMT-53"/>
       <use x="111.230469" xlink:href="#ArialMT-46"/>
       <use x="139.013672" xlink:href="#ArialMT-53"/>
      </g>
     </g>
    </g>
    <g id="ytick_4">
     <g id="line2d_13">
      <g>
       <use style="fill:#262626;stroke:#262626;" x="45.640625" xlink:href="#m308d6c0146" y="184.194612"/>
      </g>
     </g>
     <g id="text_14">
      <!-- 16.0 -->
      <g style="fill:#262626;" transform="translate(20.215 187.344049)scale(0.088 -0.088)">
       <defs>
        <path d="M 49.75 54.046875 
L 41.015625 53.375 
Q 39.84375 58.546875 37.703125 60.890625 
Q 34.125 64.65625 28.90625 64.65625 
Q 24.703125 64.65625 21.53125 62.3125 
Q 17.390625 59.28125 14.984375 53.46875 
Q 12.59375 47.65625 12.5 36.921875 
Q 15.671875 41.75 20.265625 44.09375 
Q 24.859375 46.4375 29.890625 46.4375 
Q 38.671875 46.4375 44.84375 39.96875 
Q 51.03125 33.5 51.03125 23.25 
Q 51.03125 16.5 48.125 10.71875 
Q 45.21875 4.9375 40.140625 1.859375 
Q 35.0625 -1.21875 28.609375 -1.21875 
Q 17.625 -1.21875 10.6875 6.859375 
Q 3.765625 14.9375 3.765625 33.5 
Q 3.765625 54.25 11.421875 63.671875 
Q 18.109375 71.875 29.4375 71.875 
Q 37.890625 71.875 43.28125 67.140625 
Q 48.6875 62.40625 49.75 54.046875 
z
M 13.875 23.1875 
Q 13.875 18.65625 15.796875 14.5 
Q 17.71875 10.359375 21.1875 8.171875 
Q 24.65625 6 28.46875 6 
Q 34.03125 6 38.03125 10.484375 
Q 42.046875 14.984375 42.046875 22.703125 
Q 42.046875 30.125 38.078125 34.390625 
Q 34.125 38.671875 28.125 38.671875 
Q 22.171875 38.671875 18.015625 34.390625 
Q 13.875 30.125 13.875 23.1875 
z
" id="ArialMT-54"/>
       </defs>
       <use xlink:href="#ArialMT-49"/>
       <use x="55.615234" xlink:href="#ArialMT-54"/>
       <use x="111.230469" xlink:href="#ArialMT-46"/>
       <use x="139.013672" xlink:href="#ArialMT-48"/>
      </g>
     </g>
    </g>
    <g id="ytick_5">
     <g id="line2d_14">
      <g>
       <use style="fill:#262626;stroke:#262626;" x="45.640625" xlink:href="#m308d6c0146" y="143.053061"/>
      </g>
     </g>
     <g id="text_15">
      <!-- 16.5 -->
      <g style="fill:#262626;" transform="translate(20.215 146.202498)scale(0.088 -0.088)">
       <use xlink:href="#ArialMT-49"/>
       <use x="55.615234" xlink:href="#ArialMT-54"/>
       <use x="111.230469" xlink:href="#ArialMT-46"/>
       <use x="139.013672" xlink:href="#ArialMT-53"/>
      </g>
     </g>
    </g>
    <g id="ytick_6">
     <g id="line2d_15">
      <g>
       <use style="fill:#262626;stroke:#262626;" x="45.640625" xlink:href="#m308d6c0146" y="101.91151"/>
      </g>
     </g>
     <g id="text_16">
      <!-- 17.0 -->
      <g style="fill:#262626;" transform="translate(20.215 105.060947)scale(0.088 -0.088)">
       <defs>
        <path d="M 4.734375 62.203125 
L 4.734375 70.65625 
L 51.078125 70.65625 
L 51.078125 63.8125 
Q 44.234375 56.546875 37.515625 44.484375 
Q 30.8125 32.421875 27.15625 19.671875 
Q 24.515625 10.6875 23.78125 0 
L 14.75 0 
Q 14.890625 8.453125 18.0625 20.40625 
Q 21.234375 32.375 27.171875 43.484375 
Q 33.109375 54.59375 39.796875 62.203125 
z
" id="ArialMT-55"/>
       </defs>
       <use xlink:href="#ArialMT-49"/>
       <use x="55.615234" xlink:href="#ArialMT-55"/>
       <use x="111.230469" xlink:href="#ArialMT-46"/>
       <use x="139.013672" xlink:href="#ArialMT-48"/>
      </g>
     </g>
    </g>
    <g id="ytick_7">
     <g id="line2d_16">
      <g>
       <use style="fill:#262626;stroke:#262626;" x="45.640625" xlink:href="#m308d6c0146" y="60.769959"/>
      </g>
     </g>
     <g id="text_17">
      <!-- 17.5 -->
      <g style="fill:#262626;" transform="translate(20.215 63.919396)scale(0.088 -0.088)">
       <use xlink:href="#ArialMT-49"/>
       <use x="55.615234" xlink:href="#ArialMT-55"/>
       <use x="111.230469" xlink:href="#ArialMT-46"/>
       <use x="139.013672" xlink:href="#ArialMT-53"/>
      </g>
     </g>
    </g>
    <g id="text_18">
     <!-- Water Quality Score -->
     <g style="fill:#262626;" transform="translate(14.1945 223.9415)rotate(-90)scale(0.096 -0.096)">
      <defs>
       <path d="M 4.5 23 
L 13.421875 23.78125 
Q 14.0625 18.40625 16.375 14.96875 
Q 18.703125 11.53125 23.578125 9.40625 
Q 28.46875 7.28125 34.578125 7.28125 
Q 39.984375 7.28125 44.140625 8.890625 
Q 48.296875 10.5 50.3125 13.296875 
Q 52.34375 16.109375 52.34375 19.4375 
Q 52.34375 22.796875 50.390625 25.3125 
Q 48.4375 27.828125 43.953125 29.546875 
Q 41.0625 30.671875 31.203125 33.03125 
Q 21.34375 35.40625 17.390625 37.5 
Q 12.25 40.1875 9.734375 44.15625 
Q 7.234375 48.140625 7.234375 53.078125 
Q 7.234375 58.5 10.296875 63.203125 
Q 13.375 67.921875 19.28125 70.359375 
Q 25.203125 72.796875 32.421875 72.796875 
Q 40.375 72.796875 46.453125 70.234375 
Q 52.546875 67.671875 55.8125 62.6875 
Q 59.078125 57.71875 59.328125 51.421875 
L 50.25 50.734375 
Q 49.515625 57.515625 45.28125 60.984375 
Q 41.0625 64.453125 32.8125 64.453125 
Q 24.21875 64.453125 20.28125 61.296875 
Q 16.359375 58.15625 16.359375 53.71875 
Q 16.359375 49.859375 19.140625 47.359375 
Q 21.875 44.875 33.421875 42.265625 
Q 44.96875 39.65625 49.265625 37.703125 
Q 55.515625 34.8125 58.484375 30.390625 
Q 61.46875 25.984375 61.46875 20.21875 
Q 61.46875 14.5 58.203125 9.4375 
Q 54.9375 4.390625 48.796875 1.578125 
Q 42.671875 -1.21875 35.015625 -1.21875 
Q 25.296875 -1.21875 18.71875 1.609375 
Q 12.15625 4.4375 8.421875 10.125 
Q 4.6875 15.828125 4.5 23 
z
" id="ArialMT-83"/>
      </defs>
      <use xlink:href="#ArialMT-87"/>
      <use x="90.634766" xlink:href="#ArialMT-97"/>
      <use x="146.25" xlink:href="#ArialMT-116"/>
      <use x="174.033203" xlink:href="#ArialMT-101"/>
      <use x="229.648438" xlink:href="#ArialMT-114"/>
      <use x="262.949219" xlink:href="#ArialMT-32"/>
      <use x="290.732422" xlink:href="#ArialMT-81"/>
      <use x="368.515625" xlink:href="#ArialMT-117"/>
      <use x="424.130859" xlink:href="#ArialMT-97"/>
      <use x="479.746094" xlink:href="#ArialMT-108"/>
      <use x="501.962891" xlink:href="#ArialMT-105"/>
      <use x="524.179688" xlink:href="#ArialMT-116"/>
      <use x="551.962891" xlink:href="#ArialMT-121"/>
      <use x="601.962891" xlink:href="#ArialMT-32"/>
      <use x="629.746094" xlink:href="#ArialMT-83"/>
      <use x="696.445312" xlink:href="#ArialMT-99"/>
      <use x="746.445312" xlink:href="#ArialMT-111"/>
      <use x="802.060547" xlink:href="#ArialMT-114"/>
      <use x="835.361328" xlink:href="#ArialMT-101"/>
     </g>
    </g>
   </g>
   <g id="PathCollection_1">
    <defs>
     <path d="M 0 3.535534 
C 0.937635 3.535534 1.836992 3.163008 2.5 2.5 
C 3.163008 1.836992 3.535534 0.937635 3.535534 0 
C 3.535534 -0.937635 3.163008 -1.836992 2.5 -2.5 
C 1.836992 -3.163008 0.937635 -3.535534 0 -3.535534 
C -0.937635 -3.535534 -1.836992 -3.163008 -2.5 -2.5 
C -3.163008 -1.836992 -3.535534 -0.937635 -3.535534 0 
C -3.535534 0.937635 -3.163008 1.836992 -2.5 2.5 
C -1.836992 3.163008 -0.937635 3.535534 0 3.535534 
z
" id="mea6542146d" style="stroke:#4c72b0;stroke-width:0.8;"/>
    </defs>
    <g clip-path="url(#p074290c3ee)">
     <use style="fill:#4c72b0;stroke:#4c72b0;stroke-width:0.8;" x="45.640625" xlink:href="#mea6542146d" y="64.222945"/>
     <use style="fill:#4c72b0;stroke:#4c72b0;stroke-width:0.8;" x="122.569125" xlink:href="#mea6542146d" y="119.846576"/>
     <use style="fill:#4c72b0;stroke:#4c72b0;stroke-width:0.8;" x="199.497625" xlink:href="#mea6542146d" y="163.262583"/>
     <use style="fill:#4c72b0;stroke:#4c72b0;stroke-width:0.8;" x="276.426125" xlink:href="#mea6542146d" y="191.407288"/>
     <use style="fill:#4c72b0;stroke:#4c72b0;stroke-width:0.8;" x="353.354625" xlink:href="#mea6542146d" y="210.221479"/>
    </g>
   </g>
   <g id="PolyCollection_1">
    <defs>
     <path d="M 45.640625 -328.309245 
L 45.640625 -281.932527 
L 48.748847 -280.671136 
L 51.857069 -279.430126 
L 54.965292 -278.086976 
L 58.073514 -276.850735 
L 61.181736 -275.450924 
L 64.289958 -274.08894 
L 67.398181 -272.917486 
L 70.506403 -271.80186 
L 73.614625 -270.58278 
L 76.722847 -269.315574 
L 79.831069 -267.751758 
L 82.939292 -266.301879 
L 86.047514 -264.956504 
L 89.155736 -263.503481 
L 92.263958 -262.098043 
L 95.372181 -260.596344 
L 98.480403 -259.053417 
L 101.588625 -257.519974 
L 104.696847 -255.962916 
L 107.805069 -254.417905 
L 110.913292 -252.984306 
L 114.021514 -251.734326 
L 117.129736 -250.012675 
L 120.237958 -248.87856 
L 123.346181 -247.411743 
L 126.454403 -245.759949 
L 129.562625 -244.323959 
L 132.670847 -242.910457 
L 135.779069 -241.500958 
L 138.887292 -240.056935 
L 141.995514 -238.459531 
L 145.103736 -236.613192 
L 148.211958 -234.70051 
L 151.320181 -232.916647 
L 154.428403 -231.031525 
L 157.536625 -229.324928 
L 160.644847 -227.570659 
L 163.753069 -225.293854 
L 166.861292 -223.666372 
L 169.969514 -221.645414 
L 173.077736 -219.655926 
L 176.185958 -218.088325 
L 179.294181 -216.318676 
L 182.402403 -214.27618 
L 185.510625 -212.308034 
L 188.618847 -210.280938 
L 191.727069 -208.580811 
L 194.835292 -206.47464 
L 197.943514 -204.444001 
L 201.051736 -202.688792 
L 204.159958 -200.949918 
L 207.268181 -198.884864 
L 210.376403 -196.905159 
L 213.484625 -194.863845 
L 216.592847 -192.62778 
L 219.701069 -190.533836 
L 222.809292 -188.352767 
L 225.917514 -186.040609 
L 229.025736 -183.783718 
L 232.133958 -181.809694 
L 235.242181 -179.846326 
L 238.350403 -177.846376 
L 241.458625 -175.764818 
L 244.566847 -173.523857 
L 247.675069 -171.357602 
L 250.783292 -169.191347 
L 253.891514 -167.028229 
L 256.999736 -164.821059 
L 260.107958 -162.572883 
L 263.216181 -160.509248 
L 266.324403 -158.37003 
L 269.432625 -156.205061 
L 272.540847 -153.922276 
L 275.649069 -151.632193 
L 278.757292 -149.34701 
L 281.865514 -147.209701 
L 284.973736 -145.008289 
L 288.081958 -142.767017 
L 291.190181 -140.368658 
L 294.298403 -137.971366 
L 297.406625 -135.646013 
L 300.514847 -133.400718 
L 303.623069 -131.157179 
L 306.731292 -128.93437 
L 309.839514 -126.667346 
L 312.947736 -124.420961 
L 316.055958 -122.179883 
L 319.164181 -119.974988 
L 322.272403 -117.729717 
L 325.380625 -115.443974 
L 328.488847 -113.193331 
L 331.597069 -110.933952 
L 334.705292 -108.657329 
L 337.813514 -106.381513 
L 340.921736 -104.107752 
L 344.029958 -101.83399 
L 347.138181 -99.560229 
L 350.246403 -97.286467 
L 353.354625 -95.012706 
L 353.354625 -173.154165 
L 353.354625 -173.154165 
L 350.246403 -174.237015 
L 347.138181 -175.319865 
L 344.029958 -176.515545 
L 340.921736 -177.543724 
L 337.813514 -178.585857 
L 334.705292 -179.677277 
L 331.597069 -180.945562 
L 328.488847 -182.335337 
L 325.380625 -183.717476 
L 322.272403 -185.099614 
L 319.164181 -186.210641 
L 316.055958 -187.192829 
L 312.947736 -188.175017 
L 309.839514 -189.292405 
L 306.731292 -190.309614 
L 303.623069 -191.323201 
L 300.514847 -192.623713 
L 297.406625 -194.107387 
L 294.298403 -195.586496 
L 291.190181 -196.955826 
L 288.081958 -198.118989 
L 284.973736 -199.513075 
L 281.865514 -200.898702 
L 278.757292 -202.283352 
L 275.649069 -203.414111 
L 272.540847 -204.524355 
L 269.432625 -205.633214 
L 266.324403 -206.800539 
L 263.216181 -208.065135 
L 260.107958 -209.307056 
L 256.999736 -210.797075 
L 253.891514 -211.887601 
L 250.783292 -213.186657 
L 247.675069 -214.488643 
L 244.566847 -215.790629 
L 241.458625 -217.083487 
L 238.350403 -218.376221 
L 235.242181 -219.668955 
L 232.133958 -220.961689 
L 229.025736 -222.254423 
L 225.917514 -223.555449 
L 222.809292 -224.849028 
L 219.701069 -226.162712 
L 216.592847 -227.576598 
L 213.484625 -229.142895 
L 210.376403 -230.6857 
L 207.268181 -231.901587 
L 204.159958 -233.581379 
L 201.051736 -235.321867 
L 197.943514 -237.059703 
L 194.835292 -238.425251 
L 191.727069 -239.53527 
L 188.618847 -240.64529 
L 185.510625 -241.866163 
L 182.402403 -243.132612 
L 179.294181 -244.653492 
L 176.185958 -246.172326 
L 173.077736 -247.618096 
L 169.969514 -248.931272 
L 166.861292 -250.747171 
L 163.753069 -252.328562 
L 160.644847 -254.160305 
L 157.536625 -256.16033 
L 154.428403 -257.951577 
L 151.320181 -259.325062 
L 148.211958 -261.139396 
L 145.103736 -263.15348 
L 141.995514 -265.083747 
L 138.887292 -266.63098 
L 135.779069 -268.642391 
L 132.670847 -270.366313 
L 129.562625 -272.535574 
L 126.454403 -274.114873 
L 123.346181 -276.114015 
L 120.237958 -278.084928 
L 117.129736 -279.909345 
L 114.021514 -281.761459 
L 110.913292 -283.694318 
L 107.805069 -285.531077 
L 104.696847 -287.221347 
L 101.588625 -289.310496 
L 98.480403 -291.125126 
L 95.372181 -293.154728 
L 92.263958 -295.173304 
L 89.155736 -297.432475 
L 86.047514 -299.645762 
L 82.939292 -301.902346 
L 79.831069 -304.061127 
L 76.722847 -306.221631 
L 73.614625 -308.37634 
L 70.506403 -310.482634 
L 67.398181 -312.513666 
L 64.289958 -314.61714 
L 61.181736 -316.996485 
L 58.073514 -319.346629 
L 54.965292 -321.482837 
L 51.857069 -323.613431 
L 48.748847 -325.961717 
L 45.640625 -328.309245 
z
" id="mafc6fe5c1b" style="stroke:#ffffff;stroke-opacity:0.15;stroke-width:0.8;"/>
    </defs>
    <g clip-path="url(#p074290c3ee)">
     <use style="fill:#4c72b0;fill-opacity:0.15;stroke:#ffffff;stroke-opacity:0.15;stroke-width:0.8;" x="0" xlink:href="#mafc6fe5c1b" y="378.721375"/>
    </g>
   </g>
   <g id="line2d_17">
    <path clip-path="url(#p074290c3ee)" d="M 45.640625 94.927821 
L 45.640625 34.829227 
" style="fill:none;stroke:#4c72b0;stroke-linecap:round;stroke-width:2.1;"/>
   </g>
   <g id="line2d_18">
    <path clip-path="url(#p074290c3ee)" d="M 122.569125 140.67783 
L 122.569125 101.214502 
" style="fill:none;stroke:#4c72b0;stroke-linecap:round;stroke-width:2.1;"/>
   </g>
   <g id="line2d_19">
    <path clip-path="url(#p074290c3ee)" d="M 199.497625 187.39447 
L 199.497625 140.129798 
" style="fill:none;stroke:#4c72b0;stroke-linecap:round;stroke-width:2.1;"/>
   </g>
   <g id="line2d_20">
    <path clip-path="url(#p074290c3ee)" d="M 276.426125 234.661225 
L 276.426125 149.488573 
" style="fill:none;stroke:#4c72b0;stroke-linecap:round;stroke-width:2.1;"/>
   </g>
   <g id="line2d_21">
    <path clip-path="url(#p074290c3ee)" d="M 353.354625 327.523773 
L 353.354625 93.877202 
" style="fill:none;stroke:#4c72b0;stroke-linecap:round;stroke-width:2.1;"/>
   </g>
   <g id="line2d_22">
    <path clip-path="url(#p074290c3ee)" d="M 45.640625 73.377493 
L 48.748847 75.110307 
L 51.857069 76.843121 
L 54.965292 78.575935 
L 58.073514 80.308749 
L 61.181736 82.041562 
L 64.289958 83.774376 
L 67.398181 85.50719 
L 70.506403 87.240004 
L 73.614625 88.972818 
L 76.722847 90.705631 
L 79.831069 92.438445 
L 82.939292 94.171259 
L 86.047514 95.904073 
L 89.155736 97.636887 
L 92.263958 99.3697 
L 95.372181 101.102514 
L 98.480403 102.835328 
L 101.588625 104.568142 
L 104.696847 106.300956 
L 107.805069 108.033769 
L 110.913292 109.766583 
L 114.021514 111.499397 
L 117.129736 113.232211 
L 120.237958 114.965025 
L 123.346181 116.697838 
L 126.454403 118.430652 
L 129.562625 120.163466 
L 132.670847 121.89628 
L 135.779069 123.629094 
L 138.887292 125.361907 
L 141.995514 127.094721 
L 145.103736 128.827535 
L 148.211958 130.560349 
L 151.320181 132.293163 
L 154.428403 134.025976 
L 157.536625 135.75879 
L 160.644847 137.491604 
L 163.753069 139.224418 
L 166.861292 140.957232 
L 169.969514 142.690045 
L 173.077736 144.422859 
L 176.185958 146.155673 
L 179.294181 147.888487 
L 182.402403 149.621301 
L 185.510625 151.354114 
L 188.618847 153.086928 
L 191.727069 154.819742 
L 194.835292 156.552556 
L 197.943514 158.28537 
L 201.051736 160.018184 
L 204.159958 161.750997 
L 207.268181 163.483811 
L 210.376403 165.216625 
L 213.484625 166.949439 
L 216.592847 168.682253 
L 219.701069 170.415066 
L 222.809292 172.14788 
L 225.917514 173.880694 
L 229.025736 175.613508 
L 232.133958 177.346322 
L 235.242181 179.079135 
L 238.350403 180.811949 
L 241.458625 182.544763 
L 244.566847 184.277577 
L 247.675069 186.010391 
L 250.783292 187.743204 
L 253.891514 189.476018 
L 256.999736 191.208832 
L 260.107958 192.941646 
L 263.216181 194.67446 
L 266.324403 196.407273 
L 269.432625 198.140087 
L 272.540847 199.872901 
L 275.649069 201.605715 
L 278.757292 203.338529 
L 281.865514 205.071342 
L 284.973736 206.804156 
L 288.081958 208.53697 
L 291.190181 210.269784 
L 294.298403 212.002598 
L 297.406625 213.735411 
L 300.514847 215.468225 
L 303.623069 217.201039 
L 306.731292 218.933853 
L 309.839514 220.666667 
L 312.947736 222.39948 
L 316.055958 224.132294 
L 319.164181 225.865108 
L 322.272403 227.597922 
L 325.380625 229.330736 
L 328.488847 231.063549 
L 331.597069 232.796363 
L 334.705292 234.529177 
L 337.813514 236.261991 
L 340.921736 237.994805 
L 344.029958 239.727618 
L 347.138181 241.460432 
L 350.246403 243.193246 
L 353.354625 244.92606 
" style="fill:none;stroke:#4c72b0;stroke-linecap:round;stroke-width:1.8;"/>
   </g>
   <g id="patch_3">
    <path d="M 45.640625 342.1585 
L 45.640625 20.1945 
" style="fill:none;stroke:#262626;stroke-linecap:square;stroke-linejoin:miter;"/>
   </g>
   <g id="patch_4">
    <path d="M 45.640625 342.1585 
L 353.354625 342.1585 
" style="fill:none;stroke:#262626;stroke-linecap:square;stroke-linejoin:miter;"/>
   </g>
   <g id="text_19">
    <!-- Water Quality vs. Perceived Importance -->
    <g style="fill:#262626;" transform="translate(115.117375 14.1945)scale(0.096 -0.096)">
     <defs>
      <path d="M 21 0 
L 1.265625 51.859375 
L 10.546875 51.859375 
L 21.6875 20.796875 
Q 23.484375 15.765625 25 10.359375 
Q 26.171875 14.453125 28.265625 20.21875 
L 39.796875 51.859375 
L 48.828125 51.859375 
L 29.203125 0 
z
" id="ArialMT-118"/>
      <path d="M 3.078125 15.484375 
L 11.765625 16.84375 
Q 12.5 11.625 15.84375 8.84375 
Q 19.1875 6.0625 25.203125 6.0625 
Q 31.25 6.0625 34.171875 8.515625 
Q 37.109375 10.984375 37.109375 14.3125 
Q 37.109375 17.28125 34.515625 19 
Q 32.71875 20.171875 25.53125 21.96875 
Q 15.875 24.421875 12.140625 26.203125 
Q 8.40625 27.984375 6.46875 31.125 
Q 4.546875 34.28125 4.546875 38.09375 
Q 4.546875 41.546875 6.125 44.5 
Q 7.71875 47.46875 10.453125 49.421875 
Q 12.5 50.921875 16.03125 51.96875 
Q 19.578125 53.03125 23.640625 53.03125 
Q 29.734375 53.03125 34.34375 51.265625 
Q 38.96875 49.515625 41.15625 46.5 
Q 43.359375 43.5 44.1875 38.484375 
L 35.59375 37.3125 
Q 35.015625 41.3125 32.203125 43.546875 
Q 29.390625 45.796875 24.265625 45.796875 
Q 18.21875 45.796875 15.625 43.796875 
Q 13.03125 41.796875 13.03125 39.109375 
Q 13.03125 37.40625 14.109375 36.03125 
Q 15.1875 34.625 17.484375 33.6875 
Q 18.796875 33.203125 25.25 31.453125 
Q 34.578125 28.953125 38.25 27.359375 
Q 41.9375 25.78125 44.03125 22.75 
Q 46.140625 19.734375 46.140625 15.234375 
Q 46.140625 10.84375 43.578125 6.953125 
Q 41.015625 3.078125 36.171875 0.953125 
Q 31.34375 -1.171875 25.25 -1.171875 
Q 15.140625 -1.171875 9.84375 3.03125 
Q 4.546875 7.234375 3.078125 15.484375 
z
" id="ArialMT-115"/>
      <path d="M 40.234375 0 
L 40.234375 6.546875 
Q 35.296875 -1.171875 25.734375 -1.171875 
Q 19.53125 -1.171875 14.328125 2.25 
Q 9.125 5.671875 6.265625 11.796875 
Q 3.421875 17.921875 3.421875 25.875 
Q 3.421875 33.640625 6 39.96875 
Q 8.59375 46.296875 13.765625 49.65625 
Q 18.953125 53.03125 25.34375 53.03125 
Q 30.03125 53.03125 33.6875 51.046875 
Q 37.359375 49.078125 39.65625 45.90625 
L 39.65625 71.578125 
L 48.390625 71.578125 
L 48.390625 0 
z
M 12.453125 25.875 
Q 12.453125 15.921875 16.640625 10.984375 
Q 20.84375 6.0625 26.5625 6.0625 
Q 32.328125 6.0625 36.34375 10.765625 
Q 40.375 15.484375 40.375 25.140625 
Q 40.375 35.796875 36.265625 40.765625 
Q 32.171875 45.75 26.171875 45.75 
Q 20.3125 45.75 16.375 40.96875 
Q 12.453125 36.1875 12.453125 25.875 
z
" id="ArialMT-100"/>
      <path d="M 9.328125 0 
L 9.328125 71.578125 
L 18.796875 71.578125 
L 18.796875 0 
z
" id="ArialMT-73"/>
      <path d="M 6.59375 0 
L 6.59375 51.859375 
L 14.453125 51.859375 
L 14.453125 44.578125 
Q 16.890625 48.390625 20.9375 50.703125 
Q 25 53.03125 30.171875 53.03125 
Q 35.9375 53.03125 39.625 50.640625 
Q 43.3125 48.25 44.828125 43.953125 
Q 50.984375 53.03125 60.84375 53.03125 
Q 68.5625 53.03125 72.703125 48.75 
Q 76.859375 44.484375 76.859375 35.59375 
L 76.859375 0 
L 68.109375 0 
L 68.109375 32.671875 
Q 68.109375 37.9375 67.25 40.25 
Q 66.40625 42.578125 64.15625 43.984375 
Q 61.921875 45.40625 58.890625 45.40625 
Q 53.421875 45.40625 49.796875 41.765625 
Q 46.1875 38.140625 46.1875 30.125 
L 46.1875 0 
L 37.40625 0 
L 37.40625 33.6875 
Q 37.40625 39.546875 35.25 42.46875 
Q 33.109375 45.40625 28.21875 45.40625 
Q 24.515625 45.40625 21.359375 43.453125 
Q 18.21875 41.5 16.796875 37.734375 
Q 15.375 33.984375 15.375 26.90625 
L 15.375 0 
z
" id="ArialMT-109"/>
     </defs>
     <use xlink:href="#ArialMT-87"/>
     <use x="90.634766" xlink:href="#ArialMT-97"/>
     <use x="146.25" xlink:href="#ArialMT-116"/>
     <use x="174.033203" xlink:href="#ArialMT-101"/>
     <use x="229.648438" xlink:href="#ArialMT-114"/>
     <use x="262.949219" xlink:href="#ArialMT-32"/>
     <use x="290.732422" xlink:href="#ArialMT-81"/>
     <use x="368.515625" xlink:href="#ArialMT-117"/>
     <use x="424.130859" xlink:href="#ArialMT-97"/>
     <use x="479.746094" xlink:href="#ArialMT-108"/>
     <use x="501.962891" xlink:href="#ArialMT-105"/>
     <use x="524.179688" xlink:href="#ArialMT-116"/>
     <use x="551.962891" xlink:href="#ArialMT-121"/>
     <use x="601.962891" xlink:href="#ArialMT-32"/>
     <use x="629.746094" xlink:href="#ArialMT-118"/>
     <use x="679.746094" xlink:href="#ArialMT-115"/>
     <use x="729.746094" xlink:href="#ArialMT-46"/>
     <use x="757.529297" xlink:href="#ArialMT-32"/>
     <use x="785.3125" xlink:href="#ArialMT-80"/>
     <use x="852.011719" xlink:href="#ArialMT-101"/>
     <use x="907.626953" xlink:href="#ArialMT-114"/>
     <use x="940.927734" xlink:href="#ArialMT-99"/>
     <use x="990.927734" xlink:href="#ArialMT-101"/>
     <use x="1046.542969" xlink:href="#ArialMT-105"/>
     <use x="1068.759766" xlink:href="#ArialMT-118"/>
     <use x="1118.759766" xlink:href="#ArialMT-101"/>
     <use x="1174.375" xlink:href="#ArialMT-100"/>
     <use x="1229.990234" xlink:href="#ArialMT-32"/>
     <use x="1257.773438" xlink:href="#ArialMT-73"/>
     <use x="1285.556641" xlink:href="#ArialMT-109"/>
     <use x="1368.857422" xlink:href="#ArialMT-112"/>
     <use x="1424.472656" xlink:href="#ArialMT-111"/>
     <use x="1480.087891" xlink:href="#ArialMT-114"/>
     <use x="1513.388672" xlink:href="#ArialMT-116"/>
     <use x="1541.171875" xlink:href="#ArialMT-97"/>
     <use x="1596.787109" xlink:href="#ArialMT-110"/>
     <use x="1652.402344" xlink:href="#ArialMT-99"/>
     <use x="1702.402344" xlink:href="#ArialMT-101"/>
    </g>
   </g>
  </g>
 </g>
 <defs>
  <clipPath id="p074290c3ee">
   <rect height="321.964" width="307.714" x="45.640625" y="20.1945"/>
  </clipPath>
 </defs>
</svg>
