<?xml version="1.0" encoding="utf-8" standalone="no"?>
<!DOCTYPE svg PUBLIC "-//W3C//DTD SVG 1.1//EN"
  "http://www.w3.org/Graphics/SVG/1.1/DTD/svg11.dtd">
<!-- Created with matplotlib (https://matplotlib.org/) -->
<svg height="363.514219pt" version="1.1" viewBox="0 0 363.318906 363.514219" width="363.318906pt" xmlns="http://www.w3.org/2000/svg" xmlns:xlink="http://www.w3.org/1999/xlink">
 <metadata>
  <rdf:RDF xmlns:cc="http://creativecommons.org/ns#" xmlns:dc="http://purl.org/dc/elements/1.1/" xmlns:rdf="http://www.w3.org/1999/02/22-rdf-syntax-ns#">
   <cc:Work>
    <dc:type rdf:resource="http://purl.org/dc/dcmitype/StillImage"/>
    <dc:date>2021-03-13T17:43:45.717910</dc:date>
    <dc:format>image/svg+xml</dc:format>
    <dc:creator>
     <cc:Agent>
      <dc:title>Matplotlib v3.3.2, https://matplotlib.org/</dc:title>
     </cc:Agent>
    </dc:creator>
   </cc:Work>
  </rdf:RDF>
 </metadata>
 <defs>
  <style type="text/css">*{stroke-linecap:butt;stroke-linejoin:round;}</style>
 </defs>
 <g id="figure_1">
  <g id="patch_1">
   <path d="M 0 363.514219 
L 363.318906 363.514219 
L 363.318906 0 
L 0 0 
z
" style="fill:#ffffff;"/>
  </g>
  <g id="axes_1">
   <g id="patch_2">
    <path d="M 53.081406 321.78 
L 348.473906 321.78 
L 348.473906 7.2 
L 53.081406 7.2 
z
" style="fill:#ffffff;"/>
   </g>
   <g id="matplotlib.axis_1">
    <g id="xtick_1">
     <g id="line2d_1">
      <defs>
       <path d="M 0 0 
L 0 6 
" id="md2a82c071d" style="stroke:#262626;stroke-width:1.25;"/>
      </defs>
      <g>
       <use style="fill:#262626;stroke:#262626;stroke-width:1.25;" x="53.081406" xlink:href="#md2a82c071d" y="321.78"/>
      </g>
     </g>
     <g id="text_1">
      <!-- 1.0 -->
      <g style="fill:#262626;" transform="translate(45.436406 339.153594)scale(0.11 -0.11)">
       <defs>
        <path d="M 37.25 0 
L 28.46875 0 
L 28.46875 56 
Q 25.296875 52.984375 20.140625 49.953125 
Q 14.984375 46.921875 10.890625 45.40625 
L 10.890625 53.90625 
Q 18.265625 57.375 23.78125 62.296875 
Q 29.296875 67.234375 31.59375 71.875 
L 37.25 71.875 
z
" id="ArialMT-49"/>
        <path d="M 9.078125 0 
L 9.078125 10.015625 
L 19.09375 10.015625 
L 19.09375 0 
z
" id="ArialMT-46"/>
        <path d="M 4.15625 35.296875 
Q 4.15625 48 6.765625 55.734375 
Q 9.375 63.484375 14.515625 67.671875 
Q 19.671875 71.875 27.484375 71.875 
Q 33.25 71.875 37.59375 69.546875 
Q 41.9375 67.234375 44.765625 62.859375 
Q 47.609375 58.5 49.21875 52.21875 
Q 50.828125 45.953125 50.828125 35.296875 
Q 50.828125 22.703125 48.234375 14.96875 
Q 45.65625 7.234375 40.5 3 
Q 35.359375 -1.21875 27.484375 -1.21875 
Q 17.140625 -1.21875 11.234375 6.203125 
Q 4.15625 15.140625 4.15625 35.296875 
z
M 13.1875 35.296875 
Q 13.1875 17.671875 17.3125 11.828125 
Q 21.4375 6 27.484375 6 
Q 33.546875 6 37.671875 11.859375 
Q 41.796875 17.71875 41.796875 35.296875 
Q 41.796875 52.984375 37.671875 58.78125 
Q 33.546875 64.59375 27.390625 64.59375 
Q 21.34375 64.59375 17.71875 59.46875 
Q 13.1875 52.9375 13.1875 35.296875 
z
" id="ArialMT-48"/>
       </defs>
       <use xlink:href="#ArialMT-49"/>
       <use x="55.615234" xlink:href="#ArialMT-46"/>
       <use x="83.398438" xlink:href="#ArialMT-48"/>
      </g>
     </g>
    </g>
    <g id="xtick_2">
     <g id="line2d_2">
      <g>
       <use style="fill:#262626;stroke:#262626;stroke-width:1.25;" x="90.005469" xlink:href="#md2a82c071d" y="321.78"/>
      </g>
     </g>
     <g id="text_2">
      <!-- 1.5 -->
      <g style="fill:#262626;" transform="translate(82.360469 339.153594)scale(0.11 -0.11)">
       <defs>
        <path d="M 4.15625 18.75 
L 13.375 19.53125 
Q 14.40625 12.796875 18.140625 9.390625 
Q 21.875 6 27.15625 6 
Q 33.5 6 37.890625 10.78125 
Q 42.28125 15.578125 42.28125 23.484375 
Q 42.28125 31 38.0625 35.34375 
Q 33.84375 39.703125 27 39.703125 
Q 22.75 39.703125 19.328125 37.765625 
Q 15.921875 35.84375 13.96875 32.765625 
L 5.71875 33.84375 
L 12.640625 70.609375 
L 48.25 70.609375 
L 48.25 62.203125 
L 19.671875 62.203125 
L 15.828125 42.96875 
Q 22.265625 47.46875 29.34375 47.46875 
Q 38.71875 47.46875 45.15625 40.96875 
Q 51.609375 34.46875 51.609375 24.265625 
Q 51.609375 14.546875 45.953125 7.46875 
Q 39.0625 -1.21875 27.15625 -1.21875 
Q 17.390625 -1.21875 11.203125 4.25 
Q 5.03125 9.71875 4.15625 18.75 
z
" id="ArialMT-53"/>
       </defs>
       <use xlink:href="#ArialMT-49"/>
       <use x="55.615234" xlink:href="#ArialMT-46"/>
       <use x="83.398438" xlink:href="#ArialMT-53"/>
      </g>
     </g>
    </g>
    <g id="xtick_3">
     <g id="line2d_3">
      <g>
       <use style="fill:#262626;stroke:#262626;stroke-width:1.25;" x="126.929531" xlink:href="#md2a82c071d" y="321.78"/>
      </g>
     </g>
     <g id="text_3">
      <!-- 2.0 -->
      <g style="fill:#262626;" transform="translate(119.284531 339.153594)scale(0.11 -0.11)">
       <defs>
        <path d="M 50.34375 8.453125 
L 50.34375 0 
L 3.03125 0 
Q 2.9375 3.171875 4.046875 6.109375 
Q 5.859375 10.9375 9.828125 15.625 
Q 13.8125 20.3125 21.34375 26.46875 
Q 33.015625 36.03125 37.109375 41.625 
Q 41.21875 47.21875 41.21875 52.203125 
Q 41.21875 57.421875 37.46875 61 
Q 33.734375 64.59375 27.734375 64.59375 
Q 21.390625 64.59375 17.578125 60.78125 
Q 13.765625 56.984375 13.71875 50.25 
L 4.6875 51.171875 
Q 5.609375 61.28125 11.65625 66.578125 
Q 17.71875 71.875 27.9375 71.875 
Q 38.234375 71.875 44.234375 66.15625 
Q 50.25 60.453125 50.25 52 
Q 50.25 47.703125 48.484375 43.546875 
Q 46.734375 39.40625 42.65625 34.8125 
Q 38.578125 30.21875 29.109375 22.21875 
Q 21.1875 15.578125 18.9375 13.203125 
Q 16.703125 10.84375 15.234375 8.453125 
z
" id="ArialMT-50"/>
       </defs>
       <use xlink:href="#ArialMT-50"/>
       <use x="55.615234" xlink:href="#ArialMT-46"/>
       <use x="83.398438" xlink:href="#ArialMT-48"/>
      </g>
     </g>
    </g>
    <g id="xtick_4">
     <g id="line2d_4">
      <g>
       <use style="fill:#262626;stroke:#262626;stroke-width:1.25;" x="163.853594" xlink:href="#md2a82c071d" y="321.78"/>
      </g>
     </g>
     <g id="text_4">
      <!-- 2.5 -->
      <g style="fill:#262626;" transform="translate(156.208594 339.153594)scale(0.11 -0.11)">
       <use xlink:href="#ArialMT-50"/>
       <use x="55.615234" xlink:href="#ArialMT-46"/>
       <use x="83.398438" xlink:href="#ArialMT-53"/>
      </g>
     </g>
    </g>
    <g id="xtick_5">
     <g id="line2d_5">
      <g>
       <use style="fill:#262626;stroke:#262626;stroke-width:1.25;" x="200.777656" xlink:href="#md2a82c071d" y="321.78"/>
      </g>
     </g>
     <g id="text_5">
      <!-- 3.0 -->
      <g style="fill:#262626;" transform="translate(193.132656 339.153594)scale(0.11 -0.11)">
       <defs>
        <path d="M 4.203125 18.890625 
L 12.984375 20.0625 
Q 14.5 12.59375 18.140625 9.296875 
Q 21.78125 6 27 6 
Q 33.203125 6 37.46875 10.296875 
Q 41.75 14.59375 41.75 20.953125 
Q 41.75 27 37.796875 30.921875 
Q 33.84375 34.859375 27.734375 34.859375 
Q 25.25 34.859375 21.53125 33.890625 
L 22.515625 41.609375 
Q 23.390625 41.5 23.921875 41.5 
Q 29.546875 41.5 34.03125 44.421875 
Q 38.53125 47.359375 38.53125 53.46875 
Q 38.53125 58.296875 35.25 61.46875 
Q 31.984375 64.65625 26.8125 64.65625 
Q 21.6875 64.65625 18.265625 61.421875 
Q 14.84375 58.203125 13.875 51.765625 
L 5.078125 53.328125 
Q 6.6875 62.15625 12.390625 67.015625 
Q 18.109375 71.875 26.609375 71.875 
Q 32.46875 71.875 37.390625 69.359375 
Q 42.328125 66.84375 44.9375 62.5 
Q 47.5625 58.15625 47.5625 53.265625 
Q 47.5625 48.640625 45.0625 44.828125 
Q 42.578125 41.015625 37.703125 38.765625 
Q 44.046875 37.3125 47.5625 32.6875 
Q 51.078125 28.078125 51.078125 21.140625 
Q 51.078125 11.765625 44.234375 5.25 
Q 37.40625 -1.265625 26.953125 -1.265625 
Q 17.53125 -1.265625 11.296875 4.34375 
Q 5.078125 9.96875 4.203125 18.890625 
z
" id="ArialMT-51"/>
       </defs>
       <use xlink:href="#ArialMT-51"/>
       <use x="55.615234" xlink:href="#ArialMT-46"/>
       <use x="83.398438" xlink:href="#ArialMT-48"/>
      </g>
     </g>
    </g>
    <g id="xtick_6">
     <g id="line2d_6">
      <g>
       <use style="fill:#262626;stroke:#262626;stroke-width:1.25;" x="237.701719" xlink:href="#md2a82c071d" y="321.78"/>
      </g>
     </g>
     <g id="text_6">
      <!-- 3.5 -->
      <g style="fill:#262626;" transform="translate(230.056719 339.153594)scale(0.11 -0.11)">
       <use xlink:href="#ArialMT-51"/>
       <use x="55.615234" xlink:href="#ArialMT-46"/>
       <use x="83.398438" xlink:href="#ArialMT-53"/>
      </g>
     </g>
    </g>
    <g id="xtick_7">
     <g id="line2d_7">
      <g>
       <use style="fill:#262626;stroke:#262626;stroke-width:1.25;" x="274.625781" xlink:href="#md2a82c071d" y="321.78"/>
      </g>
     </g>
     <g id="text_7">
      <!-- 4.0 -->
      <g style="fill:#262626;" transform="translate(266.980781 339.153594)scale(0.11 -0.11)">
       <defs>
        <path d="M 32.328125 0 
L 32.328125 17.140625 
L 1.265625 17.140625 
L 1.265625 25.203125 
L 33.9375 71.578125 
L 41.109375 71.578125 
L 41.109375 25.203125 
L 50.78125 25.203125 
L 50.78125 17.140625 
L 41.109375 17.140625 
L 41.109375 0 
z
M 32.328125 25.203125 
L 32.328125 57.46875 
L 9.90625 25.203125 
z
" id="ArialMT-52"/>
       </defs>
       <use xlink:href="#ArialMT-52"/>
       <use x="55.615234" xlink:href="#ArialMT-46"/>
       <use x="83.398438" xlink:href="#ArialMT-48"/>
      </g>
     </g>
    </g>
    <g id="xtick_8">
     <g id="line2d_8">
      <g>
       <use style="fill:#262626;stroke:#262626;stroke-width:1.25;" x="311.549844" xlink:href="#md2a82c071d" y="321.78"/>
      </g>
     </g>
     <g id="text_8">
      <!-- 4.5 -->
      <g style="fill:#262626;" transform="translate(303.904844 339.153594)scale(0.11 -0.11)">
       <use xlink:href="#ArialMT-52"/>
       <use x="55.615234" xlink:href="#ArialMT-46"/>
       <use x="83.398438" xlink:href="#ArialMT-53"/>
      </g>
     </g>
    </g>
    <g id="xtick_9">
     <g id="line2d_9">
      <g>
       <use style="fill:#262626;stroke:#262626;stroke-width:1.25;" x="348.473906" xlink:href="#md2a82c071d" y="321.78"/>
      </g>
     </g>
     <g id="text_9">
      <!-- 5.0 -->
      <g style="fill:#262626;" transform="translate(340.828906 339.153594)scale(0.11 -0.11)">
       <use xlink:href="#ArialMT-53"/>
       <use x="55.615234" xlink:href="#ArialMT-46"/>
       <use x="83.398438" xlink:href="#ArialMT-48"/>
      </g>
     </g>
    </g>
    <g id="text_10">
     <!-- l14d -->
     <g style="fill:#262626;" transform="translate(189.434844 353.929219)scale(0.12 -0.12)">
      <defs>
       <path d="M 6.390625 0 
L 6.390625 71.578125 
L 15.1875 71.578125 
L 15.1875 0 
z
" id="ArialMT-108"/>
       <path d="M 40.234375 0 
L 40.234375 6.546875 
Q 35.296875 -1.171875 25.734375 -1.171875 
Q 19.53125 -1.171875 14.328125 2.25 
Q 9.125 5.671875 6.265625 11.796875 
Q 3.421875 17.921875 3.421875 25.875 
Q 3.421875 33.640625 6 39.96875 
Q 8.59375 46.296875 13.765625 49.65625 
Q 18.953125 53.03125 25.34375 53.03125 
Q 30.03125 53.03125 33.6875 51.046875 
Q 37.359375 49.078125 39.65625 45.90625 
L 39.65625 71.578125 
L 48.390625 71.578125 
L 48.390625 0 
z
M 12.453125 25.875 
Q 12.453125 15.921875 16.640625 10.984375 
Q 20.84375 6.0625 26.5625 6.0625 
Q 32.328125 6.0625 36.34375 10.765625 
Q 40.375 15.484375 40.375 25.140625 
Q 40.375 35.796875 36.265625 40.765625 
Q 32.171875 45.75 26.171875 45.75 
Q 20.3125 45.75 16.375 40.96875 
Q 12.453125 36.1875 12.453125 25.875 
z
" id="ArialMT-100"/>
      </defs>
      <use xlink:href="#ArialMT-108"/>
      <use x="22.216797" xlink:href="#ArialMT-49"/>
      <use x="77.832031" xlink:href="#ArialMT-52"/>
      <use x="133.447266" xlink:href="#ArialMT-100"/>
     </g>
    </g>
   </g>
   <g id="matplotlib.axis_2">
    <g id="ytick_1">
     <g id="line2d_10">
      <defs>
       <path d="M 0 0 
L -6 0 
" id="m4dea6e7848" style="stroke:#262626;stroke-width:1.25;"/>
      </defs>
      <g>
       <use style="fill:#262626;stroke:#262626;stroke-width:1.25;" x="53.081406" xlink:href="#m4dea6e7848" y="297.294956"/>
      </g>
     </g>
     <g id="text_11">
      <!-- 14.5 -->
      <g style="fill:#262626;" transform="translate(22.174375 301.231753)scale(0.11 -0.11)">
       <use xlink:href="#ArialMT-49"/>
       <use x="55.615234" xlink:href="#ArialMT-52"/>
       <use x="111.230469" xlink:href="#ArialMT-46"/>
       <use x="139.013672" xlink:href="#ArialMT-53"/>
      </g>
     </g>
    </g>
    <g id="ytick_2">
     <g id="line2d_11">
      <g>
       <use style="fill:#262626;stroke:#262626;stroke-width:1.25;" x="53.081406" xlink:href="#m4dea6e7848" y="255.652258"/>
      </g>
     </g>
     <g id="text_12">
      <!-- 15.0 -->
      <g style="fill:#262626;" transform="translate(22.174375 259.589055)scale(0.11 -0.11)">
       <use xlink:href="#ArialMT-49"/>
       <use x="55.615234" xlink:href="#ArialMT-53"/>
       <use x="111.230469" xlink:href="#ArialMT-46"/>
       <use x="139.013672" xlink:href="#ArialMT-48"/>
      </g>
     </g>
    </g>
    <g id="ytick_3">
     <g id="line2d_12">
      <g>
       <use style="fill:#262626;stroke:#262626;stroke-width:1.25;" x="53.081406" xlink:href="#m4dea6e7848" y="214.00956"/>
      </g>
     </g>
     <g id="text_13">
      <!-- 15.5 -->
      <g style="fill:#262626;" transform="translate(22.174375 217.946357)scale(0.11 -0.11)">
       <use xlink:href="#ArialMT-49"/>
       <use x="55.615234" xlink:href="#ArialMT-53"/>
       <use x="111.230469" xlink:href="#ArialMT-46"/>
       <use x="139.013672" xlink:href="#ArialMT-53"/>
      </g>
     </g>
    </g>
    <g id="ytick_4">
     <g id="line2d_13">
      <g>
       <use style="fill:#262626;stroke:#262626;stroke-width:1.25;" x="53.081406" xlink:href="#m4dea6e7848" y="172.366862"/>
      </g>
     </g>
     <g id="text_14">
      <!-- 16.0 -->
      <g style="fill:#262626;" transform="translate(22.174375 176.303658)scale(0.11 -0.11)">
       <defs>
        <path d="M 49.75 54.046875 
L 41.015625 53.375 
Q 39.84375 58.546875 37.703125 60.890625 
Q 34.125 64.65625 28.90625 64.65625 
Q 24.703125 64.65625 21.53125 62.3125 
Q 17.390625 59.28125 14.984375 53.46875 
Q 12.59375 47.65625 12.5 36.921875 
Q 15.671875 41.75 20.265625 44.09375 
Q 24.859375 46.4375 29.890625 46.4375 
Q 38.671875 46.4375 44.84375 39.96875 
Q 51.03125 33.5 51.03125 23.25 
Q 51.03125 16.5 48.125 10.71875 
Q 45.21875 4.9375 40.140625 1.859375 
Q 35.0625 -1.21875 28.609375 -1.21875 
Q 17.625 -1.21875 10.6875 6.859375 
Q 3.765625 14.9375 3.765625 33.5 
Q 3.765625 54.25 11.421875 63.671875 
Q 18.109375 71.875 29.4375 71.875 
Q 37.890625 71.875 43.28125 67.140625 
Q 48.6875 62.40625 49.75 54.046875 
z
M 13.875 23.1875 
Q 13.875 18.65625 15.796875 14.5 
Q 17.71875 10.359375 21.1875 8.171875 
Q 24.65625 6 28.46875 6 
Q 34.03125 6 38.03125 10.484375 
Q 42.046875 14.984375 42.046875 22.703125 
Q 42.046875 30.125 38.078125 34.390625 
Q 34.125 38.671875 28.125 38.671875 
Q 22.171875 38.671875 18.015625 34.390625 
Q 13.875 30.125 13.875 23.1875 
z
" id="ArialMT-54"/>
       </defs>
       <use xlink:href="#ArialMT-49"/>
       <use x="55.615234" xlink:href="#ArialMT-54"/>
       <use x="111.230469" xlink:href="#ArialMT-46"/>
       <use x="139.013672" xlink:href="#ArialMT-48"/>
      </g>
     </g>
    </g>
    <g id="ytick_5">
     <g id="line2d_14">
      <g>
       <use style="fill:#262626;stroke:#262626;stroke-width:1.25;" x="53.081406" xlink:href="#m4dea6e7848" y="130.724164"/>
      </g>
     </g>
     <g id="text_15">
      <!-- 16.5 -->
      <g style="fill:#262626;" transform="translate(22.174375 134.66096)scale(0.11 -0.11)">
       <use xlink:href="#ArialMT-49"/>
       <use x="55.615234" xlink:href="#ArialMT-54"/>
       <use x="111.230469" xlink:href="#ArialMT-46"/>
       <use x="139.013672" xlink:href="#ArialMT-53"/>
      </g>
     </g>
    </g>
    <g id="ytick_6">
     <g id="line2d_15">
      <g>
       <use style="fill:#262626;stroke:#262626;stroke-width:1.25;" x="53.081406" xlink:href="#m4dea6e7848" y="89.081465"/>
      </g>
     </g>
     <g id="text_16">
      <!-- 17.0 -->
      <g style="fill:#262626;" transform="translate(22.174375 93.018262)scale(0.11 -0.11)">
       <defs>
        <path d="M 4.734375 62.203125 
L 4.734375 70.65625 
L 51.078125 70.65625 
L 51.078125 63.8125 
Q 44.234375 56.546875 37.515625 44.484375 
Q 30.8125 32.421875 27.15625 19.671875 
Q 24.515625 10.6875 23.78125 0 
L 14.75 0 
Q 14.890625 8.453125 18.0625 20.40625 
Q 21.234375 32.375 27.171875 43.484375 
Q 33.109375 54.59375 39.796875 62.203125 
z
" id="ArialMT-55"/>
       </defs>
       <use xlink:href="#ArialMT-49"/>
       <use x="55.615234" xlink:href="#ArialMT-55"/>
       <use x="111.230469" xlink:href="#ArialMT-46"/>
       <use x="139.013672" xlink:href="#ArialMT-48"/>
      </g>
     </g>
    </g>
    <g id="ytick_7">
     <g id="line2d_16">
      <g>
       <use style="fill:#262626;stroke:#262626;stroke-width:1.25;" x="53.081406" xlink:href="#m4dea6e7848" y="47.438767"/>
      </g>
     </g>
     <g id="text_17">
      <!-- 17.5 -->
      <g style="fill:#262626;" transform="translate(22.174375 51.375564)scale(0.11 -0.11)">
       <use xlink:href="#ArialMT-49"/>
       <use x="55.615234" xlink:href="#ArialMT-55"/>
       <use x="111.230469" xlink:href="#ArialMT-46"/>
       <use x="139.013672" xlink:href="#ArialMT-53"/>
      </g>
     </g>
    </g>
    <g id="text_18">
     <!-- score -->
     <g style="fill:#262626;" transform="translate(15.789375 179.160937)rotate(-90)scale(0.12 -0.12)">
      <defs>
       <path d="M 3.078125 15.484375 
L 11.765625 16.84375 
Q 12.5 11.625 15.84375 8.84375 
Q 19.1875 6.0625 25.203125 6.0625 
Q 31.25 6.0625 34.171875 8.515625 
Q 37.109375 10.984375 37.109375 14.3125 
Q 37.109375 17.28125 34.515625 19 
Q 32.71875 20.171875 25.53125 21.96875 
Q 15.875 24.421875 12.140625 26.203125 
Q 8.40625 27.984375 6.46875 31.125 
Q 4.546875 34.28125 4.546875 38.09375 
Q 4.546875 41.546875 6.125 44.5 
Q 7.71875 47.46875 10.453125 49.421875 
Q 12.5 50.921875 16.03125 51.96875 
Q 19.578125 53.03125 23.640625 53.03125 
Q 29.734375 53.03125 34.34375 51.265625 
Q 38.96875 49.515625 41.15625 46.5 
Q 43.359375 43.5 44.1875 38.484375 
L 35.59375 37.3125 
Q 35.015625 41.3125 32.203125 43.546875 
Q 29.390625 45.796875 24.265625 45.796875 
Q 18.21875 45.796875 15.625 43.796875 
Q 13.03125 41.796875 13.03125 39.109375 
Q 13.03125 37.40625 14.109375 36.03125 
Q 15.1875 34.625 17.484375 33.6875 
Q 18.796875 33.203125 25.25 31.453125 
Q 34.578125 28.953125 38.25 27.359375 
Q 41.9375 25.78125 44.03125 22.75 
Q 46.140625 19.734375 46.140625 15.234375 
Q 46.140625 10.84375 43.578125 6.953125 
Q 41.015625 3.078125 36.171875 0.953125 
Q 31.34375 -1.171875 25.25 -1.171875 
Q 15.140625 -1.171875 9.84375 3.03125 
Q 4.546875 7.234375 3.078125 15.484375 
z
" id="ArialMT-115"/>
       <path d="M 40.4375 19 
L 49.078125 17.875 
Q 47.65625 8.9375 41.8125 3.875 
Q 35.984375 -1.171875 27.484375 -1.171875 
Q 16.84375 -1.171875 10.375 5.78125 
Q 3.90625 12.75 3.90625 25.734375 
Q 3.90625 34.125 6.6875 40.421875 
Q 9.46875 46.734375 15.15625 49.875 
Q 20.84375 53.03125 27.546875 53.03125 
Q 35.984375 53.03125 41.359375 48.75 
Q 46.734375 44.484375 48.25 36.625 
L 39.703125 35.296875 
Q 38.484375 40.53125 35.375 43.15625 
Q 32.28125 45.796875 27.875 45.796875 
Q 21.234375 45.796875 17.078125 41.03125 
Q 12.9375 36.28125 12.9375 25.984375 
Q 12.9375 15.53125 16.9375 10.796875 
Q 20.953125 6.0625 27.390625 6.0625 
Q 32.5625 6.0625 36.03125 9.234375 
Q 39.5 12.40625 40.4375 19 
z
" id="ArialMT-99"/>
       <path d="M 3.328125 25.921875 
Q 3.328125 40.328125 11.328125 47.265625 
Q 18.015625 53.03125 27.640625 53.03125 
Q 38.328125 53.03125 45.109375 46.015625 
Q 51.90625 39.015625 51.90625 26.65625 
Q 51.90625 16.65625 48.90625 10.90625 
Q 45.90625 5.171875 40.15625 2 
Q 34.421875 -1.171875 27.640625 -1.171875 
Q 16.75 -1.171875 10.03125 5.8125 
Q 3.328125 12.796875 3.328125 25.921875 
z
M 12.359375 25.921875 
Q 12.359375 15.96875 16.703125 11.015625 
Q 21.046875 6.0625 27.640625 6.0625 
Q 34.1875 6.0625 38.53125 11.03125 
Q 42.875 16.015625 42.875 26.21875 
Q 42.875 35.84375 38.5 40.796875 
Q 34.125 45.75 27.640625 45.75 
Q 21.046875 45.75 16.703125 40.8125 
Q 12.359375 35.890625 12.359375 25.921875 
z
" id="ArialMT-111"/>
       <path d="M 6.5 0 
L 6.5 51.859375 
L 14.40625 51.859375 
L 14.40625 44 
Q 17.4375 49.515625 20 51.265625 
Q 22.5625 53.03125 25.640625 53.03125 
Q 30.078125 53.03125 34.671875 50.203125 
L 31.640625 42.046875 
Q 28.421875 43.953125 25.203125 43.953125 
Q 22.3125 43.953125 20.015625 42.21875 
Q 17.71875 40.484375 16.75 37.40625 
Q 15.28125 32.71875 15.28125 27.15625 
L 15.28125 0 
z
" id="ArialMT-114"/>
       <path d="M 42.09375 16.703125 
L 51.171875 15.578125 
Q 49.03125 7.625 43.21875 3.21875 
Q 37.40625 -1.171875 28.375 -1.171875 
Q 17 -1.171875 10.328125 5.828125 
Q 3.65625 12.84375 3.65625 25.484375 
Q 3.65625 38.578125 10.390625 45.796875 
Q 17.140625 53.03125 27.875 53.03125 
Q 38.28125 53.03125 44.875 45.953125 
Q 51.46875 38.875 51.46875 26.03125 
Q 51.46875 25.25 51.421875 23.6875 
L 12.75 23.6875 
Q 13.234375 15.140625 17.578125 10.59375 
Q 21.921875 6.0625 28.421875 6.0625 
Q 33.25 6.0625 36.671875 8.59375 
Q 40.09375 11.140625 42.09375 16.703125 
z
M 13.234375 30.90625 
L 42.1875 30.90625 
Q 41.609375 37.453125 38.875 40.71875 
Q 34.671875 45.796875 27.984375 45.796875 
Q 21.921875 45.796875 17.796875 41.75 
Q 13.671875 37.703125 13.234375 30.90625 
z
" id="ArialMT-101"/>
      </defs>
      <use xlink:href="#ArialMT-115"/>
      <use x="50" xlink:href="#ArialMT-99"/>
      <use x="100" xlink:href="#ArialMT-111"/>
      <use x="155.615234" xlink:href="#ArialMT-114"/>
      <use x="188.916016" xlink:href="#ArialMT-101"/>
     </g>
    </g>
   </g>
   <g id="PathCollection_1">
    <defs>
     <path d="M 0 3.535534 
C 0.937635 3.535534 1.836992 3.163008 2.5 2.5 
C 3.163008 1.836992 3.535534 0.937635 3.535534 0 
C 3.535534 -0.937635 3.163008 -1.836992 2.5 -2.5 
C 1.836992 -3.163008 0.937635 -3.535534 0 -3.535534 
C -0.937635 -3.535534 -1.836992 -3.163008 -2.5 -2.5 
C -3.163008 -1.836992 -3.535534 -0.937635 -3.535534 0 
C -3.535534 0.937635 -3.163008 1.836992 -2.5 2.5 
C -1.836992 3.163008 -0.937635 3.535534 0 3.535534 
z
" id="m08382f3463" style="stroke:#4c72b0;"/>
    </defs>
    <g clip-path="url(#p1476dbf3dc)">
     <use style="fill:#4c72b0;stroke:#4c72b0;" x="53.081406" xlink:href="#m08382f3463" y="50.933814"/>
     <use style="fill:#4c72b0;stroke:#4c72b0;" x="126.929531" xlink:href="#m08382f3463" y="107.234999"/>
     <use style="fill:#4c72b0;stroke:#4c72b0;" x="200.777656" xlink:href="#m08382f3463" y="151.179858"/>
     <use style="fill:#4c72b0;stroke:#4c72b0;" x="274.625781" xlink:href="#m08382f3463" y="179.667396"/>
     <use style="fill:#4c72b0;stroke:#4c72b0;" x="348.473906" xlink:href="#m08382f3463" y="198.710763"/>
    </g>
   </g>
   <g id="PolyCollection_1">
    <defs>
     <path d="M 53.081406 -325.170732 
L 53.081406 -280.552245 
L 56.065169 -279.173658 
L 59.048932 -277.760683 
L 62.032694 -276.368175 
L 65.016457 -274.93759 
L 68.000219 -273.670272 
L 70.983982 -272.292194 
L 73.967745 -270.916188 
L 76.951507 -269.540181 
L 79.93527 -267.921622 
L 82.919033 -266.345069 
L 85.902795 -264.982893 
L 88.886558 -263.620716 
L 91.87032 -262.208662 
L 94.854083 -260.782656 
L 97.837846 -259.458963 
L 100.821608 -258.172012 
L 103.805371 -256.809836 
L 106.789134 -255.44766 
L 109.772896 -254.085483 
L 112.756659 -252.723307 
L 115.740421 -251.361131 
L 118.724184 -249.923383 
L 121.707947 -248.490295 
L 124.691709 -246.87105 
L 127.675472 -245.35462 
L 130.659235 -244.041989 
L 133.642997 -242.481477 
L 136.62676 -240.896315 
L 139.610522 -239.323115 
L 142.594285 -237.690603 
L 145.578048 -236.261039 
L 148.56181 -234.490263 
L 151.545573 -232.523437 
L 154.529336 -230.61077 
L 157.513098 -228.876337 
L 160.496861 -226.771537 
L 163.480623 -224.851209 
L 166.464386 -222.960797 
L 169.448149 -221.013484 
L 172.431911 -219.097079 
L 175.415674 -217.178833 
L 178.399437 -215.361407 
L 181.383199 -213.341304 
L 184.366962 -211.54673 
L 187.350724 -209.571583 
L 190.334487 -207.365282 
L 193.31825 -205.282632 
L 196.302012 -203.083443 
L 199.285775 -200.985109 
L 202.269538 -199.048241 
L 205.2533 -196.739865 
L 208.237063 -194.51131 
L 211.220825 -192.369482 
L 214.204588 -190.262726 
L 217.188351 -188.133639 
L 220.172113 -185.935799 
L 223.155876 -183.834869 
L 226.139639 -181.750863 
L 229.123401 -179.619698 
L 232.107164 -177.488206 
L 235.090926 -175.359119 
L 238.074689 -173.23007 
L 241.058452 -170.872563 
L 244.042214 -168.866289 
L 247.025977 -166.845683 
L 250.00974 -164.600167 
L 252.993502 -162.536341 
L 255.977265 -160.451454 
L 258.961027 -158.056267 
L 261.94479 -155.752297 
L 264.928553 -153.604828 
L 267.912315 -151.457359 
L 270.896078 -149.189802 
L 273.879841 -147.029736 
L 276.863603 -144.873977 
L 279.847366 -142.715332 
L 282.831128 -140.555336 
L 285.814891 -138.353248 
L 288.798654 -136.201419 
L 291.782416 -133.978342 
L 294.766179 -131.738903 
L 297.749942 -129.472121 
L 300.733704 -127.206222 
L 303.717467 -124.943711 
L 306.701229 -122.681266 
L 309.684992 -120.466306 
L 312.668755 -118.337132 
L 315.652517 -116.103479 
L 318.63628 -113.87548 
L 321.620043 -111.924551 
L 324.603805 -109.540021 
L 327.587568 -107.170723 
L 330.57133 -104.932355 
L 333.555093 -102.682765 
L 336.538856 -100.356956 
L 339.522618 -98.033214 
L 342.506381 -95.709472 
L 345.490144 -93.385729 
L 348.473906 -91.061987 
L 348.473906 -169.174927 
L 348.473906 -169.174927 
L 345.490144 -170.289398 
L 342.506381 -171.40387 
L 339.522618 -172.518341 
L 336.538856 -173.632812 
L 333.555093 -174.985932 
L 330.57133 -176.350982 
L 327.587568 -177.536313 
L 324.603805 -178.698197 
L 321.620043 -179.887121 
L 318.63628 -181.178074 
L 315.652517 -182.469028 
L 312.668755 -183.817137 
L 309.684992 -185.181618 
L 306.701229 -186.546099 
L 303.717467 -187.91058 
L 300.733704 -189.269377 
L 297.749942 -190.627651 
L 294.766179 -191.985925 
L 291.782416 -193.197195 
L 288.798654 -194.325373 
L 285.814891 -195.453552 
L 282.831128 -196.648624 
L 279.847366 -197.939426 
L 276.863603 -199.230228 
L 273.879841 -200.52103 
L 270.896078 -201.879633 
L 267.912315 -203.263737 
L 264.928553 -204.647841 
L 261.94479 -206.031945 
L 258.961027 -207.192511 
L 255.977265 -208.358176 
L 252.993502 -209.80644 
L 250.00974 -210.815272 
L 247.025977 -212.100633 
L 244.042214 -213.423739 
L 241.058452 -214.677801 
L 238.074689 -215.965508 
L 235.090926 -217.222628 
L 232.107164 -218.529178 
L 229.123401 -219.828979 
L 226.139639 -221.144729 
L 223.155876 -222.407717 
L 220.172113 -223.78885 
L 217.188351 -225.0649 
L 214.204588 -226.275822 
L 211.220825 -227.592057 
L 208.237063 -228.940302 
L 205.2533 -230.329517 
L 202.269538 -231.749467 
L 199.285775 -233.278956 
L 196.302012 -234.742285 
L 193.31825 -235.724944 
L 190.334487 -237.171618 
L 187.350724 -238.576413 
L 184.366962 -240.043277 
L 181.383199 -241.370881 
L 178.399437 -242.99773 
L 175.415674 -244.664182 
L 172.431911 -246.446782 
L 169.448149 -248.160627 
L 166.464386 -249.924687 
L 163.480623 -251.742008 
L 160.496861 -253.414991 
L 157.513098 -255.121739 
L 154.529336 -256.855656 
L 151.545573 -258.574347 
L 148.56181 -260.13343 
L 145.578048 -262.005585 
L 142.594285 -263.811953 
L 139.610522 -265.833702 
L 136.62676 -267.854778 
L 133.642997 -269.648562 
L 130.659235 -271.437044 
L 127.675472 -273.224403 
L 124.691709 -275.171648 
L 121.707947 -277.213963 
L 118.724184 -279.262387 
L 115.740421 -281.301989 
L 112.756659 -283.235712 
L 109.772896 -285.161828 
L 106.789134 -287.180349 
L 103.805371 -289.179289 
L 100.821608 -290.978434 
L 97.837846 -292.878477 
L 94.854083 -294.981671 
L 91.87032 -297.185967 
L 88.886558 -299.36498 
L 85.902795 -301.607142 
L 82.919033 -303.812361 
L 79.93527 -305.926239 
L 76.951507 -307.97538 
L 73.967745 -310.277266 
L 70.983982 -312.602479 
L 68.000219 -314.780687 
L 65.016457 -316.804555 
L 62.032694 -318.67168 
L 59.048932 -320.592816 
L 56.065169 -322.879316 
L 53.081406 -325.170732 
z
" id="m058907402f" style="stroke:#ffffff;stroke-opacity:0.15;"/>
    </defs>
    <g clip-path="url(#p1476dbf3dc)">
     <use style="fill:#4c72b0;fill-opacity:0.15;stroke:#ffffff;stroke-opacity:0.15;" x="0" xlink:href="#m058907402f" y="363.514219"/>
    </g>
   </g>
   <g id="line2d_17">
    <path clip-path="url(#p1476dbf3dc)" d="M 53.081406 80.305655 
L 53.081406 21.499091 
" style="fill:none;stroke:#4c72b0;stroke-linecap:round;stroke-width:2.625;"/>
   </g>
   <g id="line2d_18">
    <path clip-path="url(#p1476dbf3dc)" d="M 126.929531 126.472839 
L 126.929531 87.352934 
" style="fill:none;stroke:#4c72b0;stroke-linecap:round;stroke-width:2.625;"/>
   </g>
   <g id="line2d_19">
    <path clip-path="url(#p1476dbf3dc)" d="M 200.777656 173.099445 
L 200.777656 128.461302 
" style="fill:none;stroke:#4c72b0;stroke-linecap:round;stroke-width:2.625;"/>
   </g>
   <g id="line2d_20">
    <path clip-path="url(#p1476dbf3dc)" d="M 274.625781 223.809071 
L 274.625781 137.943585 
" style="fill:none;stroke:#4c72b0;stroke-linecap:round;stroke-width:2.625;"/>
   </g>
   <g id="line2d_21">
    <path clip-path="url(#p1476dbf3dc)" d="M 348.473906 307.480909 
L 348.473906 83.770009 
" style="fill:none;stroke:#4c72b0;stroke-linecap:round;stroke-width:2.625;"/>
   </g>
   <g id="line2d_22">
    <path clip-path="url(#p1476dbf3dc)" d="M 53.081406 60.199875 
L 56.065169 61.953796 
L 59.048932 63.707718 
L 62.032694 65.461639 
L 65.016457 67.21556 
L 68.000219 68.969481 
L 70.983982 70.723403 
L 73.967745 72.477324 
L 76.951507 74.231245 
L 79.93527 75.985167 
L 82.919033 77.739088 
L 85.902795 79.493009 
L 88.886558 81.24693 
L 91.87032 83.000852 
L 94.854083 84.754773 
L 97.837846 86.508694 
L 100.821608 88.262616 
L 103.805371 90.016537 
L 106.789134 91.770458 
L 109.772896 93.524379 
L 112.756659 95.278301 
L 115.740421 97.032222 
L 118.724184 98.786143 
L 121.707947 100.540064 
L 124.691709 102.293986 
L 127.675472 104.047907 
L 130.659235 105.801828 
L 133.642997 107.55575 
L 136.62676 109.309671 
L 139.610522 111.063592 
L 142.594285 112.817513 
L 145.578048 114.571435 
L 148.56181 116.325356 
L 151.545573 118.079277 
L 154.529336 119.833199 
L 157.513098 121.58712 
L 160.496861 123.341041 
L 163.480623 125.094962 
L 166.464386 126.848884 
L 169.448149 128.602805 
L 172.431911 130.356726 
L 175.415674 132.110648 
L 178.399437 133.864569 
L 181.383199 135.61849 
L 184.366962 137.372411 
L 187.350724 139.126333 
L 190.334487 140.880254 
L 193.31825 142.634175 
L 196.302012 144.388097 
L 199.285775 146.142018 
L 202.269538 147.895939 
L 205.2533 149.64986 
L 208.237063 151.403782 
L 211.220825 153.157703 
L 214.204588 154.911624 
L 217.188351 156.665546 
L 220.172113 158.419467 
L 223.155876 160.173388 
L 226.139639 161.927309 
L 229.123401 163.681231 
L 232.107164 165.435152 
L 235.090926 167.189073 
L 238.074689 168.942995 
L 241.058452 170.696916 
L 244.042214 172.450837 
L 247.025977 174.204758 
L 250.00974 175.95868 
L 252.993502 177.712601 
L 255.977265 179.466522 
L 258.961027 181.220444 
L 261.94479 182.974365 
L 264.928553 184.728286 
L 267.912315 186.482207 
L 270.896078 188.236129 
L 273.879841 189.99005 
L 276.863603 191.743971 
L 279.847366 193.497893 
L 282.831128 195.251814 
L 285.814891 197.005735 
L 288.798654 198.759656 
L 291.782416 200.513578 
L 294.766179 202.267499 
L 297.749942 204.02142 
L 300.733704 205.775341 
L 303.717467 207.529263 
L 306.701229 209.283184 
L 309.684992 211.037105 
L 312.668755 212.791027 
L 315.652517 214.544948 
L 318.63628 216.298869 
L 321.620043 218.05279 
L 324.603805 219.806712 
L 327.587568 221.560633 
L 330.57133 223.314554 
L 333.555093 225.068476 
L 336.538856 226.822397 
L 339.522618 228.576318 
L 342.506381 230.330239 
L 345.490144 232.084161 
L 348.473906 233.838082 
" style="fill:none;stroke:#4c72b0;stroke-linecap:round;stroke-width:2.25;"/>
   </g>
   <g id="patch_3">
    <path d="M 53.081406 321.78 
L 53.081406 7.2 
" style="fill:none;stroke:#262626;stroke-linecap:square;stroke-linejoin:miter;stroke-width:1.25;"/>
   </g>
   <g id="patch_4">
    <path d="M 53.081406 321.78 
L 348.473906 321.78 
" style="fill:none;stroke:#262626;stroke-linecap:square;stroke-linejoin:miter;stroke-width:1.25;"/>
   </g>
  </g>
 </g>
 <defs>
  <clipPath id="p1476dbf3dc">
   <rect height="314.58" width="295.3925" x="53.081406" y="7.2"/>
  </clipPath>
 </defs>
</svg>
