<?xml version="1.0" encoding="utf-8" standalone="no"?>
<!DOCTYPE svg PUBLIC "-//W3C//DTD SVG 1.1//EN"
  "http://www.w3.org/Graphics/SVG/1.1/DTD/svg11.dtd">
<!-- Created with matplotlib (https://matplotlib.org/) -->
<svg height="363.449814pt" version="1.1" viewBox="0 0 363.318906 363.449814" width="363.318906pt" xmlns="http://www.w3.org/2000/svg" xmlns:xlink="http://www.w3.org/1999/xlink">
 <metadata>
  <rdf:RDF xmlns:cc="http://creativecommons.org/ns#" xmlns:dc="http://purl.org/dc/elements/1.1/" xmlns:rdf="http://www.w3.org/1999/02/22-rdf-syntax-ns#">
   <cc:Work>
    <dc:type rdf:resource="http://purl.org/dc/dcmitype/StillImage"/>
    <dc:date>2021-03-07T15:17:37.318048</dc:date>
    <dc:format>image/svg+xml</dc:format>
    <dc:creator>
     <cc:Agent>
      <dc:title>Matplotlib v3.3.2, https://matplotlib.org/</dc:title>
     </cc:Agent>
    </dc:creator>
   </cc:Work>
  </rdf:RDF>
 </metadata>
 <defs>
  <style type="text/css">*{stroke-linecap:butt;stroke-linejoin:round;}</style>
 </defs>
 <g id="figure_1">
  <g id="patch_1">
   <path d="M 0 363.449814 
L 363.318906 363.449814 
L 363.318906 0 
L 0 0 
z
" style="fill:#ffffff;"/>
  </g>
  <g id="axes_1">
   <g id="patch_2">
    <path d="M 53.081406 321.715595 
L 348.473906 321.715595 
L 348.473906 10.524729 
L 53.081406 10.524729 
z
" style="fill:#ffffff;"/>
   </g>
   <g id="matplotlib.axis_1">
    <g id="xtick_1">
     <g id="line2d_1">
      <defs>
       <path d="M 0 0 
L 0 6 
" id="mc0420597e1" style="stroke:#262626;stroke-width:1.25;"/>
      </defs>
      <g>
       <use style="fill:#262626;stroke:#262626;stroke-width:1.25;" x="53.081406" xlink:href="#mc0420597e1" y="321.715595"/>
      </g>
     </g>
     <g id="text_1">
      <!-- 1.0 -->
      <g style="fill:#262626;" transform="translate(45.436406 339.089189)scale(0.11 -0.11)">
       <defs>
        <path d="M 37.25 0 
L 28.46875 0 
L 28.46875 56 
Q 25.296875 52.984375 20.140625 49.953125 
Q 14.984375 46.921875 10.890625 45.40625 
L 10.890625 53.90625 
Q 18.265625 57.375 23.78125 62.296875 
Q 29.296875 67.234375 31.59375 71.875 
L 37.25 71.875 
z
" id="ArialMT-49"/>
        <path d="M 9.078125 0 
L 9.078125 10.015625 
L 19.09375 10.015625 
L 19.09375 0 
z
" id="ArialMT-46"/>
        <path d="M 4.15625 35.296875 
Q 4.15625 48 6.765625 55.734375 
Q 9.375 63.484375 14.515625 67.671875 
Q 19.671875 71.875 27.484375 71.875 
Q 33.25 71.875 37.59375 69.546875 
Q 41.9375 67.234375 44.765625 62.859375 
Q 47.609375 58.5 49.21875 52.21875 
Q 50.828125 45.953125 50.828125 35.296875 
Q 50.828125 22.703125 48.234375 14.96875 
Q 45.65625 7.234375 40.5 3 
Q 35.359375 -1.21875 27.484375 -1.21875 
Q 17.140625 -1.21875 11.234375 6.203125 
Q 4.15625 15.140625 4.15625 35.296875 
z
M 13.1875 35.296875 
Q 13.1875 17.671875 17.3125 11.828125 
Q 21.4375 6 27.484375 6 
Q 33.546875 6 37.671875 11.859375 
Q 41.796875 17.71875 41.796875 35.296875 
Q 41.796875 52.984375 37.671875 58.78125 
Q 33.546875 64.59375 27.390625 64.59375 
Q 21.34375 64.59375 17.71875 59.46875 
Q 13.1875 52.9375 13.1875 35.296875 
z
" id="ArialMT-48"/>
       </defs>
       <use xlink:href="#ArialMT-49"/>
       <use x="55.615234" xlink:href="#ArialMT-46"/>
       <use x="83.398438" xlink:href="#ArialMT-48"/>
      </g>
     </g>
    </g>
    <g id="xtick_2">
     <g id="line2d_2">
      <g>
       <use style="fill:#262626;stroke:#262626;stroke-width:1.25;" x="90.005469" xlink:href="#mc0420597e1" y="321.715595"/>
      </g>
     </g>
     <g id="text_2">
      <!-- 1.5 -->
      <g style="fill:#262626;" transform="translate(82.360469 339.089189)scale(0.11 -0.11)">
       <defs>
        <path d="M 4.15625 18.75 
L 13.375 19.53125 
Q 14.40625 12.796875 18.140625 9.390625 
Q 21.875 6 27.15625 6 
Q 33.5 6 37.890625 10.78125 
Q 42.28125 15.578125 42.28125 23.484375 
Q 42.28125 31 38.0625 35.34375 
Q 33.84375 39.703125 27 39.703125 
Q 22.75 39.703125 19.328125 37.765625 
Q 15.921875 35.84375 13.96875 32.765625 
L 5.71875 33.84375 
L 12.640625 70.609375 
L 48.25 70.609375 
L 48.25 62.203125 
L 19.671875 62.203125 
L 15.828125 42.96875 
Q 22.265625 47.46875 29.34375 47.46875 
Q 38.71875 47.46875 45.15625 40.96875 
Q 51.609375 34.46875 51.609375 24.265625 
Q 51.609375 14.546875 45.953125 7.46875 
Q 39.0625 -1.21875 27.15625 -1.21875 
Q 17.390625 -1.21875 11.203125 4.25 
Q 5.03125 9.71875 4.15625 18.75 
z
" id="ArialMT-53"/>
       </defs>
       <use xlink:href="#ArialMT-49"/>
       <use x="55.615234" xlink:href="#ArialMT-46"/>
       <use x="83.398438" xlink:href="#ArialMT-53"/>
      </g>
     </g>
    </g>
    <g id="xtick_3">
     <g id="line2d_3">
      <g>
       <use style="fill:#262626;stroke:#262626;stroke-width:1.25;" x="126.929531" xlink:href="#mc0420597e1" y="321.715595"/>
      </g>
     </g>
     <g id="text_3">
      <!-- 2.0 -->
      <g style="fill:#262626;" transform="translate(119.284531 339.089189)scale(0.11 -0.11)">
       <defs>
        <path d="M 50.34375 8.453125 
L 50.34375 0 
L 3.03125 0 
Q 2.9375 3.171875 4.046875 6.109375 
Q 5.859375 10.9375 9.828125 15.625 
Q 13.8125 20.3125 21.34375 26.46875 
Q 33.015625 36.03125 37.109375 41.625 
Q 41.21875 47.21875 41.21875 52.203125 
Q 41.21875 57.421875 37.46875 61 
Q 33.734375 64.59375 27.734375 64.59375 
Q 21.390625 64.59375 17.578125 60.78125 
Q 13.765625 56.984375 13.71875 50.25 
L 4.6875 51.171875 
Q 5.609375 61.28125 11.65625 66.578125 
Q 17.71875 71.875 27.9375 71.875 
Q 38.234375 71.875 44.234375 66.15625 
Q 50.25 60.453125 50.25 52 
Q 50.25 47.703125 48.484375 43.546875 
Q 46.734375 39.40625 42.65625 34.8125 
Q 38.578125 30.21875 29.109375 22.21875 
Q 21.1875 15.578125 18.9375 13.203125 
Q 16.703125 10.84375 15.234375 8.453125 
z
" id="ArialMT-50"/>
       </defs>
       <use xlink:href="#ArialMT-50"/>
       <use x="55.615234" xlink:href="#ArialMT-46"/>
       <use x="83.398438" xlink:href="#ArialMT-48"/>
      </g>
     </g>
    </g>
    <g id="xtick_4">
     <g id="line2d_4">
      <g>
       <use style="fill:#262626;stroke:#262626;stroke-width:1.25;" x="163.853594" xlink:href="#mc0420597e1" y="321.715595"/>
      </g>
     </g>
     <g id="text_4">
      <!-- 2.5 -->
      <g style="fill:#262626;" transform="translate(156.208594 339.089189)scale(0.11 -0.11)">
       <use xlink:href="#ArialMT-50"/>
       <use x="55.615234" xlink:href="#ArialMT-46"/>
       <use x="83.398438" xlink:href="#ArialMT-53"/>
      </g>
     </g>
    </g>
    <g id="xtick_5">
     <g id="line2d_5">
      <g>
       <use style="fill:#262626;stroke:#262626;stroke-width:1.25;" x="200.777656" xlink:href="#mc0420597e1" y="321.715595"/>
      </g>
     </g>
     <g id="text_5">
      <!-- 3.0 -->
      <g style="fill:#262626;" transform="translate(193.132656 339.089189)scale(0.11 -0.11)">
       <defs>
        <path d="M 4.203125 18.890625 
L 12.984375 20.0625 
Q 14.5 12.59375 18.140625 9.296875 
Q 21.78125 6 27 6 
Q 33.203125 6 37.46875 10.296875 
Q 41.75 14.59375 41.75 20.953125 
Q 41.75 27 37.796875 30.921875 
Q 33.84375 34.859375 27.734375 34.859375 
Q 25.25 34.859375 21.53125 33.890625 
L 22.515625 41.609375 
Q 23.390625 41.5 23.921875 41.5 
Q 29.546875 41.5 34.03125 44.421875 
Q 38.53125 47.359375 38.53125 53.46875 
Q 38.53125 58.296875 35.25 61.46875 
Q 31.984375 64.65625 26.8125 64.65625 
Q 21.6875 64.65625 18.265625 61.421875 
Q 14.84375 58.203125 13.875 51.765625 
L 5.078125 53.328125 
Q 6.6875 62.15625 12.390625 67.015625 
Q 18.109375 71.875 26.609375 71.875 
Q 32.46875 71.875 37.390625 69.359375 
Q 42.328125 66.84375 44.9375 62.5 
Q 47.5625 58.15625 47.5625 53.265625 
Q 47.5625 48.640625 45.0625 44.828125 
Q 42.578125 41.015625 37.703125 38.765625 
Q 44.046875 37.3125 47.5625 32.6875 
Q 51.078125 28.078125 51.078125 21.140625 
Q 51.078125 11.765625 44.234375 5.25 
Q 37.40625 -1.265625 26.953125 -1.265625 
Q 17.53125 -1.265625 11.296875 4.34375 
Q 5.078125 9.96875 4.203125 18.890625 
z
" id="ArialMT-51"/>
       </defs>
       <use xlink:href="#ArialMT-51"/>
       <use x="55.615234" xlink:href="#ArialMT-46"/>
       <use x="83.398438" xlink:href="#ArialMT-48"/>
      </g>
     </g>
    </g>
    <g id="xtick_6">
     <g id="line2d_6">
      <g>
       <use style="fill:#262626;stroke:#262626;stroke-width:1.25;" x="237.701719" xlink:href="#mc0420597e1" y="321.715595"/>
      </g>
     </g>
     <g id="text_6">
      <!-- 3.5 -->
      <g style="fill:#262626;" transform="translate(230.056719 339.089189)scale(0.11 -0.11)">
       <use xlink:href="#ArialMT-51"/>
       <use x="55.615234" xlink:href="#ArialMT-46"/>
       <use x="83.398438" xlink:href="#ArialMT-53"/>
      </g>
     </g>
    </g>
    <g id="xtick_7">
     <g id="line2d_7">
      <g>
       <use style="fill:#262626;stroke:#262626;stroke-width:1.25;" x="274.625781" xlink:href="#mc0420597e1" y="321.715595"/>
      </g>
     </g>
     <g id="text_7">
      <!-- 4.0 -->
      <g style="fill:#262626;" transform="translate(266.980781 339.089189)scale(0.11 -0.11)">
       <defs>
        <path d="M 32.328125 0 
L 32.328125 17.140625 
L 1.265625 17.140625 
L 1.265625 25.203125 
L 33.9375 71.578125 
L 41.109375 71.578125 
L 41.109375 25.203125 
L 50.78125 25.203125 
L 50.78125 17.140625 
L 41.109375 17.140625 
L 41.109375 0 
z
M 32.328125 25.203125 
L 32.328125 57.46875 
L 9.90625 25.203125 
z
" id="ArialMT-52"/>
       </defs>
       <use xlink:href="#ArialMT-52"/>
       <use x="55.615234" xlink:href="#ArialMT-46"/>
       <use x="83.398438" xlink:href="#ArialMT-48"/>
      </g>
     </g>
    </g>
    <g id="xtick_8">
     <g id="line2d_8">
      <g>
       <use style="fill:#262626;stroke:#262626;stroke-width:1.25;" x="311.549844" xlink:href="#mc0420597e1" y="321.715595"/>
      </g>
     </g>
     <g id="text_8">
      <!-- 4.5 -->
      <g style="fill:#262626;" transform="translate(303.904844 339.089189)scale(0.11 -0.11)">
       <use xlink:href="#ArialMT-52"/>
       <use x="55.615234" xlink:href="#ArialMT-46"/>
       <use x="83.398438" xlink:href="#ArialMT-53"/>
      </g>
     </g>
    </g>
    <g id="xtick_9">
     <g id="line2d_9">
      <g>
       <use style="fill:#262626;stroke:#262626;stroke-width:1.25;" x="348.473906" xlink:href="#mc0420597e1" y="321.715595"/>
      </g>
     </g>
     <g id="text_9">
      <!-- 5.0 -->
      <g style="fill:#262626;" transform="translate(340.828906 339.089189)scale(0.11 -0.11)">
       <use xlink:href="#ArialMT-53"/>
       <use x="55.615234" xlink:href="#ArialMT-46"/>
       <use x="83.398438" xlink:href="#ArialMT-48"/>
      </g>
     </g>
    </g>
    <g id="text_10">
     <!-- l14d -->
     <g style="fill:#262626;" transform="translate(189.434844 353.864814)scale(0.12 -0.12)">
      <defs>
       <path d="M 6.390625 0 
L 6.390625 71.578125 
L 15.1875 71.578125 
L 15.1875 0 
z
" id="ArialMT-108"/>
       <path d="M 40.234375 0 
L 40.234375 6.546875 
Q 35.296875 -1.171875 25.734375 -1.171875 
Q 19.53125 -1.171875 14.328125 2.25 
Q 9.125 5.671875 6.265625 11.796875 
Q 3.421875 17.921875 3.421875 25.875 
Q 3.421875 33.640625 6 39.96875 
Q 8.59375 46.296875 13.765625 49.65625 
Q 18.953125 53.03125 25.34375 53.03125 
Q 30.03125 53.03125 33.6875 51.046875 
Q 37.359375 49.078125 39.65625 45.90625 
L 39.65625 71.578125 
L 48.390625 71.578125 
L 48.390625 0 
z
M 12.453125 25.875 
Q 12.453125 15.921875 16.640625 10.984375 
Q 20.84375 6.0625 26.5625 6.0625 
Q 32.328125 6.0625 36.34375 10.765625 
Q 40.375 15.484375 40.375 25.140625 
Q 40.375 35.796875 36.265625 40.765625 
Q 32.171875 45.75 26.171875 45.75 
Q 20.3125 45.75 16.375 40.96875 
Q 12.453125 36.1875 12.453125 25.875 
z
" id="ArialMT-100"/>
      </defs>
      <use xlink:href="#ArialMT-108"/>
      <use x="22.216797" xlink:href="#ArialMT-49"/>
      <use x="77.832031" xlink:href="#ArialMT-52"/>
      <use x="133.447266" xlink:href="#ArialMT-100"/>
     </g>
    </g>
   </g>
   <g id="matplotlib.axis_2">
    <g id="ytick_1">
     <g id="line2d_10">
      <defs>
       <path d="M 0 0 
L -6 0 
" id="m91319b6513" style="stroke:#262626;stroke-width:1.25;"/>
      </defs>
      <g>
       <use style="fill:#262626;stroke:#262626;stroke-width:1.25;" x="53.081406" xlink:href="#m91319b6513" y="295.066407"/>
      </g>
     </g>
     <g id="text_11">
      <!-- 14.5 -->
      <g style="fill:#262626;" transform="translate(22.174375 299.003204)scale(0.11 -0.11)">
       <use xlink:href="#ArialMT-49"/>
       <use x="55.615234" xlink:href="#ArialMT-52"/>
       <use x="111.230469" xlink:href="#ArialMT-46"/>
       <use x="139.013672" xlink:href="#ArialMT-53"/>
      </g>
     </g>
    </g>
    <g id="ytick_2">
     <g id="line2d_11">
      <g>
       <use style="fill:#262626;stroke:#262626;stroke-width:1.25;" x="53.081406" xlink:href="#m91319b6513" y="254.505034"/>
      </g>
     </g>
     <g id="text_12">
      <!-- 15.0 -->
      <g style="fill:#262626;" transform="translate(22.174375 258.441831)scale(0.11 -0.11)">
       <use xlink:href="#ArialMT-49"/>
       <use x="55.615234" xlink:href="#ArialMT-53"/>
       <use x="111.230469" xlink:href="#ArialMT-46"/>
       <use x="139.013672" xlink:href="#ArialMT-48"/>
      </g>
     </g>
    </g>
    <g id="ytick_3">
     <g id="line2d_12">
      <g>
       <use style="fill:#262626;stroke:#262626;stroke-width:1.25;" x="53.081406" xlink:href="#m91319b6513" y="213.943661"/>
      </g>
     </g>
     <g id="text_13">
      <!-- 15.5 -->
      <g style="fill:#262626;" transform="translate(22.174375 217.880458)scale(0.11 -0.11)">
       <use xlink:href="#ArialMT-49"/>
       <use x="55.615234" xlink:href="#ArialMT-53"/>
       <use x="111.230469" xlink:href="#ArialMT-46"/>
       <use x="139.013672" xlink:href="#ArialMT-53"/>
      </g>
     </g>
    </g>
    <g id="ytick_4">
     <g id="line2d_13">
      <g>
       <use style="fill:#262626;stroke:#262626;stroke-width:1.25;" x="53.081406" xlink:href="#m91319b6513" y="173.382288"/>
      </g>
     </g>
     <g id="text_14">
      <!-- 16.0 -->
      <g style="fill:#262626;" transform="translate(22.174375 177.319085)scale(0.11 -0.11)">
       <defs>
        <path d="M 49.75 54.046875 
L 41.015625 53.375 
Q 39.84375 58.546875 37.703125 60.890625 
Q 34.125 64.65625 28.90625 64.65625 
Q 24.703125 64.65625 21.53125 62.3125 
Q 17.390625 59.28125 14.984375 53.46875 
Q 12.59375 47.65625 12.5 36.921875 
Q 15.671875 41.75 20.265625 44.09375 
Q 24.859375 46.4375 29.890625 46.4375 
Q 38.671875 46.4375 44.84375 39.96875 
Q 51.03125 33.5 51.03125 23.25 
Q 51.03125 16.5 48.125 10.71875 
Q 45.21875 4.9375 40.140625 1.859375 
Q 35.0625 -1.21875 28.609375 -1.21875 
Q 17.625 -1.21875 10.6875 6.859375 
Q 3.765625 14.9375 3.765625 33.5 
Q 3.765625 54.25 11.421875 63.671875 
Q 18.109375 71.875 29.4375 71.875 
Q 37.890625 71.875 43.28125 67.140625 
Q 48.6875 62.40625 49.75 54.046875 
z
M 13.875 23.1875 
Q 13.875 18.65625 15.796875 14.5 
Q 17.71875 10.359375 21.1875 8.171875 
Q 24.65625 6 28.46875 6 
Q 34.03125 6 38.03125 10.484375 
Q 42.046875 14.984375 42.046875 22.703125 
Q 42.046875 30.125 38.078125 34.390625 
Q 34.125 38.671875 28.125 38.671875 
Q 22.171875 38.671875 18.015625 34.390625 
Q 13.875 30.125 13.875 23.1875 
z
" id="ArialMT-54"/>
       </defs>
       <use xlink:href="#ArialMT-49"/>
       <use x="55.615234" xlink:href="#ArialMT-54"/>
       <use x="111.230469" xlink:href="#ArialMT-46"/>
       <use x="139.013672" xlink:href="#ArialMT-48"/>
      </g>
     </g>
    </g>
    <g id="ytick_5">
     <g id="line2d_14">
      <g>
       <use style="fill:#262626;stroke:#262626;stroke-width:1.25;" x="53.081406" xlink:href="#m91319b6513" y="132.820915"/>
      </g>
     </g>
     <g id="text_15">
      <!-- 16.5 -->
      <g style="fill:#262626;" transform="translate(22.174375 136.757712)scale(0.11 -0.11)">
       <use xlink:href="#ArialMT-49"/>
       <use x="55.615234" xlink:href="#ArialMT-54"/>
       <use x="111.230469" xlink:href="#ArialMT-46"/>
       <use x="139.013672" xlink:href="#ArialMT-53"/>
      </g>
     </g>
    </g>
    <g id="ytick_6">
     <g id="line2d_15">
      <g>
       <use style="fill:#262626;stroke:#262626;stroke-width:1.25;" x="53.081406" xlink:href="#m91319b6513" y="92.259543"/>
      </g>
     </g>
     <g id="text_16">
      <!-- 17.0 -->
      <g style="fill:#262626;" transform="translate(22.174375 96.196339)scale(0.11 -0.11)">
       <defs>
        <path d="M 4.734375 62.203125 
L 4.734375 70.65625 
L 51.078125 70.65625 
L 51.078125 63.8125 
Q 44.234375 56.546875 37.515625 44.484375 
Q 30.8125 32.421875 27.15625 19.671875 
Q 24.515625 10.6875 23.78125 0 
L 14.75 0 
Q 14.890625 8.453125 18.0625 20.40625 
Q 21.234375 32.375 27.171875 43.484375 
Q 33.109375 54.59375 39.796875 62.203125 
z
" id="ArialMT-55"/>
       </defs>
       <use xlink:href="#ArialMT-49"/>
       <use x="55.615234" xlink:href="#ArialMT-55"/>
       <use x="111.230469" xlink:href="#ArialMT-46"/>
       <use x="139.013672" xlink:href="#ArialMT-48"/>
      </g>
     </g>
    </g>
    <g id="ytick_7">
     <g id="line2d_16">
      <g>
       <use style="fill:#262626;stroke:#262626;stroke-width:1.25;" x="53.081406" xlink:href="#m91319b6513" y="51.69817"/>
      </g>
     </g>
     <g id="text_17">
      <!-- 17.5 -->
      <g style="fill:#262626;" transform="translate(22.174375 55.634967)scale(0.11 -0.11)">
       <use xlink:href="#ArialMT-49"/>
       <use x="55.615234" xlink:href="#ArialMT-55"/>
       <use x="111.230469" xlink:href="#ArialMT-46"/>
       <use x="139.013672" xlink:href="#ArialMT-53"/>
      </g>
     </g>
    </g>
    <g id="ytick_8">
     <g id="line2d_17">
      <g>
       <use style="fill:#262626;stroke:#262626;stroke-width:1.25;" x="53.081406" xlink:href="#m91319b6513" y="11.136797"/>
      </g>
     </g>
     <g id="text_18">
      <!-- 18.0 -->
      <g style="fill:#262626;" transform="translate(22.174375 15.073594)scale(0.11 -0.11)">
       <defs>
        <path d="M 17.671875 38.8125 
Q 12.203125 40.828125 9.5625 44.53125 
Q 6.9375 48.25 6.9375 53.421875 
Q 6.9375 61.234375 12.546875 66.546875 
Q 18.171875 71.875 27.484375 71.875 
Q 36.859375 71.875 42.578125 66.421875 
Q 48.296875 60.984375 48.296875 53.171875 
Q 48.296875 48.1875 45.671875 44.5 
Q 43.0625 40.828125 37.75 38.8125 
Q 44.34375 36.671875 47.78125 31.875 
Q 51.21875 27.09375 51.21875 20.453125 
Q 51.21875 11.28125 44.71875 5.03125 
Q 38.234375 -1.21875 27.640625 -1.21875 
Q 17.046875 -1.21875 10.546875 5.046875 
Q 4.046875 11.328125 4.046875 20.703125 
Q 4.046875 27.6875 7.59375 32.390625 
Q 11.140625 37.109375 17.671875 38.8125 
z
M 15.921875 53.71875 
Q 15.921875 48.640625 19.1875 45.40625 
Q 22.46875 42.1875 27.6875 42.1875 
Q 32.765625 42.1875 36.015625 45.375 
Q 39.265625 48.578125 39.265625 53.21875 
Q 39.265625 58.0625 35.90625 61.359375 
Q 32.5625 64.65625 27.59375 64.65625 
Q 22.5625 64.65625 19.234375 61.421875 
Q 15.921875 58.203125 15.921875 53.71875 
z
M 13.09375 20.65625 
Q 13.09375 16.890625 14.875 13.375 
Q 16.65625 9.859375 20.171875 7.921875 
Q 23.6875 6 27.734375 6 
Q 34.03125 6 38.125 10.046875 
Q 42.234375 14.109375 42.234375 20.359375 
Q 42.234375 26.703125 38.015625 30.859375 
Q 33.796875 35.015625 27.4375 35.015625 
Q 21.234375 35.015625 17.15625 30.90625 
Q 13.09375 26.8125 13.09375 20.65625 
z
" id="ArialMT-56"/>
       </defs>
       <use xlink:href="#ArialMT-49"/>
       <use x="55.615234" xlink:href="#ArialMT-56"/>
       <use x="111.230469" xlink:href="#ArialMT-46"/>
       <use x="139.013672" xlink:href="#ArialMT-48"/>
      </g>
     </g>
    </g>
    <g id="text_19">
     <!-- score -->
     <g style="fill:#262626;" transform="translate(15.789375 180.791099)rotate(-90)scale(0.12 -0.12)">
      <defs>
       <path d="M 3.078125 15.484375 
L 11.765625 16.84375 
Q 12.5 11.625 15.84375 8.84375 
Q 19.1875 6.0625 25.203125 6.0625 
Q 31.25 6.0625 34.171875 8.515625 
Q 37.109375 10.984375 37.109375 14.3125 
Q 37.109375 17.28125 34.515625 19 
Q 32.71875 20.171875 25.53125 21.96875 
Q 15.875 24.421875 12.140625 26.203125 
Q 8.40625 27.984375 6.46875 31.125 
Q 4.546875 34.28125 4.546875 38.09375 
Q 4.546875 41.546875 6.125 44.5 
Q 7.71875 47.46875 10.453125 49.421875 
Q 12.5 50.921875 16.03125 51.96875 
Q 19.578125 53.03125 23.640625 53.03125 
Q 29.734375 53.03125 34.34375 51.265625 
Q 38.96875 49.515625 41.15625 46.5 
Q 43.359375 43.5 44.1875 38.484375 
L 35.59375 37.3125 
Q 35.015625 41.3125 32.203125 43.546875 
Q 29.390625 45.796875 24.265625 45.796875 
Q 18.21875 45.796875 15.625 43.796875 
Q 13.03125 41.796875 13.03125 39.109375 
Q 13.03125 37.40625 14.109375 36.03125 
Q 15.1875 34.625 17.484375 33.6875 
Q 18.796875 33.203125 25.25 31.453125 
Q 34.578125 28.953125 38.25 27.359375 
Q 41.9375 25.78125 44.03125 22.75 
Q 46.140625 19.734375 46.140625 15.234375 
Q 46.140625 10.84375 43.578125 6.953125 
Q 41.015625 3.078125 36.171875 0.953125 
Q 31.34375 -1.171875 25.25 -1.171875 
Q 15.140625 -1.171875 9.84375 3.03125 
Q 4.546875 7.234375 3.078125 15.484375 
z
" id="ArialMT-115"/>
       <path d="M 40.4375 19 
L 49.078125 17.875 
Q 47.65625 8.9375 41.8125 3.875 
Q 35.984375 -1.171875 27.484375 -1.171875 
Q 16.84375 -1.171875 10.375 5.78125 
Q 3.90625 12.75 3.90625 25.734375 
Q 3.90625 34.125 6.6875 40.421875 
Q 9.46875 46.734375 15.15625 49.875 
Q 20.84375 53.03125 27.546875 53.03125 
Q 35.984375 53.03125 41.359375 48.75 
Q 46.734375 44.484375 48.25 36.625 
L 39.703125 35.296875 
Q 38.484375 40.53125 35.375 43.15625 
Q 32.28125 45.796875 27.875 45.796875 
Q 21.234375 45.796875 17.078125 41.03125 
Q 12.9375 36.28125 12.9375 25.984375 
Q 12.9375 15.53125 16.9375 10.796875 
Q 20.953125 6.0625 27.390625 6.0625 
Q 32.5625 6.0625 36.03125 9.234375 
Q 39.5 12.40625 40.4375 19 
z
" id="ArialMT-99"/>
       <path d="M 3.328125 25.921875 
Q 3.328125 40.328125 11.328125 47.265625 
Q 18.015625 53.03125 27.640625 53.03125 
Q 38.328125 53.03125 45.109375 46.015625 
Q 51.90625 39.015625 51.90625 26.65625 
Q 51.90625 16.65625 48.90625 10.90625 
Q 45.90625 5.171875 40.15625 2 
Q 34.421875 -1.171875 27.640625 -1.171875 
Q 16.75 -1.171875 10.03125 5.8125 
Q 3.328125 12.796875 3.328125 25.921875 
z
M 12.359375 25.921875 
Q 12.359375 15.96875 16.703125 11.015625 
Q 21.046875 6.0625 27.640625 6.0625 
Q 34.1875 6.0625 38.53125 11.03125 
Q 42.875 16.015625 42.875 26.21875 
Q 42.875 35.84375 38.5 40.796875 
Q 34.125 45.75 27.640625 45.75 
Q 21.046875 45.75 16.703125 40.8125 
Q 12.359375 35.890625 12.359375 25.921875 
z
" id="ArialMT-111"/>
       <path d="M 6.5 0 
L 6.5 51.859375 
L 14.40625 51.859375 
L 14.40625 44 
Q 17.4375 49.515625 20 51.265625 
Q 22.5625 53.03125 25.640625 53.03125 
Q 30.078125 53.03125 34.671875 50.203125 
L 31.640625 42.046875 
Q 28.421875 43.953125 25.203125 43.953125 
Q 22.3125 43.953125 20.015625 42.21875 
Q 17.71875 40.484375 16.75 37.40625 
Q 15.28125 32.71875 15.28125 27.15625 
L 15.28125 0 
z
" id="ArialMT-114"/>
       <path d="M 42.09375 16.703125 
L 51.171875 15.578125 
Q 49.03125 7.625 43.21875 3.21875 
Q 37.40625 -1.171875 28.375 -1.171875 
Q 17 -1.171875 10.328125 5.828125 
Q 3.65625 12.84375 3.65625 25.484375 
Q 3.65625 38.578125 10.390625 45.796875 
Q 17.140625 53.03125 27.875 53.03125 
Q 38.28125 53.03125 44.875 45.953125 
Q 51.46875 38.875 51.46875 26.03125 
Q 51.46875 25.25 51.421875 23.6875 
L 12.75 23.6875 
Q 13.234375 15.140625 17.578125 10.59375 
Q 21.921875 6.0625 28.421875 6.0625 
Q 33.25 6.0625 36.671875 8.59375 
Q 40.09375 11.140625 42.09375 16.703125 
z
M 13.234375 30.90625 
L 42.1875 30.90625 
Q 41.609375 37.453125 38.875 40.71875 
Q 34.671875 45.796875 27.984375 45.796875 
Q 21.921875 45.796875 17.796875 41.75 
Q 13.671875 37.703125 13.234375 30.90625 
z
" id="ArialMT-101"/>
      </defs>
      <use xlink:href="#ArialMT-115"/>
      <use x="50" xlink:href="#ArialMT-99"/>
      <use x="100" xlink:href="#ArialMT-111"/>
      <use x="155.615234" xlink:href="#ArialMT-114"/>
      <use x="188.916016" xlink:href="#ArialMT-101"/>
     </g>
    </g>
   </g>
   <g id="PathCollection_1">
    <defs>
     <path d="M 0 3.535534 
C 0.937635 3.535534 1.836992 3.163008 2.5 2.5 
C 3.163008 1.836992 3.535534 0.937635 3.535534 0 
C 3.535534 -0.937635 3.163008 -1.836992 2.5 -2.5 
C 1.836992 -3.163008 0.937635 -3.535534 0 -3.535534 
C -0.937635 -3.535534 -1.836992 -3.163008 -2.5 -2.5 
C -3.163008 -1.836992 -3.535534 -0.937635 -3.535534 0 
C -3.535534 0.937635 -3.163008 1.836992 -2.5 2.5 
C -1.836992 3.163008 -0.937635 3.535534 0 3.535534 
z
" id="m0f0873d320" style="stroke:#4c72b0;"/>
    </defs>
    <g clip-path="url(#p10b5c03cf3)">
     <use style="fill:#4c72b0;stroke:#4c72b0;" x="53.081406" xlink:href="#m0f0873d320" y="55.102462"/>
     <use style="fill:#4c72b0;stroke:#4c72b0;" x="126.929531" xlink:href="#m0f0873d320" y="109.941688"/>
     <use style="fill:#4c72b0;stroke:#4c72b0;" x="200.777656" xlink:href="#m0f0873d320" y="152.745443"/>
     <use style="fill:#4c72b0;stroke:#4c72b0;" x="274.625781" xlink:href="#m0f0873d320" y="180.493252"/>
     <use style="fill:#4c72b0;stroke:#4c72b0;" x="348.473906" xlink:href="#m0f0873d320" y="199.042124"/>
    </g>
   </g>
   <g id="PolyCollection_1">
    <defs>
     <path d="M 53.081406 -319.499793 
L 53.081406 -275.667011 
L 56.065169 -274.560722 
L 59.048932 -273.456516 
L 62.032694 -272.14526 
L 65.016457 -270.971802 
L 68.000219 -269.75254 
L 70.983982 -268.433182 
L 73.967745 -267.308846 
L 76.951507 -265.919768 
L 79.93527 -264.447457 
L 82.919033 -263.272793 
L 85.902795 -261.954851 
L 88.886558 -260.755795 
L 91.87032 -259.608649 
L 94.854083 -258.236016 
L 97.837846 -256.666355 
L 100.821608 -255.359968 
L 103.805371 -254.202028 
L 106.789134 -252.885589 
L 109.772896 -251.37627 
L 112.756659 -249.996147 
L 115.740421 -248.570643 
L 118.724184 -247.091887 
L 121.707947 -245.676042 
L 124.691709 -244.115367 
L 127.675472 -242.993606 
L 130.659235 -241.514611 
L 133.642997 -239.870927 
L 136.62676 -238.504996 
L 139.610522 -236.827011 
L 142.594285 -235.131983 
L 145.578048 -233.457046 
L 148.56181 -231.588917 
L 151.545573 -230.021593 
L 154.529336 -228.453321 
L 157.513098 -226.721747 
L 160.496861 -224.9368 
L 163.480623 -223.079071 
L 166.464386 -221.08123 
L 169.448149 -219.115159 
L 172.431911 -217.317186 
L 175.415674 -215.451617 
L 178.399437 -213.523383 
L 181.383199 -211.584459 
L 184.366962 -209.602603 
L 187.350724 -207.476292 
L 190.334487 -205.639763 
L 193.31825 -203.660481 
L 196.302012 -202.120098 
L 199.285775 -199.905671 
L 202.269538 -197.71966 
L 205.2533 -195.869545 
L 208.237063 -193.76037 
L 211.220825 -191.776149 
L 214.204588 -189.798002 
L 217.188351 -187.811899 
L 220.172113 -185.718368 
L 223.155876 -183.603198 
L 226.139639 -181.486048 
L 229.123401 -179.43953 
L 232.107164 -177.34176 
L 235.090926 -175.172272 
L 238.074689 -172.999887 
L 241.058452 -170.861656 
L 244.042214 -168.768103 
L 247.025977 -166.495446 
L 250.00974 -164.448314 
L 252.993502 -162.417449 
L 255.977265 -160.296411 
L 258.961027 -158.112375 
L 261.94479 -155.815907 
L 264.928553 -153.801869 
L 267.912315 -151.771744 
L 270.896078 -149.706651 
L 273.879841 -147.591574 
L 276.863603 -145.467321 
L 279.847366 -143.315937 
L 282.831128 -141.080324 
L 285.814891 -138.844712 
L 288.798654 -136.6091 
L 291.782416 -134.372309 
L 294.766179 -132.135115 
L 297.749942 -129.897922 
L 300.733704 -127.660728 
L 303.717467 -125.405101 
L 306.701229 -123.188544 
L 309.684992 -120.953896 
L 312.668755 -118.733133 
L 315.652517 -116.481346 
L 318.63628 -114.259004 
L 321.620043 -112.029744 
L 324.603805 -109.771863 
L 327.587568 -107.587177 
L 330.57133 -105.442944 
L 333.555093 -103.18314 
L 336.538856 -100.923336 
L 339.522618 -98.663532 
L 342.506381 -96.403728 
L 345.490144 -94.143923 
L 348.473906 -91.884119 
L 348.473906 -171.932004 
L 348.473906 -171.932004 
L 345.490144 -173.033428 
L 342.506381 -174.106277 
L 339.522618 -175.179125 
L 336.538856 -176.251973 
L 333.555093 -177.324822 
L 330.57133 -178.39749 
L 327.587568 -179.467035 
L 324.603805 -180.536579 
L 321.620043 -181.606124 
L 318.63628 -182.676051 
L 315.652517 -183.791086 
L 312.668755 -184.894138 
L 309.684992 -185.995825 
L 306.701229 -187.218211 
L 303.717467 -188.478906 
L 300.733704 -189.787449 
L 297.749942 -191.095991 
L 294.766179 -192.125141 
L 291.782416 -193.351873 
L 288.798654 -194.490649 
L 285.814891 -195.621038 
L 282.831128 -196.751427 
L 279.847366 -198.001856 
L 276.863603 -199.391054 
L 273.879841 -200.728617 
L 270.896078 -201.961985 
L 267.912315 -203.195354 
L 264.928553 -204.428722 
L 261.94479 -205.662091 
L 258.961027 -206.885427 
L 255.977265 -208.103024 
L 252.993502 -208.883212 
L 250.00974 -209.920972 
L 247.025977 -211.261468 
L 244.042214 -212.601939 
L 241.058452 -213.93632 
L 238.074689 -215.079052 
L 235.090926 -216.107464 
L 232.107164 -217.13586 
L 229.123401 -218.164255 
L 226.139639 -219.253353 
L 223.155876 -220.392091 
L 220.172113 -221.680076 
L 217.188351 -222.69479 
L 214.204588 -224.124811 
L 211.220825 -225.273633 
L 208.237063 -226.608247 
L 205.2533 -227.989347 
L 202.269538 -229.437708 
L 199.285775 -230.742788 
L 196.302012 -232.34404 
L 193.31825 -233.796998 
L 190.334487 -235.148008 
L 187.350724 -236.521542 
L 184.366962 -237.725211 
L 181.383199 -239.172673 
L 178.399437 -240.767592 
L 175.415674 -242.29411 
L 172.431911 -243.963828 
L 169.448149 -245.600912 
L 166.464386 -247.371809 
L 163.480623 -248.875492 
L 160.496861 -250.68634 
L 157.513098 -251.964576 
L 154.529336 -253.802243 
L 151.545573 -255.441749 
L 148.56181 -256.992481 
L 145.578048 -258.704389 
L 142.594285 -260.520261 
L 139.610522 -262.381568 
L 136.62676 -264.209839 
L 133.642997 -265.941237 
L 130.659235 -267.675124 
L 127.675472 -269.525582 
L 124.691709 -271.319339 
L 121.707947 -273.127447 
L 118.724184 -275.156396 
L 115.740421 -277.153965 
L 112.756659 -278.761471 
L 109.772896 -280.737994 
L 106.789134 -282.510053 
L 103.805371 -284.581234 
L 100.821608 -286.603687 
L 97.837846 -288.612501 
L 94.854083 -290.467329 
L 91.87032 -292.477809 
L 88.886558 -294.556622 
L 85.902795 -296.604579 
L 82.919033 -298.715199 
L 79.93527 -300.769233 
L 76.951507 -302.848329 
L 73.967745 -304.957191 
L 70.983982 -306.961379 
L 68.000219 -309.142737 
L 65.016457 -311.174849 
L 62.032694 -313.202717 
L 59.048932 -315.252389 
L 56.065169 -317.373286 
L 53.081406 -319.499793 
z
" id="maeb7e5297a" style="stroke:#ffffff;stroke-opacity:0.15;"/>
    </defs>
    <g clip-path="url(#p10b5c03cf3)">
     <use style="fill:#4c72b0;fill-opacity:0.15;stroke:#ffffff;stroke-opacity:0.15;" x="0" xlink:href="#maeb7e5297a" y="363.449814"/>
    </g>
   </g>
   <g id="line2d_18">
    <path clip-path="url(#p10b5c03cf3)" d="M 53.081406 85.858946 
L 53.081406 24.669768 
" style="fill:none;stroke:#4c72b0;stroke-linecap:round;stroke-width:2.625;"/>
   </g>
   <g id="line2d_19">
    <path clip-path="url(#p10b5c03cf3)" d="M 126.929531 128.976276 
L 126.929531 89.644939 
" style="fill:none;stroke:#4c72b0;stroke-linecap:round;stroke-width:2.625;"/>
   </g>
   <g id="line2d_20">
    <path clip-path="url(#p10b5c03cf3)" d="M 200.777656 175.411715 
L 200.777656 130.212301 
" style="fill:none;stroke:#4c72b0;stroke-linecap:round;stroke-width:2.625;"/>
   </g>
   <g id="line2d_21">
    <path clip-path="url(#p10b5c03cf3)" d="M 274.625781 223.570513 
L 274.625781 140.652311 
" style="fill:none;stroke:#4c72b0;stroke-linecap:round;stroke-width:2.625;"/>
   </g>
   <g id="line2d_22">
    <path clip-path="url(#p10b5c03cf3)" d="M 348.473906 307.570556 
L 348.473906 86.809214 
" style="fill:none;stroke:#4c72b0;stroke-linecap:round;stroke-width:2.625;"/>
   </g>
   <g id="line2d_23">
    <path clip-path="url(#p10b5c03cf3)" d="M 53.081406 64.127913 
L 56.065169 65.836291 
L 59.048932 67.544668 
L 62.032694 69.253046 
L 65.016457 70.961423 
L 68.000219 72.669801 
L 70.983982 74.378179 
L 73.967745 76.086556 
L 76.951507 77.794934 
L 79.93527 79.503312 
L 82.919033 81.211689 
L 85.902795 82.920067 
L 88.886558 84.628445 
L 91.87032 86.336822 
L 94.854083 88.0452 
L 97.837846 89.753578 
L 100.821608 91.461955 
L 103.805371 93.170333 
L 106.789134 94.878711 
L 109.772896 96.587088 
L 112.756659 98.295466 
L 115.740421 100.003844 
L 118.724184 101.712221 
L 121.707947 103.420599 
L 124.691709 105.128977 
L 127.675472 106.837354 
L 130.659235 108.545732 
L 133.642997 110.25411 
L 136.62676 111.962487 
L 139.610522 113.670865 
L 142.594285 115.379243 
L 145.578048 117.08762 
L 148.56181 118.795998 
L 151.545573 120.504376 
L 154.529336 122.212753 
L 157.513098 123.921131 
L 160.496861 125.629509 
L 163.480623 127.337886 
L 166.464386 129.046264 
L 169.448149 130.754642 
L 172.431911 132.463019 
L 175.415674 134.171397 
L 178.399437 135.879775 
L 181.383199 137.588152 
L 184.366962 139.29653 
L 187.350724 141.004908 
L 190.334487 142.713285 
L 193.31825 144.421663 
L 196.302012 146.130041 
L 199.285775 147.838418 
L 202.269538 149.546796 
L 205.2533 151.255174 
L 208.237063 152.963551 
L 211.220825 154.671929 
L 214.204588 156.380307 
L 217.188351 158.088684 
L 220.172113 159.797062 
L 223.155876 161.50544 
L 226.139639 163.213817 
L 229.123401 164.922195 
L 232.107164 166.630573 
L 235.090926 168.33895 
L 238.074689 170.047328 
L 241.058452 171.755706 
L 244.042214 173.464083 
L 247.025977 175.172461 
L 250.00974 176.880838 
L 252.993502 178.589216 
L 255.977265 180.297594 
L 258.961027 182.005971 
L 261.94479 183.714349 
L 264.928553 185.422727 
L 267.912315 187.131104 
L 270.896078 188.839482 
L 273.879841 190.54786 
L 276.863603 192.256237 
L 279.847366 193.964615 
L 282.831128 195.672993 
L 285.814891 197.38137 
L 288.798654 199.089748 
L 291.782416 200.798126 
L 294.766179 202.506503 
L 297.749942 204.214881 
L 300.733704 205.923259 
L 303.717467 207.631636 
L 306.701229 209.340014 
L 309.684992 211.048392 
L 312.668755 212.756769 
L 315.652517 214.465147 
L 318.63628 216.173525 
L 321.620043 217.881902 
L 324.603805 219.59028 
L 327.587568 221.298658 
L 330.57133 223.007035 
L 333.555093 224.715413 
L 336.538856 226.423791 
L 339.522618 228.132168 
L 342.506381 229.840546 
L 345.490144 231.548924 
L 348.473906 233.257301 
" style="fill:none;stroke:#4c72b0;stroke-linecap:round;stroke-width:2.25;"/>
   </g>
   <g id="patch_3">
    <path d="M 53.081406 321.715595 
L 53.081406 10.524729 
" style="fill:none;stroke:#262626;stroke-linecap:square;stroke-linejoin:miter;stroke-width:1.25;"/>
   </g>
   <g id="patch_4">
    <path d="M 53.081406 321.715595 
L 348.473906 321.715595 
" style="fill:none;stroke:#262626;stroke-linecap:square;stroke-linejoin:miter;stroke-width:1.25;"/>
   </g>
  </g>
 </g>
 <defs>
  <clipPath id="p10b5c03cf3">
   <rect height="311.190867" width="295.3925" x="53.081406" y="10.524729"/>
  </clipPath>
 </defs>
</svg>
