<?xml version="1.0" encoding="utf-8" standalone="no"?>
<!DOCTYPE svg PUBLIC "-//W3C//DTD SVG 1.1//EN"
  "http://www.w3.org/Graphics/SVG/1.1/DTD/svg11.dtd">
<!-- Created with matplotlib (https://matplotlib.org/) -->
<svg height="363.447087pt" version="1.1" viewBox="0 0 363.318906 363.447087" width="363.318906pt" xmlns="http://www.w3.org/2000/svg" xmlns:xlink="http://www.w3.org/1999/xlink">
 <metadata>
  <rdf:RDF xmlns:cc="http://creativecommons.org/ns#" xmlns:dc="http://purl.org/dc/elements/1.1/" xmlns:rdf="http://www.w3.org/1999/02/22-rdf-syntax-ns#">
   <cc:Work>
    <dc:type rdf:resource="http://purl.org/dc/dcmitype/StillImage"/>
    <dc:date>2021-03-11T19:31:02.011204</dc:date>
    <dc:format>image/svg+xml</dc:format>
    <dc:creator>
     <cc:Agent>
      <dc:title>Matplotlib v3.3.2, https://matplotlib.org/</dc:title>
     </cc:Agent>
    </dc:creator>
   </cc:Work>
  </rdf:RDF>
 </metadata>
 <defs>
  <style type="text/css">*{stroke-linecap:butt;stroke-linejoin:round;}</style>
 </defs>
 <g id="figure_1">
  <g id="patch_1">
   <path d="M 0 363.447087 
L 363.318906 363.447087 
L 363.318906 0 
L 0 0 
z
" style="fill:#ffffff;"/>
  </g>
  <g id="axes_1">
   <g id="patch_2">
    <path d="M 53.081406 321.712868 
L 348.473906 321.712868 
L 348.473906 10.028278 
L 53.081406 10.028278 
z
" style="fill:#ffffff;"/>
   </g>
   <g id="matplotlib.axis_1">
    <g id="xtick_1">
     <g id="line2d_1">
      <defs>
       <path d="M 0 0 
L 0 6 
" id="m3eda6fa260" style="stroke:#262626;stroke-width:1.25;"/>
      </defs>
      <g>
       <use style="fill:#262626;stroke:#262626;stroke-width:1.25;" x="53.081406" xlink:href="#m3eda6fa260" y="321.712868"/>
      </g>
     </g>
     <g id="text_1">
      <!-- 1.0 -->
      <g style="fill:#262626;" transform="translate(45.436406 339.086462)scale(0.11 -0.11)">
       <defs>
        <path d="M 37.25 0 
L 28.46875 0 
L 28.46875 56 
Q 25.296875 52.984375 20.140625 49.953125 
Q 14.984375 46.921875 10.890625 45.40625 
L 10.890625 53.90625 
Q 18.265625 57.375 23.78125 62.296875 
Q 29.296875 67.234375 31.59375 71.875 
L 37.25 71.875 
z
" id="ArialMT-49"/>
        <path d="M 9.078125 0 
L 9.078125 10.015625 
L 19.09375 10.015625 
L 19.09375 0 
z
" id="ArialMT-46"/>
        <path d="M 4.15625 35.296875 
Q 4.15625 48 6.765625 55.734375 
Q 9.375 63.484375 14.515625 67.671875 
Q 19.671875 71.875 27.484375 71.875 
Q 33.25 71.875 37.59375 69.546875 
Q 41.9375 67.234375 44.765625 62.859375 
Q 47.609375 58.5 49.21875 52.21875 
Q 50.828125 45.953125 50.828125 35.296875 
Q 50.828125 22.703125 48.234375 14.96875 
Q 45.65625 7.234375 40.5 3 
Q 35.359375 -1.21875 27.484375 -1.21875 
Q 17.140625 -1.21875 11.234375 6.203125 
Q 4.15625 15.140625 4.15625 35.296875 
z
M 13.1875 35.296875 
Q 13.1875 17.671875 17.3125 11.828125 
Q 21.4375 6 27.484375 6 
Q 33.546875 6 37.671875 11.859375 
Q 41.796875 17.71875 41.796875 35.296875 
Q 41.796875 52.984375 37.671875 58.78125 
Q 33.546875 64.59375 27.390625 64.59375 
Q 21.34375 64.59375 17.71875 59.46875 
Q 13.1875 52.9375 13.1875 35.296875 
z
" id="ArialMT-48"/>
       </defs>
       <use xlink:href="#ArialMT-49"/>
       <use x="55.615234" xlink:href="#ArialMT-46"/>
       <use x="83.398438" xlink:href="#ArialMT-48"/>
      </g>
     </g>
    </g>
    <g id="xtick_2">
     <g id="line2d_2">
      <g>
       <use style="fill:#262626;stroke:#262626;stroke-width:1.25;" x="90.005469" xlink:href="#m3eda6fa260" y="321.712868"/>
      </g>
     </g>
     <g id="text_2">
      <!-- 1.5 -->
      <g style="fill:#262626;" transform="translate(82.360469 339.086462)scale(0.11 -0.11)">
       <defs>
        <path d="M 4.15625 18.75 
L 13.375 19.53125 
Q 14.40625 12.796875 18.140625 9.390625 
Q 21.875 6 27.15625 6 
Q 33.5 6 37.890625 10.78125 
Q 42.28125 15.578125 42.28125 23.484375 
Q 42.28125 31 38.0625 35.34375 
Q 33.84375 39.703125 27 39.703125 
Q 22.75 39.703125 19.328125 37.765625 
Q 15.921875 35.84375 13.96875 32.765625 
L 5.71875 33.84375 
L 12.640625 70.609375 
L 48.25 70.609375 
L 48.25 62.203125 
L 19.671875 62.203125 
L 15.828125 42.96875 
Q 22.265625 47.46875 29.34375 47.46875 
Q 38.71875 47.46875 45.15625 40.96875 
Q 51.609375 34.46875 51.609375 24.265625 
Q 51.609375 14.546875 45.953125 7.46875 
Q 39.0625 -1.21875 27.15625 -1.21875 
Q 17.390625 -1.21875 11.203125 4.25 
Q 5.03125 9.71875 4.15625 18.75 
z
" id="ArialMT-53"/>
       </defs>
       <use xlink:href="#ArialMT-49"/>
       <use x="55.615234" xlink:href="#ArialMT-46"/>
       <use x="83.398438" xlink:href="#ArialMT-53"/>
      </g>
     </g>
    </g>
    <g id="xtick_3">
     <g id="line2d_3">
      <g>
       <use style="fill:#262626;stroke:#262626;stroke-width:1.25;" x="126.929531" xlink:href="#m3eda6fa260" y="321.712868"/>
      </g>
     </g>
     <g id="text_3">
      <!-- 2.0 -->
      <g style="fill:#262626;" transform="translate(119.284531 339.086462)scale(0.11 -0.11)">
       <defs>
        <path d="M 50.34375 8.453125 
L 50.34375 0 
L 3.03125 0 
Q 2.9375 3.171875 4.046875 6.109375 
Q 5.859375 10.9375 9.828125 15.625 
Q 13.8125 20.3125 21.34375 26.46875 
Q 33.015625 36.03125 37.109375 41.625 
Q 41.21875 47.21875 41.21875 52.203125 
Q 41.21875 57.421875 37.46875 61 
Q 33.734375 64.59375 27.734375 64.59375 
Q 21.390625 64.59375 17.578125 60.78125 
Q 13.765625 56.984375 13.71875 50.25 
L 4.6875 51.171875 
Q 5.609375 61.28125 11.65625 66.578125 
Q 17.71875 71.875 27.9375 71.875 
Q 38.234375 71.875 44.234375 66.15625 
Q 50.25 60.453125 50.25 52 
Q 50.25 47.703125 48.484375 43.546875 
Q 46.734375 39.40625 42.65625 34.8125 
Q 38.578125 30.21875 29.109375 22.21875 
Q 21.1875 15.578125 18.9375 13.203125 
Q 16.703125 10.84375 15.234375 8.453125 
z
" id="ArialMT-50"/>
       </defs>
       <use xlink:href="#ArialMT-50"/>
       <use x="55.615234" xlink:href="#ArialMT-46"/>
       <use x="83.398438" xlink:href="#ArialMT-48"/>
      </g>
     </g>
    </g>
    <g id="xtick_4">
     <g id="line2d_4">
      <g>
       <use style="fill:#262626;stroke:#262626;stroke-width:1.25;" x="163.853594" xlink:href="#m3eda6fa260" y="321.712868"/>
      </g>
     </g>
     <g id="text_4">
      <!-- 2.5 -->
      <g style="fill:#262626;" transform="translate(156.208594 339.086462)scale(0.11 -0.11)">
       <use xlink:href="#ArialMT-50"/>
       <use x="55.615234" xlink:href="#ArialMT-46"/>
       <use x="83.398438" xlink:href="#ArialMT-53"/>
      </g>
     </g>
    </g>
    <g id="xtick_5">
     <g id="line2d_5">
      <g>
       <use style="fill:#262626;stroke:#262626;stroke-width:1.25;" x="200.777656" xlink:href="#m3eda6fa260" y="321.712868"/>
      </g>
     </g>
     <g id="text_5">
      <!-- 3.0 -->
      <g style="fill:#262626;" transform="translate(193.132656 339.086462)scale(0.11 -0.11)">
       <defs>
        <path d="M 4.203125 18.890625 
L 12.984375 20.0625 
Q 14.5 12.59375 18.140625 9.296875 
Q 21.78125 6 27 6 
Q 33.203125 6 37.46875 10.296875 
Q 41.75 14.59375 41.75 20.953125 
Q 41.75 27 37.796875 30.921875 
Q 33.84375 34.859375 27.734375 34.859375 
Q 25.25 34.859375 21.53125 33.890625 
L 22.515625 41.609375 
Q 23.390625 41.5 23.921875 41.5 
Q 29.546875 41.5 34.03125 44.421875 
Q 38.53125 47.359375 38.53125 53.46875 
Q 38.53125 58.296875 35.25 61.46875 
Q 31.984375 64.65625 26.8125 64.65625 
Q 21.6875 64.65625 18.265625 61.421875 
Q 14.84375 58.203125 13.875 51.765625 
L 5.078125 53.328125 
Q 6.6875 62.15625 12.390625 67.015625 
Q 18.109375 71.875 26.609375 71.875 
Q 32.46875 71.875 37.390625 69.359375 
Q 42.328125 66.84375 44.9375 62.5 
Q 47.5625 58.15625 47.5625 53.265625 
Q 47.5625 48.640625 45.0625 44.828125 
Q 42.578125 41.015625 37.703125 38.765625 
Q 44.046875 37.3125 47.5625 32.6875 
Q 51.078125 28.078125 51.078125 21.140625 
Q 51.078125 11.765625 44.234375 5.25 
Q 37.40625 -1.265625 26.953125 -1.265625 
Q 17.53125 -1.265625 11.296875 4.34375 
Q 5.078125 9.96875 4.203125 18.890625 
z
" id="ArialMT-51"/>
       </defs>
       <use xlink:href="#ArialMT-51"/>
       <use x="55.615234" xlink:href="#ArialMT-46"/>
       <use x="83.398438" xlink:href="#ArialMT-48"/>
      </g>
     </g>
    </g>
    <g id="xtick_6">
     <g id="line2d_6">
      <g>
       <use style="fill:#262626;stroke:#262626;stroke-width:1.25;" x="237.701719" xlink:href="#m3eda6fa260" y="321.712868"/>
      </g>
     </g>
     <g id="text_6">
      <!-- 3.5 -->
      <g style="fill:#262626;" transform="translate(230.056719 339.086462)scale(0.11 -0.11)">
       <use xlink:href="#ArialMT-51"/>
       <use x="55.615234" xlink:href="#ArialMT-46"/>
       <use x="83.398438" xlink:href="#ArialMT-53"/>
      </g>
     </g>
    </g>
    <g id="xtick_7">
     <g id="line2d_7">
      <g>
       <use style="fill:#262626;stroke:#262626;stroke-width:1.25;" x="274.625781" xlink:href="#m3eda6fa260" y="321.712868"/>
      </g>
     </g>
     <g id="text_7">
      <!-- 4.0 -->
      <g style="fill:#262626;" transform="translate(266.980781 339.086462)scale(0.11 -0.11)">
       <defs>
        <path d="M 32.328125 0 
L 32.328125 17.140625 
L 1.265625 17.140625 
L 1.265625 25.203125 
L 33.9375 71.578125 
L 41.109375 71.578125 
L 41.109375 25.203125 
L 50.78125 25.203125 
L 50.78125 17.140625 
L 41.109375 17.140625 
L 41.109375 0 
z
M 32.328125 25.203125 
L 32.328125 57.46875 
L 9.90625 25.203125 
z
" id="ArialMT-52"/>
       </defs>
       <use xlink:href="#ArialMT-52"/>
       <use x="55.615234" xlink:href="#ArialMT-46"/>
       <use x="83.398438" xlink:href="#ArialMT-48"/>
      </g>
     </g>
    </g>
    <g id="xtick_8">
     <g id="line2d_8">
      <g>
       <use style="fill:#262626;stroke:#262626;stroke-width:1.25;" x="311.549844" xlink:href="#m3eda6fa260" y="321.712868"/>
      </g>
     </g>
     <g id="text_8">
      <!-- 4.5 -->
      <g style="fill:#262626;" transform="translate(303.904844 339.086462)scale(0.11 -0.11)">
       <use xlink:href="#ArialMT-52"/>
       <use x="55.615234" xlink:href="#ArialMT-46"/>
       <use x="83.398438" xlink:href="#ArialMT-53"/>
      </g>
     </g>
    </g>
    <g id="xtick_9">
     <g id="line2d_9">
      <g>
       <use style="fill:#262626;stroke:#262626;stroke-width:1.25;" x="348.473906" xlink:href="#m3eda6fa260" y="321.712868"/>
      </g>
     </g>
     <g id="text_9">
      <!-- 5.0 -->
      <g style="fill:#262626;" transform="translate(340.828906 339.086462)scale(0.11 -0.11)">
       <use xlink:href="#ArialMT-53"/>
       <use x="55.615234" xlink:href="#ArialMT-46"/>
       <use x="83.398438" xlink:href="#ArialMT-48"/>
      </g>
     </g>
    </g>
    <g id="text_10">
     <!-- l14d -->
     <g style="fill:#262626;" transform="translate(189.434844 353.862087)scale(0.12 -0.12)">
      <defs>
       <path d="M 6.390625 0 
L 6.390625 71.578125 
L 15.1875 71.578125 
L 15.1875 0 
z
" id="ArialMT-108"/>
       <path d="M 40.234375 0 
L 40.234375 6.546875 
Q 35.296875 -1.171875 25.734375 -1.171875 
Q 19.53125 -1.171875 14.328125 2.25 
Q 9.125 5.671875 6.265625 11.796875 
Q 3.421875 17.921875 3.421875 25.875 
Q 3.421875 33.640625 6 39.96875 
Q 8.59375 46.296875 13.765625 49.65625 
Q 18.953125 53.03125 25.34375 53.03125 
Q 30.03125 53.03125 33.6875 51.046875 
Q 37.359375 49.078125 39.65625 45.90625 
L 39.65625 71.578125 
L 48.390625 71.578125 
L 48.390625 0 
z
M 12.453125 25.875 
Q 12.453125 15.921875 16.640625 10.984375 
Q 20.84375 6.0625 26.5625 6.0625 
Q 32.328125 6.0625 36.34375 10.765625 
Q 40.375 15.484375 40.375 25.140625 
Q 40.375 35.796875 36.265625 40.765625 
Q 32.171875 45.75 26.171875 45.75 
Q 20.3125 45.75 16.375 40.96875 
Q 12.453125 36.1875 12.453125 25.875 
z
" id="ArialMT-100"/>
      </defs>
      <use xlink:href="#ArialMT-108"/>
      <use x="22.216797" xlink:href="#ArialMT-49"/>
      <use x="77.832031" xlink:href="#ArialMT-52"/>
      <use x="133.447266" xlink:href="#ArialMT-100"/>
     </g>
    </g>
   </g>
   <g id="matplotlib.axis_2">
    <g id="ytick_1">
     <g id="line2d_10">
      <defs>
       <path d="M 0 0 
L -6 0 
" id="m9a1885794c" style="stroke:#262626;stroke-width:1.25;"/>
      </defs>
      <g>
       <use style="fill:#262626;stroke:#262626;stroke-width:1.25;" x="53.081406" xlink:href="#m9a1885794c" y="290.848814"/>
      </g>
     </g>
     <g id="text_11">
      <!-- 14.5 -->
      <g style="fill:#262626;" transform="translate(22.174375 294.785611)scale(0.11 -0.11)">
       <use xlink:href="#ArialMT-49"/>
       <use x="55.615234" xlink:href="#ArialMT-52"/>
       <use x="111.230469" xlink:href="#ArialMT-46"/>
       <use x="139.013672" xlink:href="#ArialMT-53"/>
      </g>
     </g>
    </g>
    <g id="ytick_2">
     <g id="line2d_11">
      <g>
       <use style="fill:#262626;stroke:#262626;stroke-width:1.25;" x="53.081406" xlink:href="#m9a1885794c" y="250.889954"/>
      </g>
     </g>
     <g id="text_12">
      <!-- 15.0 -->
      <g style="fill:#262626;" transform="translate(22.174375 254.826751)scale(0.11 -0.11)">
       <use xlink:href="#ArialMT-49"/>
       <use x="55.615234" xlink:href="#ArialMT-53"/>
       <use x="111.230469" xlink:href="#ArialMT-46"/>
       <use x="139.013672" xlink:href="#ArialMT-48"/>
      </g>
     </g>
    </g>
    <g id="ytick_3">
     <g id="line2d_12">
      <g>
       <use style="fill:#262626;stroke:#262626;stroke-width:1.25;" x="53.081406" xlink:href="#m9a1885794c" y="210.931095"/>
      </g>
     </g>
     <g id="text_13">
      <!-- 15.5 -->
      <g style="fill:#262626;" transform="translate(22.174375 214.867891)scale(0.11 -0.11)">
       <use xlink:href="#ArialMT-49"/>
       <use x="55.615234" xlink:href="#ArialMT-53"/>
       <use x="111.230469" xlink:href="#ArialMT-46"/>
       <use x="139.013672" xlink:href="#ArialMT-53"/>
      </g>
     </g>
    </g>
    <g id="ytick_4">
     <g id="line2d_13">
      <g>
       <use style="fill:#262626;stroke:#262626;stroke-width:1.25;" x="53.081406" xlink:href="#m9a1885794c" y="170.972235"/>
      </g>
     </g>
     <g id="text_14">
      <!-- 16.0 -->
      <g style="fill:#262626;" transform="translate(22.174375 174.909032)scale(0.11 -0.11)">
       <defs>
        <path d="M 49.75 54.046875 
L 41.015625 53.375 
Q 39.84375 58.546875 37.703125 60.890625 
Q 34.125 64.65625 28.90625 64.65625 
Q 24.703125 64.65625 21.53125 62.3125 
Q 17.390625 59.28125 14.984375 53.46875 
Q 12.59375 47.65625 12.5 36.921875 
Q 15.671875 41.75 20.265625 44.09375 
Q 24.859375 46.4375 29.890625 46.4375 
Q 38.671875 46.4375 44.84375 39.96875 
Q 51.03125 33.5 51.03125 23.25 
Q 51.03125 16.5 48.125 10.71875 
Q 45.21875 4.9375 40.140625 1.859375 
Q 35.0625 -1.21875 28.609375 -1.21875 
Q 17.625 -1.21875 10.6875 6.859375 
Q 3.765625 14.9375 3.765625 33.5 
Q 3.765625 54.25 11.421875 63.671875 
Q 18.109375 71.875 29.4375 71.875 
Q 37.890625 71.875 43.28125 67.140625 
Q 48.6875 62.40625 49.75 54.046875 
z
M 13.875 23.1875 
Q 13.875 18.65625 15.796875 14.5 
Q 17.71875 10.359375 21.1875 8.171875 
Q 24.65625 6 28.46875 6 
Q 34.03125 6 38.03125 10.484375 
Q 42.046875 14.984375 42.046875 22.703125 
Q 42.046875 30.125 38.078125 34.390625 
Q 34.125 38.671875 28.125 38.671875 
Q 22.171875 38.671875 18.015625 34.390625 
Q 13.875 30.125 13.875 23.1875 
z
" id="ArialMT-54"/>
       </defs>
       <use xlink:href="#ArialMT-49"/>
       <use x="55.615234" xlink:href="#ArialMT-54"/>
       <use x="111.230469" xlink:href="#ArialMT-46"/>
       <use x="139.013672" xlink:href="#ArialMT-48"/>
      </g>
     </g>
    </g>
    <g id="ytick_5">
     <g id="line2d_14">
      <g>
       <use style="fill:#262626;stroke:#262626;stroke-width:1.25;" x="53.081406" xlink:href="#m9a1885794c" y="131.013376"/>
      </g>
     </g>
     <g id="text_15">
      <!-- 16.5 -->
      <g style="fill:#262626;" transform="translate(22.174375 134.950172)scale(0.11 -0.11)">
       <use xlink:href="#ArialMT-49"/>
       <use x="55.615234" xlink:href="#ArialMT-54"/>
       <use x="111.230469" xlink:href="#ArialMT-46"/>
       <use x="139.013672" xlink:href="#ArialMT-53"/>
      </g>
     </g>
    </g>
    <g id="ytick_6">
     <g id="line2d_15">
      <g>
       <use style="fill:#262626;stroke:#262626;stroke-width:1.25;" x="53.081406" xlink:href="#m9a1885794c" y="91.054516"/>
      </g>
     </g>
     <g id="text_16">
      <!-- 17.0 -->
      <g style="fill:#262626;" transform="translate(22.174375 94.991313)scale(0.11 -0.11)">
       <defs>
        <path d="M 4.734375 62.203125 
L 4.734375 70.65625 
L 51.078125 70.65625 
L 51.078125 63.8125 
Q 44.234375 56.546875 37.515625 44.484375 
Q 30.8125 32.421875 27.15625 19.671875 
Q 24.515625 10.6875 23.78125 0 
L 14.75 0 
Q 14.890625 8.453125 18.0625 20.40625 
Q 21.234375 32.375 27.171875 43.484375 
Q 33.109375 54.59375 39.796875 62.203125 
z
" id="ArialMT-55"/>
       </defs>
       <use xlink:href="#ArialMT-49"/>
       <use x="55.615234" xlink:href="#ArialMT-55"/>
       <use x="111.230469" xlink:href="#ArialMT-46"/>
       <use x="139.013672" xlink:href="#ArialMT-48"/>
      </g>
     </g>
    </g>
    <g id="ytick_7">
     <g id="line2d_16">
      <g>
       <use style="fill:#262626;stroke:#262626;stroke-width:1.25;" x="53.081406" xlink:href="#m9a1885794c" y="51.095656"/>
      </g>
     </g>
     <g id="text_17">
      <!-- 17.5 -->
      <g style="fill:#262626;" transform="translate(22.174375 55.032453)scale(0.11 -0.11)">
       <use xlink:href="#ArialMT-49"/>
       <use x="55.615234" xlink:href="#ArialMT-55"/>
       <use x="111.230469" xlink:href="#ArialMT-46"/>
       <use x="139.013672" xlink:href="#ArialMT-53"/>
      </g>
     </g>
    </g>
    <g id="ytick_8">
     <g id="line2d_17">
      <g>
       <use style="fill:#262626;stroke:#262626;stroke-width:1.25;" x="53.081406" xlink:href="#m9a1885794c" y="11.136797"/>
      </g>
     </g>
     <g id="text_18">
      <!-- 18.0 -->
      <g style="fill:#262626;" transform="translate(22.174375 15.073594)scale(0.11 -0.11)">
       <defs>
        <path d="M 17.671875 38.8125 
Q 12.203125 40.828125 9.5625 44.53125 
Q 6.9375 48.25 6.9375 53.421875 
Q 6.9375 61.234375 12.546875 66.546875 
Q 18.171875 71.875 27.484375 71.875 
Q 36.859375 71.875 42.578125 66.421875 
Q 48.296875 60.984375 48.296875 53.171875 
Q 48.296875 48.1875 45.671875 44.5 
Q 43.0625 40.828125 37.75 38.8125 
Q 44.34375 36.671875 47.78125 31.875 
Q 51.21875 27.09375 51.21875 20.453125 
Q 51.21875 11.28125 44.71875 5.03125 
Q 38.234375 -1.21875 27.640625 -1.21875 
Q 17.046875 -1.21875 10.546875 5.046875 
Q 4.046875 11.328125 4.046875 20.703125 
Q 4.046875 27.6875 7.59375 32.390625 
Q 11.140625 37.109375 17.671875 38.8125 
z
M 15.921875 53.71875 
Q 15.921875 48.640625 19.1875 45.40625 
Q 22.46875 42.1875 27.6875 42.1875 
Q 32.765625 42.1875 36.015625 45.375 
Q 39.265625 48.578125 39.265625 53.21875 
Q 39.265625 58.0625 35.90625 61.359375 
Q 32.5625 64.65625 27.59375 64.65625 
Q 22.5625 64.65625 19.234375 61.421875 
Q 15.921875 58.203125 15.921875 53.71875 
z
M 13.09375 20.65625 
Q 13.09375 16.890625 14.875 13.375 
Q 16.65625 9.859375 20.171875 7.921875 
Q 23.6875 6 27.734375 6 
Q 34.03125 6 38.125 10.046875 
Q 42.234375 14.109375 42.234375 20.359375 
Q 42.234375 26.703125 38.015625 30.859375 
Q 33.796875 35.015625 27.4375 35.015625 
Q 21.234375 35.015625 17.15625 30.90625 
Q 13.09375 26.8125 13.09375 20.65625 
z
" id="ArialMT-56"/>
       </defs>
       <use xlink:href="#ArialMT-49"/>
       <use x="55.615234" xlink:href="#ArialMT-56"/>
       <use x="111.230469" xlink:href="#ArialMT-46"/>
       <use x="139.013672" xlink:href="#ArialMT-48"/>
      </g>
     </g>
    </g>
    <g id="text_19">
     <!-- score -->
     <g style="fill:#262626;" transform="translate(15.789375 180.541511)rotate(-90)scale(0.12 -0.12)">
      <defs>
       <path d="M 3.078125 15.484375 
L 11.765625 16.84375 
Q 12.5 11.625 15.84375 8.84375 
Q 19.1875 6.0625 25.203125 6.0625 
Q 31.25 6.0625 34.171875 8.515625 
Q 37.109375 10.984375 37.109375 14.3125 
Q 37.109375 17.28125 34.515625 19 
Q 32.71875 20.171875 25.53125 21.96875 
Q 15.875 24.421875 12.140625 26.203125 
Q 8.40625 27.984375 6.46875 31.125 
Q 4.546875 34.28125 4.546875 38.09375 
Q 4.546875 41.546875 6.125 44.5 
Q 7.71875 47.46875 10.453125 49.421875 
Q 12.5 50.921875 16.03125 51.96875 
Q 19.578125 53.03125 23.640625 53.03125 
Q 29.734375 53.03125 34.34375 51.265625 
Q 38.96875 49.515625 41.15625 46.5 
Q 43.359375 43.5 44.1875 38.484375 
L 35.59375 37.3125 
Q 35.015625 41.3125 32.203125 43.546875 
Q 29.390625 45.796875 24.265625 45.796875 
Q 18.21875 45.796875 15.625 43.796875 
Q 13.03125 41.796875 13.03125 39.109375 
Q 13.03125 37.40625 14.109375 36.03125 
Q 15.1875 34.625 17.484375 33.6875 
Q 18.796875 33.203125 25.25 31.453125 
Q 34.578125 28.953125 38.25 27.359375 
Q 41.9375 25.78125 44.03125 22.75 
Q 46.140625 19.734375 46.140625 15.234375 
Q 46.140625 10.84375 43.578125 6.953125 
Q 41.015625 3.078125 36.171875 0.953125 
Q 31.34375 -1.171875 25.25 -1.171875 
Q 15.140625 -1.171875 9.84375 3.03125 
Q 4.546875 7.234375 3.078125 15.484375 
z
" id="ArialMT-115"/>
       <path d="M 40.4375 19 
L 49.078125 17.875 
Q 47.65625 8.9375 41.8125 3.875 
Q 35.984375 -1.171875 27.484375 -1.171875 
Q 16.84375 -1.171875 10.375 5.78125 
Q 3.90625 12.75 3.90625 25.734375 
Q 3.90625 34.125 6.6875 40.421875 
Q 9.46875 46.734375 15.15625 49.875 
Q 20.84375 53.03125 27.546875 53.03125 
Q 35.984375 53.03125 41.359375 48.75 
Q 46.734375 44.484375 48.25 36.625 
L 39.703125 35.296875 
Q 38.484375 40.53125 35.375 43.15625 
Q 32.28125 45.796875 27.875 45.796875 
Q 21.234375 45.796875 17.078125 41.03125 
Q 12.9375 36.28125 12.9375 25.984375 
Q 12.9375 15.53125 16.9375 10.796875 
Q 20.953125 6.0625 27.390625 6.0625 
Q 32.5625 6.0625 36.03125 9.234375 
Q 39.5 12.40625 40.4375 19 
z
" id="ArialMT-99"/>
       <path d="M 3.328125 25.921875 
Q 3.328125 40.328125 11.328125 47.265625 
Q 18.015625 53.03125 27.640625 53.03125 
Q 38.328125 53.03125 45.109375 46.015625 
Q 51.90625 39.015625 51.90625 26.65625 
Q 51.90625 16.65625 48.90625 10.90625 
Q 45.90625 5.171875 40.15625 2 
Q 34.421875 -1.171875 27.640625 -1.171875 
Q 16.75 -1.171875 10.03125 5.8125 
Q 3.328125 12.796875 3.328125 25.921875 
z
M 12.359375 25.921875 
Q 12.359375 15.96875 16.703125 11.015625 
Q 21.046875 6.0625 27.640625 6.0625 
Q 34.1875 6.0625 38.53125 11.03125 
Q 42.875 16.015625 42.875 26.21875 
Q 42.875 35.84375 38.5 40.796875 
Q 34.125 45.75 27.640625 45.75 
Q 21.046875 45.75 16.703125 40.8125 
Q 12.359375 35.890625 12.359375 25.921875 
z
" id="ArialMT-111"/>
       <path d="M 6.5 0 
L 6.5 51.859375 
L 14.40625 51.859375 
L 14.40625 44 
Q 17.4375 49.515625 20 51.265625 
Q 22.5625 53.03125 25.640625 53.03125 
Q 30.078125 53.03125 34.671875 50.203125 
L 31.640625 42.046875 
Q 28.421875 43.953125 25.203125 43.953125 
Q 22.3125 43.953125 20.015625 42.21875 
Q 17.71875 40.484375 16.75 37.40625 
Q 15.28125 32.71875 15.28125 27.15625 
L 15.28125 0 
z
" id="ArialMT-114"/>
       <path d="M 42.09375 16.703125 
L 51.171875 15.578125 
Q 49.03125 7.625 43.21875 3.21875 
Q 37.40625 -1.171875 28.375 -1.171875 
Q 17 -1.171875 10.328125 5.828125 
Q 3.65625 12.84375 3.65625 25.484375 
Q 3.65625 38.578125 10.390625 45.796875 
Q 17.140625 53.03125 27.875 53.03125 
Q 38.28125 53.03125 44.875 45.953125 
Q 51.46875 38.875 51.46875 26.03125 
Q 51.46875 25.25 51.421875 23.6875 
L 12.75 23.6875 
Q 13.234375 15.140625 17.578125 10.59375 
Q 21.921875 6.0625 28.421875 6.0625 
Q 33.25 6.0625 36.671875 8.59375 
Q 40.09375 11.140625 42.09375 16.703125 
z
M 13.234375 30.90625 
L 42.1875 30.90625 
Q 41.609375 37.453125 38.875 40.71875 
Q 34.671875 45.796875 27.984375 45.796875 
Q 21.921875 45.796875 17.796875 41.75 
Q 13.671875 37.703125 13.234375 30.90625 
z
" id="ArialMT-101"/>
      </defs>
      <use xlink:href="#ArialMT-115"/>
      <use x="50" xlink:href="#ArialMT-99"/>
      <use x="100" xlink:href="#ArialMT-111"/>
      <use x="155.615234" xlink:href="#ArialMT-114"/>
      <use x="188.916016" xlink:href="#ArialMT-101"/>
     </g>
    </g>
   </g>
   <g id="PathCollection_1">
    <defs>
     <path d="M 0 3.535534 
C 0.937635 3.535534 1.836992 3.163008 2.5 2.5 
C 3.163008 1.836992 3.535534 0.937635 3.535534 0 
C 3.535534 -0.937635 3.163008 -1.836992 2.5 -2.5 
C 1.836992 -3.163008 0.937635 -3.535534 0 -3.535534 
C -0.937635 -3.535534 -1.836992 -3.163008 -2.5 -2.5 
C -3.163008 -1.836992 -3.535534 -0.937635 -3.535534 0 
C -3.535534 0.937635 -3.163008 1.836992 -2.5 2.5 
C -1.836992 3.163008 -0.937635 3.535534 0 3.535534 
z
" id="mc8ac5960d4" style="stroke:#4c72b0;"/>
    </defs>
    <g clip-path="url(#paede0561f3)">
     <use style="fill:#4c72b0;stroke:#4c72b0;" x="53.081406" xlink:href="#mc8ac5960d4" y="54.44938"/>
     <use style="fill:#4c72b0;stroke:#4c72b0;" x="126.929531" xlink:href="#mc8ac5960d4" y="108.474005"/>
     <use style="fill:#4c72b0;stroke:#4c72b0;" x="200.777656" xlink:href="#mc8ac5960d4" y="150.641937"/>
     <use style="fill:#4c72b0;stroke:#4c72b0;" x="274.625781" xlink:href="#mc8ac5960d4" y="177.97757"/>
     <use style="fill:#4c72b0;stroke:#4c72b0;" x="348.473906" xlink:href="#mc8ac5960d4" y="196.250911"/>
    </g>
   </g>
   <g id="PolyCollection_1">
    <defs>
     <path d="M 53.081406 -321.411815 
L 53.081406 -277.574078 
L 56.065169 -276.373712 
L 59.048932 -275.173869 
L 62.032694 -273.7007 
L 65.016457 -272.311827 
L 68.000219 -271.213833 
L 70.983982 -269.971987 
L 73.967745 -268.634437 
L 76.951507 -267.275525 
L 79.93527 -265.92886 
L 82.919033 -264.731268 
L 85.902795 -263.690345 
L 88.886558 -262.663838 
L 91.87032 -261.368274 
L 94.854083 -260.029245 
L 97.837846 -258.783286 
L 100.821608 -257.315664 
L 103.805371 -255.931211 
L 106.789134 -254.53533 
L 109.772896 -253.267779 
L 112.756659 -251.803345 
L 115.740421 -250.43644 
L 118.724184 -248.793081 
L 121.707947 -247.584829 
L 124.691709 -245.928175 
L 127.675472 -244.568554 
L 130.659235 -243.353679 
L 133.642997 -241.689439 
L 136.62676 -240.0967 
L 139.610522 -238.396717 
L 142.594285 -236.845813 
L 145.578048 -235.296404 
L 148.56181 -233.611562 
L 151.545573 -231.903325 
L 154.529336 -230.102137 
L 157.513098 -228.399278 
L 160.496861 -226.855822 
L 163.480623 -224.968758 
L 166.464386 -223.252423 
L 169.448149 -221.401877 
L 172.431911 -219.311131 
L 175.415674 -217.526564 
L 178.399437 -215.847679 
L 181.383199 -214.193844 
L 184.366962 -212.268399 
L 187.350724 -210.42144 
L 190.334487 -208.478989 
L 193.31825 -206.624901 
L 196.302012 -204.807967 
L 199.285775 -202.692206 
L 202.269538 -200.70155 
L 205.2533 -198.850301 
L 208.237063 -196.997948 
L 211.220825 -195.116983 
L 214.204588 -193.025143 
L 217.188351 -190.979422 
L 220.172113 -189.031208 
L 223.155876 -187.016165 
L 226.139639 -184.666472 
L 229.123401 -182.493352 
L 232.107164 -180.448452 
L 235.090926 -178.350897 
L 238.074689 -176.260604 
L 241.058452 -174.291071 
L 244.042214 -172.32912 
L 247.025977 -170.088106 
L 250.00974 -167.879424 
L 252.993502 -165.687735 
L 255.977265 -163.680728 
L 258.961027 -161.505263 
L 261.94479 -159.355807 
L 264.928553 -157.129487 
L 267.912315 -154.903168 
L 270.896078 -152.67702 
L 273.879841 -150.636844 
L 276.863603 -148.499549 
L 279.847366 -146.439887 
L 282.831128 -144.385525 
L 285.814891 -142.335636 
L 288.798654 -140.278118 
L 291.782416 -138.219211 
L 294.766179 -136.160305 
L 297.749942 -134.102649 
L 300.733704 -132.046443 
L 303.717467 -129.910691 
L 306.701229 -127.731962 
L 309.684992 -125.553233 
L 312.668755 -123.374504 
L 315.652517 -121.197309 
L 318.63628 -119.022147 
L 321.620043 -116.846985 
L 324.603805 -114.671823 
L 327.587568 -112.496661 
L 330.57133 -110.220918 
L 333.555093 -108.065264 
L 336.538856 -105.964983 
L 339.522618 -103.781309 
L 342.506381 -101.549121 
L 345.490144 -99.321018 
L 348.473906 -97.187239 
L 348.473906 -170.389433 
L 348.473906 -170.389433 
L 345.490144 -171.619816 
L 342.506381 -172.850198 
L 339.522618 -174.08058 
L 336.538856 -175.30875 
L 333.555093 -176.457719 
L 330.57133 -177.645522 
L 327.587568 -178.90001 
L 324.603805 -180.136662 
L 321.620043 -181.302944 
L 318.63628 -182.510866 
L 315.652517 -183.746385 
L 312.668755 -184.901372 
L 309.684992 -186.034029 
L 306.701229 -187.163875 
L 303.717467 -188.293721 
L 300.733704 -189.451464 
L 297.749942 -190.704465 
L 294.766179 -191.878739 
L 291.782416 -193.114089 
L 288.798654 -194.343628 
L 285.814891 -195.573167 
L 282.831128 -196.686155 
L 279.847366 -197.809496 
L 276.863603 -199.143877 
L 273.879841 -200.477796 
L 270.896078 -201.619343 
L 267.912315 -202.748666 
L 264.928553 -203.883264 
L 261.94479 -205.067414 
L 258.961027 -206.140036 
L 255.977265 -207.266491 
L 252.993502 -208.259907 
L 250.00974 -209.253323 
L 247.025977 -210.40628 
L 244.042214 -211.660957 
L 241.058452 -213.045663 
L 238.074689 -214.434212 
L 235.090926 -215.815957 
L 232.107164 -217.210656 
L 229.123401 -218.474814 
L 226.139639 -219.91411 
L 223.155876 -220.878661 
L 220.172113 -222.066493 
L 217.188351 -223.392276 
L 214.204588 -224.723798 
L 211.220825 -226.038274 
L 208.237063 -227.385142 
L 205.2533 -228.866578 
L 202.269538 -230.395549 
L 199.285775 -231.573368 
L 196.302012 -232.907624 
L 193.31825 -234.447425 
L 190.334487 -235.884314 
L 187.350724 -237.460633 
L 184.366962 -238.877479 
L 181.383199 -240.466587 
L 178.399437 -241.940861 
L 175.415674 -243.45046 
L 172.431911 -245.032577 
L 169.448149 -246.607546 
L 166.464386 -248.381811 
L 163.480623 -249.876636 
L 160.496861 -251.442312 
L 157.513098 -253.139044 
L 154.529336 -254.789553 
L 151.545573 -256.443721 
L 148.56181 -258.094234 
L 145.578048 -259.746684 
L 142.594285 -261.581563 
L 139.610522 -263.54231 
L 136.62676 -265.476778 
L 133.642997 -267.420914 
L 130.659235 -269.360168 
L 127.675472 -271.293751 
L 124.691709 -273.243645 
L 121.707947 -275.173754 
L 118.724184 -276.965809 
L 115.740421 -278.757565 
L 112.756659 -280.789377 
L 109.772896 -282.862261 
L 106.789134 -284.746546 
L 103.805371 -286.620462 
L 100.821608 -288.777469 
L 97.837846 -290.721222 
L 94.854083 -292.660792 
L 91.87032 -294.79619 
L 88.886558 -296.834414 
L 85.902795 -298.94527 
L 82.919033 -300.989279 
L 79.93527 -302.931315 
L 76.951507 -304.945516 
L 73.967745 -307.228902 
L 70.983982 -309.38493 
L 68.000219 -311.174723 
L 65.016457 -313.044494 
L 62.032694 -315.25472 
L 59.048932 -317.228077 
L 56.065169 -319.323869 
L 53.081406 -321.411815 
z
" id="m8e65945ee2" style="stroke:#ffffff;stroke-opacity:0.15;"/>
    </defs>
    <g clip-path="url(#paede0561f3)">
     <use style="fill:#4c72b0;fill-opacity:0.15;stroke:#ffffff;stroke-opacity:0.15;" x="0" xlink:href="#m8e65945ee2" y="363.447087"/>
    </g>
   </g>
   <g id="line2d_18">
    <path clip-path="url(#paede0561f3)" d="M 53.081406 84.668129 
L 53.081406 24.19576 
" style="fill:none;stroke:#4c72b0;stroke-linecap:round;stroke-width:2.625;"/>
   </g>
   <g id="line2d_19">
    <path clip-path="url(#paede0561f3)" d="M 126.929531 126.894344 
L 126.929531 90.668593 
" style="fill:none;stroke:#4c72b0;stroke-linecap:round;stroke-width:2.625;"/>
   </g>
   <g id="line2d_20">
    <path clip-path="url(#paede0561f3)" d="M 200.777656 172.775331 
L 200.777656 127.796589 
" style="fill:none;stroke:#4c72b0;stroke-linecap:round;stroke-width:2.625;"/>
   </g>
   <g id="line2d_21">
    <path clip-path="url(#paede0561f3)" d="M 274.625781 218.694133 
L 274.625781 137.51011 
" style="fill:none;stroke:#4c72b0;stroke-linecap:round;stroke-width:2.625;"/>
   </g>
   <g id="line2d_22">
    <path clip-path="url(#paede0561f3)" d="M 348.473906 307.545387 
L 348.473906 76.892292 
" style="fill:none;stroke:#4c72b0;stroke-linecap:round;stroke-width:2.625;"/>
   </g>
   <g id="line2d_23">
    <path clip-path="url(#paede0561f3)" d="M 53.081406 63.340764 
L 56.065169 65.023764 
L 59.048932 66.706765 
L 62.032694 68.389766 
L 65.016457 70.072767 
L 68.000219 71.755768 
L 70.983982 73.438768 
L 73.967745 75.121769 
L 76.951507 76.80477 
L 79.93527 78.487771 
L 82.919033 80.170772 
L 85.902795 81.853772 
L 88.886558 83.536773 
L 91.87032 85.219774 
L 94.854083 86.902775 
L 97.837846 88.585776 
L 100.821608 90.268777 
L 103.805371 91.951777 
L 106.789134 93.634778 
L 109.772896 95.317779 
L 112.756659 97.00078 
L 115.740421 98.683781 
L 118.724184 100.366781 
L 121.707947 102.049782 
L 124.691709 103.732783 
L 127.675472 105.415784 
L 130.659235 107.098785 
L 133.642997 108.781785 
L 136.62676 110.464786 
L 139.610522 112.147787 
L 142.594285 113.830788 
L 145.578048 115.513789 
L 148.56181 117.196789 
L 151.545573 118.87979 
L 154.529336 120.562791 
L 157.513098 122.245792 
L 160.496861 123.928793 
L 163.480623 125.611793 
L 166.464386 127.294794 
L 169.448149 128.977795 
L 172.431911 130.660796 
L 175.415674 132.343797 
L 178.399437 134.026797 
L 181.383199 135.709798 
L 184.366962 137.392799 
L 187.350724 139.0758 
L 190.334487 140.758801 
L 193.31825 142.441801 
L 196.302012 144.124802 
L 199.285775 145.807803 
L 202.269538 147.490804 
L 205.2533 149.173805 
L 208.237063 150.856805 
L 211.220825 152.539806 
L 214.204588 154.222807 
L 217.188351 155.905808 
L 220.172113 157.588809 
L 223.155876 159.271809 
L 226.139639 160.95481 
L 229.123401 162.637811 
L 232.107164 164.320812 
L 235.090926 166.003813 
L 238.074689 167.686813 
L 241.058452 169.369814 
L 244.042214 171.052815 
L 247.025977 172.735816 
L 250.00974 174.418817 
L 252.993502 176.101817 
L 255.977265 177.784818 
L 258.961027 179.467819 
L 261.94479 181.15082 
L 264.928553 182.833821 
L 267.912315 184.516821 
L 270.896078 186.199822 
L 273.879841 187.882823 
L 276.863603 189.565824 
L 279.847366 191.248825 
L 282.831128 192.931825 
L 285.814891 194.614826 
L 288.798654 196.297827 
L 291.782416 197.980828 
L 294.766179 199.663829 
L 297.749942 201.346829 
L 300.733704 203.02983 
L 303.717467 204.712831 
L 306.701229 206.395832 
L 309.684992 208.078833 
L 312.668755 209.761833 
L 315.652517 211.444834 
L 318.63628 213.127835 
L 321.620043 214.810836 
L 324.603805 216.493837 
L 327.587568 218.176837 
L 330.57133 219.859838 
L 333.555093 221.542839 
L 336.538856 223.22584 
L 339.522618 224.908841 
L 342.506381 226.591841 
L 345.490144 228.274842 
L 348.473906 229.957843 
" style="fill:none;stroke:#4c72b0;stroke-linecap:round;stroke-width:2.25;"/>
   </g>
   <g id="patch_3">
    <path d="M 53.081406 321.712868 
L 53.081406 10.028278 
" style="fill:none;stroke:#262626;stroke-linecap:square;stroke-linejoin:miter;stroke-width:1.25;"/>
   </g>
   <g id="patch_4">
    <path d="M 53.081406 321.712868 
L 348.473906 321.712868 
" style="fill:none;stroke:#262626;stroke-linecap:square;stroke-linejoin:miter;stroke-width:1.25;"/>
   </g>
  </g>
 </g>
 <defs>
  <clipPath id="paede0561f3">
   <rect height="311.68459" width="295.3925" x="53.081406" y="10.028278"/>
  </clipPath>
 </defs>
</svg>
