<?xml version="1.0" encoding="utf-8" standalone="no"?>
<!DOCTYPE svg PUBLIC "-//W3C//DTD SVG 1.1//EN"
  "http://www.w3.org/Graphics/SVG/1.1/DTD/svg11.dtd">
<!-- Created with matplotlib (https://matplotlib.org/) -->
<svg height="363.412794pt" version="1.1" viewBox="0 0 363.318906 363.412794" width="363.318906pt" xmlns="http://www.w3.org/2000/svg" xmlns:xlink="http://www.w3.org/1999/xlink">
 <metadata>
  <rdf:RDF xmlns:cc="http://creativecommons.org/ns#" xmlns:dc="http://purl.org/dc/elements/1.1/" xmlns:rdf="http://www.w3.org/1999/02/22-rdf-syntax-ns#">
   <cc:Work>
    <dc:type rdf:resource="http://purl.org/dc/dcmitype/StillImage"/>
    <dc:date>2021-03-10T10:49:41.459247</dc:date>
    <dc:format>image/svg+xml</dc:format>
    <dc:creator>
     <cc:Agent>
      <dc:title>Matplotlib v3.3.2, https://matplotlib.org/</dc:title>
     </cc:Agent>
    </dc:creator>
   </cc:Work>
  </rdf:RDF>
 </metadata>
 <defs>
  <style type="text/css">*{stroke-linecap:butt;stroke-linejoin:round;}</style>
 </defs>
 <g id="figure_1">
  <g id="patch_1">
   <path d="M 0 363.412794 
L 363.318906 363.412794 
L 363.318906 0 
L 0 0 
z
" style="fill:#ffffff;"/>
  </g>
  <g id="axes_1">
   <g id="patch_2">
    <path d="M 53.081406 321.678576 
L 348.473906 321.678576 
L 348.473906 7.653184 
L 53.081406 7.653184 
z
" style="fill:#ffffff;"/>
   </g>
   <g id="matplotlib.axis_1">
    <g id="xtick_1">
     <g id="line2d_1">
      <defs>
       <path d="M 0 0 
L 0 6 
" id="m7375028b4a" style="stroke:#262626;stroke-width:1.25;"/>
      </defs>
      <g>
       <use style="fill:#262626;stroke:#262626;stroke-width:1.25;" x="53.081406" xlink:href="#m7375028b4a" y="321.678576"/>
      </g>
     </g>
     <g id="text_1">
      <!-- 1.0 -->
      <g style="fill:#262626;" transform="translate(45.436406 339.052169)scale(0.11 -0.11)">
       <defs>
        <path d="M 37.25 0 
L 28.46875 0 
L 28.46875 56 
Q 25.296875 52.984375 20.140625 49.953125 
Q 14.984375 46.921875 10.890625 45.40625 
L 10.890625 53.90625 
Q 18.265625 57.375 23.78125 62.296875 
Q 29.296875 67.234375 31.59375 71.875 
L 37.25 71.875 
z
" id="ArialMT-49"/>
        <path d="M 9.078125 0 
L 9.078125 10.015625 
L 19.09375 10.015625 
L 19.09375 0 
z
" id="ArialMT-46"/>
        <path d="M 4.15625 35.296875 
Q 4.15625 48 6.765625 55.734375 
Q 9.375 63.484375 14.515625 67.671875 
Q 19.671875 71.875 27.484375 71.875 
Q 33.25 71.875 37.59375 69.546875 
Q 41.9375 67.234375 44.765625 62.859375 
Q 47.609375 58.5 49.21875 52.21875 
Q 50.828125 45.953125 50.828125 35.296875 
Q 50.828125 22.703125 48.234375 14.96875 
Q 45.65625 7.234375 40.5 3 
Q 35.359375 -1.21875 27.484375 -1.21875 
Q 17.140625 -1.21875 11.234375 6.203125 
Q 4.15625 15.140625 4.15625 35.296875 
z
M 13.1875 35.296875 
Q 13.1875 17.671875 17.3125 11.828125 
Q 21.4375 6 27.484375 6 
Q 33.546875 6 37.671875 11.859375 
Q 41.796875 17.71875 41.796875 35.296875 
Q 41.796875 52.984375 37.671875 58.78125 
Q 33.546875 64.59375 27.390625 64.59375 
Q 21.34375 64.59375 17.71875 59.46875 
Q 13.1875 52.9375 13.1875 35.296875 
z
" id="ArialMT-48"/>
       </defs>
       <use xlink:href="#ArialMT-49"/>
       <use x="55.615234" xlink:href="#ArialMT-46"/>
       <use x="83.398438" xlink:href="#ArialMT-48"/>
      </g>
     </g>
    </g>
    <g id="xtick_2">
     <g id="line2d_2">
      <g>
       <use style="fill:#262626;stroke:#262626;stroke-width:1.25;" x="90.005469" xlink:href="#m7375028b4a" y="321.678576"/>
      </g>
     </g>
     <g id="text_2">
      <!-- 1.5 -->
      <g style="fill:#262626;" transform="translate(82.360469 339.052169)scale(0.11 -0.11)">
       <defs>
        <path d="M 4.15625 18.75 
L 13.375 19.53125 
Q 14.40625 12.796875 18.140625 9.390625 
Q 21.875 6 27.15625 6 
Q 33.5 6 37.890625 10.78125 
Q 42.28125 15.578125 42.28125 23.484375 
Q 42.28125 31 38.0625 35.34375 
Q 33.84375 39.703125 27 39.703125 
Q 22.75 39.703125 19.328125 37.765625 
Q 15.921875 35.84375 13.96875 32.765625 
L 5.71875 33.84375 
L 12.640625 70.609375 
L 48.25 70.609375 
L 48.25 62.203125 
L 19.671875 62.203125 
L 15.828125 42.96875 
Q 22.265625 47.46875 29.34375 47.46875 
Q 38.71875 47.46875 45.15625 40.96875 
Q 51.609375 34.46875 51.609375 24.265625 
Q 51.609375 14.546875 45.953125 7.46875 
Q 39.0625 -1.21875 27.15625 -1.21875 
Q 17.390625 -1.21875 11.203125 4.25 
Q 5.03125 9.71875 4.15625 18.75 
z
" id="ArialMT-53"/>
       </defs>
       <use xlink:href="#ArialMT-49"/>
       <use x="55.615234" xlink:href="#ArialMT-46"/>
       <use x="83.398438" xlink:href="#ArialMT-53"/>
      </g>
     </g>
    </g>
    <g id="xtick_3">
     <g id="line2d_3">
      <g>
       <use style="fill:#262626;stroke:#262626;stroke-width:1.25;" x="126.929531" xlink:href="#m7375028b4a" y="321.678576"/>
      </g>
     </g>
     <g id="text_3">
      <!-- 2.0 -->
      <g style="fill:#262626;" transform="translate(119.284531 339.052169)scale(0.11 -0.11)">
       <defs>
        <path d="M 50.34375 8.453125 
L 50.34375 0 
L 3.03125 0 
Q 2.9375 3.171875 4.046875 6.109375 
Q 5.859375 10.9375 9.828125 15.625 
Q 13.8125 20.3125 21.34375 26.46875 
Q 33.015625 36.03125 37.109375 41.625 
Q 41.21875 47.21875 41.21875 52.203125 
Q 41.21875 57.421875 37.46875 61 
Q 33.734375 64.59375 27.734375 64.59375 
Q 21.390625 64.59375 17.578125 60.78125 
Q 13.765625 56.984375 13.71875 50.25 
L 4.6875 51.171875 
Q 5.609375 61.28125 11.65625 66.578125 
Q 17.71875 71.875 27.9375 71.875 
Q 38.234375 71.875 44.234375 66.15625 
Q 50.25 60.453125 50.25 52 
Q 50.25 47.703125 48.484375 43.546875 
Q 46.734375 39.40625 42.65625 34.8125 
Q 38.578125 30.21875 29.109375 22.21875 
Q 21.1875 15.578125 18.9375 13.203125 
Q 16.703125 10.84375 15.234375 8.453125 
z
" id="ArialMT-50"/>
       </defs>
       <use xlink:href="#ArialMT-50"/>
       <use x="55.615234" xlink:href="#ArialMT-46"/>
       <use x="83.398438" xlink:href="#ArialMT-48"/>
      </g>
     </g>
    </g>
    <g id="xtick_4">
     <g id="line2d_4">
      <g>
       <use style="fill:#262626;stroke:#262626;stroke-width:1.25;" x="163.853594" xlink:href="#m7375028b4a" y="321.678576"/>
      </g>
     </g>
     <g id="text_4">
      <!-- 2.5 -->
      <g style="fill:#262626;" transform="translate(156.208594 339.052169)scale(0.11 -0.11)">
       <use xlink:href="#ArialMT-50"/>
       <use x="55.615234" xlink:href="#ArialMT-46"/>
       <use x="83.398438" xlink:href="#ArialMT-53"/>
      </g>
     </g>
    </g>
    <g id="xtick_5">
     <g id="line2d_5">
      <g>
       <use style="fill:#262626;stroke:#262626;stroke-width:1.25;" x="200.777656" xlink:href="#m7375028b4a" y="321.678576"/>
      </g>
     </g>
     <g id="text_5">
      <!-- 3.0 -->
      <g style="fill:#262626;" transform="translate(193.132656 339.052169)scale(0.11 -0.11)">
       <defs>
        <path d="M 4.203125 18.890625 
L 12.984375 20.0625 
Q 14.5 12.59375 18.140625 9.296875 
Q 21.78125 6 27 6 
Q 33.203125 6 37.46875 10.296875 
Q 41.75 14.59375 41.75 20.953125 
Q 41.75 27 37.796875 30.921875 
Q 33.84375 34.859375 27.734375 34.859375 
Q 25.25 34.859375 21.53125 33.890625 
L 22.515625 41.609375 
Q 23.390625 41.5 23.921875 41.5 
Q 29.546875 41.5 34.03125 44.421875 
Q 38.53125 47.359375 38.53125 53.46875 
Q 38.53125 58.296875 35.25 61.46875 
Q 31.984375 64.65625 26.8125 64.65625 
Q 21.6875 64.65625 18.265625 61.421875 
Q 14.84375 58.203125 13.875 51.765625 
L 5.078125 53.328125 
Q 6.6875 62.15625 12.390625 67.015625 
Q 18.109375 71.875 26.609375 71.875 
Q 32.46875 71.875 37.390625 69.359375 
Q 42.328125 66.84375 44.9375 62.5 
Q 47.5625 58.15625 47.5625 53.265625 
Q 47.5625 48.640625 45.0625 44.828125 
Q 42.578125 41.015625 37.703125 38.765625 
Q 44.046875 37.3125 47.5625 32.6875 
Q 51.078125 28.078125 51.078125 21.140625 
Q 51.078125 11.765625 44.234375 5.25 
Q 37.40625 -1.265625 26.953125 -1.265625 
Q 17.53125 -1.265625 11.296875 4.34375 
Q 5.078125 9.96875 4.203125 18.890625 
z
" id="ArialMT-51"/>
       </defs>
       <use xlink:href="#ArialMT-51"/>
       <use x="55.615234" xlink:href="#ArialMT-46"/>
       <use x="83.398438" xlink:href="#ArialMT-48"/>
      </g>
     </g>
    </g>
    <g id="xtick_6">
     <g id="line2d_6">
      <g>
       <use style="fill:#262626;stroke:#262626;stroke-width:1.25;" x="237.701719" xlink:href="#m7375028b4a" y="321.678576"/>
      </g>
     </g>
     <g id="text_6">
      <!-- 3.5 -->
      <g style="fill:#262626;" transform="translate(230.056719 339.052169)scale(0.11 -0.11)">
       <use xlink:href="#ArialMT-51"/>
       <use x="55.615234" xlink:href="#ArialMT-46"/>
       <use x="83.398438" xlink:href="#ArialMT-53"/>
      </g>
     </g>
    </g>
    <g id="xtick_7">
     <g id="line2d_7">
      <g>
       <use style="fill:#262626;stroke:#262626;stroke-width:1.25;" x="274.625781" xlink:href="#m7375028b4a" y="321.678576"/>
      </g>
     </g>
     <g id="text_7">
      <!-- 4.0 -->
      <g style="fill:#262626;" transform="translate(266.980781 339.052169)scale(0.11 -0.11)">
       <defs>
        <path d="M 32.328125 0 
L 32.328125 17.140625 
L 1.265625 17.140625 
L 1.265625 25.203125 
L 33.9375 71.578125 
L 41.109375 71.578125 
L 41.109375 25.203125 
L 50.78125 25.203125 
L 50.78125 17.140625 
L 41.109375 17.140625 
L 41.109375 0 
z
M 32.328125 25.203125 
L 32.328125 57.46875 
L 9.90625 25.203125 
z
" id="ArialMT-52"/>
       </defs>
       <use xlink:href="#ArialMT-52"/>
       <use x="55.615234" xlink:href="#ArialMT-46"/>
       <use x="83.398438" xlink:href="#ArialMT-48"/>
      </g>
     </g>
    </g>
    <g id="xtick_8">
     <g id="line2d_8">
      <g>
       <use style="fill:#262626;stroke:#262626;stroke-width:1.25;" x="311.549844" xlink:href="#m7375028b4a" y="321.678576"/>
      </g>
     </g>
     <g id="text_8">
      <!-- 4.5 -->
      <g style="fill:#262626;" transform="translate(303.904844 339.052169)scale(0.11 -0.11)">
       <use xlink:href="#ArialMT-52"/>
       <use x="55.615234" xlink:href="#ArialMT-46"/>
       <use x="83.398438" xlink:href="#ArialMT-53"/>
      </g>
     </g>
    </g>
    <g id="xtick_9">
     <g id="line2d_9">
      <g>
       <use style="fill:#262626;stroke:#262626;stroke-width:1.25;" x="348.473906" xlink:href="#m7375028b4a" y="321.678576"/>
      </g>
     </g>
     <g id="text_9">
      <!-- 5.0 -->
      <g style="fill:#262626;" transform="translate(340.828906 339.052169)scale(0.11 -0.11)">
       <use xlink:href="#ArialMT-53"/>
       <use x="55.615234" xlink:href="#ArialMT-46"/>
       <use x="83.398438" xlink:href="#ArialMT-48"/>
      </g>
     </g>
    </g>
    <g id="text_10">
     <!-- l14d -->
     <g style="fill:#262626;" transform="translate(189.434844 353.827794)scale(0.12 -0.12)">
      <defs>
       <path d="M 6.390625 0 
L 6.390625 71.578125 
L 15.1875 71.578125 
L 15.1875 0 
z
" id="ArialMT-108"/>
       <path d="M 40.234375 0 
L 40.234375 6.546875 
Q 35.296875 -1.171875 25.734375 -1.171875 
Q 19.53125 -1.171875 14.328125 2.25 
Q 9.125 5.671875 6.265625 11.796875 
Q 3.421875 17.921875 3.421875 25.875 
Q 3.421875 33.640625 6 39.96875 
Q 8.59375 46.296875 13.765625 49.65625 
Q 18.953125 53.03125 25.34375 53.03125 
Q 30.03125 53.03125 33.6875 51.046875 
Q 37.359375 49.078125 39.65625 45.90625 
L 39.65625 71.578125 
L 48.390625 71.578125 
L 48.390625 0 
z
M 12.453125 25.875 
Q 12.453125 15.921875 16.640625 10.984375 
Q 20.84375 6.0625 26.5625 6.0625 
Q 32.328125 6.0625 36.34375 10.765625 
Q 40.375 15.484375 40.375 25.140625 
Q 40.375 35.796875 36.265625 40.765625 
Q 32.171875 45.75 26.171875 45.75 
Q 20.3125 45.75 16.375 40.96875 
Q 12.453125 36.1875 12.453125 25.875 
z
" id="ArialMT-100"/>
      </defs>
      <use xlink:href="#ArialMT-108"/>
      <use x="22.216797" xlink:href="#ArialMT-49"/>
      <use x="77.832031" xlink:href="#ArialMT-52"/>
      <use x="133.447266" xlink:href="#ArialMT-100"/>
     </g>
    </g>
   </g>
   <g id="matplotlib.axis_2">
    <g id="ytick_1">
     <g id="line2d_10">
      <defs>
       <path d="M 0 0 
L -6 0 
" id="m5b00e0ad92" style="stroke:#262626;stroke-width:1.25;"/>
      </defs>
      <g>
       <use style="fill:#262626;stroke:#262626;stroke-width:1.25;" x="53.081406" xlink:href="#m5b00e0ad92" y="288.85152"/>
      </g>
     </g>
     <g id="text_11">
      <!-- 14.5 -->
      <g style="fill:#262626;" transform="translate(22.174375 292.788317)scale(0.11 -0.11)">
       <use xlink:href="#ArialMT-49"/>
       <use x="55.615234" xlink:href="#ArialMT-52"/>
       <use x="111.230469" xlink:href="#ArialMT-46"/>
       <use x="139.013672" xlink:href="#ArialMT-53"/>
      </g>
     </g>
    </g>
    <g id="ytick_2">
     <g id="line2d_11">
      <g>
       <use style="fill:#262626;stroke:#262626;stroke-width:1.25;" x="53.081406" xlink:href="#m5b00e0ad92" y="249.177988"/>
      </g>
     </g>
     <g id="text_12">
      <!-- 15.0 -->
      <g style="fill:#262626;" transform="translate(22.174375 253.114785)scale(0.11 -0.11)">
       <use xlink:href="#ArialMT-49"/>
       <use x="55.615234" xlink:href="#ArialMT-53"/>
       <use x="111.230469" xlink:href="#ArialMT-46"/>
       <use x="139.013672" xlink:href="#ArialMT-48"/>
      </g>
     </g>
    </g>
    <g id="ytick_3">
     <g id="line2d_12">
      <g>
       <use style="fill:#262626;stroke:#262626;stroke-width:1.25;" x="53.081406" xlink:href="#m5b00e0ad92" y="209.504456"/>
      </g>
     </g>
     <g id="text_13">
      <!-- 15.5 -->
      <g style="fill:#262626;" transform="translate(22.174375 213.441253)scale(0.11 -0.11)">
       <use xlink:href="#ArialMT-49"/>
       <use x="55.615234" xlink:href="#ArialMT-53"/>
       <use x="111.230469" xlink:href="#ArialMT-46"/>
       <use x="139.013672" xlink:href="#ArialMT-53"/>
      </g>
     </g>
    </g>
    <g id="ytick_4">
     <g id="line2d_13">
      <g>
       <use style="fill:#262626;stroke:#262626;stroke-width:1.25;" x="53.081406" xlink:href="#m5b00e0ad92" y="169.830924"/>
      </g>
     </g>
     <g id="text_14">
      <!-- 16.0 -->
      <g style="fill:#262626;" transform="translate(22.174375 173.767721)scale(0.11 -0.11)">
       <defs>
        <path d="M 49.75 54.046875 
L 41.015625 53.375 
Q 39.84375 58.546875 37.703125 60.890625 
Q 34.125 64.65625 28.90625 64.65625 
Q 24.703125 64.65625 21.53125 62.3125 
Q 17.390625 59.28125 14.984375 53.46875 
Q 12.59375 47.65625 12.5 36.921875 
Q 15.671875 41.75 20.265625 44.09375 
Q 24.859375 46.4375 29.890625 46.4375 
Q 38.671875 46.4375 44.84375 39.96875 
Q 51.03125 33.5 51.03125 23.25 
Q 51.03125 16.5 48.125 10.71875 
Q 45.21875 4.9375 40.140625 1.859375 
Q 35.0625 -1.21875 28.609375 -1.21875 
Q 17.625 -1.21875 10.6875 6.859375 
Q 3.765625 14.9375 3.765625 33.5 
Q 3.765625 54.25 11.421875 63.671875 
Q 18.109375 71.875 29.4375 71.875 
Q 37.890625 71.875 43.28125 67.140625 
Q 48.6875 62.40625 49.75 54.046875 
z
M 13.875 23.1875 
Q 13.875 18.65625 15.796875 14.5 
Q 17.71875 10.359375 21.1875 8.171875 
Q 24.65625 6 28.46875 6 
Q 34.03125 6 38.03125 10.484375 
Q 42.046875 14.984375 42.046875 22.703125 
Q 42.046875 30.125 38.078125 34.390625 
Q 34.125 38.671875 28.125 38.671875 
Q 22.171875 38.671875 18.015625 34.390625 
Q 13.875 30.125 13.875 23.1875 
z
" id="ArialMT-54"/>
       </defs>
       <use xlink:href="#ArialMT-49"/>
       <use x="55.615234" xlink:href="#ArialMT-54"/>
       <use x="111.230469" xlink:href="#ArialMT-46"/>
       <use x="139.013672" xlink:href="#ArialMT-48"/>
      </g>
     </g>
    </g>
    <g id="ytick_5">
     <g id="line2d_14">
      <g>
       <use style="fill:#262626;stroke:#262626;stroke-width:1.25;" x="53.081406" xlink:href="#m5b00e0ad92" y="130.157392"/>
      </g>
     </g>
     <g id="text_15">
      <!-- 16.5 -->
      <g style="fill:#262626;" transform="translate(22.174375 134.094189)scale(0.11 -0.11)">
       <use xlink:href="#ArialMT-49"/>
       <use x="55.615234" xlink:href="#ArialMT-54"/>
       <use x="111.230469" xlink:href="#ArialMT-46"/>
       <use x="139.013672" xlink:href="#ArialMT-53"/>
      </g>
     </g>
    </g>
    <g id="ytick_6">
     <g id="line2d_15">
      <g>
       <use style="fill:#262626;stroke:#262626;stroke-width:1.25;" x="53.081406" xlink:href="#m5b00e0ad92" y="90.483861"/>
      </g>
     </g>
     <g id="text_16">
      <!-- 17.0 -->
      <g style="fill:#262626;" transform="translate(22.174375 94.420657)scale(0.11 -0.11)">
       <defs>
        <path d="M 4.734375 62.203125 
L 4.734375 70.65625 
L 51.078125 70.65625 
L 51.078125 63.8125 
Q 44.234375 56.546875 37.515625 44.484375 
Q 30.8125 32.421875 27.15625 19.671875 
Q 24.515625 10.6875 23.78125 0 
L 14.75 0 
Q 14.890625 8.453125 18.0625 20.40625 
Q 21.234375 32.375 27.171875 43.484375 
Q 33.109375 54.59375 39.796875 62.203125 
z
" id="ArialMT-55"/>
       </defs>
       <use xlink:href="#ArialMT-49"/>
       <use x="55.615234" xlink:href="#ArialMT-55"/>
       <use x="111.230469" xlink:href="#ArialMT-46"/>
       <use x="139.013672" xlink:href="#ArialMT-48"/>
      </g>
     </g>
    </g>
    <g id="ytick_7">
     <g id="line2d_16">
      <g>
       <use style="fill:#262626;stroke:#262626;stroke-width:1.25;" x="53.081406" xlink:href="#m5b00e0ad92" y="50.810329"/>
      </g>
     </g>
     <g id="text_17">
      <!-- 17.5 -->
      <g style="fill:#262626;" transform="translate(22.174375 54.747126)scale(0.11 -0.11)">
       <use xlink:href="#ArialMT-49"/>
       <use x="55.615234" xlink:href="#ArialMT-55"/>
       <use x="111.230469" xlink:href="#ArialMT-46"/>
       <use x="139.013672" xlink:href="#ArialMT-53"/>
      </g>
     </g>
    </g>
    <g id="ytick_8">
     <g id="line2d_17">
      <g>
       <use style="fill:#262626;stroke:#262626;stroke-width:1.25;" x="53.081406" xlink:href="#m5b00e0ad92" y="11.136797"/>
      </g>
     </g>
     <g id="text_18">
      <!-- 18.0 -->
      <g style="fill:#262626;" transform="translate(22.174375 15.073594)scale(0.11 -0.11)">
       <defs>
        <path d="M 17.671875 38.8125 
Q 12.203125 40.828125 9.5625 44.53125 
Q 6.9375 48.25 6.9375 53.421875 
Q 6.9375 61.234375 12.546875 66.546875 
Q 18.171875 71.875 27.484375 71.875 
Q 36.859375 71.875 42.578125 66.421875 
Q 48.296875 60.984375 48.296875 53.171875 
Q 48.296875 48.1875 45.671875 44.5 
Q 43.0625 40.828125 37.75 38.8125 
Q 44.34375 36.671875 47.78125 31.875 
Q 51.21875 27.09375 51.21875 20.453125 
Q 51.21875 11.28125 44.71875 5.03125 
Q 38.234375 -1.21875 27.640625 -1.21875 
Q 17.046875 -1.21875 10.546875 5.046875 
Q 4.046875 11.328125 4.046875 20.703125 
Q 4.046875 27.6875 7.59375 32.390625 
Q 11.140625 37.109375 17.671875 38.8125 
z
M 15.921875 53.71875 
Q 15.921875 48.640625 19.1875 45.40625 
Q 22.46875 42.1875 27.6875 42.1875 
Q 32.765625 42.1875 36.015625 45.375 
Q 39.265625 48.578125 39.265625 53.21875 
Q 39.265625 58.0625 35.90625 61.359375 
Q 32.5625 64.65625 27.59375 64.65625 
Q 22.5625 64.65625 19.234375 61.421875 
Q 15.921875 58.203125 15.921875 53.71875 
z
M 13.09375 20.65625 
Q 13.09375 16.890625 14.875 13.375 
Q 16.65625 9.859375 20.171875 7.921875 
Q 23.6875 6 27.734375 6 
Q 34.03125 6 38.125 10.046875 
Q 42.234375 14.109375 42.234375 20.359375 
Q 42.234375 26.703125 38.015625 30.859375 
Q 33.796875 35.015625 27.4375 35.015625 
Q 21.234375 35.015625 17.15625 30.90625 
Q 13.09375 26.8125 13.09375 20.65625 
z
" id="ArialMT-56"/>
       </defs>
       <use xlink:href="#ArialMT-49"/>
       <use x="55.615234" xlink:href="#ArialMT-56"/>
       <use x="111.230469" xlink:href="#ArialMT-46"/>
       <use x="139.013672" xlink:href="#ArialMT-48"/>
      </g>
     </g>
    </g>
    <g id="text_19">
     <!-- score -->
     <g style="fill:#262626;" transform="translate(15.789375 179.336817)rotate(-90)scale(0.12 -0.12)">
      <defs>
       <path d="M 3.078125 15.484375 
L 11.765625 16.84375 
Q 12.5 11.625 15.84375 8.84375 
Q 19.1875 6.0625 25.203125 6.0625 
Q 31.25 6.0625 34.171875 8.515625 
Q 37.109375 10.984375 37.109375 14.3125 
Q 37.109375 17.28125 34.515625 19 
Q 32.71875 20.171875 25.53125 21.96875 
Q 15.875 24.421875 12.140625 26.203125 
Q 8.40625 27.984375 6.46875 31.125 
Q 4.546875 34.28125 4.546875 38.09375 
Q 4.546875 41.546875 6.125 44.5 
Q 7.71875 47.46875 10.453125 49.421875 
Q 12.5 50.921875 16.03125 51.96875 
Q 19.578125 53.03125 23.640625 53.03125 
Q 29.734375 53.03125 34.34375 51.265625 
Q 38.96875 49.515625 41.15625 46.5 
Q 43.359375 43.5 44.1875 38.484375 
L 35.59375 37.3125 
Q 35.015625 41.3125 32.203125 43.546875 
Q 29.390625 45.796875 24.265625 45.796875 
Q 18.21875 45.796875 15.625 43.796875 
Q 13.03125 41.796875 13.03125 39.109375 
Q 13.03125 37.40625 14.109375 36.03125 
Q 15.1875 34.625 17.484375 33.6875 
Q 18.796875 33.203125 25.25 31.453125 
Q 34.578125 28.953125 38.25 27.359375 
Q 41.9375 25.78125 44.03125 22.75 
Q 46.140625 19.734375 46.140625 15.234375 
Q 46.140625 10.84375 43.578125 6.953125 
Q 41.015625 3.078125 36.171875 0.953125 
Q 31.34375 -1.171875 25.25 -1.171875 
Q 15.140625 -1.171875 9.84375 3.03125 
Q 4.546875 7.234375 3.078125 15.484375 
z
" id="ArialMT-115"/>
       <path d="M 40.4375 19 
L 49.078125 17.875 
Q 47.65625 8.9375 41.8125 3.875 
Q 35.984375 -1.171875 27.484375 -1.171875 
Q 16.84375 -1.171875 10.375 5.78125 
Q 3.90625 12.75 3.90625 25.734375 
Q 3.90625 34.125 6.6875 40.421875 
Q 9.46875 46.734375 15.15625 49.875 
Q 20.84375 53.03125 27.546875 53.03125 
Q 35.984375 53.03125 41.359375 48.75 
Q 46.734375 44.484375 48.25 36.625 
L 39.703125 35.296875 
Q 38.484375 40.53125 35.375 43.15625 
Q 32.28125 45.796875 27.875 45.796875 
Q 21.234375 45.796875 17.078125 41.03125 
Q 12.9375 36.28125 12.9375 25.984375 
Q 12.9375 15.53125 16.9375 10.796875 
Q 20.953125 6.0625 27.390625 6.0625 
Q 32.5625 6.0625 36.03125 9.234375 
Q 39.5 12.40625 40.4375 19 
z
" id="ArialMT-99"/>
       <path d="M 3.328125 25.921875 
Q 3.328125 40.328125 11.328125 47.265625 
Q 18.015625 53.03125 27.640625 53.03125 
Q 38.328125 53.03125 45.109375 46.015625 
Q 51.90625 39.015625 51.90625 26.65625 
Q 51.90625 16.65625 48.90625 10.90625 
Q 45.90625 5.171875 40.15625 2 
Q 34.421875 -1.171875 27.640625 -1.171875 
Q 16.75 -1.171875 10.03125 5.8125 
Q 3.328125 12.796875 3.328125 25.921875 
z
M 12.359375 25.921875 
Q 12.359375 15.96875 16.703125 11.015625 
Q 21.046875 6.0625 27.640625 6.0625 
Q 34.1875 6.0625 38.53125 11.03125 
Q 42.875 16.015625 42.875 26.21875 
Q 42.875 35.84375 38.5 40.796875 
Q 34.125 45.75 27.640625 45.75 
Q 21.046875 45.75 16.703125 40.8125 
Q 12.359375 35.890625 12.359375 25.921875 
z
" id="ArialMT-111"/>
       <path d="M 6.5 0 
L 6.5 51.859375 
L 14.40625 51.859375 
L 14.40625 44 
Q 17.4375 49.515625 20 51.265625 
Q 22.5625 53.03125 25.640625 53.03125 
Q 30.078125 53.03125 34.671875 50.203125 
L 31.640625 42.046875 
Q 28.421875 43.953125 25.203125 43.953125 
Q 22.3125 43.953125 20.015625 42.21875 
Q 17.71875 40.484375 16.75 37.40625 
Q 15.28125 32.71875 15.28125 27.15625 
L 15.28125 0 
z
" id="ArialMT-114"/>
       <path d="M 42.09375 16.703125 
L 51.171875 15.578125 
Q 49.03125 7.625 43.21875 3.21875 
Q 37.40625 -1.171875 28.375 -1.171875 
Q 17 -1.171875 10.328125 5.828125 
Q 3.65625 12.84375 3.65625 25.484375 
Q 3.65625 38.578125 10.390625 45.796875 
Q 17.140625 53.03125 27.875 53.03125 
Q 38.28125 53.03125 44.875 45.953125 
Q 51.46875 38.875 51.46875 26.03125 
Q 51.46875 25.25 51.421875 23.6875 
L 12.75 23.6875 
Q 13.234375 15.140625 17.578125 10.59375 
Q 21.921875 6.0625 28.421875 6.0625 
Q 33.25 6.0625 36.671875 8.59375 
Q 40.09375 11.140625 42.09375 16.703125 
z
M 13.234375 30.90625 
L 42.1875 30.90625 
Q 41.609375 37.453125 38.875 40.71875 
Q 34.671875 45.796875 27.984375 45.796875 
Q 21.921875 45.796875 17.796875 41.75 
Q 13.671875 37.703125 13.234375 30.90625 
z
" id="ArialMT-101"/>
      </defs>
      <use xlink:href="#ArialMT-115"/>
      <use x="50" xlink:href="#ArialMT-99"/>
      <use x="100" xlink:href="#ArialMT-111"/>
      <use x="155.615234" xlink:href="#ArialMT-114"/>
      <use x="188.916016" xlink:href="#ArialMT-101"/>
     </g>
    </g>
   </g>
   <g id="PathCollection_1">
    <defs>
     <path d="M 0 3.535534 
C 0.937635 3.535534 1.836992 3.163008 2.5 2.5 
C 3.163008 1.836992 3.535534 0.937635 3.535534 0 
C 3.535534 -0.937635 3.163008 -1.836992 2.5 -2.5 
C 1.836992 -3.163008 0.937635 -3.535534 0 -3.535534 
C -0.937635 -3.535534 -1.836992 -3.163008 -2.5 -2.5 
C -3.163008 -1.836992 -3.535534 -0.937635 -3.535534 0 
C -3.535534 0.937635 -3.163008 1.836992 -2.5 2.5 
C -1.836992 3.163008 -0.937635 3.535534 0 3.535534 
z
" id="md1acfcef60" style="stroke:#4c72b0;"/>
    </defs>
    <g clip-path="url(#p9263909a65)">
     <use style="fill:#4c72b0;stroke:#4c72b0;" x="53.081406" xlink:href="#md1acfcef60" y="54.140105"/>
     <use style="fill:#4c72b0;stroke:#4c72b0;" x="126.929531" xlink:href="#md1acfcef60" y="107.778965"/>
     <use style="fill:#4c72b0;stroke:#4c72b0;" x="200.777656" xlink:href="#md1acfcef60" y="149.645795"/>
     <use style="fill:#4c72b0;stroke:#4c72b0;" x="274.625781" xlink:href="#md1acfcef60" y="176.786237"/>
     <use style="fill:#4c72b0;stroke:#4c72b0;" x="348.473906" xlink:href="#md1acfcef60" y="194.929097"/>
    </g>
   </g>
   <g id="PolyCollection_1">
    <defs>
     <path d="M 53.081406 -321.806272 
L 53.081406 -277.58719 
L 56.065169 -276.361054 
L 59.048932 -275.195555 
L 62.032694 -273.902421 
L 65.016457 -272.672016 
L 68.000219 -271.446865 
L 70.983982 -270.219088 
L 73.967745 -269.006785 
L 76.951507 -267.75048 
L 79.93527 -266.480194 
L 82.919033 -265.236248 
L 85.902795 -263.991046 
L 88.886558 -262.739403 
L 91.87032 -261.477281 
L 94.854083 -260.255721 
L 97.837846 -258.940772 
L 100.821608 -257.557755 
L 103.805371 -256.059672 
L 106.789134 -254.840064 
L 109.772896 -253.425689 
L 112.756659 -252.12486 
L 115.740421 -250.599554 
L 118.724184 -249.397878 
L 121.707947 -247.898791 
L 124.691709 -246.497884 
L 127.675472 -245.071332 
L 130.659235 -243.778919 
L 133.642997 -242.19622 
L 136.62676 -240.528401 
L 139.610522 -239.063367 
L 142.594285 -237.193143 
L 145.578048 -235.531075 
L 148.56181 -234.051774 
L 151.545573 -232.220284 
L 154.529336 -230.539834 
L 157.513098 -228.857836 
L 160.496861 -227.124018 
L 163.480623 -225.520378 
L 166.464386 -223.855816 
L 169.448149 -222.047471 
L 172.431911 -220.175945 
L 175.415674 -218.299456 
L 178.399437 -216.389191 
L 181.383199 -214.376269 
L 184.366962 -212.308553 
L 187.350724 -210.192189 
L 190.334487 -208.453389 
L 193.31825 -206.833543 
L 196.302012 -204.819951 
L 199.285775 -202.841659 
L 202.269538 -200.916261 
L 205.2533 -198.87 
L 208.237063 -196.750688 
L 211.220825 -194.62501 
L 214.204588 -192.556944 
L 217.188351 -190.511182 
L 220.172113 -188.469233 
L 223.155876 -186.472609 
L 226.139639 -184.451998 
L 229.123401 -182.499904 
L 232.107164 -180.43498 
L 235.090926 -178.40289 
L 238.074689 -176.269977 
L 241.058452 -174.164637 
L 244.042214 -172.119497 
L 247.025977 -170.074357 
L 250.00974 -168.029217 
L 252.993502 -165.946053 
L 255.977265 -163.938938 
L 258.961027 -161.625227 
L 261.94479 -159.4089 
L 264.928553 -157.306573 
L 267.912315 -155.195872 
L 270.896078 -153.09349 
L 273.879841 -150.872959 
L 276.863603 -148.858539 
L 279.847366 -146.621272 
L 282.831128 -144.386013 
L 285.814891 -142.199533 
L 288.798654 -140.057454 
L 291.782416 -138.021897 
L 294.766179 -135.882302 
L 297.749942 -133.607365 
L 300.733704 -131.332428 
L 303.717467 -129.057491 
L 306.701229 -126.788834 
L 309.684992 -124.621222 
L 312.668755 -122.29399 
L 315.652517 -120.148521 
L 318.63628 -118.016991 
L 321.620043 -115.885508 
L 324.603805 -113.754024 
L 327.587568 -111.62664 
L 330.57133 -109.500223 
L 333.555093 -107.373806 
L 336.538856 -105.247389 
L 339.522618 -103.120972 
L 342.506381 -100.994555 
L 345.490144 -98.868138 
L 348.473906 -96.741721 
L 348.473906 -172.481599 
L 348.473906 -172.481599 
L 345.490144 -173.663188 
L 342.506381 -174.948221 
L 339.522618 -176.027959 
L 336.538856 -177.1802 
L 333.555093 -178.277923 
L 330.57133 -179.375646 
L 327.587568 -180.60195 
L 324.603805 -181.825612 
L 321.620043 -182.886068 
L 318.63628 -184.081207 
L 315.652517 -185.497443 
L 312.668755 -186.681202 
L 309.684992 -187.863344 
L 306.701229 -189.001488 
L 303.717467 -190.120768 
L 300.733704 -191.240047 
L 297.749942 -192.359326 
L 294.766179 -193.478606 
L 291.782416 -194.597885 
L 288.798654 -195.717164 
L 285.814891 -196.836443 
L 282.831128 -197.955723 
L 279.847366 -199.075002 
L 276.863603 -200.194281 
L 273.879841 -201.313561 
L 270.896078 -202.43284 
L 267.912315 -203.552871 
L 264.928553 -204.869019 
L 261.94479 -206.185067 
L 258.961027 -207.498153 
L 255.977265 -208.810632 
L 252.993502 -209.939709 
L 250.00974 -211.090789 
L 247.025977 -212.500671 
L 244.042214 -213.808576 
L 241.058452 -215.084882 
L 238.074689 -216.277304 
L 235.090926 -217.462854 
L 232.107164 -218.844627 
L 229.123401 -220.032177 
L 226.139639 -221.368024 
L 223.155876 -222.762068 
L 220.172113 -224.150756 
L 217.188351 -225.214077 
L 214.204588 -226.523294 
L 211.220825 -227.870538 
L 208.237063 -229.359326 
L 205.2533 -230.576486 
L 202.269538 -231.915301 
L 199.285775 -233.352641 
L 196.302012 -234.696067 
L 193.31825 -235.740814 
L 190.334487 -237.189961 
L 187.350724 -238.697806 
L 184.366962 -240.422222 
L 181.383199 -241.658228 
L 178.399437 -243.083132 
L 175.415674 -244.565072 
L 172.431911 -245.989409 
L 169.448149 -247.40654 
L 166.464386 -249.194467 
L 163.480623 -250.558915 
L 160.496861 -252.009567 
L 157.513098 -253.506244 
L 154.529336 -254.907521 
L 151.545573 -256.569334 
L 148.56181 -258.115286 
L 145.578048 -259.794445 
L 142.594285 -261.456659 
L 139.610522 -263.324891 
L 136.62676 -265.068902 
L 133.642997 -266.963702 
L 130.659235 -268.764692 
L 127.675472 -270.572275 
L 124.691709 -272.331821 
L 121.707947 -274.183867 
L 118.724184 -276.233946 
L 115.740421 -278.198268 
L 112.756659 -280.332434 
L 109.772896 -282.422889 
L 106.789134 -284.361794 
L 103.805371 -286.637256 
L 100.821608 -288.412207 
L 97.837846 -290.402706 
L 94.854083 -292.661366 
L 91.87032 -294.771609 
L 88.886558 -296.785264 
L 85.902795 -298.877059 
L 82.919033 -300.894003 
L 79.93527 -302.824453 
L 76.951507 -304.837171 
L 73.967745 -307.030081 
L 70.983982 -309.141945 
L 68.000219 -311.11282 
L 65.016457 -313.287325 
L 62.032694 -315.415443 
L 59.048932 -317.470891 
L 56.065169 -319.576061 
L 53.081406 -321.806272 
z
" id="mf7c8872d00" style="stroke:#ffffff;stroke-opacity:0.15;"/>
    </defs>
    <g clip-path="url(#p9263909a65)">
     <use style="fill:#4c72b0;fill-opacity:0.15;stroke:#ffffff;stroke-opacity:0.15;" x="0" xlink:href="#mf7c8872d00" y="363.412794"/>
    </g>
   </g>
   <g id="line2d_18">
    <path clip-path="url(#p9263909a65)" d="M 53.081406 80.752544 
L 53.081406 21.927065 
" style="fill:none;stroke:#4c72b0;stroke-linecap:round;stroke-width:2.625;"/>
   </g>
   <g id="line2d_19">
    <path clip-path="url(#p9263909a65)" d="M 126.929531 125.469867 
L 126.929531 88.337922 
" style="fill:none;stroke:#4c72b0;stroke-linecap:round;stroke-width:2.625;"/>
   </g>
   <g id="line2d_20">
    <path clip-path="url(#p9263909a65)" d="M 200.777656 172.456253 
L 200.777656 126.755753 
" style="fill:none;stroke:#4c72b0;stroke-linecap:round;stroke-width:2.625;"/>
   </g>
   <g id="line2d_21">
    <path clip-path="url(#p9263909a65)" d="M 274.625781 218.086579 
L 274.625781 133.5569 
" style="fill:none;stroke:#4c72b0;stroke-linecap:round;stroke-width:2.625;"/>
   </g>
   <g id="line2d_22">
    <path clip-path="url(#p9263909a65)" d="M 348.473906 307.404694 
L 348.473906 80.261908 
" style="fill:none;stroke:#4c72b0;stroke-linecap:round;stroke-width:2.625;"/>
   </g>
   <g id="line2d_23">
    <path clip-path="url(#p9263909a65)" d="M 53.081406 62.967999 
L 56.065169 64.638983 
L 59.048932 66.309966 
L 62.032694 67.980949 
L 65.016457 69.651932 
L 68.000219 71.322916 
L 70.983982 72.993899 
L 73.967745 74.664882 
L 76.951507 76.335866 
L 79.93527 78.006849 
L 82.919033 79.677832 
L 85.902795 81.348815 
L 88.886558 83.019799 
L 91.87032 84.690782 
L 94.854083 86.361765 
L 97.837846 88.032748 
L 100.821608 89.703732 
L 103.805371 91.374715 
L 106.789134 93.045698 
L 109.772896 94.716682 
L 112.756659 96.387665 
L 115.740421 98.058648 
L 118.724184 99.729631 
L 121.707947 101.400615 
L 124.691709 103.071598 
L 127.675472 104.742581 
L 130.659235 106.413564 
L 133.642997 108.084548 
L 136.62676 109.755531 
L 139.610522 111.426514 
L 142.594285 113.097498 
L 145.578048 114.768481 
L 148.56181 116.439464 
L 151.545573 118.110447 
L 154.529336 119.781431 
L 157.513098 121.452414 
L 160.496861 123.123397 
L 163.480623 124.79438 
L 166.464386 126.465364 
L 169.448149 128.136347 
L 172.431911 129.80733 
L 175.415674 131.478314 
L 178.399437 133.149297 
L 181.383199 134.82028 
L 184.366962 136.491263 
L 187.350724 138.162247 
L 190.334487 139.83323 
L 193.31825 141.504213 
L 196.302012 143.175196 
L 199.285775 144.84618 
L 202.269538 146.517163 
L 205.2533 148.188146 
L 208.237063 149.85913 
L 211.220825 151.530113 
L 214.204588 153.201096 
L 217.188351 154.872079 
L 220.172113 156.543063 
L 223.155876 158.214046 
L 226.139639 159.885029 
L 229.123401 161.556012 
L 232.107164 163.226996 
L 235.090926 164.897979 
L 238.074689 166.568962 
L 241.058452 168.239946 
L 244.042214 169.910929 
L 247.025977 171.581912 
L 250.00974 173.252895 
L 252.993502 174.923879 
L 255.977265 176.594862 
L 258.961027 178.265845 
L 261.94479 179.936828 
L 264.928553 181.607812 
L 267.912315 183.278795 
L 270.896078 184.949778 
L 273.879841 186.620762 
L 276.863603 188.291745 
L 279.847366 189.962728 
L 282.831128 191.633711 
L 285.814891 193.304695 
L 288.798654 194.975678 
L 291.782416 196.646661 
L 294.766179 198.317644 
L 297.749942 199.988628 
L 300.733704 201.659611 
L 303.717467 203.330594 
L 306.701229 205.001578 
L 309.684992 206.672561 
L 312.668755 208.343544 
L 315.652517 210.014527 
L 318.63628 211.685511 
L 321.620043 213.356494 
L 324.603805 215.027477 
L 327.587568 216.69846 
L 330.57133 218.369444 
L 333.555093 220.040427 
L 336.538856 221.71141 
L 339.522618 223.382394 
L 342.506381 225.053377 
L 345.490144 226.72436 
L 348.473906 228.395343 
" style="fill:none;stroke:#4c72b0;stroke-linecap:round;stroke-width:2.25;"/>
   </g>
   <g id="patch_3">
    <path d="M 53.081406 321.678576 
L 53.081406 7.653184 
" style="fill:none;stroke:#262626;stroke-linecap:square;stroke-linejoin:miter;stroke-width:1.25;"/>
   </g>
   <g id="patch_4">
    <path d="M 53.081406 321.678576 
L 348.473906 321.678576 
" style="fill:none;stroke:#262626;stroke-linecap:square;stroke-linejoin:miter;stroke-width:1.25;"/>
   </g>
  </g>
 </g>
 <defs>
  <clipPath id="p9263909a65">
   <rect height="314.025392" width="295.3925" x="53.081406" y="7.653184"/>
  </clipPath>
 </defs>
</svg>
