<?xml version="1.0" encoding="utf-8" standalone="no"?>
<!DOCTYPE svg PUBLIC "-//W3C//DTD SVG 1.1//EN"
  "http://www.w3.org/Graphics/SVG/1.1/DTD/svg11.dtd">
<!-- Created with matplotlib (https://matplotlib.org/) -->
<svg height="363.446947pt" version="1.1" viewBox="0 0 421.516239 363.446947" width="421.516239pt" xmlns="http://www.w3.org/2000/svg" xmlns:xlink="http://www.w3.org/1999/xlink">
 <metadata>
  <rdf:RDF xmlns:cc="http://creativecommons.org/ns#" xmlns:dc="http://purl.org/dc/elements/1.1/" xmlns:rdf="http://www.w3.org/1999/02/22-rdf-syntax-ns#">
   <cc:Work>
    <dc:type rdf:resource="http://purl.org/dc/dcmitype/StillImage"/>
    <dc:date>2021-03-16T16:57:48.349567</dc:date>
    <dc:format>image/svg+xml</dc:format>
    <dc:creator>
     <cc:Agent>
      <dc:title>Matplotlib v3.3.2, https://matplotlib.org/</dc:title>
     </cc:Agent>
    </dc:creator>
   </cc:Work>
  </rdf:RDF>
 </metadata>
 <defs>
  <style type="text/css">*{stroke-linecap:butt;stroke-linejoin:round;}</style>
 </defs>
 <g id="figure_1">
  <g id="patch_1">
   <path d="M 0 363.446947 
L 421.516239 363.446947 
L 421.516239 0 
L 0 0 
z
" style="fill:#ffffff;"/>
  </g>
  <g id="axes_1">
   <g id="patch_2">
    <path d="M 37.791406 321.712729 
L 360.691489 321.712729 
L 360.691489 10.008672 
L 37.791406 10.008672 
z
" style="fill:#ffffff;"/>
   </g>
   <g id="matplotlib.axis_1">
    <g id="xtick_1">
     <g id="line2d_1">
      <defs>
       <path d="M 0 0 
L 0 6 
" id="m726ca9ba38" style="stroke:#262626;stroke-width:1.25;"/>
      </defs>
      <g>
       <use style="fill:#262626;stroke:#262626;stroke-width:1.25;" x="118.516427" xlink:href="#m726ca9ba38" y="321.712729"/>
      </g>
     </g>
     <g id="text_1">
      <!-- 1.0 -->
      <g style="fill:#262626;" transform="translate(110.871427 339.086322)scale(0.11 -0.11)">
       <defs>
        <path d="M 37.25 0 
L 28.46875 0 
L 28.46875 56 
Q 25.296875 52.984375 20.140625 49.953125 
Q 14.984375 46.921875 10.890625 45.40625 
L 10.890625 53.90625 
Q 18.265625 57.375 23.78125 62.296875 
Q 29.296875 67.234375 31.59375 71.875 
L 37.25 71.875 
z
" id="ArialMT-49"/>
        <path d="M 9.078125 0 
L 9.078125 10.015625 
L 19.09375 10.015625 
L 19.09375 0 
z
" id="ArialMT-46"/>
        <path d="M 4.15625 35.296875 
Q 4.15625 48 6.765625 55.734375 
Q 9.375 63.484375 14.515625 67.671875 
Q 19.671875 71.875 27.484375 71.875 
Q 33.25 71.875 37.59375 69.546875 
Q 41.9375 67.234375 44.765625 62.859375 
Q 47.609375 58.5 49.21875 52.21875 
Q 50.828125 45.953125 50.828125 35.296875 
Q 50.828125 22.703125 48.234375 14.96875 
Q 45.65625 7.234375 40.5 3 
Q 35.359375 -1.21875 27.484375 -1.21875 
Q 17.140625 -1.21875 11.234375 6.203125 
Q 4.15625 15.140625 4.15625 35.296875 
z
M 13.1875 35.296875 
Q 13.1875 17.671875 17.3125 11.828125 
Q 21.4375 6 27.484375 6 
Q 33.546875 6 37.671875 11.859375 
Q 41.796875 17.71875 41.796875 35.296875 
Q 41.796875 52.984375 37.671875 58.78125 
Q 33.546875 64.59375 27.390625 64.59375 
Q 21.34375 64.59375 17.71875 59.46875 
Q 13.1875 52.9375 13.1875 35.296875 
z
" id="ArialMT-48"/>
       </defs>
       <use xlink:href="#ArialMT-49"/>
       <use x="55.615234" xlink:href="#ArialMT-46"/>
       <use x="83.398438" xlink:href="#ArialMT-48"/>
      </g>
     </g>
    </g>
    <g id="xtick_2">
     <g id="line2d_2">
      <g>
       <use style="fill:#262626;stroke:#262626;stroke-width:1.25;" x="279.966468" xlink:href="#m726ca9ba38" y="321.712729"/>
      </g>
     </g>
     <g id="text_2">
      <!-- 2.0 -->
      <g style="fill:#262626;" transform="translate(272.321468 339.086322)scale(0.11 -0.11)">
       <defs>
        <path d="M 50.34375 8.453125 
L 50.34375 0 
L 3.03125 0 
Q 2.9375 3.171875 4.046875 6.109375 
Q 5.859375 10.9375 9.828125 15.625 
Q 13.8125 20.3125 21.34375 26.46875 
Q 33.015625 36.03125 37.109375 41.625 
Q 41.21875 47.21875 41.21875 52.203125 
Q 41.21875 57.421875 37.46875 61 
Q 33.734375 64.59375 27.734375 64.59375 
Q 21.390625 64.59375 17.578125 60.78125 
Q 13.765625 56.984375 13.71875 50.25 
L 4.6875 51.171875 
Q 5.609375 61.28125 11.65625 66.578125 
Q 17.71875 71.875 27.9375 71.875 
Q 38.234375 71.875 44.234375 66.15625 
Q 50.25 60.453125 50.25 52 
Q 50.25 47.703125 48.484375 43.546875 
Q 46.734375 39.40625 42.65625 34.8125 
Q 38.578125 30.21875 29.109375 22.21875 
Q 21.1875 15.578125 18.9375 13.203125 
Q 16.703125 10.84375 15.234375 8.453125 
z
" id="ArialMT-50"/>
       </defs>
       <use xlink:href="#ArialMT-50"/>
       <use x="55.615234" xlink:href="#ArialMT-46"/>
       <use x="83.398438" xlink:href="#ArialMT-48"/>
      </g>
     </g>
    </g>
    <g id="text_3">
     <!-- l2409 -->
     <g style="fill:#262626;" transform="translate(184.562072 353.861947)scale(0.12 -0.12)">
      <defs>
       <path d="M 6.390625 0 
L 6.390625 71.578125 
L 15.1875 71.578125 
L 15.1875 0 
z
" id="ArialMT-108"/>
       <path d="M 32.328125 0 
L 32.328125 17.140625 
L 1.265625 17.140625 
L 1.265625 25.203125 
L 33.9375 71.578125 
L 41.109375 71.578125 
L 41.109375 25.203125 
L 50.78125 25.203125 
L 50.78125 17.140625 
L 41.109375 17.140625 
L 41.109375 0 
z
M 32.328125 25.203125 
L 32.328125 57.46875 
L 9.90625 25.203125 
z
" id="ArialMT-52"/>
       <path d="M 5.46875 16.546875 
L 13.921875 17.328125 
Q 14.984375 11.375 18.015625 8.6875 
Q 21.046875 6 25.78125 6 
Q 29.828125 6 32.875 7.859375 
Q 35.9375 9.71875 37.890625 12.8125 
Q 39.84375 15.921875 41.15625 21.1875 
Q 42.484375 26.46875 42.484375 31.9375 
Q 42.484375 32.515625 42.4375 33.6875 
Q 39.796875 29.5 35.234375 26.875 
Q 30.671875 24.265625 25.34375 24.265625 
Q 16.453125 24.265625 10.296875 30.703125 
Q 4.15625 37.15625 4.15625 47.703125 
Q 4.15625 58.59375 10.578125 65.234375 
Q 17 71.875 26.65625 71.875 
Q 33.640625 71.875 39.421875 68.109375 
Q 45.21875 64.359375 48.21875 57.390625 
Q 51.21875 50.4375 51.21875 37.25 
Q 51.21875 23.53125 48.234375 15.40625 
Q 45.265625 7.28125 39.375 3.03125 
Q 33.5 -1.21875 25.59375 -1.21875 
Q 17.1875 -1.21875 11.859375 3.4375 
Q 6.546875 8.109375 5.46875 16.546875 
z
M 41.453125 48.140625 
Q 41.453125 55.71875 37.421875 60.15625 
Q 33.40625 64.59375 27.734375 64.59375 
Q 21.875 64.59375 17.53125 59.8125 
Q 13.1875 55.03125 13.1875 47.40625 
Q 13.1875 40.578125 17.3125 36.296875 
Q 21.4375 32.03125 27.484375 32.03125 
Q 33.59375 32.03125 37.515625 36.296875 
Q 41.453125 40.578125 41.453125 48.140625 
z
" id="ArialMT-57"/>
      </defs>
      <use xlink:href="#ArialMT-108"/>
      <use x="22.216797" xlink:href="#ArialMT-50"/>
      <use x="77.832031" xlink:href="#ArialMT-52"/>
      <use x="133.447266" xlink:href="#ArialMT-48"/>
      <use x="189.0625" xlink:href="#ArialMT-57"/>
     </g>
    </g>
   </g>
   <g id="matplotlib.axis_2">
    <g id="ytick_1">
     <g id="line2d_3">
      <defs>
       <path d="M 0 0 
L -6 0 
" id="mc439aa0138" style="stroke:#262626;stroke-width:1.25;"/>
      </defs>
      <g>
       <use style="fill:#262626;stroke:#262626;stroke-width:1.25;" x="37.791406" xlink:href="#mc439aa0138" y="320.584604"/>
      </g>
     </g>
     <g id="text_4">
      <!-- 0 -->
      <g style="fill:#262626;" transform="translate(22.174375 324.521401)scale(0.11 -0.11)">
       <use xlink:href="#ArialMT-48"/>
      </g>
     </g>
    </g>
    <g id="ytick_2">
     <g id="line2d_4">
      <g>
       <use style="fill:#262626;stroke:#262626;stroke-width:1.25;" x="37.791406" xlink:href="#mc439aa0138" y="269.009969"/>
      </g>
     </g>
     <g id="text_5">
      <!-- 1 -->
      <g style="fill:#262626;" transform="translate(22.174375 272.946766)scale(0.11 -0.11)">
       <use xlink:href="#ArialMT-49"/>
      </g>
     </g>
    </g>
    <g id="ytick_3">
     <g id="line2d_5">
      <g>
       <use style="fill:#262626;stroke:#262626;stroke-width:1.25;" x="37.791406" xlink:href="#mc439aa0138" y="217.435335"/>
      </g>
     </g>
     <g id="text_6">
      <!-- 2 -->
      <g style="fill:#262626;" transform="translate(22.174375 221.372132)scale(0.11 -0.11)">
       <use xlink:href="#ArialMT-50"/>
      </g>
     </g>
    </g>
    <g id="ytick_4">
     <g id="line2d_6">
      <g>
       <use style="fill:#262626;stroke:#262626;stroke-width:1.25;" x="37.791406" xlink:href="#mc439aa0138" y="165.8607"/>
      </g>
     </g>
     <g id="text_7">
      <!-- 3 -->
      <g style="fill:#262626;" transform="translate(22.174375 169.797497)scale(0.11 -0.11)">
       <defs>
        <path d="M 4.203125 18.890625 
L 12.984375 20.0625 
Q 14.5 12.59375 18.140625 9.296875 
Q 21.78125 6 27 6 
Q 33.203125 6 37.46875 10.296875 
Q 41.75 14.59375 41.75 20.953125 
Q 41.75 27 37.796875 30.921875 
Q 33.84375 34.859375 27.734375 34.859375 
Q 25.25 34.859375 21.53125 33.890625 
L 22.515625 41.609375 
Q 23.390625 41.5 23.921875 41.5 
Q 29.546875 41.5 34.03125 44.421875 
Q 38.53125 47.359375 38.53125 53.46875 
Q 38.53125 58.296875 35.25 61.46875 
Q 31.984375 64.65625 26.8125 64.65625 
Q 21.6875 64.65625 18.265625 61.421875 
Q 14.84375 58.203125 13.875 51.765625 
L 5.078125 53.328125 
Q 6.6875 62.15625 12.390625 67.015625 
Q 18.109375 71.875 26.609375 71.875 
Q 32.46875 71.875 37.390625 69.359375 
Q 42.328125 66.84375 44.9375 62.5 
Q 47.5625 58.15625 47.5625 53.265625 
Q 47.5625 48.640625 45.0625 44.828125 
Q 42.578125 41.015625 37.703125 38.765625 
Q 44.046875 37.3125 47.5625 32.6875 
Q 51.078125 28.078125 51.078125 21.140625 
Q 51.078125 11.765625 44.234375 5.25 
Q 37.40625 -1.265625 26.953125 -1.265625 
Q 17.53125 -1.265625 11.296875 4.34375 
Q 5.078125 9.96875 4.203125 18.890625 
z
" id="ArialMT-51"/>
       </defs>
       <use xlink:href="#ArialMT-51"/>
      </g>
     </g>
    </g>
    <g id="ytick_5">
     <g id="line2d_7">
      <g>
       <use style="fill:#262626;stroke:#262626;stroke-width:1.25;" x="37.791406" xlink:href="#mc439aa0138" y="114.286066"/>
      </g>
     </g>
     <g id="text_8">
      <!-- 4 -->
      <g style="fill:#262626;" transform="translate(22.174375 118.222863)scale(0.11 -0.11)">
       <use xlink:href="#ArialMT-52"/>
      </g>
     </g>
    </g>
    <g id="ytick_6">
     <g id="line2d_8">
      <g>
       <use style="fill:#262626;stroke:#262626;stroke-width:1.25;" x="37.791406" xlink:href="#mc439aa0138" y="62.711431"/>
      </g>
     </g>
     <g id="text_9">
      <!-- 5 -->
      <g style="fill:#262626;" transform="translate(22.174375 66.648228)scale(0.11 -0.11)">
       <defs>
        <path d="M 4.15625 18.75 
L 13.375 19.53125 
Q 14.40625 12.796875 18.140625 9.390625 
Q 21.875 6 27.15625 6 
Q 33.5 6 37.890625 10.78125 
Q 42.28125 15.578125 42.28125 23.484375 
Q 42.28125 31 38.0625 35.34375 
Q 33.84375 39.703125 27 39.703125 
Q 22.75 39.703125 19.328125 37.765625 
Q 15.921875 35.84375 13.96875 32.765625 
L 5.71875 33.84375 
L 12.640625 70.609375 
L 48.25 70.609375 
L 48.25 62.203125 
L 19.671875 62.203125 
L 15.828125 42.96875 
Q 22.265625 47.46875 29.34375 47.46875 
Q 38.71875 47.46875 45.15625 40.96875 
Q 51.609375 34.46875 51.609375 24.265625 
Q 51.609375 14.546875 45.953125 7.46875 
Q 39.0625 -1.21875 27.15625 -1.21875 
Q 17.390625 -1.21875 11.203125 4.25 
Q 5.03125 9.71875 4.15625 18.75 
z
" id="ArialMT-53"/>
       </defs>
       <use xlink:href="#ArialMT-53"/>
      </g>
     </g>
    </g>
    <g id="ytick_7">
     <g id="line2d_9">
      <g>
       <use style="fill:#262626;stroke:#262626;stroke-width:1.25;" x="37.791406" xlink:href="#mc439aa0138" y="11.136797"/>
      </g>
     </g>
     <g id="text_10">
      <!-- 6 -->
      <g style="fill:#262626;" transform="translate(22.174375 15.073594)scale(0.11 -0.11)">
       <defs>
        <path d="M 49.75 54.046875 
L 41.015625 53.375 
Q 39.84375 58.546875 37.703125 60.890625 
Q 34.125 64.65625 28.90625 64.65625 
Q 24.703125 64.65625 21.53125 62.3125 
Q 17.390625 59.28125 14.984375 53.46875 
Q 12.59375 47.65625 12.5 36.921875 
Q 15.671875 41.75 20.265625 44.09375 
Q 24.859375 46.4375 29.890625 46.4375 
Q 38.671875 46.4375 44.84375 39.96875 
Q 51.03125 33.5 51.03125 23.25 
Q 51.03125 16.5 48.125 10.71875 
Q 45.21875 4.9375 40.140625 1.859375 
Q 35.0625 -1.21875 28.609375 -1.21875 
Q 17.625 -1.21875 10.6875 6.859375 
Q 3.765625 14.9375 3.765625 33.5 
Q 3.765625 54.25 11.421875 63.671875 
Q 18.109375 71.875 29.4375 71.875 
Q 37.890625 71.875 43.28125 67.140625 
Q 48.6875 62.40625 49.75 54.046875 
z
M 13.875 23.1875 
Q 13.875 18.65625 15.796875 14.5 
Q 17.71875 10.359375 21.1875 8.171875 
Q 24.65625 6 28.46875 6 
Q 34.03125 6 38.03125 10.484375 
Q 42.046875 14.984375 42.046875 22.703125 
Q 42.046875 30.125 38.078125 34.390625 
Q 34.125 38.671875 28.125 38.671875 
Q 22.171875 38.671875 18.015625 34.390625 
Q 13.875 30.125 13.875 23.1875 
z
" id="ArialMT-54"/>
       </defs>
       <use xlink:href="#ArialMT-54"/>
      </g>
     </g>
    </g>
    <g id="text_11">
     <!-- l14d -->
     <g style="fill:#262626;" transform="translate(15.789375 177.203513)rotate(-90)scale(0.12 -0.12)">
      <defs>
       <path d="M 40.234375 0 
L 40.234375 6.546875 
Q 35.296875 -1.171875 25.734375 -1.171875 
Q 19.53125 -1.171875 14.328125 2.25 
Q 9.125 5.671875 6.265625 11.796875 
Q 3.421875 17.921875 3.421875 25.875 
Q 3.421875 33.640625 6 39.96875 
Q 8.59375 46.296875 13.765625 49.65625 
Q 18.953125 53.03125 25.34375 53.03125 
Q 30.03125 53.03125 33.6875 51.046875 
Q 37.359375 49.078125 39.65625 45.90625 
L 39.65625 71.578125 
L 48.390625 71.578125 
L 48.390625 0 
z
M 12.453125 25.875 
Q 12.453125 15.921875 16.640625 10.984375 
Q 20.84375 6.0625 26.5625 6.0625 
Q 32.328125 6.0625 36.34375 10.765625 
Q 40.375 15.484375 40.375 25.140625 
Q 40.375 35.796875 36.265625 40.765625 
Q 32.171875 45.75 26.171875 45.75 
Q 20.3125 45.75 16.375 40.96875 
Q 12.453125 36.1875 12.453125 25.875 
z
" id="ArialMT-100"/>
      </defs>
      <use xlink:href="#ArialMT-108"/>
      <use x="22.216797" xlink:href="#ArialMT-49"/>
      <use x="77.832031" xlink:href="#ArialMT-52"/>
      <use x="133.447266" xlink:href="#ArialMT-100"/>
     </g>
    </g>
   </g>
   <g id="PolyCollection_1">
    <defs>
     <path d="M 118.516427 -55.902585 
L 115.958585 -55.902585 
L 115.110899 -58.764881 
L 114.080918 -61.627177 
L 112.864891 -64.489474 
L 111.471482 -67.35177 
L 109.924077 -70.214066 
L 108.261746 -73.076362 
L 106.538383 -75.938658 
L 104.819652 -78.800955 
L 103.177703 -81.663251 
L 101.683943 -84.525547 
L 100.400541 -87.387843 
L 99.371645 -90.250139 
L 98.615513 -93.112436 
L 98.1188 -95.974732 
L 97.83408 -98.837028 
L 97.681366 -101.699324 
L 97.553934 -104.56162 
L 97.328188 -107.423917 
L 96.876753 -110.286213 
L 96.083515 -113.148509 
L 94.858915 -116.010805 
L 93.153635 -118.873101 
L 90.968819 -121.735398 
L 88.36122 -124.597694 
L 85.442116 -127.45999 
L 82.369558 -130.322286 
L 79.33428 -133.184583 
L 76.540538 -136.046879 
L 74.183874 -138.909175 
L 72.428452 -141.771471 
L 71.386829 -144.633767 
L 71.104914 -147.496064 
L 71.554286 -150.35836 
L 72.633161 -153.220656 
L 74.176169 -156.082952 
L 75.971935 -158.945248 
L 77.786439 -161.807545 
L 79.389367 -164.669841 
L 80.580294 -167.532137 
L 81.211591 -170.394433 
L 81.205321 -173.256729 
L 80.562168 -176.119026 
L 79.361339 -178.981322 
L 77.751452 -181.843618 
L 75.933476 -184.705914 
L 74.137717 -187.56821 
L 72.597565 -190.430507 
L 71.523145 -193.292803 
L 71.07802 -196.155099 
L 71.361721 -199.017395 
L 72.40014 -201.879691 
L 74.144761 -204.741988 
L 76.480556 -207.604284 
L 79.241261 -210.46658 
L 82.229815 -213.328876 
L 85.241223 -216.191172 
L 88.084944 -219.053469 
L 90.604164 -221.915765 
L 92.68991 -224.778061 
L 94.288749 -227.640357 
L 95.403705 -230.502654 
L 96.088844 -233.36495 
L 96.438677 -236.227246 
L 96.574013 -239.089542 
L 96.626172 -241.951838 
L 96.721459 -244.814135 
L 96.96766 -247.676431 
L 97.443909 -250.538727 
L 98.194782 -253.401023 
L 99.228923 -256.263319 
L 100.521882 -259.125616 
L 102.022416 -261.987912 
L 103.66108 -264.850208 
L 105.359828 -267.712504 
L 107.041322 -270.5748 
L 108.636872 -273.437097 
L 110.092244 -276.299393 
L 111.370981 -279.161689 
L 112.455217 -282.023985 
L 113.344338 -284.886281 
L 114.052009 -287.748578 
L 114.602215 -290.610874 
L 115.024955 -293.47317 
L 115.352146 -296.335466 
L 115.614157 -299.197762 
L 115.837216 -302.060059 
L 116.041827 -304.922355 
L 116.242136 -307.784651 
L 116.44613 -310.646947 
L 116.656462 -313.509243 
L 116.871675 -316.37154 
L 117.087591 -319.233836 
L 117.298669 -322.096132 
L 117.49918 -324.958428 
L 117.684091 -327.820725 
L 117.849643 -330.683021 
L 117.993601 -333.545317 
L 118.11526 -336.407613 
L 118.215244 -339.269909 
L 118.516427 -339.269909 
L 118.516427 -339.269909 
L 118.516427 -336.407613 
L 118.516427 -333.545317 
L 118.516427 -330.683021 
L 118.516427 -327.820725 
L 118.516427 -324.958428 
L 118.516427 -322.096132 
L 118.516427 -319.233836 
L 118.516427 -316.37154 
L 118.516427 -313.509243 
L 118.516427 -310.646947 
L 118.516427 -307.784651 
L 118.516427 -304.922355 
L 118.516427 -302.060059 
L 118.516427 -299.197762 
L 118.516427 -296.335466 
L 118.516427 -293.47317 
L 118.516427 -290.610874 
L 118.516427 -287.748578 
L 118.516427 -284.886281 
L 118.516427 -282.023985 
L 118.516427 -279.161689 
L 118.516427 -276.299393 
L 118.516427 -273.437097 
L 118.516427 -270.5748 
L 118.516427 -267.712504 
L 118.516427 -264.850208 
L 118.516427 -261.987912 
L 118.516427 -259.125616 
L 118.516427 -256.263319 
L 118.516427 -253.401023 
L 118.516427 -250.538727 
L 118.516427 -247.676431 
L 118.516427 -244.814135 
L 118.516427 -241.951838 
L 118.516427 -239.089542 
L 118.516427 -236.227246 
L 118.516427 -233.36495 
L 118.516427 -230.502654 
L 118.516427 -227.640357 
L 118.516427 -224.778061 
L 118.516427 -221.915765 
L 118.516427 -219.053469 
L 118.516427 -216.191172 
L 118.516427 -213.328876 
L 118.516427 -210.46658 
L 118.516427 -207.604284 
L 118.516427 -204.741988 
L 118.516427 -201.879691 
L 118.516427 -199.017395 
L 118.516427 -196.155099 
L 118.516427 -193.292803 
L 118.516427 -190.430507 
L 118.516427 -187.56821 
L 118.516427 -184.705914 
L 118.516427 -181.843618 
L 118.516427 -178.981322 
L 118.516427 -176.119026 
L 118.516427 -173.256729 
L 118.516427 -170.394433 
L 118.516427 -167.532137 
L 118.516427 -164.669841 
L 118.516427 -161.807545 
L 118.516427 -158.945248 
L 118.516427 -156.082952 
L 118.516427 -153.220656 
L 118.516427 -150.35836 
L 118.516427 -147.496064 
L 118.516427 -144.633767 
L 118.516427 -141.771471 
L 118.516427 -138.909175 
L 118.516427 -136.046879 
L 118.516427 -133.184583 
L 118.516427 -130.322286 
L 118.516427 -127.45999 
L 118.516427 -124.597694 
L 118.516427 -121.735398 
L 118.516427 -118.873101 
L 118.516427 -116.010805 
L 118.516427 -113.148509 
L 118.516427 -110.286213 
L 118.516427 -107.423917 
L 118.516427 -104.56162 
L 118.516427 -101.699324 
L 118.516427 -98.837028 
L 118.516427 -95.974732 
L 118.516427 -93.112436 
L 118.516427 -90.250139 
L 118.516427 -87.387843 
L 118.516427 -84.525547 
L 118.516427 -81.663251 
L 118.516427 -78.800955 
L 118.516427 -75.938658 
L 118.516427 -73.076362 
L 118.516427 -70.214066 
L 118.516427 -67.35177 
L 118.516427 -64.489474 
L 118.516427 -61.627177 
L 118.516427 -58.764881 
L 118.516427 -55.902585 
z
" id="mbb75e33b6f" style="stroke:#4c4c4c;stroke-width:1.5;"/>
    </defs>
    <g clip-path="url(#pe36292dfd3)">
     <use style="fill:#5875a4;stroke:#4c4c4c;stroke-width:1.5;" x="0" xlink:href="#mbb75e33b6f" y="363.446947"/>
    </g>
   </g>
   <g id="PolyCollection_2">
    <defs>
     <path d="M 123.043683 -61.305412 
L 118.516427 -61.305412 
L 118.516427 -64.05856 
L 118.516427 -66.811708 
L 118.516427 -69.564856 
L 118.516427 -72.318004 
L 118.516427 -75.071153 
L 118.516427 -77.824301 
L 118.516427 -80.577449 
L 118.516427 -83.330597 
L 118.516427 -86.083745 
L 118.516427 -88.836894 
L 118.516427 -91.590042 
L 118.516427 -94.34319 
L 118.516427 -97.096338 
L 118.516427 -99.849486 
L 118.516427 -102.602635 
L 118.516427 -105.355783 
L 118.516427 -108.108931 
L 118.516427 -110.862079 
L 118.516427 -113.615227 
L 118.516427 -116.368376 
L 118.516427 -119.121524 
L 118.516427 -121.874672 
L 118.516427 -124.62782 
L 118.516427 -127.380968 
L 118.516427 -130.134116 
L 118.516427 -132.887265 
L 118.516427 -135.640413 
L 118.516427 -138.393561 
L 118.516427 -141.146709 
L 118.516427 -143.899857 
L 118.516427 -146.653006 
L 118.516427 -149.406154 
L 118.516427 -152.159302 
L 118.516427 -154.91245 
L 118.516427 -157.665598 
L 118.516427 -160.418747 
L 118.516427 -163.171895 
L 118.516427 -165.925043 
L 118.516427 -168.678191 
L 118.516427 -171.431339 
L 118.516427 -174.184488 
L 118.516427 -176.937636 
L 118.516427 -179.690784 
L 118.516427 -182.443932 
L 118.516427 -185.19708 
L 118.516427 -187.950228 
L 118.516427 -190.703377 
L 118.516427 -193.456525 
L 118.516427 -196.209673 
L 118.516427 -198.962821 
L 118.516427 -201.715969 
L 118.516427 -204.469118 
L 118.516427 -207.222266 
L 118.516427 -209.975414 
L 118.516427 -212.728562 
L 118.516427 -215.48171 
L 118.516427 -218.234859 
L 118.516427 -220.988007 
L 118.516427 -223.741155 
L 118.516427 -226.494303 
L 118.516427 -229.247451 
L 118.516427 -232.0006 
L 118.516427 -234.753748 
L 118.516427 -237.506896 
L 118.516427 -240.260044 
L 118.516427 -243.013192 
L 118.516427 -245.766341 
L 118.516427 -248.519489 
L 118.516427 -251.272637 
L 118.516427 -254.025785 
L 118.516427 -256.778933 
L 118.516427 -259.532081 
L 118.516427 -262.28523 
L 118.516427 -265.038378 
L 118.516427 -267.791526 
L 118.516427 -270.544674 
L 118.516427 -273.297822 
L 118.516427 -276.050971 
L 118.516427 -278.804119 
L 118.516427 -281.557267 
L 118.516427 -284.310415 
L 118.516427 -287.063563 
L 118.516427 -289.816712 
L 118.516427 -292.56986 
L 118.516427 -295.323008 
L 118.516427 -298.076156 
L 118.516427 -300.829304 
L 118.516427 -303.582453 
L 118.516427 -306.335601 
L 118.516427 -309.088749 
L 118.516427 -311.841897 
L 118.516427 -314.595045 
L 118.516427 -317.348193 
L 118.516427 -320.101342 
L 118.516427 -322.85449 
L 118.516427 -325.607638 
L 118.516427 -328.360786 
L 118.516427 -331.113934 
L 118.516427 -333.867083 
L 118.6496 -333.867083 
L 118.6496 -333.867083 
L 118.699584 -331.113934 
L 118.761486 -328.360786 
L 118.835418 -325.607638 
L 118.920431 -322.85449 
L 119.014346 -320.101342 
L 119.113743 -317.348193 
L 119.214183 -314.595045 
L 119.310676 -311.841897 
L 119.398409 -309.088749 
L 119.473676 -306.335601 
L 119.534929 -303.582453 
L 119.58381 -300.829304 
L 119.626053 -298.076156 
L 119.67207 -295.323008 
L 119.737107 -292.56986 
L 119.840823 -289.816712 
L 120.006211 -287.063563 
L 120.257769 -284.310415 
L 120.618965 -281.557267 
L 121.109088 -278.804119 
L 121.739747 -276.050971 
L 122.511444 -273.297822 
L 123.410784 -270.544674 
L 124.408974 -267.791526 
L 125.462256 -265.038378 
L 126.514712 -262.28523 
L 127.503577 -259.532081 
L 128.366773 -256.778933 
L 129.051907 -254.025785 
L 129.525622 -251.272637 
L 129.781992 -248.519489 
L 129.848628 -245.766341 
L 129.789428 -243.013192 
L 129.703221 -240.260044 
L 129.718003 -237.506896 
L 129.980903 -234.753748 
L 130.644344 -232.0006 
L 131.849302 -229.247451 
L 133.706881 -226.494303 
L 136.279924 -223.741155 
L 139.566833 -220.988007 
L 143.490126 -218.234859 
L 147.892394 -215.48171 
L 152.54186 -212.728562 
L 157.148757 -209.975414 
L 161.392111 -207.222266 
L 164.954594 -204.469118 
L 167.56124 -201.715969 
L 169.016549 -198.962821 
L 169.23419 -196.209673 
L 168.254333 -193.456525 
L 166.245485 -190.703377 
L 163.490173 -187.950228 
L 160.356292 -185.19708 
L 157.25796 -182.443932 
L 154.61086 -179.690784 
L 152.787318 -176.937636 
L 152.075843 -174.184488 
L 152.649014 -171.431339 
L 154.54258 -168.678191 
L 157.647801 -165.925043 
L 161.718214 -163.171895 
L 166.391028 -160.418747 
L 171.222112 -157.665598 
L 175.731856 -154.91245 
L 179.457406 -152.159302 
L 182.005134 -149.406154 
L 183.096443 -146.653006 
L 182.60029 -143.899857 
L 180.547515 -141.146709 
L 177.124789 -138.393561 
L 172.649278 -135.640413 
L 167.52818 -132.887265 
L 162.209434 -130.134116 
L 157.130765 -127.380968 
L 152.67368 -124.62782 
L 149.127512 -121.874672 
L 146.666471 -119.121524 
L 145.340648 -116.368376 
L 145.080246 -113.615227 
L 145.711218 -110.862079 
L 146.979883 -108.108931 
L 148.583723 -105.355783 
L 150.205328 -102.602635 
L 151.546188 -99.849486 
L 152.356926 -97.096338 
L 152.460704 -94.34319 
L 151.767169 -91.590042 
L 150.27544 -88.836894 
L 148.066159 -86.083745 
L 145.284287 -83.330597 
L 142.11571 -80.577449 
L 138.761536 -77.824301 
L 135.414006 -75.071153 
L 132.23725 -72.318004 
L 129.354904 -69.564856 
L 126.845132 -66.811708 
L 124.742312 -64.05856 
L 123.043683 -61.305412 
z
" id="m9a5f013297" style="stroke:#4c4c4c;stroke-width:1.5;"/>
    </defs>
    <g clip-path="url(#pe36292dfd3)">
     <use style="fill:#cc8963;stroke:#4c4c4c;stroke-width:1.5;" x="0" xlink:href="#m9a5f013297" y="363.446947"/>
    </g>
   </g>
   <g id="PolyCollection_3">
    <defs>
     <path d="M 279.966468 -59.750383 
L 279.277886 -59.750383 
L 279.029211 -62.534946 
L 278.723119 -65.319509 
L 278.358876 -68.104072 
L 277.940498 -70.888635 
L 277.477569 -73.673198 
L 276.985433 -76.457761 
L 276.484519 -79.242324 
L 275.998671 -82.026887 
L 275.552495 -84.81145 
L 275.167925 -87.596012 
L 274.860358 -90.380575 
L 274.634859 -93.165138 
L 274.483004 -95.949701 
L 274.380892 -98.734264 
L 274.288811 -101.518827 
L 274.152854 -104.30339 
L 273.908621 -107.087953 
L 273.486929 -109.872516 
L 272.8212 -112.657079 
L 271.85599 -115.441641 
L 270.555827 -118.226204 
L 268.913339 -121.010767 
L 266.955461 -123.79533 
L 264.746503 -126.579893 
L 262.387019 -129.364456 
L 260.007876 -132.149019 
L 257.759522 -134.933582 
L 255.797318 -137.718145 
L 254.264535 -140.502708 
L 253.275281 -143.287271 
L 252.899843 -146.071833 
L 253.154755 -148.856396 
L 253.999238 -151.640959 
L 255.338707 -154.425522 
L 257.034902 -157.210085 
L 258.921214 -159.994648 
L 260.821059 -162.779211 
L 262.566852 -165.563774 
L 264.017243 -168.348337 
L 265.070705 -171.1329 
L 265.674199 -173.917462 
L 265.826305 -176.702025 
L 265.574831 -179.486588 
L 265.009424 -182.271151 
L 264.250136 -185.055714 
L 263.433225 -187.840277 
L 262.695713 -190.62484 
L 262.160378 -193.409403 
L 261.922851 -196.193966 
L 262.042274 -198.978529 
L 262.536566 -201.763092 
L 263.382753 -204.547654 
L 264.522088 -207.332217 
L 265.869079 -210.11678 
L 267.322983 -212.901343 
L 268.780132 -215.685906 
L 270.145445 -218.470469 
L 271.341801 -221.255032 
L 272.316398 -224.039595 
L 273.04372 -226.824158 
L 273.525221 -229.608721 
L 273.78618 -232.393283 
L 273.870419 -235.177846 
L 273.833682 -237.962409 
L 273.736468 -240.746972 
L 273.637104 -243.531535 
L 273.585714 -246.316098 
L 273.619633 -249.100661 
L 273.760635 -251.885224 
L 274.014149 -254.669787 
L 274.370395 -257.45435 
L 274.807148 -260.238913 
L 275.293664 -263.023475 
L 275.795181 -265.808038 
L 276.277398 -268.592601 
L 276.7104 -271.377164 
L 277.071623 -274.161727 
L 277.347659 -276.94629 
L 277.534841 -279.730853 
L 277.638695 -282.515416 
L 277.672484 -285.299979 
L 277.655077 -288.084542 
L 277.60845 -290.869104 
L 277.555098 -293.653667 
L 277.51563 -296.43823 
L 277.506783 -299.222793 
L 277.540033 -302.007356 
L 277.62093 -304.791919 
L 277.749157 -307.576482 
L 277.919265 -310.361045 
L 278.121917 -313.145608 
L 278.345428 -315.930171 
L 278.577377 -318.714734 
L 278.806049 -321.499296 
L 279.021555 -324.283859 
L 279.216524 -327.068422 
L 279.386366 -329.852985 
L 279.529141 -332.637548 
L 279.645157 -335.422111 
L 279.966468 -335.422111 
L 279.966468 -335.422111 
L 279.966468 -332.637548 
L 279.966468 -329.852985 
L 279.966468 -327.068422 
L 279.966468 -324.283859 
L 279.966468 -321.499296 
L 279.966468 -318.714734 
L 279.966468 -315.930171 
L 279.966468 -313.145608 
L 279.966468 -310.361045 
L 279.966468 -307.576482 
L 279.966468 -304.791919 
L 279.966468 -302.007356 
L 279.966468 -299.222793 
L 279.966468 -296.43823 
L 279.966468 -293.653667 
L 279.966468 -290.869104 
L 279.966468 -288.084542 
L 279.966468 -285.299979 
L 279.966468 -282.515416 
L 279.966468 -279.730853 
L 279.966468 -276.94629 
L 279.966468 -274.161727 
L 279.966468 -271.377164 
L 279.966468 -268.592601 
L 279.966468 -265.808038 
L 279.966468 -263.023475 
L 279.966468 -260.238913 
L 279.966468 -257.45435 
L 279.966468 -254.669787 
L 279.966468 -251.885224 
L 279.966468 -249.100661 
L 279.966468 -246.316098 
L 279.966468 -243.531535 
L 279.966468 -240.746972 
L 279.966468 -237.962409 
L 279.966468 -235.177846 
L 279.966468 -232.393283 
L 279.966468 -229.608721 
L 279.966468 -226.824158 
L 279.966468 -224.039595 
L 279.966468 -221.255032 
L 279.966468 -218.470469 
L 279.966468 -215.685906 
L 279.966468 -212.901343 
L 279.966468 -210.11678 
L 279.966468 -207.332217 
L 279.966468 -204.547654 
L 279.966468 -201.763092 
L 279.966468 -198.978529 
L 279.966468 -196.193966 
L 279.966468 -193.409403 
L 279.966468 -190.62484 
L 279.966468 -187.840277 
L 279.966468 -185.055714 
L 279.966468 -182.271151 
L 279.966468 -179.486588 
L 279.966468 -176.702025 
L 279.966468 -173.917462 
L 279.966468 -171.1329 
L 279.966468 -168.348337 
L 279.966468 -165.563774 
L 279.966468 -162.779211 
L 279.966468 -159.994648 
L 279.966468 -157.210085 
L 279.966468 -154.425522 
L 279.966468 -151.640959 
L 279.966468 -148.856396 
L 279.966468 -146.071833 
L 279.966468 -143.287271 
L 279.966468 -140.502708 
L 279.966468 -137.718145 
L 279.966468 -134.933582 
L 279.966468 -132.149019 
L 279.966468 -129.364456 
L 279.966468 -126.579893 
L 279.966468 -123.79533 
L 279.966468 -121.010767 
L 279.966468 -118.226204 
L 279.966468 -115.441641 
L 279.966468 -112.657079 
L 279.966468 -109.872516 
L 279.966468 -107.087953 
L 279.966468 -104.30339 
L 279.966468 -101.518827 
L 279.966468 -98.734264 
L 279.966468 -95.949701 
L 279.966468 -93.165138 
L 279.966468 -90.380575 
L 279.966468 -87.596012 
L 279.966468 -84.81145 
L 279.966468 -82.026887 
L 279.966468 -79.242324 
L 279.966468 -76.457761 
L 279.966468 -73.673198 
L 279.966468 -70.888635 
L 279.966468 -68.104072 
L 279.966468 -65.319509 
L 279.966468 -62.534946 
L 279.966468 -59.750383 
z
" id="m817cb66c9e" style="stroke:#4c4c4c;stroke-width:1.5;"/>
    </defs>
    <g clip-path="url(#pe36292dfd3)">
     <use style="fill:#5875a4;stroke:#4c4c4c;stroke-width:1.5;" x="0" xlink:href="#m817cb66c9e" y="363.446947"/>
    </g>
   </g>
   <g id="PolyCollection_4">
    <defs>
     <path d="M 284.64239 -68.202598 
L 279.966468 -68.202598 
L 279.966468 -70.816409 
L 279.966468 -73.430221 
L 279.966468 -76.044032 
L 279.966468 -78.657843 
L 279.966468 -81.271654 
L 279.966468 -83.885465 
L 279.966468 -86.499276 
L 279.966468 -89.113087 
L 279.966468 -91.726898 
L 279.966468 -94.340709 
L 279.966468 -96.95452 
L 279.966468 -99.568331 
L 279.966468 -102.182143 
L 279.966468 -104.795954 
L 279.966468 -107.409765 
L 279.966468 -110.023576 
L 279.966468 -112.637387 
L 279.966468 -115.251198 
L 279.966468 -117.865009 
L 279.966468 -120.47882 
L 279.966468 -123.092631 
L 279.966468 -125.706442 
L 279.966468 -128.320253 
L 279.966468 -130.934064 
L 279.966468 -133.547876 
L 279.966468 -136.161687 
L 279.966468 -138.775498 
L 279.966468 -141.389309 
L 279.966468 -144.00312 
L 279.966468 -146.616931 
L 279.966468 -149.230742 
L 279.966468 -151.844553 
L 279.966468 -154.458364 
L 279.966468 -157.072175 
L 279.966468 -159.685986 
L 279.966468 -162.299797 
L 279.966468 -164.913609 
L 279.966468 -167.52742 
L 279.966468 -170.141231 
L 279.966468 -172.755042 
L 279.966468 -175.368853 
L 279.966468 -177.982664 
L 279.966468 -180.596475 
L 279.966468 -183.210286 
L 279.966468 -185.824097 
L 279.966468 -188.437908 
L 279.966468 -191.051719 
L 279.966468 -193.665531 
L 279.966468 -196.279342 
L 279.966468 -198.893153 
L 279.966468 -201.506964 
L 279.966468 -204.120775 
L 279.966468 -206.734586 
L 279.966468 -209.348397 
L 279.966468 -211.962208 
L 279.966468 -214.576019 
L 279.966468 -217.18983 
L 279.966468 -219.803641 
L 279.966468 -222.417452 
L 279.966468 -225.031264 
L 279.966468 -227.645075 
L 279.966468 -230.258886 
L 279.966468 -232.872697 
L 279.966468 -235.486508 
L 279.966468 -238.100319 
L 279.966468 -240.71413 
L 279.966468 -243.327941 
L 279.966468 -245.941752 
L 279.966468 -248.555563 
L 279.966468 -251.169374 
L 279.966468 -253.783186 
L 279.966468 -256.396997 
L 279.966468 -259.010808 
L 279.966468 -261.624619 
L 279.966468 -264.23843 
L 279.966468 -266.852241 
L 279.966468 -269.466052 
L 279.966468 -272.079863 
L 279.966468 -274.693674 
L 279.966468 -277.307485 
L 279.966468 -279.921296 
L 279.966468 -282.535107 
L 279.966468 -285.148919 
L 279.966468 -287.76273 
L 279.966468 -290.376541 
L 279.966468 -292.990352 
L 279.966468 -295.604163 
L 279.966468 -298.217974 
L 279.966468 -300.831785 
L 279.966468 -303.445596 
L 279.966468 -306.059407 
L 279.966468 -308.673218 
L 279.966468 -311.287029 
L 279.966468 -313.900841 
L 279.966468 -316.514652 
L 279.966468 -319.128463 
L 279.966468 -321.742274 
L 279.966468 -324.356085 
L 279.966468 -326.969896 
L 280.269537 -326.969896 
L 280.269537 -326.969896 
L 280.409056 -324.356085 
L 280.587642 -321.742274 
L 280.80435 -319.128463 
L 281.052666 -316.514652 
L 281.319761 -313.900841 
L 281.58691 -311.287029 
L 281.831293 -308.673218 
L 282.029066 -306.059407 
L 282.159184 -303.445596 
L 282.207167 -300.831785 
L 282.16793 -298.217974 
L 282.046968 -295.604163 
L 281.859659 -292.990352 
L 281.628907 -290.376541 
L 281.381798 -287.76273 
L 281.146109 -285.148919 
L 280.947377 -282.535107 
L 280.806939 -279.921296 
L 280.740902 -277.307485 
L 280.759682 -274.693674 
L 280.867643 -272.079863 
L 281.062503 -269.466052 
L 281.334497 -266.852241 
L 281.665659 -264.23843 
L 282.029876 -261.624619 
L 282.39431 -259.010808 
L 282.722563 -256.396997 
L 282.979391 -253.783186 
L 283.13626 -251.169374 
L 283.17666 -248.555563 
L 283.100073 -245.941752 
L 282.923878 -243.327941 
L 282.683066 -240.71413 
L 282.428309 -238.100319 
L 282.223215 -235.486508 
L 282.141487 -232.872697 
L 282.264095 -230.258886 
L 282.67572 -227.645075 
L 283.45906 -225.031264 
L 284.685545 -222.417452 
L 286.401795 -219.803641 
L 288.6129 -217.18983 
L 291.265739 -214.576019 
L 294.237319 -211.962208 
L 297.333701 -209.348397 
L 300.303659 -206.734586 
L 302.867888 -204.120775 
L 304.760122 -201.506964 
L 305.772325 -198.893153 
L 305.793918 -196.279342 
L 304.835782 -193.665531 
L 303.033626 -191.051719 
L 300.630901 -188.437908 
L 297.946874 -185.824097 
L 295.338655 -183.210286 
L 293.165839 -180.596475 
L 291.763111 -177.982664 
L 291.421148 -175.368853 
L 292.371705 -172.755042 
L 294.770713 -170.141231 
L 298.674915 -167.52742 
L 304.01242 -164.913609 
L 310.553968 -162.299797 
L 317.896942 -159.685986 
L 325.475455 -157.072175 
L 332.605768 -154.458364 
L 338.567122 -151.844553 
L 342.706566 -149.230742 
L 344.546484 -146.616931 
L 343.869403 -144.00312 
L 340.758446 -141.389309 
L 335.582823 -138.775498 
L 328.932396 -136.161687 
L 321.518587 -133.547876 
L 314.066214 -130.934064 
L 307.220141 -128.320253 
L 301.482811 -125.706442 
L 297.187364 -123.092631 
L 294.500384 -120.47882 
L 293.441935 -117.865009 
L 293.909932 -115.251198 
L 295.700246 -112.637387 
L 298.520781 -110.023576 
L 302.003957 -107.409765 
L 305.725125 -104.795954 
L 309.233154 -102.182143 
L 312.094557 -99.568331 
L 313.945893 -96.95452 
L 314.543775 -94.340709 
L 313.799852 -91.726898 
L 311.790666 -89.113087 
L 308.738579 -86.499276 
L 304.967781 -83.885465 
L 300.845922 -81.271654 
L 296.724978 -78.657843 
L 292.893808 -76.044032 
L 289.550304 -73.430221 
L 286.794971 -70.816409 
L 284.64239 -68.202598 
z
" id="mfc2943f42c" style="stroke:#4c4c4c;stroke-width:1.5;"/>
    </defs>
    <g clip-path="url(#pe36292dfd3)">
     <use style="fill:#cc8963;stroke:#4c4c4c;stroke-width:1.5;" x="0" xlink:href="#mfc2943f42c" y="363.446947"/>
    </g>
   </g>
   <g id="patch_3">
    <path clip-path="url(#pe36292dfd3)" d="M 118.516427 320.584604 
L 118.516427 320.584604 
L 118.516427 320.584604 
L 118.516427 320.584604 
z
" style="fill:#5875a4;stroke:#4c4c4c;stroke-linejoin:miter;stroke-width:0.75;"/>
   </g>
   <g id="patch_4">
    <path clip-path="url(#pe36292dfd3)" d="M 118.516427 320.584604 
L 118.516427 320.584604 
L 118.516427 320.584604 
L 118.516427 320.584604 
z
" style="fill:#cc8963;stroke:#4c4c4c;stroke-linejoin:miter;stroke-width:0.75;"/>
   </g>
   <g id="line2d_10">
    <path clip-path="url(#pe36292dfd3)" d="M 118.516427 269.009969 
L 118.516427 114.286066 
" style="fill:none;stroke:#4c4c4c;stroke-linecap:round;stroke-width:1.5;"/>
   </g>
   <g id="line2d_11">
    <path clip-path="url(#pe36292dfd3)" d="M 118.516427 217.435335 
L 118.516427 165.8607 
" style="fill:none;stroke:#4c4c4c;stroke-linecap:round;stroke-width:4.5;"/>
   </g>
   <g id="line2d_12">
    <path clip-path="url(#pe36292dfd3)" d="M 279.966468 269.009969 
L 279.966468 114.286066 
" style="fill:none;stroke:#4c4c4c;stroke-linecap:round;stroke-width:1.5;"/>
   </g>
   <g id="line2d_13">
    <path clip-path="url(#pe36292dfd3)" d="M 279.966468 217.435335 
L 279.966468 165.8607 
" style="fill:none;stroke:#4c4c4c;stroke-linecap:round;stroke-width:4.5;"/>
   </g>
   <g id="patch_5">
    <path d="M 37.791406 321.712729 
L 37.791406 10.008672 
" style="fill:none;stroke:#262626;stroke-linecap:square;stroke-linejoin:miter;stroke-width:1.25;"/>
   </g>
   <g id="patch_6">
    <path d="M 37.791406 321.712729 
L 360.691489 321.712729 
" style="fill:none;stroke:#262626;stroke-linecap:square;stroke-linejoin:miter;stroke-width:1.25;"/>
   </g>
   <g id="PathCollection_1">
    <defs>
     <path d="M 0 1.5 
C 0.397805 1.5 0.77937 1.341951 1.06066 1.06066 
C 1.341951 0.77937 1.5 0.397805 1.5 0 
C 1.5 -0.397805 1.341951 -0.77937 1.06066 -1.06066 
C 0.77937 -1.341951 0.397805 -1.5 0 -1.5 
C -0.397805 -1.5 -0.77937 -1.341951 -1.06066 -1.06066 
C -1.341951 -0.77937 -1.5 -0.397805 -1.5 0 
C -1.5 0.397805 -1.341951 0.77937 -1.06066 1.06066 
C -0.77937 1.341951 -0.397805 1.5 0 1.5 
z
" id="m6a58de9dfa" style="stroke:#4c4c4c;"/>
    </defs>
    <g clip-path="url(#pe36292dfd3)">
     <use style="fill:#ffffff;stroke:#4c4c4c;" x="118.516427" xlink:href="#m6a58de9dfa" y="217.435335"/>
    </g>
   </g>
   <g id="PathCollection_2">
    <g clip-path="url(#pe36292dfd3)">
     <use style="fill:#ffffff;stroke:#4c4c4c;" x="279.966468" xlink:href="#m6a58de9dfa" y="217.435335"/>
    </g>
   </g>
  </g>
  <g id="legend_1">
   <g id="text_12">
    <!-- a91 -->
    <g style="fill:#262626;" transform="translate(378.561551 169.265817)scale(0.12 -0.12)">
     <defs>
      <path d="M 40.4375 6.390625 
Q 35.546875 2.25 31.03125 0.53125 
Q 26.515625 -1.171875 21.34375 -1.171875 
Q 12.796875 -1.171875 8.203125 3 
Q 3.609375 7.171875 3.609375 13.671875 
Q 3.609375 17.484375 5.34375 20.625 
Q 7.078125 23.78125 9.890625 25.6875 
Q 12.703125 27.59375 16.21875 28.5625 
Q 18.796875 29.25 24.03125 29.890625 
Q 34.671875 31.15625 39.703125 32.90625 
Q 39.75 34.71875 39.75 35.203125 
Q 39.75 40.578125 37.25 42.78125 
Q 33.890625 45.75 27.25 45.75 
Q 21.046875 45.75 18.09375 43.578125 
Q 15.140625 41.40625 13.71875 35.890625 
L 5.125 37.0625 
Q 6.296875 42.578125 8.984375 45.96875 
Q 11.671875 49.359375 16.75 51.1875 
Q 21.828125 53.03125 28.515625 53.03125 
Q 35.15625 53.03125 39.296875 51.46875 
Q 43.453125 49.90625 45.40625 47.53125 
Q 47.359375 45.171875 48.140625 41.546875 
Q 48.578125 39.3125 48.578125 33.453125 
L 48.578125 21.734375 
Q 48.578125 9.46875 49.140625 6.21875 
Q 49.703125 2.984375 51.375 0 
L 42.1875 0 
Q 40.828125 2.734375 40.4375 6.390625 
z
M 39.703125 26.03125 
Q 34.90625 24.078125 25.34375 22.703125 
Q 19.921875 21.921875 17.671875 20.9375 
Q 15.4375 19.96875 14.203125 18.09375 
Q 12.984375 16.21875 12.984375 13.921875 
Q 12.984375 10.40625 15.640625 8.0625 
Q 18.3125 5.71875 23.4375 5.71875 
Q 28.515625 5.71875 32.46875 7.9375 
Q 36.421875 10.15625 38.28125 14.015625 
Q 39.703125 17 39.703125 22.796875 
z
" id="ArialMT-97"/>
     </defs>
     <use xlink:href="#ArialMT-97"/>
     <use x="55.615234" xlink:href="#ArialMT-57"/>
     <use x="111.230469" xlink:href="#ArialMT-49"/>
    </g>
   </g>
   <g id="patch_7">
    <path d="M 365.526239 185.024411 
L 387.526239 185.024411 
L 387.526239 177.324411 
L 365.526239 177.324411 
z
" style="fill:#5875a4;stroke:#4c4c4c;stroke-linejoin:miter;stroke-width:0.75;"/>
   </g>
   <g id="text_13">
    <!-- 1.0 -->
    <g style="fill:#262626;" transform="translate(396.326239 185.024411)scale(0.11 -0.11)">
     <use xlink:href="#ArialMT-49"/>
     <use x="55.615234" xlink:href="#ArialMT-46"/>
     <use x="83.398438" xlink:href="#ArialMT-48"/>
    </g>
   </g>
   <g id="patch_8">
    <path d="M 365.526239 200.584255 
L 387.526239 200.584255 
L 387.526239 192.884255 
L 365.526239 192.884255 
z
" style="fill:#cc8963;stroke:#4c4c4c;stroke-linejoin:miter;stroke-width:0.75;"/>
   </g>
   <g id="text_14">
    <!-- 2.0 -->
    <g style="fill:#262626;" transform="translate(396.326239 200.584255)scale(0.11 -0.11)">
     <use xlink:href="#ArialMT-50"/>
     <use x="55.615234" xlink:href="#ArialMT-46"/>
     <use x="83.398438" xlink:href="#ArialMT-48"/>
    </g>
   </g>
  </g>
 </g>
 <defs>
  <clipPath id="pe36292dfd3">
   <rect height="311.704057" width="322.900082" x="37.791406" y="10.008672"/>
  </clipPath>
 </defs>
</svg>
