<?xml version="1.0" encoding="utf-8" standalone="no"?>
<!DOCTYPE svg PUBLIC "-//W3C//DTD SVG 1.1//EN"
  "http://www.w3.org/Graphics/SVG/1.1/DTD/svg11.dtd">
<!-- Created with matplotlib (https://matplotlib.org/) -->
<svg height="363.514219pt" version="1.1" viewBox="0 0 419.083348 363.514219" width="419.083348pt" xmlns="http://www.w3.org/2000/svg" xmlns:xlink="http://www.w3.org/1999/xlink">
 <metadata>
  <rdf:RDF xmlns:cc="http://creativecommons.org/ns#" xmlns:dc="http://purl.org/dc/elements/1.1/" xmlns:rdf="http://www.w3.org/1999/02/22-rdf-syntax-ns#">
   <cc:Work>
    <dc:type rdf:resource="http://purl.org/dc/dcmitype/StillImage"/>
    <dc:date>2021-03-10T10:49:45.379332</dc:date>
    <dc:format>image/svg+xml</dc:format>
    <dc:creator>
     <cc:Agent>
      <dc:title>Matplotlib v3.3.2, https://matplotlib.org/</dc:title>
     </cc:Agent>
    </dc:creator>
   </cc:Work>
  </rdf:RDF>
 </metadata>
 <defs>
  <style type="text/css">*{stroke-linecap:butt;stroke-linejoin:round;}</style>
 </defs>
 <g id="figure_1">
  <g id="patch_1">
   <path d="M 0 363.514219 
L 419.083348 363.514219 
L 419.083348 0 
L 0 0 
z
" style="fill:#ffffff;"/>
  </g>
  <g id="axes_1">
   <g id="patch_2">
    <path d="M 53.081406 321.78 
L 358.258598 321.78 
L 358.258598 7.2 
L 53.081406 7.2 
z
" style="fill:#ffffff;"/>
   </g>
   <g id="matplotlib.axis_1">
    <g id="xtick_1">
     <g id="line2d_1">
      <defs>
       <path d="M 0 0 
L 0 6 
" id="ma1bb46dd86" style="stroke:#262626;stroke-width:1.25;"/>
      </defs>
      <g>
       <use style="fill:#262626;stroke:#262626;stroke-width:1.25;" x="129.375704" xlink:href="#ma1bb46dd86" y="321.78"/>
      </g>
     </g>
     <g id="text_1">
      <!-- 1.0 -->
      <g style="fill:#262626;" transform="translate(121.730704 339.153594)scale(0.11 -0.11)">
       <defs>
        <path d="M 37.25 0 
L 28.46875 0 
L 28.46875 56 
Q 25.296875 52.984375 20.140625 49.953125 
Q 14.984375 46.921875 10.890625 45.40625 
L 10.890625 53.90625 
Q 18.265625 57.375 23.78125 62.296875 
Q 29.296875 67.234375 31.59375 71.875 
L 37.25 71.875 
z
" id="ArialMT-49"/>
        <path d="M 9.078125 0 
L 9.078125 10.015625 
L 19.09375 10.015625 
L 19.09375 0 
z
" id="ArialMT-46"/>
        <path d="M 4.15625 35.296875 
Q 4.15625 48 6.765625 55.734375 
Q 9.375 63.484375 14.515625 67.671875 
Q 19.671875 71.875 27.484375 71.875 
Q 33.25 71.875 37.59375 69.546875 
Q 41.9375 67.234375 44.765625 62.859375 
Q 47.609375 58.5 49.21875 52.21875 
Q 50.828125 45.953125 50.828125 35.296875 
Q 50.828125 22.703125 48.234375 14.96875 
Q 45.65625 7.234375 40.5 3 
Q 35.359375 -1.21875 27.484375 -1.21875 
Q 17.140625 -1.21875 11.234375 6.203125 
Q 4.15625 15.140625 4.15625 35.296875 
z
M 13.1875 35.296875 
Q 13.1875 17.671875 17.3125 11.828125 
Q 21.4375 6 27.484375 6 
Q 33.546875 6 37.671875 11.859375 
Q 41.796875 17.71875 41.796875 35.296875 
Q 41.796875 52.984375 37.671875 58.78125 
Q 33.546875 64.59375 27.390625 64.59375 
Q 21.34375 64.59375 17.71875 59.46875 
Q 13.1875 52.9375 13.1875 35.296875 
z
" id="ArialMT-48"/>
       </defs>
       <use xlink:href="#ArialMT-49"/>
       <use x="55.615234" xlink:href="#ArialMT-46"/>
       <use x="83.398438" xlink:href="#ArialMT-48"/>
      </g>
     </g>
    </g>
    <g id="xtick_2">
     <g id="line2d_2">
      <g>
       <use style="fill:#262626;stroke:#262626;stroke-width:1.25;" x="281.9643" xlink:href="#ma1bb46dd86" y="321.78"/>
      </g>
     </g>
     <g id="text_2">
      <!-- 2.0 -->
      <g style="fill:#262626;" transform="translate(274.3193 339.153594)scale(0.11 -0.11)">
       <defs>
        <path d="M 50.34375 8.453125 
L 50.34375 0 
L 3.03125 0 
Q 2.9375 3.171875 4.046875 6.109375 
Q 5.859375 10.9375 9.828125 15.625 
Q 13.8125 20.3125 21.34375 26.46875 
Q 33.015625 36.03125 37.109375 41.625 
Q 41.21875 47.21875 41.21875 52.203125 
Q 41.21875 57.421875 37.46875 61 
Q 33.734375 64.59375 27.734375 64.59375 
Q 21.390625 64.59375 17.578125 60.78125 
Q 13.765625 56.984375 13.71875 50.25 
L 4.6875 51.171875 
Q 5.609375 61.28125 11.65625 66.578125 
Q 17.71875 71.875 27.9375 71.875 
Q 38.234375 71.875 44.234375 66.15625 
Q 50.25 60.453125 50.25 52 
Q 50.25 47.703125 48.484375 43.546875 
Q 46.734375 39.40625 42.65625 34.8125 
Q 38.578125 30.21875 29.109375 22.21875 
Q 21.1875 15.578125 18.9375 13.203125 
Q 16.703125 10.84375 15.234375 8.453125 
z
" id="ArialMT-50"/>
       </defs>
       <use xlink:href="#ArialMT-50"/>
       <use x="55.615234" xlink:href="#ArialMT-46"/>
       <use x="83.398438" xlink:href="#ArialMT-48"/>
      </g>
     </g>
    </g>
    <g id="text_3">
     <!-- l2409 -->
     <g style="fill:#262626;" transform="translate(190.990627 353.929219)scale(0.12 -0.12)">
      <defs>
       <path d="M 6.390625 0 
L 6.390625 71.578125 
L 15.1875 71.578125 
L 15.1875 0 
z
" id="ArialMT-108"/>
       <path d="M 32.328125 0 
L 32.328125 17.140625 
L 1.265625 17.140625 
L 1.265625 25.203125 
L 33.9375 71.578125 
L 41.109375 71.578125 
L 41.109375 25.203125 
L 50.78125 25.203125 
L 50.78125 17.140625 
L 41.109375 17.140625 
L 41.109375 0 
z
M 32.328125 25.203125 
L 32.328125 57.46875 
L 9.90625 25.203125 
z
" id="ArialMT-52"/>
       <path d="M 5.46875 16.546875 
L 13.921875 17.328125 
Q 14.984375 11.375 18.015625 8.6875 
Q 21.046875 6 25.78125 6 
Q 29.828125 6 32.875 7.859375 
Q 35.9375 9.71875 37.890625 12.8125 
Q 39.84375 15.921875 41.15625 21.1875 
Q 42.484375 26.46875 42.484375 31.9375 
Q 42.484375 32.515625 42.4375 33.6875 
Q 39.796875 29.5 35.234375 26.875 
Q 30.671875 24.265625 25.34375 24.265625 
Q 16.453125 24.265625 10.296875 30.703125 
Q 4.15625 37.15625 4.15625 47.703125 
Q 4.15625 58.59375 10.578125 65.234375 
Q 17 71.875 26.65625 71.875 
Q 33.640625 71.875 39.421875 68.109375 
Q 45.21875 64.359375 48.21875 57.390625 
Q 51.21875 50.4375 51.21875 37.25 
Q 51.21875 23.53125 48.234375 15.40625 
Q 45.265625 7.28125 39.375 3.03125 
Q 33.5 -1.21875 25.59375 -1.21875 
Q 17.1875 -1.21875 11.859375 3.4375 
Q 6.546875 8.109375 5.46875 16.546875 
z
M 41.453125 48.140625 
Q 41.453125 55.71875 37.421875 60.15625 
Q 33.40625 64.59375 27.734375 64.59375 
Q 21.875 64.59375 17.53125 59.8125 
Q 13.1875 55.03125 13.1875 47.40625 
Q 13.1875 40.578125 17.3125 36.296875 
Q 21.4375 32.03125 27.484375 32.03125 
Q 33.59375 32.03125 37.515625 36.296875 
Q 41.453125 40.578125 41.453125 48.140625 
z
" id="ArialMT-57"/>
      </defs>
      <use xlink:href="#ArialMT-108"/>
      <use x="22.216797" xlink:href="#ArialMT-50"/>
      <use x="77.832031" xlink:href="#ArialMT-52"/>
      <use x="133.447266" xlink:href="#ArialMT-48"/>
      <use x="189.0625" xlink:href="#ArialMT-57"/>
     </g>
    </g>
   </g>
   <g id="matplotlib.axis_2">
    <g id="ytick_1">
     <g id="line2d_3">
      <defs>
       <path d="M 0 0 
L -6 0 
" id="m3fd09f8488" style="stroke:#262626;stroke-width:1.25;"/>
      </defs>
      <g>
       <use style="fill:#262626;stroke:#262626;stroke-width:1.25;" x="53.081406" xlink:href="#m3fd09f8488" y="285.301082"/>
      </g>
     </g>
     <g id="text_4">
      <!-- 0.0 -->
      <g style="fill:#262626;" transform="translate(28.291406 289.237879)scale(0.11 -0.11)">
       <use xlink:href="#ArialMT-48"/>
       <use x="55.615234" xlink:href="#ArialMT-46"/>
       <use x="83.398438" xlink:href="#ArialMT-48"/>
      </g>
     </g>
    </g>
    <g id="ytick_2">
     <g id="line2d_4">
      <g>
       <use style="fill:#262626;stroke:#262626;stroke-width:1.25;" x="53.081406" xlink:href="#m3fd09f8488" y="242.154267"/>
      </g>
     </g>
     <g id="text_5">
      <!-- 2.5 -->
      <g style="fill:#262626;" transform="translate(28.291406 246.091064)scale(0.11 -0.11)">
       <defs>
        <path d="M 4.15625 18.75 
L 13.375 19.53125 
Q 14.40625 12.796875 18.140625 9.390625 
Q 21.875 6 27.15625 6 
Q 33.5 6 37.890625 10.78125 
Q 42.28125 15.578125 42.28125 23.484375 
Q 42.28125 31 38.0625 35.34375 
Q 33.84375 39.703125 27 39.703125 
Q 22.75 39.703125 19.328125 37.765625 
Q 15.921875 35.84375 13.96875 32.765625 
L 5.71875 33.84375 
L 12.640625 70.609375 
L 48.25 70.609375 
L 48.25 62.203125 
L 19.671875 62.203125 
L 15.828125 42.96875 
Q 22.265625 47.46875 29.34375 47.46875 
Q 38.71875 47.46875 45.15625 40.96875 
Q 51.609375 34.46875 51.609375 24.265625 
Q 51.609375 14.546875 45.953125 7.46875 
Q 39.0625 -1.21875 27.15625 -1.21875 
Q 17.390625 -1.21875 11.203125 4.25 
Q 5.03125 9.71875 4.15625 18.75 
z
" id="ArialMT-53"/>
       </defs>
       <use xlink:href="#ArialMT-50"/>
       <use x="55.615234" xlink:href="#ArialMT-46"/>
       <use x="83.398438" xlink:href="#ArialMT-53"/>
      </g>
     </g>
    </g>
    <g id="ytick_3">
     <g id="line2d_5">
      <g>
       <use style="fill:#262626;stroke:#262626;stroke-width:1.25;" x="53.081406" xlink:href="#m3fd09f8488" y="199.007452"/>
      </g>
     </g>
     <g id="text_6">
      <!-- 5.0 -->
      <g style="fill:#262626;" transform="translate(28.291406 202.944249)scale(0.11 -0.11)">
       <use xlink:href="#ArialMT-53"/>
       <use x="55.615234" xlink:href="#ArialMT-46"/>
       <use x="83.398438" xlink:href="#ArialMT-48"/>
      </g>
     </g>
    </g>
    <g id="ytick_4">
     <g id="line2d_6">
      <g>
       <use style="fill:#262626;stroke:#262626;stroke-width:1.25;" x="53.081406" xlink:href="#m3fd09f8488" y="155.860637"/>
      </g>
     </g>
     <g id="text_7">
      <!-- 7.5 -->
      <g style="fill:#262626;" transform="translate(28.291406 159.797434)scale(0.11 -0.11)">
       <defs>
        <path d="M 4.734375 62.203125 
L 4.734375 70.65625 
L 51.078125 70.65625 
L 51.078125 63.8125 
Q 44.234375 56.546875 37.515625 44.484375 
Q 30.8125 32.421875 27.15625 19.671875 
Q 24.515625 10.6875 23.78125 0 
L 14.75 0 
Q 14.890625 8.453125 18.0625 20.40625 
Q 21.234375 32.375 27.171875 43.484375 
Q 33.109375 54.59375 39.796875 62.203125 
z
" id="ArialMT-55"/>
       </defs>
       <use xlink:href="#ArialMT-55"/>
       <use x="55.615234" xlink:href="#ArialMT-46"/>
       <use x="83.398438" xlink:href="#ArialMT-53"/>
      </g>
     </g>
    </g>
    <g id="ytick_5">
     <g id="line2d_7">
      <g>
       <use style="fill:#262626;stroke:#262626;stroke-width:1.25;" x="53.081406" xlink:href="#m3fd09f8488" y="112.713822"/>
      </g>
     </g>
     <g id="text_8">
      <!-- 10.0 -->
      <g style="fill:#262626;" transform="translate(22.174375 116.650619)scale(0.11 -0.11)">
       <use xlink:href="#ArialMT-49"/>
       <use x="55.615234" xlink:href="#ArialMT-48"/>
       <use x="111.230469" xlink:href="#ArialMT-46"/>
       <use x="139.013672" xlink:href="#ArialMT-48"/>
      </g>
     </g>
    </g>
    <g id="ytick_6">
     <g id="line2d_8">
      <g>
       <use style="fill:#262626;stroke:#262626;stroke-width:1.25;" x="53.081406" xlink:href="#m3fd09f8488" y="69.567007"/>
      </g>
     </g>
     <g id="text_9">
      <!-- 12.5 -->
      <g style="fill:#262626;" transform="translate(22.174375 73.503804)scale(0.11 -0.11)">
       <use xlink:href="#ArialMT-49"/>
       <use x="55.615234" xlink:href="#ArialMT-50"/>
       <use x="111.230469" xlink:href="#ArialMT-46"/>
       <use x="139.013672" xlink:href="#ArialMT-53"/>
      </g>
     </g>
    </g>
    <g id="ytick_7">
     <g id="line2d_9">
      <g>
       <use style="fill:#262626;stroke:#262626;stroke-width:1.25;" x="53.081406" xlink:href="#m3fd09f8488" y="26.420192"/>
      </g>
     </g>
     <g id="text_10">
      <!-- 15.0 -->
      <g style="fill:#262626;" transform="translate(22.174375 30.356989)scale(0.11 -0.11)">
       <use xlink:href="#ArialMT-49"/>
       <use x="55.615234" xlink:href="#ArialMT-53"/>
       <use x="111.230469" xlink:href="#ArialMT-46"/>
       <use x="139.013672" xlink:href="#ArialMT-48"/>
      </g>
     </g>
    </g>
    <g id="text_11">
     <!-- a7a -->
     <g style="fill:#262626;" transform="translate(15.789375 174.499687)rotate(-90)scale(0.12 -0.12)">
      <defs>
       <path d="M 40.4375 6.390625 
Q 35.546875 2.25 31.03125 0.53125 
Q 26.515625 -1.171875 21.34375 -1.171875 
Q 12.796875 -1.171875 8.203125 3 
Q 3.609375 7.171875 3.609375 13.671875 
Q 3.609375 17.484375 5.34375 20.625 
Q 7.078125 23.78125 9.890625 25.6875 
Q 12.703125 27.59375 16.21875 28.5625 
Q 18.796875 29.25 24.03125 29.890625 
Q 34.671875 31.15625 39.703125 32.90625 
Q 39.75 34.71875 39.75 35.203125 
Q 39.75 40.578125 37.25 42.78125 
Q 33.890625 45.75 27.25 45.75 
Q 21.046875 45.75 18.09375 43.578125 
Q 15.140625 41.40625 13.71875 35.890625 
L 5.125 37.0625 
Q 6.296875 42.578125 8.984375 45.96875 
Q 11.671875 49.359375 16.75 51.1875 
Q 21.828125 53.03125 28.515625 53.03125 
Q 35.15625 53.03125 39.296875 51.46875 
Q 43.453125 49.90625 45.40625 47.53125 
Q 47.359375 45.171875 48.140625 41.546875 
Q 48.578125 39.3125 48.578125 33.453125 
L 48.578125 21.734375 
Q 48.578125 9.46875 49.140625 6.21875 
Q 49.703125 2.984375 51.375 0 
L 42.1875 0 
Q 40.828125 2.734375 40.4375 6.390625 
z
M 39.703125 26.03125 
Q 34.90625 24.078125 25.34375 22.703125 
Q 19.921875 21.921875 17.671875 20.9375 
Q 15.4375 19.96875 14.203125 18.09375 
Q 12.984375 16.21875 12.984375 13.921875 
Q 12.984375 10.40625 15.640625 8.0625 
Q 18.3125 5.71875 23.4375 5.71875 
Q 28.515625 5.71875 32.46875 7.9375 
Q 36.421875 10.15625 38.28125 14.015625 
Q 39.703125 17 39.703125 22.796875 
z
" id="ArialMT-97"/>
      </defs>
      <use xlink:href="#ArialMT-97"/>
      <use x="55.615234" xlink:href="#ArialMT-55"/>
      <use x="111.230469" xlink:href="#ArialMT-97"/>
     </g>
    </g>
   </g>
   <g id="PolyCollection_1">
    <defs>
     <path d="M 129.375704 -70.29759 
L 126.996712 -70.29759 
L 126.025101 -72.549467 
L 124.804354 -74.801344 
L 123.333569 -77.053221 
L 121.638077 -79.305097 
L 119.773652 -81.556974 
L 117.826342 -83.808851 
L 115.906695 -86.060728 
L 114.138139 -88.312605 
L 112.640637 -90.564482 
L 111.512013 -92.816358 
L 110.810292 -95.068235 
L 110.540579 -97.320112 
L 110.649399 -99.571989 
L 111.028096 -101.823866 
L 111.525127 -104.075742 
L 111.965379 -106.327619 
L 112.173318 -108.579496 
L 111.996134 -110.831373 
L 111.323153 -113.08325 
L 110.098612 -115.335127 
L 108.326184 -117.587003 
L 106.0652 -119.83888 
L 103.420071 -122.090757 
L 100.525587 -124.342634 
L 97.531414 -126.594511 
L 94.588865 -128.846387 
L 91.842015 -131.098264 
L 89.423571 -133.350141 
L 87.454187 -135.602018 
L 86.04263 -137.853895 
L 85.283951 -140.105772 
L 85.253701 -142.357648 
L 85.998066 -144.609525 
L 87.521908 -146.861402 
L 89.778259 -149.113279 
L 92.663275 -151.365156 
L 96.019663 -153.617032 
L 99.649555 -155.868909 
L 103.335315 -158.120786 
L 106.864661 -160.372663 
L 110.055415 -162.62454 
L 112.775319 -164.876417 
L 114.953643 -167.128293 
L 116.583158 -169.38017 
L 117.713025 -171.632047 
L 118.434701 -173.883924 
L 118.863926 -176.135801 
L 119.122047 -178.387677 
L 119.319617 -180.639554 
L 119.544367 -182.891431 
L 119.85466 -185.143308 
L 120.278447 -187.395185 
L 120.816863 -189.647062 
L 121.45092 -191.898938 
L 122.149534 -194.150815 
L 122.877236 -196.402692 
L 123.600352 -198.654569 
L 124.291023 -200.906446 
L 124.929058 -203.158322 
L 125.502007 -205.410199 
L 126.004099 -207.662076 
L 126.434679 -209.913953 
L 126.796617 -212.16583 
L 127.094991 -214.417707 
L 127.336125 -216.669583 
L 127.526939 -218.92146 
L 127.674541 -221.173337 
L 127.785937 -223.425214 
L 127.867806 -225.677091 
L 127.926311 -227.928967 
L 127.966931 -230.180844 
L 127.99434 -232.432721 
L 128.012354 -234.684598 
L 128.023952 -236.936475 
L 128.031386 -239.188352 
L 128.036337 -241.440228 
L 128.040103 -243.692105 
L 128.043783 -245.943982 
L 128.048427 -248.195859 
L 128.055144 -250.447736 
L 128.065185 -252.699612 
L 128.079977 -254.951489 
L 128.101122 -257.203366 
L 128.130337 -259.455243 
L 128.169316 -261.70712 
L 128.219515 -263.958997 
L 128.281868 -266.210873 
L 128.356502 -268.46275 
L 128.442519 -270.714627 
L 128.537908 -272.966504 
L 128.639649 -275.218381 
L 128.743999 -277.470257 
L 128.84692 -279.722134 
L 128.944553 -281.974011 
L 129.033655 -284.225888 
L 129.111916 -286.477765 
L 129.178096 -288.729642 
L 129.231998 -290.981518 
L 129.274301 -293.233395 
L 129.375704 -293.233395 
L 129.375704 -293.233395 
L 129.375704 -290.981518 
L 129.375704 -288.729642 
L 129.375704 -286.477765 
L 129.375704 -284.225888 
L 129.375704 -281.974011 
L 129.375704 -279.722134 
L 129.375704 -277.470257 
L 129.375704 -275.218381 
L 129.375704 -272.966504 
L 129.375704 -270.714627 
L 129.375704 -268.46275 
L 129.375704 -266.210873 
L 129.375704 -263.958997 
L 129.375704 -261.70712 
L 129.375704 -259.455243 
L 129.375704 -257.203366 
L 129.375704 -254.951489 
L 129.375704 -252.699612 
L 129.375704 -250.447736 
L 129.375704 -248.195859 
L 129.375704 -245.943982 
L 129.375704 -243.692105 
L 129.375704 -241.440228 
L 129.375704 -239.188352 
L 129.375704 -236.936475 
L 129.375704 -234.684598 
L 129.375704 -232.432721 
L 129.375704 -230.180844 
L 129.375704 -227.928967 
L 129.375704 -225.677091 
L 129.375704 -223.425214 
L 129.375704 -221.173337 
L 129.375704 -218.92146 
L 129.375704 -216.669583 
L 129.375704 -214.417707 
L 129.375704 -212.16583 
L 129.375704 -209.913953 
L 129.375704 -207.662076 
L 129.375704 -205.410199 
L 129.375704 -203.158322 
L 129.375704 -200.906446 
L 129.375704 -198.654569 
L 129.375704 -196.402692 
L 129.375704 -194.150815 
L 129.375704 -191.898938 
L 129.375704 -189.647062 
L 129.375704 -187.395185 
L 129.375704 -185.143308 
L 129.375704 -182.891431 
L 129.375704 -180.639554 
L 129.375704 -178.387677 
L 129.375704 -176.135801 
L 129.375704 -173.883924 
L 129.375704 -171.632047 
L 129.375704 -169.38017 
L 129.375704 -167.128293 
L 129.375704 -164.876417 
L 129.375704 -162.62454 
L 129.375704 -160.372663 
L 129.375704 -158.120786 
L 129.375704 -155.868909 
L 129.375704 -153.617032 
L 129.375704 -151.365156 
L 129.375704 -149.113279 
L 129.375704 -146.861402 
L 129.375704 -144.609525 
L 129.375704 -142.357648 
L 129.375704 -140.105772 
L 129.375704 -137.853895 
L 129.375704 -135.602018 
L 129.375704 -133.350141 
L 129.375704 -131.098264 
L 129.375704 -128.846387 
L 129.375704 -126.594511 
L 129.375704 -124.342634 
L 129.375704 -122.090757 
L 129.375704 -119.83888 
L 129.375704 -117.587003 
L 129.375704 -115.335127 
L 129.375704 -113.08325 
L 129.375704 -110.831373 
L 129.375704 -108.579496 
L 129.375704 -106.327619 
L 129.375704 -104.075742 
L 129.375704 -101.823866 
L 129.375704 -99.571989 
L 129.375704 -97.320112 
L 129.375704 -95.068235 
L 129.375704 -92.816358 
L 129.375704 -90.564482 
L 129.375704 -88.312605 
L 129.375704 -86.060728 
L 129.375704 -83.808851 
L 129.375704 -81.556974 
L 129.375704 -79.305097 
L 129.375704 -77.053221 
L 129.375704 -74.801344 
L 129.375704 -72.549467 
L 129.375704 -70.29759 
z
" id="m7f2e6e95c5" style="stroke:#4c4c4c;stroke-width:1.5;"/>
    </defs>
    <g clip-path="url(#pb409233274)">
     <use style="fill:#5875a4;stroke:#4c4c4c;stroke-width:1.5;" x="0" xlink:href="#m7f2e6e95c5" y="363.514219"/>
    </g>
   </g>
   <g id="PolyCollection_2">
    <defs>
     <path d="M 130.219826 -56.03331 
L 129.375704 -56.03331 
L 129.375704 -58.922015 
L 129.375704 -61.81072 
L 129.375704 -64.699425 
L 129.375704 -67.588131 
L 129.375704 -70.476836 
L 129.375704 -73.365541 
L 129.375704 -76.254246 
L 129.375704 -79.142952 
L 129.375704 -82.031657 
L 129.375704 -84.920362 
L 129.375704 -87.809067 
L 129.375704 -90.697772 
L 129.375704 -93.586478 
L 129.375704 -96.475183 
L 129.375704 -99.363888 
L 129.375704 -102.252593 
L 129.375704 -105.141299 
L 129.375704 -108.030004 
L 129.375704 -110.918709 
L 129.375704 -113.807414 
L 129.375704 -116.69612 
L 129.375704 -119.584825 
L 129.375704 -122.47353 
L 129.375704 -125.362235 
L 129.375704 -128.250941 
L 129.375704 -131.139646 
L 129.375704 -134.028351 
L 129.375704 -136.917056 
L 129.375704 -139.805761 
L 129.375704 -142.694467 
L 129.375704 -145.583172 
L 129.375704 -148.471877 
L 129.375704 -151.360582 
L 129.375704 -154.249288 
L 129.375704 -157.137993 
L 129.375704 -160.026698 
L 129.375704 -162.915403 
L 129.375704 -165.804109 
L 129.375704 -168.692814 
L 129.375704 -171.581519 
L 129.375704 -174.470224 
L 129.375704 -177.358929 
L 129.375704 -180.247635 
L 129.375704 -183.13634 
L 129.375704 -186.025045 
L 129.375704 -188.91375 
L 129.375704 -191.802456 
L 129.375704 -194.691161 
L 129.375704 -197.579866 
L 129.375704 -200.468571 
L 129.375704 -203.357277 
L 129.375704 -206.245982 
L 129.375704 -209.134687 
L 129.375704 -212.023392 
L 129.375704 -214.912098 
L 129.375704 -217.800803 
L 129.375704 -220.689508 
L 129.375704 -223.578213 
L 129.375704 -226.466918 
L 129.375704 -229.355624 
L 129.375704 -232.244329 
L 129.375704 -235.133034 
L 129.375704 -238.021739 
L 129.375704 -240.910445 
L 129.375704 -243.79915 
L 129.375704 -246.687855 
L 129.375704 -249.57656 
L 129.375704 -252.465266 
L 129.375704 -255.353971 
L 129.375704 -258.242676 
L 129.375704 -261.131381 
L 129.375704 -264.020087 
L 129.375704 -266.908792 
L 129.375704 -269.797497 
L 129.375704 -272.686202 
L 129.375704 -275.574907 
L 129.375704 -278.463613 
L 129.375704 -281.352318 
L 129.375704 -284.241023 
L 129.375704 -287.129728 
L 129.375704 -290.018434 
L 129.375704 -292.907139 
L 129.375704 -295.795844 
L 129.375704 -298.684549 
L 129.375704 -301.573255 
L 129.375704 -304.46196 
L 129.375704 -307.350665 
L 129.375704 -310.23937 
L 129.375704 -313.128075 
L 129.375704 -316.016781 
L 129.375704 -318.905486 
L 129.375704 -321.794191 
L 129.375704 -324.682896 
L 129.375704 -327.571602 
L 129.375704 -330.460307 
L 129.375704 -333.349012 
L 129.375704 -336.237717 
L 129.375704 -339.126423 
L 129.375704 -342.015128 
L 130.16196 -342.015128 
L 130.16196 -342.015128 
L 130.454541 -339.126423 
L 130.829541 -336.237717 
L 131.300308 -333.349012 
L 131.879091 -330.460307 
L 132.575837 -327.571602 
L 133.396859 -324.682896 
L 134.343491 -321.794191 
L 135.410867 -318.905486 
L 136.587002 -316.016781 
L 137.85235 -313.128075 
L 139.180003 -310.23937 
L 140.536643 -307.350665 
L 141.884303 -304.46196 
L 143.182874 -301.573255 
L 144.393194 -298.684549 
L 145.480422 -295.795844 
L 146.417321 -292.907139 
L 147.187018 -290.018434 
L 147.784824 -287.129728 
L 148.218778 -284.241023 
L 148.508742 -281.352318 
L 148.684074 -278.463613 
L 148.780137 -275.574907 
L 148.834063 -272.686202 
L 148.880383 -269.797497 
L 148.947117 -266.908792 
L 149.052898 -264.020087 
L 149.205538 -261.131381 
L 149.402222 -258.242676 
L 149.631279 -255.353971 
L 149.875245 -252.465266 
L 150.114756 -249.57656 
L 150.332706 -246.687855 
L 150.518102 -243.79915 
L 150.669085 -240.910445 
L 150.794742 -238.021739 
L 150.915471 -235.133034 
L 151.061837 -232.244329 
L 151.272041 -229.355624 
L 151.588252 -226.466918 
L 152.052191 -223.578213 
L 152.700423 -220.689508 
L 153.559869 -217.800803 
L 154.644067 -214.912098 
L 155.950652 -212.023392 
L 157.460469 -209.134687 
L 159.138564 -206.245982 
L 160.937147 -203.357277 
L 162.800354 -200.468571 
L 164.670408 -197.579866 
L 166.494499 -194.691161 
L 168.231516 -191.802456 
L 169.857624 -188.91375 
L 171.369713 -186.025045 
L 172.785911 -183.13634 
L 174.142729 -180.247635 
L 175.488857 -177.358929 
L 176.876243 -174.470224 
L 178.349559 -171.581519 
L 179.935592 -168.692814 
L 181.634257 -165.804109 
L 183.412792 -162.915403 
L 185.204312 -160.026698 
L 186.911245 -157.137993 
L 188.413423 -154.249288 
L 189.579856 -151.360582 
L 190.282644 -148.471877 
L 190.411142 -145.583172 
L 189.884479 -142.694467 
L 188.660817 -139.805761 
L 186.742253 -136.917056 
L 184.174902 -134.028351 
L 181.044364 -131.139646 
L 177.467377 -128.250941 
L 173.580836 -125.362235 
L 169.529602 -122.47353 
L 165.454535 -119.584825 
L 161.482011 -116.69612 
L 157.715906 -113.807414 
L 154.232625 -110.918709 
L 151.079372 -108.030004 
L 148.275442 -105.141299 
L 145.816019 -102.252593 
L 143.677682 -99.363888 
L 141.824783 -96.475183 
L 140.2158 -93.586478 
L 138.808927 -90.697772 
L 137.566391 -87.809067 
L 136.457195 -84.920362 
L 135.458275 -82.031657 
L 134.554298 -79.142952 
L 133.73642 -76.254246 
L 133.000477 -73.365541 
L 132.344988 -70.476836 
L 131.769346 -67.588131 
L 131.27242 -64.699425 
L 130.851672 -61.81072 
L 130.502804 -58.922015 
L 130.219826 -56.03331 
z
" id="m1c4bcb9461" style="stroke:#4c4c4c;stroke-width:1.5;"/>
    </defs>
    <g clip-path="url(#pb409233274)">
     <use style="fill:#cc8963;stroke:#4c4c4c;stroke-width:1.5;" x="0" xlink:href="#m1c4bcb9461" y="363.514219"/>
    </g>
   </g>
   <g id="PolyCollection_3">
    <defs>
     <path d="M 281.9643 -72.221303 
L 280.834544 -72.221303 
L 280.295546 -74.608648 
L 279.600764 -76.995992 
L 278.754125 -79.383337 
L 277.782678 -81.770681 
L 276.739227 -84.158026 
L 275.699568 -86.54537 
L 274.753424 -88.932715 
L 273.989836 -91.320059 
L 273.479647 -93.707404 
L 273.259002 -96.094748 
L 273.318034 -98.482093 
L 273.597866 -100.869437 
L 273.997056 -103.256782 
L 274.386361 -105.644126 
L 274.628775 -108.031471 
L 274.600848 -110.418815 
L 274.211229 -112.80616 
L 273.413189 -115.193504 
L 272.209079 -117.580849 
L 270.646328 -119.968193 
L 268.806317 -122.355538 
L 266.789221 -124.742882 
L 264.699091 -127.130227 
L 262.633494 -129.517571 
L 260.680483 -131.904916 
L 258.922699 -134.29226 
L 257.445094 -136.679605 
L 256.3405 -139.066949 
L 255.70753 -141.454294 
L 255.638171 -143.841638 
L 256.19712 -146.228983 
L 257.399211 -148.616327 
L 259.193244 -151.003672 
L 261.459132 -153.391016 
L 264.020972 -155.778361 
L 266.673386 -158.165705 
L 269.214255 -160.55305 
L 271.475493 -162.940394 
L 273.344867 -165.327739 
L 274.775158 -167.715083 
L 275.780707 -170.102428 
L 276.424228 -172.489772 
L 276.798206 -174.877117 
L 277.005172 -177.264461 
L 277.140388 -179.651805 
L 277.279257 -182.03915 
L 277.470571 -184.426494 
L 277.73563 -186.813839 
L 278.072223 -189.201183 
L 278.461764 -191.588528 
L 278.87751 -193.975872 
L 279.291926 -196.363217 
L 279.681873 -198.750561 
L 280.03114 -201.137906 
L 280.330631 -203.52525 
L 280.577043 -205.912595 
L 280.771004 -208.299939 
L 280.915412 -210.687284 
L 281.014412 -213.074628 
L 281.073037 -215.461973 
L 281.097331 -217.849317 
L 281.094638 -220.236662 
L 281.073748 -222.624006 
L 281.044651 -225.011351 
L 281.017803 -227.398695 
L 281.002941 -229.78604 
L 281.007686 -232.173384 
L 281.036252 -234.560729 
L 281.088636 -236.948073 
L 281.160536 -239.335418 
L 281.244094 -241.722762 
L 281.329329 -244.110107 
L 281.405936 -246.497451 
L 281.465092 -248.884796 
L 281.500902 -251.27214 
L 281.511237 -253.659485 
L 281.497872 -256.046829 
L 281.465942 -258.434174 
L 281.422872 -260.821518 
L 281.377005 -263.208863 
L 281.336193 -265.596207 
L 281.306639 -267.983552 
L 281.292186 -270.370896 
L 281.294168 -272.758241 
L 281.311772 -275.145585 
L 281.342743 -277.53293 
L 281.384167 -279.920274 
L 281.433124 -282.307619 
L 281.487051 -284.694963 
L 281.543812 -287.082308 
L 281.601574 -289.469652 
L 281.658641 -291.856997 
L 281.713346 -294.244341 
L 281.764094 -296.631686 
L 281.809496 -299.01903 
L 281.848546 -301.406375 
L 281.880759 -303.793719 
L 281.906196 -306.181064 
L 281.925403 -308.568408 
L 281.9643 -308.568408 
L 281.9643 -308.568408 
L 281.9643 -306.181064 
L 281.9643 -303.793719 
L 281.9643 -301.406375 
L 281.9643 -299.01903 
L 281.9643 -296.631686 
L 281.9643 -294.244341 
L 281.9643 -291.856997 
L 281.9643 -289.469652 
L 281.9643 -287.082308 
L 281.9643 -284.694963 
L 281.9643 -282.307619 
L 281.9643 -279.920274 
L 281.9643 -277.53293 
L 281.9643 -275.145585 
L 281.9643 -272.758241 
L 281.9643 -270.370896 
L 281.9643 -267.983552 
L 281.9643 -265.596207 
L 281.9643 -263.208863 
L 281.9643 -260.821518 
L 281.9643 -258.434174 
L 281.9643 -256.046829 
L 281.9643 -253.659485 
L 281.9643 -251.27214 
L 281.9643 -248.884796 
L 281.9643 -246.497451 
L 281.9643 -244.110107 
L 281.9643 -241.722762 
L 281.9643 -239.335418 
L 281.9643 -236.948073 
L 281.9643 -234.560729 
L 281.9643 -232.173384 
L 281.9643 -229.78604 
L 281.9643 -227.398695 
L 281.9643 -225.011351 
L 281.9643 -222.624006 
L 281.9643 -220.236662 
L 281.9643 -217.849317 
L 281.9643 -215.461973 
L 281.9643 -213.074628 
L 281.9643 -210.687284 
L 281.9643 -208.299939 
L 281.9643 -205.912595 
L 281.9643 -203.52525 
L 281.9643 -201.137906 
L 281.9643 -198.750561 
L 281.9643 -196.363217 
L 281.9643 -193.975872 
L 281.9643 -191.588528 
L 281.9643 -189.201183 
L 281.9643 -186.813839 
L 281.9643 -184.426494 
L 281.9643 -182.03915 
L 281.9643 -179.651805 
L 281.9643 -177.264461 
L 281.9643 -174.877117 
L 281.9643 -172.489772 
L 281.9643 -170.102428 
L 281.9643 -167.715083 
L 281.9643 -165.327739 
L 281.9643 -162.940394 
L 281.9643 -160.55305 
L 281.9643 -158.165705 
L 281.9643 -155.778361 
L 281.9643 -153.391016 
L 281.9643 -151.003672 
L 281.9643 -148.616327 
L 281.9643 -146.228983 
L 281.9643 -143.841638 
L 281.9643 -141.454294 
L 281.9643 -139.066949 
L 281.9643 -136.679605 
L 281.9643 -134.29226 
L 281.9643 -131.904916 
L 281.9643 -129.517571 
L 281.9643 -127.130227 
L 281.9643 -124.742882 
L 281.9643 -122.355538 
L 281.9643 -119.968193 
L 281.9643 -117.580849 
L 281.9643 -115.193504 
L 281.9643 -112.80616 
L 281.9643 -110.418815 
L 281.9643 -108.031471 
L 281.9643 -105.644126 
L 281.9643 -103.256782 
L 281.9643 -100.869437 
L 281.9643 -98.482093 
L 281.9643 -96.094748 
L 281.9643 -93.707404 
L 281.9643 -91.320059 
L 281.9643 -88.932715 
L 281.9643 -86.54537 
L 281.9643 -84.158026 
L 281.9643 -81.770681 
L 281.9643 -79.383337 
L 281.9643 -76.995992 
L 281.9643 -74.608648 
L 281.9643 -72.221303 
z
" id="m3d99e42555" style="stroke:#4c4c4c;stroke-width:1.5;"/>
    </defs>
    <g clip-path="url(#pb409233274)">
     <use style="fill:#5875a4;stroke:#4c4c4c;stroke-width:1.5;" x="0" xlink:href="#m3d99e42555" y="363.514219"/>
    </g>
   </g>
   <g id="PolyCollection_4">
    <defs>
     <path d="M 282.739199 -60.577049 
L 281.9643 -60.577049 
L 281.9643 -63.373962 
L 281.9643 -66.170874 
L 281.9643 -68.967787 
L 281.9643 -71.764699 
L 281.9643 -74.561612 
L 281.9643 -77.358524 
L 281.9643 -80.155437 
L 281.9643 -82.952349 
L 281.9643 -85.749262 
L 281.9643 -88.546174 
L 281.9643 -91.343087 
L 281.9643 -94.139999 
L 281.9643 -96.936912 
L 281.9643 -99.733824 
L 281.9643 -102.530737 
L 281.9643 -105.327649 
L 281.9643 -108.124562 
L 281.9643 -110.921474 
L 281.9643 -113.718387 
L 281.9643 -116.515299 
L 281.9643 -119.312212 
L 281.9643 -122.109124 
L 281.9643 -124.906037 
L 281.9643 -127.70295 
L 281.9643 -130.499862 
L 281.9643 -133.296775 
L 281.9643 -136.093687 
L 281.9643 -138.8906 
L 281.9643 -141.687512 
L 281.9643 -144.484425 
L 281.9643 -147.281337 
L 281.9643 -150.07825 
L 281.9643 -152.875162 
L 281.9643 -155.672075 
L 281.9643 -158.468987 
L 281.9643 -161.2659 
L 281.9643 -164.062812 
L 281.9643 -166.859725 
L 281.9643 -169.656637 
L 281.9643 -172.45355 
L 281.9643 -175.250462 
L 281.9643 -178.047375 
L 281.9643 -180.844287 
L 281.9643 -183.6412 
L 281.9643 -186.438112 
L 281.9643 -189.235025 
L 281.9643 -192.031937 
L 281.9643 -194.82885 
L 281.9643 -197.625762 
L 281.9643 -200.422675 
L 281.9643 -203.219588 
L 281.9643 -206.0165 
L 281.9643 -208.813413 
L 281.9643 -211.610325 
L 281.9643 -214.407238 
L 281.9643 -217.20415 
L 281.9643 -220.001063 
L 281.9643 -222.797975 
L 281.9643 -225.594888 
L 281.9643 -228.3918 
L 281.9643 -231.188713 
L 281.9643 -233.985625 
L 281.9643 -236.782538 
L 281.9643 -239.57945 
L 281.9643 -242.376363 
L 281.9643 -245.173275 
L 281.9643 -247.970188 
L 281.9643 -250.7671 
L 281.9643 -253.564013 
L 281.9643 -256.360925 
L 281.9643 -259.157838 
L 281.9643 -261.95475 
L 281.9643 -264.751663 
L 281.9643 -267.548575 
L 281.9643 -270.345488 
L 281.9643 -273.142401 
L 281.9643 -275.939313 
L 281.9643 -278.736226 
L 281.9643 -281.533138 
L 281.9643 -284.330051 
L 281.9643 -287.126963 
L 281.9643 -289.923876 
L 281.9643 -292.720788 
L 281.9643 -295.517701 
L 281.9643 -298.314613 
L 281.9643 -301.111526 
L 281.9643 -303.908438 
L 281.9643 -306.705351 
L 281.9643 -309.502263 
L 281.9643 -312.299176 
L 281.9643 -315.096088 
L 281.9643 -317.893001 
L 281.9643 -320.689913 
L 281.9643 -323.486826 
L 281.9643 -326.283738 
L 281.9643 -329.080651 
L 281.9643 -331.877563 
L 281.9643 -334.674476 
L 281.9643 -337.471388 
L 283.109838 -337.471388 
L 283.109838 -337.471388 
L 283.615904 -334.674476 
L 284.29964 -331.877563 
L 285.203676 -329.080651 
L 286.373245 -326.283738 
L 287.85328 -323.486826 
L 289.684381 -320.689913 
L 291.897773 -317.893001 
L 294.509576 -315.096088 
L 297.514962 -312.299176 
L 300.88306 -309.502263 
L 304.553582 -306.705351 
L 308.436235 -303.908438 
L 312.413702 -301.111526 
L 316.348587 -298.314613 
L 320.094045 -295.517701 
L 323.507082 -292.720788 
L 326.462844 -289.923876 
L 328.86775 -287.126963 
L 330.669335 -284.330051 
L 331.860997 -281.533138 
L 332.480714 -278.736226 
L 332.603804 -275.939313 
L 332.330892 -273.142401 
L 331.773112 -270.345488 
L 331.036994 -267.548575 
L 330.211481 -264.751663 
L 329.358974 -261.95475 
L 328.511502 -259.157838 
L 327.672154 -256.360925 
L 326.821034 -253.564013 
L 325.924378 -250.7671 
L 324.945151 -247.970188 
L 323.853454 -245.173275 
L 322.635307 -242.376363 
L 321.298763 -239.57945 
L 319.876745 -236.782538 
L 318.426403 -233.985625 
L 317.025158 -231.188713 
L 315.7639 -228.3918 
L 314.738062 -225.594888 
L 314.037534 -222.797975 
L 313.736492 -220.001063 
L 313.884302 -217.20415 
L 314.498588 -214.407238 
L 315.561371 -211.610325 
L 317.018859 -208.813413 
L 318.78512 -206.0165 
L 320.749435 -203.219588 
L 322.786769 -200.422675 
L 324.770425 -197.625762 
L 326.585694 -194.82885 
L 328.143051 -192.031937 
L 329.389313 -189.235025 
L 330.315135 -186.438112 
L 330.957372 -183.6412 
L 331.395262 -180.844287 
L 331.740093 -178.047375 
L 332.118997 -175.250462 
L 332.65463 -172.45355 
L 333.443489 -169.656637 
L 334.536302 -166.859725 
L 335.923983 -164.062812 
L 337.532044 -161.2659 
L 339.225032 -158.468987 
L 340.820862 -155.672075 
L 342.113092 -152.875162 
L 342.897649 -150.07825 
L 342.999738 -147.281337 
L 342.296614 -144.484425 
L 340.732789 -141.687512 
L 338.325705 -138.8906 
L 335.161648 -136.093687 
L 331.383299 -133.296775 
L 327.171526 -130.499862 
L 322.724551 -127.70295 
L 318.237587 -124.906037 
L 313.885448 -122.109124 
L 309.809778 -119.312212 
L 306.111624 -116.515299 
L 302.849257 -113.718387 
L 300.040574 -110.921474 
L 297.669011 -108.124562 
L 295.691777 -105.327649 
L 294.049197 -102.530737 
L 292.674036 -99.733824 
L 291.499848 -96.936912 
L 290.467637 -94.139999 
L 289.53034 -91.343087 
L 288.654999 -88.546174 
L 287.822731 -85.749262 
L 287.026918 -82.952349 
L 286.270178 -80.155437 
L 285.560791 -77.358524 
L 284.909188 -74.561612 
L 284.325014 -71.764699 
L 283.815071 -68.967787 
L 283.382224 -66.170874 
L 283.025221 -63.373962 
L 282.739199 -60.577049 
z
" id="md3271d6fe7" style="stroke:#4c4c4c;stroke-width:1.5;"/>
    </defs>
    <g clip-path="url(#pb409233274)">
     <use style="fill:#cc8963;stroke:#4c4c4c;stroke-width:1.5;" x="0" xlink:href="#md3271d6fe7" y="363.514219"/>
    </g>
   </g>
   <g id="patch_3">
    <path clip-path="url(#pb409233274)" d="M 129.375704 285.301082 
L 129.375704 285.301082 
L 129.375704 285.301082 
L 129.375704 285.301082 
z
" style="fill:#5875a4;stroke:#4c4c4c;stroke-linejoin:miter;stroke-width:0.75;"/>
   </g>
   <g id="patch_4">
    <path clip-path="url(#pb409233274)" d="M 129.375704 285.301082 
L 129.375704 285.301082 
L 129.375704 285.301082 
L 129.375704 285.301082 
z
" style="fill:#cc8963;stroke:#4c4c4c;stroke-linejoin:miter;stroke-width:0.75;"/>
   </g>
   <g id="line2d_10">
    <path clip-path="url(#pb409233274)" d="M 129.375704 268.042356 
L 129.375704 112.713822 
" style="fill:none;stroke:#4c4c4c;stroke-linecap:round;stroke-width:1.5;"/>
   </g>
   <g id="line2d_11">
    <path clip-path="url(#pb409233274)" d="M 129.375704 233.524904 
L 129.375704 181.748726 
" style="fill:none;stroke:#4c4c4c;stroke-linecap:round;stroke-width:4.5;"/>
   </g>
   <g id="line2d_12">
    <path clip-path="url(#pb409233274)" d="M 281.9643 268.042356 
L 281.9643 60.937644 
" style="fill:none;stroke:#4c4c4c;stroke-linecap:round;stroke-width:1.5;"/>
   </g>
   <g id="line2d_13">
    <path clip-path="url(#pb409233274)" d="M 281.9643 216.266178 
L 281.9643 129.972548 
" style="fill:none;stroke:#4c4c4c;stroke-linecap:round;stroke-width:4.5;"/>
   </g>
   <g id="patch_5">
    <path d="M 53.081406 321.78 
L 53.081406 7.2 
" style="fill:none;stroke:#262626;stroke-linecap:square;stroke-linejoin:miter;stroke-width:1.25;"/>
   </g>
   <g id="patch_6">
    <path d="M 53.081406 321.78 
L 358.258598 321.78 
" style="fill:none;stroke:#262626;stroke-linecap:square;stroke-linejoin:miter;stroke-width:1.25;"/>
   </g>
   <g id="PathCollection_1">
    <defs>
     <path d="M 0 1.5 
C 0.397805 1.5 0.77937 1.341951 1.06066 1.06066 
C 1.341951 0.77937 1.5 0.397805 1.5 0 
C 1.5 -0.397805 1.341951 -0.77937 1.06066 -1.06066 
C 0.77937 -1.341951 0.397805 -1.5 0 -1.5 
C -0.397805 -1.5 -0.77937 -1.341951 -1.06066 -1.06066 
C -1.341951 -0.77937 -1.5 -0.397805 -1.5 0 
C -1.5 0.397805 -1.341951 0.77937 -1.06066 1.06066 
C -0.77937 1.341951 -0.397805 1.5 0 1.5 
z
" id="m0d63636758" style="stroke:#4c4c4c;"/>
    </defs>
    <g clip-path="url(#pb409233274)">
     <use style="fill:#ffffff;stroke:#4c4c4c;" x="129.375704" xlink:href="#m0d63636758" y="216.266178"/>
    </g>
   </g>
   <g id="PathCollection_2">
    <g clip-path="url(#pb409233274)">
     <use style="fill:#ffffff;stroke:#4c4c4c;" x="281.9643" xlink:href="#m0d63636758" y="181.748726"/>
    </g>
   </g>
  </g>
  <g id="legend_1">
   <g id="text_12">
    <!-- a91 -->
    <g style="fill:#262626;" transform="translate(376.12866 169.299453)scale(0.12 -0.12)">
     <use xlink:href="#ArialMT-97"/>
     <use x="55.615234" xlink:href="#ArialMT-57"/>
     <use x="111.230469" xlink:href="#ArialMT-49"/>
    </g>
   </g>
   <g id="patch_7">
    <path d="M 363.093348 185.058047 
L 385.093348 185.058047 
L 385.093348 177.358047 
L 363.093348 177.358047 
z
" style="fill:#5875a4;stroke:#4c4c4c;stroke-linejoin:miter;stroke-width:0.75;"/>
   </g>
   <g id="text_13">
    <!-- 1.0 -->
    <g style="fill:#262626;" transform="translate(393.893348 185.058047)scale(0.11 -0.11)">
     <use xlink:href="#ArialMT-49"/>
     <use x="55.615234" xlink:href="#ArialMT-46"/>
     <use x="83.398438" xlink:href="#ArialMT-48"/>
    </g>
   </g>
   <g id="patch_8">
    <path d="M 363.093348 200.617891 
L 385.093348 200.617891 
L 385.093348 192.917891 
L 363.093348 192.917891 
z
" style="fill:#cc8963;stroke:#4c4c4c;stroke-linejoin:miter;stroke-width:0.75;"/>
   </g>
   <g id="text_14">
    <!-- 2.0 -->
    <g style="fill:#262626;" transform="translate(393.893348 200.617891)scale(0.11 -0.11)">
     <use xlink:href="#ArialMT-50"/>
     <use x="55.615234" xlink:href="#ArialMT-46"/>
     <use x="83.398438" xlink:href="#ArialMT-48"/>
    </g>
   </g>
  </g>
 </g>
 <defs>
  <clipPath id="pb409233274">
   <rect height="314.58" width="305.177192" x="53.081406" y="7.2"/>
  </clipPath>
 </defs>
</svg>
