<?xml version="1.0" encoding="utf-8" standalone="no"?>
<!DOCTYPE svg PUBLIC "-//W3C//DTD SVG 1.1//EN"
  "http://www.w3.org/Graphics/SVG/1.1/DTD/svg11.dtd">
<!-- Created with matplotlib (https://matplotlib.org/) -->
<svg height="363.514219pt" version="1.1" viewBox="0 0 363.369375 363.514219" width="363.369375pt" xmlns="http://www.w3.org/2000/svg" xmlns:xlink="http://www.w3.org/1999/xlink">
 <metadata>
  <rdf:RDF xmlns:cc="http://creativecommons.org/ns#" xmlns:dc="http://purl.org/dc/elements/1.1/" xmlns:rdf="http://www.w3.org/1999/02/22-rdf-syntax-ns#">
   <cc:Work>
    <dc:type rdf:resource="http://purl.org/dc/dcmitype/StillImage"/>
    <dc:date>2021-03-11T19:24:52.808711</dc:date>
    <dc:format>image/svg+xml</dc:format>
    <dc:creator>
     <cc:Agent>
      <dc:title>Matplotlib v3.3.4, https://matplotlib.org/</dc:title>
     </cc:Agent>
    </dc:creator>
   </cc:Work>
  </rdf:RDF>
 </metadata>
 <defs>
  <style type="text/css">*{stroke-linecap:butt;stroke-linejoin:round;}</style>
 </defs>
 <g id="figure_1">
  <g id="patch_1">
   <path d="M 0 363.514219 
L 363.369375 363.514219 
L 363.369375 0 
L 0 0 
z
" style="fill:#ffffff;"/>
  </g>
  <g id="axes_1">
   <g id="patch_2">
    <path d="M 46.964375 321.78 
L 356.169375 321.78 
L 356.169375 7.2 
L 46.964375 7.2 
z
" style="fill:#ffffff;"/>
   </g>
   <g id="matplotlib.axis_1">
    <g id="xtick_1">
     <g id="line2d_1">
      <defs>
       <path d="M 0 0 
L 0 6 
" id="m0b1ea1b29f" style="stroke:#262626;stroke-width:1.25;"/>
      </defs>
      <g>
       <use style="fill:#262626;stroke:#262626;stroke-width:1.25;" x="72.731458" xlink:href="#m0b1ea1b29f" y="321.78"/>
      </g>
     </g>
     <g id="text_1">
      <!-- 2 -->
      <g style="fill:#262626;" transform="translate(69.672943 339.153594)scale(0.11 -0.11)">
       <defs>
        <path d="M 50.34375 8.453125 
L 50.34375 0 
L 3.03125 0 
Q 2.9375 3.171875 4.046875 6.109375 
Q 5.859375 10.9375 9.828125 15.625 
Q 13.8125 20.3125 21.34375 26.46875 
Q 33.015625 36.03125 37.109375 41.625 
Q 41.21875 47.21875 41.21875 52.203125 
Q 41.21875 57.421875 37.46875 61 
Q 33.734375 64.59375 27.734375 64.59375 
Q 21.390625 64.59375 17.578125 60.78125 
Q 13.765625 56.984375 13.71875 50.25 
L 4.6875 51.171875 
Q 5.609375 61.28125 11.65625 66.578125 
Q 17.71875 71.875 27.9375 71.875 
Q 38.234375 71.875 44.234375 66.15625 
Q 50.25 60.453125 50.25 52 
Q 50.25 47.703125 48.484375 43.546875 
Q 46.734375 39.40625 42.65625 34.8125 
Q 38.578125 30.21875 29.109375 22.21875 
Q 21.1875 15.578125 18.9375 13.203125 
Q 16.703125 10.84375 15.234375 8.453125 
z
" id="ArialMT-50"/>
       </defs>
       <use xlink:href="#ArialMT-50"/>
      </g>
     </g>
    </g>
    <g id="xtick_2">
     <g id="line2d_2">
      <g>
       <use style="fill:#262626;stroke:#262626;stroke-width:1.25;" x="124.265625" xlink:href="#m0b1ea1b29f" y="321.78"/>
      </g>
     </g>
     <g id="text_2">
      <!-- 4 -->
      <g style="fill:#262626;" transform="translate(121.207109 339.153594)scale(0.11 -0.11)">
       <defs>
        <path d="M 32.328125 0 
L 32.328125 17.140625 
L 1.265625 17.140625 
L 1.265625 25.203125 
L 33.9375 71.578125 
L 41.109375 71.578125 
L 41.109375 25.203125 
L 50.78125 25.203125 
L 50.78125 17.140625 
L 41.109375 17.140625 
L 41.109375 0 
z
M 32.328125 25.203125 
L 32.328125 57.46875 
L 9.90625 25.203125 
z
" id="ArialMT-52"/>
       </defs>
       <use xlink:href="#ArialMT-52"/>
      </g>
     </g>
    </g>
    <g id="xtick_3">
     <g id="line2d_3">
      <g>
       <use style="fill:#262626;stroke:#262626;stroke-width:1.25;" x="175.799792" xlink:href="#m0b1ea1b29f" y="321.78"/>
      </g>
     </g>
     <g id="text_3">
      <!-- 6 -->
      <g style="fill:#262626;" transform="translate(172.741276 339.153594)scale(0.11 -0.11)">
       <defs>
        <path d="M 49.75 54.046875 
L 41.015625 53.375 
Q 39.84375 58.546875 37.703125 60.890625 
Q 34.125 64.65625 28.90625 64.65625 
Q 24.703125 64.65625 21.53125 62.3125 
Q 17.390625 59.28125 14.984375 53.46875 
Q 12.59375 47.65625 12.5 36.921875 
Q 15.671875 41.75 20.265625 44.09375 
Q 24.859375 46.4375 29.890625 46.4375 
Q 38.671875 46.4375 44.84375 39.96875 
Q 51.03125 33.5 51.03125 23.25 
Q 51.03125 16.5 48.125 10.71875 
Q 45.21875 4.9375 40.140625 1.859375 
Q 35.0625 -1.21875 28.609375 -1.21875 
Q 17.625 -1.21875 10.6875 6.859375 
Q 3.765625 14.9375 3.765625 33.5 
Q 3.765625 54.25 11.421875 63.671875 
Q 18.109375 71.875 29.4375 71.875 
Q 37.890625 71.875 43.28125 67.140625 
Q 48.6875 62.40625 49.75 54.046875 
z
M 13.875 23.1875 
Q 13.875 18.65625 15.796875 14.5 
Q 17.71875 10.359375 21.1875 8.171875 
Q 24.65625 6 28.46875 6 
Q 34.03125 6 38.03125 10.484375 
Q 42.046875 14.984375 42.046875 22.703125 
Q 42.046875 30.125 38.078125 34.390625 
Q 34.125 38.671875 28.125 38.671875 
Q 22.171875 38.671875 18.015625 34.390625 
Q 13.875 30.125 13.875 23.1875 
z
" id="ArialMT-54"/>
       </defs>
       <use xlink:href="#ArialMT-54"/>
      </g>
     </g>
    </g>
    <g id="xtick_4">
     <g id="line2d_4">
      <g>
       <use style="fill:#262626;stroke:#262626;stroke-width:1.25;" x="227.333958" xlink:href="#m0b1ea1b29f" y="321.78"/>
      </g>
     </g>
     <g id="text_4">
      <!-- 8 -->
      <g style="fill:#262626;" transform="translate(224.275443 339.153594)scale(0.11 -0.11)">
       <defs>
        <path d="M 17.671875 38.8125 
Q 12.203125 40.828125 9.5625 44.53125 
Q 6.9375 48.25 6.9375 53.421875 
Q 6.9375 61.234375 12.546875 66.546875 
Q 18.171875 71.875 27.484375 71.875 
Q 36.859375 71.875 42.578125 66.421875 
Q 48.296875 60.984375 48.296875 53.171875 
Q 48.296875 48.1875 45.671875 44.5 
Q 43.0625 40.828125 37.75 38.8125 
Q 44.34375 36.671875 47.78125 31.875 
Q 51.21875 27.09375 51.21875 20.453125 
Q 51.21875 11.28125 44.71875 5.03125 
Q 38.234375 -1.21875 27.640625 -1.21875 
Q 17.046875 -1.21875 10.546875 5.046875 
Q 4.046875 11.328125 4.046875 20.703125 
Q 4.046875 27.6875 7.59375 32.390625 
Q 11.140625 37.109375 17.671875 38.8125 
z
M 15.921875 53.71875 
Q 15.921875 48.640625 19.1875 45.40625 
Q 22.46875 42.1875 27.6875 42.1875 
Q 32.765625 42.1875 36.015625 45.375 
Q 39.265625 48.578125 39.265625 53.21875 
Q 39.265625 58.0625 35.90625 61.359375 
Q 32.5625 64.65625 27.59375 64.65625 
Q 22.5625 64.65625 19.234375 61.421875 
Q 15.921875 58.203125 15.921875 53.71875 
z
M 13.09375 20.65625 
Q 13.09375 16.890625 14.875 13.375 
Q 16.65625 9.859375 20.171875 7.921875 
Q 23.6875 6 27.734375 6 
Q 34.03125 6 38.125 10.046875 
Q 42.234375 14.109375 42.234375 20.359375 
Q 42.234375 26.703125 38.015625 30.859375 
Q 33.796875 35.015625 27.4375 35.015625 
Q 21.234375 35.015625 17.15625 30.90625 
Q 13.09375 26.8125 13.09375 20.65625 
z
" id="ArialMT-56"/>
       </defs>
       <use xlink:href="#ArialMT-56"/>
      </g>
     </g>
    </g>
    <g id="xtick_5">
     <g id="line2d_5">
      <g>
       <use style="fill:#262626;stroke:#262626;stroke-width:1.25;" x="278.868125" xlink:href="#m0b1ea1b29f" y="321.78"/>
      </g>
     </g>
     <g id="text_5">
      <!-- 10 -->
      <g style="fill:#262626;" transform="translate(272.751094 339.153594)scale(0.11 -0.11)">
       <defs>
        <path d="M 37.25 0 
L 28.46875 0 
L 28.46875 56 
Q 25.296875 52.984375 20.140625 49.953125 
Q 14.984375 46.921875 10.890625 45.40625 
L 10.890625 53.90625 
Q 18.265625 57.375 23.78125 62.296875 
Q 29.296875 67.234375 31.59375 71.875 
L 37.25 71.875 
z
" id="ArialMT-49"/>
        <path d="M 4.15625 35.296875 
Q 4.15625 48 6.765625 55.734375 
Q 9.375 63.484375 14.515625 67.671875 
Q 19.671875 71.875 27.484375 71.875 
Q 33.25 71.875 37.59375 69.546875 
Q 41.9375 67.234375 44.765625 62.859375 
Q 47.609375 58.5 49.21875 52.21875 
Q 50.828125 45.953125 50.828125 35.296875 
Q 50.828125 22.703125 48.234375 14.96875 
Q 45.65625 7.234375 40.5 3 
Q 35.359375 -1.21875 27.484375 -1.21875 
Q 17.140625 -1.21875 11.234375 6.203125 
Q 4.15625 15.140625 4.15625 35.296875 
z
M 13.1875 35.296875 
Q 13.1875 17.671875 17.3125 11.828125 
Q 21.4375 6 27.484375 6 
Q 33.546875 6 37.671875 11.859375 
Q 41.796875 17.71875 41.796875 35.296875 
Q 41.796875 52.984375 37.671875 58.78125 
Q 33.546875 64.59375 27.390625 64.59375 
Q 21.34375 64.59375 17.71875 59.46875 
Q 13.1875 52.9375 13.1875 35.296875 
z
" id="ArialMT-48"/>
       </defs>
       <use xlink:href="#ArialMT-49"/>
       <use x="55.615234" xlink:href="#ArialMT-48"/>
      </g>
     </g>
    </g>
    <g id="xtick_6">
     <g id="line2d_6">
      <g>
       <use style="fill:#262626;stroke:#262626;stroke-width:1.25;" x="330.402292" xlink:href="#m0b1ea1b29f" y="321.78"/>
      </g>
     </g>
     <g id="text_6">
      <!-- 12 -->
      <g style="fill:#262626;" transform="translate(324.28526 339.153594)scale(0.11 -0.11)">
       <use xlink:href="#ArialMT-49"/>
       <use x="55.615234" xlink:href="#ArialMT-50"/>
      </g>
     </g>
    </g>
    <g id="text_7">
     <!-- a7a -->
     <g style="fill:#262626;" transform="translate(191.557187 353.929219)scale(0.12 -0.12)">
      <defs>
       <path d="M 40.4375 6.390625 
Q 35.546875 2.25 31.03125 0.53125 
Q 26.515625 -1.171875 21.34375 -1.171875 
Q 12.796875 -1.171875 8.203125 3 
Q 3.609375 7.171875 3.609375 13.671875 
Q 3.609375 17.484375 5.34375 20.625 
Q 7.078125 23.78125 9.890625 25.6875 
Q 12.703125 27.59375 16.21875 28.5625 
Q 18.796875 29.25 24.03125 29.890625 
Q 34.671875 31.15625 39.703125 32.90625 
Q 39.75 34.71875 39.75 35.203125 
Q 39.75 40.578125 37.25 42.78125 
Q 33.890625 45.75 27.25 45.75 
Q 21.046875 45.75 18.09375 43.578125 
Q 15.140625 41.40625 13.71875 35.890625 
L 5.125 37.0625 
Q 6.296875 42.578125 8.984375 45.96875 
Q 11.671875 49.359375 16.75 51.1875 
Q 21.828125 53.03125 28.515625 53.03125 
Q 35.15625 53.03125 39.296875 51.46875 
Q 43.453125 49.90625 45.40625 47.53125 
Q 47.359375 45.171875 48.140625 41.546875 
Q 48.578125 39.3125 48.578125 33.453125 
L 48.578125 21.734375 
Q 48.578125 9.46875 49.140625 6.21875 
Q 49.703125 2.984375 51.375 0 
L 42.1875 0 
Q 40.828125 2.734375 40.4375 6.390625 
z
M 39.703125 26.03125 
Q 34.90625 24.078125 25.34375 22.703125 
Q 19.921875 21.921875 17.671875 20.9375 
Q 15.4375 19.96875 14.203125 18.09375 
Q 12.984375 16.21875 12.984375 13.921875 
Q 12.984375 10.40625 15.640625 8.0625 
Q 18.3125 5.71875 23.4375 5.71875 
Q 28.515625 5.71875 32.46875 7.9375 
Q 36.421875 10.15625 38.28125 14.015625 
Q 39.703125 17 39.703125 22.796875 
z
" id="ArialMT-97"/>
       <path d="M 4.734375 62.203125 
L 4.734375 70.65625 
L 51.078125 70.65625 
L 51.078125 63.8125 
Q 44.234375 56.546875 37.515625 44.484375 
Q 30.8125 32.421875 27.15625 19.671875 
Q 24.515625 10.6875 23.78125 0 
L 14.75 0 
Q 14.890625 8.453125 18.0625 20.40625 
Q 21.234375 32.375 27.171875 43.484375 
Q 33.109375 54.59375 39.796875 62.203125 
z
" id="ArialMT-55"/>
      </defs>
      <use xlink:href="#ArialMT-97"/>
      <use x="55.615234" xlink:href="#ArialMT-55"/>
      <use x="111.230469" xlink:href="#ArialMT-97"/>
     </g>
    </g>
   </g>
   <g id="matplotlib.axis_2">
    <g id="ytick_1">
     <g id="line2d_7">
      <defs>
       <path d="M 0 0 
L -6 0 
" id="md654cf47ec" style="stroke:#262626;stroke-width:1.25;"/>
      </defs>
      <g>
       <use style="fill:#262626;stroke:#262626;stroke-width:1.25;" x="46.964375" xlink:href="#md654cf47ec" y="310.658485"/>
      </g>
     </g>
     <g id="text_8">
      <!-- 1.3 -->
      <g style="fill:#262626;" transform="translate(22.174375 314.595282)scale(0.11 -0.11)">
       <defs>
        <path d="M 9.078125 0 
L 9.078125 10.015625 
L 19.09375 10.015625 
L 19.09375 0 
z
" id="ArialMT-46"/>
        <path d="M 4.203125 18.890625 
L 12.984375 20.0625 
Q 14.5 12.59375 18.140625 9.296875 
Q 21.78125 6 27 6 
Q 33.203125 6 37.46875 10.296875 
Q 41.75 14.59375 41.75 20.953125 
Q 41.75 27 37.796875 30.921875 
Q 33.84375 34.859375 27.734375 34.859375 
Q 25.25 34.859375 21.53125 33.890625 
L 22.515625 41.609375 
Q 23.390625 41.5 23.921875 41.5 
Q 29.546875 41.5 34.03125 44.421875 
Q 38.53125 47.359375 38.53125 53.46875 
Q 38.53125 58.296875 35.25 61.46875 
Q 31.984375 64.65625 26.8125 64.65625 
Q 21.6875 64.65625 18.265625 61.421875 
Q 14.84375 58.203125 13.875 51.765625 
L 5.078125 53.328125 
Q 6.6875 62.15625 12.390625 67.015625 
Q 18.109375 71.875 26.609375 71.875 
Q 32.46875 71.875 37.390625 69.359375 
Q 42.328125 66.84375 44.9375 62.5 
Q 47.5625 58.15625 47.5625 53.265625 
Q 47.5625 48.640625 45.0625 44.828125 
Q 42.578125 41.015625 37.703125 38.765625 
Q 44.046875 37.3125 47.5625 32.6875 
Q 51.078125 28.078125 51.078125 21.140625 
Q 51.078125 11.765625 44.234375 5.25 
Q 37.40625 -1.265625 26.953125 -1.265625 
Q 17.53125 -1.265625 11.296875 4.34375 
Q 5.078125 9.96875 4.203125 18.890625 
z
" id="ArialMT-51"/>
       </defs>
       <use xlink:href="#ArialMT-49"/>
       <use x="55.615234" xlink:href="#ArialMT-46"/>
       <use x="83.398438" xlink:href="#ArialMT-51"/>
      </g>
     </g>
    </g>
    <g id="ytick_2">
     <g id="line2d_8">
      <g>
       <use style="fill:#262626;stroke:#262626;stroke-width:1.25;" x="46.964375" xlink:href="#md654cf47ec" y="269.35"/>
      </g>
     </g>
     <g id="text_9">
      <!-- 1.4 -->
      <g style="fill:#262626;" transform="translate(22.174375 273.286797)scale(0.11 -0.11)">
       <use xlink:href="#ArialMT-49"/>
       <use x="55.615234" xlink:href="#ArialMT-46"/>
       <use x="83.398438" xlink:href="#ArialMT-52"/>
      </g>
     </g>
    </g>
    <g id="ytick_3">
     <g id="line2d_9">
      <g>
       <use style="fill:#262626;stroke:#262626;stroke-width:1.25;" x="46.964375" xlink:href="#md654cf47ec" y="228.041515"/>
      </g>
     </g>
     <g id="text_10">
      <!-- 1.5 -->
      <g style="fill:#262626;" transform="translate(22.174375 231.978312)scale(0.11 -0.11)">
       <defs>
        <path d="M 4.15625 18.75 
L 13.375 19.53125 
Q 14.40625 12.796875 18.140625 9.390625 
Q 21.875 6 27.15625 6 
Q 33.5 6 37.890625 10.78125 
Q 42.28125 15.578125 42.28125 23.484375 
Q 42.28125 31 38.0625 35.34375 
Q 33.84375 39.703125 27 39.703125 
Q 22.75 39.703125 19.328125 37.765625 
Q 15.921875 35.84375 13.96875 32.765625 
L 5.71875 33.84375 
L 12.640625 70.609375 
L 48.25 70.609375 
L 48.25 62.203125 
L 19.671875 62.203125 
L 15.828125 42.96875 
Q 22.265625 47.46875 29.34375 47.46875 
Q 38.71875 47.46875 45.15625 40.96875 
Q 51.609375 34.46875 51.609375 24.265625 
Q 51.609375 14.546875 45.953125 7.46875 
Q 39.0625 -1.21875 27.15625 -1.21875 
Q 17.390625 -1.21875 11.203125 4.25 
Q 5.03125 9.71875 4.15625 18.75 
z
" id="ArialMT-53"/>
       </defs>
       <use xlink:href="#ArialMT-49"/>
       <use x="55.615234" xlink:href="#ArialMT-46"/>
       <use x="83.398438" xlink:href="#ArialMT-53"/>
      </g>
     </g>
    </g>
    <g id="ytick_4">
     <g id="line2d_10">
      <g>
       <use style="fill:#262626;stroke:#262626;stroke-width:1.25;" x="46.964375" xlink:href="#md654cf47ec" y="186.73303"/>
      </g>
     </g>
     <g id="text_11">
      <!-- 1.6 -->
      <g style="fill:#262626;" transform="translate(22.174375 190.669827)scale(0.11 -0.11)">
       <use xlink:href="#ArialMT-49"/>
       <use x="55.615234" xlink:href="#ArialMT-46"/>
       <use x="83.398438" xlink:href="#ArialMT-54"/>
      </g>
     </g>
    </g>
    <g id="ytick_5">
     <g id="line2d_11">
      <g>
       <use style="fill:#262626;stroke:#262626;stroke-width:1.25;" x="46.964375" xlink:href="#md654cf47ec" y="145.424545"/>
      </g>
     </g>
     <g id="text_12">
      <!-- 1.7 -->
      <g style="fill:#262626;" transform="translate(22.174375 149.361342)scale(0.11 -0.11)">
       <use xlink:href="#ArialMT-49"/>
       <use x="55.615234" xlink:href="#ArialMT-46"/>
       <use x="83.398438" xlink:href="#ArialMT-55"/>
      </g>
     </g>
    </g>
    <g id="ytick_6">
     <g id="line2d_12">
      <g>
       <use style="fill:#262626;stroke:#262626;stroke-width:1.25;" x="46.964375" xlink:href="#md654cf47ec" y="104.116061"/>
      </g>
     </g>
     <g id="text_13">
      <!-- 1.8 -->
      <g style="fill:#262626;" transform="translate(22.174375 108.052857)scale(0.11 -0.11)">
       <use xlink:href="#ArialMT-49"/>
       <use x="55.615234" xlink:href="#ArialMT-46"/>
       <use x="83.398438" xlink:href="#ArialMT-56"/>
      </g>
     </g>
    </g>
    <g id="ytick_7">
     <g id="line2d_13">
      <g>
       <use style="fill:#262626;stroke:#262626;stroke-width:1.25;" x="46.964375" xlink:href="#md654cf47ec" y="62.807576"/>
      </g>
     </g>
     <g id="text_14">
      <!-- 1.9 -->
      <g style="fill:#262626;" transform="translate(22.174375 66.744373)scale(0.11 -0.11)">
       <defs>
        <path d="M 5.46875 16.546875 
L 13.921875 17.328125 
Q 14.984375 11.375 18.015625 8.6875 
Q 21.046875 6 25.78125 6 
Q 29.828125 6 32.875 7.859375 
Q 35.9375 9.71875 37.890625 12.8125 
Q 39.84375 15.921875 41.15625 21.1875 
Q 42.484375 26.46875 42.484375 31.9375 
Q 42.484375 32.515625 42.4375 33.6875 
Q 39.796875 29.5 35.234375 26.875 
Q 30.671875 24.265625 25.34375 24.265625 
Q 16.453125 24.265625 10.296875 30.703125 
Q 4.15625 37.15625 4.15625 47.703125 
Q 4.15625 58.59375 10.578125 65.234375 
Q 17 71.875 26.65625 71.875 
Q 33.640625 71.875 39.421875 68.109375 
Q 45.21875 64.359375 48.21875 57.390625 
Q 51.21875 50.4375 51.21875 37.25 
Q 51.21875 23.53125 48.234375 15.40625 
Q 45.265625 7.28125 39.375 3.03125 
Q 33.5 -1.21875 25.59375 -1.21875 
Q 17.1875 -1.21875 11.859375 3.4375 
Q 6.546875 8.109375 5.46875 16.546875 
z
M 41.453125 48.140625 
Q 41.453125 55.71875 37.421875 60.15625 
Q 33.40625 64.59375 27.734375 64.59375 
Q 21.875 64.59375 17.53125 59.8125 
Q 13.1875 55.03125 13.1875 47.40625 
Q 13.1875 40.578125 17.3125 36.296875 
Q 21.4375 32.03125 27.484375 32.03125 
Q 33.59375 32.03125 37.515625 36.296875 
Q 41.453125 40.578125 41.453125 48.140625 
z
" id="ArialMT-57"/>
       </defs>
       <use xlink:href="#ArialMT-49"/>
       <use x="55.615234" xlink:href="#ArialMT-46"/>
       <use x="83.398438" xlink:href="#ArialMT-57"/>
      </g>
     </g>
    </g>
    <g id="ytick_8">
     <g id="line2d_14">
      <g>
       <use style="fill:#262626;stroke:#262626;stroke-width:1.25;" x="46.964375" xlink:href="#md654cf47ec" y="21.499091"/>
      </g>
     </g>
     <g id="text_15">
      <!-- 2.0 -->
      <g style="fill:#262626;" transform="translate(22.174375 25.435888)scale(0.11 -0.11)">
       <use xlink:href="#ArialMT-50"/>
       <use x="55.615234" xlink:href="#ArialMT-46"/>
       <use x="83.398438" xlink:href="#ArialMT-48"/>
      </g>
     </g>
    </g>
    <g id="text_16">
     <!-- l2409 -->
     <g style="fill:#262626;" transform="translate(15.789375 179.169375)rotate(-90)scale(0.12 -0.12)">
      <defs>
       <path d="M 6.390625 0 
L 6.390625 71.578125 
L 15.1875 71.578125 
L 15.1875 0 
z
" id="ArialMT-108"/>
      </defs>
      <use xlink:href="#ArialMT-108"/>
      <use x="22.216797" xlink:href="#ArialMT-50"/>
      <use x="77.832031" xlink:href="#ArialMT-52"/>
      <use x="133.447266" xlink:href="#ArialMT-48"/>
      <use x="189.0625" xlink:href="#ArialMT-57"/>
     </g>
    </g>
   </g>
   <g id="PathCollection_1">
    <defs>
     <path d="M 0 3.535534 
C 0.937635 3.535534 1.836992 3.163008 2.5 2.5 
C 3.163008 1.836992 3.535534 0.937635 3.535534 0 
C 3.535534 -0.937635 3.163008 -1.836992 2.5 -2.5 
C 1.836992 -3.163008 0.937635 -3.535534 0 -3.535534 
C -0.937635 -3.535534 -1.836992 -3.163008 -2.5 -2.5 
C -3.163008 -1.836992 -3.535534 -0.937635 -3.535534 0 
C -3.535534 0.937635 -3.163008 1.836992 -2.5 2.5 
C -1.836992 3.163008 -0.937635 3.535534 0 3.535534 
z
" id="m9dbe7d66b2" style="stroke:#4c72b0;"/>
    </defs>
    <g clip-path="url(#p71b85db1b7)">
     <use style="fill:#4c72b0;stroke:#4c72b0;" x="46.964375" xlink:href="#m9dbe7d66b2" y="199.355067"/>
     <use style="fill:#4c72b0;stroke:#4c72b0;" x="72.731458" xlink:href="#m9dbe7d66b2" y="139.523333"/>
     <use style="fill:#4c72b0;stroke:#4c72b0;" x="98.498542" xlink:href="#m9dbe7d66b2" y="200.394104"/>
     <use style="fill:#4c72b0;stroke:#4c72b0;" x="124.265625" xlink:href="#m9dbe7d66b2" y="165.673803"/>
     <use style="fill:#4c72b0;stroke:#4c72b0;" x="150.032708" xlink:href="#m9dbe7d66b2" y="139.523333"/>
     <use style="fill:#4c72b0;stroke:#4c72b0;" x="175.799792" xlink:href="#m9dbe7d66b2" y="169.300092"/>
     <use style="fill:#4c72b0;stroke:#4c72b0;" x="201.566875" xlink:href="#m9dbe7d66b2" y="139.523333"/>
     <use style="fill:#4c72b0;stroke:#4c72b0;" x="227.333958" xlink:href="#m9dbe7d66b2" y="180.377879"/>
     <use style="fill:#4c72b0;stroke:#4c72b0;" x="253.101042" xlink:href="#m9dbe7d66b2" y="120.28025"/>
     <use style="fill:#4c72b0;stroke:#4c72b0;" x="278.868125" xlink:href="#m9dbe7d66b2" y="115.027736"/>
     <use style="fill:#4c72b0;stroke:#4c72b0;" x="304.635208" xlink:href="#m9dbe7d66b2" y="62.807576"/>
     <use style="fill:#4c72b0;stroke:#4c72b0;" x="330.402292" xlink:href="#m9dbe7d66b2" y="96.152979"/>
     <use style="fill:#4c72b0;stroke:#4c72b0;" x="356.169375" xlink:href="#m9dbe7d66b2" y="150.588106"/>
    </g>
   </g>
   <g id="PolyCollection_1">
    <defs>
     <path d="M 46.964375 -182.643186 
L 46.964375 -139.414915 
L 50.087658 -140.949145 
L 53.210941 -142.497596 
L 56.334223 -144.088491 
L 59.457506 -145.618176 
L 62.580789 -147.147861 
L 65.704072 -148.677545 
L 68.827355 -150.068481 
L 71.950638 -151.645618 
L 75.07392 -153.12313 
L 78.197203 -154.636269 
L 81.320486 -155.922264 
L 84.443769 -157.433113 
L 87.567052 -159.007567 
L 90.690335 -160.584842 
L 93.813617 -162.16195 
L 96.9369 -163.508049 
L 100.060183 -164.832879 
L 103.183466 -166.240962 
L 106.306749 -167.73588 
L 109.430032 -169.013893 
L 112.553314 -170.405525 
L 115.676597 -171.883246 
L 118.79988 -173.354204 
L 121.923163 -174.731438 
L 125.046446 -175.970485 
L 128.169729 -177.245341 
L 131.293011 -178.71683 
L 134.416294 -180.05929 
L 137.539577 -181.296103 
L 140.66286 -182.496035 
L 143.786143 -183.769908 
L 146.909426 -185.006543 
L 150.032708 -186.21929 
L 153.155991 -187.335961 
L 156.279274 -188.600364 
L 159.402557 -189.943776 
L 162.52584 -191.178571 
L 165.649122 -192.388275 
L 168.772405 -193.66766 
L 171.895688 -194.903016 
L 175.018971 -196.118413 
L 178.142254 -197.104268 
L 181.265537 -198.330712 
L 184.388819 -199.573035 
L 187.512102 -200.727913 
L 190.635385 -201.809939 
L 193.758668 -203.056225 
L 196.881951 -204.110862 
L 200.005234 -205.171726 
L 203.128516 -206.135145 
L 206.251799 -207.006685 
L 209.375082 -207.686691 
L 212.498365 -208.71187 
L 215.621648 -209.790993 
L 218.744931 -210.627211 
L 221.868213 -211.458143 
L 224.991496 -212.503508 
L 228.114779 -213.334616 
L 231.238062 -214.254263 
L 234.361345 -215.140324 
L 237.484628 -216.265298 
L 240.60791 -217.396886 
L 243.731193 -218.51879 
L 246.854476 -219.571063 
L 249.977759 -220.400555 
L 253.101042 -221.180908 
L 256.224324 -222.310407 
L 259.347607 -223.021011 
L 262.47089 -223.60656 
L 265.594173 -224.19806 
L 268.717456 -225.054406 
L 271.840739 -225.981478 
L 274.964021 -226.890334 
L 278.087304 -227.582001 
L 281.210587 -228.279331 
L 284.33387 -228.9771 
L 287.457153 -229.674869 
L 290.580436 -230.409656 
L 293.703718 -231.334309 
L 296.827001 -232.064712 
L 299.950284 -232.799697 
L 303.073567 -233.610784 
L 306.19685 -234.497369 
L 309.320133 -235.427371 
L 312.443415 -236.332278 
L 315.566698 -237.237185 
L 318.689981 -238.142886 
L 321.813264 -239.049307 
L 324.936547 -239.803328 
L 328.05983 -240.370818 
L 331.183112 -240.93935 
L 334.306395 -241.507881 
L 337.429678 -242.076413 
L 340.552961 -242.661507 
L 343.676244 -243.470935 
L 346.799527 -244.282927 
L 349.922809 -245.09492 
L 353.046092 -245.906912 
L 356.169375 -246.718904 
L 356.169375 -300.395292 
L 356.169375 -300.395292 
L 353.046092 -299.025036 
L 349.922809 -297.505961 
L 346.799527 -295.907846 
L 343.676244 -294.287895 
L 340.552961 -292.861678 
L 337.429678 -291.44913 
L 334.306395 -289.932911 
L 331.183112 -288.374714 
L 328.05983 -286.823829 
L 324.936547 -285.38738 
L 321.813264 -283.946735 
L 318.689981 -282.374707 
L 315.566698 -280.739211 
L 312.443415 -279.324626 
L 309.320133 -277.676022 
L 306.19685 -276.019813 
L 303.073567 -274.505515 
L 299.950284 -272.991218 
L 296.827001 -271.476921 
L 293.703718 -270.050887 
L 290.580436 -268.56881 
L 287.457153 -267.219421 
L 284.33387 -265.869192 
L 281.210587 -264.417572 
L 278.087304 -263.155592 
L 274.964021 -261.818077 
L 271.840739 -260.453358 
L 268.717456 -259.064317 
L 265.594173 -257.571327 
L 262.47089 -256.07638 
L 259.347607 -254.607266 
L 256.224324 -253.233701 
L 253.101042 -251.818725 
L 249.977759 -250.365182 
L 246.854476 -249.108395 
L 243.731193 -247.739599 
L 240.60791 -246.514526 
L 237.484628 -245.150042 
L 234.361345 -243.685788 
L 231.238062 -242.234175 
L 228.114779 -240.86707 
L 224.991496 -239.637811 
L 221.868213 -238.6839 
L 218.744931 -237.54291 
L 215.621648 -236.310803 
L 212.498365 -234.984579 
L 209.375082 -233.655432 
L 206.251799 -232.579038 
L 203.128516 -231.437079 
L 200.005234 -230.44433 
L 196.881951 -229.220636 
L 193.758668 -228.189647 
L 190.635385 -227.161772 
L 187.512102 -226.029241 
L 184.388819 -224.683001 
L 181.265537 -223.624979 
L 178.142254 -222.594134 
L 175.018971 -221.589121 
L 171.895688 -220.530223 
L 168.772405 -219.266699 
L 165.649122 -218.466885 
L 162.52584 -217.431547 
L 159.402557 -216.398401 
L 156.279274 -215.197687 
L 153.155991 -214.333496 
L 150.032708 -213.306638 
L 146.909426 -212.272859 
L 143.786143 -211.238361 
L 140.66286 -210.21849 
L 137.539577 -209.17289 
L 134.416294 -208.045627 
L 131.293011 -206.860643 
L 128.169729 -205.951145 
L 125.046446 -204.927884 
L 121.923163 -203.851104 
L 118.79988 -202.91947 
L 115.676597 -201.945864 
L 112.553314 -200.908648 
L 109.430032 -199.782835 
L 106.306749 -198.725828 
L 103.183466 -197.764636 
L 100.060183 -196.804125 
L 96.9369 -195.833497 
L 93.813617 -194.88593 
L 90.690335 -193.926833 
L 87.567052 -192.973292 
L 84.443769 -192.203732 
L 81.320486 -191.209495 
L 78.197203 -190.46348 
L 75.07392 -189.716278 
L 71.950638 -188.968899 
L 68.827355 -188.382568 
L 65.704072 -187.507071 
L 62.580789 -186.666684 
L 59.457506 -185.742211 
L 56.334223 -184.924764 
L 53.210941 -184.165447 
L 50.087658 -183.404316 
L 46.964375 -182.643186 
z
" id="m7c9f3035a7" style="stroke:#ffffff;stroke-opacity:0.15;"/>
    </defs>
    <g clip-path="url(#p71b85db1b7)">
     <use style="fill:#4c72b0;fill-opacity:0.15;stroke:#ffffff;stroke-opacity:0.15;" x="0" xlink:href="#m7c9f3035a7" y="363.514219"/>
    </g>
   </g>
   <g id="line2d_15">
    <path clip-path="url(#p71b85db1b7)" d="M 46.964375 245.253384 
L 46.964375 153.456751 
" style="fill:none;stroke:#4c72b0;stroke-linecap:round;stroke-width:2.625;"/>
   </g>
   <g id="line2d_16">
    <path clip-path="url(#p71b85db1b7)" d="M 72.731458 257.547576 
L 72.731458 21.499091 
" style="fill:none;stroke:#4c72b0;stroke-linecap:round;stroke-width:2.625;"/>
   </g>
   <g id="line2d_17">
    <path clip-path="url(#p71b85db1b7)" d="M 98.498542 233.001786 
L 98.498542 164.615101 
" style="fill:none;stroke:#4c72b0;stroke-linecap:round;stroke-width:2.625;"/>
   </g>
   <g id="line2d_18">
    <path clip-path="url(#p71b85db1b7)" d="M 124.265625 189.972911 
L 124.265625 141.374694 
" style="fill:none;stroke:#4c72b0;stroke-linecap:round;stroke-width:2.625;"/>
   </g>
   <g id="line2d_19">
    <path clip-path="url(#p71b85db1b7)" d="M 150.032708 257.547576 
L 150.032708 51.005152 
" style="fill:none;stroke:#4c72b0;stroke-linecap:round;stroke-width:2.625;"/>
   </g>
   <g id="line2d_20">
    <path clip-path="url(#p71b85db1b7)" d="M 175.799792 207.292528 
L 175.799792 135.192168 
" style="fill:none;stroke:#4c72b0;stroke-linecap:round;stroke-width:2.625;"/>
   </g>
   <g id="line2d_21">
    <path clip-path="url(#p71b85db1b7)" d="M 201.566875 191.158939 
L 201.566875 87.887727 
" style="fill:none;stroke:#4c72b0;stroke-linecap:round;stroke-width:2.625;"/>
   </g>
   <g id="line2d_22">
    <path clip-path="url(#p71b85db1b7)" d="M 227.333958 307.480909 
L 227.333958 85.050606 
" style="fill:none;stroke:#4c72b0;stroke-linecap:round;stroke-width:2.625;"/>
   </g>
   <g id="line2d_23">
    <path clip-path="url(#p71b85db1b7)" d="M 253.101042 174.160883 
L 253.101042 75.379723 
" style="fill:none;stroke:#4c72b0;stroke-linecap:round;stroke-width:2.625;"/>
   </g>
   <g id="line2d_24">
    <path clip-path="url(#p71b85db1b7)" d="M 278.868125 161.98691 
L 278.868125 68.263413 
" style="fill:none;stroke:#4c72b0;stroke-linecap:round;stroke-width:2.625;"/>
   </g>
   <g id="line2d_25">
    <path clip-path="url(#p71b85db1b7)" d="M 304.635208 117.885556 
L 304.635208 21.499091 
" style="fill:none;stroke:#4c72b0;stroke-linecap:round;stroke-width:2.625;"/>
   </g>
   <g id="line2d_26">
    <path clip-path="url(#p71b85db1b7)" d="M 330.402292 130.99146 
L 330.402292 61.314498 
" style="fill:none;stroke:#4c72b0;stroke-linecap:round;stroke-width:2.625;"/>
   </g>
   <g id="line2d_27">
    <path clip-path="url(#p71b85db1b7)" d="M 356.169375 253.859318 
L 356.169375 73.134697 
" style="fill:none;stroke:#4c72b0;stroke-linecap:round;stroke-width:2.625;"/>
   </g>
   <g id="line2d_28">
    <path clip-path="url(#p71b85db1b7)" d="M 46.964375 202.645836 
L 50.087658 201.490183 
L 53.210941 200.33453 
L 56.334223 199.178877 
L 59.457506 198.023224 
L 62.580789 196.86757 
L 65.704072 195.711917 
L 68.827355 194.556264 
L 71.950638 193.400611 
L 75.07392 192.244958 
L 78.197203 191.089305 
L 81.320486 189.933652 
L 84.443769 188.777999 
L 87.567052 187.622346 
L 90.690335 186.466692 
L 93.813617 185.311039 
L 96.9369 184.155386 
L 100.060183 182.999733 
L 103.183466 181.84408 
L 106.306749 180.688427 
L 109.430032 179.532774 
L 112.553314 178.377121 
L 115.676597 177.221467 
L 118.79988 176.065814 
L 121.923163 174.910161 
L 125.046446 173.754508 
L 128.169729 172.598855 
L 131.293011 171.443202 
L 134.416294 170.287549 
L 137.539577 169.131896 
L 140.66286 167.976242 
L 143.786143 166.820589 
L 146.909426 165.664936 
L 150.032708 164.509283 
L 153.155991 163.35363 
L 156.279274 162.197977 
L 159.402557 161.042324 
L 162.52584 159.886671 
L 165.649122 158.731018 
L 168.772405 157.575364 
L 171.895688 156.419711 
L 175.018971 155.264058 
L 178.142254 154.108405 
L 181.265537 152.952752 
L 184.388819 151.797099 
L 187.512102 150.641446 
L 190.635385 149.485793 
L 193.758668 148.330139 
L 196.881951 147.174486 
L 200.005234 146.018833 
L 203.128516 144.86318 
L 206.251799 143.707527 
L 209.375082 142.551874 
L 212.498365 141.396221 
L 215.621648 140.240568 
L 218.744931 139.084914 
L 221.868213 137.929261 
L 224.991496 136.773608 
L 228.114779 135.617955 
L 231.238062 134.462302 
L 234.361345 133.306649 
L 237.484628 132.150996 
L 240.60791 130.995343 
L 243.731193 129.83969 
L 246.854476 128.684036 
L 249.977759 127.528383 
L 253.101042 126.37273 
L 256.224324 125.217077 
L 259.347607 124.061424 
L 262.47089 122.905771 
L 265.594173 121.750118 
L 268.717456 120.594465 
L 271.840739 119.438811 
L 274.964021 118.283158 
L 278.087304 117.127505 
L 281.210587 115.971852 
L 284.33387 114.816199 
L 287.457153 113.660546 
L 290.580436 112.504893 
L 293.703718 111.34924 
L 296.827001 110.193587 
L 299.950284 109.037933 
L 303.073567 107.88228 
L 306.19685 106.726627 
L 309.320133 105.570974 
L 312.443415 104.415321 
L 315.566698 103.259668 
L 318.689981 102.104015 
L 321.813264 100.948362 
L 324.936547 99.792708 
L 328.05983 98.637055 
L 331.183112 97.481402 
L 334.306395 96.325749 
L 337.429678 95.170096 
L 340.552961 94.014443 
L 343.676244 92.85879 
L 346.799527 91.703137 
L 349.922809 90.547483 
L 353.046092 89.39183 
L 356.169375 88.236177 
" style="fill:none;stroke:#4c72b0;stroke-linecap:round;stroke-width:2.25;"/>
   </g>
   <g id="patch_3">
    <path d="M 46.964375 321.78 
L 46.964375 7.2 
" style="fill:none;stroke:#262626;stroke-linecap:square;stroke-linejoin:miter;stroke-width:1.25;"/>
   </g>
   <g id="patch_4">
    <path d="M 46.964375 321.78 
L 356.169375 321.78 
" style="fill:none;stroke:#262626;stroke-linecap:square;stroke-linejoin:miter;stroke-width:1.25;"/>
   </g>
  </g>
 </g>
 <defs>
  <clipPath id="p71b85db1b7">
   <rect height="314.58" width="309.205" x="46.964375" y="7.2"/>
  </clipPath>
 </defs>
</svg>
