<?xml version="1.0" encoding="utf-8" standalone="no"?>
<!DOCTYPE svg PUBLIC "-//W3C//DTD SVG 1.1//EN"
  "http://www.w3.org/Graphics/SVG/1.1/DTD/svg11.dtd">
<!-- Created with matplotlib (https://matplotlib.org/) -->
<svg height="363.514219pt" version="1.1" viewBox="0 0 363.369375 363.514219" width="363.369375pt" xmlns="http://www.w3.org/2000/svg" xmlns:xlink="http://www.w3.org/1999/xlink">
 <metadata>
  <rdf:RDF xmlns:cc="http://creativecommons.org/ns#" xmlns:dc="http://purl.org/dc/elements/1.1/" xmlns:rdf="http://www.w3.org/1999/02/22-rdf-syntax-ns#">
   <cc:Work>
    <dc:type rdf:resource="http://purl.org/dc/dcmitype/StillImage"/>
    <dc:date>2021-03-13T17:43:47.712470</dc:date>
    <dc:format>image/svg+xml</dc:format>
    <dc:creator>
     <cc:Agent>
      <dc:title>Matplotlib v3.3.2, https://matplotlib.org/</dc:title>
     </cc:Agent>
    </dc:creator>
   </cc:Work>
  </rdf:RDF>
 </metadata>
 <defs>
  <style type="text/css">*{stroke-linecap:butt;stroke-linejoin:round;}</style>
 </defs>
 <g id="figure_1">
  <g id="patch_1">
   <path d="M 0 363.514219 
L 363.369375 363.514219 
L 363.369375 0 
L 0 0 
z
" style="fill:#ffffff;"/>
  </g>
  <g id="axes_1">
   <g id="patch_2">
    <path d="M 46.964375 321.78 
L 356.169375 321.78 
L 356.169375 7.2 
L 46.964375 7.2 
z
" style="fill:#ffffff;"/>
   </g>
   <g id="matplotlib.axis_1">
    <g id="xtick_1">
     <g id="line2d_1">
      <defs>
       <path d="M 0 0 
L 0 6 
" id="mce5f6abdcc" style="stroke:#262626;stroke-width:1.25;"/>
      </defs>
      <g>
       <use style="fill:#262626;stroke:#262626;stroke-width:1.25;" x="72.731458" xlink:href="#mce5f6abdcc" y="321.78"/>
      </g>
     </g>
     <g id="text_1">
      <!-- 2 -->
      <g style="fill:#262626;" transform="translate(69.672943 339.153594)scale(0.11 -0.11)">
       <defs>
        <path d="M 50.34375 8.453125 
L 50.34375 0 
L 3.03125 0 
Q 2.9375 3.171875 4.046875 6.109375 
Q 5.859375 10.9375 9.828125 15.625 
Q 13.8125 20.3125 21.34375 26.46875 
Q 33.015625 36.03125 37.109375 41.625 
Q 41.21875 47.21875 41.21875 52.203125 
Q 41.21875 57.421875 37.46875 61 
Q 33.734375 64.59375 27.734375 64.59375 
Q 21.390625 64.59375 17.578125 60.78125 
Q 13.765625 56.984375 13.71875 50.25 
L 4.6875 51.171875 
Q 5.609375 61.28125 11.65625 66.578125 
Q 17.71875 71.875 27.9375 71.875 
Q 38.234375 71.875 44.234375 66.15625 
Q 50.25 60.453125 50.25 52 
Q 50.25 47.703125 48.484375 43.546875 
Q 46.734375 39.40625 42.65625 34.8125 
Q 38.578125 30.21875 29.109375 22.21875 
Q 21.1875 15.578125 18.9375 13.203125 
Q 16.703125 10.84375 15.234375 8.453125 
z
" id="ArialMT-50"/>
       </defs>
       <use xlink:href="#ArialMT-50"/>
      </g>
     </g>
    </g>
    <g id="xtick_2">
     <g id="line2d_2">
      <g>
       <use style="fill:#262626;stroke:#262626;stroke-width:1.25;" x="124.265625" xlink:href="#mce5f6abdcc" y="321.78"/>
      </g>
     </g>
     <g id="text_2">
      <!-- 4 -->
      <g style="fill:#262626;" transform="translate(121.207109 339.153594)scale(0.11 -0.11)">
       <defs>
        <path d="M 32.328125 0 
L 32.328125 17.140625 
L 1.265625 17.140625 
L 1.265625 25.203125 
L 33.9375 71.578125 
L 41.109375 71.578125 
L 41.109375 25.203125 
L 50.78125 25.203125 
L 50.78125 17.140625 
L 41.109375 17.140625 
L 41.109375 0 
z
M 32.328125 25.203125 
L 32.328125 57.46875 
L 9.90625 25.203125 
z
" id="ArialMT-52"/>
       </defs>
       <use xlink:href="#ArialMT-52"/>
      </g>
     </g>
    </g>
    <g id="xtick_3">
     <g id="line2d_3">
      <g>
       <use style="fill:#262626;stroke:#262626;stroke-width:1.25;" x="175.799792" xlink:href="#mce5f6abdcc" y="321.78"/>
      </g>
     </g>
     <g id="text_3">
      <!-- 6 -->
      <g style="fill:#262626;" transform="translate(172.741276 339.153594)scale(0.11 -0.11)">
       <defs>
        <path d="M 49.75 54.046875 
L 41.015625 53.375 
Q 39.84375 58.546875 37.703125 60.890625 
Q 34.125 64.65625 28.90625 64.65625 
Q 24.703125 64.65625 21.53125 62.3125 
Q 17.390625 59.28125 14.984375 53.46875 
Q 12.59375 47.65625 12.5 36.921875 
Q 15.671875 41.75 20.265625 44.09375 
Q 24.859375 46.4375 29.890625 46.4375 
Q 38.671875 46.4375 44.84375 39.96875 
Q 51.03125 33.5 51.03125 23.25 
Q 51.03125 16.5 48.125 10.71875 
Q 45.21875 4.9375 40.140625 1.859375 
Q 35.0625 -1.21875 28.609375 -1.21875 
Q 17.625 -1.21875 10.6875 6.859375 
Q 3.765625 14.9375 3.765625 33.5 
Q 3.765625 54.25 11.421875 63.671875 
Q 18.109375 71.875 29.4375 71.875 
Q 37.890625 71.875 43.28125 67.140625 
Q 48.6875 62.40625 49.75 54.046875 
z
M 13.875 23.1875 
Q 13.875 18.65625 15.796875 14.5 
Q 17.71875 10.359375 21.1875 8.171875 
Q 24.65625 6 28.46875 6 
Q 34.03125 6 38.03125 10.484375 
Q 42.046875 14.984375 42.046875 22.703125 
Q 42.046875 30.125 38.078125 34.390625 
Q 34.125 38.671875 28.125 38.671875 
Q 22.171875 38.671875 18.015625 34.390625 
Q 13.875 30.125 13.875 23.1875 
z
" id="ArialMT-54"/>
       </defs>
       <use xlink:href="#ArialMT-54"/>
      </g>
     </g>
    </g>
    <g id="xtick_4">
     <g id="line2d_4">
      <g>
       <use style="fill:#262626;stroke:#262626;stroke-width:1.25;" x="227.333958" xlink:href="#mce5f6abdcc" y="321.78"/>
      </g>
     </g>
     <g id="text_4">
      <!-- 8 -->
      <g style="fill:#262626;" transform="translate(224.275443 339.153594)scale(0.11 -0.11)">
       <defs>
        <path d="M 17.671875 38.8125 
Q 12.203125 40.828125 9.5625 44.53125 
Q 6.9375 48.25 6.9375 53.421875 
Q 6.9375 61.234375 12.546875 66.546875 
Q 18.171875 71.875 27.484375 71.875 
Q 36.859375 71.875 42.578125 66.421875 
Q 48.296875 60.984375 48.296875 53.171875 
Q 48.296875 48.1875 45.671875 44.5 
Q 43.0625 40.828125 37.75 38.8125 
Q 44.34375 36.671875 47.78125 31.875 
Q 51.21875 27.09375 51.21875 20.453125 
Q 51.21875 11.28125 44.71875 5.03125 
Q 38.234375 -1.21875 27.640625 -1.21875 
Q 17.046875 -1.21875 10.546875 5.046875 
Q 4.046875 11.328125 4.046875 20.703125 
Q 4.046875 27.6875 7.59375 32.390625 
Q 11.140625 37.109375 17.671875 38.8125 
z
M 15.921875 53.71875 
Q 15.921875 48.640625 19.1875 45.40625 
Q 22.46875 42.1875 27.6875 42.1875 
Q 32.765625 42.1875 36.015625 45.375 
Q 39.265625 48.578125 39.265625 53.21875 
Q 39.265625 58.0625 35.90625 61.359375 
Q 32.5625 64.65625 27.59375 64.65625 
Q 22.5625 64.65625 19.234375 61.421875 
Q 15.921875 58.203125 15.921875 53.71875 
z
M 13.09375 20.65625 
Q 13.09375 16.890625 14.875 13.375 
Q 16.65625 9.859375 20.171875 7.921875 
Q 23.6875 6 27.734375 6 
Q 34.03125 6 38.125 10.046875 
Q 42.234375 14.109375 42.234375 20.359375 
Q 42.234375 26.703125 38.015625 30.859375 
Q 33.796875 35.015625 27.4375 35.015625 
Q 21.234375 35.015625 17.15625 30.90625 
Q 13.09375 26.8125 13.09375 20.65625 
z
" id="ArialMT-56"/>
       </defs>
       <use xlink:href="#ArialMT-56"/>
      </g>
     </g>
    </g>
    <g id="xtick_5">
     <g id="line2d_5">
      <g>
       <use style="fill:#262626;stroke:#262626;stroke-width:1.25;" x="278.868125" xlink:href="#mce5f6abdcc" y="321.78"/>
      </g>
     </g>
     <g id="text_5">
      <!-- 10 -->
      <g style="fill:#262626;" transform="translate(272.751094 339.153594)scale(0.11 -0.11)">
       <defs>
        <path d="M 37.25 0 
L 28.46875 0 
L 28.46875 56 
Q 25.296875 52.984375 20.140625 49.953125 
Q 14.984375 46.921875 10.890625 45.40625 
L 10.890625 53.90625 
Q 18.265625 57.375 23.78125 62.296875 
Q 29.296875 67.234375 31.59375 71.875 
L 37.25 71.875 
z
" id="ArialMT-49"/>
        <path d="M 4.15625 35.296875 
Q 4.15625 48 6.765625 55.734375 
Q 9.375 63.484375 14.515625 67.671875 
Q 19.671875 71.875 27.484375 71.875 
Q 33.25 71.875 37.59375 69.546875 
Q 41.9375 67.234375 44.765625 62.859375 
Q 47.609375 58.5 49.21875 52.21875 
Q 50.828125 45.953125 50.828125 35.296875 
Q 50.828125 22.703125 48.234375 14.96875 
Q 45.65625 7.234375 40.5 3 
Q 35.359375 -1.21875 27.484375 -1.21875 
Q 17.140625 -1.21875 11.234375 6.203125 
Q 4.15625 15.140625 4.15625 35.296875 
z
M 13.1875 35.296875 
Q 13.1875 17.671875 17.3125 11.828125 
Q 21.4375 6 27.484375 6 
Q 33.546875 6 37.671875 11.859375 
Q 41.796875 17.71875 41.796875 35.296875 
Q 41.796875 52.984375 37.671875 58.78125 
Q 33.546875 64.59375 27.390625 64.59375 
Q 21.34375 64.59375 17.71875 59.46875 
Q 13.1875 52.9375 13.1875 35.296875 
z
" id="ArialMT-48"/>
       </defs>
       <use xlink:href="#ArialMT-49"/>
       <use x="55.615234" xlink:href="#ArialMT-48"/>
      </g>
     </g>
    </g>
    <g id="xtick_6">
     <g id="line2d_6">
      <g>
       <use style="fill:#262626;stroke:#262626;stroke-width:1.25;" x="330.402292" xlink:href="#mce5f6abdcc" y="321.78"/>
      </g>
     </g>
     <g id="text_6">
      <!-- 12 -->
      <g style="fill:#262626;" transform="translate(324.28526 339.153594)scale(0.11 -0.11)">
       <use xlink:href="#ArialMT-49"/>
       <use x="55.615234" xlink:href="#ArialMT-50"/>
      </g>
     </g>
    </g>
    <g id="text_7">
     <!-- a7a -->
     <g style="fill:#262626;" transform="translate(191.557187 353.929219)scale(0.12 -0.12)">
      <defs>
       <path d="M 40.4375 6.390625 
Q 35.546875 2.25 31.03125 0.53125 
Q 26.515625 -1.171875 21.34375 -1.171875 
Q 12.796875 -1.171875 8.203125 3 
Q 3.609375 7.171875 3.609375 13.671875 
Q 3.609375 17.484375 5.34375 20.625 
Q 7.078125 23.78125 9.890625 25.6875 
Q 12.703125 27.59375 16.21875 28.5625 
Q 18.796875 29.25 24.03125 29.890625 
Q 34.671875 31.15625 39.703125 32.90625 
Q 39.75 34.71875 39.75 35.203125 
Q 39.75 40.578125 37.25 42.78125 
Q 33.890625 45.75 27.25 45.75 
Q 21.046875 45.75 18.09375 43.578125 
Q 15.140625 41.40625 13.71875 35.890625 
L 5.125 37.0625 
Q 6.296875 42.578125 8.984375 45.96875 
Q 11.671875 49.359375 16.75 51.1875 
Q 21.828125 53.03125 28.515625 53.03125 
Q 35.15625 53.03125 39.296875 51.46875 
Q 43.453125 49.90625 45.40625 47.53125 
Q 47.359375 45.171875 48.140625 41.546875 
Q 48.578125 39.3125 48.578125 33.453125 
L 48.578125 21.734375 
Q 48.578125 9.46875 49.140625 6.21875 
Q 49.703125 2.984375 51.375 0 
L 42.1875 0 
Q 40.828125 2.734375 40.4375 6.390625 
z
M 39.703125 26.03125 
Q 34.90625 24.078125 25.34375 22.703125 
Q 19.921875 21.921875 17.671875 20.9375 
Q 15.4375 19.96875 14.203125 18.09375 
Q 12.984375 16.21875 12.984375 13.921875 
Q 12.984375 10.40625 15.640625 8.0625 
Q 18.3125 5.71875 23.4375 5.71875 
Q 28.515625 5.71875 32.46875 7.9375 
Q 36.421875 10.15625 38.28125 14.015625 
Q 39.703125 17 39.703125 22.796875 
z
" id="ArialMT-97"/>
       <path d="M 4.734375 62.203125 
L 4.734375 70.65625 
L 51.078125 70.65625 
L 51.078125 63.8125 
Q 44.234375 56.546875 37.515625 44.484375 
Q 30.8125 32.421875 27.15625 19.671875 
Q 24.515625 10.6875 23.78125 0 
L 14.75 0 
Q 14.890625 8.453125 18.0625 20.40625 
Q 21.234375 32.375 27.171875 43.484375 
Q 33.109375 54.59375 39.796875 62.203125 
z
" id="ArialMT-55"/>
      </defs>
      <use xlink:href="#ArialMT-97"/>
      <use x="55.615234" xlink:href="#ArialMT-55"/>
      <use x="111.230469" xlink:href="#ArialMT-97"/>
     </g>
    </g>
   </g>
   <g id="matplotlib.axis_2">
    <g id="ytick_1">
     <g id="line2d_7">
      <defs>
       <path d="M 0 0 
L -6 0 
" id="m940ffe4e32" style="stroke:#262626;stroke-width:1.25;"/>
      </defs>
      <g>
       <use style="fill:#262626;stroke:#262626;stroke-width:1.25;" x="46.964375" xlink:href="#m940ffe4e32" y="300.331364"/>
      </g>
     </g>
     <g id="text_8">
      <!-- 1.4 -->
      <g style="fill:#262626;" transform="translate(22.174375 304.268161)scale(0.11 -0.11)">
       <defs>
        <path d="M 9.078125 0 
L 9.078125 10.015625 
L 19.09375 10.015625 
L 19.09375 0 
z
" id="ArialMT-46"/>
       </defs>
       <use xlink:href="#ArialMT-49"/>
       <use x="55.615234" xlink:href="#ArialMT-46"/>
       <use x="83.398438" xlink:href="#ArialMT-52"/>
      </g>
     </g>
    </g>
    <g id="ytick_2">
     <g id="line2d_8">
      <g>
       <use style="fill:#262626;stroke:#262626;stroke-width:1.25;" x="46.964375" xlink:href="#m940ffe4e32" y="253.859318"/>
      </g>
     </g>
     <g id="text_9">
      <!-- 1.5 -->
      <g style="fill:#262626;" transform="translate(22.174375 257.796115)scale(0.11 -0.11)">
       <defs>
        <path d="M 4.15625 18.75 
L 13.375 19.53125 
Q 14.40625 12.796875 18.140625 9.390625 
Q 21.875 6 27.15625 6 
Q 33.5 6 37.890625 10.78125 
Q 42.28125 15.578125 42.28125 23.484375 
Q 42.28125 31 38.0625 35.34375 
Q 33.84375 39.703125 27 39.703125 
Q 22.75 39.703125 19.328125 37.765625 
Q 15.921875 35.84375 13.96875 32.765625 
L 5.71875 33.84375 
L 12.640625 70.609375 
L 48.25 70.609375 
L 48.25 62.203125 
L 19.671875 62.203125 
L 15.828125 42.96875 
Q 22.265625 47.46875 29.34375 47.46875 
Q 38.71875 47.46875 45.15625 40.96875 
Q 51.609375 34.46875 51.609375 24.265625 
Q 51.609375 14.546875 45.953125 7.46875 
Q 39.0625 -1.21875 27.15625 -1.21875 
Q 17.390625 -1.21875 11.203125 4.25 
Q 5.03125 9.71875 4.15625 18.75 
z
" id="ArialMT-53"/>
       </defs>
       <use xlink:href="#ArialMT-49"/>
       <use x="55.615234" xlink:href="#ArialMT-46"/>
       <use x="83.398438" xlink:href="#ArialMT-53"/>
      </g>
     </g>
    </g>
    <g id="ytick_3">
     <g id="line2d_9">
      <g>
       <use style="fill:#262626;stroke:#262626;stroke-width:1.25;" x="46.964375" xlink:href="#m940ffe4e32" y="207.387273"/>
      </g>
     </g>
     <g id="text_10">
      <!-- 1.6 -->
      <g style="fill:#262626;" transform="translate(22.174375 211.32407)scale(0.11 -0.11)">
       <use xlink:href="#ArialMT-49"/>
       <use x="55.615234" xlink:href="#ArialMT-46"/>
       <use x="83.398438" xlink:href="#ArialMT-54"/>
      </g>
     </g>
    </g>
    <g id="ytick_4">
     <g id="line2d_10">
      <g>
       <use style="fill:#262626;stroke:#262626;stroke-width:1.25;" x="46.964375" xlink:href="#m940ffe4e32" y="160.915227"/>
      </g>
     </g>
     <g id="text_11">
      <!-- 1.7 -->
      <g style="fill:#262626;" transform="translate(22.174375 164.852024)scale(0.11 -0.11)">
       <use xlink:href="#ArialMT-49"/>
       <use x="55.615234" xlink:href="#ArialMT-46"/>
       <use x="83.398438" xlink:href="#ArialMT-55"/>
      </g>
     </g>
    </g>
    <g id="ytick_5">
     <g id="line2d_11">
      <g>
       <use style="fill:#262626;stroke:#262626;stroke-width:1.25;" x="46.964375" xlink:href="#m940ffe4e32" y="114.443182"/>
      </g>
     </g>
     <g id="text_12">
      <!-- 1.8 -->
      <g style="fill:#262626;" transform="translate(22.174375 118.379979)scale(0.11 -0.11)">
       <use xlink:href="#ArialMT-49"/>
       <use x="55.615234" xlink:href="#ArialMT-46"/>
       <use x="83.398438" xlink:href="#ArialMT-56"/>
      </g>
     </g>
    </g>
    <g id="ytick_6">
     <g id="line2d_12">
      <g>
       <use style="fill:#262626;stroke:#262626;stroke-width:1.25;" x="46.964375" xlink:href="#m940ffe4e32" y="67.971136"/>
      </g>
     </g>
     <g id="text_13">
      <!-- 1.9 -->
      <g style="fill:#262626;" transform="translate(22.174375 71.907933)scale(0.11 -0.11)">
       <defs>
        <path d="M 5.46875 16.546875 
L 13.921875 17.328125 
Q 14.984375 11.375 18.015625 8.6875 
Q 21.046875 6 25.78125 6 
Q 29.828125 6 32.875 7.859375 
Q 35.9375 9.71875 37.890625 12.8125 
Q 39.84375 15.921875 41.15625 21.1875 
Q 42.484375 26.46875 42.484375 31.9375 
Q 42.484375 32.515625 42.4375 33.6875 
Q 39.796875 29.5 35.234375 26.875 
Q 30.671875 24.265625 25.34375 24.265625 
Q 16.453125 24.265625 10.296875 30.703125 
Q 4.15625 37.15625 4.15625 47.703125 
Q 4.15625 58.59375 10.578125 65.234375 
Q 17 71.875 26.65625 71.875 
Q 33.640625 71.875 39.421875 68.109375 
Q 45.21875 64.359375 48.21875 57.390625 
Q 51.21875 50.4375 51.21875 37.25 
Q 51.21875 23.53125 48.234375 15.40625 
Q 45.265625 7.28125 39.375 3.03125 
Q 33.5 -1.21875 25.59375 -1.21875 
Q 17.1875 -1.21875 11.859375 3.4375 
Q 6.546875 8.109375 5.46875 16.546875 
z
M 41.453125 48.140625 
Q 41.453125 55.71875 37.421875 60.15625 
Q 33.40625 64.59375 27.734375 64.59375 
Q 21.875 64.59375 17.53125 59.8125 
Q 13.1875 55.03125 13.1875 47.40625 
Q 13.1875 40.578125 17.3125 36.296875 
Q 21.4375 32.03125 27.484375 32.03125 
Q 33.59375 32.03125 37.515625 36.296875 
Q 41.453125 40.578125 41.453125 48.140625 
z
" id="ArialMT-57"/>
       </defs>
       <use xlink:href="#ArialMT-49"/>
       <use x="55.615234" xlink:href="#ArialMT-46"/>
       <use x="83.398438" xlink:href="#ArialMT-57"/>
      </g>
     </g>
    </g>
    <g id="ytick_7">
     <g id="line2d_13">
      <g>
       <use style="fill:#262626;stroke:#262626;stroke-width:1.25;" x="46.964375" xlink:href="#m940ffe4e32" y="21.499091"/>
      </g>
     </g>
     <g id="text_14">
      <!-- 2.0 -->
      <g style="fill:#262626;" transform="translate(22.174375 25.435888)scale(0.11 -0.11)">
       <use xlink:href="#ArialMT-50"/>
       <use x="55.615234" xlink:href="#ArialMT-46"/>
       <use x="83.398438" xlink:href="#ArialMT-48"/>
      </g>
     </g>
    </g>
    <g id="text_15">
     <!-- l2409 -->
     <g style="fill:#262626;" transform="translate(15.789375 179.169375)rotate(-90)scale(0.12 -0.12)">
      <defs>
       <path d="M 6.390625 0 
L 6.390625 71.578125 
L 15.1875 71.578125 
L 15.1875 0 
z
" id="ArialMT-108"/>
      </defs>
      <use xlink:href="#ArialMT-108"/>
      <use x="22.216797" xlink:href="#ArialMT-50"/>
      <use x="77.832031" xlink:href="#ArialMT-52"/>
      <use x="133.447266" xlink:href="#ArialMT-48"/>
      <use x="189.0625" xlink:href="#ArialMT-57"/>
     </g>
    </g>
   </g>
   <g id="PathCollection_1">
    <defs>
     <path d="M 0 3.535534 
C 0.937635 3.535534 1.836992 3.163008 2.5 2.5 
C 3.163008 1.836992 3.535534 0.937635 3.535534 0 
C 3.535534 -0.937635 3.163008 -1.836992 2.5 -2.5 
C 1.836992 -3.163008 0.937635 -3.535534 0 -3.535534 
C -0.937635 -3.535534 -1.836992 -3.163008 -2.5 -2.5 
C -3.163008 -1.836992 -3.535534 -0.937635 -3.535534 0 
C -3.535534 0.937635 -3.163008 1.836992 -2.5 2.5 
C -1.836992 3.163008 -0.937635 3.535534 0 3.535534 
z
" id="mb054b7c1ef" style="stroke:#4c72b0;"/>
    </defs>
    <g clip-path="url(#pb04e430e6d)">
     <use style="fill:#4c72b0;stroke:#4c72b0;" x="46.964375" xlink:href="#mb054b7c1ef" y="221.587064"/>
     <use style="fill:#4c72b0;stroke:#4c72b0;" x="72.731458" xlink:href="#mb054b7c1ef" y="154.276364"/>
     <use style="fill:#4c72b0;stroke:#4c72b0;" x="98.498542" xlink:href="#mb054b7c1ef" y="222.755981"/>
     <use style="fill:#4c72b0;stroke:#4c72b0;" x="124.265625" xlink:href="#mb054b7c1ef" y="183.695642"/>
     <use style="fill:#4c72b0;stroke:#4c72b0;" x="150.032708" xlink:href="#mb054b7c1ef" y="154.276364"/>
     <use style="fill:#4c72b0;stroke:#4c72b0;" x="175.799792" xlink:href="#mb054b7c1ef" y="187.775217"/>
     <use style="fill:#4c72b0;stroke:#4c72b0;" x="201.566875" xlink:href="#mb054b7c1ef" y="154.276364"/>
     <use style="fill:#4c72b0;stroke:#4c72b0;" x="227.333958" xlink:href="#mb054b7c1ef" y="200.237727"/>
     <use style="fill:#4c72b0;stroke:#4c72b0;" x="253.101042" xlink:href="#mb054b7c1ef" y="132.627895"/>
     <use style="fill:#4c72b0;stroke:#4c72b0;" x="278.868125" xlink:href="#mb054b7c1ef" y="126.718816"/>
     <use style="fill:#4c72b0;stroke:#4c72b0;" x="304.635208" xlink:href="#mb054b7c1ef" y="67.971136"/>
     <use style="fill:#4c72b0;stroke:#4c72b0;" x="330.402292" xlink:href="#mb054b7c1ef" y="105.484715"/>
     <use style="fill:#4c72b0;stroke:#4c72b0;" x="356.169375" xlink:href="#mb054b7c1ef" y="166.724233"/>
    </g>
   </g>
   <g id="PolyCollection_1">
    <defs>
     <path d="M 46.964375 -163.358943 
L 46.964375 -113.47894 
L 50.087658 -115.182435 
L 53.210941 -116.792598 
L 56.334223 -118.366765 
L 59.457506 -120.108384 
L 62.580789 -121.85346 
L 65.704072 -123.598537 
L 68.827355 -125.342455 
L 71.950638 -127.085026 
L 75.07392 -128.759308 
L 78.197203 -130.360612 
L 81.320486 -131.976504 
L 84.443769 -133.431515 
L 87.567052 -135.1686 
L 90.690335 -136.779137 
L 93.813617 -138.417777 
L 96.9369 -140.031459 
L 100.060183 -141.739136 
L 103.183466 -143.121807 
L 106.306749 -144.764424 
L 109.430032 -146.372902 
L 112.553314 -147.802345 
L 115.676597 -149.335043 
L 118.79988 -150.824554 
L 121.923163 -152.330161 
L 125.046446 -153.731428 
L 128.169729 -155.236382 
L 131.293011 -156.623297 
L 134.416294 -158.010212 
L 137.539577 -159.381674 
L 140.66286 -160.749372 
L 143.786143 -162.196519 
L 146.909426 -163.939758 
L 150.032708 -165.444656 
L 153.155991 -167.042845 
L 156.279274 -168.484948 
L 159.402557 -169.975627 
L 162.52584 -171.525093 
L 165.649122 -172.868237 
L 168.772405 -174.319261 
L 171.895688 -175.674706 
L 175.018971 -176.900963 
L 178.142254 -178.195374 
L 181.265537 -179.584452 
L 184.388819 -180.558231 
L 187.512102 -181.587773 
L 190.635385 -182.974689 
L 193.758668 -184.195182 
L 196.881951 -185.615436 
L 200.005234 -187.05302 
L 203.128516 -188.255389 
L 206.251799 -189.352877 
L 209.375082 -190.616547 
L 212.498365 -191.940497 
L 215.621648 -193.199051 
L 218.744931 -194.481871 
L 221.868213 -195.693778 
L 224.991496 -196.857192 
L 228.114779 -197.93172 
L 231.238062 -199.010983 
L 234.361345 -200.088555 
L 237.484628 -201.161972 
L 240.60791 -202.517289 
L 243.731193 -203.486538 
L 246.854476 -204.6426 
L 249.977759 -205.698129 
L 253.101042 -206.760143 
L 256.224324 -207.816576 
L 259.347607 -208.87897 
L 262.47089 -209.819132 
L 265.594173 -210.807672 
L 268.717456 -211.883228 
L 271.840739 -212.829195 
L 274.964021 -213.627662 
L 278.087304 -214.483759 
L 281.210587 -215.339855 
L 284.33387 -216.195951 
L 287.457153 -217.052047 
L 290.580436 -217.910905 
L 293.703718 -218.774709 
L 296.827001 -219.634999 
L 299.950284 -220.488375 
L 303.073567 -221.341751 
L 306.19685 -222.206326 
L 309.320133 -223.226949 
L 312.443415 -224.064475 
L 315.566698 -225.065062 
L 318.689981 -225.932775 
L 321.813264 -226.728978 
L 324.936547 -227.414417 
L 328.05983 -228.215576 
L 331.183112 -229.069399 
L 334.306395 -229.924278 
L 337.429678 -230.78677 
L 340.552961 -231.589641 
L 343.676244 -232.505476 
L 346.799527 -233.360843 
L 349.922809 -234.210088 
L 353.046092 -234.987583 
L 356.169375 -235.765078 
L 356.169375 -297.350416 
L 356.169375 -297.350416 
L 353.046092 -295.796213 
L 349.922809 -294.231357 
L 346.799527 -292.365672 
L 343.676244 -290.770003 
L 340.552961 -288.946167 
L 337.429678 -287.118041 
L 334.306395 -285.499744 
L 331.183112 -283.638874 
L 328.05983 -281.840697 
L 324.936547 -280.172478 
L 321.813264 -278.205716 
L 318.689981 -276.23158 
L 315.566698 -274.340878 
L 312.443415 -272.606936 
L 309.320133 -270.973691 
L 306.19685 -269.340445 
L 303.073567 -267.7072 
L 299.950284 -266.080486 
L 296.827001 -264.448529 
L 293.703718 -262.824742 
L 290.580436 -261.412791 
L 287.457153 -259.617455 
L 284.33387 -257.907392 
L 281.210587 -256.157324 
L 278.087304 -254.377043 
L 274.964021 -252.567768 
L 271.840739 -250.898307 
L 268.717456 -249.150123 
L 265.594173 -247.393394 
L 262.47089 -245.637325 
L 259.347607 -244.144836 
L 256.224324 -242.86351 
L 253.101042 -241.47367 
L 249.977759 -240.026729 
L 246.854476 -238.400749 
L 243.731193 -236.781132 
L 240.60791 -235.301748 
L 237.484628 -233.722168 
L 234.361345 -231.985732 
L 231.238062 -230.324383 
L 228.114779 -228.710447 
L 224.991496 -227.246759 
L 221.868213 -225.8195 
L 218.744931 -224.246831 
L 215.621648 -222.903967 
L 212.498365 -221.561908 
L 209.375082 -219.785886 
L 206.251799 -218.433218 
L 203.128516 -217.115347 
L 200.005234 -216.034678 
L 196.881951 -214.957202 
L 193.758668 -213.679071 
L 190.635385 -212.443241 
L 187.512102 -211.23076 
L 184.388819 -209.855833 
L 181.265537 -208.65466 
L 178.142254 -207.662644 
L 175.018971 -206.538895 
L 171.895688 -205.324562 
L 168.772405 -204.121671 
L 165.649122 -202.781178 
L 162.52584 -201.556169 
L 159.402557 -200.536782 
L 156.279274 -199.375015 
L 153.155991 -197.984367 
L 150.032708 -196.6796 
L 146.909426 -195.693745 
L 143.786143 -194.44436 
L 140.66286 -193.324446 
L 137.539577 -192.383204 
L 134.416294 -191.281338 
L 131.293011 -190.156045 
L 128.169729 -189.147276 
L 125.046446 -188.140142 
L 121.923163 -186.859904 
L 118.79988 -185.841571 
L 115.676597 -184.852546 
L 112.553314 -183.969407 
L 109.430032 -183.117813 
L 106.306749 -182.120184 
L 103.183466 -181.111445 
L 100.060183 -180.098188 
L 96.9369 -178.920013 
L 93.813617 -178.030515 
L 90.690335 -176.887129 
L 87.567052 -175.709395 
L 84.443769 -174.954084 
L 81.320486 -173.966515 
L 78.197203 -173.065521 
L 75.07392 -172.066669 
L 71.950638 -171.059441 
L 68.827355 -170.094038 
L 65.704072 -169.13063 
L 62.580789 -168.192964 
L 59.457506 -167.254488 
L 56.334223 -166.315709 
L 53.210941 -165.375083 
L 50.087658 -164.360329 
L 46.964375 -163.358943 
z
" id="m6bf4e24eb4" style="stroke:#ffffff;stroke-opacity:0.15;"/>
    </defs>
    <g clip-path="url(#pb04e430e6d)">
     <use style="fill:#4c72b0;fill-opacity:0.15;stroke:#ffffff;stroke-opacity:0.15;" x="0" xlink:href="#m6bf4e24eb4" y="363.514219"/>
    </g>
   </g>
   <g id="line2d_14">
    <path clip-path="url(#pb04e430e6d)" d="M 46.964375 266.929581 
L 46.964375 163.497008 
" style="fill:none;stroke:#4c72b0;stroke-linecap:round;stroke-width:2.625;"/>
   </g>
   <g id="line2d_15">
    <path clip-path="url(#pb04e430e6d)" d="M 72.731458 288.713352 
L 72.731458 21.499091 
" style="fill:none;stroke:#4c72b0;stroke-linecap:round;stroke-width:2.625;"/>
   </g>
   <g id="line2d_16">
    <path clip-path="url(#pb04e430e6d)" d="M 98.498542 259.348142 
L 98.498542 182.413122 
" style="fill:none;stroke:#4c72b0;stroke-linecap:round;stroke-width:2.625;"/>
   </g>
   <g id="line2d_17">
    <path clip-path="url(#pb04e430e6d)" d="M 124.265625 212.854572 
L 124.265625 156.359144 
" style="fill:none;stroke:#4c72b0;stroke-linecap:round;stroke-width:2.625;"/>
   </g>
   <g id="line2d_18">
    <path clip-path="url(#pb04e430e6d)" d="M 150.032708 287.053636 
L 150.032708 54.693409 
" style="fill:none;stroke:#4c72b0;stroke-linecap:round;stroke-width:2.625;"/>
   </g>
   <g id="line2d_19">
    <path clip-path="url(#pb04e430e6d)" d="M 175.799792 230.410121 
L 175.799792 145.140313 
" style="fill:none;stroke:#4c72b0;stroke-linecap:round;stroke-width:2.625;"/>
   </g>
   <g id="line2d_20">
    <path clip-path="url(#pb04e430e6d)" d="M 201.566875 212.36642 
L 201.566875 104.484886 
" style="fill:none;stroke:#4c72b0;stroke-linecap:round;stroke-width:2.625;"/>
   </g>
   <g id="line2d_21">
    <path clip-path="url(#pb04e430e6d)" d="M 227.333958 307.480909 
L 227.333958 92.994545 
" style="fill:none;stroke:#4c72b0;stroke-linecap:round;stroke-width:2.625;"/>
   </g>
   <g id="line2d_22">
    <path clip-path="url(#pb04e430e6d)" d="M 253.101042 193.243607 
L 253.101042 82.114802 
" style="fill:none;stroke:#4c72b0;stroke-linecap:round;stroke-width:2.625;"/>
   </g>
   <g id="line2d_23">
    <path clip-path="url(#pb04e430e6d)" d="M 278.868125 188.09699 
L 278.868125 74.108954 
" style="fill:none;stroke:#4c72b0;stroke-linecap:round;stroke-width:2.625;"/>
   </g>
   <g id="line2d_24">
    <path clip-path="url(#pb04e430e6d)" d="M 304.635208 114.443182 
L 304.635208 21.499091 
" style="fill:none;stroke:#4c72b0;stroke-linecap:round;stroke-width:2.625;"/>
   </g>
   <g id="line2d_25">
    <path clip-path="url(#pb04e430e6d)" d="M 330.402292 144.678007 
L 330.402292 66.291424 
" style="fill:none;stroke:#4c72b0;stroke-linecap:round;stroke-width:2.625;"/>
   </g>
   <g id="line2d_26">
    <path clip-path="url(#pb04e430e6d)" d="M 356.169375 282.904347 
L 356.169375 50.544119 
" style="fill:none;stroke:#4c72b0;stroke-linecap:round;stroke-width:2.625;"/>
   </g>
   <g id="line2d_27">
    <path clip-path="url(#pb04e430e6d)" d="M 46.964375 225.289179 
L 50.087658 223.989069 
L 53.210941 222.68896 
L 56.334223 221.38885 
L 59.457506 220.08874 
L 62.580789 218.78863 
L 65.704072 217.488521 
L 68.827355 216.188411 
L 71.950638 214.888301 
L 75.07392 213.588191 
L 78.197203 212.288082 
L 81.320486 210.987972 
L 84.443769 209.687862 
L 87.567052 208.387752 
L 90.690335 207.087643 
L 93.813617 205.787533 
L 96.9369 204.487423 
L 100.060183 203.187313 
L 103.183466 201.887204 
L 106.306749 200.587094 
L 109.430032 199.286984 
L 112.553314 197.986874 
L 115.676597 196.686764 
L 118.79988 195.386655 
L 121.923163 194.086545 
L 125.046446 192.786435 
L 128.169729 191.486325 
L 131.293011 190.186216 
L 134.416294 188.886106 
L 137.539577 187.585996 
L 140.66286 186.285886 
L 143.786143 184.985777 
L 146.909426 183.685667 
L 150.032708 182.385557 
L 153.155991 181.085447 
L 156.279274 179.785338 
L 159.402557 178.485228 
L 162.52584 177.185118 
L 165.649122 175.885008 
L 168.772405 174.584899 
L 171.895688 173.284789 
L 175.018971 171.984679 
L 178.142254 170.684569 
L 181.265537 169.38446 
L 184.388819 168.08435 
L 187.512102 166.78424 
L 190.635385 165.48413 
L 193.758668 164.184021 
L 196.881951 162.883911 
L 200.005234 161.583801 
L 203.128516 160.283691 
L 206.251799 158.983581 
L 209.375082 157.683472 
L 212.498365 156.383362 
L 215.621648 155.083252 
L 218.744931 153.783142 
L 221.868213 152.483033 
L 224.991496 151.182923 
L 228.114779 149.882813 
L 231.238062 148.582703 
L 234.361345 147.282594 
L 237.484628 145.982484 
L 240.60791 144.682374 
L 243.731193 143.382264 
L 246.854476 142.082155 
L 249.977759 140.782045 
L 253.101042 139.481935 
L 256.224324 138.181825 
L 259.347607 136.881716 
L 262.47089 135.581606 
L 265.594173 134.281496 
L 268.717456 132.981386 
L 271.840739 131.681277 
L 274.964021 130.381167 
L 278.087304 129.081057 
L 281.210587 127.780947 
L 284.33387 126.480838 
L 287.457153 125.180728 
L 290.580436 123.880618 
L 293.703718 122.580508 
L 296.827001 121.280398 
L 299.950284 119.980289 
L 303.073567 118.680179 
L 306.19685 117.380069 
L 309.320133 116.079959 
L 312.443415 114.77985 
L 315.566698 113.47974 
L 318.689981 112.17963 
L 321.813264 110.87952 
L 324.936547 109.579411 
L 328.05983 108.279301 
L 331.183112 106.979191 
L 334.306395 105.679081 
L 337.429678 104.378972 
L 340.552961 103.078862 
L 343.676244 101.778752 
L 346.799527 100.478642 
L 349.922809 99.178533 
L 353.046092 97.878423 
L 356.169375 96.578313 
" style="fill:none;stroke:#4c72b0;stroke-linecap:round;stroke-width:2.25;"/>
   </g>
   <g id="patch_3">
    <path d="M 46.964375 321.78 
L 46.964375 7.2 
" style="fill:none;stroke:#262626;stroke-linecap:square;stroke-linejoin:miter;stroke-width:1.25;"/>
   </g>
   <g id="patch_4">
    <path d="M 46.964375 321.78 
L 356.169375 321.78 
" style="fill:none;stroke:#262626;stroke-linecap:square;stroke-linejoin:miter;stroke-width:1.25;"/>
   </g>
  </g>
 </g>
 <defs>
  <clipPath id="pb04e430e6d">
   <rect height="314.58" width="309.205" x="46.964375" y="7.2"/>
  </clipPath>
 </defs>
</svg>
