<?xml version="1.0" encoding="utf-8" standalone="no"?>
<!DOCTYPE svg PUBLIC "-//W3C//DTD SVG 1.1//EN"
  "http://www.w3.org/Graphics/SVG/1.1/DTD/svg11.dtd">
<!-- Created with matplotlib (https://matplotlib.org/) -->
<svg height="363.514219pt" version="1.1" viewBox="0 0 363.369375 363.514219" width="363.369375pt" xmlns="http://www.w3.org/2000/svg" xmlns:xlink="http://www.w3.org/1999/xlink">
 <metadata>
  <rdf:RDF xmlns:cc="http://creativecommons.org/ns#" xmlns:dc="http://purl.org/dc/elements/1.1/" xmlns:rdf="http://www.w3.org/1999/02/22-rdf-syntax-ns#">
   <cc:Work>
    <dc:type rdf:resource="http://purl.org/dc/dcmitype/StillImage"/>
    <dc:date>2021-03-16T16:57:49.470540</dc:date>
    <dc:format>image/svg+xml</dc:format>
    <dc:creator>
     <cc:Agent>
      <dc:title>Matplotlib v3.3.2, https://matplotlib.org/</dc:title>
     </cc:Agent>
    </dc:creator>
   </cc:Work>
  </rdf:RDF>
 </metadata>
 <defs>
  <style type="text/css">*{stroke-linecap:butt;stroke-linejoin:round;}</style>
 </defs>
 <g id="figure_1">
  <g id="patch_1">
   <path d="M 0 363.514219 
L 363.369375 363.514219 
L 363.369375 0 
L 0 0 
z
" style="fill:#ffffff;"/>
  </g>
  <g id="axes_1">
   <g id="patch_2">
    <path d="M 46.964375 321.78 
L 356.169375 321.78 
L 356.169375 7.2 
L 46.964375 7.2 
z
" style="fill:#ffffff;"/>
   </g>
   <g id="matplotlib.axis_1">
    <g id="xtick_1">
     <g id="line2d_1">
      <defs>
       <path d="M 0 0 
L 0 6 
" id="m3c77b06fb6" style="stroke:#262626;stroke-width:1.25;"/>
      </defs>
      <g>
       <use style="fill:#262626;stroke:#262626;stroke-width:1.25;" x="72.731458" xlink:href="#m3c77b06fb6" y="321.78"/>
      </g>
     </g>
     <g id="text_1">
      <!-- 2 -->
      <g style="fill:#262626;" transform="translate(69.672943 339.153594)scale(0.11 -0.11)">
       <defs>
        <path d="M 50.34375 8.453125 
L 50.34375 0 
L 3.03125 0 
Q 2.9375 3.171875 4.046875 6.109375 
Q 5.859375 10.9375 9.828125 15.625 
Q 13.8125 20.3125 21.34375 26.46875 
Q 33.015625 36.03125 37.109375 41.625 
Q 41.21875 47.21875 41.21875 52.203125 
Q 41.21875 57.421875 37.46875 61 
Q 33.734375 64.59375 27.734375 64.59375 
Q 21.390625 64.59375 17.578125 60.78125 
Q 13.765625 56.984375 13.71875 50.25 
L 4.6875 51.171875 
Q 5.609375 61.28125 11.65625 66.578125 
Q 17.71875 71.875 27.9375 71.875 
Q 38.234375 71.875 44.234375 66.15625 
Q 50.25 60.453125 50.25 52 
Q 50.25 47.703125 48.484375 43.546875 
Q 46.734375 39.40625 42.65625 34.8125 
Q 38.578125 30.21875 29.109375 22.21875 
Q 21.1875 15.578125 18.9375 13.203125 
Q 16.703125 10.84375 15.234375 8.453125 
z
" id="ArialMT-50"/>
       </defs>
       <use xlink:href="#ArialMT-50"/>
      </g>
     </g>
    </g>
    <g id="xtick_2">
     <g id="line2d_2">
      <g>
       <use style="fill:#262626;stroke:#262626;stroke-width:1.25;" x="124.265625" xlink:href="#m3c77b06fb6" y="321.78"/>
      </g>
     </g>
     <g id="text_2">
      <!-- 4 -->
      <g style="fill:#262626;" transform="translate(121.207109 339.153594)scale(0.11 -0.11)">
       <defs>
        <path d="M 32.328125 0 
L 32.328125 17.140625 
L 1.265625 17.140625 
L 1.265625 25.203125 
L 33.9375 71.578125 
L 41.109375 71.578125 
L 41.109375 25.203125 
L 50.78125 25.203125 
L 50.78125 17.140625 
L 41.109375 17.140625 
L 41.109375 0 
z
M 32.328125 25.203125 
L 32.328125 57.46875 
L 9.90625 25.203125 
z
" id="ArialMT-52"/>
       </defs>
       <use xlink:href="#ArialMT-52"/>
      </g>
     </g>
    </g>
    <g id="xtick_3">
     <g id="line2d_3">
      <g>
       <use style="fill:#262626;stroke:#262626;stroke-width:1.25;" x="175.799792" xlink:href="#m3c77b06fb6" y="321.78"/>
      </g>
     </g>
     <g id="text_3">
      <!-- 6 -->
      <g style="fill:#262626;" transform="translate(172.741276 339.153594)scale(0.11 -0.11)">
       <defs>
        <path d="M 49.75 54.046875 
L 41.015625 53.375 
Q 39.84375 58.546875 37.703125 60.890625 
Q 34.125 64.65625 28.90625 64.65625 
Q 24.703125 64.65625 21.53125 62.3125 
Q 17.390625 59.28125 14.984375 53.46875 
Q 12.59375 47.65625 12.5 36.921875 
Q 15.671875 41.75 20.265625 44.09375 
Q 24.859375 46.4375 29.890625 46.4375 
Q 38.671875 46.4375 44.84375 39.96875 
Q 51.03125 33.5 51.03125 23.25 
Q 51.03125 16.5 48.125 10.71875 
Q 45.21875 4.9375 40.140625 1.859375 
Q 35.0625 -1.21875 28.609375 -1.21875 
Q 17.625 -1.21875 10.6875 6.859375 
Q 3.765625 14.9375 3.765625 33.5 
Q 3.765625 54.25 11.421875 63.671875 
Q 18.109375 71.875 29.4375 71.875 
Q 37.890625 71.875 43.28125 67.140625 
Q 48.6875 62.40625 49.75 54.046875 
z
M 13.875 23.1875 
Q 13.875 18.65625 15.796875 14.5 
Q 17.71875 10.359375 21.1875 8.171875 
Q 24.65625 6 28.46875 6 
Q 34.03125 6 38.03125 10.484375 
Q 42.046875 14.984375 42.046875 22.703125 
Q 42.046875 30.125 38.078125 34.390625 
Q 34.125 38.671875 28.125 38.671875 
Q 22.171875 38.671875 18.015625 34.390625 
Q 13.875 30.125 13.875 23.1875 
z
" id="ArialMT-54"/>
       </defs>
       <use xlink:href="#ArialMT-54"/>
      </g>
     </g>
    </g>
    <g id="xtick_4">
     <g id="line2d_4">
      <g>
       <use style="fill:#262626;stroke:#262626;stroke-width:1.25;" x="227.333958" xlink:href="#m3c77b06fb6" y="321.78"/>
      </g>
     </g>
     <g id="text_4">
      <!-- 8 -->
      <g style="fill:#262626;" transform="translate(224.275443 339.153594)scale(0.11 -0.11)">
       <defs>
        <path d="M 17.671875 38.8125 
Q 12.203125 40.828125 9.5625 44.53125 
Q 6.9375 48.25 6.9375 53.421875 
Q 6.9375 61.234375 12.546875 66.546875 
Q 18.171875 71.875 27.484375 71.875 
Q 36.859375 71.875 42.578125 66.421875 
Q 48.296875 60.984375 48.296875 53.171875 
Q 48.296875 48.1875 45.671875 44.5 
Q 43.0625 40.828125 37.75 38.8125 
Q 44.34375 36.671875 47.78125 31.875 
Q 51.21875 27.09375 51.21875 20.453125 
Q 51.21875 11.28125 44.71875 5.03125 
Q 38.234375 -1.21875 27.640625 -1.21875 
Q 17.046875 -1.21875 10.546875 5.046875 
Q 4.046875 11.328125 4.046875 20.703125 
Q 4.046875 27.6875 7.59375 32.390625 
Q 11.140625 37.109375 17.671875 38.8125 
z
M 15.921875 53.71875 
Q 15.921875 48.640625 19.1875 45.40625 
Q 22.46875 42.1875 27.6875 42.1875 
Q 32.765625 42.1875 36.015625 45.375 
Q 39.265625 48.578125 39.265625 53.21875 
Q 39.265625 58.0625 35.90625 61.359375 
Q 32.5625 64.65625 27.59375 64.65625 
Q 22.5625 64.65625 19.234375 61.421875 
Q 15.921875 58.203125 15.921875 53.71875 
z
M 13.09375 20.65625 
Q 13.09375 16.890625 14.875 13.375 
Q 16.65625 9.859375 20.171875 7.921875 
Q 23.6875 6 27.734375 6 
Q 34.03125 6 38.125 10.046875 
Q 42.234375 14.109375 42.234375 20.359375 
Q 42.234375 26.703125 38.015625 30.859375 
Q 33.796875 35.015625 27.4375 35.015625 
Q 21.234375 35.015625 17.15625 30.90625 
Q 13.09375 26.8125 13.09375 20.65625 
z
" id="ArialMT-56"/>
       </defs>
       <use xlink:href="#ArialMT-56"/>
      </g>
     </g>
    </g>
    <g id="xtick_5">
     <g id="line2d_5">
      <g>
       <use style="fill:#262626;stroke:#262626;stroke-width:1.25;" x="278.868125" xlink:href="#m3c77b06fb6" y="321.78"/>
      </g>
     </g>
     <g id="text_5">
      <!-- 10 -->
      <g style="fill:#262626;" transform="translate(272.751094 339.153594)scale(0.11 -0.11)">
       <defs>
        <path d="M 37.25 0 
L 28.46875 0 
L 28.46875 56 
Q 25.296875 52.984375 20.140625 49.953125 
Q 14.984375 46.921875 10.890625 45.40625 
L 10.890625 53.90625 
Q 18.265625 57.375 23.78125 62.296875 
Q 29.296875 67.234375 31.59375 71.875 
L 37.25 71.875 
z
" id="ArialMT-49"/>
        <path d="M 4.15625 35.296875 
Q 4.15625 48 6.765625 55.734375 
Q 9.375 63.484375 14.515625 67.671875 
Q 19.671875 71.875 27.484375 71.875 
Q 33.25 71.875 37.59375 69.546875 
Q 41.9375 67.234375 44.765625 62.859375 
Q 47.609375 58.5 49.21875 52.21875 
Q 50.828125 45.953125 50.828125 35.296875 
Q 50.828125 22.703125 48.234375 14.96875 
Q 45.65625 7.234375 40.5 3 
Q 35.359375 -1.21875 27.484375 -1.21875 
Q 17.140625 -1.21875 11.234375 6.203125 
Q 4.15625 15.140625 4.15625 35.296875 
z
M 13.1875 35.296875 
Q 13.1875 17.671875 17.3125 11.828125 
Q 21.4375 6 27.484375 6 
Q 33.546875 6 37.671875 11.859375 
Q 41.796875 17.71875 41.796875 35.296875 
Q 41.796875 52.984375 37.671875 58.78125 
Q 33.546875 64.59375 27.390625 64.59375 
Q 21.34375 64.59375 17.71875 59.46875 
Q 13.1875 52.9375 13.1875 35.296875 
z
" id="ArialMT-48"/>
       </defs>
       <use xlink:href="#ArialMT-49"/>
       <use x="55.615234" xlink:href="#ArialMT-48"/>
      </g>
     </g>
    </g>
    <g id="xtick_6">
     <g id="line2d_6">
      <g>
       <use style="fill:#262626;stroke:#262626;stroke-width:1.25;" x="330.402292" xlink:href="#m3c77b06fb6" y="321.78"/>
      </g>
     </g>
     <g id="text_6">
      <!-- 12 -->
      <g style="fill:#262626;" transform="translate(324.28526 339.153594)scale(0.11 -0.11)">
       <use xlink:href="#ArialMT-49"/>
       <use x="55.615234" xlink:href="#ArialMT-50"/>
      </g>
     </g>
    </g>
    <g id="text_7">
     <!-- a7a -->
     <g style="fill:#262626;" transform="translate(191.557187 353.929219)scale(0.12 -0.12)">
      <defs>
       <path d="M 40.4375 6.390625 
Q 35.546875 2.25 31.03125 0.53125 
Q 26.515625 -1.171875 21.34375 -1.171875 
Q 12.796875 -1.171875 8.203125 3 
Q 3.609375 7.171875 3.609375 13.671875 
Q 3.609375 17.484375 5.34375 20.625 
Q 7.078125 23.78125 9.890625 25.6875 
Q 12.703125 27.59375 16.21875 28.5625 
Q 18.796875 29.25 24.03125 29.890625 
Q 34.671875 31.15625 39.703125 32.90625 
Q 39.75 34.71875 39.75 35.203125 
Q 39.75 40.578125 37.25 42.78125 
Q 33.890625 45.75 27.25 45.75 
Q 21.046875 45.75 18.09375 43.578125 
Q 15.140625 41.40625 13.71875 35.890625 
L 5.125 37.0625 
Q 6.296875 42.578125 8.984375 45.96875 
Q 11.671875 49.359375 16.75 51.1875 
Q 21.828125 53.03125 28.515625 53.03125 
Q 35.15625 53.03125 39.296875 51.46875 
Q 43.453125 49.90625 45.40625 47.53125 
Q 47.359375 45.171875 48.140625 41.546875 
Q 48.578125 39.3125 48.578125 33.453125 
L 48.578125 21.734375 
Q 48.578125 9.46875 49.140625 6.21875 
Q 49.703125 2.984375 51.375 0 
L 42.1875 0 
Q 40.828125 2.734375 40.4375 6.390625 
z
M 39.703125 26.03125 
Q 34.90625 24.078125 25.34375 22.703125 
Q 19.921875 21.921875 17.671875 20.9375 
Q 15.4375 19.96875 14.203125 18.09375 
Q 12.984375 16.21875 12.984375 13.921875 
Q 12.984375 10.40625 15.640625 8.0625 
Q 18.3125 5.71875 23.4375 5.71875 
Q 28.515625 5.71875 32.46875 7.9375 
Q 36.421875 10.15625 38.28125 14.015625 
Q 39.703125 17 39.703125 22.796875 
z
" id="ArialMT-97"/>
       <path d="M 4.734375 62.203125 
L 4.734375 70.65625 
L 51.078125 70.65625 
L 51.078125 63.8125 
Q 44.234375 56.546875 37.515625 44.484375 
Q 30.8125 32.421875 27.15625 19.671875 
Q 24.515625 10.6875 23.78125 0 
L 14.75 0 
Q 14.890625 8.453125 18.0625 20.40625 
Q 21.234375 32.375 27.171875 43.484375 
Q 33.109375 54.59375 39.796875 62.203125 
z
" id="ArialMT-55"/>
      </defs>
      <use xlink:href="#ArialMT-97"/>
      <use x="55.615234" xlink:href="#ArialMT-55"/>
      <use x="111.230469" xlink:href="#ArialMT-97"/>
     </g>
    </g>
   </g>
   <g id="matplotlib.axis_2">
    <g id="ytick_1">
     <g id="line2d_7">
      <defs>
       <path d="M 0 0 
L -6 0 
" id="m85f99a79d0" style="stroke:#262626;stroke-width:1.25;"/>
      </defs>
      <g>
       <use style="fill:#262626;stroke:#262626;stroke-width:1.25;" x="46.964375" xlink:href="#m85f99a79d0" y="300.331364"/>
      </g>
     </g>
     <g id="text_8">
      <!-- 1.4 -->
      <g style="fill:#262626;" transform="translate(22.174375 304.268161)scale(0.11 -0.11)">
       <defs>
        <path d="M 9.078125 0 
L 9.078125 10.015625 
L 19.09375 10.015625 
L 19.09375 0 
z
" id="ArialMT-46"/>
       </defs>
       <use xlink:href="#ArialMT-49"/>
       <use x="55.615234" xlink:href="#ArialMT-46"/>
       <use x="83.398438" xlink:href="#ArialMT-52"/>
      </g>
     </g>
    </g>
    <g id="ytick_2">
     <g id="line2d_8">
      <g>
       <use style="fill:#262626;stroke:#262626;stroke-width:1.25;" x="46.964375" xlink:href="#m85f99a79d0" y="253.859318"/>
      </g>
     </g>
     <g id="text_9">
      <!-- 1.5 -->
      <g style="fill:#262626;" transform="translate(22.174375 257.796115)scale(0.11 -0.11)">
       <defs>
        <path d="M 4.15625 18.75 
L 13.375 19.53125 
Q 14.40625 12.796875 18.140625 9.390625 
Q 21.875 6 27.15625 6 
Q 33.5 6 37.890625 10.78125 
Q 42.28125 15.578125 42.28125 23.484375 
Q 42.28125 31 38.0625 35.34375 
Q 33.84375 39.703125 27 39.703125 
Q 22.75 39.703125 19.328125 37.765625 
Q 15.921875 35.84375 13.96875 32.765625 
L 5.71875 33.84375 
L 12.640625 70.609375 
L 48.25 70.609375 
L 48.25 62.203125 
L 19.671875 62.203125 
L 15.828125 42.96875 
Q 22.265625 47.46875 29.34375 47.46875 
Q 38.71875 47.46875 45.15625 40.96875 
Q 51.609375 34.46875 51.609375 24.265625 
Q 51.609375 14.546875 45.953125 7.46875 
Q 39.0625 -1.21875 27.15625 -1.21875 
Q 17.390625 -1.21875 11.203125 4.25 
Q 5.03125 9.71875 4.15625 18.75 
z
" id="ArialMT-53"/>
       </defs>
       <use xlink:href="#ArialMT-49"/>
       <use x="55.615234" xlink:href="#ArialMT-46"/>
       <use x="83.398438" xlink:href="#ArialMT-53"/>
      </g>
     </g>
    </g>
    <g id="ytick_3">
     <g id="line2d_9">
      <g>
       <use style="fill:#262626;stroke:#262626;stroke-width:1.25;" x="46.964375" xlink:href="#m85f99a79d0" y="207.387273"/>
      </g>
     </g>
     <g id="text_10">
      <!-- 1.6 -->
      <g style="fill:#262626;" transform="translate(22.174375 211.32407)scale(0.11 -0.11)">
       <use xlink:href="#ArialMT-49"/>
       <use x="55.615234" xlink:href="#ArialMT-46"/>
       <use x="83.398438" xlink:href="#ArialMT-54"/>
      </g>
     </g>
    </g>
    <g id="ytick_4">
     <g id="line2d_10">
      <g>
       <use style="fill:#262626;stroke:#262626;stroke-width:1.25;" x="46.964375" xlink:href="#m85f99a79d0" y="160.915227"/>
      </g>
     </g>
     <g id="text_11">
      <!-- 1.7 -->
      <g style="fill:#262626;" transform="translate(22.174375 164.852024)scale(0.11 -0.11)">
       <use xlink:href="#ArialMT-49"/>
       <use x="55.615234" xlink:href="#ArialMT-46"/>
       <use x="83.398438" xlink:href="#ArialMT-55"/>
      </g>
     </g>
    </g>
    <g id="ytick_5">
     <g id="line2d_11">
      <g>
       <use style="fill:#262626;stroke:#262626;stroke-width:1.25;" x="46.964375" xlink:href="#m85f99a79d0" y="114.443182"/>
      </g>
     </g>
     <g id="text_12">
      <!-- 1.8 -->
      <g style="fill:#262626;" transform="translate(22.174375 118.379979)scale(0.11 -0.11)">
       <use xlink:href="#ArialMT-49"/>
       <use x="55.615234" xlink:href="#ArialMT-46"/>
       <use x="83.398438" xlink:href="#ArialMT-56"/>
      </g>
     </g>
    </g>
    <g id="ytick_6">
     <g id="line2d_12">
      <g>
       <use style="fill:#262626;stroke:#262626;stroke-width:1.25;" x="46.964375" xlink:href="#m85f99a79d0" y="67.971136"/>
      </g>
     </g>
     <g id="text_13">
      <!-- 1.9 -->
      <g style="fill:#262626;" transform="translate(22.174375 71.907933)scale(0.11 -0.11)">
       <defs>
        <path d="M 5.46875 16.546875 
L 13.921875 17.328125 
Q 14.984375 11.375 18.015625 8.6875 
Q 21.046875 6 25.78125 6 
Q 29.828125 6 32.875 7.859375 
Q 35.9375 9.71875 37.890625 12.8125 
Q 39.84375 15.921875 41.15625 21.1875 
Q 42.484375 26.46875 42.484375 31.9375 
Q 42.484375 32.515625 42.4375 33.6875 
Q 39.796875 29.5 35.234375 26.875 
Q 30.671875 24.265625 25.34375 24.265625 
Q 16.453125 24.265625 10.296875 30.703125 
Q 4.15625 37.15625 4.15625 47.703125 
Q 4.15625 58.59375 10.578125 65.234375 
Q 17 71.875 26.65625 71.875 
Q 33.640625 71.875 39.421875 68.109375 
Q 45.21875 64.359375 48.21875 57.390625 
Q 51.21875 50.4375 51.21875 37.25 
Q 51.21875 23.53125 48.234375 15.40625 
Q 45.265625 7.28125 39.375 3.03125 
Q 33.5 -1.21875 25.59375 -1.21875 
Q 17.1875 -1.21875 11.859375 3.4375 
Q 6.546875 8.109375 5.46875 16.546875 
z
M 41.453125 48.140625 
Q 41.453125 55.71875 37.421875 60.15625 
Q 33.40625 64.59375 27.734375 64.59375 
Q 21.875 64.59375 17.53125 59.8125 
Q 13.1875 55.03125 13.1875 47.40625 
Q 13.1875 40.578125 17.3125 36.296875 
Q 21.4375 32.03125 27.484375 32.03125 
Q 33.59375 32.03125 37.515625 36.296875 
Q 41.453125 40.578125 41.453125 48.140625 
z
" id="ArialMT-57"/>
       </defs>
       <use xlink:href="#ArialMT-49"/>
       <use x="55.615234" xlink:href="#ArialMT-46"/>
       <use x="83.398438" xlink:href="#ArialMT-57"/>
      </g>
     </g>
    </g>
    <g id="ytick_7">
     <g id="line2d_13">
      <g>
       <use style="fill:#262626;stroke:#262626;stroke-width:1.25;" x="46.964375" xlink:href="#m85f99a79d0" y="21.499091"/>
      </g>
     </g>
     <g id="text_14">
      <!-- 2.0 -->
      <g style="fill:#262626;" transform="translate(22.174375 25.435888)scale(0.11 -0.11)">
       <use xlink:href="#ArialMT-50"/>
       <use x="55.615234" xlink:href="#ArialMT-46"/>
       <use x="83.398438" xlink:href="#ArialMT-48"/>
      </g>
     </g>
    </g>
    <g id="text_15">
     <!-- l2409 -->
     <g style="fill:#262626;" transform="translate(15.789375 179.169375)rotate(-90)scale(0.12 -0.12)">
      <defs>
       <path d="M 6.390625 0 
L 6.390625 71.578125 
L 15.1875 71.578125 
L 15.1875 0 
z
" id="ArialMT-108"/>
      </defs>
      <use xlink:href="#ArialMT-108"/>
      <use x="22.216797" xlink:href="#ArialMT-50"/>
      <use x="77.832031" xlink:href="#ArialMT-52"/>
      <use x="133.447266" xlink:href="#ArialMT-48"/>
      <use x="189.0625" xlink:href="#ArialMT-57"/>
     </g>
    </g>
   </g>
   <g id="PathCollection_1">
    <defs>
     <path d="M 0 3.535534 
C 0.937635 3.535534 1.836992 3.163008 2.5 2.5 
C 3.163008 1.836992 3.535534 0.937635 3.535534 0 
C 3.535534 -0.937635 3.163008 -1.836992 2.5 -2.5 
C 1.836992 -3.163008 0.937635 -3.535534 0 -3.535534 
C -0.937635 -3.535534 -1.836992 -3.163008 -2.5 -2.5 
C -3.163008 -1.836992 -3.535534 -0.937635 -3.535534 0 
C -3.535534 0.937635 -3.163008 1.836992 -2.5 2.5 
C -1.836992 3.163008 -0.937635 3.535534 0 3.535534 
z
" id="m87362f1ad1" style="stroke:#4c72b0;"/>
    </defs>
    <g clip-path="url(#pe6404b5238)">
     <use style="fill:#4c72b0;stroke:#4c72b0;" x="46.964375" xlink:href="#m87362f1ad1" y="221.587064"/>
     <use style="fill:#4c72b0;stroke:#4c72b0;" x="72.731458" xlink:href="#m87362f1ad1" y="154.276364"/>
     <use style="fill:#4c72b0;stroke:#4c72b0;" x="98.498542" xlink:href="#m87362f1ad1" y="222.755981"/>
     <use style="fill:#4c72b0;stroke:#4c72b0;" x="124.265625" xlink:href="#m87362f1ad1" y="183.695642"/>
     <use style="fill:#4c72b0;stroke:#4c72b0;" x="150.032708" xlink:href="#m87362f1ad1" y="154.276364"/>
     <use style="fill:#4c72b0;stroke:#4c72b0;" x="175.799792" xlink:href="#m87362f1ad1" y="187.775217"/>
     <use style="fill:#4c72b0;stroke:#4c72b0;" x="201.566875" xlink:href="#m87362f1ad1" y="154.276364"/>
     <use style="fill:#4c72b0;stroke:#4c72b0;" x="227.333958" xlink:href="#m87362f1ad1" y="200.237727"/>
     <use style="fill:#4c72b0;stroke:#4c72b0;" x="253.101042" xlink:href="#m87362f1ad1" y="132.627895"/>
     <use style="fill:#4c72b0;stroke:#4c72b0;" x="278.868125" xlink:href="#m87362f1ad1" y="126.718816"/>
     <use style="fill:#4c72b0;stroke:#4c72b0;" x="304.635208" xlink:href="#m87362f1ad1" y="67.971136"/>
     <use style="fill:#4c72b0;stroke:#4c72b0;" x="330.402292" xlink:href="#m87362f1ad1" y="105.484715"/>
     <use style="fill:#4c72b0;stroke:#4c72b0;" x="356.169375" xlink:href="#m87362f1ad1" y="166.724233"/>
    </g>
   </g>
   <g id="PolyCollection_1">
    <defs>
     <path d="M 46.964375 -164.629266 
L 46.964375 -113.026059 
L 50.087658 -114.84207 
L 53.210941 -116.629758 
L 56.334223 -118.259259 
L 59.457506 -120.007946 
L 62.580789 -121.521747 
L 65.704072 -123.038018 
L 68.827355 -124.715078 
L 71.950638 -126.358368 
L 75.07392 -127.990889 
L 78.197203 -129.716931 
L 81.320486 -131.447076 
L 84.443769 -133.177656 
L 87.567052 -134.908898 
L 90.690335 -136.639285 
L 93.813617 -138.323355 
L 96.9369 -139.773163 
L 100.060183 -141.461437 
L 103.183466 -143.183923 
L 106.306749 -144.907772 
L 109.430032 -146.46312 
L 112.553314 -148.133742 
L 115.676597 -149.621168 
L 118.79988 -151.489312 
L 121.923163 -153.040602 
L 125.046446 -154.496553 
L 128.169729 -155.908557 
L 131.293011 -157.698749 
L 134.416294 -159.360325 
L 137.539577 -160.847544 
L 140.66286 -162.337555 
L 143.786143 -163.672146 
L 146.909426 -165.101023 
L 150.032708 -166.417319 
L 153.155991 -167.881988 
L 156.279274 -169.479199 
L 159.402557 -171.073773 
L 162.52584 -172.419473 
L 165.649122 -173.633613 
L 168.772405 -174.839511 
L 171.895688 -175.979772 
L 175.018971 -177.258329 
L 178.142254 -178.562996 
L 181.265537 -179.611346 
L 184.388819 -180.768932 
L 187.512102 -182.003156 
L 190.635385 -183.240835 
L 193.758668 -184.480949 
L 196.881951 -185.704467 
L 200.005234 -186.938289 
L 203.128516 -188.203295 
L 206.251799 -189.31813 
L 209.375082 -190.534471 
L 212.498365 -191.794277 
L 215.621648 -192.969837 
L 218.744931 -194.009778 
L 221.868213 -195.080564 
L 224.991496 -196.250618 
L 228.114779 -197.330429 
L 231.238062 -198.28991 
L 234.361345 -199.490589 
L 237.484628 -200.73966 
L 240.60791 -201.823759 
L 243.731193 -202.783431 
L 246.854476 -203.745705 
L 249.977759 -204.536457 
L 253.101042 -205.560628 
L 256.224324 -206.62875 
L 259.347607 -207.490287 
L 262.47089 -208.428259 
L 265.594173 -209.205091 
L 268.717456 -210.09792 
L 271.840739 -211.10615 
L 274.964021 -212.114381 
L 278.087304 -213.088305 
L 281.210587 -214.118256 
L 284.33387 -215.136932 
L 287.457153 -216.070699 
L 290.580436 -216.870295 
L 293.703718 -217.674009 
L 296.827001 -218.578374 
L 299.950284 -219.397174 
L 303.073567 -220.307488 
L 306.19685 -221.265288 
L 309.320133 -222.215882 
L 312.443415 -223.170024 
L 315.566698 -224.127336 
L 318.689981 -225.084648 
L 321.813264 -225.86363 
L 324.936547 -226.530966 
L 328.05983 -227.483659 
L 331.183112 -228.365169 
L 334.306395 -229.178039 
L 337.429678 -229.878615 
L 340.552961 -230.674855 
L 343.676244 -231.597796 
L 346.799527 -232.411125 
L 349.922809 -233.224985 
L 353.046092 -234.040782 
L 356.169375 -235.030775 
L 356.169375 -295.56081 
L 356.169375 -295.56081 
L 353.046092 -293.910823 
L 349.922809 -292.260837 
L 346.799527 -290.61085 
L 343.676244 -288.960863 
L 340.552961 -287.132385 
L 337.429678 -285.340706 
L 334.306395 -283.780611 
L 331.183112 -282.216528 
L 328.05983 -280.660422 
L 324.936547 -279.091381 
L 321.813264 -277.44867 
L 318.689981 -275.638332 
L 315.566698 -273.653424 
L 312.443415 -271.964341 
L 309.320133 -270.403975 
L 306.19685 -268.707134 
L 303.073567 -267.068805 
L 299.950284 -265.285874 
L 296.827001 -263.500501 
L 293.703718 -261.910776 
L 290.580436 -260.342625 
L 287.457153 -258.594225 
L 284.33387 -257.040213 
L 281.210587 -255.348914 
L 278.087304 -253.491555 
L 274.964021 -251.634196 
L 271.840739 -250.013649 
L 268.717456 -248.678406 
L 265.594173 -247.34216 
L 262.47089 -245.6066 
L 259.347607 -243.760618 
L 256.224324 -242.180721 
L 253.101042 -240.61085 
L 249.977759 -239.180337 
L 246.854476 -237.645378 
L 243.731193 -236.175388 
L 240.60791 -234.576319 
L 237.484628 -233.037728 
L 234.361345 -231.571258 
L 231.238062 -230.12091 
L 228.114779 -228.507698 
L 224.991496 -227.003588 
L 221.868213 -225.533409 
L 218.744931 -223.989389 
L 215.621648 -222.3979 
L 212.498365 -220.822486 
L 209.375082 -219.584575 
L 206.251799 -218.18128 
L 203.128516 -216.745751 
L 200.005234 -215.412416 
L 196.881951 -213.930855 
L 193.758668 -212.599539 
L 190.635385 -211.300048 
L 187.512102 -209.840102 
L 184.388819 -208.933805 
L 181.265537 -207.444046 
L 178.142254 -206.288292 
L 175.018971 -205.216987 
L 171.895688 -204.117658 
L 168.772405 -202.809058 
L 165.649122 -201.463465 
L 162.52584 -200.466254 
L 159.402557 -199.312149 
L 156.279274 -198.038242 
L 153.155991 -196.811755 
L 150.032708 -195.91773 
L 146.909426 -194.743971 
L 143.786143 -193.832703 
L 140.66286 -192.800281 
L 137.539577 -191.6475 
L 134.416294 -190.391323 
L 131.293011 -189.08713 
L 128.169729 -187.956975 
L 125.046446 -187.109091 
L 121.923163 -186.239079 
L 118.79988 -185.330617 
L 115.676597 -184.394961 
L 112.553314 -183.499893 
L 109.430032 -182.468689 
L 106.306749 -181.347415 
L 103.183466 -180.655899 
L 100.060183 -179.784133 
L 96.9369 -178.824054 
L 93.813617 -177.773137 
L 90.690335 -176.907877 
L 87.567052 -176.209862 
L 84.443769 -175.366028 
L 81.320486 -174.522195 
L 78.197203 -173.675234 
L 75.07392 -172.820051 
L 71.950638 -171.931409 
L 68.827355 -171.106955 
L 65.704072 -170.154125 
L 62.580789 -169.282233 
L 59.457506 -168.373837 
L 56.334223 -167.454806 
L 53.210941 -166.480625 
L 50.087658 -165.49897 
L 46.964375 -164.629266 
z
" id="m20c53bc737" style="stroke:#ffffff;stroke-opacity:0.15;"/>
    </defs>
    <g clip-path="url(#pe6404b5238)">
     <use style="fill:#4c72b0;fill-opacity:0.15;stroke:#ffffff;stroke-opacity:0.15;" x="0" xlink:href="#m20c53bc737" y="363.514219"/>
    </g>
   </g>
   <g id="line2d_14">
    <path clip-path="url(#pe6404b5238)" d="M 46.964375 273.22267 
L 46.964375 169.951458 
" style="fill:none;stroke:#4c72b0;stroke-linecap:round;stroke-width:2.625;"/>
   </g>
   <g id="line2d_15">
    <path clip-path="url(#pe6404b5238)" d="M 72.731458 287.053636 
L 72.731458 21.499091 
" style="fill:none;stroke:#4c72b0;stroke-linecap:round;stroke-width:2.625;"/>
   </g>
   <g id="line2d_16">
    <path clip-path="url(#pe6404b5238)" d="M 98.498542 263.007359 
L 98.498542 182.504603 
" style="fill:none;stroke:#4c72b0;stroke-linecap:round;stroke-width:2.625;"/>
   </g>
   <g id="line2d_17">
    <path clip-path="url(#pe6404b5238)" d="M 124.265625 211.032139 
L 124.265625 156.359144 
" style="fill:none;stroke:#4c72b0;stroke-linecap:round;stroke-width:2.625;"/>
   </g>
   <g id="line2d_18">
    <path clip-path="url(#pe6404b5238)" d="M 150.032708 287.053636 
L 150.032708 54.693409 
" style="fill:none;stroke:#4c72b0;stroke-linecap:round;stroke-width:2.625;"/>
   </g>
   <g id="line2d_19">
    <path clip-path="url(#pe6404b5238)" d="M 175.799792 230.410121 
L 175.799792 149.403803 
" style="fill:none;stroke:#4c72b0;stroke-linecap:round;stroke-width:2.625;"/>
   </g>
   <g id="line2d_20">
    <path clip-path="url(#pe6404b5238)" d="M 201.566875 212.36642 
L 201.566875 104.484886 
" style="fill:none;stroke:#4c72b0;stroke-linecap:round;stroke-width:2.625;"/>
   </g>
   <g id="line2d_21">
    <path clip-path="url(#pe6404b5238)" d="M 227.333958 307.480909 
L 227.333958 92.994545 
" style="fill:none;stroke:#4c72b0;stroke-linecap:round;stroke-width:2.625;"/>
   </g>
   <g id="line2d_22">
    <path clip-path="url(#pe6404b5238)" d="M 253.101042 193.243607 
L 253.101042 82.114802 
" style="fill:none;stroke:#4c72b0;stroke-linecap:round;stroke-width:2.625;"/>
   </g>
   <g id="line2d_23">
    <path clip-path="url(#pe6404b5238)" d="M 278.868125 179.328679 
L 278.868125 74.108954 
" style="fill:none;stroke:#4c72b0;stroke-linecap:round;stroke-width:2.625;"/>
   </g>
   <g id="line2d_24">
    <path clip-path="url(#pe6404b5238)" d="M 304.635208 129.933864 
L 304.635208 21.499091 
" style="fill:none;stroke:#4c72b0;stroke-linecap:round;stroke-width:2.625;"/>
   </g>
   <g id="line2d_25">
    <path clip-path="url(#pe6404b5238)" d="M 330.402292 150.277048 
L 330.402292 66.291424 
" style="fill:none;stroke:#4c72b0;stroke-linecap:round;stroke-width:2.625;"/>
   </g>
   <g id="line2d_26">
    <path clip-path="url(#pe6404b5238)" d="M 356.169375 282.904347 
L 356.169375 78.863022 
" style="fill:none;stroke:#4c72b0;stroke-linecap:round;stroke-width:2.625;"/>
   </g>
   <g id="line2d_27">
    <path clip-path="url(#pe6404b5238)" d="M 46.964375 225.289179 
L 50.087658 223.989069 
L 53.210941 222.68896 
L 56.334223 221.38885 
L 59.457506 220.08874 
L 62.580789 218.78863 
L 65.704072 217.488521 
L 68.827355 216.188411 
L 71.950638 214.888301 
L 75.07392 213.588191 
L 78.197203 212.288082 
L 81.320486 210.987972 
L 84.443769 209.687862 
L 87.567052 208.387752 
L 90.690335 207.087643 
L 93.813617 205.787533 
L 96.9369 204.487423 
L 100.060183 203.187313 
L 103.183466 201.887204 
L 106.306749 200.587094 
L 109.430032 199.286984 
L 112.553314 197.986874 
L 115.676597 196.686764 
L 118.79988 195.386655 
L 121.923163 194.086545 
L 125.046446 192.786435 
L 128.169729 191.486325 
L 131.293011 190.186216 
L 134.416294 188.886106 
L 137.539577 187.585996 
L 140.66286 186.285886 
L 143.786143 184.985777 
L 146.909426 183.685667 
L 150.032708 182.385557 
L 153.155991 181.085447 
L 156.279274 179.785338 
L 159.402557 178.485228 
L 162.52584 177.185118 
L 165.649122 175.885008 
L 168.772405 174.584899 
L 171.895688 173.284789 
L 175.018971 171.984679 
L 178.142254 170.684569 
L 181.265537 169.38446 
L 184.388819 168.08435 
L 187.512102 166.78424 
L 190.635385 165.48413 
L 193.758668 164.184021 
L 196.881951 162.883911 
L 200.005234 161.583801 
L 203.128516 160.283691 
L 206.251799 158.983581 
L 209.375082 157.683472 
L 212.498365 156.383362 
L 215.621648 155.083252 
L 218.744931 153.783142 
L 221.868213 152.483033 
L 224.991496 151.182923 
L 228.114779 149.882813 
L 231.238062 148.582703 
L 234.361345 147.282594 
L 237.484628 145.982484 
L 240.60791 144.682374 
L 243.731193 143.382264 
L 246.854476 142.082155 
L 249.977759 140.782045 
L 253.101042 139.481935 
L 256.224324 138.181825 
L 259.347607 136.881716 
L 262.47089 135.581606 
L 265.594173 134.281496 
L 268.717456 132.981386 
L 271.840739 131.681277 
L 274.964021 130.381167 
L 278.087304 129.081057 
L 281.210587 127.780947 
L 284.33387 126.480838 
L 287.457153 125.180728 
L 290.580436 123.880618 
L 293.703718 122.580508 
L 296.827001 121.280398 
L 299.950284 119.980289 
L 303.073567 118.680179 
L 306.19685 117.380069 
L 309.320133 116.079959 
L 312.443415 114.77985 
L 315.566698 113.47974 
L 318.689981 112.17963 
L 321.813264 110.87952 
L 324.936547 109.579411 
L 328.05983 108.279301 
L 331.183112 106.979191 
L 334.306395 105.679081 
L 337.429678 104.378972 
L 340.552961 103.078862 
L 343.676244 101.778752 
L 346.799527 100.478642 
L 349.922809 99.178533 
L 353.046092 97.878423 
L 356.169375 96.578313 
" style="fill:none;stroke:#4c72b0;stroke-linecap:round;stroke-width:2.25;"/>
   </g>
   <g id="patch_3">
    <path d="M 46.964375 321.78 
L 46.964375 7.2 
" style="fill:none;stroke:#262626;stroke-linecap:square;stroke-linejoin:miter;stroke-width:1.25;"/>
   </g>
   <g id="patch_4">
    <path d="M 46.964375 321.78 
L 356.169375 321.78 
" style="fill:none;stroke:#262626;stroke-linecap:square;stroke-linejoin:miter;stroke-width:1.25;"/>
   </g>
  </g>
 </g>
 <defs>
  <clipPath id="pe6404b5238">
   <rect height="314.58" width="309.205" x="46.964375" y="7.2"/>
  </clipPath>
 </defs>
</svg>
