<?xml version="1.0" encoding="utf-8" standalone="no"?>
<!DOCTYPE svg PUBLIC "-//W3C//DTD SVG 1.1//EN"
  "http://www.w3.org/Graphics/SVG/1.1/DTD/svg11.dtd">
<!-- Created with matplotlib (https://matplotlib.org/) -->
<svg height="379.76625pt" version="1.1" viewBox="0 0 469.153625 379.76625" width="469.153625pt" xmlns="http://www.w3.org/2000/svg" xmlns:xlink="http://www.w3.org/1999/xlink">
 <metadata>
  <rdf:RDF xmlns:cc="http://creativecommons.org/ns#" xmlns:dc="http://purl.org/dc/elements/1.1/" xmlns:rdf="http://www.w3.org/1999/02/22-rdf-syntax-ns#">
   <cc:Work>
    <dc:type rdf:resource="http://purl.org/dc/dcmitype/StillImage"/>
    <dc:date>2022-02-28T15:43:01.224361</dc:date>
    <dc:format>image/svg+xml</dc:format>
    <dc:creator>
     <cc:Agent>
      <dc:title>Matplotlib v3.3.4, https://matplotlib.org/</dc:title>
     </cc:Agent>
    </dc:creator>
   </cc:Work>
  </rdf:RDF>
 </metadata>
 <defs>
  <style type="text/css">*{stroke-linecap:butt;stroke-linejoin:round;}</style>
 </defs>
 <g id="figure_1">
  <g id="patch_1">
   <path d="M 0 379.76625 
L 469.153625 379.76625 
L 469.153625 0 
L 0 0 
z
" style="fill:#ffffff;"/>
  </g>
  <g id="axes_1">
   <g id="patch_2">
    <path d="M 150.614625 342.4585 
L 461.953625 342.4585 
L 461.953625 20.4945 
L 150.614625 20.4945 
z
" style="fill:#ffffff;"/>
   </g>
   <g id="matplotlib.axis_1">
    <g id="xtick_1">
     <g id="line2d_1">
      <defs>
       <path d="M 0 0 
L 0 4.8 
" id="mf9ee9ed50e" style="stroke:#262626;"/>
      </defs>
      <g>
       <use style="fill:#262626;stroke:#262626;" x="228.449375" xlink:href="#mf9ee9ed50e" y="342.4585"/>
      </g>
     </g>
     <g id="text_1">
      <!-- (incorrect response) -->
      <g style="fill:#262626;" transform="translate(184.219062 357.445125)scale(0.088 -0.088)">
       <defs>
        <path d="M 31 75.875 
Q 24.46875 64.65625 21.28125 53.65625 
Q 18.109375 42.671875 18.109375 31.390625 
Q 18.109375 20.125 21.3125 9.0625 
Q 24.515625 -2 31 -13.1875 
L 23.1875 -13.1875 
Q 15.875 -1.703125 12.234375 9.375 
Q 8.59375 20.453125 8.59375 31.390625 
Q 8.59375 42.28125 12.203125 53.3125 
Q 15.828125 64.359375 23.1875 75.875 
z
" id="DejaVuSans-40"/>
        <path d="M 9.421875 54.6875 
L 18.40625 54.6875 
L 18.40625 0 
L 9.421875 0 
z
M 9.421875 75.984375 
L 18.40625 75.984375 
L 18.40625 64.59375 
L 9.421875 64.59375 
z
" id="DejaVuSans-105"/>
        <path d="M 54.890625 33.015625 
L 54.890625 0 
L 45.90625 0 
L 45.90625 32.71875 
Q 45.90625 40.484375 42.875 44.328125 
Q 39.84375 48.1875 33.796875 48.1875 
Q 26.515625 48.1875 22.3125 43.546875 
Q 18.109375 38.921875 18.109375 30.90625 
L 18.109375 0 
L 9.078125 0 
L 9.078125 54.6875 
L 18.109375 54.6875 
L 18.109375 46.1875 
Q 21.34375 51.125 25.703125 53.5625 
Q 30.078125 56 35.796875 56 
Q 45.21875 56 50.046875 50.171875 
Q 54.890625 44.34375 54.890625 33.015625 
z
" id="DejaVuSans-110"/>
        <path d="M 48.78125 52.59375 
L 48.78125 44.1875 
Q 44.96875 46.296875 41.140625 47.34375 
Q 37.3125 48.390625 33.40625 48.390625 
Q 24.65625 48.390625 19.8125 42.84375 
Q 14.984375 37.3125 14.984375 27.296875 
Q 14.984375 17.28125 19.8125 11.734375 
Q 24.65625 6.203125 33.40625 6.203125 
Q 37.3125 6.203125 41.140625 7.25 
Q 44.96875 8.296875 48.78125 10.40625 
L 48.78125 2.09375 
Q 45.015625 0.34375 40.984375 -0.53125 
Q 36.96875 -1.421875 32.421875 -1.421875 
Q 20.0625 -1.421875 12.78125 6.34375 
Q 5.515625 14.109375 5.515625 27.296875 
Q 5.515625 40.671875 12.859375 48.328125 
Q 20.21875 56 33.015625 56 
Q 37.15625 56 41.109375 55.140625 
Q 45.0625 54.296875 48.78125 52.59375 
z
" id="DejaVuSans-99"/>
        <path d="M 30.609375 48.390625 
Q 23.390625 48.390625 19.1875 42.75 
Q 14.984375 37.109375 14.984375 27.296875 
Q 14.984375 17.484375 19.15625 11.84375 
Q 23.34375 6.203125 30.609375 6.203125 
Q 37.796875 6.203125 41.984375 11.859375 
Q 46.1875 17.53125 46.1875 27.296875 
Q 46.1875 37.015625 41.984375 42.703125 
Q 37.796875 48.390625 30.609375 48.390625 
z
M 30.609375 56 
Q 42.328125 56 49.015625 48.375 
Q 55.71875 40.765625 55.71875 27.296875 
Q 55.71875 13.875 49.015625 6.21875 
Q 42.328125 -1.421875 30.609375 -1.421875 
Q 18.84375 -1.421875 12.171875 6.21875 
Q 5.515625 13.875 5.515625 27.296875 
Q 5.515625 40.765625 12.171875 48.375 
Q 18.84375 56 30.609375 56 
z
" id="DejaVuSans-111"/>
        <path d="M 41.109375 46.296875 
Q 39.59375 47.171875 37.8125 47.578125 
Q 36.03125 48 33.890625 48 
Q 26.265625 48 22.1875 43.046875 
Q 18.109375 38.09375 18.109375 28.8125 
L 18.109375 0 
L 9.078125 0 
L 9.078125 54.6875 
L 18.109375 54.6875 
L 18.109375 46.1875 
Q 20.953125 51.171875 25.484375 53.578125 
Q 30.03125 56 36.53125 56 
Q 37.453125 56 38.578125 55.875 
Q 39.703125 55.765625 41.0625 55.515625 
z
" id="DejaVuSans-114"/>
        <path d="M 56.203125 29.59375 
L 56.203125 25.203125 
L 14.890625 25.203125 
Q 15.484375 15.921875 20.484375 11.0625 
Q 25.484375 6.203125 34.421875 6.203125 
Q 39.59375 6.203125 44.453125 7.46875 
Q 49.3125 8.734375 54.109375 11.28125 
L 54.109375 2.78125 
Q 49.265625 0.734375 44.1875 -0.34375 
Q 39.109375 -1.421875 33.890625 -1.421875 
Q 20.796875 -1.421875 13.15625 6.1875 
Q 5.515625 13.8125 5.515625 26.8125 
Q 5.515625 40.234375 12.765625 48.109375 
Q 20.015625 56 32.328125 56 
Q 43.359375 56 49.78125 48.890625 
Q 56.203125 41.796875 56.203125 29.59375 
z
M 47.21875 32.234375 
Q 47.125 39.59375 43.09375 43.984375 
Q 39.0625 48.390625 32.421875 48.390625 
Q 24.90625 48.390625 20.390625 44.140625 
Q 15.875 39.890625 15.1875 32.171875 
z
" id="DejaVuSans-101"/>
        <path d="M 18.3125 70.21875 
L 18.3125 54.6875 
L 36.8125 54.6875 
L 36.8125 47.703125 
L 18.3125 47.703125 
L 18.3125 18.015625 
Q 18.3125 11.328125 20.140625 9.421875 
Q 21.96875 7.515625 27.59375 7.515625 
L 36.8125 7.515625 
L 36.8125 0 
L 27.59375 0 
Q 17.1875 0 13.234375 3.875 
Q 9.28125 7.765625 9.28125 18.015625 
L 9.28125 47.703125 
L 2.6875 47.703125 
L 2.6875 54.6875 
L 9.28125 54.6875 
L 9.28125 70.21875 
z
" id="DejaVuSans-116"/>
        <path id="DejaVuSans-32"/>
        <path d="M 44.28125 53.078125 
L 44.28125 44.578125 
Q 40.484375 46.53125 36.375 47.5 
Q 32.28125 48.484375 27.875 48.484375 
Q 21.1875 48.484375 17.84375 46.4375 
Q 14.5 44.390625 14.5 40.28125 
Q 14.5 37.15625 16.890625 35.375 
Q 19.28125 33.59375 26.515625 31.984375 
L 29.59375 31.296875 
Q 39.15625 29.25 43.1875 25.515625 
Q 47.21875 21.78125 47.21875 15.09375 
Q 47.21875 7.46875 41.1875 3.015625 
Q 35.15625 -1.421875 24.609375 -1.421875 
Q 20.21875 -1.421875 15.453125 -0.5625 
Q 10.6875 0.296875 5.421875 2 
L 5.421875 11.28125 
Q 10.40625 8.6875 15.234375 7.390625 
Q 20.0625 6.109375 24.8125 6.109375 
Q 31.15625 6.109375 34.5625 8.28125 
Q 37.984375 10.453125 37.984375 14.40625 
Q 37.984375 18.0625 35.515625 20.015625 
Q 33.0625 21.96875 24.703125 23.78125 
L 21.578125 24.515625 
Q 13.234375 26.265625 9.515625 29.90625 
Q 5.8125 33.546875 5.8125 39.890625 
Q 5.8125 47.609375 11.28125 51.796875 
Q 16.75 56 26.8125 56 
Q 31.78125 56 36.171875 55.265625 
Q 40.578125 54.546875 44.28125 53.078125 
z
" id="DejaVuSans-115"/>
        <path d="M 18.109375 8.203125 
L 18.109375 -20.796875 
L 9.078125 -20.796875 
L 9.078125 54.6875 
L 18.109375 54.6875 
L 18.109375 46.390625 
Q 20.953125 51.265625 25.265625 53.625 
Q 29.59375 56 35.59375 56 
Q 45.5625 56 51.78125 48.09375 
Q 58.015625 40.1875 58.015625 27.296875 
Q 58.015625 14.40625 51.78125 6.484375 
Q 45.5625 -1.421875 35.59375 -1.421875 
Q 29.59375 -1.421875 25.265625 0.953125 
Q 20.953125 3.328125 18.109375 8.203125 
z
M 48.6875 27.296875 
Q 48.6875 37.203125 44.609375 42.84375 
Q 40.53125 48.484375 33.40625 48.484375 
Q 26.265625 48.484375 22.1875 42.84375 
Q 18.109375 37.203125 18.109375 27.296875 
Q 18.109375 17.390625 22.1875 11.75 
Q 26.265625 6.109375 33.40625 6.109375 
Q 40.53125 6.109375 44.609375 11.75 
Q 48.6875 17.390625 48.6875 27.296875 
z
" id="DejaVuSans-112"/>
        <path d="M 8.015625 75.875 
L 15.828125 75.875 
Q 23.140625 64.359375 26.78125 53.3125 
Q 30.421875 42.28125 30.421875 31.390625 
Q 30.421875 20.453125 26.78125 9.375 
Q 23.140625 -1.703125 15.828125 -13.1875 
L 8.015625 -13.1875 
Q 14.5 -2 17.703125 9.0625 
Q 20.90625 20.125 20.90625 31.390625 
Q 20.90625 42.671875 17.703125 53.65625 
Q 14.5 64.65625 8.015625 75.875 
z
" id="DejaVuSans-41"/>
       </defs>
       <use xlink:href="#DejaVuSans-40"/>
       <use x="39.013672" xlink:href="#DejaVuSans-105"/>
       <use x="66.796875" xlink:href="#DejaVuSans-110"/>
       <use x="130.175781" xlink:href="#DejaVuSans-99"/>
       <use x="185.15625" xlink:href="#DejaVuSans-111"/>
       <use x="246.337891" xlink:href="#DejaVuSans-114"/>
       <use x="285.701172" xlink:href="#DejaVuSans-114"/>
       <use x="324.564453" xlink:href="#DejaVuSans-101"/>
       <use x="386.087891" xlink:href="#DejaVuSans-99"/>
       <use x="441.068359" xlink:href="#DejaVuSans-116"/>
       <use x="480.277344" xlink:href="#DejaVuSans-32"/>
       <use x="512.064453" xlink:href="#DejaVuSans-114"/>
       <use x="550.927734" xlink:href="#DejaVuSans-101"/>
       <use x="612.451172" xlink:href="#DejaVuSans-115"/>
       <use x="664.550781" xlink:href="#DejaVuSans-112"/>
       <use x="728.027344" xlink:href="#DejaVuSans-111"/>
       <use x="789.208984" xlink:href="#DejaVuSans-110"/>
       <use x="852.587891" xlink:href="#DejaVuSans-115"/>
       <use x="904.6875" xlink:href="#DejaVuSans-101"/>
       <use x="966.210938" xlink:href="#DejaVuSans-41"/>
      </g>
     </g>
    </g>
    <g id="xtick_2">
     <g id="line2d_2">
      <g>
       <use style="fill:#262626;stroke:#262626;" x="384.118875" xlink:href="#mf9ee9ed50e" y="342.4585"/>
      </g>
     </g>
     <g id="text_2">
      <!-- (correct response) -->
      <g style="fill:#262626;" transform="translate(343.899437 357.445125)scale(0.088 -0.088)">
       <use xlink:href="#DejaVuSans-40"/>
       <use x="39.013672" xlink:href="#DejaVuSans-99"/>
       <use x="93.994141" xlink:href="#DejaVuSans-111"/>
       <use x="155.175781" xlink:href="#DejaVuSans-114"/>
       <use x="194.539062" xlink:href="#DejaVuSans-114"/>
       <use x="233.402344" xlink:href="#DejaVuSans-101"/>
       <use x="294.925781" xlink:href="#DejaVuSans-99"/>
       <use x="349.90625" xlink:href="#DejaVuSans-116"/>
       <use x="389.115234" xlink:href="#DejaVuSans-32"/>
       <use x="420.902344" xlink:href="#DejaVuSans-114"/>
       <use x="459.765625" xlink:href="#DejaVuSans-101"/>
       <use x="521.289062" xlink:href="#DejaVuSans-115"/>
       <use x="573.388672" xlink:href="#DejaVuSans-112"/>
       <use x="636.865234" xlink:href="#DejaVuSans-111"/>
       <use x="698.046875" xlink:href="#DejaVuSans-110"/>
       <use x="761.425781" xlink:href="#DejaVuSans-115"/>
       <use x="813.525391" xlink:href="#DejaVuSans-101"/>
       <use x="875.048828" xlink:href="#DejaVuSans-41"/>
      </g>
     </g>
    </g>
    <g id="text_3">
     <!-- Water Quality Knowledge -->
     <g style="fill:#262626;" transform="translate(245.504125 370.56975)scale(0.096 -0.096)">
      <defs>
       <path d="M 3.328125 72.90625 
L 13.28125 72.90625 
L 28.609375 11.28125 
L 43.890625 72.90625 
L 54.984375 72.90625 
L 70.3125 11.28125 
L 85.59375 72.90625 
L 95.609375 72.90625 
L 77.296875 0 
L 64.890625 0 
L 49.515625 63.28125 
L 33.984375 0 
L 21.578125 0 
z
" id="DejaVuSans-87"/>
       <path d="M 34.28125 27.484375 
Q 23.390625 27.484375 19.1875 25 
Q 14.984375 22.515625 14.984375 16.5 
Q 14.984375 11.71875 18.140625 8.90625 
Q 21.296875 6.109375 26.703125 6.109375 
Q 34.1875 6.109375 38.703125 11.40625 
Q 43.21875 16.703125 43.21875 25.484375 
L 43.21875 27.484375 
z
M 52.203125 31.203125 
L 52.203125 0 
L 43.21875 0 
L 43.21875 8.296875 
Q 40.140625 3.328125 35.546875 0.953125 
Q 30.953125 -1.421875 24.3125 -1.421875 
Q 15.921875 -1.421875 10.953125 3.296875 
Q 6 8.015625 6 15.921875 
Q 6 25.140625 12.171875 29.828125 
Q 18.359375 34.515625 30.609375 34.515625 
L 43.21875 34.515625 
L 43.21875 35.40625 
Q 43.21875 41.609375 39.140625 45 
Q 35.0625 48.390625 27.6875 48.390625 
Q 23 48.390625 18.546875 47.265625 
Q 14.109375 46.140625 10.015625 43.890625 
L 10.015625 52.203125 
Q 14.9375 54.109375 19.578125 55.046875 
Q 24.21875 56 28.609375 56 
Q 40.484375 56 46.34375 49.84375 
Q 52.203125 43.703125 52.203125 31.203125 
z
" id="DejaVuSans-97"/>
       <path d="M 39.40625 66.21875 
Q 28.65625 66.21875 22.328125 58.203125 
Q 16.015625 50.203125 16.015625 36.375 
Q 16.015625 22.609375 22.328125 14.59375 
Q 28.65625 6.59375 39.40625 6.59375 
Q 50.140625 6.59375 56.421875 14.59375 
Q 62.703125 22.609375 62.703125 36.375 
Q 62.703125 50.203125 56.421875 58.203125 
Q 50.140625 66.21875 39.40625 66.21875 
z
M 53.21875 1.3125 
L 66.21875 -12.890625 
L 54.296875 -12.890625 
L 43.5 -1.21875 
Q 41.890625 -1.3125 41.03125 -1.359375 
Q 40.1875 -1.421875 39.40625 -1.421875 
Q 24.03125 -1.421875 14.8125 8.859375 
Q 5.609375 19.140625 5.609375 36.375 
Q 5.609375 53.65625 14.8125 63.9375 
Q 24.03125 74.21875 39.40625 74.21875 
Q 54.734375 74.21875 63.90625 63.9375 
Q 73.09375 53.65625 73.09375 36.375 
Q 73.09375 23.6875 67.984375 14.640625 
Q 62.890625 5.609375 53.21875 1.3125 
z
" id="DejaVuSans-81"/>
       <path d="M 8.5 21.578125 
L 8.5 54.6875 
L 17.484375 54.6875 
L 17.484375 21.921875 
Q 17.484375 14.15625 20.5 10.265625 
Q 23.53125 6.390625 29.59375 6.390625 
Q 36.859375 6.390625 41.078125 11.03125 
Q 45.3125 15.671875 45.3125 23.6875 
L 45.3125 54.6875 
L 54.296875 54.6875 
L 54.296875 0 
L 45.3125 0 
L 45.3125 8.40625 
Q 42.046875 3.421875 37.71875 1 
Q 33.40625 -1.421875 27.6875 -1.421875 
Q 18.265625 -1.421875 13.375 4.4375 
Q 8.5 10.296875 8.5 21.578125 
z
M 31.109375 56 
z
" id="DejaVuSans-117"/>
       <path d="M 9.421875 75.984375 
L 18.40625 75.984375 
L 18.40625 0 
L 9.421875 0 
z
" id="DejaVuSans-108"/>
       <path d="M 32.171875 -5.078125 
Q 28.375 -14.84375 24.75 -17.8125 
Q 21.140625 -20.796875 15.09375 -20.796875 
L 7.90625 -20.796875 
L 7.90625 -13.28125 
L 13.1875 -13.28125 
Q 16.890625 -13.28125 18.9375 -11.515625 
Q 21 -9.765625 23.484375 -3.21875 
L 25.09375 0.875 
L 2.984375 54.6875 
L 12.5 54.6875 
L 29.59375 11.921875 
L 46.6875 54.6875 
L 56.203125 54.6875 
z
" id="DejaVuSans-121"/>
       <path d="M 9.8125 72.90625 
L 19.671875 72.90625 
L 19.671875 42.09375 
L 52.390625 72.90625 
L 65.09375 72.90625 
L 28.90625 38.921875 
L 67.671875 0 
L 54.6875 0 
L 19.671875 35.109375 
L 19.671875 0 
L 9.8125 0 
z
" id="DejaVuSans-75"/>
       <path d="M 4.203125 54.6875 
L 13.1875 54.6875 
L 24.421875 12.015625 
L 35.59375 54.6875 
L 46.1875 54.6875 
L 57.421875 12.015625 
L 68.609375 54.6875 
L 77.59375 54.6875 
L 63.28125 0 
L 52.6875 0 
L 40.921875 44.828125 
L 29.109375 0 
L 18.5 0 
z
" id="DejaVuSans-119"/>
       <path d="M 45.40625 46.390625 
L 45.40625 75.984375 
L 54.390625 75.984375 
L 54.390625 0 
L 45.40625 0 
L 45.40625 8.203125 
Q 42.578125 3.328125 38.25 0.953125 
Q 33.9375 -1.421875 27.875 -1.421875 
Q 17.96875 -1.421875 11.734375 6.484375 
Q 5.515625 14.40625 5.515625 27.296875 
Q 5.515625 40.1875 11.734375 48.09375 
Q 17.96875 56 27.875 56 
Q 33.9375 56 38.25 53.625 
Q 42.578125 51.265625 45.40625 46.390625 
z
M 14.796875 27.296875 
Q 14.796875 17.390625 18.875 11.75 
Q 22.953125 6.109375 30.078125 6.109375 
Q 37.203125 6.109375 41.296875 11.75 
Q 45.40625 17.390625 45.40625 27.296875 
Q 45.40625 37.203125 41.296875 42.84375 
Q 37.203125 48.484375 30.078125 48.484375 
Q 22.953125 48.484375 18.875 42.84375 
Q 14.796875 37.203125 14.796875 27.296875 
z
" id="DejaVuSans-100"/>
       <path d="M 45.40625 27.984375 
Q 45.40625 37.75 41.375 43.109375 
Q 37.359375 48.484375 30.078125 48.484375 
Q 22.859375 48.484375 18.828125 43.109375 
Q 14.796875 37.75 14.796875 27.984375 
Q 14.796875 18.265625 18.828125 12.890625 
Q 22.859375 7.515625 30.078125 7.515625 
Q 37.359375 7.515625 41.375 12.890625 
Q 45.40625 18.265625 45.40625 27.984375 
z
M 54.390625 6.78125 
Q 54.390625 -7.171875 48.1875 -13.984375 
Q 42 -20.796875 29.203125 -20.796875 
Q 24.46875 -20.796875 20.265625 -20.09375 
Q 16.0625 -19.390625 12.109375 -17.921875 
L 12.109375 -9.1875 
Q 16.0625 -11.328125 19.921875 -12.34375 
Q 23.78125 -13.375 27.78125 -13.375 
Q 36.625 -13.375 41.015625 -8.765625 
Q 45.40625 -4.15625 45.40625 5.171875 
L 45.40625 9.625 
Q 42.625 4.78125 38.28125 2.390625 
Q 33.9375 0 27.875 0 
Q 17.828125 0 11.671875 7.65625 
Q 5.515625 15.328125 5.515625 27.984375 
Q 5.515625 40.671875 11.671875 48.328125 
Q 17.828125 56 27.875 56 
Q 33.9375 56 38.28125 53.609375 
Q 42.625 51.21875 45.40625 46.390625 
L 45.40625 54.6875 
L 54.390625 54.6875 
z
" id="DejaVuSans-103"/>
      </defs>
      <use xlink:href="#DejaVuSans-87"/>
      <use x="92.501953" xlink:href="#DejaVuSans-97"/>
      <use x="153.78125" xlink:href="#DejaVuSans-116"/>
      <use x="192.990234" xlink:href="#DejaVuSans-101"/>
      <use x="254.513672" xlink:href="#DejaVuSans-114"/>
      <use x="295.626953" xlink:href="#DejaVuSans-32"/>
      <use x="327.414062" xlink:href="#DejaVuSans-81"/>
      <use x="406.125" xlink:href="#DejaVuSans-117"/>
      <use x="469.503906" xlink:href="#DejaVuSans-97"/>
      <use x="530.783203" xlink:href="#DejaVuSans-108"/>
      <use x="558.566406" xlink:href="#DejaVuSans-105"/>
      <use x="586.349609" xlink:href="#DejaVuSans-116"/>
      <use x="625.558594" xlink:href="#DejaVuSans-121"/>
      <use x="684.738281" xlink:href="#DejaVuSans-32"/>
      <use x="716.525391" xlink:href="#DejaVuSans-75"/>
      <use x="782.101562" xlink:href="#DejaVuSans-110"/>
      <use x="845.480469" xlink:href="#DejaVuSans-111"/>
      <use x="906.662109" xlink:href="#DejaVuSans-119"/>
      <use x="988.449219" xlink:href="#DejaVuSans-108"/>
      <use x="1016.232422" xlink:href="#DejaVuSans-101"/>
      <use x="1077.755859" xlink:href="#DejaVuSans-100"/>
      <use x="1141.232422" xlink:href="#DejaVuSans-103"/>
      <use x="1204.708984" xlink:href="#DejaVuSans-101"/>
     </g>
    </g>
   </g>
   <g id="matplotlib.axis_2">
    <g id="ytick_1">
     <g id="line2d_3">
      <defs>
       <path d="M 0 0 
L -4.8 0 
" id="mc322a36e7b" style="stroke:#262626;"/>
      </defs>
      <g>
       <use style="fill:#262626;stroke:#262626;" x="150.614625" xlink:href="#mc322a36e7b" y="287.459496"/>
      </g>
     </g>
     <g id="text_4">
      <!-- No Education -->
      <g style="fill:#262626;" transform="translate(83.73825 290.802808)scale(0.088 -0.088)">
       <defs>
        <path d="M 9.8125 72.90625 
L 23.09375 72.90625 
L 55.421875 11.921875 
L 55.421875 72.90625 
L 64.984375 72.90625 
L 64.984375 0 
L 51.703125 0 
L 19.390625 60.984375 
L 19.390625 0 
L 9.8125 0 
z
" id="DejaVuSans-78"/>
        <path d="M 9.8125 72.90625 
L 55.90625 72.90625 
L 55.90625 64.59375 
L 19.671875 64.59375 
L 19.671875 43.015625 
L 54.390625 43.015625 
L 54.390625 34.71875 
L 19.671875 34.71875 
L 19.671875 8.296875 
L 56.78125 8.296875 
L 56.78125 0 
L 9.8125 0 
z
" id="DejaVuSans-69"/>
       </defs>
       <use xlink:href="#DejaVuSans-78"/>
       <use x="74.804688" xlink:href="#DejaVuSans-111"/>
       <use x="135.986328" xlink:href="#DejaVuSans-32"/>
       <use x="167.773438" xlink:href="#DejaVuSans-69"/>
       <use x="230.957031" xlink:href="#DejaVuSans-100"/>
       <use x="294.433594" xlink:href="#DejaVuSans-117"/>
       <use x="357.8125" xlink:href="#DejaVuSans-99"/>
       <use x="412.792969" xlink:href="#DejaVuSans-97"/>
       <use x="474.072266" xlink:href="#DejaVuSans-116"/>
       <use x="513.28125" xlink:href="#DejaVuSans-105"/>
       <use x="541.064453" xlink:href="#DejaVuSans-111"/>
       <use x="602.246094" xlink:href="#DejaVuSans-110"/>
      </g>
     </g>
    </g>
    <g id="ytick_2">
     <g id="line2d_4">
      <g>
       <use style="fill:#262626;stroke:#262626;" x="150.614625" xlink:href="#mc322a36e7b" y="269.795663"/>
      </g>
     </g>
     <g id="text_5">
      <!-- Private School -->
      <g style="fill:#262626;" transform="translate(79.6215 273.138976)scale(0.088 -0.088)">
       <defs>
        <path d="M 19.671875 64.796875 
L 19.671875 37.40625 
L 32.078125 37.40625 
Q 38.96875 37.40625 42.71875 40.96875 
Q 46.484375 44.53125 46.484375 51.125 
Q 46.484375 57.671875 42.71875 61.234375 
Q 38.96875 64.796875 32.078125 64.796875 
z
M 9.8125 72.90625 
L 32.078125 72.90625 
Q 44.34375 72.90625 50.609375 67.359375 
Q 56.890625 61.8125 56.890625 51.125 
Q 56.890625 40.328125 50.609375 34.8125 
Q 44.34375 29.296875 32.078125 29.296875 
L 19.671875 29.296875 
L 19.671875 0 
L 9.8125 0 
z
" id="DejaVuSans-80"/>
        <path d="M 2.984375 54.6875 
L 12.5 54.6875 
L 29.59375 8.796875 
L 46.6875 54.6875 
L 56.203125 54.6875 
L 35.6875 0 
L 23.484375 0 
z
" id="DejaVuSans-118"/>
        <path d="M 53.515625 70.515625 
L 53.515625 60.890625 
Q 47.90625 63.578125 42.921875 64.890625 
Q 37.9375 66.21875 33.296875 66.21875 
Q 25.25 66.21875 20.875 63.09375 
Q 16.5 59.96875 16.5 54.203125 
Q 16.5 49.359375 19.40625 46.890625 
Q 22.3125 44.4375 30.421875 42.921875 
L 36.375 41.703125 
Q 47.40625 39.59375 52.65625 34.296875 
Q 57.90625 29 57.90625 20.125 
Q 57.90625 9.515625 50.796875 4.046875 
Q 43.703125 -1.421875 29.984375 -1.421875 
Q 24.8125 -1.421875 18.96875 -0.25 
Q 13.140625 0.921875 6.890625 3.21875 
L 6.890625 13.375 
Q 12.890625 10.015625 18.65625 8.296875 
Q 24.421875 6.59375 29.984375 6.59375 
Q 38.421875 6.59375 43.015625 9.90625 
Q 47.609375 13.234375 47.609375 19.390625 
Q 47.609375 24.75 44.3125 27.78125 
Q 41.015625 30.8125 33.5 32.328125 
L 27.484375 33.5 
Q 16.453125 35.6875 11.515625 40.375 
Q 6.59375 45.0625 6.59375 53.421875 
Q 6.59375 63.09375 13.40625 68.65625 
Q 20.21875 74.21875 32.171875 74.21875 
Q 37.3125 74.21875 42.625 73.28125 
Q 47.953125 72.359375 53.515625 70.515625 
z
" id="DejaVuSans-83"/>
        <path d="M 54.890625 33.015625 
L 54.890625 0 
L 45.90625 0 
L 45.90625 32.71875 
Q 45.90625 40.484375 42.875 44.328125 
Q 39.84375 48.1875 33.796875 48.1875 
Q 26.515625 48.1875 22.3125 43.546875 
Q 18.109375 38.921875 18.109375 30.90625 
L 18.109375 0 
L 9.078125 0 
L 9.078125 75.984375 
L 18.109375 75.984375 
L 18.109375 46.1875 
Q 21.34375 51.125 25.703125 53.5625 
Q 30.078125 56 35.796875 56 
Q 45.21875 56 50.046875 50.171875 
Q 54.890625 44.34375 54.890625 33.015625 
z
" id="DejaVuSans-104"/>
       </defs>
       <use xlink:href="#DejaVuSans-80"/>
       <use x="58.552734" xlink:href="#DejaVuSans-114"/>
       <use x="99.666016" xlink:href="#DejaVuSans-105"/>
       <use x="127.449219" xlink:href="#DejaVuSans-118"/>
       <use x="186.628906" xlink:href="#DejaVuSans-97"/>
       <use x="247.908203" xlink:href="#DejaVuSans-116"/>
       <use x="287.117188" xlink:href="#DejaVuSans-101"/>
       <use x="348.640625" xlink:href="#DejaVuSans-32"/>
       <use x="380.427734" xlink:href="#DejaVuSans-83"/>
       <use x="443.904297" xlink:href="#DejaVuSans-99"/>
       <use x="498.884766" xlink:href="#DejaVuSans-104"/>
       <use x="562.263672" xlink:href="#DejaVuSans-111"/>
       <use x="623.445312" xlink:href="#DejaVuSans-111"/>
       <use x="684.626953" xlink:href="#DejaVuSans-108"/>
      </g>
     </g>
    </g>
    <g id="ytick_3">
     <g id="line2d_5">
      <g>
       <use style="fill:#262626;stroke:#262626;" x="150.614625" xlink:href="#mc322a36e7b" y="252.131831"/>
      </g>
     </g>
     <g id="text_6">
      <!-- Primary School -->
      <g style="fill:#262626;" transform="translate(76.29675 255.475143)scale(0.088 -0.088)">
       <defs>
        <path d="M 52 44.1875 
Q 55.375 50.25 60.0625 53.125 
Q 64.75 56 71.09375 56 
Q 79.640625 56 84.28125 50.015625 
Q 88.921875 44.046875 88.921875 33.015625 
L 88.921875 0 
L 79.890625 0 
L 79.890625 32.71875 
Q 79.890625 40.578125 77.09375 44.375 
Q 74.3125 48.1875 68.609375 48.1875 
Q 61.625 48.1875 57.5625 43.546875 
Q 53.515625 38.921875 53.515625 30.90625 
L 53.515625 0 
L 44.484375 0 
L 44.484375 32.71875 
Q 44.484375 40.625 41.703125 44.40625 
Q 38.921875 48.1875 33.109375 48.1875 
Q 26.21875 48.1875 22.15625 43.53125 
Q 18.109375 38.875 18.109375 30.90625 
L 18.109375 0 
L 9.078125 0 
L 9.078125 54.6875 
L 18.109375 54.6875 
L 18.109375 46.1875 
Q 21.1875 51.21875 25.484375 53.609375 
Q 29.78125 56 35.6875 56 
Q 41.65625 56 45.828125 52.96875 
Q 50 49.953125 52 44.1875 
z
" id="DejaVuSans-109"/>
       </defs>
       <use xlink:href="#DejaVuSans-80"/>
       <use x="58.552734" xlink:href="#DejaVuSans-114"/>
       <use x="99.666016" xlink:href="#DejaVuSans-105"/>
       <use x="127.449219" xlink:href="#DejaVuSans-109"/>
       <use x="224.861328" xlink:href="#DejaVuSans-97"/>
       <use x="286.140625" xlink:href="#DejaVuSans-114"/>
       <use x="327.253906" xlink:href="#DejaVuSans-121"/>
       <use x="386.433594" xlink:href="#DejaVuSans-32"/>
       <use x="418.220703" xlink:href="#DejaVuSans-83"/>
       <use x="481.697266" xlink:href="#DejaVuSans-99"/>
       <use x="536.677734" xlink:href="#DejaVuSans-104"/>
       <use x="600.056641" xlink:href="#DejaVuSans-111"/>
       <use x="661.238281" xlink:href="#DejaVuSans-111"/>
       <use x="722.419922" xlink:href="#DejaVuSans-108"/>
      </g>
     </g>
    </g>
    <g id="ytick_4">
     <g id="line2d_6">
      <g>
       <use style="fill:#262626;stroke:#262626;" x="150.614625" xlink:href="#mc322a36e7b" y="234.467998"/>
      </g>
     </g>
     <g id="text_7">
      <!-- Junior High School -->
      <g style="fill:#262626;" transform="translate(62.082 237.81131)scale(0.088 -0.088)">
       <defs>
        <path d="M 9.8125 72.90625 
L 19.671875 72.90625 
L 19.671875 5.078125 
Q 19.671875 -8.109375 14.671875 -14.0625 
Q 9.671875 -20.015625 -1.421875 -20.015625 
L -5.171875 -20.015625 
L -5.171875 -11.71875 
L -2.09375 -11.71875 
Q 4.4375 -11.71875 7.125 -8.046875 
Q 9.8125 -4.390625 9.8125 5.078125 
z
" id="DejaVuSans-74"/>
        <path d="M 9.8125 72.90625 
L 19.671875 72.90625 
L 19.671875 43.015625 
L 55.515625 43.015625 
L 55.515625 72.90625 
L 65.375 72.90625 
L 65.375 0 
L 55.515625 0 
L 55.515625 34.71875 
L 19.671875 34.71875 
L 19.671875 0 
L 9.8125 0 
z
" id="DejaVuSans-72"/>
       </defs>
       <use xlink:href="#DejaVuSans-74"/>
       <use x="29.492188" xlink:href="#DejaVuSans-117"/>
       <use x="92.871094" xlink:href="#DejaVuSans-110"/>
       <use x="156.25" xlink:href="#DejaVuSans-105"/>
       <use x="184.033203" xlink:href="#DejaVuSans-111"/>
       <use x="245.214844" xlink:href="#DejaVuSans-114"/>
       <use x="286.328125" xlink:href="#DejaVuSans-32"/>
       <use x="318.115234" xlink:href="#DejaVuSans-72"/>
       <use x="393.310547" xlink:href="#DejaVuSans-105"/>
       <use x="421.09375" xlink:href="#DejaVuSans-103"/>
       <use x="484.570312" xlink:href="#DejaVuSans-104"/>
       <use x="547.949219" xlink:href="#DejaVuSans-32"/>
       <use x="579.736328" xlink:href="#DejaVuSans-83"/>
       <use x="643.212891" xlink:href="#DejaVuSans-99"/>
       <use x="698.193359" xlink:href="#DejaVuSans-104"/>
       <use x="761.572266" xlink:href="#DejaVuSans-111"/>
       <use x="822.753906" xlink:href="#DejaVuSans-111"/>
       <use x="883.935547" xlink:href="#DejaVuSans-108"/>
      </g>
     </g>
    </g>
    <g id="ytick_5">
     <g id="line2d_7">
      <g>
       <use style="fill:#262626;stroke:#262626;" x="150.614625" xlink:href="#mc322a36e7b" y="216.804165"/>
      </g>
     </g>
     <g id="text_8">
      <!-- Vocational High School -->
      <g style="fill:#262626;" transform="translate(41.631625 220.147478)scale(0.088 -0.088)">
       <defs>
        <path d="M 28.609375 0 
L 0.78125 72.90625 
L 11.078125 72.90625 
L 34.1875 11.53125 
L 57.328125 72.90625 
L 67.578125 72.90625 
L 39.796875 0 
z
" id="DejaVuSans-86"/>
       </defs>
       <use xlink:href="#DejaVuSans-86"/>
       <use x="60.658203" xlink:href="#DejaVuSans-111"/>
       <use x="121.839844" xlink:href="#DejaVuSans-99"/>
       <use x="176.820312" xlink:href="#DejaVuSans-97"/>
       <use x="238.099609" xlink:href="#DejaVuSans-116"/>
       <use x="277.308594" xlink:href="#DejaVuSans-105"/>
       <use x="305.091797" xlink:href="#DejaVuSans-111"/>
       <use x="366.273438" xlink:href="#DejaVuSans-110"/>
       <use x="429.652344" xlink:href="#DejaVuSans-97"/>
       <use x="490.931641" xlink:href="#DejaVuSans-108"/>
       <use x="518.714844" xlink:href="#DejaVuSans-32"/>
       <use x="550.501953" xlink:href="#DejaVuSans-72"/>
       <use x="625.697266" xlink:href="#DejaVuSans-105"/>
       <use x="653.480469" xlink:href="#DejaVuSans-103"/>
       <use x="716.957031" xlink:href="#DejaVuSans-104"/>
       <use x="780.335938" xlink:href="#DejaVuSans-32"/>
       <use x="812.123047" xlink:href="#DejaVuSans-83"/>
       <use x="875.599609" xlink:href="#DejaVuSans-99"/>
       <use x="930.580078" xlink:href="#DejaVuSans-104"/>
       <use x="993.958984" xlink:href="#DejaVuSans-111"/>
       <use x="1055.140625" xlink:href="#DejaVuSans-111"/>
       <use x="1116.322266" xlink:href="#DejaVuSans-108"/>
      </g>
     </g>
    </g>
    <g id="ytick_6">
     <g id="line2d_8">
      <g>
       <use style="fill:#262626;stroke:#262626;" x="150.614625" xlink:href="#mc322a36e7b" y="199.140333"/>
      </g>
     </g>
     <g id="text_9">
      <!-- Standard High School -->
      <g style="fill:#262626;" transform="translate(47.243 202.483645)scale(0.088 -0.088)">
       <use xlink:href="#DejaVuSans-83"/>
       <use x="63.476562" xlink:href="#DejaVuSans-116"/>
       <use x="102.685547" xlink:href="#DejaVuSans-97"/>
       <use x="163.964844" xlink:href="#DejaVuSans-110"/>
       <use x="227.34375" xlink:href="#DejaVuSans-100"/>
       <use x="290.820312" xlink:href="#DejaVuSans-97"/>
       <use x="352.099609" xlink:href="#DejaVuSans-114"/>
       <use x="391.462891" xlink:href="#DejaVuSans-100"/>
       <use x="454.939453" xlink:href="#DejaVuSans-32"/>
       <use x="486.726562" xlink:href="#DejaVuSans-72"/>
       <use x="561.921875" xlink:href="#DejaVuSans-105"/>
       <use x="589.705078" xlink:href="#DejaVuSans-103"/>
       <use x="653.181641" xlink:href="#DejaVuSans-104"/>
       <use x="716.560547" xlink:href="#DejaVuSans-32"/>
       <use x="748.347656" xlink:href="#DejaVuSans-83"/>
       <use x="811.824219" xlink:href="#DejaVuSans-99"/>
       <use x="866.804688" xlink:href="#DejaVuSans-104"/>
       <use x="930.183594" xlink:href="#DejaVuSans-111"/>
       <use x="991.365234" xlink:href="#DejaVuSans-111"/>
       <use x="1052.546875" xlink:href="#DejaVuSans-108"/>
      </g>
     </g>
    </g>
    <g id="ytick_7">
     <g id="line2d_9">
      <g>
       <use style="fill:#262626;stroke:#262626;" x="150.614625" xlink:href="#mc322a36e7b" y="181.4765"/>
      </g>
     </g>
     <g id="text_10">
      <!-- Technical Secondary School -->
      <g style="fill:#262626;" transform="translate(20.491 184.819812)scale(0.088 -0.088)">
       <defs>
        <path d="M -0.296875 72.90625 
L 61.375 72.90625 
L 61.375 64.59375 
L 35.5 64.59375 
L 35.5 0 
L 25.59375 0 
L 25.59375 64.59375 
L -0.296875 64.59375 
z
" id="DejaVuSans-84"/>
       </defs>
       <use xlink:href="#DejaVuSans-84"/>
       <use x="44.083984" xlink:href="#DejaVuSans-101"/>
       <use x="105.607422" xlink:href="#DejaVuSans-99"/>
       <use x="160.587891" xlink:href="#DejaVuSans-104"/>
       <use x="223.966797" xlink:href="#DejaVuSans-110"/>
       <use x="287.345703" xlink:href="#DejaVuSans-105"/>
       <use x="315.128906" xlink:href="#DejaVuSans-99"/>
       <use x="370.109375" xlink:href="#DejaVuSans-97"/>
       <use x="431.388672" xlink:href="#DejaVuSans-108"/>
       <use x="459.171875" xlink:href="#DejaVuSans-32"/>
       <use x="490.958984" xlink:href="#DejaVuSans-83"/>
       <use x="554.435547" xlink:href="#DejaVuSans-101"/>
       <use x="615.958984" xlink:href="#DejaVuSans-99"/>
       <use x="670.939453" xlink:href="#DejaVuSans-111"/>
       <use x="732.121094" xlink:href="#DejaVuSans-110"/>
       <use x="795.5" xlink:href="#DejaVuSans-100"/>
       <use x="858.976562" xlink:href="#DejaVuSans-97"/>
       <use x="920.255859" xlink:href="#DejaVuSans-114"/>
       <use x="961.369141" xlink:href="#DejaVuSans-121"/>
       <use x="1020.548828" xlink:href="#DejaVuSans-32"/>
       <use x="1052.335938" xlink:href="#DejaVuSans-83"/>
       <use x="1115.8125" xlink:href="#DejaVuSans-99"/>
       <use x="1170.792969" xlink:href="#DejaVuSans-104"/>
       <use x="1234.171875" xlink:href="#DejaVuSans-111"/>
       <use x="1295.353516" xlink:href="#DejaVuSans-111"/>
       <use x="1356.535156" xlink:href="#DejaVuSans-108"/>
      </g>
     </g>
    </g>
    <g id="ytick_8">
     <g id="line2d_10">
      <g>
       <use style="fill:#262626;stroke:#262626;" x="150.614625" xlink:href="#mc322a36e7b" y="163.812667"/>
      </g>
     </g>
     <g id="text_11">
      <!-- Technical School -->
      <g style="fill:#262626;" transform="translate(69.89475 167.15598)scale(0.088 -0.088)">
       <use xlink:href="#DejaVuSans-84"/>
       <use x="44.083984" xlink:href="#DejaVuSans-101"/>
       <use x="105.607422" xlink:href="#DejaVuSans-99"/>
       <use x="160.587891" xlink:href="#DejaVuSans-104"/>
       <use x="223.966797" xlink:href="#DejaVuSans-110"/>
       <use x="287.345703" xlink:href="#DejaVuSans-105"/>
       <use x="315.128906" xlink:href="#DejaVuSans-99"/>
       <use x="370.109375" xlink:href="#DejaVuSans-97"/>
       <use x="431.388672" xlink:href="#DejaVuSans-108"/>
       <use x="459.171875" xlink:href="#DejaVuSans-32"/>
       <use x="490.958984" xlink:href="#DejaVuSans-83"/>
       <use x="554.435547" xlink:href="#DejaVuSans-99"/>
       <use x="609.416016" xlink:href="#DejaVuSans-104"/>
       <use x="672.794922" xlink:href="#DejaVuSans-111"/>
       <use x="733.976562" xlink:href="#DejaVuSans-111"/>
       <use x="795.158203" xlink:href="#DejaVuSans-108"/>
      </g>
     </g>
    </g>
    <g id="ytick_9">
     <g id="line2d_11">
      <g>
       <use style="fill:#262626;stroke:#262626;" x="150.614625" xlink:href="#mc322a36e7b" y="146.148835"/>
      </g>
     </g>
     <g id="text_12">
      <!-- College (Adult) -->
      <g style="fill:#262626;" transform="translate(76.892125 149.492147)scale(0.088 -0.088)">
       <defs>
        <path d="M 64.40625 67.28125 
L 64.40625 56.890625 
Q 59.421875 61.53125 53.78125 63.8125 
Q 48.140625 66.109375 41.796875 66.109375 
Q 29.296875 66.109375 22.65625 58.46875 
Q 16.015625 50.828125 16.015625 36.375 
Q 16.015625 21.96875 22.65625 14.328125 
Q 29.296875 6.6875 41.796875 6.6875 
Q 48.140625 6.6875 53.78125 8.984375 
Q 59.421875 11.28125 64.40625 15.921875 
L 64.40625 5.609375 
Q 59.234375 2.09375 53.4375 0.328125 
Q 47.65625 -1.421875 41.21875 -1.421875 
Q 24.65625 -1.421875 15.125 8.703125 
Q 5.609375 18.84375 5.609375 36.375 
Q 5.609375 53.953125 15.125 64.078125 
Q 24.65625 74.21875 41.21875 74.21875 
Q 47.75 74.21875 53.53125 72.484375 
Q 59.328125 70.75 64.40625 67.28125 
z
" id="DejaVuSans-67"/>
        <path d="M 34.1875 63.1875 
L 20.796875 26.90625 
L 47.609375 26.90625 
z
M 28.609375 72.90625 
L 39.796875 72.90625 
L 67.578125 0 
L 57.328125 0 
L 50.6875 18.703125 
L 17.828125 18.703125 
L 11.1875 0 
L 0.78125 0 
z
" id="DejaVuSans-65"/>
       </defs>
       <use xlink:href="#DejaVuSans-67"/>
       <use x="69.824219" xlink:href="#DejaVuSans-111"/>
       <use x="131.005859" xlink:href="#DejaVuSans-108"/>
       <use x="158.789062" xlink:href="#DejaVuSans-108"/>
       <use x="186.572266" xlink:href="#DejaVuSans-101"/>
       <use x="248.095703" xlink:href="#DejaVuSans-103"/>
       <use x="311.572266" xlink:href="#DejaVuSans-101"/>
       <use x="373.095703" xlink:href="#DejaVuSans-32"/>
       <use x="404.882812" xlink:href="#DejaVuSans-40"/>
       <use x="443.896484" xlink:href="#DejaVuSans-65"/>
       <use x="510.554688" xlink:href="#DejaVuSans-100"/>
       <use x="574.03125" xlink:href="#DejaVuSans-117"/>
       <use x="637.410156" xlink:href="#DejaVuSans-108"/>
       <use x="665.193359" xlink:href="#DejaVuSans-116"/>
       <use x="704.402344" xlink:href="#DejaVuSans-41"/>
      </g>
     </g>
    </g>
    <g id="ytick_10">
     <g id="line2d_12">
      <g>
       <use style="fill:#262626;stroke:#262626;" x="150.614625" xlink:href="#mc322a36e7b" y="128.485002"/>
      </g>
     </g>
     <g id="text_13">
      <!-- College (Regular) -->
      <g style="fill:#262626;" transform="translate(66.064 131.828315)scale(0.088 -0.088)">
       <defs>
        <path d="M 44.390625 34.1875 
Q 47.5625 33.109375 50.5625 29.59375 
Q 53.5625 26.078125 56.59375 19.921875 
L 66.609375 0 
L 56 0 
L 46.6875 18.703125 
Q 43.0625 26.03125 39.671875 28.421875 
Q 36.28125 30.8125 30.421875 30.8125 
L 19.671875 30.8125 
L 19.671875 0 
L 9.8125 0 
L 9.8125 72.90625 
L 32.078125 72.90625 
Q 44.578125 72.90625 50.734375 67.671875 
Q 56.890625 62.453125 56.890625 51.90625 
Q 56.890625 45.015625 53.6875 40.46875 
Q 50.484375 35.9375 44.390625 34.1875 
z
M 19.671875 64.796875 
L 19.671875 38.921875 
L 32.078125 38.921875 
Q 39.203125 38.921875 42.84375 42.21875 
Q 46.484375 45.515625 46.484375 51.90625 
Q 46.484375 58.296875 42.84375 61.546875 
Q 39.203125 64.796875 32.078125 64.796875 
z
" id="DejaVuSans-82"/>
       </defs>
       <use xlink:href="#DejaVuSans-67"/>
       <use x="69.824219" xlink:href="#DejaVuSans-111"/>
       <use x="131.005859" xlink:href="#DejaVuSans-108"/>
       <use x="158.789062" xlink:href="#DejaVuSans-108"/>
       <use x="186.572266" xlink:href="#DejaVuSans-101"/>
       <use x="248.095703" xlink:href="#DejaVuSans-103"/>
       <use x="311.572266" xlink:href="#DejaVuSans-101"/>
       <use x="373.095703" xlink:href="#DejaVuSans-32"/>
       <use x="404.882812" xlink:href="#DejaVuSans-40"/>
       <use x="443.896484" xlink:href="#DejaVuSans-82"/>
       <use x="508.878906" xlink:href="#DejaVuSans-101"/>
       <use x="570.402344" xlink:href="#DejaVuSans-103"/>
       <use x="633.878906" xlink:href="#DejaVuSans-117"/>
       <use x="697.257812" xlink:href="#DejaVuSans-108"/>
       <use x="725.041016" xlink:href="#DejaVuSans-97"/>
       <use x="786.320312" xlink:href="#DejaVuSans-114"/>
       <use x="827.433594" xlink:href="#DejaVuSans-41"/>
      </g>
     </g>
    </g>
    <g id="ytick_11">
     <g id="line2d_13">
      <g>
       <use style="fill:#262626;stroke:#262626;" x="150.614625" xlink:href="#mc322a36e7b" y="110.821169"/>
      </g>
     </g>
     <g id="text_14">
      <!-- University (Adult) -->
      <g style="fill:#262626;" transform="translate(65.336625 114.164482)scale(0.088 -0.088)">
       <defs>
        <path d="M 8.6875 72.90625 
L 18.609375 72.90625 
L 18.609375 28.609375 
Q 18.609375 16.890625 22.84375 11.734375 
Q 27.09375 6.59375 36.625 6.59375 
Q 46.09375 6.59375 50.34375 11.734375 
Q 54.59375 16.890625 54.59375 28.609375 
L 54.59375 72.90625 
L 64.5 72.90625 
L 64.5 27.390625 
Q 64.5 13.140625 57.4375 5.859375 
Q 50.390625 -1.421875 36.625 -1.421875 
Q 22.796875 -1.421875 15.734375 5.859375 
Q 8.6875 13.140625 8.6875 27.390625 
z
" id="DejaVuSans-85"/>
       </defs>
       <use xlink:href="#DejaVuSans-85"/>
       <use x="73.193359" xlink:href="#DejaVuSans-110"/>
       <use x="136.572266" xlink:href="#DejaVuSans-105"/>
       <use x="164.355469" xlink:href="#DejaVuSans-118"/>
       <use x="223.535156" xlink:href="#DejaVuSans-101"/>
       <use x="285.058594" xlink:href="#DejaVuSans-114"/>
       <use x="326.171875" xlink:href="#DejaVuSans-115"/>
       <use x="378.271484" xlink:href="#DejaVuSans-105"/>
       <use x="406.054688" xlink:href="#DejaVuSans-116"/>
       <use x="445.263672" xlink:href="#DejaVuSans-121"/>
       <use x="504.443359" xlink:href="#DejaVuSans-32"/>
       <use x="536.230469" xlink:href="#DejaVuSans-40"/>
       <use x="575.244141" xlink:href="#DejaVuSans-65"/>
       <use x="641.902344" xlink:href="#DejaVuSans-100"/>
       <use x="705.378906" xlink:href="#DejaVuSans-117"/>
       <use x="768.757812" xlink:href="#DejaVuSans-108"/>
       <use x="796.541016" xlink:href="#DejaVuSans-116"/>
       <use x="835.75" xlink:href="#DejaVuSans-41"/>
      </g>
     </g>
    </g>
    <g id="ytick_12">
     <g id="line2d_14">
      <g>
       <use style="fill:#262626;stroke:#262626;" x="150.614625" xlink:href="#mc322a36e7b" y="93.157337"/>
      </g>
     </g>
     <g id="text_15">
      <!-- University (Regular) -->
      <g style="fill:#262626;" transform="translate(54.5085 96.500649)scale(0.088 -0.088)">
       <use xlink:href="#DejaVuSans-85"/>
       <use x="73.193359" xlink:href="#DejaVuSans-110"/>
       <use x="136.572266" xlink:href="#DejaVuSans-105"/>
       <use x="164.355469" xlink:href="#DejaVuSans-118"/>
       <use x="223.535156" xlink:href="#DejaVuSans-101"/>
       <use x="285.058594" xlink:href="#DejaVuSans-114"/>
       <use x="326.171875" xlink:href="#DejaVuSans-115"/>
       <use x="378.271484" xlink:href="#DejaVuSans-105"/>
       <use x="406.054688" xlink:href="#DejaVuSans-116"/>
       <use x="445.263672" xlink:href="#DejaVuSans-121"/>
       <use x="504.443359" xlink:href="#DejaVuSans-32"/>
       <use x="536.230469" xlink:href="#DejaVuSans-40"/>
       <use x="575.244141" xlink:href="#DejaVuSans-82"/>
       <use x="640.226562" xlink:href="#DejaVuSans-101"/>
       <use x="701.75" xlink:href="#DejaVuSans-103"/>
       <use x="765.226562" xlink:href="#DejaVuSans-117"/>
       <use x="828.605469" xlink:href="#DejaVuSans-108"/>
       <use x="856.388672" xlink:href="#DejaVuSans-97"/>
       <use x="917.667969" xlink:href="#DejaVuSans-114"/>
       <use x="958.78125" xlink:href="#DejaVuSans-41"/>
      </g>
     </g>
    </g>
    <g id="ytick_13">
     <g id="line2d_15">
      <g>
       <use style="fill:#262626;stroke:#262626;" x="150.614625" xlink:href="#mc322a36e7b" y="75.493504"/>
      </g>
     </g>
     <g id="text_16">
      <!-- Graduate School or Above -->
      <g style="fill:#262626;" transform="translate(26.842125 78.836817)scale(0.088 -0.088)">
       <defs>
        <path d="M 59.515625 10.40625 
L 59.515625 29.984375 
L 43.40625 29.984375 
L 43.40625 38.09375 
L 69.28125 38.09375 
L 69.28125 6.78125 
Q 63.578125 2.734375 56.6875 0.65625 
Q 49.8125 -1.421875 42 -1.421875 
Q 24.90625 -1.421875 15.25 8.5625 
Q 5.609375 18.5625 5.609375 36.375 
Q 5.609375 54.25 15.25 64.234375 
Q 24.90625 74.21875 42 74.21875 
Q 49.125 74.21875 55.546875 72.453125 
Q 61.96875 70.703125 67.390625 67.28125 
L 67.390625 56.78125 
Q 61.921875 61.421875 55.765625 63.765625 
Q 49.609375 66.109375 42.828125 66.109375 
Q 29.4375 66.109375 22.71875 58.640625 
Q 16.015625 51.171875 16.015625 36.375 
Q 16.015625 21.625 22.71875 14.15625 
Q 29.4375 6.6875 42.828125 6.6875 
Q 48.046875 6.6875 52.140625 7.59375 
Q 56.25 8.5 59.515625 10.40625 
z
" id="DejaVuSans-71"/>
        <path d="M 48.6875 27.296875 
Q 48.6875 37.203125 44.609375 42.84375 
Q 40.53125 48.484375 33.40625 48.484375 
Q 26.265625 48.484375 22.1875 42.84375 
Q 18.109375 37.203125 18.109375 27.296875 
Q 18.109375 17.390625 22.1875 11.75 
Q 26.265625 6.109375 33.40625 6.109375 
Q 40.53125 6.109375 44.609375 11.75 
Q 48.6875 17.390625 48.6875 27.296875 
z
M 18.109375 46.390625 
Q 20.953125 51.265625 25.265625 53.625 
Q 29.59375 56 35.59375 56 
Q 45.5625 56 51.78125 48.09375 
Q 58.015625 40.1875 58.015625 27.296875 
Q 58.015625 14.40625 51.78125 6.484375 
Q 45.5625 -1.421875 35.59375 -1.421875 
Q 29.59375 -1.421875 25.265625 0.953125 
Q 20.953125 3.328125 18.109375 8.203125 
L 18.109375 0 
L 9.078125 0 
L 9.078125 75.984375 
L 18.109375 75.984375 
z
" id="DejaVuSans-98"/>
       </defs>
       <use xlink:href="#DejaVuSans-71"/>
       <use x="77.490234" xlink:href="#DejaVuSans-114"/>
       <use x="118.603516" xlink:href="#DejaVuSans-97"/>
       <use x="179.882812" xlink:href="#DejaVuSans-100"/>
       <use x="243.359375" xlink:href="#DejaVuSans-117"/>
       <use x="306.738281" xlink:href="#DejaVuSans-97"/>
       <use x="368.017578" xlink:href="#DejaVuSans-116"/>
       <use x="407.226562" xlink:href="#DejaVuSans-101"/>
       <use x="468.75" xlink:href="#DejaVuSans-32"/>
       <use x="500.537109" xlink:href="#DejaVuSans-83"/>
       <use x="564.013672" xlink:href="#DejaVuSans-99"/>
       <use x="618.994141" xlink:href="#DejaVuSans-104"/>
       <use x="682.373047" xlink:href="#DejaVuSans-111"/>
       <use x="743.554688" xlink:href="#DejaVuSans-111"/>
       <use x="804.736328" xlink:href="#DejaVuSans-108"/>
       <use x="832.519531" xlink:href="#DejaVuSans-32"/>
       <use x="864.306641" xlink:href="#DejaVuSans-111"/>
       <use x="925.488281" xlink:href="#DejaVuSans-114"/>
       <use x="966.601562" xlink:href="#DejaVuSans-32"/>
       <use x="998.388672" xlink:href="#DejaVuSans-65"/>
       <use x="1066.796875" xlink:href="#DejaVuSans-98"/>
       <use x="1130.273438" xlink:href="#DejaVuSans-111"/>
       <use x="1191.455078" xlink:href="#DejaVuSans-118"/>
       <use x="1250.634766" xlink:href="#DejaVuSans-101"/>
      </g>
     </g>
    </g>
    <g id="text_17">
     <!-- Education -->
     <g style="fill:#262626;" transform="translate(14.4945 205.37375)rotate(-90)scale(0.096 -0.096)">
      <use xlink:href="#DejaVuSans-69"/>
      <use x="63.183594" xlink:href="#DejaVuSans-100"/>
      <use x="126.660156" xlink:href="#DejaVuSans-117"/>
      <use x="190.039062" xlink:href="#DejaVuSans-99"/>
      <use x="245.019531" xlink:href="#DejaVuSans-97"/>
      <use x="306.298828" xlink:href="#DejaVuSans-116"/>
      <use x="345.507812" xlink:href="#DejaVuSans-105"/>
      <use x="373.291016" xlink:href="#DejaVuSans-111"/>
      <use x="434.472656" xlink:href="#DejaVuSans-110"/>
     </g>
    </g>
   </g>
   <g id="PolyCollection_1">
    <defs>
     <path d="M 228.449375 -66.541577 
L 226.022348 -66.541577 
L 225.03112 -68.846311 
L 223.785725 -71.151045 
L 222.285243 -73.45578 
L 220.555518 -75.760514 
L 218.653448 -78.065248 
L 216.66682 -80.369982 
L 214.708414 -82.674716 
L 212.90415 -84.97945 
L 211.376411 -87.284184 
L 210.224999 -89.588919 
L 209.50911 -91.893653 
L 209.233951 -94.198387 
L 209.344968 -96.503121 
L 209.731312 -98.807855 
L 210.238378 -101.112589 
L 210.687519 -103.417323 
L 210.899657 -105.722058 
L 210.718896 -108.026792 
L 210.032327 -110.331526 
L 208.783061 -112.63626 
L 206.974846 -114.940994 
L 204.668211 -117.245728 
L 201.969674 -119.550462 
L 199.016748 -121.855197 
L 195.962119 -124.159931 
L 192.960157 -126.464665 
L 190.157846 -128.769399 
L 187.690572 -131.074133 
L 185.681424 -133.378867 
L 184.241366 -135.683601 
L 183.467369 -137.988336 
L 183.436508 -140.29307 
L 184.195903 -142.597804 
L 185.750512 -144.902538 
L 188.052421 -147.207272 
L 190.995688 -149.512006 
L 194.419844 -151.816741 
L 198.123028 -154.121475 
L 201.883206 -156.426209 
L 205.483813 -158.730943 
L 208.738991 -161.035677 
L 211.513813 -163.340411 
L 213.736119 -165.645145 
L 215.398536 -167.94988 
L 216.551216 -170.254614 
L 217.287463 -172.559348 
L 217.725354 -174.864082 
L 217.988687 -177.168816 
L 218.190246 -179.47355 
L 218.419535 -181.778284 
L 218.736092 -184.083019 
L 219.168436 -186.387753 
L 219.717723 -188.692487 
L 220.364582 -190.997221 
L 221.077301 -193.301955 
L 221.819697 -195.606689 
L 222.557413 -197.911423 
L 223.26203 -200.216158 
L 223.912947 -202.520892 
L 224.497464 -204.825626 
L 225.009694 -207.13036 
L 225.448968 -209.435094 
L 225.818214 -211.739828 
L 226.122613 -214.044562 
L 226.368614 -216.349297 
L 226.563282 -218.654031 
L 226.713864 -220.958765 
L 226.827509 -223.263499 
L 226.911031 -225.568233 
L 226.970717 -227.872967 
L 227.012157 -230.177702 
L 227.04012 -232.482436 
L 227.058497 -234.78717 
L 227.07033 -237.091904 
L 227.077914 -239.396638 
L 227.082965 -241.701372 
L 227.086807 -244.006106 
L 227.090562 -246.310841 
L 227.095298 -248.615575 
L 227.102151 -250.920309 
L 227.112396 -253.225043 
L 227.127486 -255.529777 
L 227.149058 -257.834511 
L 227.178863 -260.139245 
L 227.218629 -262.44398 
L 227.269841 -264.748714 
L 227.333453 -267.053448 
L 227.409594 -269.358182 
L 227.497348 -271.662916 
L 227.594663 -273.96765 
L 227.698458 -276.272384 
L 227.804915 -278.577119 
L 227.909914 -280.881853 
L 228.009518 -283.186587 
L 228.10042 -285.491321 
L 228.180261 -287.796055 
L 228.247777 -290.100789 
L 228.302767 -292.405523 
L 228.345924 -294.710258 
L 228.449375 -294.710258 
L 228.449375 -294.710258 
L 228.449375 -292.405523 
L 228.449375 -290.100789 
L 228.449375 -287.796055 
L 228.449375 -285.491321 
L 228.449375 -283.186587 
L 228.449375 -280.881853 
L 228.449375 -278.577119 
L 228.449375 -276.272384 
L 228.449375 -273.96765 
L 228.449375 -271.662916 
L 228.449375 -269.358182 
L 228.449375 -267.053448 
L 228.449375 -264.748714 
L 228.449375 -262.44398 
L 228.449375 -260.139245 
L 228.449375 -257.834511 
L 228.449375 -255.529777 
L 228.449375 -253.225043 
L 228.449375 -250.920309 
L 228.449375 -248.615575 
L 228.449375 -246.310841 
L 228.449375 -244.006106 
L 228.449375 -241.701372 
L 228.449375 -239.396638 
L 228.449375 -237.091904 
L 228.449375 -234.78717 
L 228.449375 -232.482436 
L 228.449375 -230.177702 
L 228.449375 -227.872967 
L 228.449375 -225.568233 
L 228.449375 -223.263499 
L 228.449375 -220.958765 
L 228.449375 -218.654031 
L 228.449375 -216.349297 
L 228.449375 -214.044562 
L 228.449375 -211.739828 
L 228.449375 -209.435094 
L 228.449375 -207.13036 
L 228.449375 -204.825626 
L 228.449375 -202.520892 
L 228.449375 -200.216158 
L 228.449375 -197.911423 
L 228.449375 -195.606689 
L 228.449375 -193.301955 
L 228.449375 -190.997221 
L 228.449375 -188.692487 
L 228.449375 -186.387753 
L 228.449375 -184.083019 
L 228.449375 -181.778284 
L 228.449375 -179.47355 
L 228.449375 -177.168816 
L 228.449375 -174.864082 
L 228.449375 -172.559348 
L 228.449375 -170.254614 
L 228.449375 -167.94988 
L 228.449375 -165.645145 
L 228.449375 -163.340411 
L 228.449375 -161.035677 
L 228.449375 -158.730943 
L 228.449375 -156.426209 
L 228.449375 -154.121475 
L 228.449375 -151.816741 
L 228.449375 -149.512006 
L 228.449375 -147.207272 
L 228.449375 -144.902538 
L 228.449375 -142.597804 
L 228.449375 -140.29307 
L 228.449375 -137.988336 
L 228.449375 -135.683601 
L 228.449375 -133.378867 
L 228.449375 -131.074133 
L 228.449375 -128.769399 
L 228.449375 -126.464665 
L 228.449375 -124.159931 
L 228.449375 -121.855197 
L 228.449375 -119.550462 
L 228.449375 -117.245728 
L 228.449375 -114.940994 
L 228.449375 -112.63626 
L 228.449375 -110.331526 
L 228.449375 -108.026792 
L 228.449375 -105.722058 
L 228.449375 -103.417323 
L 228.449375 -101.112589 
L 228.449375 -98.807855 
L 228.449375 -96.503121 
L 228.449375 -94.198387 
L 228.449375 -91.893653 
L 228.449375 -89.588919 
L 228.449375 -87.284184 
L 228.449375 -84.97945 
L 228.449375 -82.674716 
L 228.449375 -80.369982 
L 228.449375 -78.065248 
L 228.449375 -75.760514 
L 228.449375 -73.45578 
L 228.449375 -71.151045 
L 228.449375 -68.846311 
L 228.449375 -66.541577 
z
" id="mcf7eef1d0f" style="stroke:#494949;stroke-width:1.2;"/>
    </defs>
    <g clip-path="url(#p0247058d5b)">
     <use style="fill:#6e5c99;stroke:#494949;stroke-width:1.2;" x="0" xlink:href="#mcf7eef1d0f" y="379.76625"/>
    </g>
   </g>
   <g id="PolyCollection_2">
    <defs>
     <path d="M 229.31054 -51.942477 
L 228.449375 -51.942477 
L 228.449375 -54.898988 
L 228.449375 -57.855498 
L 228.449375 -60.812009 
L 228.449375 -63.76852 
L 228.449375 -66.72503 
L 228.449375 -69.681541 
L 228.449375 -72.638051 
L 228.449375 -75.594562 
L 228.449375 -78.551072 
L 228.449375 -81.507583 
L 228.449375 -84.464093 
L 228.449375 -87.420604 
L 228.449375 -90.377115 
L 228.449375 -93.333625 
L 228.449375 -96.290136 
L 228.449375 -99.246646 
L 228.449375 -102.203157 
L 228.449375 -105.159667 
L 228.449375 -108.116178 
L 228.449375 -111.072688 
L 228.449375 -114.029199 
L 228.449375 -116.98571 
L 228.449375 -119.94222 
L 228.449375 -122.898731 
L 228.449375 -125.855241 
L 228.449375 -128.811752 
L 228.449375 -131.768262 
L 228.449375 -134.724773 
L 228.449375 -137.681284 
L 228.449375 -140.637794 
L 228.449375 -143.594305 
L 228.449375 -146.550815 
L 228.449375 -149.507326 
L 228.449375 -152.463836 
L 228.449375 -155.420347 
L 228.449375 -158.376857 
L 228.449375 -161.333368 
L 228.449375 -164.289879 
L 228.449375 -167.246389 
L 228.449375 -170.2029 
L 228.449375 -173.15941 
L 228.449375 -176.115921 
L 228.449375 -179.072431 
L 228.449375 -182.028942 
L 228.449375 -184.985452 
L 228.449375 -187.941963 
L 228.449375 -190.898474 
L 228.449375 -193.854984 
L 228.449375 -196.811495 
L 228.449375 -199.768005 
L 228.449375 -202.724516 
L 228.449375 -205.681026 
L 228.449375 -208.637537 
L 228.449375 -211.594048 
L 228.449375 -214.550558 
L 228.449375 -217.507069 
L 228.449375 -220.463579 
L 228.449375 -223.42009 
L 228.449375 -226.3766 
L 228.449375 -229.333111 
L 228.449375 -232.289621 
L 228.449375 -235.246132 
L 228.449375 -238.202643 
L 228.449375 -241.159153 
L 228.449375 -244.115664 
L 228.449375 -247.072174 
L 228.449375 -250.028685 
L 228.449375 -252.985195 
L 228.449375 -255.941706 
L 228.449375 -258.898216 
L 228.449375 -261.854727 
L 228.449375 -264.811238 
L 228.449375 -267.767748 
L 228.449375 -270.724259 
L 228.449375 -273.680769 
L 228.449375 -276.63728 
L 228.449375 -279.59379 
L 228.449375 -282.550301 
L 228.449375 -285.506812 
L 228.449375 -288.463322 
L 228.449375 -291.419833 
L 228.449375 -294.376343 
L 228.449375 -297.332854 
L 228.449375 -300.289364 
L 228.449375 -303.245875 
L 228.449375 -306.202385 
L 228.449375 -309.158896 
L 228.449375 -312.115407 
L 228.449375 -315.071917 
L 228.449375 -318.028428 
L 228.449375 -320.984938 
L 228.449375 -323.941449 
L 228.449375 -326.897959 
L 228.449375 -329.85447 
L 228.449375 -332.81098 
L 228.449375 -335.767491 
L 228.449375 -338.724002 
L 228.449375 -341.680512 
L 228.449375 -344.637023 
L 229.251507 -344.637023 
L 229.251507 -344.637023 
L 229.549995 -341.680512 
L 229.932567 -338.724002 
L 230.412839 -335.767491 
L 231.003308 -332.81098 
L 231.714121 -329.85447 
L 232.551721 -326.897959 
L 233.517466 -323.941449 
L 234.606393 -320.984938 
L 235.806275 -318.028428 
L 237.097172 -315.071917 
L 238.451632 -312.115407 
L 239.835664 -309.158896 
L 241.210534 -306.202385 
L 242.535324 -303.245875 
L 243.770082 -300.289364 
L 244.879262 -297.332854 
L 245.835078 -294.376343 
L 246.620316 -291.419833 
L 247.230192 -288.463322 
L 247.672908 -285.506812 
L 247.968726 -282.550301 
L 248.147599 -279.59379 
L 248.245601 -276.63728 
L 248.300616 -273.680769 
L 248.347871 -270.724259 
L 248.415952 -267.767748 
L 248.52387 -264.811238 
L 248.679592 -261.854727 
L 248.880247 -258.898216 
L 249.113928 -255.941706 
L 249.36282 -252.985195 
L 249.607167 -250.028685 
L 249.829518 -247.072174 
L 250.018657 -244.115664 
L 250.172688 -241.159153 
L 250.300883 -238.202643 
L 250.42405 -235.246132 
L 250.573371 -232.289621 
L 250.787819 -229.333111 
L 251.110414 -226.3766 
L 251.583721 -223.42009 
L 252.245042 -220.463579 
L 253.121841 -217.507069 
L 254.227929 -214.550558 
L 255.560896 -211.594048 
L 257.101197 -208.637537 
L 258.813174 -205.681026 
L 260.648072 -202.724516 
L 262.548899 -199.768005 
L 264.456711 -196.811495 
L 266.317632 -193.854984 
L 268.089721 -190.898474 
L 269.748662 -187.941963 
L 271.291281 -184.985452 
L 272.736074 -182.028942 
L 274.120287 -179.072431 
L 275.493594 -176.115921 
L 276.908993 -173.15941 
L 278.412057 -170.2029 
L 280.030114 -167.246389 
L 281.763076 -164.289879 
L 283.577521 -161.333368 
L 285.405214 -158.376857 
L 287.146611 -155.420347 
L 288.67912 -152.463836 
L 289.869104 -149.507326 
L 290.586082 -146.550815 
L 290.717175 -143.594305 
L 290.179877 -140.637794 
L 288.931508 -137.681284 
L 286.974207 -134.724773 
L 284.355019 -131.768262 
L 281.161273 -128.811752 
L 277.512063 -125.855241 
L 273.54705 -122.898731 
L 269.414017 -119.94222 
L 265.25667 -116.98571 
L 261.203938 -114.029199 
L 257.361792 -111.072688 
L 253.80818 -108.116178 
L 250.591259 -105.159667 
L 247.730716 -102.203157 
L 245.221634 -99.246646 
L 243.040123 -96.290136 
L 241.149813 -93.333625 
L 239.508342 -90.377115 
L 238.073063 -87.420604 
L 236.80544 -84.464093 
L 235.673847 -81.507583 
L 234.654759 -78.551072 
L 233.732529 -75.594562 
L 232.898138 -72.638051 
L 232.147336 -69.681541 
L 231.478611 -66.72503 
L 230.891347 -63.76852 
L 230.384387 -60.812009 
L 229.955144 -57.855498 
L 229.599232 -54.898988 
L 229.31054 -51.942477 
z
" id="m192a1a54e5" style="stroke:#494949;stroke-width:1.2;"/>
    </defs>
    <g clip-path="url(#p0247058d5b)">
     <use style="fill:#a3a0c3;stroke:#494949;stroke-width:1.2;" x="0" xlink:href="#m192a1a54e5" y="379.76625"/>
    </g>
   </g>
   <g id="PolyCollection_3">
    <defs>
     <path d="M 384.118875 -68.510445 
L 382.966308 -68.510445 
L 382.416427 -70.953826 
L 381.707617 -73.397208 
L 380.843883 -75.840589 
L 379.852822 -78.283971 
L 378.788303 -80.727353 
L 377.727653 -83.170734 
L 376.762405 -85.614116 
L 375.983399 -88.057497 
L 375.462909 -90.500879 
L 375.237809 -92.944261 
L 375.298033 -95.387642 
L 375.583515 -97.831024 
L 375.990765 -100.274405 
L 376.38793 -102.717787 
L 376.635239 -105.161169 
L 376.606748 -107.60455 
L 376.209262 -110.047932 
L 375.395109 -112.491313 
L 374.166688 -114.934695 
L 372.572383 -117.378077 
L 370.69522 -119.821458 
L 368.637397 -122.26484 
L 366.505066 -124.708221 
L 364.397763 -127.151603 
L 362.405318 -129.594985 
L 360.612043 -132.038366 
L 359.104603 -134.481748 
L 357.977707 -136.925129 
L 357.331957 -139.368511 
L 357.261197 -141.811893 
L 357.831432 -144.255274 
L 359.057794 -146.698656 
L 360.888051 -149.142037 
L 363.199689 -151.585419 
L 365.813255 -154.0288 
L 368.519224 -156.472182 
L 371.111395 -158.915564 
L 373.418289 -161.358945 
L 375.325407 -163.802327 
L 376.784578 -166.245708 
L 377.810429 -168.68909 
L 378.466944 -171.132472 
L 378.848473 -173.575853 
L 379.059617 -176.019235 
L 379.197564 -178.462616 
L 379.339236 -180.905998 
L 379.534414 -183.34938 
L 379.804825 -185.792761 
L 380.148213 -188.236143 
L 380.54562 -190.679524 
L 380.96976 -193.122906 
L 381.392543 -195.566288 
L 381.790364 -198.009669 
L 382.146683 -200.453051 
L 382.45222 -202.896432 
L 382.703608 -205.339814 
L 382.901485 -207.783196 
L 383.048809 -210.226577 
L 383.149808 -212.669959 
L 383.209617 -215.11334 
L 383.234401 -217.556722 
L 383.231654 -220.000104 
L 383.210342 -222.443485 
L 383.180658 -224.886867 
L 383.153268 -227.330248 
L 383.138105 -229.77363 
L 383.142946 -232.217012 
L 383.172089 -234.660393 
L 383.225531 -237.103775 
L 383.298882 -239.547156 
L 383.384128 -241.990538 
L 383.471083 -244.43392 
L 383.549237 -246.877301 
L 383.609587 -249.320683 
L 383.64612 -251.764064 
L 383.656664 -254.207446 
L 383.64303 -256.650828 
L 383.610455 -259.094209 
L 383.566516 -261.537591 
L 383.519722 -263.980972 
L 383.478086 -266.424354 
L 383.447935 -268.867736 
L 383.433191 -271.311117 
L 383.435212 -273.754499 
L 383.453172 -276.19788 
L 383.484768 -278.641262 
L 383.527029 -281.084644 
L 383.576975 -283.528025 
L 383.63199 -285.971407 
L 383.689897 -288.414788 
L 383.748826 -290.85817 
L 383.807044 -293.301552 
L 383.862854 -295.744933 
L 383.914627 -298.188315 
L 383.960945 -300.631696 
L 384.000784 -303.075078 
L 384.033647 -305.51846 
L 384.059597 -307.961841 
L 384.079192 -310.405223 
L 384.118875 -310.405223 
L 384.118875 -310.405223 
L 384.118875 -307.961841 
L 384.118875 -305.51846 
L 384.118875 -303.075078 
L 384.118875 -300.631696 
L 384.118875 -298.188315 
L 384.118875 -295.744933 
L 384.118875 -293.301552 
L 384.118875 -290.85817 
L 384.118875 -288.414788 
L 384.118875 -285.971407 
L 384.118875 -283.528025 
L 384.118875 -281.084644 
L 384.118875 -278.641262 
L 384.118875 -276.19788 
L 384.118875 -273.754499 
L 384.118875 -271.311117 
L 384.118875 -268.867736 
L 384.118875 -266.424354 
L 384.118875 -263.980972 
L 384.118875 -261.537591 
L 384.118875 -259.094209 
L 384.118875 -256.650828 
L 384.118875 -254.207446 
L 384.118875 -251.764064 
L 384.118875 -249.320683 
L 384.118875 -246.877301 
L 384.118875 -244.43392 
L 384.118875 -241.990538 
L 384.118875 -239.547156 
L 384.118875 -237.103775 
L 384.118875 -234.660393 
L 384.118875 -232.217012 
L 384.118875 -229.77363 
L 384.118875 -227.330248 
L 384.118875 -224.886867 
L 384.118875 -222.443485 
L 384.118875 -220.000104 
L 384.118875 -217.556722 
L 384.118875 -215.11334 
L 384.118875 -212.669959 
L 384.118875 -210.226577 
L 384.118875 -207.783196 
L 384.118875 -205.339814 
L 384.118875 -202.896432 
L 384.118875 -200.453051 
L 384.118875 -198.009669 
L 384.118875 -195.566288 
L 384.118875 -193.122906 
L 384.118875 -190.679524 
L 384.118875 -188.236143 
L 384.118875 -185.792761 
L 384.118875 -183.34938 
L 384.118875 -180.905998 
L 384.118875 -178.462616 
L 384.118875 -176.019235 
L 384.118875 -173.575853 
L 384.118875 -171.132472 
L 384.118875 -168.68909 
L 384.118875 -166.245708 
L 384.118875 -163.802327 
L 384.118875 -161.358945 
L 384.118875 -158.915564 
L 384.118875 -156.472182 
L 384.118875 -154.0288 
L 384.118875 -151.585419 
L 384.118875 -149.142037 
L 384.118875 -146.698656 
L 384.118875 -144.255274 
L 384.118875 -141.811893 
L 384.118875 -139.368511 
L 384.118875 -136.925129 
L 384.118875 -134.481748 
L 384.118875 -132.038366 
L 384.118875 -129.594985 
L 384.118875 -127.151603 
L 384.118875 -124.708221 
L 384.118875 -122.26484 
L 384.118875 -119.821458 
L 384.118875 -117.378077 
L 384.118875 -114.934695 
L 384.118875 -112.491313 
L 384.118875 -110.047932 
L 384.118875 -107.60455 
L 384.118875 -105.161169 
L 384.118875 -102.717787 
L 384.118875 -100.274405 
L 384.118875 -97.831024 
L 384.118875 -95.387642 
L 384.118875 -92.944261 
L 384.118875 -90.500879 
L 384.118875 -88.057497 
L 384.118875 -85.614116 
L 384.118875 -83.170734 
L 384.118875 -80.727353 
L 384.118875 -78.283971 
L 384.118875 -75.840589 
L 384.118875 -73.397208 
L 384.118875 -70.953826 
L 384.118875 -68.510445 
z
" id="m261ed349ed" style="stroke:#494949;stroke-width:1.2;"/>
    </defs>
    <g clip-path="url(#p0247058d5b)">
     <use style="fill:#6e5c99;stroke:#494949;stroke-width:1.2;" x="0" xlink:href="#m261ed349ed" y="379.76625"/>
    </g>
   </g>
   <g id="PolyCollection_4">
    <defs>
     <path d="M 384.90942 -56.59287 
L 384.118875 -56.59287 
L 384.118875 -59.455433 
L 384.118875 -62.317996 
L 384.118875 -65.18056 
L 384.118875 -68.043123 
L 384.118875 -70.905686 
L 384.118875 -73.768249 
L 384.118875 -76.630813 
L 384.118875 -79.493376 
L 384.118875 -82.355939 
L 384.118875 -85.218502 
L 384.118875 -88.081065 
L 384.118875 -90.943629 
L 384.118875 -93.806192 
L 384.118875 -96.668755 
L 384.118875 -99.531318 
L 384.118875 -102.393882 
L 384.118875 -105.256445 
L 384.118875 -108.119008 
L 384.118875 -110.981571 
L 384.118875 -113.844135 
L 384.118875 -116.706698 
L 384.118875 -119.569261 
L 384.118875 -122.431824 
L 384.118875 -125.294388 
L 384.118875 -128.156951 
L 384.118875 -131.019514 
L 384.118875 -133.882077 
L 384.118875 -136.74464 
L 384.118875 -139.607204 
L 384.118875 -142.469767 
L 384.118875 -145.33233 
L 384.118875 -148.194893 
L 384.118875 -151.057457 
L 384.118875 -153.92002 
L 384.118875 -156.782583 
L 384.118875 -159.645146 
L 384.118875 -162.50771 
L 384.118875 -165.370273 
L 384.118875 -168.232836 
L 384.118875 -171.095399 
L 384.118875 -173.957963 
L 384.118875 -176.820526 
L 384.118875 -179.683089 
L 384.118875 -182.545652 
L 384.118875 -185.408215 
L 384.118875 -188.270779 
L 384.118875 -191.133342 
L 384.118875 -193.995905 
L 384.118875 -196.858468 
L 384.118875 -199.721032 
L 384.118875 -202.583595 
L 384.118875 -205.446158 
L 384.118875 -208.308721 
L 384.118875 -211.171285 
L 384.118875 -214.033848 
L 384.118875 -216.896411 
L 384.118875 -219.758974 
L 384.118875 -222.621537 
L 384.118875 -225.484101 
L 384.118875 -228.346664 
L 384.118875 -231.209227 
L 384.118875 -234.07179 
L 384.118875 -236.934354 
L 384.118875 -239.796917 
L 384.118875 -242.65948 
L 384.118875 -245.522043 
L 384.118875 -248.384607 
L 384.118875 -251.24717 
L 384.118875 -254.109733 
L 384.118875 -256.972296 
L 384.118875 -259.83486 
L 384.118875 -262.697423 
L 384.118875 -265.559986 
L 384.118875 -268.422549 
L 384.118875 -271.285112 
L 384.118875 -274.147676 
L 384.118875 -277.010239 
L 384.118875 -279.872802 
L 384.118875 -282.735365 
L 384.118875 -285.597929 
L 384.118875 -288.460492 
L 384.118875 -291.323055 
L 384.118875 -294.185618 
L 384.118875 -297.048182 
L 384.118875 -299.910745 
L 384.118875 -302.773308 
L 384.118875 -305.635871 
L 384.118875 -308.498435 
L 384.118875 -311.360998 
L 384.118875 -314.223561 
L 384.118875 -317.086124 
L 384.118875 -319.948687 
L 384.118875 -322.811251 
L 384.118875 -325.673814 
L 384.118875 -328.536377 
L 384.118875 -331.39894 
L 384.118875 -334.261504 
L 384.118875 -337.124067 
L 384.118875 -339.98663 
L 385.287542 -339.98663 
L 385.287542 -339.98663 
L 385.803827 -337.124067 
L 386.501368 -334.261504 
L 387.423657 -331.39894 
L 388.616841 -328.536377 
L 390.126759 -325.673814 
L 391.994831 -322.811251 
L 394.252914 -319.948687 
L 396.917451 -317.086124 
L 399.98352 -314.223561 
L 403.419622 -311.360998 
L 407.164255 -308.498435 
L 411.125303 -305.635871 
L 415.183078 -302.773308 
L 419.197412 -299.910745 
L 423.018494 -297.048182 
L 426.500444 -294.185618 
L 429.515885 -291.323055 
L 431.969349 -288.460492 
L 433.807309 -285.597929 
L 435.023032 -282.735365 
L 435.655262 -279.872802 
L 435.780837 -277.010239 
L 435.502415 -274.147676 
L 434.933372 -271.285112 
L 434.182391 -268.422549 
L 433.340211 -265.559986 
L 432.470491 -262.697423 
L 431.605908 -259.83486 
L 430.749612 -256.972296 
L 429.881308 -254.109733 
L 428.966548 -251.24717 
L 427.967549 -248.384607 
L 426.85381 -245.522043 
L 425.611067 -242.65948 
L 424.247537 -239.796917 
L 422.796807 -236.934354 
L 421.317181 -234.07179 
L 419.887644 -231.209227 
L 418.60092 -228.346664 
L 417.554369 -225.484101 
L 416.839697 -222.621537 
L 416.532577 -219.758974 
L 416.683371 -216.896411 
L 417.31006 -214.033848 
L 418.394302 -211.171285 
L 419.881218 -208.308721 
L 421.683141 -205.446158 
L 423.687118 -202.583595 
L 425.765587 -199.721032 
L 427.789295 -196.858468 
L 429.641216 -193.995905 
L 431.230017 -191.133342 
L 432.501443 -188.270779 
L 433.445958 -185.408215 
L 434.101163 -182.545652 
L 434.547894 -179.683089 
L 434.899687 -176.820526 
L 435.286241 -173.957963 
L 435.832689 -171.095399 
L 436.637476 -168.232836 
L 437.752354 -165.370273 
L 439.168054 -162.50771 
L 440.808583 -159.645146 
L 442.535753 -156.782583 
L 444.163805 -153.92002 
L 445.482126 -151.057457 
L 446.282525 -148.194893 
L 446.386675 -145.33233 
L 445.669354 -142.469767 
L 444.073954 -139.607204 
L 441.618269 -136.74464 
L 438.390326 -133.882077 
L 434.535689 -131.019514 
L 430.238877 -128.156951 
L 425.702113 -125.294388 
L 421.124553 -122.431824 
L 416.684541 -119.569261 
L 412.526579 -116.706698 
L 408.753755 -113.844135 
L 405.425519 -110.981571 
L 402.560126 -108.119008 
L 400.140678 -105.256445 
L 398.123522 -102.393882 
L 396.447777 -99.531318 
L 395.04485 -96.668755 
L 393.846955 -93.806192 
L 392.793902 -90.943629 
L 391.83768 -88.081065 
L 390.944665 -85.218502 
L 390.095593 -82.355939 
L 389.283711 -79.493376 
L 388.511693 -76.630813 
L 387.787983 -73.768249 
L 387.123223 -70.905686 
L 386.527254 -68.043123 
L 386.007014 -65.18056 
L 385.565428 -62.317996 
L 385.201217 -59.455433 
L 384.90942 -56.59287 
z
" id="m264727633f" style="stroke:#494949;stroke-width:1.2;"/>
    </defs>
    <g clip-path="url(#p0247058d5b)">
     <use style="fill:#a3a0c3;stroke:#494949;stroke-width:1.2;" x="0" xlink:href="#m264727633f" y="379.76625"/>
    </g>
   </g>
   <g id="patch_3">
    <path clip-path="url(#p0247058d5b)" d="M 228.449375 305.123329 
L 228.449375 305.123329 
L 228.449375 305.123329 
L 228.449375 305.123329 
z
" style="fill:#6e5c99;stroke:#494949;stroke-linejoin:miter;stroke-width:0.6;"/>
   </g>
   <g id="patch_4">
    <path clip-path="url(#p0247058d5b)" d="M 228.449375 305.123329 
L 228.449375 305.123329 
L 228.449375 305.123329 
L 228.449375 305.123329 
z
" style="fill:#a3a0c3;stroke:#494949;stroke-linejoin:miter;stroke-width:0.6;"/>
   </g>
   <g id="line2d_16">
    <path clip-path="url(#p0247058d5b)" d="M 228.449375 287.459496 
L 228.449375 128.485002 
" style="fill:none;stroke:#494949;stroke-linecap:round;stroke-width:1.2;"/>
   </g>
   <g id="line2d_17">
    <path clip-path="url(#p0247058d5b)" d="M 228.449375 252.131831 
L 228.449375 199.140333 
" style="fill:none;stroke:#494949;stroke-linecap:round;stroke-width:3.6;"/>
   </g>
   <g id="line2d_18">
    <path clip-path="url(#p0247058d5b)" d="M 384.118875 287.459496 
L 384.118875 75.493504 
" style="fill:none;stroke:#494949;stroke-linecap:round;stroke-width:1.2;"/>
   </g>
   <g id="line2d_19">
    <path clip-path="url(#p0247058d5b)" d="M 384.118875 234.467998 
L 384.118875 146.148835 
" style="fill:none;stroke:#494949;stroke-linecap:round;stroke-width:3.6;"/>
   </g>
   <g id="patch_5">
    <path d="M 150.614625 342.4585 
L 150.614625 20.4945 
" style="fill:none;stroke:#262626;stroke-linecap:square;stroke-linejoin:miter;"/>
   </g>
   <g id="patch_6">
    <path d="M 150.614625 342.4585 
L 461.953625 342.4585 
" style="fill:none;stroke:#262626;stroke-linecap:square;stroke-linejoin:miter;"/>
   </g>
   <g id="PathCollection_1">
    <defs>
     <path d="M 0 1.2 
C 0.318244 1.2 0.623496 1.07356 0.848528 0.848528 
C 1.07356 0.623496 1.2 0.318244 1.2 0 
C 1.2 -0.318244 1.07356 -0.623496 0.848528 -0.848528 
C 0.623496 -1.07356 0.318244 -1.2 0 -1.2 
C -0.318244 -1.2 -0.623496 -1.07356 -0.848528 -0.848528 
C -1.07356 -0.623496 -1.2 -0.318244 -1.2 0 
C -1.2 0.318244 -1.07356 0.623496 -0.848528 0.848528 
C -0.623496 1.07356 -0.318244 1.2 0 1.2 
z
" id="mb8758b32e5" style="stroke:#494949;stroke-width:0.8;"/>
    </defs>
    <g clip-path="url(#p0247058d5b)">
     <use style="fill:#ffffff;stroke:#494949;stroke-width:0.8;" x="228.449375" xlink:href="#mb8758b32e5" y="234.467998"/>
    </g>
   </g>
   <g id="PathCollection_2">
    <g clip-path="url(#p0247058d5b)">
     <use style="fill:#ffffff;stroke:#494949;stroke-width:0.8;" x="384.118875" xlink:href="#mb8758b32e5" y="199.140333"/>
    </g>
   </g>
   <g id="text_18">
    <!-- Education vs. Water Quality Knowledge -->
    <g style="fill:#262626;" transform="translate(211.688875 14.4945)scale(0.096 -0.096)">
     <defs>
      <path d="M 10.6875 12.40625 
L 21 12.40625 
L 21 0 
L 10.6875 0 
z
" id="DejaVuSans-46"/>
     </defs>
     <use xlink:href="#DejaVuSans-69"/>
     <use x="63.183594" xlink:href="#DejaVuSans-100"/>
     <use x="126.660156" xlink:href="#DejaVuSans-117"/>
     <use x="190.039062" xlink:href="#DejaVuSans-99"/>
     <use x="245.019531" xlink:href="#DejaVuSans-97"/>
     <use x="306.298828" xlink:href="#DejaVuSans-116"/>
     <use x="345.507812" xlink:href="#DejaVuSans-105"/>
     <use x="373.291016" xlink:href="#DejaVuSans-111"/>
     <use x="434.472656" xlink:href="#DejaVuSans-110"/>
     <use x="497.851562" xlink:href="#DejaVuSans-32"/>
     <use x="529.638672" xlink:href="#DejaVuSans-118"/>
     <use x="588.818359" xlink:href="#DejaVuSans-115"/>
     <use x="640.917969" xlink:href="#DejaVuSans-46"/>
     <use x="672.705078" xlink:href="#DejaVuSans-32"/>
     <use x="704.492188" xlink:href="#DejaVuSans-87"/>
     <use x="796.994141" xlink:href="#DejaVuSans-97"/>
     <use x="858.273438" xlink:href="#DejaVuSans-116"/>
     <use x="897.482422" xlink:href="#DejaVuSans-101"/>
     <use x="959.005859" xlink:href="#DejaVuSans-114"/>
     <use x="1000.119141" xlink:href="#DejaVuSans-32"/>
     <use x="1031.90625" xlink:href="#DejaVuSans-81"/>
     <use x="1110.617188" xlink:href="#DejaVuSans-117"/>
     <use x="1173.996094" xlink:href="#DejaVuSans-97"/>
     <use x="1235.275391" xlink:href="#DejaVuSans-108"/>
     <use x="1263.058594" xlink:href="#DejaVuSans-105"/>
     <use x="1290.841797" xlink:href="#DejaVuSans-116"/>
     <use x="1330.050781" xlink:href="#DejaVuSans-121"/>
     <use x="1389.230469" xlink:href="#DejaVuSans-32"/>
     <use x="1421.017578" xlink:href="#DejaVuSans-75"/>
     <use x="1486.59375" xlink:href="#DejaVuSans-110"/>
     <use x="1549.972656" xlink:href="#DejaVuSans-111"/>
     <use x="1611.154297" xlink:href="#DejaVuSans-119"/>
     <use x="1692.941406" xlink:href="#DejaVuSans-108"/>
     <use x="1720.724609" xlink:href="#DejaVuSans-101"/>
     <use x="1782.248047" xlink:href="#DejaVuSans-100"/>
     <use x="1845.724609" xlink:href="#DejaVuSans-103"/>
     <use x="1909.201172" xlink:href="#DejaVuSans-101"/>
    </g>
   </g>
   <g id="legend_1">
    <g id="patch_7">
     <path d="M 360.884625 67.059 
L 455.793625 67.059 
Q 457.553625 67.059 457.553625 65.299 
L 457.553625 26.6545 
Q 457.553625 24.8945 455.793625 24.8945 
L 360.884625 24.8945 
Q 359.124625 24.8945 359.124625 26.6545 
L 359.124625 65.299 
Q 359.124625 67.059 360.884625 67.059 
z
" style="fill:#ffffff;opacity:0.8;stroke:#cccccc;stroke-linejoin:miter;stroke-width:0.8;"/>
    </g>
    <g id="text_19">
     <!-- Rural Classification -->
     <g style="fill:#262626;" transform="translate(362.644625 35.709)scale(0.096 -0.096)">
      <defs>
       <path d="M 37.109375 75.984375 
L 37.109375 68.5 
L 28.515625 68.5 
Q 23.6875 68.5 21.796875 66.546875 
Q 19.921875 64.59375 19.921875 59.515625 
L 19.921875 54.6875 
L 34.71875 54.6875 
L 34.71875 47.703125 
L 19.921875 47.703125 
L 19.921875 0 
L 10.890625 0 
L 10.890625 47.703125 
L 2.296875 47.703125 
L 2.296875 54.6875 
L 10.890625 54.6875 
L 10.890625 58.5 
Q 10.890625 67.625 15.140625 71.796875 
Q 19.390625 75.984375 28.609375 75.984375 
z
" id="DejaVuSans-102"/>
      </defs>
      <use xlink:href="#DejaVuSans-82"/>
      <use x="64.982422" xlink:href="#DejaVuSans-117"/>
      <use x="128.361328" xlink:href="#DejaVuSans-114"/>
      <use x="169.474609" xlink:href="#DejaVuSans-97"/>
      <use x="230.753906" xlink:href="#DejaVuSans-108"/>
      <use x="258.537109" xlink:href="#DejaVuSans-32"/>
      <use x="290.324219" xlink:href="#DejaVuSans-67"/>
      <use x="360.148438" xlink:href="#DejaVuSans-108"/>
      <use x="387.931641" xlink:href="#DejaVuSans-97"/>
      <use x="449.210938" xlink:href="#DejaVuSans-115"/>
      <use x="501.310547" xlink:href="#DejaVuSans-115"/>
      <use x="553.410156" xlink:href="#DejaVuSans-105"/>
      <use x="581.193359" xlink:href="#DejaVuSans-102"/>
      <use x="616.398438" xlink:href="#DejaVuSans-105"/>
      <use x="644.181641" xlink:href="#DejaVuSans-99"/>
      <use x="699.162109" xlink:href="#DejaVuSans-97"/>
      <use x="760.441406" xlink:href="#DejaVuSans-116"/>
      <use x="799.650391" xlink:href="#DejaVuSans-105"/>
      <use x="827.433594" xlink:href="#DejaVuSans-111"/>
      <use x="888.615234" xlink:href="#DejaVuSans-110"/>
     </g>
    </g>
    <g id="patch_8">
     <path d="M 374.283812 48.792125 
L 391.883812 48.792125 
L 391.883812 42.632125 
L 374.283812 42.632125 
z
" style="fill:#6e5c99;stroke:#494949;stroke-linejoin:miter;stroke-width:0.6;"/>
    </g>
    <g id="text_20">
     <!-- Rural -->
     <g style="fill:#262626;" transform="translate(398.923812 48.792125)scale(0.088 -0.088)">
      <use xlink:href="#DejaVuSans-82"/>
      <use x="64.982422" xlink:href="#DejaVuSans-117"/>
      <use x="128.361328" xlink:href="#DejaVuSans-114"/>
      <use x="169.474609" xlink:href="#DejaVuSans-97"/>
      <use x="230.753906" xlink:href="#DejaVuSans-108"/>
     </g>
    </g>
    <g id="patch_9">
     <path d="M 374.283812 61.708875 
L 391.883812 61.708875 
L 391.883812 55.548875 
L 374.283812 55.548875 
z
" style="fill:#a3a0c3;stroke:#494949;stroke-linejoin:miter;stroke-width:0.6;"/>
    </g>
    <g id="text_21">
     <!-- Non-Rural -->
     <g style="fill:#262626;" transform="translate(398.923812 61.708875)scale(0.088 -0.088)">
      <defs>
       <path d="M 4.890625 31.390625 
L 31.203125 31.390625 
L 31.203125 23.390625 
L 4.890625 23.390625 
z
" id="DejaVuSans-45"/>
      </defs>
      <use xlink:href="#DejaVuSans-78"/>
      <use x="74.804688" xlink:href="#DejaVuSans-111"/>
      <use x="135.986328" xlink:href="#DejaVuSans-110"/>
      <use x="199.365234" xlink:href="#DejaVuSans-45"/>
      <use x="235.449219" xlink:href="#DejaVuSans-82"/>
      <use x="300.431641" xlink:href="#DejaVuSans-117"/>
      <use x="363.810547" xlink:href="#DejaVuSans-114"/>
      <use x="404.923828" xlink:href="#DejaVuSans-97"/>
      <use x="466.203125" xlink:href="#DejaVuSans-108"/>
     </g>
    </g>
   </g>
  </g>
 </g>
 <defs>
  <clipPath id="p0247058d5b">
   <rect height="321.964" width="311.339" x="150.614625" y="20.4945"/>
  </clipPath>
 </defs>
</svg>
