<?xml version="1.0" encoding="utf-8" standalone="no"?>
<!DOCTYPE svg PUBLIC "-//W3C//DTD SVG 1.1//EN"
  "http://www.w3.org/Graphics/SVG/1.1/DTD/svg11.dtd">
<!-- Created with matplotlib (https://matplotlib.org/) -->
<svg height="363.514219pt" version="1.1" viewBox="0 0 363.369375 363.514219" width="363.369375pt" xmlns="http://www.w3.org/2000/svg" xmlns:xlink="http://www.w3.org/1999/xlink">
 <metadata>
  <rdf:RDF xmlns:cc="http://creativecommons.org/ns#" xmlns:dc="http://purl.org/dc/elements/1.1/" xmlns:rdf="http://www.w3.org/1999/02/22-rdf-syntax-ns#">
   <cc:Work>
    <dc:type rdf:resource="http://purl.org/dc/dcmitype/StillImage"/>
    <dc:date>2021-03-10T10:49:44.769074</dc:date>
    <dc:format>image/svg+xml</dc:format>
    <dc:creator>
     <cc:Agent>
      <dc:title>Matplotlib v3.3.2, https://matplotlib.org/</dc:title>
     </cc:Agent>
    </dc:creator>
   </cc:Work>
  </rdf:RDF>
 </metadata>
 <defs>
  <style type="text/css">*{stroke-linecap:butt;stroke-linejoin:round;}</style>
 </defs>
 <g id="figure_1">
  <g id="patch_1">
   <path d="M 0 363.514219 
L 363.369375 363.514219 
L 363.369375 0 
L 0 0 
z
" style="fill:#ffffff;"/>
  </g>
  <g id="axes_1">
   <g id="patch_2">
    <path d="M 46.964375 321.78 
L 356.169375 321.78 
L 356.169375 7.2 
L 46.964375 7.2 
z
" style="fill:#ffffff;"/>
   </g>
   <g id="matplotlib.axis_1">
    <g id="xtick_1">
     <g id="line2d_1">
      <defs>
       <path d="M 0 0 
L 0 6 
" id="m8c21629e32" style="stroke:#262626;stroke-width:1.25;"/>
      </defs>
      <g>
       <use style="fill:#262626;stroke:#262626;stroke-width:1.25;" x="72.731458" xlink:href="#m8c21629e32" y="321.78"/>
      </g>
     </g>
     <g id="text_1">
      <!-- 2 -->
      <g style="fill:#262626;" transform="translate(69.672943 339.153594)scale(0.11 -0.11)">
       <defs>
        <path d="M 50.34375 8.453125 
L 50.34375 0 
L 3.03125 0 
Q 2.9375 3.171875 4.046875 6.109375 
Q 5.859375 10.9375 9.828125 15.625 
Q 13.8125 20.3125 21.34375 26.46875 
Q 33.015625 36.03125 37.109375 41.625 
Q 41.21875 47.21875 41.21875 52.203125 
Q 41.21875 57.421875 37.46875 61 
Q 33.734375 64.59375 27.734375 64.59375 
Q 21.390625 64.59375 17.578125 60.78125 
Q 13.765625 56.984375 13.71875 50.25 
L 4.6875 51.171875 
Q 5.609375 61.28125 11.65625 66.578125 
Q 17.71875 71.875 27.9375 71.875 
Q 38.234375 71.875 44.234375 66.15625 
Q 50.25 60.453125 50.25 52 
Q 50.25 47.703125 48.484375 43.546875 
Q 46.734375 39.40625 42.65625 34.8125 
Q 38.578125 30.21875 29.109375 22.21875 
Q 21.1875 15.578125 18.9375 13.203125 
Q 16.703125 10.84375 15.234375 8.453125 
z
" id="ArialMT-50"/>
       </defs>
       <use xlink:href="#ArialMT-50"/>
      </g>
     </g>
    </g>
    <g id="xtick_2">
     <g id="line2d_2">
      <g>
       <use style="fill:#262626;stroke:#262626;stroke-width:1.25;" x="124.265625" xlink:href="#m8c21629e32" y="321.78"/>
      </g>
     </g>
     <g id="text_2">
      <!-- 4 -->
      <g style="fill:#262626;" transform="translate(121.207109 339.153594)scale(0.11 -0.11)">
       <defs>
        <path d="M 32.328125 0 
L 32.328125 17.140625 
L 1.265625 17.140625 
L 1.265625 25.203125 
L 33.9375 71.578125 
L 41.109375 71.578125 
L 41.109375 25.203125 
L 50.78125 25.203125 
L 50.78125 17.140625 
L 41.109375 17.140625 
L 41.109375 0 
z
M 32.328125 25.203125 
L 32.328125 57.46875 
L 9.90625 25.203125 
z
" id="ArialMT-52"/>
       </defs>
       <use xlink:href="#ArialMT-52"/>
      </g>
     </g>
    </g>
    <g id="xtick_3">
     <g id="line2d_3">
      <g>
       <use style="fill:#262626;stroke:#262626;stroke-width:1.25;" x="175.799792" xlink:href="#m8c21629e32" y="321.78"/>
      </g>
     </g>
     <g id="text_3">
      <!-- 6 -->
      <g style="fill:#262626;" transform="translate(172.741276 339.153594)scale(0.11 -0.11)">
       <defs>
        <path d="M 49.75 54.046875 
L 41.015625 53.375 
Q 39.84375 58.546875 37.703125 60.890625 
Q 34.125 64.65625 28.90625 64.65625 
Q 24.703125 64.65625 21.53125 62.3125 
Q 17.390625 59.28125 14.984375 53.46875 
Q 12.59375 47.65625 12.5 36.921875 
Q 15.671875 41.75 20.265625 44.09375 
Q 24.859375 46.4375 29.890625 46.4375 
Q 38.671875 46.4375 44.84375 39.96875 
Q 51.03125 33.5 51.03125 23.25 
Q 51.03125 16.5 48.125 10.71875 
Q 45.21875 4.9375 40.140625 1.859375 
Q 35.0625 -1.21875 28.609375 -1.21875 
Q 17.625 -1.21875 10.6875 6.859375 
Q 3.765625 14.9375 3.765625 33.5 
Q 3.765625 54.25 11.421875 63.671875 
Q 18.109375 71.875 29.4375 71.875 
Q 37.890625 71.875 43.28125 67.140625 
Q 48.6875 62.40625 49.75 54.046875 
z
M 13.875 23.1875 
Q 13.875 18.65625 15.796875 14.5 
Q 17.71875 10.359375 21.1875 8.171875 
Q 24.65625 6 28.46875 6 
Q 34.03125 6 38.03125 10.484375 
Q 42.046875 14.984375 42.046875 22.703125 
Q 42.046875 30.125 38.078125 34.390625 
Q 34.125 38.671875 28.125 38.671875 
Q 22.171875 38.671875 18.015625 34.390625 
Q 13.875 30.125 13.875 23.1875 
z
" id="ArialMT-54"/>
       </defs>
       <use xlink:href="#ArialMT-54"/>
      </g>
     </g>
    </g>
    <g id="xtick_4">
     <g id="line2d_4">
      <g>
       <use style="fill:#262626;stroke:#262626;stroke-width:1.25;" x="227.333958" xlink:href="#m8c21629e32" y="321.78"/>
      </g>
     </g>
     <g id="text_4">
      <!-- 8 -->
      <g style="fill:#262626;" transform="translate(224.275443 339.153594)scale(0.11 -0.11)">
       <defs>
        <path d="M 17.671875 38.8125 
Q 12.203125 40.828125 9.5625 44.53125 
Q 6.9375 48.25 6.9375 53.421875 
Q 6.9375 61.234375 12.546875 66.546875 
Q 18.171875 71.875 27.484375 71.875 
Q 36.859375 71.875 42.578125 66.421875 
Q 48.296875 60.984375 48.296875 53.171875 
Q 48.296875 48.1875 45.671875 44.5 
Q 43.0625 40.828125 37.75 38.8125 
Q 44.34375 36.671875 47.78125 31.875 
Q 51.21875 27.09375 51.21875 20.453125 
Q 51.21875 11.28125 44.71875 5.03125 
Q 38.234375 -1.21875 27.640625 -1.21875 
Q 17.046875 -1.21875 10.546875 5.046875 
Q 4.046875 11.328125 4.046875 20.703125 
Q 4.046875 27.6875 7.59375 32.390625 
Q 11.140625 37.109375 17.671875 38.8125 
z
M 15.921875 53.71875 
Q 15.921875 48.640625 19.1875 45.40625 
Q 22.46875 42.1875 27.6875 42.1875 
Q 32.765625 42.1875 36.015625 45.375 
Q 39.265625 48.578125 39.265625 53.21875 
Q 39.265625 58.0625 35.90625 61.359375 
Q 32.5625 64.65625 27.59375 64.65625 
Q 22.5625 64.65625 19.234375 61.421875 
Q 15.921875 58.203125 15.921875 53.71875 
z
M 13.09375 20.65625 
Q 13.09375 16.890625 14.875 13.375 
Q 16.65625 9.859375 20.171875 7.921875 
Q 23.6875 6 27.734375 6 
Q 34.03125 6 38.125 10.046875 
Q 42.234375 14.109375 42.234375 20.359375 
Q 42.234375 26.703125 38.015625 30.859375 
Q 33.796875 35.015625 27.4375 35.015625 
Q 21.234375 35.015625 17.15625 30.90625 
Q 13.09375 26.8125 13.09375 20.65625 
z
" id="ArialMT-56"/>
       </defs>
       <use xlink:href="#ArialMT-56"/>
      </g>
     </g>
    </g>
    <g id="xtick_5">
     <g id="line2d_5">
      <g>
       <use style="fill:#262626;stroke:#262626;stroke-width:1.25;" x="278.868125" xlink:href="#m8c21629e32" y="321.78"/>
      </g>
     </g>
     <g id="text_5">
      <!-- 10 -->
      <g style="fill:#262626;" transform="translate(272.751094 339.153594)scale(0.11 -0.11)">
       <defs>
        <path d="M 37.25 0 
L 28.46875 0 
L 28.46875 56 
Q 25.296875 52.984375 20.140625 49.953125 
Q 14.984375 46.921875 10.890625 45.40625 
L 10.890625 53.90625 
Q 18.265625 57.375 23.78125 62.296875 
Q 29.296875 67.234375 31.59375 71.875 
L 37.25 71.875 
z
" id="ArialMT-49"/>
        <path d="M 4.15625 35.296875 
Q 4.15625 48 6.765625 55.734375 
Q 9.375 63.484375 14.515625 67.671875 
Q 19.671875 71.875 27.484375 71.875 
Q 33.25 71.875 37.59375 69.546875 
Q 41.9375 67.234375 44.765625 62.859375 
Q 47.609375 58.5 49.21875 52.21875 
Q 50.828125 45.953125 50.828125 35.296875 
Q 50.828125 22.703125 48.234375 14.96875 
Q 45.65625 7.234375 40.5 3 
Q 35.359375 -1.21875 27.484375 -1.21875 
Q 17.140625 -1.21875 11.234375 6.203125 
Q 4.15625 15.140625 4.15625 35.296875 
z
M 13.1875 35.296875 
Q 13.1875 17.671875 17.3125 11.828125 
Q 21.4375 6 27.484375 6 
Q 33.546875 6 37.671875 11.859375 
Q 41.796875 17.71875 41.796875 35.296875 
Q 41.796875 52.984375 37.671875 58.78125 
Q 33.546875 64.59375 27.390625 64.59375 
Q 21.34375 64.59375 17.71875 59.46875 
Q 13.1875 52.9375 13.1875 35.296875 
z
" id="ArialMT-48"/>
       </defs>
       <use xlink:href="#ArialMT-49"/>
       <use x="55.615234" xlink:href="#ArialMT-48"/>
      </g>
     </g>
    </g>
    <g id="xtick_6">
     <g id="line2d_6">
      <g>
       <use style="fill:#262626;stroke:#262626;stroke-width:1.25;" x="330.402292" xlink:href="#m8c21629e32" y="321.78"/>
      </g>
     </g>
     <g id="text_6">
      <!-- 12 -->
      <g style="fill:#262626;" transform="translate(324.28526 339.153594)scale(0.11 -0.11)">
       <use xlink:href="#ArialMT-49"/>
       <use x="55.615234" xlink:href="#ArialMT-50"/>
      </g>
     </g>
    </g>
    <g id="text_7">
     <!-- a7a -->
     <g style="fill:#262626;" transform="translate(191.557187 353.929219)scale(0.12 -0.12)">
      <defs>
       <path d="M 40.4375 6.390625 
Q 35.546875 2.25 31.03125 0.53125 
Q 26.515625 -1.171875 21.34375 -1.171875 
Q 12.796875 -1.171875 8.203125 3 
Q 3.609375 7.171875 3.609375 13.671875 
Q 3.609375 17.484375 5.34375 20.625 
Q 7.078125 23.78125 9.890625 25.6875 
Q 12.703125 27.59375 16.21875 28.5625 
Q 18.796875 29.25 24.03125 29.890625 
Q 34.671875 31.15625 39.703125 32.90625 
Q 39.75 34.71875 39.75 35.203125 
Q 39.75 40.578125 37.25 42.78125 
Q 33.890625 45.75 27.25 45.75 
Q 21.046875 45.75 18.09375 43.578125 
Q 15.140625 41.40625 13.71875 35.890625 
L 5.125 37.0625 
Q 6.296875 42.578125 8.984375 45.96875 
Q 11.671875 49.359375 16.75 51.1875 
Q 21.828125 53.03125 28.515625 53.03125 
Q 35.15625 53.03125 39.296875 51.46875 
Q 43.453125 49.90625 45.40625 47.53125 
Q 47.359375 45.171875 48.140625 41.546875 
Q 48.578125 39.3125 48.578125 33.453125 
L 48.578125 21.734375 
Q 48.578125 9.46875 49.140625 6.21875 
Q 49.703125 2.984375 51.375 0 
L 42.1875 0 
Q 40.828125 2.734375 40.4375 6.390625 
z
M 39.703125 26.03125 
Q 34.90625 24.078125 25.34375 22.703125 
Q 19.921875 21.921875 17.671875 20.9375 
Q 15.4375 19.96875 14.203125 18.09375 
Q 12.984375 16.21875 12.984375 13.921875 
Q 12.984375 10.40625 15.640625 8.0625 
Q 18.3125 5.71875 23.4375 5.71875 
Q 28.515625 5.71875 32.46875 7.9375 
Q 36.421875 10.15625 38.28125 14.015625 
Q 39.703125 17 39.703125 22.796875 
z
" id="ArialMT-97"/>
       <path d="M 4.734375 62.203125 
L 4.734375 70.65625 
L 51.078125 70.65625 
L 51.078125 63.8125 
Q 44.234375 56.546875 37.515625 44.484375 
Q 30.8125 32.421875 27.15625 19.671875 
Q 24.515625 10.6875 23.78125 0 
L 14.75 0 
Q 14.890625 8.453125 18.0625 20.40625 
Q 21.234375 32.375 27.171875 43.484375 
Q 33.109375 54.59375 39.796875 62.203125 
z
" id="ArialMT-55"/>
      </defs>
      <use xlink:href="#ArialMT-97"/>
      <use x="55.615234" xlink:href="#ArialMT-55"/>
      <use x="111.230469" xlink:href="#ArialMT-97"/>
     </g>
    </g>
   </g>
   <g id="matplotlib.axis_2">
    <g id="ytick_1">
     <g id="line2d_7">
      <defs>
       <path d="M 0 0 
L -6 0 
" id="m0a36922a2f" style="stroke:#262626;stroke-width:1.25;"/>
      </defs>
      <g>
       <use style="fill:#262626;stroke:#262626;stroke-width:1.25;" x="46.964375" xlink:href="#m0a36922a2f" y="301.761273"/>
      </g>
     </g>
     <g id="text_8">
      <!-- 1.3 -->
      <g style="fill:#262626;" transform="translate(22.174375 305.69807)scale(0.11 -0.11)">
       <defs>
        <path d="M 9.078125 0 
L 9.078125 10.015625 
L 19.09375 10.015625 
L 19.09375 0 
z
" id="ArialMT-46"/>
        <path d="M 4.203125 18.890625 
L 12.984375 20.0625 
Q 14.5 12.59375 18.140625 9.296875 
Q 21.78125 6 27 6 
Q 33.203125 6 37.46875 10.296875 
Q 41.75 14.59375 41.75 20.953125 
Q 41.75 27 37.796875 30.921875 
Q 33.84375 34.859375 27.734375 34.859375 
Q 25.25 34.859375 21.53125 33.890625 
L 22.515625 41.609375 
Q 23.390625 41.5 23.921875 41.5 
Q 29.546875 41.5 34.03125 44.421875 
Q 38.53125 47.359375 38.53125 53.46875 
Q 38.53125 58.296875 35.25 61.46875 
Q 31.984375 64.65625 26.8125 64.65625 
Q 21.6875 64.65625 18.265625 61.421875 
Q 14.84375 58.203125 13.875 51.765625 
L 5.078125 53.328125 
Q 6.6875 62.15625 12.390625 67.015625 
Q 18.109375 71.875 26.609375 71.875 
Q 32.46875 71.875 37.390625 69.359375 
Q 42.328125 66.84375 44.9375 62.5 
Q 47.5625 58.15625 47.5625 53.265625 
Q 47.5625 48.640625 45.0625 44.828125 
Q 42.578125 41.015625 37.703125 38.765625 
Q 44.046875 37.3125 47.5625 32.6875 
Q 51.078125 28.078125 51.078125 21.140625 
Q 51.078125 11.765625 44.234375 5.25 
Q 37.40625 -1.265625 26.953125 -1.265625 
Q 17.53125 -1.265625 11.296875 4.34375 
Q 5.078125 9.96875 4.203125 18.890625 
z
" id="ArialMT-51"/>
       </defs>
       <use xlink:href="#ArialMT-49"/>
       <use x="55.615234" xlink:href="#ArialMT-46"/>
       <use x="83.398438" xlink:href="#ArialMT-51"/>
      </g>
     </g>
    </g>
    <g id="ytick_2">
     <g id="line2d_8">
      <g>
       <use style="fill:#262626;stroke:#262626;stroke-width:1.25;" x="46.964375" xlink:href="#m0a36922a2f" y="261.723818"/>
      </g>
     </g>
     <g id="text_9">
      <!-- 1.4 -->
      <g style="fill:#262626;" transform="translate(22.174375 265.660615)scale(0.11 -0.11)">
       <use xlink:href="#ArialMT-49"/>
       <use x="55.615234" xlink:href="#ArialMT-46"/>
       <use x="83.398438" xlink:href="#ArialMT-52"/>
      </g>
     </g>
    </g>
    <g id="ytick_3">
     <g id="line2d_9">
      <g>
       <use style="fill:#262626;stroke:#262626;stroke-width:1.25;" x="46.964375" xlink:href="#m0a36922a2f" y="221.686364"/>
      </g>
     </g>
     <g id="text_10">
      <!-- 1.5 -->
      <g style="fill:#262626;" transform="translate(22.174375 225.623161)scale(0.11 -0.11)">
       <defs>
        <path d="M 4.15625 18.75 
L 13.375 19.53125 
Q 14.40625 12.796875 18.140625 9.390625 
Q 21.875 6 27.15625 6 
Q 33.5 6 37.890625 10.78125 
Q 42.28125 15.578125 42.28125 23.484375 
Q 42.28125 31 38.0625 35.34375 
Q 33.84375 39.703125 27 39.703125 
Q 22.75 39.703125 19.328125 37.765625 
Q 15.921875 35.84375 13.96875 32.765625 
L 5.71875 33.84375 
L 12.640625 70.609375 
L 48.25 70.609375 
L 48.25 62.203125 
L 19.671875 62.203125 
L 15.828125 42.96875 
Q 22.265625 47.46875 29.34375 47.46875 
Q 38.71875 47.46875 45.15625 40.96875 
Q 51.609375 34.46875 51.609375 24.265625 
Q 51.609375 14.546875 45.953125 7.46875 
Q 39.0625 -1.21875 27.15625 -1.21875 
Q 17.390625 -1.21875 11.203125 4.25 
Q 5.03125 9.71875 4.15625 18.75 
z
" id="ArialMT-53"/>
       </defs>
       <use xlink:href="#ArialMT-49"/>
       <use x="55.615234" xlink:href="#ArialMT-46"/>
       <use x="83.398438" xlink:href="#ArialMT-53"/>
      </g>
     </g>
    </g>
    <g id="ytick_4">
     <g id="line2d_10">
      <g>
       <use style="fill:#262626;stroke:#262626;stroke-width:1.25;" x="46.964375" xlink:href="#m0a36922a2f" y="181.648909"/>
      </g>
     </g>
     <g id="text_11">
      <!-- 1.6 -->
      <g style="fill:#262626;" transform="translate(22.174375 185.585706)scale(0.11 -0.11)">
       <use xlink:href="#ArialMT-49"/>
       <use x="55.615234" xlink:href="#ArialMT-46"/>
       <use x="83.398438" xlink:href="#ArialMT-54"/>
      </g>
     </g>
    </g>
    <g id="ytick_5">
     <g id="line2d_11">
      <g>
       <use style="fill:#262626;stroke:#262626;stroke-width:1.25;" x="46.964375" xlink:href="#m0a36922a2f" y="141.611455"/>
      </g>
     </g>
     <g id="text_12">
      <!-- 1.7 -->
      <g style="fill:#262626;" transform="translate(22.174375 145.548251)scale(0.11 -0.11)">
       <use xlink:href="#ArialMT-49"/>
       <use x="55.615234" xlink:href="#ArialMT-46"/>
       <use x="83.398438" xlink:href="#ArialMT-55"/>
      </g>
     </g>
    </g>
    <g id="ytick_6">
     <g id="line2d_12">
      <g>
       <use style="fill:#262626;stroke:#262626;stroke-width:1.25;" x="46.964375" xlink:href="#m0a36922a2f" y="101.574"/>
      </g>
     </g>
     <g id="text_13">
      <!-- 1.8 -->
      <g style="fill:#262626;" transform="translate(22.174375 105.510797)scale(0.11 -0.11)">
       <use xlink:href="#ArialMT-49"/>
       <use x="55.615234" xlink:href="#ArialMT-46"/>
       <use x="83.398438" xlink:href="#ArialMT-56"/>
      </g>
     </g>
    </g>
    <g id="ytick_7">
     <g id="line2d_13">
      <g>
       <use style="fill:#262626;stroke:#262626;stroke-width:1.25;" x="46.964375" xlink:href="#m0a36922a2f" y="61.536545"/>
      </g>
     </g>
     <g id="text_14">
      <!-- 1.9 -->
      <g style="fill:#262626;" transform="translate(22.174375 65.473342)scale(0.11 -0.11)">
       <defs>
        <path d="M 5.46875 16.546875 
L 13.921875 17.328125 
Q 14.984375 11.375 18.015625 8.6875 
Q 21.046875 6 25.78125 6 
Q 29.828125 6 32.875 7.859375 
Q 35.9375 9.71875 37.890625 12.8125 
Q 39.84375 15.921875 41.15625 21.1875 
Q 42.484375 26.46875 42.484375 31.9375 
Q 42.484375 32.515625 42.4375 33.6875 
Q 39.796875 29.5 35.234375 26.875 
Q 30.671875 24.265625 25.34375 24.265625 
Q 16.453125 24.265625 10.296875 30.703125 
Q 4.15625 37.15625 4.15625 47.703125 
Q 4.15625 58.59375 10.578125 65.234375 
Q 17 71.875 26.65625 71.875 
Q 33.640625 71.875 39.421875 68.109375 
Q 45.21875 64.359375 48.21875 57.390625 
Q 51.21875 50.4375 51.21875 37.25 
Q 51.21875 23.53125 48.234375 15.40625 
Q 45.265625 7.28125 39.375 3.03125 
Q 33.5 -1.21875 25.59375 -1.21875 
Q 17.1875 -1.21875 11.859375 3.4375 
Q 6.546875 8.109375 5.46875 16.546875 
z
M 41.453125 48.140625 
Q 41.453125 55.71875 37.421875 60.15625 
Q 33.40625 64.59375 27.734375 64.59375 
Q 21.875 64.59375 17.53125 59.8125 
Q 13.1875 55.03125 13.1875 47.40625 
Q 13.1875 40.578125 17.3125 36.296875 
Q 21.4375 32.03125 27.484375 32.03125 
Q 33.59375 32.03125 37.515625 36.296875 
Q 41.453125 40.578125 41.453125 48.140625 
z
" id="ArialMT-57"/>
       </defs>
       <use xlink:href="#ArialMT-49"/>
       <use x="55.615234" xlink:href="#ArialMT-46"/>
       <use x="83.398438" xlink:href="#ArialMT-57"/>
      </g>
     </g>
    </g>
    <g id="ytick_8">
     <g id="line2d_14">
      <g>
       <use style="fill:#262626;stroke:#262626;stroke-width:1.25;" x="46.964375" xlink:href="#m0a36922a2f" y="21.499091"/>
      </g>
     </g>
     <g id="text_15">
      <!-- 2.0 -->
      <g style="fill:#262626;" transform="translate(22.174375 25.435888)scale(0.11 -0.11)">
       <use xlink:href="#ArialMT-50"/>
       <use x="55.615234" xlink:href="#ArialMT-46"/>
       <use x="83.398438" xlink:href="#ArialMT-48"/>
      </g>
     </g>
    </g>
    <g id="text_16">
     <!-- l2409 -->
     <g style="fill:#262626;" transform="translate(15.789375 179.169375)rotate(-90)scale(0.12 -0.12)">
      <defs>
       <path d="M 6.390625 0 
L 6.390625 71.578125 
L 15.1875 71.578125 
L 15.1875 0 
z
" id="ArialMT-108"/>
      </defs>
      <use xlink:href="#ArialMT-108"/>
      <use x="22.216797" xlink:href="#ArialMT-50"/>
      <use x="77.832031" xlink:href="#ArialMT-52"/>
      <use x="133.447266" xlink:href="#ArialMT-48"/>
      <use x="189.0625" xlink:href="#ArialMT-57"/>
     </g>
    </g>
   </g>
   <g id="PathCollection_1">
    <defs>
     <path d="M 0 3.535534 
C 0.937635 3.535534 1.836992 3.163008 2.5 2.5 
C 3.163008 1.836992 3.535534 0.937635 3.535534 0 
C 3.535534 -0.937635 3.163008 -1.836992 2.5 -2.5 
C 1.836992 -3.163008 0.937635 -3.535534 0 -3.535534 
C -0.937635 -3.535534 -1.836992 -3.163008 -2.5 -2.5 
C -3.163008 -1.836992 -3.535534 -0.937635 -3.535534 0 
C -3.535534 0.937635 -3.163008 1.836992 -2.5 2.5 
C -1.836992 3.163008 -0.937635 3.535534 0 3.535534 
z
" id="m9b3012541e" style="stroke:#4c72b0;"/>
    </defs>
    <g clip-path="url(#pb04cf6c8c0)">
     <use style="fill:#4c72b0;stroke:#4c72b0;" x="46.964375" xlink:href="#m9b3012541e" y="193.882576"/>
     <use style="fill:#4c72b0;stroke:#4c72b0;" x="72.731458" xlink:href="#m9b3012541e" y="135.891818"/>
     <use style="fill:#4c72b0;stroke:#4c72b0;" x="98.498542" xlink:href="#m9b3012541e" y="194.889642"/>
     <use style="fill:#4c72b0;stroke:#4c72b0;" x="124.265625" xlink:href="#m9b3012541e" y="161.237658"/>
     <use style="fill:#4c72b0;stroke:#4c72b0;" x="150.032708" xlink:href="#m9b3012541e" y="135.891818"/>
     <use style="fill:#4c72b0;stroke:#4c72b0;" x="175.799792" xlink:href="#m9b3012541e" y="164.752369"/>
     <use style="fill:#4c72b0;stroke:#4c72b0;" x="201.566875" xlink:href="#m9b3012541e" y="135.891818"/>
     <use style="fill:#4c72b0;stroke:#4c72b0;" x="227.333958" xlink:href="#m9b3012541e" y="175.489301"/>
     <use style="fill:#4c72b0;stroke:#4c72b0;" x="253.101042" xlink:href="#m9b3012541e" y="117.24083"/>
     <use style="fill:#4c72b0;stroke:#4c72b0;" x="278.868125" xlink:href="#m9b3012541e" y="112.149931"/>
     <use style="fill:#4c72b0;stroke:#4c72b0;" x="304.635208" xlink:href="#m9b3012541e" y="61.536545"/>
     <use style="fill:#4c72b0;stroke:#4c72b0;" x="330.402292" xlink:href="#m9b3012541e" y="93.855936"/>
     <use style="fill:#4c72b0;stroke:#4c72b0;" x="356.169375" xlink:href="#m9b3012541e" y="146.616136"/>
    </g>
   </g>
   <g id="PolyCollection_1">
    <defs>
     <path d="M 46.964375 -190.048641 
L 46.964375 -146.87568 
L 50.087658 -148.142764 
L 53.210941 -149.416179 
L 56.334223 -150.815945 
L 59.457506 -152.211239 
L 62.580789 -153.535129 
L 65.704072 -154.954835 
L 68.827355 -156.297302 
L 71.950638 -157.563218 
L 75.07392 -158.829133 
L 78.197203 -160.165358 
L 81.320486 -161.638931 
L 84.443769 -163.008883 
L 87.567052 -164.357174 
L 90.690335 -165.834647 
L 93.813617 -167.312758 
L 96.9369 -168.735571 
L 100.060183 -169.791216 
L 103.183466 -171.044429 
L 106.306749 -172.380651 
L 109.430032 -173.813555 
L 112.553314 -175.057867 
L 115.676597 -176.617906 
L 118.79988 -177.817089 
L 121.923163 -179.073394 
L 125.046446 -180.665931 
L 128.169729 -182.201524 
L 131.293011 -183.474393 
L 134.416294 -184.86285 
L 137.539577 -186.17255 
L 140.66286 -187.310404 
L 143.786143 -188.611787 
L 146.909426 -190.082087 
L 150.032708 -191.541211 
L 153.155991 -192.80951 
L 156.279274 -193.95824 
L 159.402557 -195.193094 
L 162.52584 -196.361403 
L 165.649122 -197.64275 
L 168.772405 -198.809569 
L 171.895688 -199.917236 
L 175.018971 -200.990318 
L 178.142254 -202.35131 
L 181.265537 -203.515385 
L 184.388819 -204.372678 
L 187.512102 -205.641619 
L 190.635385 -206.770303 
L 193.758668 -207.835078 
L 196.881951 -208.639793 
L 200.005234 -209.715789 
L 203.128516 -210.720444 
L 206.251799 -211.934634 
L 209.375082 -212.906847 
L 212.498365 -213.96883 
L 215.621648 -215.069011 
L 218.744931 -216.054173 
L 221.868213 -216.947421 
L 224.991496 -217.81862 
L 228.114779 -218.600759 
L 231.238062 -219.48742 
L 234.361345 -220.340877 
L 237.484628 -221.196253 
L 240.60791 -221.960137 
L 243.731193 -222.72436 
L 246.854476 -223.653566 
L 249.977759 -224.451111 
L 253.101042 -225.364741 
L 256.224324 -226.283364 
L 259.347607 -227.222932 
L 262.47089 -228.150534 
L 265.594173 -229.078614 
L 268.717456 -230.007083 
L 271.840739 -230.734279 
L 274.964021 -231.546768 
L 278.087304 -232.277182 
L 281.210587 -232.853405 
L 284.33387 -233.798653 
L 287.457153 -234.503107 
L 290.580436 -235.106883 
L 293.703718 -235.71066 
L 296.827001 -236.457646 
L 299.950284 -237.386516 
L 303.073567 -238.054467 
L 306.19685 -238.922554 
L 309.320133 -239.584496 
L 312.443415 -240.18698 
L 315.566698 -240.750726 
L 318.689981 -241.41739 
L 321.813264 -242.172729 
L 324.936547 -242.933169 
L 328.05983 -243.693609 
L 331.183112 -244.448695 
L 334.306395 -245.211482 
L 337.429678 -245.982678 
L 340.552961 -246.856063 
L 343.676244 -247.549928 
L 346.799527 -248.412279 
L 349.922809 -249.186565 
L 353.046092 -249.767605 
L 356.169375 -250.52481 
L 356.169375 -302.719491 
L 356.169375 -302.719491 
L 353.046092 -301.331923 
L 349.922809 -299.940369 
L 346.799527 -298.546171 
L 343.676244 -296.960295 
L 340.552961 -295.45666 
L 337.429678 -294.13816 
L 334.306395 -292.726711 
L 331.183112 -291.171214 
L 328.05983 -289.613977 
L 324.936547 -288.059772 
L 321.813264 -286.624648 
L 318.689981 -285.154039 
L 315.566698 -283.476084 
L 312.443415 -282.042668 
L 309.320133 -280.730422 
L 306.19685 -279.307624 
L 303.073567 -277.964194 
L 299.950284 -276.616436 
L 296.827001 -275.113544 
L 293.703718 -273.787023 
L 290.580436 -272.460501 
L 287.457153 -271.132888 
L 284.33387 -269.714536 
L 281.210587 -268.232455 
L 278.087304 -266.883939 
L 274.964021 -265.665204 
L 271.840739 -264.207847 
L 268.717456 -262.702647 
L 265.594173 -261.286868 
L 262.47089 -259.896083 
L 259.347607 -258.542686 
L 256.224324 -257.160155 
L 253.101042 -255.811666 
L 249.977759 -254.528195 
L 246.854476 -253.164212 
L 243.731193 -251.822209 
L 240.60791 -250.472754 
L 237.484628 -249.123132 
L 234.361345 -247.773244 
L 231.238062 -246.422169 
L 228.114779 -245.25038 
L 224.991496 -244.110584 
L 221.868213 -242.762242 
L 218.744931 -241.392884 
L 215.621648 -240.026637 
L 212.498365 -238.727904 
L 209.375082 -237.618152 
L 206.251799 -236.474422 
L 203.128516 -235.312136 
L 200.005234 -234.020292 
L 196.881951 -232.860392 
L 193.758668 -231.948186 
L 190.635385 -230.685261 
L 187.512102 -229.682534 
L 184.388819 -228.543963 
L 181.265537 -227.166815 
L 178.142254 -226.394857 
L 175.018971 -225.290483 
L 171.895688 -224.236735 
L 168.772405 -223.174849 
L 165.649122 -222.208197 
L 162.52584 -221.275794 
L 159.402557 -220.292295 
L 156.279274 -219.325132 
L 153.155991 -218.346925 
L 150.032708 -217.453958 
L 146.909426 -216.487162 
L 143.786143 -215.589463 
L 140.66286 -214.694141 
L 137.539577 -213.671439 
L 134.416294 -212.793033 
L 131.293011 -212.01087 
L 128.169729 -211.100079 
L 125.046446 -210.216309 
L 121.923163 -209.322251 
L 118.79988 -208.565569 
L 115.676597 -207.629198 
L 112.553314 -206.874433 
L 109.430032 -206.032916 
L 106.306749 -205.200208 
L 103.183466 -204.704439 
L 100.060183 -204.156166 
L 96.9369 -203.448819 
L 93.813617 -202.583377 
L 90.690335 -201.794204 
L 87.567052 -200.95306 
L 84.443769 -200.07879 
L 81.320486 -199.141278 
L 78.197203 -198.238754 
L 75.07392 -197.384243 
L 71.950638 -196.520559 
L 68.827355 -195.664604 
L 65.704072 -194.758212 
L 62.580789 -193.852149 
L 59.457506 -192.97974 
L 56.334223 -192.191822 
L 53.210941 -191.415264 
L 50.087658 -190.732883 
L 46.964375 -190.048641 
z
" id="m1b81aec132" style="stroke:#ffffff;stroke-opacity:0.15;"/>
    </defs>
    <g clip-path="url(#pb04cf6c8c0)">
     <use style="fill:#4c72b0;fill-opacity:0.15;stroke:#ffffff;stroke-opacity:0.15;" x="0" xlink:href="#m1b81aec132" y="363.514219"/>
    </g>
   </g>
   <g id="line2d_15">
    <path clip-path="url(#pb04cf6c8c0)" d="M 46.964375 243.929394 
L 46.964375 149.396515 
" style="fill:none;stroke:#4c72b0;stroke-linecap:round;stroke-width:2.625;"/>
   </g>
   <g id="line2d_16">
    <path clip-path="url(#pb04cf6c8c0)" d="M 72.731458 307.480909 
L 72.731458 21.499091 
" style="fill:none;stroke:#4c72b0;stroke-linecap:round;stroke-width:2.625;"/>
   </g>
   <g id="line2d_17">
    <path clip-path="url(#pb04cf6c8c0)" d="M 98.498542 229.567752 
L 98.498542 160.211532 
" style="fill:none;stroke:#4c72b0;stroke-linecap:round;stroke-width:2.625;"/>
   </g>
   <g id="line2d_18">
    <path clip-path="url(#pb04cf6c8c0)" d="M 124.265625 184.789102 
L 124.265625 139.25631 
" style="fill:none;stroke:#4c72b0;stroke-linecap:round;stroke-width:2.625;"/>
   </g>
   <g id="line2d_19">
    <path clip-path="url(#pb04cf6c8c0)" d="M 150.032708 221.686364 
L 150.032708 50.097273 
" style="fill:none;stroke:#4c72b0;stroke-linecap:round;stroke-width:2.625;"/>
   </g>
   <g id="line2d_20">
    <path clip-path="url(#pb04cf6c8c0)" d="M 175.799792 197.810817 
L 175.799792 128.020759 
" style="fill:none;stroke:#4c72b0;stroke-linecap:round;stroke-width:2.625;"/>
   </g>
   <g id="line2d_21">
    <path clip-path="url(#pb04cf6c8c0)" d="M 201.566875 185.938636 
L 201.566875 92.994545 
" style="fill:none;stroke:#4c72b0;stroke-linecap:round;stroke-width:2.625;"/>
   </g>
   <g id="line2d_22">
    <path clip-path="url(#pb04cf6c8c0)" d="M 227.333958 298.681469 
L 227.333958 83.095175 
" style="fill:none;stroke:#4c72b0;stroke-linecap:round;stroke-width:2.625;"/>
   </g>
   <g id="line2d_23">
    <path clip-path="url(#pb04cf6c8c0)" d="M 253.101042 169.463597 
L 253.101042 73.504263 
" style="fill:none;stroke:#4c72b0;stroke-linecap:round;stroke-width:2.625;"/>
   </g>
   <g id="line2d_24">
    <path clip-path="url(#pb04cf6c8c0)" d="M 278.868125 157.475352 
L 278.868125 66.824511 
" style="fill:none;stroke:#4c72b0;stroke-linecap:round;stroke-width:2.625;"/>
   </g>
   <g id="line2d_25">
    <path clip-path="url(#pb04cf6c8c0)" d="M 304.635208 101.574 
L 304.635208 21.499091 
" style="fill:none;stroke:#4c72b0;stroke-linecap:round;stroke-width:2.625;"/>
   </g>
   <g id="line2d_26">
    <path clip-path="url(#pb04cf6c8c0)" d="M 330.402292 127.622464 
L 330.402292 64.792604 
" style="fill:none;stroke:#4c72b0;stroke-linecap:round;stroke-width:2.625;"/>
   </g>
   <g id="line2d_27">
    <path clip-path="url(#pb04cf6c8c0)" d="M 356.169375 246.709773 
L 356.169375 46.5225 
" style="fill:none;stroke:#4c72b0;stroke-linecap:round;stroke-width:2.625;"/>
   </g>
   <g id="line2d_28">
    <path clip-path="url(#pb04cf6c8c0)" d="M 46.964375 197.07209 
L 50.087658 195.951995 
L 53.210941 194.831901 
L 56.334223 193.711806 
L 59.457506 192.591712 
L 62.580789 191.471617 
L 65.704072 190.351523 
L 68.827355 189.231428 
L 71.950638 188.111334 
L 75.07392 186.991239 
L 78.197203 185.871144 
L 81.320486 184.75105 
L 84.443769 183.630955 
L 87.567052 182.510861 
L 90.690335 181.390766 
L 93.813617 180.270672 
L 96.9369 179.150577 
L 100.060183 178.030482 
L 103.183466 176.910388 
L 106.306749 175.790293 
L 109.430032 174.670199 
L 112.553314 173.550104 
L 115.676597 172.43001 
L 118.79988 171.309915 
L 121.923163 170.189821 
L 125.046446 169.069726 
L 128.169729 167.949631 
L 131.293011 166.829537 
L 134.416294 165.709442 
L 137.539577 164.589348 
L 140.66286 163.469253 
L 143.786143 162.349159 
L 146.909426 161.229064 
L 150.032708 160.10897 
L 153.155991 158.988875 
L 156.279274 157.86878 
L 159.402557 156.748686 
L 162.52584 155.628591 
L 165.649122 154.508497 
L 168.772405 153.388402 
L 171.895688 152.268308 
L 175.018971 151.148213 
L 178.142254 150.028118 
L 181.265537 148.908024 
L 184.388819 147.787929 
L 187.512102 146.667835 
L 190.635385 145.54774 
L 193.758668 144.427646 
L 196.881951 143.307551 
L 200.005234 142.187457 
L 203.128516 141.067362 
L 206.251799 139.947267 
L 209.375082 138.827173 
L 212.498365 137.707078 
L 215.621648 136.586984 
L 218.744931 135.466889 
L 221.868213 134.346795 
L 224.991496 133.2267 
L 228.114779 132.106605 
L 231.238062 130.986511 
L 234.361345 129.866416 
L 237.484628 128.746322 
L 240.60791 127.626227 
L 243.731193 126.506133 
L 246.854476 125.386038 
L 249.977759 124.265944 
L 253.101042 123.145849 
L 256.224324 122.025754 
L 259.347607 120.90566 
L 262.47089 119.785565 
L 265.594173 118.665471 
L 268.717456 117.545376 
L 271.840739 116.425282 
L 274.964021 115.305187 
L 278.087304 114.185092 
L 281.210587 113.064998 
L 284.33387 111.944903 
L 287.457153 110.824809 
L 290.580436 109.704714 
L 293.703718 108.58462 
L 296.827001 107.464525 
L 299.950284 106.344431 
L 303.073567 105.224336 
L 306.19685 104.104241 
L 309.320133 102.984147 
L 312.443415 101.864052 
L 315.566698 100.743958 
L 318.689981 99.623863 
L 321.813264 98.503769 
L 324.936547 97.383674 
L 328.05983 96.26358 
L 331.183112 95.143485 
L 334.306395 94.02339 
L 337.429678 92.903296 
L 340.552961 91.783201 
L 343.676244 90.663107 
L 346.799527 89.543012 
L 349.922809 88.422918 
L 353.046092 87.302823 
L 356.169375 86.182728 
" style="fill:none;stroke:#4c72b0;stroke-linecap:round;stroke-width:2.25;"/>
   </g>
   <g id="patch_3">
    <path d="M 46.964375 321.78 
L 46.964375 7.2 
" style="fill:none;stroke:#262626;stroke-linecap:square;stroke-linejoin:miter;stroke-width:1.25;"/>
   </g>
   <g id="patch_4">
    <path d="M 46.964375 321.78 
L 356.169375 321.78 
" style="fill:none;stroke:#262626;stroke-linecap:square;stroke-linejoin:miter;stroke-width:1.25;"/>
   </g>
  </g>
 </g>
 <defs>
  <clipPath id="pb04cf6c8c0">
   <rect height="314.58" width="309.205" x="46.964375" y="7.2"/>
  </clipPath>
 </defs>
</svg>
