<?xml version="1.0" encoding="utf-8" standalone="no"?>
<!DOCTYPE svg PUBLIC "-//W3C//DTD SVG 1.1//EN"
  "http://www.w3.org/Graphics/SVG/1.1/DTD/svg11.dtd">
<!-- Created with matplotlib (https://matplotlib.org/) -->
<svg height="363.514219pt" version="1.1" viewBox="0 0 363.244375 363.514219" width="363.244375pt" xmlns="http://www.w3.org/2000/svg" xmlns:xlink="http://www.w3.org/1999/xlink">
 <metadata>
  <rdf:RDF xmlns:cc="http://creativecommons.org/ns#" xmlns:dc="http://purl.org/dc/elements/1.1/" xmlns:rdf="http://www.w3.org/1999/02/22-rdf-syntax-ns#">
   <cc:Work>
    <dc:type rdf:resource="http://purl.org/dc/dcmitype/StillImage"/>
    <dc:date>2021-03-11T18:20:11.216502</dc:date>
    <dc:format>image/svg+xml</dc:format>
    <dc:creator>
     <cc:Agent>
      <dc:title>Matplotlib v3.3.4, https://matplotlib.org/</dc:title>
     </cc:Agent>
    </dc:creator>
   </cc:Work>
  </rdf:RDF>
 </metadata>
 <defs>
  <style type="text/css">*{stroke-linecap:butt;stroke-linejoin:round;}</style>
 </defs>
 <g id="figure_1">
  <g id="patch_1">
   <path d="M 0 363.514219 
L 363.244375 363.514219 
L 363.244375 0 
L 0 0 
z
" style="fill:#ffffff;"/>
  </g>
  <g id="axes_1">
   <g id="patch_2">
    <path d="M 46.964375 321.78 
L 356.044375 321.78 
L 356.044375 7.2 
L 46.964375 7.2 
z
" style="fill:#ffffff;"/>
   </g>
   <g id="matplotlib.axis_1">
    <g id="xtick_1">
     <g id="line2d_1">
      <defs>
       <path d="M 0 0 
L 0 6 
" id="m3463b270e9" style="stroke:#262626;stroke-width:1.25;"/>
      </defs>
      <g>
       <use style="fill:#262626;stroke:#262626;stroke-width:1.25;" x="72.721042" xlink:href="#m3463b270e9" y="321.78"/>
      </g>
     </g>
     <g id="text_1">
      <!-- 2 -->
      <g style="fill:#262626;" transform="translate(69.662526 339.153594)scale(0.11 -0.11)">
       <defs>
        <path d="M 50.34375 8.453125 
L 50.34375 0 
L 3.03125 0 
Q 2.9375 3.171875 4.046875 6.109375 
Q 5.859375 10.9375 9.828125 15.625 
Q 13.8125 20.3125 21.34375 26.46875 
Q 33.015625 36.03125 37.109375 41.625 
Q 41.21875 47.21875 41.21875 52.203125 
Q 41.21875 57.421875 37.46875 61 
Q 33.734375 64.59375 27.734375 64.59375 
Q 21.390625 64.59375 17.578125 60.78125 
Q 13.765625 56.984375 13.71875 50.25 
L 4.6875 51.171875 
Q 5.609375 61.28125 11.65625 66.578125 
Q 17.71875 71.875 27.9375 71.875 
Q 38.234375 71.875 44.234375 66.15625 
Q 50.25 60.453125 50.25 52 
Q 50.25 47.703125 48.484375 43.546875 
Q 46.734375 39.40625 42.65625 34.8125 
Q 38.578125 30.21875 29.109375 22.21875 
Q 21.1875 15.578125 18.9375 13.203125 
Q 16.703125 10.84375 15.234375 8.453125 
z
" id="ArialMT-50"/>
       </defs>
       <use xlink:href="#ArialMT-50"/>
      </g>
     </g>
    </g>
    <g id="xtick_2">
     <g id="line2d_2">
      <g>
       <use style="fill:#262626;stroke:#262626;stroke-width:1.25;" x="124.234375" xlink:href="#m3463b270e9" y="321.78"/>
      </g>
     </g>
     <g id="text_2">
      <!-- 4 -->
      <g style="fill:#262626;" transform="translate(121.175859 339.153594)scale(0.11 -0.11)">
       <defs>
        <path d="M 32.328125 0 
L 32.328125 17.140625 
L 1.265625 17.140625 
L 1.265625 25.203125 
L 33.9375 71.578125 
L 41.109375 71.578125 
L 41.109375 25.203125 
L 50.78125 25.203125 
L 50.78125 17.140625 
L 41.109375 17.140625 
L 41.109375 0 
z
M 32.328125 25.203125 
L 32.328125 57.46875 
L 9.90625 25.203125 
z
" id="ArialMT-52"/>
       </defs>
       <use xlink:href="#ArialMT-52"/>
      </g>
     </g>
    </g>
    <g id="xtick_3">
     <g id="line2d_3">
      <g>
       <use style="fill:#262626;stroke:#262626;stroke-width:1.25;" x="175.747708" xlink:href="#m3463b270e9" y="321.78"/>
      </g>
     </g>
     <g id="text_3">
      <!-- 6 -->
      <g style="fill:#262626;" transform="translate(172.689193 339.153594)scale(0.11 -0.11)">
       <defs>
        <path d="M 49.75 54.046875 
L 41.015625 53.375 
Q 39.84375 58.546875 37.703125 60.890625 
Q 34.125 64.65625 28.90625 64.65625 
Q 24.703125 64.65625 21.53125 62.3125 
Q 17.390625 59.28125 14.984375 53.46875 
Q 12.59375 47.65625 12.5 36.921875 
Q 15.671875 41.75 20.265625 44.09375 
Q 24.859375 46.4375 29.890625 46.4375 
Q 38.671875 46.4375 44.84375 39.96875 
Q 51.03125 33.5 51.03125 23.25 
Q 51.03125 16.5 48.125 10.71875 
Q 45.21875 4.9375 40.140625 1.859375 
Q 35.0625 -1.21875 28.609375 -1.21875 
Q 17.625 -1.21875 10.6875 6.859375 
Q 3.765625 14.9375 3.765625 33.5 
Q 3.765625 54.25 11.421875 63.671875 
Q 18.109375 71.875 29.4375 71.875 
Q 37.890625 71.875 43.28125 67.140625 
Q 48.6875 62.40625 49.75 54.046875 
z
M 13.875 23.1875 
Q 13.875 18.65625 15.796875 14.5 
Q 17.71875 10.359375 21.1875 8.171875 
Q 24.65625 6 28.46875 6 
Q 34.03125 6 38.03125 10.484375 
Q 42.046875 14.984375 42.046875 22.703125 
Q 42.046875 30.125 38.078125 34.390625 
Q 34.125 38.671875 28.125 38.671875 
Q 22.171875 38.671875 18.015625 34.390625 
Q 13.875 30.125 13.875 23.1875 
z
" id="ArialMT-54"/>
       </defs>
       <use xlink:href="#ArialMT-54"/>
      </g>
     </g>
    </g>
    <g id="xtick_4">
     <g id="line2d_4">
      <g>
       <use style="fill:#262626;stroke:#262626;stroke-width:1.25;" x="227.261042" xlink:href="#m3463b270e9" y="321.78"/>
      </g>
     </g>
     <g id="text_4">
      <!-- 8 -->
      <g style="fill:#262626;" transform="translate(224.202526 339.153594)scale(0.11 -0.11)">
       <defs>
        <path d="M 17.671875 38.8125 
Q 12.203125 40.828125 9.5625 44.53125 
Q 6.9375 48.25 6.9375 53.421875 
Q 6.9375 61.234375 12.546875 66.546875 
Q 18.171875 71.875 27.484375 71.875 
Q 36.859375 71.875 42.578125 66.421875 
Q 48.296875 60.984375 48.296875 53.171875 
Q 48.296875 48.1875 45.671875 44.5 
Q 43.0625 40.828125 37.75 38.8125 
Q 44.34375 36.671875 47.78125 31.875 
Q 51.21875 27.09375 51.21875 20.453125 
Q 51.21875 11.28125 44.71875 5.03125 
Q 38.234375 -1.21875 27.640625 -1.21875 
Q 17.046875 -1.21875 10.546875 5.046875 
Q 4.046875 11.328125 4.046875 20.703125 
Q 4.046875 27.6875 7.59375 32.390625 
Q 11.140625 37.109375 17.671875 38.8125 
z
M 15.921875 53.71875 
Q 15.921875 48.640625 19.1875 45.40625 
Q 22.46875 42.1875 27.6875 42.1875 
Q 32.765625 42.1875 36.015625 45.375 
Q 39.265625 48.578125 39.265625 53.21875 
Q 39.265625 58.0625 35.90625 61.359375 
Q 32.5625 64.65625 27.59375 64.65625 
Q 22.5625 64.65625 19.234375 61.421875 
Q 15.921875 58.203125 15.921875 53.71875 
z
M 13.09375 20.65625 
Q 13.09375 16.890625 14.875 13.375 
Q 16.65625 9.859375 20.171875 7.921875 
Q 23.6875 6 27.734375 6 
Q 34.03125 6 38.125 10.046875 
Q 42.234375 14.109375 42.234375 20.359375 
Q 42.234375 26.703125 38.015625 30.859375 
Q 33.796875 35.015625 27.4375 35.015625 
Q 21.234375 35.015625 17.15625 30.90625 
Q 13.09375 26.8125 13.09375 20.65625 
z
" id="ArialMT-56"/>
       </defs>
       <use xlink:href="#ArialMT-56"/>
      </g>
     </g>
    </g>
    <g id="xtick_5">
     <g id="line2d_5">
      <g>
       <use style="fill:#262626;stroke:#262626;stroke-width:1.25;" x="278.774375" xlink:href="#m3463b270e9" y="321.78"/>
      </g>
     </g>
     <g id="text_5">
      <!-- 10 -->
      <g style="fill:#262626;" transform="translate(272.657344 339.153594)scale(0.11 -0.11)">
       <defs>
        <path d="M 37.25 0 
L 28.46875 0 
L 28.46875 56 
Q 25.296875 52.984375 20.140625 49.953125 
Q 14.984375 46.921875 10.890625 45.40625 
L 10.890625 53.90625 
Q 18.265625 57.375 23.78125 62.296875 
Q 29.296875 67.234375 31.59375 71.875 
L 37.25 71.875 
z
" id="ArialMT-49"/>
        <path d="M 4.15625 35.296875 
Q 4.15625 48 6.765625 55.734375 
Q 9.375 63.484375 14.515625 67.671875 
Q 19.671875 71.875 27.484375 71.875 
Q 33.25 71.875 37.59375 69.546875 
Q 41.9375 67.234375 44.765625 62.859375 
Q 47.609375 58.5 49.21875 52.21875 
Q 50.828125 45.953125 50.828125 35.296875 
Q 50.828125 22.703125 48.234375 14.96875 
Q 45.65625 7.234375 40.5 3 
Q 35.359375 -1.21875 27.484375 -1.21875 
Q 17.140625 -1.21875 11.234375 6.203125 
Q 4.15625 15.140625 4.15625 35.296875 
z
M 13.1875 35.296875 
Q 13.1875 17.671875 17.3125 11.828125 
Q 21.4375 6 27.484375 6 
Q 33.546875 6 37.671875 11.859375 
Q 41.796875 17.71875 41.796875 35.296875 
Q 41.796875 52.984375 37.671875 58.78125 
Q 33.546875 64.59375 27.390625 64.59375 
Q 21.34375 64.59375 17.71875 59.46875 
Q 13.1875 52.9375 13.1875 35.296875 
z
" id="ArialMT-48"/>
       </defs>
       <use xlink:href="#ArialMT-49"/>
       <use x="55.615234" xlink:href="#ArialMT-48"/>
      </g>
     </g>
    </g>
    <g id="xtick_6">
     <g id="line2d_6">
      <g>
       <use style="fill:#262626;stroke:#262626;stroke-width:1.25;" x="330.287708" xlink:href="#m3463b270e9" y="321.78"/>
      </g>
     </g>
     <g id="text_6">
      <!-- 12 -->
      <g style="fill:#262626;" transform="translate(324.170677 339.153594)scale(0.11 -0.11)">
       <use xlink:href="#ArialMT-49"/>
       <use x="55.615234" xlink:href="#ArialMT-50"/>
      </g>
     </g>
    </g>
    <g id="text_7">
     <!-- a7a -->
     <g style="fill:#262626;" transform="translate(191.494687 353.929219)scale(0.12 -0.12)">
      <defs>
       <path d="M 40.4375 6.390625 
Q 35.546875 2.25 31.03125 0.53125 
Q 26.515625 -1.171875 21.34375 -1.171875 
Q 12.796875 -1.171875 8.203125 3 
Q 3.609375 7.171875 3.609375 13.671875 
Q 3.609375 17.484375 5.34375 20.625 
Q 7.078125 23.78125 9.890625 25.6875 
Q 12.703125 27.59375 16.21875 28.5625 
Q 18.796875 29.25 24.03125 29.890625 
Q 34.671875 31.15625 39.703125 32.90625 
Q 39.75 34.71875 39.75 35.203125 
Q 39.75 40.578125 37.25 42.78125 
Q 33.890625 45.75 27.25 45.75 
Q 21.046875 45.75 18.09375 43.578125 
Q 15.140625 41.40625 13.71875 35.890625 
L 5.125 37.0625 
Q 6.296875 42.578125 8.984375 45.96875 
Q 11.671875 49.359375 16.75 51.1875 
Q 21.828125 53.03125 28.515625 53.03125 
Q 35.15625 53.03125 39.296875 51.46875 
Q 43.453125 49.90625 45.40625 47.53125 
Q 47.359375 45.171875 48.140625 41.546875 
Q 48.578125 39.3125 48.578125 33.453125 
L 48.578125 21.734375 
Q 48.578125 9.46875 49.140625 6.21875 
Q 49.703125 2.984375 51.375 0 
L 42.1875 0 
Q 40.828125 2.734375 40.4375 6.390625 
z
M 39.703125 26.03125 
Q 34.90625 24.078125 25.34375 22.703125 
Q 19.921875 21.921875 17.671875 20.9375 
Q 15.4375 19.96875 14.203125 18.09375 
Q 12.984375 16.21875 12.984375 13.921875 
Q 12.984375 10.40625 15.640625 8.0625 
Q 18.3125 5.71875 23.4375 5.71875 
Q 28.515625 5.71875 32.46875 7.9375 
Q 36.421875 10.15625 38.28125 14.015625 
Q 39.703125 17 39.703125 22.796875 
z
" id="ArialMT-97"/>
       <path d="M 4.734375 62.203125 
L 4.734375 70.65625 
L 51.078125 70.65625 
L 51.078125 63.8125 
Q 44.234375 56.546875 37.515625 44.484375 
Q 30.8125 32.421875 27.15625 19.671875 
Q 24.515625 10.6875 23.78125 0 
L 14.75 0 
Q 14.890625 8.453125 18.0625 20.40625 
Q 21.234375 32.375 27.171875 43.484375 
Q 33.109375 54.59375 39.796875 62.203125 
z
" id="ArialMT-55"/>
      </defs>
      <use xlink:href="#ArialMT-97"/>
      <use x="55.615234" xlink:href="#ArialMT-55"/>
      <use x="111.230469" xlink:href="#ArialMT-97"/>
     </g>
    </g>
   </g>
   <g id="matplotlib.axis_2">
    <g id="ytick_1">
     <g id="line2d_7">
      <defs>
       <path d="M 0 0 
L -6 0 
" id="m81f571a1dd" style="stroke:#262626;stroke-width:1.25;"/>
      </defs>
      <g>
       <use style="fill:#262626;stroke:#262626;stroke-width:1.25;" x="46.964375" xlink:href="#m81f571a1dd" y="300.331364"/>
      </g>
     </g>
     <g id="text_8">
      <!-- 1.4 -->
      <g style="fill:#262626;" transform="translate(22.174375 304.268161)scale(0.11 -0.11)">
       <defs>
        <path d="M 9.078125 0 
L 9.078125 10.015625 
L 19.09375 10.015625 
L 19.09375 0 
z
" id="ArialMT-46"/>
       </defs>
       <use xlink:href="#ArialMT-49"/>
       <use x="55.615234" xlink:href="#ArialMT-46"/>
       <use x="83.398438" xlink:href="#ArialMT-52"/>
      </g>
     </g>
    </g>
    <g id="ytick_2">
     <g id="line2d_8">
      <g>
       <use style="fill:#262626;stroke:#262626;stroke-width:1.25;" x="46.964375" xlink:href="#m81f571a1dd" y="253.859318"/>
      </g>
     </g>
     <g id="text_9">
      <!-- 1.5 -->
      <g style="fill:#262626;" transform="translate(22.174375 257.796115)scale(0.11 -0.11)">
       <defs>
        <path d="M 4.15625 18.75 
L 13.375 19.53125 
Q 14.40625 12.796875 18.140625 9.390625 
Q 21.875 6 27.15625 6 
Q 33.5 6 37.890625 10.78125 
Q 42.28125 15.578125 42.28125 23.484375 
Q 42.28125 31 38.0625 35.34375 
Q 33.84375 39.703125 27 39.703125 
Q 22.75 39.703125 19.328125 37.765625 
Q 15.921875 35.84375 13.96875 32.765625 
L 5.71875 33.84375 
L 12.640625 70.609375 
L 48.25 70.609375 
L 48.25 62.203125 
L 19.671875 62.203125 
L 15.828125 42.96875 
Q 22.265625 47.46875 29.34375 47.46875 
Q 38.71875 47.46875 45.15625 40.96875 
Q 51.609375 34.46875 51.609375 24.265625 
Q 51.609375 14.546875 45.953125 7.46875 
Q 39.0625 -1.21875 27.15625 -1.21875 
Q 17.390625 -1.21875 11.203125 4.25 
Q 5.03125 9.71875 4.15625 18.75 
z
" id="ArialMT-53"/>
       </defs>
       <use xlink:href="#ArialMT-49"/>
       <use x="55.615234" xlink:href="#ArialMT-46"/>
       <use x="83.398438" xlink:href="#ArialMT-53"/>
      </g>
     </g>
    </g>
    <g id="ytick_3">
     <g id="line2d_9">
      <g>
       <use style="fill:#262626;stroke:#262626;stroke-width:1.25;" x="46.964375" xlink:href="#m81f571a1dd" y="207.387273"/>
      </g>
     </g>
     <g id="text_10">
      <!-- 1.6 -->
      <g style="fill:#262626;" transform="translate(22.174375 211.32407)scale(0.11 -0.11)">
       <use xlink:href="#ArialMT-49"/>
       <use x="55.615234" xlink:href="#ArialMT-46"/>
       <use x="83.398438" xlink:href="#ArialMT-54"/>
      </g>
     </g>
    </g>
    <g id="ytick_4">
     <g id="line2d_10">
      <g>
       <use style="fill:#262626;stroke:#262626;stroke-width:1.25;" x="46.964375" xlink:href="#m81f571a1dd" y="160.915227"/>
      </g>
     </g>
     <g id="text_11">
      <!-- 1.7 -->
      <g style="fill:#262626;" transform="translate(22.174375 164.852024)scale(0.11 -0.11)">
       <use xlink:href="#ArialMT-49"/>
       <use x="55.615234" xlink:href="#ArialMT-46"/>
       <use x="83.398438" xlink:href="#ArialMT-55"/>
      </g>
     </g>
    </g>
    <g id="ytick_5">
     <g id="line2d_11">
      <g>
       <use style="fill:#262626;stroke:#262626;stroke-width:1.25;" x="46.964375" xlink:href="#m81f571a1dd" y="114.443182"/>
      </g>
     </g>
     <g id="text_12">
      <!-- 1.8 -->
      <g style="fill:#262626;" transform="translate(22.174375 118.379979)scale(0.11 -0.11)">
       <use xlink:href="#ArialMT-49"/>
       <use x="55.615234" xlink:href="#ArialMT-46"/>
       <use x="83.398438" xlink:href="#ArialMT-56"/>
      </g>
     </g>
    </g>
    <g id="ytick_6">
     <g id="line2d_12">
      <g>
       <use style="fill:#262626;stroke:#262626;stroke-width:1.25;" x="46.964375" xlink:href="#m81f571a1dd" y="67.971136"/>
      </g>
     </g>
     <g id="text_13">
      <!-- 1.9 -->
      <g style="fill:#262626;" transform="translate(22.174375 71.907933)scale(0.11 -0.11)">
       <defs>
        <path d="M 5.46875 16.546875 
L 13.921875 17.328125 
Q 14.984375 11.375 18.015625 8.6875 
Q 21.046875 6 25.78125 6 
Q 29.828125 6 32.875 7.859375 
Q 35.9375 9.71875 37.890625 12.8125 
Q 39.84375 15.921875 41.15625 21.1875 
Q 42.484375 26.46875 42.484375 31.9375 
Q 42.484375 32.515625 42.4375 33.6875 
Q 39.796875 29.5 35.234375 26.875 
Q 30.671875 24.265625 25.34375 24.265625 
Q 16.453125 24.265625 10.296875 30.703125 
Q 4.15625 37.15625 4.15625 47.703125 
Q 4.15625 58.59375 10.578125 65.234375 
Q 17 71.875 26.65625 71.875 
Q 33.640625 71.875 39.421875 68.109375 
Q 45.21875 64.359375 48.21875 57.390625 
Q 51.21875 50.4375 51.21875 37.25 
Q 51.21875 23.53125 48.234375 15.40625 
Q 45.265625 7.28125 39.375 3.03125 
Q 33.5 -1.21875 25.59375 -1.21875 
Q 17.1875 -1.21875 11.859375 3.4375 
Q 6.546875 8.109375 5.46875 16.546875 
z
M 41.453125 48.140625 
Q 41.453125 55.71875 37.421875 60.15625 
Q 33.40625 64.59375 27.734375 64.59375 
Q 21.875 64.59375 17.53125 59.8125 
Q 13.1875 55.03125 13.1875 47.40625 
Q 13.1875 40.578125 17.3125 36.296875 
Q 21.4375 32.03125 27.484375 32.03125 
Q 33.59375 32.03125 37.515625 36.296875 
Q 41.453125 40.578125 41.453125 48.140625 
z
" id="ArialMT-57"/>
       </defs>
       <use xlink:href="#ArialMT-49"/>
       <use x="55.615234" xlink:href="#ArialMT-46"/>
       <use x="83.398438" xlink:href="#ArialMT-57"/>
      </g>
     </g>
    </g>
    <g id="ytick_7">
     <g id="line2d_13">
      <g>
       <use style="fill:#262626;stroke:#262626;stroke-width:1.25;" x="46.964375" xlink:href="#m81f571a1dd" y="21.499091"/>
      </g>
     </g>
     <g id="text_14">
      <!-- 2.0 -->
      <g style="fill:#262626;" transform="translate(22.174375 25.435888)scale(0.11 -0.11)">
       <use xlink:href="#ArialMT-50"/>
       <use x="55.615234" xlink:href="#ArialMT-46"/>
       <use x="83.398438" xlink:href="#ArialMT-48"/>
      </g>
     </g>
    </g>
    <g id="text_15">
     <!-- l2409 -->
     <g style="fill:#262626;" transform="translate(15.789375 179.169375)rotate(-90)scale(0.12 -0.12)">
      <defs>
       <path d="M 6.390625 0 
L 6.390625 71.578125 
L 15.1875 71.578125 
L 15.1875 0 
z
" id="ArialMT-108"/>
      </defs>
      <use xlink:href="#ArialMT-108"/>
      <use x="22.216797" xlink:href="#ArialMT-50"/>
      <use x="77.832031" xlink:href="#ArialMT-52"/>
      <use x="133.447266" xlink:href="#ArialMT-48"/>
      <use x="189.0625" xlink:href="#ArialMT-57"/>
     </g>
    </g>
   </g>
   <g id="PathCollection_1">
    <defs>
     <path d="M 0 3.535534 
C 0.937635 3.535534 1.836992 3.163008 2.5 2.5 
C 3.163008 1.836992 3.535534 0.937635 3.535534 0 
C 3.535534 -0.937635 3.163008 -1.836992 2.5 -2.5 
C 1.836992 -3.163008 0.937635 -3.535534 0 -3.535534 
C -0.937635 -3.535534 -1.836992 -3.163008 -2.5 -2.5 
C -3.163008 -1.836992 -3.535534 -0.937635 -3.535534 0 
C -3.535534 0.937635 -3.163008 1.836992 -2.5 2.5 
C -1.836992 3.163008 -0.937635 3.535534 0 3.535534 
z
" id="m7b695a6473" style="stroke:#4c72b0;"/>
    </defs>
    <g clip-path="url(#p45fc451599)">
     <use style="fill:#4c72b0;stroke:#4c72b0;" x="46.964375" xlink:href="#m7b695a6473" y="221.587064"/>
     <use style="fill:#4c72b0;stroke:#4c72b0;" x="72.721042" xlink:href="#m7b695a6473" y="154.276364"/>
     <use style="fill:#4c72b0;stroke:#4c72b0;" x="98.477708" xlink:href="#m7b695a6473" y="222.755981"/>
     <use style="fill:#4c72b0;stroke:#4c72b0;" x="124.234375" xlink:href="#m7b695a6473" y="183.695642"/>
     <use style="fill:#4c72b0;stroke:#4c72b0;" x="149.991042" xlink:href="#m7b695a6473" y="154.276364"/>
     <use style="fill:#4c72b0;stroke:#4c72b0;" x="175.747708" xlink:href="#m7b695a6473" y="187.775217"/>
     <use style="fill:#4c72b0;stroke:#4c72b0;" x="201.504375" xlink:href="#m7b695a6473" y="154.276364"/>
     <use style="fill:#4c72b0;stroke:#4c72b0;" x="227.261042" xlink:href="#m7b695a6473" y="200.237727"/>
     <use style="fill:#4c72b0;stroke:#4c72b0;" x="253.017708" xlink:href="#m7b695a6473" y="132.627895"/>
     <use style="fill:#4c72b0;stroke:#4c72b0;" x="278.774375" xlink:href="#m7b695a6473" y="126.718816"/>
     <use style="fill:#4c72b0;stroke:#4c72b0;" x="304.531042" xlink:href="#m7b695a6473" y="67.971136"/>
     <use style="fill:#4c72b0;stroke:#4c72b0;" x="330.287708" xlink:href="#m7b695a6473" y="105.484715"/>
     <use style="fill:#4c72b0;stroke:#4c72b0;" x="356.044375" xlink:href="#m7b695a6473" y="166.724233"/>
    </g>
   </g>
   <g id="PolyCollection_1">
    <defs>
     <path d="M 46.964375 -164.348265 
L 46.964375 -112.489844 
L 50.086395 -114.27204 
L 53.208415 -116.077136 
L 56.330436 -117.844572 
L 59.452456 -119.546985 
L 62.574476 -121.400835 
L 65.696496 -123.158408 
L 68.818516 -124.844637 
L 71.940537 -126.32221 
L 75.062557 -127.802816 
L 78.184577 -129.341723 
L 81.306597 -130.980178 
L 84.428617 -132.417086 
L 87.550638 -133.771836 
L 90.672658 -135.462475 
L 93.794678 -137.469524 
L 96.916698 -139.193091 
L 100.038718 -140.913076 
L 103.160739 -142.840674 
L 106.282759 -144.446735 
L 109.404779 -146.040401 
L 112.526799 -147.436881 
L 115.648819 -149.04684 
L 118.77084 -150.681997 
L 121.89286 -152.325247 
L 125.01488 -153.864077 
L 128.1369 -155.208792 
L 131.25892 -156.798426 
L 134.380941 -158.454486 
L 137.502961 -160.117037 
L 140.624981 -161.138297 
L 143.747001 -162.738855 
L 146.869021 -164.251538 
L 149.991042 -165.967471 
L 153.113062 -167.366819 
L 156.235082 -169.05165 
L 159.357102 -170.629632 
L 162.479122 -172.219034 
L 165.601143 -173.626403 
L 168.723163 -175.083328 
L 171.845183 -176.295278 
L 174.967203 -177.410997 
L 178.089223 -178.715551 
L 181.211244 -179.8393 
L 184.333264 -181.008066 
L 187.455284 -182.188952 
L 190.577304 -183.515932 
L 193.699324 -184.763859 
L 196.821345 -186.082979 
L 199.943365 -187.293593 
L 203.065385 -188.496144 
L 206.187405 -189.634217 
L 209.309426 -190.814859 
L 212.431446 -192.17284 
L 215.553466 -193.233875 
L 218.675486 -194.442384 
L 221.797506 -195.650475 
L 224.919527 -196.853609 
L 228.041547 -197.897592 
L 231.163567 -199.012791 
L 234.285587 -200.074946 
L 237.407607 -201.019214 
L 240.529628 -202.161541 
L 243.651648 -203.307793 
L 246.773668 -204.322402 
L 249.895688 -205.323646 
L 253.017708 -206.311756 
L 256.139729 -207.328027 
L 259.261749 -208.44554 
L 262.383769 -209.591811 
L 265.505789 -210.623617 
L 268.627809 -211.485551 
L 271.74983 -212.427766 
L 274.87185 -213.378081 
L 277.99387 -214.321933 
L 281.11589 -215.21879 
L 284.23791 -216.193328 
L 287.359931 -217.153785 
L 290.481951 -217.988433 
L 293.603971 -218.876958 
L 296.725991 -219.910544 
L 299.848011 -220.930919 
L 302.970032 -221.868766 
L 306.092052 -222.732617 
L 309.214072 -223.600356 
L 312.336092 -224.469897 
L 315.458112 -225.396391 
L 318.580133 -226.354736 
L 321.702153 -227.333347 
L 324.824173 -228.265201 
L 327.946193 -229.108403 
L 331.068213 -230.018122 
L 334.190234 -230.904461 
L 337.312254 -231.781895 
L 340.434274 -232.65977 
L 343.556294 -233.538684 
L 346.678314 -234.417598 
L 349.800335 -235.296512 
L 352.922355 -236.170004 
L 356.044375 -236.961025 
L 356.044375 -294.485116 
L 356.044375 -294.485116 
L 352.922355 -292.716523 
L 349.800335 -290.966191 
L 346.678314 -289.187738 
L 343.556294 -287.451099 
L 340.434274 -285.732123 
L 337.312254 -284.081426 
L 334.190234 -282.457187 
L 331.068213 -280.855515 
L 327.946193 -279.241209 
L 324.824173 -277.446543 
L 321.702153 -275.712418 
L 318.580133 -274.082231 
L 315.458112 -272.573195 
L 312.336092 -270.948354 
L 309.214072 -269.314824 
L 306.092052 -267.618728 
L 302.970032 -266.260699 
L 299.848011 -264.732697 
L 296.725991 -262.82173 
L 293.603971 -261.247265 
L 290.481951 -259.775527 
L 287.359931 -258.187976 
L 284.23791 -256.580445 
L 281.11589 -254.913823 
L 277.99387 -253.247202 
L 274.87185 -251.58058 
L 271.74983 -250.134604 
L 268.627809 -248.617879 
L 265.505789 -246.920353 
L 262.383769 -245.133251 
L 259.261749 -243.582279 
L 256.139729 -241.923653 
L 253.017708 -240.363687 
L 249.895688 -238.988562 
L 246.773668 -237.630403 
L 243.651648 -236.244479 
L 240.529628 -234.622359 
L 237.407607 -233.230602 
L 234.285587 -231.901844 
L 231.163567 -230.573085 
L 228.041547 -229.145093 
L 224.919527 -227.660797 
L 221.797506 -226.129122 
L 218.675486 -224.596543 
L 215.553466 -223.116344 
L 212.431446 -221.652124 
L 209.309426 -220.087295 
L 206.187405 -218.688794 
L 203.065385 -217.193248 
L 199.943365 -216.092837 
L 196.821345 -214.709034 
L 193.699324 -213.271055 
L 190.577304 -211.836119 
L 187.455284 -210.559226 
L 184.333264 -209.217246 
L 181.211244 -208.121336 
L 178.089223 -206.797871 
L 174.967203 -205.456535 
L 171.845183 -203.990983 
L 168.723163 -202.94564 
L 165.601143 -201.690202 
L 162.479122 -200.687267 
L 159.357102 -199.66367 
L 156.235082 -198.70488 
L 153.113062 -197.435071 
L 149.991042 -196.238435 
L 146.869021 -195.082784 
L 143.747001 -194.014392 
L 140.624981 -192.978679 
L 137.502961 -191.877607 
L 134.380941 -190.80837 
L 131.25892 -189.744225 
L 128.1369 -188.712569 
L 125.01488 -187.773329 
L 121.89286 -186.831312 
L 118.77084 -185.495616 
L 115.648819 -184.560739 
L 112.526799 -183.42746 
L 109.404779 -182.356626 
L 106.282759 -181.436296 
L 103.160739 -180.523593 
L 100.038718 -179.610891 
L 96.916698 -178.693162 
L 93.794678 -177.577655 
L 90.672658 -176.392401 
L 87.550638 -175.525947 
L 84.428617 -174.659493 
L 81.306597 -173.793039 
L 78.184577 -172.926585 
L 75.062557 -172.060131 
L 71.940537 -171.193677 
L 68.818516 -170.327223 
L 65.696496 -169.494428 
L 62.574476 -168.643309 
L 59.452456 -167.732692 
L 56.330436 -166.93284 
L 53.208415 -166.096507 
L 50.086395 -165.28082 
L 46.964375 -164.348265 
z
" id="m0f7a56d050" style="stroke:#ffffff;stroke-opacity:0.15;"/>
    </defs>
    <g clip-path="url(#p45fc451599)">
     <use style="fill:#4c72b0;fill-opacity:0.15;stroke:#ffffff;stroke-opacity:0.15;" x="0" xlink:href="#m0f7a56d050" y="363.514219"/>
    </g>
   </g>
   <g id="line2d_14">
    <path clip-path="url(#p45fc451599)" d="M 46.964375 279.677121 
L 46.964375 169.951458 
" style="fill:none;stroke:#4c72b0;stroke-linecap:round;stroke-width:2.625;"/>
   </g>
   <g id="line2d_15">
    <path clip-path="url(#p45fc451599)" d="M 72.721042 288.713352 
L 72.721042 21.499091 
" style="fill:none;stroke:#4c72b0;stroke-linecap:round;stroke-width:2.625;"/>
   </g>
   <g id="line2d_16">
    <path clip-path="url(#p45fc451599)" d="M 98.477708 266.666575 
L 98.477708 182.504603 
" style="fill:none;stroke:#4c72b0;stroke-linecap:round;stroke-width:2.625;"/>
   </g>
   <g id="line2d_17">
    <path clip-path="url(#p45fc451599)" d="M 124.234375 211.032139 
L 124.234375 158.181578 
" style="fill:none;stroke:#4c72b0;stroke-linecap:round;stroke-width:2.625;"/>
   </g>
   <g id="line2d_18">
    <path clip-path="url(#p45fc451599)" d="M 149.991042 253.859318 
L 149.991042 54.693409 
" style="fill:none;stroke:#4c72b0;stroke-linecap:round;stroke-width:2.625;"/>
   </g>
   <g id="line2d_19">
    <path clip-path="url(#p45fc451599)" d="M 175.747708 230.516708 
L 175.747708 145.140313 
" style="fill:none;stroke:#4c72b0;stroke-linecap:round;stroke-width:2.625;"/>
   </g>
   <g id="line2d_20">
    <path clip-path="url(#p45fc451599)" d="M 201.504375 220.665 
L 201.504375 104.484886 
" style="fill:none;stroke:#4c72b0;stroke-linecap:round;stroke-width:2.625;"/>
   </g>
   <g id="line2d_21">
    <path clip-path="url(#p45fc451599)" d="M 227.261042 307.480909 
L 227.261042 92.994545 
" style="fill:none;stroke:#4c72b0;stroke-linecap:round;stroke-width:2.625;"/>
   </g>
   <g id="line2d_22">
    <path clip-path="url(#p45fc451599)" d="M 253.017708 193.243607 
L 253.017708 72.012184 
" style="fill:none;stroke:#4c72b0;stroke-linecap:round;stroke-width:2.625;"/>
   </g>
   <g id="line2d_23">
    <path clip-path="url(#p45fc451599)" d="M 278.774375 179.328679 
L 278.774375 74.108954 
" style="fill:none;stroke:#4c72b0;stroke-linecap:round;stroke-width:2.625;"/>
   </g>
   <g id="line2d_24">
    <path clip-path="url(#p45fc451599)" d="M 304.531042 129.933864 
L 304.531042 21.499091 
" style="fill:none;stroke:#4c72b0;stroke-linecap:round;stroke-width:2.625;"/>
   </g>
   <g id="line2d_25">
    <path clip-path="url(#p45fc451599)" d="M 330.287708 144.678007 
L 330.287708 71.890465 
" style="fill:none;stroke:#4c72b0;stroke-linecap:round;stroke-width:2.625;"/>
   </g>
   <g id="line2d_26">
    <path clip-path="url(#p45fc451599)" d="M 356.044375 282.904347 
L 356.044375 50.544119 
" style="fill:none;stroke:#4c72b0;stroke-linecap:round;stroke-width:2.625;"/>
   </g>
   <g id="line2d_27">
    <path clip-path="url(#p45fc451599)" d="M 46.964375 225.289179 
L 50.086395 223.989069 
L 53.208415 222.68896 
L 56.330436 221.38885 
L 59.452456 220.08874 
L 62.574476 218.78863 
L 65.696496 217.488521 
L 68.818516 216.188411 
L 71.940537 214.888301 
L 75.062557 213.588191 
L 78.184577 212.288082 
L 81.306597 210.987972 
L 84.428617 209.687862 
L 87.550638 208.387752 
L 90.672658 207.087643 
L 93.794678 205.787533 
L 96.916698 204.487423 
L 100.038718 203.187313 
L 103.160739 201.887204 
L 106.282759 200.587094 
L 109.404779 199.286984 
L 112.526799 197.986874 
L 115.648819 196.686764 
L 118.77084 195.386655 
L 121.89286 194.086545 
L 125.01488 192.786435 
L 128.1369 191.486325 
L 131.25892 190.186216 
L 134.380941 188.886106 
L 137.502961 187.585996 
L 140.624981 186.285886 
L 143.747001 184.985777 
L 146.869021 183.685667 
L 149.991042 182.385557 
L 153.113062 181.085447 
L 156.235082 179.785338 
L 159.357102 178.485228 
L 162.479122 177.185118 
L 165.601143 175.885008 
L 168.723163 174.584899 
L 171.845183 173.284789 
L 174.967203 171.984679 
L 178.089223 170.684569 
L 181.211244 169.38446 
L 184.333264 168.08435 
L 187.455284 166.78424 
L 190.577304 165.48413 
L 193.699324 164.184021 
L 196.821345 162.883911 
L 199.943365 161.583801 
L 203.065385 160.283691 
L 206.187405 158.983581 
L 209.309426 157.683472 
L 212.431446 156.383362 
L 215.553466 155.083252 
L 218.675486 153.783142 
L 221.797506 152.483033 
L 224.919527 151.182923 
L 228.041547 149.882813 
L 231.163567 148.582703 
L 234.285587 147.282594 
L 237.407607 145.982484 
L 240.529628 144.682374 
L 243.651648 143.382264 
L 246.773668 142.082155 
L 249.895688 140.782045 
L 253.017708 139.481935 
L 256.139729 138.181825 
L 259.261749 136.881716 
L 262.383769 135.581606 
L 265.505789 134.281496 
L 268.627809 132.981386 
L 271.74983 131.681277 
L 274.87185 130.381167 
L 277.99387 129.081057 
L 281.11589 127.780947 
L 284.23791 126.480838 
L 287.359931 125.180728 
L 290.481951 123.880618 
L 293.603971 122.580508 
L 296.725991 121.280398 
L 299.848011 119.980289 
L 302.970032 118.680179 
L 306.092052 117.380069 
L 309.214072 116.079959 
L 312.336092 114.77985 
L 315.458112 113.47974 
L 318.580133 112.17963 
L 321.702153 110.87952 
L 324.824173 109.579411 
L 327.946193 108.279301 
L 331.068213 106.979191 
L 334.190234 105.679081 
L 337.312254 104.378972 
L 340.434274 103.078862 
L 343.556294 101.778752 
L 346.678314 100.478642 
L 349.800335 99.178533 
L 352.922355 97.878423 
L 356.044375 96.578313 
" style="fill:none;stroke:#4c72b0;stroke-linecap:round;stroke-width:2.25;"/>
   </g>
   <g id="patch_3">
    <path d="M 46.964375 321.78 
L 46.964375 7.2 
" style="fill:none;stroke:#262626;stroke-linecap:square;stroke-linejoin:miter;stroke-width:1.25;"/>
   </g>
   <g id="patch_4">
    <path d="M 46.964375 321.78 
L 356.044375 321.78 
" style="fill:none;stroke:#262626;stroke-linecap:square;stroke-linejoin:miter;stroke-width:1.25;"/>
   </g>
  </g>
 </g>
 <defs>
  <clipPath id="p45fc451599">
   <rect height="314.58" width="309.08" x="46.964375" y="7.2"/>
  </clipPath>
 </defs>
</svg>
