<?xml version="1.0" encoding="utf-8" standalone="no"?>
<!DOCTYPE svg PUBLIC "-//W3C//DTD SVG 1.1//EN"
  "http://www.w3.org/Graphics/SVG/1.1/DTD/svg11.dtd">
<!-- Created with matplotlib (https://matplotlib.org/) -->
<svg height="363.514219pt" version="1.1" viewBox="0 0 363.361406 363.514219" width="363.361406pt" xmlns="http://www.w3.org/2000/svg" xmlns:xlink="http://www.w3.org/1999/xlink">
 <metadata>
  <rdf:RDF xmlns:cc="http://creativecommons.org/ns#" xmlns:dc="http://purl.org/dc/elements/1.1/" xmlns:rdf="http://www.w3.org/1999/02/22-rdf-syntax-ns#">
   <cc:Work>
    <dc:type rdf:resource="http://purl.org/dc/dcmitype/StillImage"/>
    <dc:date>2021-03-16T16:57:50.923494</dc:date>
    <dc:format>image/svg+xml</dc:format>
    <dc:creator>
     <cc:Agent>
      <dc:title>Matplotlib v3.3.2, https://matplotlib.org/</dc:title>
     </cc:Agent>
    </dc:creator>
   </cc:Work>
  </rdf:RDF>
 </metadata>
 <defs>
  <style type="text/css">*{stroke-linecap:butt;stroke-linejoin:round;}</style>
 </defs>
 <g id="figure_1">
  <g id="patch_1">
   <path d="M 0 363.514219 
L 363.361406 363.514219 
L 363.361406 0 
L 0 0 
z
" style="fill:#ffffff;"/>
  </g>
  <g id="axes_1">
   <g id="patch_2">
    <path d="M 46.964375 321.78 
L 350.044375 321.78 
L 350.044375 7.2 
L 46.964375 7.2 
z
" style="fill:#ffffff;"/>
   </g>
   <g id="matplotlib.axis_1">
    <g id="xtick_1">
     <g id="line2d_1">
      <defs>
       <path d="M 0 0 
L 0 6 
" id="m04df99abd2" style="stroke:#262626;stroke-width:1.25;"/>
      </defs>
      <g>
       <use style="fill:#262626;stroke:#262626;stroke-width:1.25;" x="70.278221" xlink:href="#m04df99abd2" y="321.78"/>
      </g>
     </g>
     <g id="text_1">
      <!-- 2 -->
      <g style="fill:#262626;" transform="translate(67.219706 339.153594)scale(0.11 -0.11)">
       <defs>
        <path d="M 50.34375 8.453125 
L 50.34375 0 
L 3.03125 0 
Q 2.9375 3.171875 4.046875 6.109375 
Q 5.859375 10.9375 9.828125 15.625 
Q 13.8125 20.3125 21.34375 26.46875 
Q 33.015625 36.03125 37.109375 41.625 
Q 41.21875 47.21875 41.21875 52.203125 
Q 41.21875 57.421875 37.46875 61 
Q 33.734375 64.59375 27.734375 64.59375 
Q 21.390625 64.59375 17.578125 60.78125 
Q 13.765625 56.984375 13.71875 50.25 
L 4.6875 51.171875 
Q 5.609375 61.28125 11.65625 66.578125 
Q 17.71875 71.875 27.9375 71.875 
Q 38.234375 71.875 44.234375 66.15625 
Q 50.25 60.453125 50.25 52 
Q 50.25 47.703125 48.484375 43.546875 
Q 46.734375 39.40625 42.65625 34.8125 
Q 38.578125 30.21875 29.109375 22.21875 
Q 21.1875 15.578125 18.9375 13.203125 
Q 16.703125 10.84375 15.234375 8.453125 
z
" id="ArialMT-50"/>
       </defs>
       <use xlink:href="#ArialMT-50"/>
      </g>
     </g>
    </g>
    <g id="xtick_2">
     <g id="line2d_2">
      <g>
       <use style="fill:#262626;stroke:#262626;stroke-width:1.25;" x="116.905913" xlink:href="#m04df99abd2" y="321.78"/>
      </g>
     </g>
     <g id="text_2">
      <!-- 4 -->
      <g style="fill:#262626;" transform="translate(113.847398 339.153594)scale(0.11 -0.11)">
       <defs>
        <path d="M 32.328125 0 
L 32.328125 17.140625 
L 1.265625 17.140625 
L 1.265625 25.203125 
L 33.9375 71.578125 
L 41.109375 71.578125 
L 41.109375 25.203125 
L 50.78125 25.203125 
L 50.78125 17.140625 
L 41.109375 17.140625 
L 41.109375 0 
z
M 32.328125 25.203125 
L 32.328125 57.46875 
L 9.90625 25.203125 
z
" id="ArialMT-52"/>
       </defs>
       <use xlink:href="#ArialMT-52"/>
      </g>
     </g>
    </g>
    <g id="xtick_3">
     <g id="line2d_3">
      <g>
       <use style="fill:#262626;stroke:#262626;stroke-width:1.25;" x="163.533606" xlink:href="#m04df99abd2" y="321.78"/>
      </g>
     </g>
     <g id="text_3">
      <!-- 6 -->
      <g style="fill:#262626;" transform="translate(160.47509 339.153594)scale(0.11 -0.11)">
       <defs>
        <path d="M 49.75 54.046875 
L 41.015625 53.375 
Q 39.84375 58.546875 37.703125 60.890625 
Q 34.125 64.65625 28.90625 64.65625 
Q 24.703125 64.65625 21.53125 62.3125 
Q 17.390625 59.28125 14.984375 53.46875 
Q 12.59375 47.65625 12.5 36.921875 
Q 15.671875 41.75 20.265625 44.09375 
Q 24.859375 46.4375 29.890625 46.4375 
Q 38.671875 46.4375 44.84375 39.96875 
Q 51.03125 33.5 51.03125 23.25 
Q 51.03125 16.5 48.125 10.71875 
Q 45.21875 4.9375 40.140625 1.859375 
Q 35.0625 -1.21875 28.609375 -1.21875 
Q 17.625 -1.21875 10.6875 6.859375 
Q 3.765625 14.9375 3.765625 33.5 
Q 3.765625 54.25 11.421875 63.671875 
Q 18.109375 71.875 29.4375 71.875 
Q 37.890625 71.875 43.28125 67.140625 
Q 48.6875 62.40625 49.75 54.046875 
z
M 13.875 23.1875 
Q 13.875 18.65625 15.796875 14.5 
Q 17.71875 10.359375 21.1875 8.171875 
Q 24.65625 6 28.46875 6 
Q 34.03125 6 38.03125 10.484375 
Q 42.046875 14.984375 42.046875 22.703125 
Q 42.046875 30.125 38.078125 34.390625 
Q 34.125 38.671875 28.125 38.671875 
Q 22.171875 38.671875 18.015625 34.390625 
Q 13.875 30.125 13.875 23.1875 
z
" id="ArialMT-54"/>
       </defs>
       <use xlink:href="#ArialMT-54"/>
      </g>
     </g>
    </g>
    <g id="xtick_4">
     <g id="line2d_4">
      <g>
       <use style="fill:#262626;stroke:#262626;stroke-width:1.25;" x="210.161298" xlink:href="#m04df99abd2" y="321.78"/>
      </g>
     </g>
     <g id="text_4">
      <!-- 8 -->
      <g style="fill:#262626;" transform="translate(207.102782 339.153594)scale(0.11 -0.11)">
       <defs>
        <path d="M 17.671875 38.8125 
Q 12.203125 40.828125 9.5625 44.53125 
Q 6.9375 48.25 6.9375 53.421875 
Q 6.9375 61.234375 12.546875 66.546875 
Q 18.171875 71.875 27.484375 71.875 
Q 36.859375 71.875 42.578125 66.421875 
Q 48.296875 60.984375 48.296875 53.171875 
Q 48.296875 48.1875 45.671875 44.5 
Q 43.0625 40.828125 37.75 38.8125 
Q 44.34375 36.671875 47.78125 31.875 
Q 51.21875 27.09375 51.21875 20.453125 
Q 51.21875 11.28125 44.71875 5.03125 
Q 38.234375 -1.21875 27.640625 -1.21875 
Q 17.046875 -1.21875 10.546875 5.046875 
Q 4.046875 11.328125 4.046875 20.703125 
Q 4.046875 27.6875 7.59375 32.390625 
Q 11.140625 37.109375 17.671875 38.8125 
z
M 15.921875 53.71875 
Q 15.921875 48.640625 19.1875 45.40625 
Q 22.46875 42.1875 27.6875 42.1875 
Q 32.765625 42.1875 36.015625 45.375 
Q 39.265625 48.578125 39.265625 53.21875 
Q 39.265625 58.0625 35.90625 61.359375 
Q 32.5625 64.65625 27.59375 64.65625 
Q 22.5625 64.65625 19.234375 61.421875 
Q 15.921875 58.203125 15.921875 53.71875 
z
M 13.09375 20.65625 
Q 13.09375 16.890625 14.875 13.375 
Q 16.65625 9.859375 20.171875 7.921875 
Q 23.6875 6 27.734375 6 
Q 34.03125 6 38.125 10.046875 
Q 42.234375 14.109375 42.234375 20.359375 
Q 42.234375 26.703125 38.015625 30.859375 
Q 33.796875 35.015625 27.4375 35.015625 
Q 21.234375 35.015625 17.15625 30.90625 
Q 13.09375 26.8125 13.09375 20.65625 
z
" id="ArialMT-56"/>
       </defs>
       <use xlink:href="#ArialMT-56"/>
      </g>
     </g>
    </g>
    <g id="xtick_5">
     <g id="line2d_5">
      <g>
       <use style="fill:#262626;stroke:#262626;stroke-width:1.25;" x="256.78899" xlink:href="#m04df99abd2" y="321.78"/>
      </g>
     </g>
     <g id="text_5">
      <!-- 10 -->
      <g style="fill:#262626;" transform="translate(250.671959 339.153594)scale(0.11 -0.11)">
       <defs>
        <path d="M 37.25 0 
L 28.46875 0 
L 28.46875 56 
Q 25.296875 52.984375 20.140625 49.953125 
Q 14.984375 46.921875 10.890625 45.40625 
L 10.890625 53.90625 
Q 18.265625 57.375 23.78125 62.296875 
Q 29.296875 67.234375 31.59375 71.875 
L 37.25 71.875 
z
" id="ArialMT-49"/>
        <path d="M 4.15625 35.296875 
Q 4.15625 48 6.765625 55.734375 
Q 9.375 63.484375 14.515625 67.671875 
Q 19.671875 71.875 27.484375 71.875 
Q 33.25 71.875 37.59375 69.546875 
Q 41.9375 67.234375 44.765625 62.859375 
Q 47.609375 58.5 49.21875 52.21875 
Q 50.828125 45.953125 50.828125 35.296875 
Q 50.828125 22.703125 48.234375 14.96875 
Q 45.65625 7.234375 40.5 3 
Q 35.359375 -1.21875 27.484375 -1.21875 
Q 17.140625 -1.21875 11.234375 6.203125 
Q 4.15625 15.140625 4.15625 35.296875 
z
M 13.1875 35.296875 
Q 13.1875 17.671875 17.3125 11.828125 
Q 21.4375 6 27.484375 6 
Q 33.546875 6 37.671875 11.859375 
Q 41.796875 17.71875 41.796875 35.296875 
Q 41.796875 52.984375 37.671875 58.78125 
Q 33.546875 64.59375 27.390625 64.59375 
Q 21.34375 64.59375 17.71875 59.46875 
Q 13.1875 52.9375 13.1875 35.296875 
z
" id="ArialMT-48"/>
       </defs>
       <use xlink:href="#ArialMT-49"/>
       <use x="55.615234" xlink:href="#ArialMT-48"/>
      </g>
     </g>
    </g>
    <g id="xtick_6">
     <g id="line2d_6">
      <g>
       <use style="fill:#262626;stroke:#262626;stroke-width:1.25;" x="303.416683" xlink:href="#m04df99abd2" y="321.78"/>
      </g>
     </g>
     <g id="text_6">
      <!-- 12 -->
      <g style="fill:#262626;" transform="translate(297.299651 339.153594)scale(0.11 -0.11)">
       <use xlink:href="#ArialMT-49"/>
       <use x="55.615234" xlink:href="#ArialMT-50"/>
      </g>
     </g>
    </g>
    <g id="xtick_7">
     <g id="line2d_7">
      <g>
       <use style="fill:#262626;stroke:#262626;stroke-width:1.25;" x="350.044375" xlink:href="#m04df99abd2" y="321.78"/>
      </g>
     </g>
     <g id="text_7">
      <!-- 14 -->
      <g style="fill:#262626;" transform="translate(343.927344 339.153594)scale(0.11 -0.11)">
       <use xlink:href="#ArialMT-49"/>
       <use x="55.615234" xlink:href="#ArialMT-52"/>
      </g>
     </g>
    </g>
    <g id="text_8">
     <!-- a7a -->
     <g style="fill:#262626;" transform="translate(188.494687 353.929219)scale(0.12 -0.12)">
      <defs>
       <path d="M 40.4375 6.390625 
Q 35.546875 2.25 31.03125 0.53125 
Q 26.515625 -1.171875 21.34375 -1.171875 
Q 12.796875 -1.171875 8.203125 3 
Q 3.609375 7.171875 3.609375 13.671875 
Q 3.609375 17.484375 5.34375 20.625 
Q 7.078125 23.78125 9.890625 25.6875 
Q 12.703125 27.59375 16.21875 28.5625 
Q 18.796875 29.25 24.03125 29.890625 
Q 34.671875 31.15625 39.703125 32.90625 
Q 39.75 34.71875 39.75 35.203125 
Q 39.75 40.578125 37.25 42.78125 
Q 33.890625 45.75 27.25 45.75 
Q 21.046875 45.75 18.09375 43.578125 
Q 15.140625 41.40625 13.71875 35.890625 
L 5.125 37.0625 
Q 6.296875 42.578125 8.984375 45.96875 
Q 11.671875 49.359375 16.75 51.1875 
Q 21.828125 53.03125 28.515625 53.03125 
Q 35.15625 53.03125 39.296875 51.46875 
Q 43.453125 49.90625 45.40625 47.53125 
Q 47.359375 45.171875 48.140625 41.546875 
Q 48.578125 39.3125 48.578125 33.453125 
L 48.578125 21.734375 
Q 48.578125 9.46875 49.140625 6.21875 
Q 49.703125 2.984375 51.375 0 
L 42.1875 0 
Q 40.828125 2.734375 40.4375 6.390625 
z
M 39.703125 26.03125 
Q 34.90625 24.078125 25.34375 22.703125 
Q 19.921875 21.921875 17.671875 20.9375 
Q 15.4375 19.96875 14.203125 18.09375 
Q 12.984375 16.21875 12.984375 13.921875 
Q 12.984375 10.40625 15.640625 8.0625 
Q 18.3125 5.71875 23.4375 5.71875 
Q 28.515625 5.71875 32.46875 7.9375 
Q 36.421875 10.15625 38.28125 14.015625 
Q 39.703125 17 39.703125 22.796875 
z
" id="ArialMT-97"/>
       <path d="M 4.734375 62.203125 
L 4.734375 70.65625 
L 51.078125 70.65625 
L 51.078125 63.8125 
Q 44.234375 56.546875 37.515625 44.484375 
Q 30.8125 32.421875 27.15625 19.671875 
Q 24.515625 10.6875 23.78125 0 
L 14.75 0 
Q 14.890625 8.453125 18.0625 20.40625 
Q 21.234375 32.375 27.171875 43.484375 
Q 33.109375 54.59375 39.796875 62.203125 
z
" id="ArialMT-55"/>
      </defs>
      <use xlink:href="#ArialMT-97"/>
      <use x="55.615234" xlink:href="#ArialMT-55"/>
      <use x="111.230469" xlink:href="#ArialMT-97"/>
     </g>
    </g>
   </g>
   <g id="matplotlib.axis_2">
    <g id="ytick_1">
     <g id="line2d_8">
      <defs>
       <path d="M 0 0 
L -6 0 
" id="m0dc1fd396f" style="stroke:#262626;stroke-width:1.25;"/>
      </defs>
      <g>
       <use style="fill:#262626;stroke:#262626;stroke-width:1.25;" x="46.964375" xlink:href="#m0dc1fd396f" y="275.772482"/>
      </g>
     </g>
     <g id="text_9">
      <!-- 1.8 -->
      <g style="fill:#262626;" transform="translate(22.174375 279.709279)scale(0.11 -0.11)">
       <defs>
        <path d="M 9.078125 0 
L 9.078125 10.015625 
L 19.09375 10.015625 
L 19.09375 0 
z
" id="ArialMT-46"/>
       </defs>
       <use xlink:href="#ArialMT-49"/>
       <use x="55.615234" xlink:href="#ArialMT-46"/>
       <use x="83.398438" xlink:href="#ArialMT-56"/>
      </g>
     </g>
    </g>
    <g id="ytick_2">
     <g id="line2d_9">
      <g>
       <use style="fill:#262626;stroke:#262626;stroke-width:1.25;" x="46.964375" xlink:href="#m0dc1fd396f" y="213.148887"/>
      </g>
     </g>
     <g id="text_10">
      <!-- 2.0 -->
      <g style="fill:#262626;" transform="translate(22.174375 217.085684)scale(0.11 -0.11)">
       <use xlink:href="#ArialMT-50"/>
       <use x="55.615234" xlink:href="#ArialMT-46"/>
       <use x="83.398438" xlink:href="#ArialMT-48"/>
      </g>
     </g>
    </g>
    <g id="ytick_3">
     <g id="line2d_10">
      <g>
       <use style="fill:#262626;stroke:#262626;stroke-width:1.25;" x="46.964375" xlink:href="#m0dc1fd396f" y="150.525292"/>
      </g>
     </g>
     <g id="text_11">
      <!-- 2.2 -->
      <g style="fill:#262626;" transform="translate(22.174375 154.462089)scale(0.11 -0.11)">
       <use xlink:href="#ArialMT-50"/>
       <use x="55.615234" xlink:href="#ArialMT-46"/>
       <use x="83.398438" xlink:href="#ArialMT-50"/>
      </g>
     </g>
    </g>
    <g id="ytick_4">
     <g id="line2d_11">
      <g>
       <use style="fill:#262626;stroke:#262626;stroke-width:1.25;" x="46.964375" xlink:href="#m0dc1fd396f" y="87.901696"/>
      </g>
     </g>
     <g id="text_12">
      <!-- 2.4 -->
      <g style="fill:#262626;" transform="translate(22.174375 91.838493)scale(0.11 -0.11)">
       <use xlink:href="#ArialMT-50"/>
       <use x="55.615234" xlink:href="#ArialMT-46"/>
       <use x="83.398438" xlink:href="#ArialMT-52"/>
      </g>
     </g>
    </g>
    <g id="ytick_5">
     <g id="line2d_12">
      <g>
       <use style="fill:#262626;stroke:#262626;stroke-width:1.25;" x="46.964375" xlink:href="#m0dc1fd396f" y="25.278101"/>
      </g>
     </g>
     <g id="text_13">
      <!-- 2.6 -->
      <g style="fill:#262626;" transform="translate(22.174375 29.214898)scale(0.11 -0.11)">
       <use xlink:href="#ArialMT-50"/>
       <use x="55.615234" xlink:href="#ArialMT-46"/>
       <use x="83.398438" xlink:href="#ArialMT-54"/>
      </g>
     </g>
    </g>
    <g id="text_14">
     <!-- l14d -->
     <g style="fill:#262626;" transform="translate(15.789375 175.832812)rotate(-90)scale(0.12 -0.12)">
      <defs>
       <path d="M 6.390625 0 
L 6.390625 71.578125 
L 15.1875 71.578125 
L 15.1875 0 
z
" id="ArialMT-108"/>
       <path d="M 40.234375 0 
L 40.234375 6.546875 
Q 35.296875 -1.171875 25.734375 -1.171875 
Q 19.53125 -1.171875 14.328125 2.25 
Q 9.125 5.671875 6.265625 11.796875 
Q 3.421875 17.921875 3.421875 25.875 
Q 3.421875 33.640625 6 39.96875 
Q 8.59375 46.296875 13.765625 49.65625 
Q 18.953125 53.03125 25.34375 53.03125 
Q 30.03125 53.03125 33.6875 51.046875 
Q 37.359375 49.078125 39.65625 45.90625 
L 39.65625 71.578125 
L 48.390625 71.578125 
L 48.390625 0 
z
M 12.453125 25.875 
Q 12.453125 15.921875 16.640625 10.984375 
Q 20.84375 6.0625 26.5625 6.0625 
Q 32.328125 6.0625 36.34375 10.765625 
Q 40.375 15.484375 40.375 25.140625 
Q 40.375 35.796875 36.265625 40.765625 
Q 32.171875 45.75 26.171875 45.75 
Q 20.3125 45.75 16.375 40.96875 
Q 12.453125 36.1875 12.453125 25.875 
z
" id="ArialMT-100"/>
      </defs>
      <use xlink:href="#ArialMT-108"/>
      <use x="22.216797" xlink:href="#ArialMT-49"/>
      <use x="77.832031" xlink:href="#ArialMT-52"/>
      <use x="133.447266" xlink:href="#ArialMT-100"/>
     </g>
    </g>
   </g>
   <g id="PathCollection_1">
    <defs>
     <path d="M 0 3 
C 0.795609 3 1.55874 2.683901 2.12132 2.12132 
C 2.683901 1.55874 3 0.795609 3 0 
C 3 -0.795609 2.683901 -1.55874 2.12132 -2.12132 
C 1.55874 -2.683901 0.795609 -3 0 -3 
C -0.795609 -3 -1.55874 -2.683901 -2.12132 -2.12132 
C -2.683901 -1.55874 -3 -0.795609 -3 0 
C -3 0.795609 -2.683901 1.55874 -2.12132 2.12132 
C -1.55874 2.683901 -0.795609 3 0 3 
z
" id="m28c0771fac" style="stroke:#4c72b0;stroke-opacity:0.8;"/>
    </defs>
    <g clip-path="url(#pbde84d4b0a)">
     <use style="fill:#4c72b0;fill-opacity:0.8;stroke:#4c72b0;stroke-opacity:0.8;" x="46.964375" xlink:href="#m28c0771fac" y="21.499091"/>
     <use style="fill:#4c72b0;fill-opacity:0.8;stroke:#4c72b0;stroke-opacity:0.8;" x="70.278221" xlink:href="#m28c0771fac" y="70.822534"/>
     <use style="fill:#4c72b0;fill-opacity:0.8;stroke:#4c72b0;stroke-opacity:0.8;" x="93.592067" xlink:href="#m28c0771fac" y="62.792711"/>
     <use style="fill:#4c72b0;fill-opacity:0.8;stroke:#4c72b0;stroke-opacity:0.8;" x="116.905913" xlink:href="#m28c0771fac" y="102.977747"/>
     <use style="fill:#4c72b0;fill-opacity:0.8;stroke:#4c72b0;stroke-opacity:0.8;" x="140.21976" xlink:href="#m28c0771fac" y="223.946059"/>
     <use style="fill:#4c72b0;fill-opacity:0.8;stroke:#4c72b0;stroke-opacity:0.8;" x="163.533606" xlink:href="#m28c0771fac" y="120.081075"/>
     <use style="fill:#4c72b0;fill-opacity:0.8;stroke:#4c72b0;stroke-opacity:0.8;" x="186.847452" xlink:href="#m28c0771fac" y="157.51879"/>
     <use style="fill:#4c72b0;fill-opacity:0.8;stroke:#4c72b0;stroke-opacity:0.8;" x="210.161298" xlink:href="#m28c0771fac" y="193.579013"/>
     <use style="fill:#4c72b0;fill-opacity:0.8;stroke:#4c72b0;stroke-opacity:0.8;" x="233.475144" xlink:href="#m28c0771fac" y="200.707113"/>
     <use style="fill:#4c72b0;fill-opacity:0.8;stroke:#4c72b0;stroke-opacity:0.8;" x="256.78899" xlink:href="#m28c0771fac" y="207.009319"/>
     <use style="fill:#4c72b0;fill-opacity:0.8;stroke:#4c72b0;stroke-opacity:0.8;" x="280.102837" xlink:href="#m28c0771fac" y="203.939535"/>
     <use style="fill:#4c72b0;fill-opacity:0.8;stroke:#4c72b0;stroke-opacity:0.8;" x="303.416683" xlink:href="#m28c0771fac" y="223.195453"/>
     <use style="fill:#4c72b0;fill-opacity:0.8;stroke:#4c72b0;stroke-opacity:0.8;" x="326.730529" xlink:href="#m28c0771fac" y="286.209748"/>
     <use style="fill:#4c72b0;fill-opacity:0.8;stroke:#4c72b0;stroke-opacity:0.8;" x="350.044375" xlink:href="#m28c0771fac" y="265.335216"/>
    </g>
   </g>
   <g id="PolyCollection_1">
    <defs>
     <path d="M 46.964375 -336.432441 
L 46.964375 -256.513045 
L 50.025789 -254.925194 
L 53.087203 -253.406484 
L 56.148617 -251.889255 
L 59.210032 -250.372025 
L 62.271446 -248.854795 
L 65.33286 -247.240245 
L 68.394274 -245.596451 
L 71.455688 -243.952658 
L 74.517102 -242.308865 
L 77.578516 -240.665071 
L 80.639931 -239.02797 
L 83.701345 -237.436875 
L 86.762759 -235.845779 
L 89.824173 -234.254684 
L 92.885587 -232.663588 
L 95.947001 -231.072493 
L 99.008415 -229.481397 
L 102.06983 -227.890302 
L 105.131244 -226.299206 
L 108.192658 -224.581553 
L 111.254072 -222.833463 
L 114.315486 -221.323307 
L 117.3769 -219.927883 
L 120.438314 -218.18967 
L 123.499729 -216.522844 
L 126.561143 -214.965116 
L 129.622557 -213.407389 
L 132.683971 -211.849661 
L 135.745385 -210.291933 
L 138.806799 -208.632318 
L 141.868213 -206.640283 
L 144.929628 -204.4694 
L 147.991042 -202.927718 
L 151.052456 -201.496969 
L 154.11387 -199.795564 
L 157.175284 -198.028213 
L 160.236698 -196.260862 
L 163.298112 -194.598476 
L 166.359527 -192.951704 
L 169.420941 -191.484221 
L 172.482355 -190.182184 
L 175.543769 -188.694743 
L 178.605183 -186.758712 
L 181.666597 -184.821869 
L 184.728011 -182.935219 
L 187.789426 -181.163799 
L 190.85084 -179.353804 
L 193.912254 -178.012653 
L 196.973668 -176.265021 
L 200.035082 -174.330127 
L 203.096496 -172.487155 
L 206.15791 -170.301783 
L 209.219324 -168.072792 
L 212.280739 -166.352926 
L 215.342153 -164.487716 
L 218.403567 -162.619076 
L 221.464981 -160.813036 
L 224.526395 -158.866574 
L 227.587809 -156.669566 
L 230.649223 -154.470424 
L 233.710638 -152.266043 
L 236.772052 -150.058625 
L 239.833466 -148.216344 
L 242.89488 -146.040296 
L 245.956294 -143.681922 
L 249.017708 -141.93763 
L 252.079122 -139.26481 
L 255.140537 -136.707514 
L 258.201951 -133.932159 
L 261.263365 -131.430064 
L 264.324779 -128.979693 
L 267.386193 -126.529321 
L 270.447607 -124.07895 
L 273.509021 -121.447734 
L 276.570436 -118.916594 
L 279.63185 -116.162891 
L 282.693264 -113.6127 
L 285.754678 -111.432942 
L 288.816092 -108.699133 
L 291.877506 -105.967986 
L 294.93892 -103.236838 
L 298.000335 -100.649393 
L 301.061749 -97.980893 
L 304.123163 -95.510316 
L 307.184577 -93.097087 
L 310.245991 -90.650776 
L 313.307405 -88.204466 
L 316.368819 -85.582596 
L 319.430234 -82.739101 
L 322.491648 -79.895607 
L 325.553062 -77.052113 
L 328.614476 -74.208619 
L 331.67589 -71.575422 
L 334.737304 -68.991409 
L 337.798718 -66.449344 
L 340.860133 -63.81179 
L 343.921547 -61.217597 
L 346.982961 -58.623404 
L 350.044375 -56.03331 
L 350.044375 -103.904926 
L 350.044375 -103.904926 
L 346.982961 -105.279386 
L 343.921547 -107.073025 
L 340.860133 -108.866664 
L 337.798718 -110.628014 
L 334.737304 -112.27181 
L 331.67589 -113.912857 
L 328.614476 -115.740346 
L 325.553062 -117.728258 
L 322.491648 -119.672397 
L 319.430234 -121.634905 
L 316.368819 -123.823989 
L 313.307405 -125.870135 
L 310.245991 -127.847542 
L 307.184577 -129.892758 
L 304.123163 -131.861157 
L 301.061749 -133.707063 
L 298.000335 -135.595448 
L 294.93892 -137.999165 
L 291.877506 -140.045346 
L 288.816092 -142.025219 
L 285.754678 -144.138948 
L 282.693264 -146.306571 
L 279.63185 -148.569013 
L 276.570436 -150.622199 
L 273.509021 -152.782928 
L 270.447607 -155.129287 
L 267.386193 -157.361215 
L 264.324779 -159.673324 
L 261.263365 -161.912065 
L 258.201951 -164.116522 
L 255.140537 -166.34204 
L 252.079122 -168.525435 
L 249.017708 -170.893031 
L 245.956294 -173.24891 
L 242.89488 -175.437902 
L 239.833466 -177.774655 
L 236.772052 -180.143348 
L 233.710638 -182.57864 
L 230.649223 -185.008795 
L 227.587809 -187.39334 
L 224.526395 -189.64997 
L 221.464981 -191.906059 
L 218.403567 -194.166165 
L 215.342153 -196.541864 
L 212.280739 -198.928264 
L 209.219324 -201.314664 
L 206.15791 -203.701064 
L 203.096496 -206.092115 
L 200.035082 -208.553981 
L 196.973668 -211.039489 
L 193.912254 -213.522647 
L 190.85084 -216.018117 
L 187.789426 -218.489709 
L 184.728011 -220.899071 
L 181.666597 -223.412946 
L 178.605183 -225.853473 
L 175.543769 -228.384044 
L 172.482355 -230.915663 
L 169.420941 -233.26958 
L 166.359527 -235.874433 
L 163.298112 -238.371818 
L 160.236698 -240.881877 
L 157.175284 -243.343301 
L 154.11387 -245.951048 
L 151.052456 -248.557427 
L 147.991042 -250.983715 
L 144.929628 -253.410737 
L 141.868213 -255.942279 
L 138.806799 -258.51551 
L 135.745385 -261.134981 
L 132.683971 -263.606947 
L 129.622557 -266.093133 
L 126.561143 -268.719311 
L 123.499729 -271.349427 
L 120.438314 -273.864324 
L 117.3769 -276.439963 
L 114.315486 -279.113009 
L 111.254072 -281.782683 
L 108.192658 -284.44949 
L 105.131244 -286.920638 
L 102.06983 -289.342681 
L 99.008415 -291.763764 
L 95.947001 -294.290698 
L 92.885587 -296.912783 
L 89.824173 -299.657132 
L 86.762759 -302.033419 
L 83.701345 -304.540196 
L 80.639931 -307.193224 
L 77.578516 -309.788177 
L 74.517102 -312.532111 
L 71.455688 -315.197696 
L 68.394274 -317.859688 
L 65.33286 -320.549202 
L 62.271446 -323.191934 
L 59.210032 -325.85979 
L 56.148617 -328.523135 
L 53.087203 -331.184446 
L 50.025789 -333.845756 
L 46.964375 -336.432441 
z
" id="m5fefb3a458" style="stroke:#ffffff;stroke-opacity:0.15;"/>
    </defs>
    <g clip-path="url(#pbde84d4b0a)">
     <use style="fill:#4c72b0;fill-opacity:0.15;stroke:#ffffff;stroke-opacity:0.15;" x="0" xlink:href="#m5fefb3a458" y="363.514219"/>
    </g>
   </g>
   <g id="line2d_13">
    <path clip-path="url(#pbde84d4b0a)" d="M 46.964375 54.50466 
L 50.025789 56.779621 
L 53.087203 59.054583 
L 56.148617 61.329544 
L 59.210032 63.604505 
L 62.271446 65.879466 
L 65.33286 68.154428 
L 68.394274 70.429389 
L 71.455688 72.70435 
L 74.517102 74.979312 
L 77.578516 77.254273 
L 80.639931 79.529234 
L 83.701345 81.804195 
L 86.762759 84.079157 
L 89.824173 86.354118 
L 92.885587 88.629079 
L 95.947001 90.90404 
L 99.008415 93.179002 
L 102.06983 95.453963 
L 105.131244 97.728924 
L 108.192658 100.003886 
L 111.254072 102.278847 
L 114.315486 104.553808 
L 117.3769 106.828769 
L 120.438314 109.103731 
L 123.499729 111.378692 
L 126.561143 113.653653 
L 129.622557 115.928614 
L 132.683971 118.203576 
L 135.745385 120.478537 
L 138.806799 122.753498 
L 141.868213 125.02846 
L 144.929628 127.303421 
L 147.991042 129.578382 
L 151.052456 131.853343 
L 154.11387 134.128305 
L 157.175284 136.403266 
L 160.236698 138.678227 
L 163.298112 140.953189 
L 166.359527 143.22815 
L 169.420941 145.503111 
L 172.482355 147.778072 
L 175.543769 150.053034 
L 178.605183 152.327995 
L 181.666597 154.602956 
L 184.728011 156.877917 
L 187.789426 159.152879 
L 190.85084 161.42784 
L 193.912254 163.702801 
L 196.973668 165.977763 
L 200.035082 168.252724 
L 203.096496 170.527685 
L 206.15791 172.802646 
L 209.219324 175.077608 
L 212.280739 177.352569 
L 215.342153 179.62753 
L 218.403567 181.902491 
L 221.464981 184.177453 
L 224.526395 186.452414 
L 227.587809 188.727375 
L 230.649223 191.002337 
L 233.710638 193.277298 
L 236.772052 195.552259 
L 239.833466 197.82722 
L 242.89488 200.102182 
L 245.956294 202.377143 
L 249.017708 204.652104 
L 252.079122 206.927066 
L 255.140537 209.202027 
L 258.201951 211.476988 
L 261.263365 213.751949 
L 264.324779 216.026911 
L 267.386193 218.301872 
L 270.447607 220.576833 
L 273.509021 222.851794 
L 276.570436 225.126756 
L 279.63185 227.401717 
L 282.693264 229.676678 
L 285.754678 231.95164 
L 288.816092 234.226601 
L 291.877506 236.501562 
L 294.93892 238.776523 
L 298.000335 241.051485 
L 301.061749 243.326446 
L 304.123163 245.601407 
L 307.184577 247.876368 
L 310.245991 250.15133 
L 313.307405 252.426291 
L 316.368819 254.701252 
L 319.430234 256.976214 
L 322.491648 259.251175 
L 325.553062 261.526136 
L 328.614476 263.801097 
L 331.67589 266.076059 
L 334.737304 268.35102 
L 337.798718 270.625981 
L 340.860133 272.900943 
L 343.921547 275.175904 
L 346.982961 277.450865 
L 350.044375 279.725826 
" style="fill:none;stroke:#4c72b0;stroke-linecap:round;stroke-width:2.25;"/>
   </g>
   <g id="patch_3">
    <path d="M 46.964375 321.78 
L 46.964375 7.2 
" style="fill:none;stroke:#262626;stroke-linecap:square;stroke-linejoin:miter;stroke-width:1.25;"/>
   </g>
   <g id="patch_4">
    <path d="M 46.964375 321.78 
L 350.044375 321.78 
" style="fill:none;stroke:#262626;stroke-linecap:square;stroke-linejoin:miter;stroke-width:1.25;"/>
   </g>
  </g>
 </g>
 <defs>
  <clipPath id="pbde84d4b0a">
   <rect height="314.58" width="303.08" x="46.964375" y="7.2"/>
  </clipPath>
 </defs>
</svg>
