<?xml version="1.0" encoding="utf-8" standalone="no"?>
<!DOCTYPE svg PUBLIC "-//W3C//DTD SVG 1.1//EN"
  "http://www.w3.org/Graphics/SVG/1.1/DTD/svg11.dtd">
<!-- Created with matplotlib (https://matplotlib.org/) -->
<svg height="363.514219pt" version="1.1" viewBox="0 0 363.361406 363.514219" width="363.361406pt" xmlns="http://www.w3.org/2000/svg" xmlns:xlink="http://www.w3.org/1999/xlink">
 <metadata>
  <rdf:RDF xmlns:cc="http://creativecommons.org/ns#" xmlns:dc="http://purl.org/dc/elements/1.1/" xmlns:rdf="http://www.w3.org/1999/02/22-rdf-syntax-ns#">
   <cc:Work>
    <dc:type rdf:resource="http://purl.org/dc/dcmitype/StillImage"/>
    <dc:date>2021-03-11T19:24:53.179256</dc:date>
    <dc:format>image/svg+xml</dc:format>
    <dc:creator>
     <cc:Agent>
      <dc:title>Matplotlib v3.3.4, https://matplotlib.org/</dc:title>
     </cc:Agent>
    </dc:creator>
   </cc:Work>
  </rdf:RDF>
 </metadata>
 <defs>
  <style type="text/css">*{stroke-linecap:butt;stroke-linejoin:round;}</style>
 </defs>
 <g id="figure_1">
  <g id="patch_1">
   <path d="M 0 363.514219 
L 363.361406 363.514219 
L 363.361406 0 
L 0 0 
z
" style="fill:#ffffff;"/>
  </g>
  <g id="axes_1">
   <g id="patch_2">
    <path d="M 46.964375 321.78 
L 350.044375 321.78 
L 350.044375 7.2 
L 46.964375 7.2 
z
" style="fill:#ffffff;"/>
   </g>
   <g id="matplotlib.axis_1">
    <g id="xtick_1">
     <g id="line2d_1">
      <defs>
       <path d="M 0 0 
L 0 6 
" id="me341ae797b" style="stroke:#262626;stroke-width:1.25;"/>
      </defs>
      <g>
       <use style="fill:#262626;stroke:#262626;stroke-width:1.25;" x="70.278221" xlink:href="#me341ae797b" y="321.78"/>
      </g>
     </g>
     <g id="text_1">
      <!-- 2 -->
      <g style="fill:#262626;" transform="translate(67.219706 339.153594)scale(0.11 -0.11)">
       <defs>
        <path d="M 50.34375 8.453125 
L 50.34375 0 
L 3.03125 0 
Q 2.9375 3.171875 4.046875 6.109375 
Q 5.859375 10.9375 9.828125 15.625 
Q 13.8125 20.3125 21.34375 26.46875 
Q 33.015625 36.03125 37.109375 41.625 
Q 41.21875 47.21875 41.21875 52.203125 
Q 41.21875 57.421875 37.46875 61 
Q 33.734375 64.59375 27.734375 64.59375 
Q 21.390625 64.59375 17.578125 60.78125 
Q 13.765625 56.984375 13.71875 50.25 
L 4.6875 51.171875 
Q 5.609375 61.28125 11.65625 66.578125 
Q 17.71875 71.875 27.9375 71.875 
Q 38.234375 71.875 44.234375 66.15625 
Q 50.25 60.453125 50.25 52 
Q 50.25 47.703125 48.484375 43.546875 
Q 46.734375 39.40625 42.65625 34.8125 
Q 38.578125 30.21875 29.109375 22.21875 
Q 21.1875 15.578125 18.9375 13.203125 
Q 16.703125 10.84375 15.234375 8.453125 
z
" id="ArialMT-50"/>
       </defs>
       <use xlink:href="#ArialMT-50"/>
      </g>
     </g>
    </g>
    <g id="xtick_2">
     <g id="line2d_2">
      <g>
       <use style="fill:#262626;stroke:#262626;stroke-width:1.25;" x="116.905913" xlink:href="#me341ae797b" y="321.78"/>
      </g>
     </g>
     <g id="text_2">
      <!-- 4 -->
      <g style="fill:#262626;" transform="translate(113.847398 339.153594)scale(0.11 -0.11)">
       <defs>
        <path d="M 32.328125 0 
L 32.328125 17.140625 
L 1.265625 17.140625 
L 1.265625 25.203125 
L 33.9375 71.578125 
L 41.109375 71.578125 
L 41.109375 25.203125 
L 50.78125 25.203125 
L 50.78125 17.140625 
L 41.109375 17.140625 
L 41.109375 0 
z
M 32.328125 25.203125 
L 32.328125 57.46875 
L 9.90625 25.203125 
z
" id="ArialMT-52"/>
       </defs>
       <use xlink:href="#ArialMT-52"/>
      </g>
     </g>
    </g>
    <g id="xtick_3">
     <g id="line2d_3">
      <g>
       <use style="fill:#262626;stroke:#262626;stroke-width:1.25;" x="163.533606" xlink:href="#me341ae797b" y="321.78"/>
      </g>
     </g>
     <g id="text_3">
      <!-- 6 -->
      <g style="fill:#262626;" transform="translate(160.47509 339.153594)scale(0.11 -0.11)">
       <defs>
        <path d="M 49.75 54.046875 
L 41.015625 53.375 
Q 39.84375 58.546875 37.703125 60.890625 
Q 34.125 64.65625 28.90625 64.65625 
Q 24.703125 64.65625 21.53125 62.3125 
Q 17.390625 59.28125 14.984375 53.46875 
Q 12.59375 47.65625 12.5 36.921875 
Q 15.671875 41.75 20.265625 44.09375 
Q 24.859375 46.4375 29.890625 46.4375 
Q 38.671875 46.4375 44.84375 39.96875 
Q 51.03125 33.5 51.03125 23.25 
Q 51.03125 16.5 48.125 10.71875 
Q 45.21875 4.9375 40.140625 1.859375 
Q 35.0625 -1.21875 28.609375 -1.21875 
Q 17.625 -1.21875 10.6875 6.859375 
Q 3.765625 14.9375 3.765625 33.5 
Q 3.765625 54.25 11.421875 63.671875 
Q 18.109375 71.875 29.4375 71.875 
Q 37.890625 71.875 43.28125 67.140625 
Q 48.6875 62.40625 49.75 54.046875 
z
M 13.875 23.1875 
Q 13.875 18.65625 15.796875 14.5 
Q 17.71875 10.359375 21.1875 8.171875 
Q 24.65625 6 28.46875 6 
Q 34.03125 6 38.03125 10.484375 
Q 42.046875 14.984375 42.046875 22.703125 
Q 42.046875 30.125 38.078125 34.390625 
Q 34.125 38.671875 28.125 38.671875 
Q 22.171875 38.671875 18.015625 34.390625 
Q 13.875 30.125 13.875 23.1875 
z
" id="ArialMT-54"/>
       </defs>
       <use xlink:href="#ArialMT-54"/>
      </g>
     </g>
    </g>
    <g id="xtick_4">
     <g id="line2d_4">
      <g>
       <use style="fill:#262626;stroke:#262626;stroke-width:1.25;" x="210.161298" xlink:href="#me341ae797b" y="321.78"/>
      </g>
     </g>
     <g id="text_4">
      <!-- 8 -->
      <g style="fill:#262626;" transform="translate(207.102782 339.153594)scale(0.11 -0.11)">
       <defs>
        <path d="M 17.671875 38.8125 
Q 12.203125 40.828125 9.5625 44.53125 
Q 6.9375 48.25 6.9375 53.421875 
Q 6.9375 61.234375 12.546875 66.546875 
Q 18.171875 71.875 27.484375 71.875 
Q 36.859375 71.875 42.578125 66.421875 
Q 48.296875 60.984375 48.296875 53.171875 
Q 48.296875 48.1875 45.671875 44.5 
Q 43.0625 40.828125 37.75 38.8125 
Q 44.34375 36.671875 47.78125 31.875 
Q 51.21875 27.09375 51.21875 20.453125 
Q 51.21875 11.28125 44.71875 5.03125 
Q 38.234375 -1.21875 27.640625 -1.21875 
Q 17.046875 -1.21875 10.546875 5.046875 
Q 4.046875 11.328125 4.046875 20.703125 
Q 4.046875 27.6875 7.59375 32.390625 
Q 11.140625 37.109375 17.671875 38.8125 
z
M 15.921875 53.71875 
Q 15.921875 48.640625 19.1875 45.40625 
Q 22.46875 42.1875 27.6875 42.1875 
Q 32.765625 42.1875 36.015625 45.375 
Q 39.265625 48.578125 39.265625 53.21875 
Q 39.265625 58.0625 35.90625 61.359375 
Q 32.5625 64.65625 27.59375 64.65625 
Q 22.5625 64.65625 19.234375 61.421875 
Q 15.921875 58.203125 15.921875 53.71875 
z
M 13.09375 20.65625 
Q 13.09375 16.890625 14.875 13.375 
Q 16.65625 9.859375 20.171875 7.921875 
Q 23.6875 6 27.734375 6 
Q 34.03125 6 38.125 10.046875 
Q 42.234375 14.109375 42.234375 20.359375 
Q 42.234375 26.703125 38.015625 30.859375 
Q 33.796875 35.015625 27.4375 35.015625 
Q 21.234375 35.015625 17.15625 30.90625 
Q 13.09375 26.8125 13.09375 20.65625 
z
" id="ArialMT-56"/>
       </defs>
       <use xlink:href="#ArialMT-56"/>
      </g>
     </g>
    </g>
    <g id="xtick_5">
     <g id="line2d_5">
      <g>
       <use style="fill:#262626;stroke:#262626;stroke-width:1.25;" x="256.78899" xlink:href="#me341ae797b" y="321.78"/>
      </g>
     </g>
     <g id="text_5">
      <!-- 10 -->
      <g style="fill:#262626;" transform="translate(250.671959 339.153594)scale(0.11 -0.11)">
       <defs>
        <path d="M 37.25 0 
L 28.46875 0 
L 28.46875 56 
Q 25.296875 52.984375 20.140625 49.953125 
Q 14.984375 46.921875 10.890625 45.40625 
L 10.890625 53.90625 
Q 18.265625 57.375 23.78125 62.296875 
Q 29.296875 67.234375 31.59375 71.875 
L 37.25 71.875 
z
" id="ArialMT-49"/>
        <path d="M 4.15625 35.296875 
Q 4.15625 48 6.765625 55.734375 
Q 9.375 63.484375 14.515625 67.671875 
Q 19.671875 71.875 27.484375 71.875 
Q 33.25 71.875 37.59375 69.546875 
Q 41.9375 67.234375 44.765625 62.859375 
Q 47.609375 58.5 49.21875 52.21875 
Q 50.828125 45.953125 50.828125 35.296875 
Q 50.828125 22.703125 48.234375 14.96875 
Q 45.65625 7.234375 40.5 3 
Q 35.359375 -1.21875 27.484375 -1.21875 
Q 17.140625 -1.21875 11.234375 6.203125 
Q 4.15625 15.140625 4.15625 35.296875 
z
M 13.1875 35.296875 
Q 13.1875 17.671875 17.3125 11.828125 
Q 21.4375 6 27.484375 6 
Q 33.546875 6 37.671875 11.859375 
Q 41.796875 17.71875 41.796875 35.296875 
Q 41.796875 52.984375 37.671875 58.78125 
Q 33.546875 64.59375 27.390625 64.59375 
Q 21.34375 64.59375 17.71875 59.46875 
Q 13.1875 52.9375 13.1875 35.296875 
z
" id="ArialMT-48"/>
       </defs>
       <use xlink:href="#ArialMT-49"/>
       <use x="55.615234" xlink:href="#ArialMT-48"/>
      </g>
     </g>
    </g>
    <g id="xtick_6">
     <g id="line2d_6">
      <g>
       <use style="fill:#262626;stroke:#262626;stroke-width:1.25;" x="303.416683" xlink:href="#me341ae797b" y="321.78"/>
      </g>
     </g>
     <g id="text_6">
      <!-- 12 -->
      <g style="fill:#262626;" transform="translate(297.299651 339.153594)scale(0.11 -0.11)">
       <use xlink:href="#ArialMT-49"/>
       <use x="55.615234" xlink:href="#ArialMT-50"/>
      </g>
     </g>
    </g>
    <g id="xtick_7">
     <g id="line2d_7">
      <g>
       <use style="fill:#262626;stroke:#262626;stroke-width:1.25;" x="350.044375" xlink:href="#me341ae797b" y="321.78"/>
      </g>
     </g>
     <g id="text_7">
      <!-- 14 -->
      <g style="fill:#262626;" transform="translate(343.927344 339.153594)scale(0.11 -0.11)">
       <use xlink:href="#ArialMT-49"/>
       <use x="55.615234" xlink:href="#ArialMT-52"/>
      </g>
     </g>
    </g>
    <g id="text_8">
     <!-- a7a -->
     <g style="fill:#262626;" transform="translate(188.494687 353.929219)scale(0.12 -0.12)">
      <defs>
       <path d="M 40.4375 6.390625 
Q 35.546875 2.25 31.03125 0.53125 
Q 26.515625 -1.171875 21.34375 -1.171875 
Q 12.796875 -1.171875 8.203125 3 
Q 3.609375 7.171875 3.609375 13.671875 
Q 3.609375 17.484375 5.34375 20.625 
Q 7.078125 23.78125 9.890625 25.6875 
Q 12.703125 27.59375 16.21875 28.5625 
Q 18.796875 29.25 24.03125 29.890625 
Q 34.671875 31.15625 39.703125 32.90625 
Q 39.75 34.71875 39.75 35.203125 
Q 39.75 40.578125 37.25 42.78125 
Q 33.890625 45.75 27.25 45.75 
Q 21.046875 45.75 18.09375 43.578125 
Q 15.140625 41.40625 13.71875 35.890625 
L 5.125 37.0625 
Q 6.296875 42.578125 8.984375 45.96875 
Q 11.671875 49.359375 16.75 51.1875 
Q 21.828125 53.03125 28.515625 53.03125 
Q 35.15625 53.03125 39.296875 51.46875 
Q 43.453125 49.90625 45.40625 47.53125 
Q 47.359375 45.171875 48.140625 41.546875 
Q 48.578125 39.3125 48.578125 33.453125 
L 48.578125 21.734375 
Q 48.578125 9.46875 49.140625 6.21875 
Q 49.703125 2.984375 51.375 0 
L 42.1875 0 
Q 40.828125 2.734375 40.4375 6.390625 
z
M 39.703125 26.03125 
Q 34.90625 24.078125 25.34375 22.703125 
Q 19.921875 21.921875 17.671875 20.9375 
Q 15.4375 19.96875 14.203125 18.09375 
Q 12.984375 16.21875 12.984375 13.921875 
Q 12.984375 10.40625 15.640625 8.0625 
Q 18.3125 5.71875 23.4375 5.71875 
Q 28.515625 5.71875 32.46875 7.9375 
Q 36.421875 10.15625 38.28125 14.015625 
Q 39.703125 17 39.703125 22.796875 
z
" id="ArialMT-97"/>
       <path d="M 4.734375 62.203125 
L 4.734375 70.65625 
L 51.078125 70.65625 
L 51.078125 63.8125 
Q 44.234375 56.546875 37.515625 44.484375 
Q 30.8125 32.421875 27.15625 19.671875 
Q 24.515625 10.6875 23.78125 0 
L 14.75 0 
Q 14.890625 8.453125 18.0625 20.40625 
Q 21.234375 32.375 27.171875 43.484375 
Q 33.109375 54.59375 39.796875 62.203125 
z
" id="ArialMT-55"/>
      </defs>
      <use xlink:href="#ArialMT-97"/>
      <use x="55.615234" xlink:href="#ArialMT-55"/>
      <use x="111.230469" xlink:href="#ArialMT-97"/>
     </g>
    </g>
   </g>
   <g id="matplotlib.axis_2">
    <g id="ytick_1">
     <g id="line2d_8">
      <defs>
       <path d="M 0 0 
L -6 0 
" id="m3d8edf5024" style="stroke:#262626;stroke-width:1.25;"/>
      </defs>
      <g>
       <use style="fill:#262626;stroke:#262626;stroke-width:1.25;" x="46.964375" xlink:href="#m3d8edf5024" y="277.066526"/>
      </g>
     </g>
     <g id="text_9">
      <!-- 1.8 -->
      <g style="fill:#262626;" transform="translate(22.174375 281.003323)scale(0.11 -0.11)">
       <defs>
        <path d="M 9.078125 0 
L 9.078125 10.015625 
L 19.09375 10.015625 
L 19.09375 0 
z
" id="ArialMT-46"/>
       </defs>
       <use xlink:href="#ArialMT-49"/>
       <use x="55.615234" xlink:href="#ArialMT-46"/>
       <use x="83.398438" xlink:href="#ArialMT-56"/>
      </g>
     </g>
    </g>
    <g id="ytick_2">
     <g id="line2d_9">
      <g>
       <use style="fill:#262626;stroke:#262626;stroke-width:1.25;" x="46.964375" xlink:href="#m3d8edf5024" y="214.124228"/>
      </g>
     </g>
     <g id="text_10">
      <!-- 2.0 -->
      <g style="fill:#262626;" transform="translate(22.174375 218.061025)scale(0.11 -0.11)">
       <use xlink:href="#ArialMT-50"/>
       <use x="55.615234" xlink:href="#ArialMT-46"/>
       <use x="83.398438" xlink:href="#ArialMT-48"/>
      </g>
     </g>
    </g>
    <g id="ytick_3">
     <g id="line2d_10">
      <g>
       <use style="fill:#262626;stroke:#262626;stroke-width:1.25;" x="46.964375" xlink:href="#m3d8edf5024" y="151.18193"/>
      </g>
     </g>
     <g id="text_11">
      <!-- 2.2 -->
      <g style="fill:#262626;" transform="translate(22.174375 155.118726)scale(0.11 -0.11)">
       <use xlink:href="#ArialMT-50"/>
       <use x="55.615234" xlink:href="#ArialMT-46"/>
       <use x="83.398438" xlink:href="#ArialMT-50"/>
      </g>
     </g>
    </g>
    <g id="ytick_4">
     <g id="line2d_11">
      <g>
       <use style="fill:#262626;stroke:#262626;stroke-width:1.25;" x="46.964375" xlink:href="#m3d8edf5024" y="88.239631"/>
      </g>
     </g>
     <g id="text_12">
      <!-- 2.4 -->
      <g style="fill:#262626;" transform="translate(22.174375 92.176428)scale(0.11 -0.11)">
       <use xlink:href="#ArialMT-50"/>
       <use x="55.615234" xlink:href="#ArialMT-46"/>
       <use x="83.398438" xlink:href="#ArialMT-52"/>
      </g>
     </g>
    </g>
    <g id="ytick_5">
     <g id="line2d_12">
      <g>
       <use style="fill:#262626;stroke:#262626;stroke-width:1.25;" x="46.964375" xlink:href="#m3d8edf5024" y="25.297333"/>
      </g>
     </g>
     <g id="text_13">
      <!-- 2.6 -->
      <g style="fill:#262626;" transform="translate(22.174375 29.23413)scale(0.11 -0.11)">
       <use xlink:href="#ArialMT-50"/>
       <use x="55.615234" xlink:href="#ArialMT-46"/>
       <use x="83.398438" xlink:href="#ArialMT-54"/>
      </g>
     </g>
    </g>
    <g id="text_14">
     <!-- l14d -->
     <g style="fill:#262626;" transform="translate(15.789375 175.832812)rotate(-90)scale(0.12 -0.12)">
      <defs>
       <path d="M 6.390625 0 
L 6.390625 71.578125 
L 15.1875 71.578125 
L 15.1875 0 
z
" id="ArialMT-108"/>
       <path d="M 40.234375 0 
L 40.234375 6.546875 
Q 35.296875 -1.171875 25.734375 -1.171875 
Q 19.53125 -1.171875 14.328125 2.25 
Q 9.125 5.671875 6.265625 11.796875 
Q 3.421875 17.921875 3.421875 25.875 
Q 3.421875 33.640625 6 39.96875 
Q 8.59375 46.296875 13.765625 49.65625 
Q 18.953125 53.03125 25.34375 53.03125 
Q 30.03125 53.03125 33.6875 51.046875 
Q 37.359375 49.078125 39.65625 45.90625 
L 39.65625 71.578125 
L 48.390625 71.578125 
L 48.390625 0 
z
M 12.453125 25.875 
Q 12.453125 15.921875 16.640625 10.984375 
Q 20.84375 6.0625 26.5625 6.0625 
Q 32.328125 6.0625 36.34375 10.765625 
Q 40.375 15.484375 40.375 25.140625 
Q 40.375 35.796875 36.265625 40.765625 
Q 32.171875 45.75 26.171875 45.75 
Q 20.3125 45.75 16.375 40.96875 
Q 12.453125 36.1875 12.453125 25.875 
z
" id="ArialMT-100"/>
      </defs>
      <use xlink:href="#ArialMT-108"/>
      <use x="22.216797" xlink:href="#ArialMT-49"/>
      <use x="77.832031" xlink:href="#ArialMT-52"/>
      <use x="133.447266" xlink:href="#ArialMT-100"/>
     </g>
    </g>
   </g>
   <g id="PathCollection_1">
    <defs>
     <path d="M 0 3 
C 0.795609 3 1.55874 2.683901 2.12132 2.12132 
C 2.683901 1.55874 3 0.795609 3 0 
C 3 -0.795609 2.683901 -1.55874 2.12132 -2.12132 
C 1.55874 -2.683901 0.795609 -3 0 -3 
C -0.795609 -3 -1.55874 -2.683901 -2.12132 -2.12132 
C -2.683901 -1.55874 -3 -0.795609 -3 0 
C -3 0.795609 -2.683901 1.55874 -2.12132 2.12132 
C -1.55874 2.683901 -0.795609 3 0 3 
z
" id="m626451bf12" style="stroke:#4c72b0;stroke-opacity:0.8;"/>
    </defs>
    <g clip-path="url(#p4c80de614f)">
     <use style="fill:#4c72b0;fill-opacity:0.8;stroke:#4c72b0;stroke-opacity:0.8;" x="46.964375" xlink:href="#m626451bf12" y="21.499091"/>
     <use style="fill:#4c72b0;fill-opacity:0.8;stroke:#4c72b0;stroke-opacity:0.8;" x="70.278221" xlink:href="#m626451bf12" y="71.07355"/>
     <use style="fill:#4c72b0;fill-opacity:0.8;stroke:#4c72b0;stroke-opacity:0.8;" x="93.592067" xlink:href="#m626451bf12" y="63.002862"/>
     <use style="fill:#4c72b0;fill-opacity:0.8;stroke:#4c72b0;stroke-opacity:0.8;" x="116.905913" xlink:href="#m626451bf12" y="103.392407"/>
     <use style="fill:#4c72b0;fill-opacity:0.8;stroke:#4c72b0;stroke-opacity:0.8;" x="140.21976" xlink:href="#m626451bf12" y="224.976348"/>
     <use style="fill:#4c72b0;fill-opacity:0.8;stroke:#4c72b0;stroke-opacity:0.8;" x="163.533606" xlink:href="#m626451bf12" y="120.582777"/>
     <use style="fill:#4c72b0;fill-opacity:0.8;stroke:#4c72b0;stroke-opacity:0.8;" x="186.847452" xlink:href="#m626451bf12" y="158.211019"/>
     <use style="fill:#4c72b0;fill-opacity:0.8;stroke:#4c72b0;stroke-opacity:0.8;" x="210.161298" xlink:href="#m626451bf12" y="194.45476"/>
     <use style="fill:#4c72b0;fill-opacity:0.8;stroke:#4c72b0;stroke-opacity:0.8;" x="233.475144" xlink:href="#m626451bf12" y="201.619135"/>
     <use style="fill:#4c72b0;fill-opacity:0.8;stroke:#4c72b0;stroke-opacity:0.8;" x="256.78899" xlink:href="#m626451bf12" y="207.953414"/>
     <use style="fill:#4c72b0;fill-opacity:0.8;stroke:#4c72b0;stroke-opacity:0.8;" x="280.102837" xlink:href="#m626451bf12" y="204.868008"/>
     <use style="fill:#4c72b0;fill-opacity:0.8;stroke:#4c72b0;stroke-opacity:0.8;" x="303.416683" xlink:href="#m626451bf12" y="224.221923"/>
     <use style="fill:#4c72b0;fill-opacity:0.8;stroke:#4c72b0;stroke-opacity:0.8;" x="326.730529" xlink:href="#m626451bf12" y="287.556909"/>
     <use style="fill:#4c72b0;fill-opacity:0.8;stroke:#4c72b0;stroke-opacity:0.8;" x="350.044375" xlink:href="#m626451bf12" y="266.576143"/>
    </g>
   </g>
   <g id="PolyCollection_1">
    <defs>
     <path d="M 46.964375 -334.721247 
L 46.964375 -259.949335 
L 50.025789 -258.328671 
L 53.087203 -256.709962 
L 56.148617 -255.091254 
L 59.210032 -253.472545 
L 62.271446 -251.853837 
L 65.33286 -250.235128 
L 68.394274 -248.61642 
L 71.455688 -246.997711 
L 74.517102 -245.379003 
L 77.578516 -243.760294 
L 80.639931 -242.141585 
L 83.701345 -240.354031 
L 86.762759 -238.735064 
L 89.824173 -237.16095 
L 92.885587 -235.588962 
L 95.947001 -233.955038 
L 99.008415 -232.223394 
L 102.06983 -230.414887 
L 105.131244 -228.754142 
L 108.192658 -227.015301 
L 111.254072 -225.283889 
L 114.315486 -223.70451 
L 117.3769 -221.815171 
L 120.438314 -220.065846 
L 123.499729 -218.334509 
L 126.561143 -216.603909 
L 129.622557 -214.873309 
L 132.683971 -213.1598 
L 135.745385 -211.436642 
L 138.806799 -209.870073 
L 141.868213 -207.983718 
L 144.929628 -206.196446 
L 147.991042 -204.354777 
L 151.052456 -202.291567 
L 154.11387 -200.224133 
L 157.175284 -198.267847 
L 160.236698 -196.623335 
L 163.298112 -194.840129 
L 166.359527 -193.244572 
L 169.420941 -191.649014 
L 172.482355 -189.845221 
L 175.543769 -188.023605 
L 178.605183 -186.19829 
L 181.666597 -184.358453 
L 184.728011 -182.493986 
L 187.789426 -180.448557 
L 190.85084 -178.393517 
L 193.912254 -176.289006 
L 196.973668 -174.324143 
L 200.035082 -172.28505 
L 203.096496 -170.241653 
L 206.15791 -168.420261 
L 209.219324 -166.39652 
L 212.280739 -164.499736 
L 215.342153 -162.447662 
L 218.403567 -160.591697 
L 221.464981 -158.249198 
L 224.526395 -156.136882 
L 227.587809 -154.232664 
L 230.649223 -152.328446 
L 233.710638 -149.943951 
L 236.772052 -147.738568 
L 239.833466 -145.692142 
L 242.89488 -143.642056 
L 245.956294 -141.582047 
L 249.017708 -139.317361 
L 252.079122 -136.939295 
L 255.140537 -135.215482 
L 258.201951 -132.96192 
L 261.263365 -130.460082 
L 264.324779 -127.81152 
L 267.386193 -125.099367 
L 270.447607 -122.674858 
L 273.509021 -120.025461 
L 276.570436 -117.407024 
L 279.63185 -115.101925 
L 282.693264 -112.377659 
L 285.754678 -109.580871 
L 288.816092 -107.337324 
L 291.877506 -104.763449 
L 294.93892 -102.209402 
L 298.000335 -99.955251 
L 301.061749 -97.230551 
L 304.123163 -94.524745 
L 307.184577 -91.965325 
L 310.245991 -89.493247 
L 313.307405 -87.120785 
L 316.368819 -84.709429 
L 319.430234 -82.175349 
L 322.491648 -79.743458 
L 325.553062 -77.358955 
L 328.614476 -74.979253 
L 331.67589 -72.438061 
L 334.737304 -69.862649 
L 337.798718 -66.987302 
L 340.860133 -64.118293 
L 343.921547 -61.256019 
L 346.982961 -58.643088 
L 350.044375 -56.03331 
L 350.044375 -102.615614 
L 350.044375 -102.615614 
L 346.982961 -104.729401 
L 343.921547 -106.658524 
L 340.860133 -108.296355 
L 337.798718 -109.868522 
L 334.737304 -111.44118 
L 331.67589 -113.211294 
L 328.614476 -115.301109 
L 325.553062 -117.472035 
L 322.491648 -119.649166 
L 319.430234 -121.668555 
L 316.368819 -123.634726 
L 313.307405 -125.6253 
L 310.245991 -127.521761 
L 307.184577 -129.61224 
L 304.123163 -131.806746 
L 301.061749 -133.816065 
L 298.000335 -135.631289 
L 294.93892 -137.923693 
L 291.877506 -140.21313 
L 288.816092 -141.856294 
L 285.754678 -143.982241 
L 282.693264 -146.152032 
L 279.63185 -148.534483 
L 276.570436 -150.444135 
L 273.509021 -152.824653 
L 270.447607 -155.089781 
L 267.386193 -157.413444 
L 264.324779 -159.660483 
L 261.263365 -161.983855 
L 258.201951 -164.307227 
L 255.140537 -166.624659 
L 252.079122 -168.971817 
L 249.017708 -171.334402 
L 245.956294 -173.583511 
L 242.89488 -175.904816 
L 239.833466 -178.177625 
L 236.772052 -180.497206 
L 233.710638 -182.807128 
L 230.649223 -185.046908 
L 227.587809 -187.239659 
L 224.526395 -189.587042 
L 221.464981 -192.109611 
L 218.403567 -194.472763 
L 215.342153 -196.797971 
L 212.280739 -199.119242 
L 209.219324 -201.464478 
L 206.15791 -203.823284 
L 203.096496 -206.157885 
L 200.035082 -208.495898 
L 196.973668 -210.833911 
L 193.912254 -213.232284 
L 190.85084 -215.712643 
L 187.789426 -218.194466 
L 184.728011 -220.570183 
L 181.666597 -223.070803 
L 178.605183 -225.464528 
L 175.543769 -227.998646 
L 172.482355 -230.478455 
L 169.420941 -232.908911 
L 166.359527 -235.32549 
L 163.298112 -237.762613 
L 160.236698 -240.189567 
L 157.175284 -242.569072 
L 154.11387 -244.918467 
L 151.052456 -247.41612 
L 147.991042 -249.90801 
L 144.929628 -252.41854 
L 141.868213 -255.005579 
L 138.806799 -257.644045 
L 135.745385 -260.250813 
L 132.683971 -262.889028 
L 129.622557 -265.360703 
L 126.561143 -267.841999 
L 123.499729 -270.303547 
L 120.438314 -272.845598 
L 117.3769 -275.426106 
L 114.315486 -277.938186 
L 111.254072 -280.585507 
L 108.192658 -283.058899 
L 105.131244 -285.578827 
L 102.06983 -288.142872 
L 99.008415 -290.747714 
L 95.947001 -293.310584 
L 92.885587 -295.963752 
L 89.824173 -298.550569 
L 86.762759 -301.061485 
L 83.701345 -303.572401 
L 80.639931 -306.202232 
L 77.578516 -308.853206 
L 74.517102 -311.504181 
L 71.455688 -314.136886 
L 68.394274 -316.711043 
L 65.33286 -319.462274 
L 62.271446 -322.119388 
L 59.210032 -324.769169 
L 56.148617 -327.359336 
L 53.087203 -329.79399 
L 50.025789 -332.225718 
L 46.964375 -334.721247 
z
" id="m81de4892da" style="stroke:#ffffff;stroke-opacity:0.15;"/>
    </defs>
    <g clip-path="url(#p4c80de614f)">
     <use style="fill:#4c72b0;fill-opacity:0.15;stroke:#ffffff;stroke-opacity:0.15;" x="0" xlink:href="#m81de4892da" y="363.514219"/>
    </g>
   </g>
   <g id="line2d_13">
    <path clip-path="url(#p4c80de614f)" d="M 46.964375 54.672631 
L 50.025789 56.95917 
L 53.087203 59.245709 
L 56.148617 61.532248 
L 59.210032 63.818787 
L 62.271446 66.105326 
L 65.33286 68.391865 
L 68.394274 70.678404 
L 71.455688 72.964943 
L 74.517102 75.251482 
L 77.578516 77.538021 
L 80.639931 79.82456 
L 83.701345 82.111099 
L 86.762759 84.397638 
L 89.824173 86.684177 
L 92.885587 88.970716 
L 95.947001 91.257255 
L 99.008415 93.543794 
L 102.06983 95.830333 
L 105.131244 98.116872 
L 108.192658 100.403411 
L 111.254072 102.68995 
L 114.315486 104.976489 
L 117.3769 107.263028 
L 120.438314 109.549567 
L 123.499729 111.836106 
L 126.561143 114.122645 
L 129.622557 116.409184 
L 132.683971 118.695723 
L 135.745385 120.982262 
L 138.806799 123.268801 
L 141.868213 125.555339 
L 144.929628 127.841878 
L 147.991042 130.128417 
L 151.052456 132.414956 
L 154.11387 134.701495 
L 157.175284 136.988034 
L 160.236698 139.274573 
L 163.298112 141.561112 
L 166.359527 143.847651 
L 169.420941 146.13419 
L 172.482355 148.420729 
L 175.543769 150.707268 
L 178.605183 152.993807 
L 181.666597 155.280346 
L 184.728011 157.566885 
L 187.789426 159.853424 
L 190.85084 162.139963 
L 193.912254 164.426502 
L 196.973668 166.713041 
L 200.035082 168.99958 
L 203.096496 171.286119 
L 206.15791 173.572658 
L 209.219324 175.859197 
L 212.280739 178.145736 
L 215.342153 180.432275 
L 218.403567 182.718814 
L 221.464981 185.005353 
L 224.526395 187.291892 
L 227.587809 189.578431 
L 230.649223 191.86497 
L 233.710638 194.151509 
L 236.772052 196.438048 
L 239.833466 198.724586 
L 242.89488 201.011125 
L 245.956294 203.297664 
L 249.017708 205.584203 
L 252.079122 207.870742 
L 255.140537 210.157281 
L 258.201951 212.44382 
L 261.263365 214.730359 
L 264.324779 217.016898 
L 267.386193 219.303437 
L 270.447607 221.589976 
L 273.509021 223.876515 
L 276.570436 226.163054 
L 279.63185 228.449593 
L 282.693264 230.736132 
L 285.754678 233.022671 
L 288.816092 235.30921 
L 291.877506 237.595749 
L 294.93892 239.882288 
L 298.000335 242.168827 
L 301.061749 244.455366 
L 304.123163 246.741905 
L 307.184577 249.028444 
L 310.245991 251.314983 
L 313.307405 253.601522 
L 316.368819 255.888061 
L 319.430234 258.1746 
L 322.491648 260.461139 
L 325.553062 262.747678 
L 328.614476 265.034217 
L 331.67589 267.320756 
L 334.737304 269.607295 
L 337.798718 271.893834 
L 340.860133 274.180372 
L 343.921547 276.466911 
L 346.982961 278.75345 
L 350.044375 281.039989 
" style="fill:none;stroke:#4c72b0;stroke-linecap:round;stroke-width:2.25;"/>
   </g>
   <g id="patch_3">
    <path d="M 46.964375 321.78 
L 46.964375 7.2 
" style="fill:none;stroke:#262626;stroke-linecap:square;stroke-linejoin:miter;stroke-width:1.25;"/>
   </g>
   <g id="patch_4">
    <path d="M 46.964375 321.78 
L 350.044375 321.78 
" style="fill:none;stroke:#262626;stroke-linecap:square;stroke-linejoin:miter;stroke-width:1.25;"/>
   </g>
  </g>
 </g>
 <defs>
  <clipPath id="p4c80de614f">
   <rect height="314.58" width="303.08" x="46.964375" y="7.2"/>
  </clipPath>
 </defs>
</svg>
