<?xml version="1.0" encoding="utf-8" standalone="no"?>
<!DOCTYPE svg PUBLIC "-//W3C//DTD SVG 1.1//EN"
  "http://www.w3.org/Graphics/SVG/1.1/DTD/svg11.dtd">
<!-- Created with matplotlib (https://matplotlib.org/) -->
<svg height="363.514219pt" version="1.1" viewBox="0 0 363.173906 363.514219" width="363.173906pt" xmlns="http://www.w3.org/2000/svg" xmlns:xlink="http://www.w3.org/1999/xlink">
 <metadata>
  <rdf:RDF xmlns:cc="http://creativecommons.org/ns#" xmlns:dc="http://purl.org/dc/elements/1.1/" xmlns:rdf="http://www.w3.org/1999/02/22-rdf-syntax-ns#">
   <cc:Work>
    <dc:type rdf:resource="http://purl.org/dc/dcmitype/StillImage"/>
    <dc:date>2021-03-11T18:20:11.607629</dc:date>
    <dc:format>image/svg+xml</dc:format>
    <dc:creator>
     <cc:Agent>
      <dc:title>Matplotlib v3.3.4, https://matplotlib.org/</dc:title>
     </cc:Agent>
    </dc:creator>
   </cc:Work>
  </rdf:RDF>
 </metadata>
 <defs>
  <style type="text/css">*{stroke-linecap:butt;stroke-linejoin:round;}</style>
 </defs>
 <g id="figure_1">
  <g id="patch_1">
   <path d="M 0 363.514219 
L 363.173906 363.514219 
L 363.173906 0 
L 0 0 
z
" style="fill:#ffffff;"/>
  </g>
  <g id="axes_1">
   <g id="patch_2">
    <path d="M 46.964375 321.78 
L 349.856875 321.78 
L 349.856875 7.2 
L 46.964375 7.2 
z
" style="fill:#ffffff;"/>
   </g>
   <g id="matplotlib.axis_1">
    <g id="xtick_1">
     <g id="line2d_1">
      <defs>
       <path d="M 0 0 
L 0 6 
" id="m4310d4eac6" style="stroke:#262626;stroke-width:1.25;"/>
      </defs>
      <g>
       <use style="fill:#262626;stroke:#262626;stroke-width:1.25;" x="70.263798" xlink:href="#m4310d4eac6" y="321.78"/>
      </g>
     </g>
     <g id="text_1">
      <!-- 2 -->
      <g style="fill:#262626;" transform="translate(67.205282 339.153594)scale(0.11 -0.11)">
       <defs>
        <path d="M 50.34375 8.453125 
L 50.34375 0 
L 3.03125 0 
Q 2.9375 3.171875 4.046875 6.109375 
Q 5.859375 10.9375 9.828125 15.625 
Q 13.8125 20.3125 21.34375 26.46875 
Q 33.015625 36.03125 37.109375 41.625 
Q 41.21875 47.21875 41.21875 52.203125 
Q 41.21875 57.421875 37.46875 61 
Q 33.734375 64.59375 27.734375 64.59375 
Q 21.390625 64.59375 17.578125 60.78125 
Q 13.765625 56.984375 13.71875 50.25 
L 4.6875 51.171875 
Q 5.609375 61.28125 11.65625 66.578125 
Q 17.71875 71.875 27.9375 71.875 
Q 38.234375 71.875 44.234375 66.15625 
Q 50.25 60.453125 50.25 52 
Q 50.25 47.703125 48.484375 43.546875 
Q 46.734375 39.40625 42.65625 34.8125 
Q 38.578125 30.21875 29.109375 22.21875 
Q 21.1875 15.578125 18.9375 13.203125 
Q 16.703125 10.84375 15.234375 8.453125 
z
" id="ArialMT-50"/>
       </defs>
       <use xlink:href="#ArialMT-50"/>
      </g>
     </g>
    </g>
    <g id="xtick_2">
     <g id="line2d_2">
      <g>
       <use style="fill:#262626;stroke:#262626;stroke-width:1.25;" x="116.862644" xlink:href="#m4310d4eac6" y="321.78"/>
      </g>
     </g>
     <g id="text_2">
      <!-- 4 -->
      <g style="fill:#262626;" transform="translate(113.804129 339.153594)scale(0.11 -0.11)">
       <defs>
        <path d="M 32.328125 0 
L 32.328125 17.140625 
L 1.265625 17.140625 
L 1.265625 25.203125 
L 33.9375 71.578125 
L 41.109375 71.578125 
L 41.109375 25.203125 
L 50.78125 25.203125 
L 50.78125 17.140625 
L 41.109375 17.140625 
L 41.109375 0 
z
M 32.328125 25.203125 
L 32.328125 57.46875 
L 9.90625 25.203125 
z
" id="ArialMT-52"/>
       </defs>
       <use xlink:href="#ArialMT-52"/>
      </g>
     </g>
    </g>
    <g id="xtick_3">
     <g id="line2d_3">
      <g>
       <use style="fill:#262626;stroke:#262626;stroke-width:1.25;" x="163.46149" xlink:href="#m4310d4eac6" y="321.78"/>
      </g>
     </g>
     <g id="text_3">
      <!-- 6 -->
      <g style="fill:#262626;" transform="translate(160.402975 339.153594)scale(0.11 -0.11)">
       <defs>
        <path d="M 49.75 54.046875 
L 41.015625 53.375 
Q 39.84375 58.546875 37.703125 60.890625 
Q 34.125 64.65625 28.90625 64.65625 
Q 24.703125 64.65625 21.53125 62.3125 
Q 17.390625 59.28125 14.984375 53.46875 
Q 12.59375 47.65625 12.5 36.921875 
Q 15.671875 41.75 20.265625 44.09375 
Q 24.859375 46.4375 29.890625 46.4375 
Q 38.671875 46.4375 44.84375 39.96875 
Q 51.03125 33.5 51.03125 23.25 
Q 51.03125 16.5 48.125 10.71875 
Q 45.21875 4.9375 40.140625 1.859375 
Q 35.0625 -1.21875 28.609375 -1.21875 
Q 17.625 -1.21875 10.6875 6.859375 
Q 3.765625 14.9375 3.765625 33.5 
Q 3.765625 54.25 11.421875 63.671875 
Q 18.109375 71.875 29.4375 71.875 
Q 37.890625 71.875 43.28125 67.140625 
Q 48.6875 62.40625 49.75 54.046875 
z
M 13.875 23.1875 
Q 13.875 18.65625 15.796875 14.5 
Q 17.71875 10.359375 21.1875 8.171875 
Q 24.65625 6 28.46875 6 
Q 34.03125 6 38.03125 10.484375 
Q 42.046875 14.984375 42.046875 22.703125 
Q 42.046875 30.125 38.078125 34.390625 
Q 34.125 38.671875 28.125 38.671875 
Q 22.171875 38.671875 18.015625 34.390625 
Q 13.875 30.125 13.875 23.1875 
z
" id="ArialMT-54"/>
       </defs>
       <use xlink:href="#ArialMT-54"/>
      </g>
     </g>
    </g>
    <g id="xtick_4">
     <g id="line2d_4">
      <g>
       <use style="fill:#262626;stroke:#262626;stroke-width:1.25;" x="210.060337" xlink:href="#m4310d4eac6" y="321.78"/>
      </g>
     </g>
     <g id="text_4">
      <!-- 8 -->
      <g style="fill:#262626;" transform="translate(207.001821 339.153594)scale(0.11 -0.11)">
       <defs>
        <path d="M 17.671875 38.8125 
Q 12.203125 40.828125 9.5625 44.53125 
Q 6.9375 48.25 6.9375 53.421875 
Q 6.9375 61.234375 12.546875 66.546875 
Q 18.171875 71.875 27.484375 71.875 
Q 36.859375 71.875 42.578125 66.421875 
Q 48.296875 60.984375 48.296875 53.171875 
Q 48.296875 48.1875 45.671875 44.5 
Q 43.0625 40.828125 37.75 38.8125 
Q 44.34375 36.671875 47.78125 31.875 
Q 51.21875 27.09375 51.21875 20.453125 
Q 51.21875 11.28125 44.71875 5.03125 
Q 38.234375 -1.21875 27.640625 -1.21875 
Q 17.046875 -1.21875 10.546875 5.046875 
Q 4.046875 11.328125 4.046875 20.703125 
Q 4.046875 27.6875 7.59375 32.390625 
Q 11.140625 37.109375 17.671875 38.8125 
z
M 15.921875 53.71875 
Q 15.921875 48.640625 19.1875 45.40625 
Q 22.46875 42.1875 27.6875 42.1875 
Q 32.765625 42.1875 36.015625 45.375 
Q 39.265625 48.578125 39.265625 53.21875 
Q 39.265625 58.0625 35.90625 61.359375 
Q 32.5625 64.65625 27.59375 64.65625 
Q 22.5625 64.65625 19.234375 61.421875 
Q 15.921875 58.203125 15.921875 53.71875 
z
M 13.09375 20.65625 
Q 13.09375 16.890625 14.875 13.375 
Q 16.65625 9.859375 20.171875 7.921875 
Q 23.6875 6 27.734375 6 
Q 34.03125 6 38.125 10.046875 
Q 42.234375 14.109375 42.234375 20.359375 
Q 42.234375 26.703125 38.015625 30.859375 
Q 33.796875 35.015625 27.4375 35.015625 
Q 21.234375 35.015625 17.15625 30.90625 
Q 13.09375 26.8125 13.09375 20.65625 
z
" id="ArialMT-56"/>
       </defs>
       <use xlink:href="#ArialMT-56"/>
      </g>
     </g>
    </g>
    <g id="xtick_5">
     <g id="line2d_5">
      <g>
       <use style="fill:#262626;stroke:#262626;stroke-width:1.25;" x="256.659183" xlink:href="#m4310d4eac6" y="321.78"/>
      </g>
     </g>
     <g id="text_5">
      <!-- 10 -->
      <g style="fill:#262626;" transform="translate(250.542151 339.153594)scale(0.11 -0.11)">
       <defs>
        <path d="M 37.25 0 
L 28.46875 0 
L 28.46875 56 
Q 25.296875 52.984375 20.140625 49.953125 
Q 14.984375 46.921875 10.890625 45.40625 
L 10.890625 53.90625 
Q 18.265625 57.375 23.78125 62.296875 
Q 29.296875 67.234375 31.59375 71.875 
L 37.25 71.875 
z
" id="ArialMT-49"/>
        <path d="M 4.15625 35.296875 
Q 4.15625 48 6.765625 55.734375 
Q 9.375 63.484375 14.515625 67.671875 
Q 19.671875 71.875 27.484375 71.875 
Q 33.25 71.875 37.59375 69.546875 
Q 41.9375 67.234375 44.765625 62.859375 
Q 47.609375 58.5 49.21875 52.21875 
Q 50.828125 45.953125 50.828125 35.296875 
Q 50.828125 22.703125 48.234375 14.96875 
Q 45.65625 7.234375 40.5 3 
Q 35.359375 -1.21875 27.484375 -1.21875 
Q 17.140625 -1.21875 11.234375 6.203125 
Q 4.15625 15.140625 4.15625 35.296875 
z
M 13.1875 35.296875 
Q 13.1875 17.671875 17.3125 11.828125 
Q 21.4375 6 27.484375 6 
Q 33.546875 6 37.671875 11.859375 
Q 41.796875 17.71875 41.796875 35.296875 
Q 41.796875 52.984375 37.671875 58.78125 
Q 33.546875 64.59375 27.390625 64.59375 
Q 21.34375 64.59375 17.71875 59.46875 
Q 13.1875 52.9375 13.1875 35.296875 
z
" id="ArialMT-48"/>
       </defs>
       <use xlink:href="#ArialMT-49"/>
       <use x="55.615234" xlink:href="#ArialMT-48"/>
      </g>
     </g>
    </g>
    <g id="xtick_6">
     <g id="line2d_6">
      <g>
       <use style="fill:#262626;stroke:#262626;stroke-width:1.25;" x="303.258029" xlink:href="#m4310d4eac6" y="321.78"/>
      </g>
     </g>
     <g id="text_6">
      <!-- 12 -->
      <g style="fill:#262626;" transform="translate(297.140998 339.153594)scale(0.11 -0.11)">
       <use xlink:href="#ArialMT-49"/>
       <use x="55.615234" xlink:href="#ArialMT-50"/>
      </g>
     </g>
    </g>
    <g id="xtick_7">
     <g id="line2d_7">
      <g>
       <use style="fill:#262626;stroke:#262626;stroke-width:1.25;" x="349.856875" xlink:href="#m4310d4eac6" y="321.78"/>
      </g>
     </g>
     <g id="text_7">
      <!-- 14 -->
      <g style="fill:#262626;" transform="translate(343.739844 339.153594)scale(0.11 -0.11)">
       <use xlink:href="#ArialMT-49"/>
       <use x="55.615234" xlink:href="#ArialMT-52"/>
      </g>
     </g>
    </g>
    <g id="text_8">
     <!-- a7a -->
     <g style="fill:#262626;" transform="translate(188.400937 353.929219)scale(0.12 -0.12)">
      <defs>
       <path d="M 40.4375 6.390625 
Q 35.546875 2.25 31.03125 0.53125 
Q 26.515625 -1.171875 21.34375 -1.171875 
Q 12.796875 -1.171875 8.203125 3 
Q 3.609375 7.171875 3.609375 13.671875 
Q 3.609375 17.484375 5.34375 20.625 
Q 7.078125 23.78125 9.890625 25.6875 
Q 12.703125 27.59375 16.21875 28.5625 
Q 18.796875 29.25 24.03125 29.890625 
Q 34.671875 31.15625 39.703125 32.90625 
Q 39.75 34.71875 39.75 35.203125 
Q 39.75 40.578125 37.25 42.78125 
Q 33.890625 45.75 27.25 45.75 
Q 21.046875 45.75 18.09375 43.578125 
Q 15.140625 41.40625 13.71875 35.890625 
L 5.125 37.0625 
Q 6.296875 42.578125 8.984375 45.96875 
Q 11.671875 49.359375 16.75 51.1875 
Q 21.828125 53.03125 28.515625 53.03125 
Q 35.15625 53.03125 39.296875 51.46875 
Q 43.453125 49.90625 45.40625 47.53125 
Q 47.359375 45.171875 48.140625 41.546875 
Q 48.578125 39.3125 48.578125 33.453125 
L 48.578125 21.734375 
Q 48.578125 9.46875 49.140625 6.21875 
Q 49.703125 2.984375 51.375 0 
L 42.1875 0 
Q 40.828125 2.734375 40.4375 6.390625 
z
M 39.703125 26.03125 
Q 34.90625 24.078125 25.34375 22.703125 
Q 19.921875 21.921875 17.671875 20.9375 
Q 15.4375 19.96875 14.203125 18.09375 
Q 12.984375 16.21875 12.984375 13.921875 
Q 12.984375 10.40625 15.640625 8.0625 
Q 18.3125 5.71875 23.4375 5.71875 
Q 28.515625 5.71875 32.46875 7.9375 
Q 36.421875 10.15625 38.28125 14.015625 
Q 39.703125 17 39.703125 22.796875 
z
" id="ArialMT-97"/>
       <path d="M 4.734375 62.203125 
L 4.734375 70.65625 
L 51.078125 70.65625 
L 51.078125 63.8125 
Q 44.234375 56.546875 37.515625 44.484375 
Q 30.8125 32.421875 27.15625 19.671875 
Q 24.515625 10.6875 23.78125 0 
L 14.75 0 
Q 14.890625 8.453125 18.0625 20.40625 
Q 21.234375 32.375 27.171875 43.484375 
Q 33.109375 54.59375 39.796875 62.203125 
z
" id="ArialMT-55"/>
      </defs>
      <use xlink:href="#ArialMT-97"/>
      <use x="55.615234" xlink:href="#ArialMT-55"/>
      <use x="111.230469" xlink:href="#ArialMT-97"/>
     </g>
    </g>
   </g>
   <g id="matplotlib.axis_2">
    <g id="ytick_1">
     <g id="line2d_8">
      <defs>
       <path d="M 0 0 
L -6 0 
" id="m6ac05e1652" style="stroke:#262626;stroke-width:1.25;"/>
      </defs>
      <g>
       <use style="fill:#262626;stroke:#262626;stroke-width:1.25;" x="46.964375" xlink:href="#m6ac05e1652" y="281.436724"/>
      </g>
     </g>
     <g id="text_9">
      <!-- 1.8 -->
      <g style="fill:#262626;" transform="translate(22.174375 285.373521)scale(0.11 -0.11)">
       <defs>
        <path d="M 9.078125 0 
L 9.078125 10.015625 
L 19.09375 10.015625 
L 19.09375 0 
z
" id="ArialMT-46"/>
       </defs>
       <use xlink:href="#ArialMT-49"/>
       <use x="55.615234" xlink:href="#ArialMT-46"/>
       <use x="83.398438" xlink:href="#ArialMT-56"/>
      </g>
     </g>
    </g>
    <g id="ytick_2">
     <g id="line2d_9">
      <g>
       <use style="fill:#262626;stroke:#262626;stroke-width:1.25;" x="46.964375" xlink:href="#m6ac05e1652" y="217.418114"/>
      </g>
     </g>
     <g id="text_10">
      <!-- 2.0 -->
      <g style="fill:#262626;" transform="translate(22.174375 221.35491)scale(0.11 -0.11)">
       <use xlink:href="#ArialMT-50"/>
       <use x="55.615234" xlink:href="#ArialMT-46"/>
       <use x="83.398438" xlink:href="#ArialMT-48"/>
      </g>
     </g>
    </g>
    <g id="ytick_3">
     <g id="line2d_10">
      <g>
       <use style="fill:#262626;stroke:#262626;stroke-width:1.25;" x="46.964375" xlink:href="#m6ac05e1652" y="153.399503"/>
      </g>
     </g>
     <g id="text_11">
      <!-- 2.2 -->
      <g style="fill:#262626;" transform="translate(22.174375 157.3363)scale(0.11 -0.11)">
       <use xlink:href="#ArialMT-50"/>
       <use x="55.615234" xlink:href="#ArialMT-46"/>
       <use x="83.398438" xlink:href="#ArialMT-50"/>
      </g>
     </g>
    </g>
    <g id="ytick_4">
     <g id="line2d_11">
      <g>
       <use style="fill:#262626;stroke:#262626;stroke-width:1.25;" x="46.964375" xlink:href="#m6ac05e1652" y="89.380893"/>
      </g>
     </g>
     <g id="text_12">
      <!-- 2.4 -->
      <g style="fill:#262626;" transform="translate(22.174375 93.31769)scale(0.11 -0.11)">
       <use xlink:href="#ArialMT-50"/>
       <use x="55.615234" xlink:href="#ArialMT-46"/>
       <use x="83.398438" xlink:href="#ArialMT-52"/>
      </g>
     </g>
    </g>
    <g id="ytick_5">
     <g id="line2d_12">
      <g>
       <use style="fill:#262626;stroke:#262626;stroke-width:1.25;" x="46.964375" xlink:href="#m6ac05e1652" y="25.362283"/>
      </g>
     </g>
     <g id="text_13">
      <!-- 2.6 -->
      <g style="fill:#262626;" transform="translate(22.174375 29.29908)scale(0.11 -0.11)">
       <use xlink:href="#ArialMT-50"/>
       <use x="55.615234" xlink:href="#ArialMT-46"/>
       <use x="83.398438" xlink:href="#ArialMT-54"/>
      </g>
     </g>
    </g>
    <g id="text_14">
     <!-- l14d -->
     <g style="fill:#262626;" transform="translate(15.789375 175.832812)rotate(-90)scale(0.12 -0.12)">
      <defs>
       <path d="M 6.390625 0 
L 6.390625 71.578125 
L 15.1875 71.578125 
L 15.1875 0 
z
" id="ArialMT-108"/>
       <path d="M 40.234375 0 
L 40.234375 6.546875 
Q 35.296875 -1.171875 25.734375 -1.171875 
Q 19.53125 -1.171875 14.328125 2.25 
Q 9.125 5.671875 6.265625 11.796875 
Q 3.421875 17.921875 3.421875 25.875 
Q 3.421875 33.640625 6 39.96875 
Q 8.59375 46.296875 13.765625 49.65625 
Q 18.953125 53.03125 25.34375 53.03125 
Q 30.03125 53.03125 33.6875 51.046875 
Q 37.359375 49.078125 39.65625 45.90625 
L 39.65625 71.578125 
L 48.390625 71.578125 
L 48.390625 0 
z
M 12.453125 25.875 
Q 12.453125 15.921875 16.640625 10.984375 
Q 20.84375 6.0625 26.5625 6.0625 
Q 32.328125 6.0625 36.34375 10.765625 
Q 40.375 15.484375 40.375 25.140625 
Q 40.375 35.796875 36.265625 40.765625 
Q 32.171875 45.75 26.171875 45.75 
Q 20.3125 45.75 16.375 40.96875 
Q 12.453125 36.1875 12.453125 25.875 
z
" id="ArialMT-100"/>
      </defs>
      <use xlink:href="#ArialMT-108"/>
      <use x="22.216797" xlink:href="#ArialMT-49"/>
      <use x="77.832031" xlink:href="#ArialMT-52"/>
      <use x="133.447266" xlink:href="#ArialMT-100"/>
     </g>
    </g>
   </g>
   <g id="PathCollection_1">
    <defs>
     <path d="M 0 3 
C 0.795609 3 1.55874 2.683901 2.12132 2.12132 
C 2.683901 1.55874 3 0.795609 3 0 
C 3 -0.795609 2.683901 -1.55874 2.12132 -2.12132 
C 1.55874 -2.683901 0.795609 -3 0 -3 
C -0.795609 -3 -1.55874 -2.683901 -2.12132 -2.12132 
C -2.683901 -1.55874 -3 -0.795609 -3 0 
C -3 0.795609 -2.683901 1.55874 -2.12132 2.12132 
C -1.55874 2.683901 -0.795609 3 0 3 
z
" id="mf82ab7b8db" style="stroke:#4c72b0;stroke-opacity:0.8;"/>
    </defs>
    <g clip-path="url(#pe6b12e0ac4)">
     <use style="fill:#4c72b0;fill-opacity:0.8;stroke:#4c72b0;stroke-opacity:0.8;" x="46.964375" xlink:href="#mf82ab7b8db" y="21.499091"/>
     <use style="fill:#4c72b0;fill-opacity:0.8;stroke:#4c72b0;stroke-opacity:0.8;" x="70.263798" xlink:href="#mf82ab7b8db" y="71.921272"/>
     <use style="fill:#4c72b0;fill-opacity:0.8;stroke:#4c72b0;stroke-opacity:0.8;" x="93.563221" xlink:href="#mf82ab7b8db" y="63.712576"/>
     <use style="fill:#4c72b0;fill-opacity:0.8;stroke:#4c72b0;stroke-opacity:0.8;" x="116.862644" xlink:href="#mf82ab7b8db" y="104.792781"/>
     <use style="fill:#4c72b0;fill-opacity:0.8;stroke:#4c72b0;stroke-opacity:0.8;" x="140.162067" xlink:href="#mf82ab7b8db" y="228.455805"/>
     <use style="fill:#4c72b0;fill-opacity:0.8;stroke:#4c72b0;stroke-opacity:0.8;" x="163.46149" xlink:href="#mf82ab7b8db" y="122.277106"/>
     <use style="fill:#4c72b0;fill-opacity:0.8;stroke:#4c72b0;stroke-opacity:0.8;" x="186.760913" xlink:href="#mf82ab7b8db" y="160.54879"/>
     <use style="fill:#4c72b0;fill-opacity:0.8;stroke:#4c72b0;stroke-opacity:0.8;" x="210.060337" xlink:href="#mf82ab7b8db" y="197.412298"/>
     <use style="fill:#4c72b0;fill-opacity:0.8;stroke:#4c72b0;stroke-opacity:0.8;" x="233.35976" xlink:href="#mf82ab7b8db" y="204.699184"/>
     <use style="fill:#4c72b0;fill-opacity:0.8;stroke:#4c72b0;stroke-opacity:0.8;" x="256.659183" xlink:href="#mf82ab7b8db" y="211.141779"/>
     <use style="fill:#4c72b0;fill-opacity:0.8;stroke:#4c72b0;stroke-opacity:0.8;" x="279.958606" xlink:href="#mf82ab7b8db" y="208.003612"/>
     <use style="fill:#4c72b0;fill-opacity:0.8;stroke:#4c72b0;stroke-opacity:0.8;" x="303.258029" xlink:href="#mf82ab7b8db" y="227.688479"/>
     <use style="fill:#4c72b0;fill-opacity:0.8;stroke:#4c72b0;stroke-opacity:0.8;" x="326.557452" xlink:href="#mf82ab7b8db" y="292.106492"/>
     <use style="fill:#4c72b0;fill-opacity:0.8;stroke:#4c72b0;stroke-opacity:0.8;" x="349.856875" xlink:href="#mf82ab7b8db" y="270.766955"/>
    </g>
   </g>
   <g id="PolyCollection_1">
    <defs>
     <path d="M 46.964375 -335.893932 
L 46.964375 -257.586829 
L 50.023895 -255.922864 
L 53.083415 -254.258899 
L 56.142936 -252.594934 
L 59.202456 -250.93097 
L 62.261976 -249.267005 
L 65.321496 -247.60646 
L 68.381016 -245.948254 
L 71.440537 -244.290049 
L 74.500057 -242.628643 
L 77.559577 -240.876897 
L 80.619097 -239.114419 
L 83.678617 -237.354506 
L 86.738138 -235.742233 
L 89.797658 -234.275061 
L 92.857178 -232.641672 
L 95.916698 -230.984104 
L 98.976218 -229.32787 
L 102.035739 -227.77609 
L 105.095259 -226.281633 
L 108.154779 -224.581251 
L 111.214299 -222.88087 
L 114.273819 -221.019534 
L 117.33334 -219.351048 
L 120.39286 -217.682562 
L 123.45238 -216.018516 
L 126.5119 -214.356201 
L 129.57142 -212.664143 
L 132.630941 -210.96373 
L 135.690461 -209.243136 
L 138.749981 -207.408229 
L 141.809501 -205.573322 
L 144.869021 -203.811368 
L 147.928542 -202.148143 
L 150.988062 -200.520225 
L 154.047582 -199.066275 
L 157.107102 -197.741741 
L 160.166622 -195.866427 
L 163.226143 -194.002658 
L 166.285663 -192.26118 
L 169.345183 -190.558783 
L 172.404703 -188.833797 
L 175.464223 -187.006373 
L 178.523744 -185.103012 
L 181.583264 -183.199651 
L 184.642784 -181.300439 
L 187.702304 -179.577561 
L 190.761824 -177.706961 
L 193.821345 -175.7516 
L 196.880865 -173.682845 
L 199.940385 -171.766116 
L 202.999905 -169.873468 
L 206.059426 -167.97058 
L 209.118946 -166.187495 
L 212.178466 -164.244772 
L 215.237986 -162.257232 
L 218.297506 -160.202434 
L 221.357027 -158.250494 
L 224.416547 -156.328018 
L 227.476067 -154.483958 
L 230.535587 -152.31355 
L 233.595107 -150.394993 
L 236.654628 -148.524638 
L 239.714148 -146.279977 
L 242.773668 -144.16228 
L 245.833188 -141.837207 
L 248.892708 -139.952676 
L 251.952229 -137.819712 
L 255.011749 -135.271844 
L 258.071269 -132.746478 
L 261.130789 -130.553297 
L 264.190309 -128.267898 
L 267.24983 -125.83724 
L 270.30935 -123.450181 
L 273.36887 -120.941489 
L 276.42839 -118.380945 
L 279.48791 -115.91479 
L 282.547431 -113.344624 
L 285.606951 -110.884245 
L 288.666471 -108.058104 
L 291.725991 -105.187793 
L 294.785511 -102.447261 
L 297.845032 -99.914933 
L 300.904552 -97.38944 
L 303.964072 -94.864771 
L 307.023592 -92.266339 
L 310.083112 -89.688818 
L 313.142633 -87.302304 
L 316.202153 -84.927467 
L 319.261673 -82.554746 
L 322.321193 -80.182025 
L 325.380713 -77.557499 
L 328.440234 -74.846096 
L 331.499754 -72.153548 
L 334.559274 -69.554901 
L 337.618794 -66.761559 
L 340.678314 -63.985183 
L 343.737835 -61.267015 
L 346.797355 -58.593008 
L 349.856875 -56.03331 
L 349.856875 -98.669158 
L 349.856875 -98.669158 
L 346.797355 -100.233591 
L 343.737835 -101.870057 
L 340.678314 -103.942869 
L 337.618794 -106.033656 
L 334.559274 -108.059241 
L 331.499754 -109.853829 
L 328.440234 -111.800186 
L 325.380713 -113.789548 
L 322.321193 -115.94897 
L 319.261673 -118.200826 
L 316.202153 -120.370212 
L 313.142633 -122.375479 
L 310.083112 -124.342713 
L 307.023592 -126.46426 
L 303.964072 -128.557466 
L 300.904552 -130.536942 
L 297.845032 -132.51408 
L 294.785511 -134.485667 
L 291.725991 -136.461022 
L 288.666471 -138.597316 
L 285.606951 -140.755658 
L 282.547431 -142.939374 
L 279.48791 -145.093827 
L 276.42839 -147.342437 
L 273.36887 -149.611277 
L 270.30935 -151.7874 
L 267.24983 -153.898823 
L 264.190309 -156.244259 
L 261.130789 -158.559722 
L 258.071269 -160.851116 
L 255.011749 -163.225317 
L 251.952229 -165.506035 
L 248.892708 -167.776908 
L 245.833188 -170.071657 
L 242.773668 -172.471481 
L 239.714148 -174.898631 
L 236.654628 -177.340875 
L 233.595107 -179.764997 
L 230.535587 -182.285361 
L 227.476067 -184.704765 
L 224.416547 -187.083814 
L 221.357027 -189.447214 
L 218.297506 -191.822206 
L 215.237986 -194.294815 
L 212.178466 -196.810174 
L 209.118946 -199.327228 
L 206.059426 -201.71826 
L 202.999905 -204.253505 
L 199.940385 -206.667896 
L 196.880865 -209.082506 
L 193.821345 -211.492153 
L 190.761824 -213.903367 
L 187.702304 -216.325481 
L 184.642784 -218.743904 
L 181.583264 -221.158364 
L 178.523744 -223.788078 
L 175.464223 -226.114265 
L 172.404703 -228.564923 
L 169.345183 -231.123318 
L 166.285663 -233.717951 
L 163.226143 -236.337119 
L 160.166622 -238.914272 
L 157.107102 -241.390314 
L 154.047582 -243.838828 
L 150.988062 -246.397257 
L 147.928542 -248.995104 
L 144.869021 -251.49022 
L 141.809501 -253.899121 
L 138.749981 -256.539746 
L 135.690461 -259.091901 
L 132.630941 -261.553935 
L 129.57142 -264.108986 
L 126.5119 -266.731598 
L 123.45238 -269.3171 
L 120.39286 -271.987356 
L 117.33334 -274.542403 
L 114.273819 -277.099875 
L 111.214299 -279.742178 
L 108.154779 -282.445643 
L 105.095259 -285.235916 
L 102.035739 -287.776091 
L 98.976218 -290.391473 
L 95.916698 -293.052186 
L 92.857178 -295.716435 
L 89.797658 -298.252795 
L 86.738138 -300.894049 
L 83.678617 -303.787177 
L 80.619097 -306.731102 
L 77.559577 -309.402982 
L 74.500057 -312.014236 
L 71.440537 -314.689317 
L 68.381016 -317.335764 
L 65.321496 -319.976997 
L 62.261976 -322.545289 
L 59.202456 -325.224375 
L 56.142936 -327.856181 
L 53.083415 -330.550946 
L 50.023895 -333.197196 
L 46.964375 -335.893932 
z
" id="mba76e16821" style="stroke:#ffffff;stroke-opacity:0.15;"/>
    </defs>
    <g clip-path="url(#pe6b12e0ac4)">
     <use style="fill:#4c72b0;fill-opacity:0.15;stroke:#ffffff;stroke-opacity:0.15;" x="0" xlink:href="#mba76e16821" y="363.514219"/>
    </g>
   </g>
   <g id="line2d_13">
    <path clip-path="url(#pe6b12e0ac4)" d="M 46.964375 55.239898 
L 50.023895 57.565537 
L 53.083415 59.891176 
L 56.142936 62.216814 
L 59.202456 64.542453 
L 62.261976 66.868092 
L 65.321496 69.193731 
L 68.381016 71.519369 
L 71.440537 73.845008 
L 74.500057 76.170647 
L 77.559577 78.496286 
L 80.619097 80.821924 
L 83.678617 83.147563 
L 86.738138 85.473202 
L 89.797658 87.798841 
L 92.857178 90.124479 
L 95.916698 92.450118 
L 98.976218 94.775757 
L 102.035739 97.101396 
L 105.095259 99.427034 
L 108.154779 101.752673 
L 111.214299 104.078312 
L 114.273819 106.40395 
L 117.33334 108.729589 
L 120.39286 111.055228 
L 123.45238 113.380867 
L 126.5119 115.706505 
L 129.57142 118.032144 
L 132.630941 120.357783 
L 135.690461 122.683422 
L 138.749981 125.00906 
L 141.809501 127.334699 
L 144.869021 129.660338 
L 147.928542 131.985977 
L 150.988062 134.311615 
L 154.047582 136.637254 
L 157.107102 138.962893 
L 160.166622 141.288531 
L 163.226143 143.61417 
L 166.285663 145.939809 
L 169.345183 148.265448 
L 172.404703 150.591086 
L 175.464223 152.916725 
L 178.523744 155.242364 
L 181.583264 157.568003 
L 184.642784 159.893641 
L 187.702304 162.21928 
L 190.761824 164.544919 
L 193.821345 166.870558 
L 196.880865 169.196196 
L 199.940385 171.521835 
L 202.999905 173.847474 
L 206.059426 176.173113 
L 209.118946 178.498751 
L 212.178466 180.82439 
L 215.237986 183.150029 
L 218.297506 185.475667 
L 221.357027 187.801306 
L 224.416547 190.126945 
L 227.476067 192.452584 
L 230.535587 194.778222 
L 233.595107 197.103861 
L 236.654628 199.4295 
L 239.714148 201.755139 
L 242.773668 204.080777 
L 245.833188 206.406416 
L 248.892708 208.732055 
L 251.952229 211.057694 
L 255.011749 213.383332 
L 258.071269 215.708971 
L 261.130789 218.03461 
L 264.190309 220.360249 
L 267.24983 222.685887 
L 270.30935 225.011526 
L 273.36887 227.337165 
L 276.42839 229.662803 
L 279.48791 231.988442 
L 282.547431 234.314081 
L 285.606951 236.63972 
L 288.666471 238.965358 
L 291.725991 241.290997 
L 294.785511 243.616636 
L 297.845032 245.942275 
L 300.904552 248.267913 
L 303.964072 250.593552 
L 307.023592 252.919191 
L 310.083112 255.24483 
L 313.142633 257.570468 
L 316.202153 259.896107 
L 319.261673 262.221746 
L 322.321193 264.547385 
L 325.380713 266.873023 
L 328.440234 269.198662 
L 331.499754 271.524301 
L 334.559274 273.849939 
L 337.618794 276.175578 
L 340.678314 278.501217 
L 343.737835 280.826856 
L 346.797355 283.152494 
L 349.856875 285.478133 
" style="fill:none;stroke:#4c72b0;stroke-linecap:round;stroke-width:2.25;"/>
   </g>
   <g id="patch_3">
    <path d="M 46.964375 321.78 
L 46.964375 7.2 
" style="fill:none;stroke:#262626;stroke-linecap:square;stroke-linejoin:miter;stroke-width:1.25;"/>
   </g>
   <g id="patch_4">
    <path d="M 46.964375 321.78 
L 349.856875 321.78 
" style="fill:none;stroke:#262626;stroke-linecap:square;stroke-linejoin:miter;stroke-width:1.25;"/>
   </g>
  </g>
 </g>
 <defs>
  <clipPath id="pe6b12e0ac4">
   <rect height="314.58" width="302.8925" x="46.964375" y="7.2"/>
  </clipPath>
 </defs>
</svg>
