<?xml version="1.0" encoding="utf-8" standalone="no"?>
<!DOCTYPE svg PUBLIC "-//W3C//DTD SVG 1.1//EN"
  "http://www.w3.org/Graphics/SVG/1.1/DTD/svg11.dtd">
<!-- Created with matplotlib (https://matplotlib.org/) -->
<svg height="491.126383pt" version="1.1" viewBox="0 0 428.9445 491.126383" width="428.9445pt" xmlns="http://www.w3.org/2000/svg" xmlns:xlink="http://www.w3.org/1999/xlink">
 <metadata>
  <rdf:RDF xmlns:cc="http://creativecommons.org/ns#" xmlns:dc="http://purl.org/dc/elements/1.1/" xmlns:rdf="http://www.w3.org/1999/02/22-rdf-syntax-ns#">
   <cc:Work>
    <dc:type rdf:resource="http://purl.org/dc/dcmitype/StillImage"/>
    <dc:date>2022-02-28T15:43:03.353425</dc:date>
    <dc:format>image/svg+xml</dc:format>
    <dc:creator>
     <cc:Agent>
      <dc:title>Matplotlib v3.3.4, https://matplotlib.org/</dc:title>
     </cc:Agent>
    </dc:creator>
   </cc:Work>
  </rdf:RDF>
 </metadata>
 <defs>
  <style type="text/css">*{stroke-linecap:butt;stroke-linejoin:round;}</style>
 </defs>
 <g id="figure_1">
  <g id="patch_1">
   <path d="M 0 491.126383 
L 428.9445 491.126383 
L 428.9445 0 
L 0 0 
z
" style="fill:#ffffff;"/>
  </g>
  <g id="axes_1">
   <g id="patch_2">
    <path d="M 110.4055 342.4585 
L 421.7445 342.4585 
L 421.7445 20.4945 
L 110.4055 20.4945 
z
" style="fill:#ffffff;"/>
   </g>
   <g id="matplotlib.axis_1">
    <g id="xtick_1">
     <g id="line2d_1">
      <defs>
       <path d="M 0 0 
L 0 4.8 
" id="m35fc4e21e4" style="stroke:#262626;"/>
      </defs>
      <g>
       <use style="fill:#262626;stroke:#262626;" x="110.4055" xlink:href="#m35fc4e21e4" y="342.4585"/>
      </g>
     </g>
     <g id="text_1">
      <!-- No Education -->
      <g style="fill:#262626;" transform="translate(93.477054 409.069559)rotate(-75)scale(0.088 -0.088)">
       <defs>
        <path d="M 9.8125 72.90625 
L 23.09375 72.90625 
L 55.421875 11.921875 
L 55.421875 72.90625 
L 64.984375 72.90625 
L 64.984375 0 
L 51.703125 0 
L 19.390625 60.984375 
L 19.390625 0 
L 9.8125 0 
z
" id="DejaVuSans-78"/>
        <path d="M 30.609375 48.390625 
Q 23.390625 48.390625 19.1875 42.75 
Q 14.984375 37.109375 14.984375 27.296875 
Q 14.984375 17.484375 19.15625 11.84375 
Q 23.34375 6.203125 30.609375 6.203125 
Q 37.796875 6.203125 41.984375 11.859375 
Q 46.1875 17.53125 46.1875 27.296875 
Q 46.1875 37.015625 41.984375 42.703125 
Q 37.796875 48.390625 30.609375 48.390625 
z
M 30.609375 56 
Q 42.328125 56 49.015625 48.375 
Q 55.71875 40.765625 55.71875 27.296875 
Q 55.71875 13.875 49.015625 6.21875 
Q 42.328125 -1.421875 30.609375 -1.421875 
Q 18.84375 -1.421875 12.171875 6.21875 
Q 5.515625 13.875 5.515625 27.296875 
Q 5.515625 40.765625 12.171875 48.375 
Q 18.84375 56 30.609375 56 
z
" id="DejaVuSans-111"/>
        <path id="DejaVuSans-32"/>
        <path d="M 9.8125 72.90625 
L 55.90625 72.90625 
L 55.90625 64.59375 
L 19.671875 64.59375 
L 19.671875 43.015625 
L 54.390625 43.015625 
L 54.390625 34.71875 
L 19.671875 34.71875 
L 19.671875 8.296875 
L 56.78125 8.296875 
L 56.78125 0 
L 9.8125 0 
z
" id="DejaVuSans-69"/>
        <path d="M 45.40625 46.390625 
L 45.40625 75.984375 
L 54.390625 75.984375 
L 54.390625 0 
L 45.40625 0 
L 45.40625 8.203125 
Q 42.578125 3.328125 38.25 0.953125 
Q 33.9375 -1.421875 27.875 -1.421875 
Q 17.96875 -1.421875 11.734375 6.484375 
Q 5.515625 14.40625 5.515625 27.296875 
Q 5.515625 40.1875 11.734375 48.09375 
Q 17.96875 56 27.875 56 
Q 33.9375 56 38.25 53.625 
Q 42.578125 51.265625 45.40625 46.390625 
z
M 14.796875 27.296875 
Q 14.796875 17.390625 18.875 11.75 
Q 22.953125 6.109375 30.078125 6.109375 
Q 37.203125 6.109375 41.296875 11.75 
Q 45.40625 17.390625 45.40625 27.296875 
Q 45.40625 37.203125 41.296875 42.84375 
Q 37.203125 48.484375 30.078125 48.484375 
Q 22.953125 48.484375 18.875 42.84375 
Q 14.796875 37.203125 14.796875 27.296875 
z
" id="DejaVuSans-100"/>
        <path d="M 8.5 21.578125 
L 8.5 54.6875 
L 17.484375 54.6875 
L 17.484375 21.921875 
Q 17.484375 14.15625 20.5 10.265625 
Q 23.53125 6.390625 29.59375 6.390625 
Q 36.859375 6.390625 41.078125 11.03125 
Q 45.3125 15.671875 45.3125 23.6875 
L 45.3125 54.6875 
L 54.296875 54.6875 
L 54.296875 0 
L 45.3125 0 
L 45.3125 8.40625 
Q 42.046875 3.421875 37.71875 1 
Q 33.40625 -1.421875 27.6875 -1.421875 
Q 18.265625 -1.421875 13.375 4.4375 
Q 8.5 10.296875 8.5 21.578125 
z
M 31.109375 56 
z
" id="DejaVuSans-117"/>
        <path d="M 48.78125 52.59375 
L 48.78125 44.1875 
Q 44.96875 46.296875 41.140625 47.34375 
Q 37.3125 48.390625 33.40625 48.390625 
Q 24.65625 48.390625 19.8125 42.84375 
Q 14.984375 37.3125 14.984375 27.296875 
Q 14.984375 17.28125 19.8125 11.734375 
Q 24.65625 6.203125 33.40625 6.203125 
Q 37.3125 6.203125 41.140625 7.25 
Q 44.96875 8.296875 48.78125 10.40625 
L 48.78125 2.09375 
Q 45.015625 0.34375 40.984375 -0.53125 
Q 36.96875 -1.421875 32.421875 -1.421875 
Q 20.0625 -1.421875 12.78125 6.34375 
Q 5.515625 14.109375 5.515625 27.296875 
Q 5.515625 40.671875 12.859375 48.328125 
Q 20.21875 56 33.015625 56 
Q 37.15625 56 41.109375 55.140625 
Q 45.0625 54.296875 48.78125 52.59375 
z
" id="DejaVuSans-99"/>
        <path d="M 34.28125 27.484375 
Q 23.390625 27.484375 19.1875 25 
Q 14.984375 22.515625 14.984375 16.5 
Q 14.984375 11.71875 18.140625 8.90625 
Q 21.296875 6.109375 26.703125 6.109375 
Q 34.1875 6.109375 38.703125 11.40625 
Q 43.21875 16.703125 43.21875 25.484375 
L 43.21875 27.484375 
z
M 52.203125 31.203125 
L 52.203125 0 
L 43.21875 0 
L 43.21875 8.296875 
Q 40.140625 3.328125 35.546875 0.953125 
Q 30.953125 -1.421875 24.3125 -1.421875 
Q 15.921875 -1.421875 10.953125 3.296875 
Q 6 8.015625 6 15.921875 
Q 6 25.140625 12.171875 29.828125 
Q 18.359375 34.515625 30.609375 34.515625 
L 43.21875 34.515625 
L 43.21875 35.40625 
Q 43.21875 41.609375 39.140625 45 
Q 35.0625 48.390625 27.6875 48.390625 
Q 23 48.390625 18.546875 47.265625 
Q 14.109375 46.140625 10.015625 43.890625 
L 10.015625 52.203125 
Q 14.9375 54.109375 19.578125 55.046875 
Q 24.21875 56 28.609375 56 
Q 40.484375 56 46.34375 49.84375 
Q 52.203125 43.703125 52.203125 31.203125 
z
" id="DejaVuSans-97"/>
        <path d="M 18.3125 70.21875 
L 18.3125 54.6875 
L 36.8125 54.6875 
L 36.8125 47.703125 
L 18.3125 47.703125 
L 18.3125 18.015625 
Q 18.3125 11.328125 20.140625 9.421875 
Q 21.96875 7.515625 27.59375 7.515625 
L 36.8125 7.515625 
L 36.8125 0 
L 27.59375 0 
Q 17.1875 0 13.234375 3.875 
Q 9.28125 7.765625 9.28125 18.015625 
L 9.28125 47.703125 
L 2.6875 47.703125 
L 2.6875 54.6875 
L 9.28125 54.6875 
L 9.28125 70.21875 
z
" id="DejaVuSans-116"/>
        <path d="M 9.421875 54.6875 
L 18.40625 54.6875 
L 18.40625 0 
L 9.421875 0 
z
M 9.421875 75.984375 
L 18.40625 75.984375 
L 18.40625 64.59375 
L 9.421875 64.59375 
z
" id="DejaVuSans-105"/>
        <path d="M 54.890625 33.015625 
L 54.890625 0 
L 45.90625 0 
L 45.90625 32.71875 
Q 45.90625 40.484375 42.875 44.328125 
Q 39.84375 48.1875 33.796875 48.1875 
Q 26.515625 48.1875 22.3125 43.546875 
Q 18.109375 38.921875 18.109375 30.90625 
L 18.109375 0 
L 9.078125 0 
L 9.078125 54.6875 
L 18.109375 54.6875 
L 18.109375 46.1875 
Q 21.34375 51.125 25.703125 53.5625 
Q 30.078125 56 35.796875 56 
Q 45.21875 56 50.046875 50.171875 
Q 54.890625 44.34375 54.890625 33.015625 
z
" id="DejaVuSans-110"/>
       </defs>
       <use xlink:href="#DejaVuSans-78"/>
       <use x="74.804688" xlink:href="#DejaVuSans-111"/>
       <use x="135.986328" xlink:href="#DejaVuSans-32"/>
       <use x="167.773438" xlink:href="#DejaVuSans-69"/>
       <use x="230.957031" xlink:href="#DejaVuSans-100"/>
       <use x="294.433594" xlink:href="#DejaVuSans-117"/>
       <use x="357.8125" xlink:href="#DejaVuSans-99"/>
       <use x="412.792969" xlink:href="#DejaVuSans-97"/>
       <use x="474.072266" xlink:href="#DejaVuSans-116"/>
       <use x="513.28125" xlink:href="#DejaVuSans-105"/>
       <use x="541.064453" xlink:href="#DejaVuSans-111"/>
       <use x="602.246094" xlink:href="#DejaVuSans-110"/>
      </g>
     </g>
    </g>
    <g id="xtick_2">
     <g id="line2d_2">
      <g>
       <use style="fill:#262626;stroke:#262626;" x="134.354654" xlink:href="#m35fc4e21e4" y="342.4585"/>
      </g>
     </g>
     <g id="text_2">
      <!-- Private School -->
      <g style="fill:#262626;" transform="translate(116.360714 413.046034)rotate(-75)scale(0.088 -0.088)">
       <defs>
        <path d="M 19.671875 64.796875 
L 19.671875 37.40625 
L 32.078125 37.40625 
Q 38.96875 37.40625 42.71875 40.96875 
Q 46.484375 44.53125 46.484375 51.125 
Q 46.484375 57.671875 42.71875 61.234375 
Q 38.96875 64.796875 32.078125 64.796875 
z
M 9.8125 72.90625 
L 32.078125 72.90625 
Q 44.34375 72.90625 50.609375 67.359375 
Q 56.890625 61.8125 56.890625 51.125 
Q 56.890625 40.328125 50.609375 34.8125 
Q 44.34375 29.296875 32.078125 29.296875 
L 19.671875 29.296875 
L 19.671875 0 
L 9.8125 0 
z
" id="DejaVuSans-80"/>
        <path d="M 41.109375 46.296875 
Q 39.59375 47.171875 37.8125 47.578125 
Q 36.03125 48 33.890625 48 
Q 26.265625 48 22.1875 43.046875 
Q 18.109375 38.09375 18.109375 28.8125 
L 18.109375 0 
L 9.078125 0 
L 9.078125 54.6875 
L 18.109375 54.6875 
L 18.109375 46.1875 
Q 20.953125 51.171875 25.484375 53.578125 
Q 30.03125 56 36.53125 56 
Q 37.453125 56 38.578125 55.875 
Q 39.703125 55.765625 41.0625 55.515625 
z
" id="DejaVuSans-114"/>
        <path d="M 2.984375 54.6875 
L 12.5 54.6875 
L 29.59375 8.796875 
L 46.6875 54.6875 
L 56.203125 54.6875 
L 35.6875 0 
L 23.484375 0 
z
" id="DejaVuSans-118"/>
        <path d="M 56.203125 29.59375 
L 56.203125 25.203125 
L 14.890625 25.203125 
Q 15.484375 15.921875 20.484375 11.0625 
Q 25.484375 6.203125 34.421875 6.203125 
Q 39.59375 6.203125 44.453125 7.46875 
Q 49.3125 8.734375 54.109375 11.28125 
L 54.109375 2.78125 
Q 49.265625 0.734375 44.1875 -0.34375 
Q 39.109375 -1.421875 33.890625 -1.421875 
Q 20.796875 -1.421875 13.15625 6.1875 
Q 5.515625 13.8125 5.515625 26.8125 
Q 5.515625 40.234375 12.765625 48.109375 
Q 20.015625 56 32.328125 56 
Q 43.359375 56 49.78125 48.890625 
Q 56.203125 41.796875 56.203125 29.59375 
z
M 47.21875 32.234375 
Q 47.125 39.59375 43.09375 43.984375 
Q 39.0625 48.390625 32.421875 48.390625 
Q 24.90625 48.390625 20.390625 44.140625 
Q 15.875 39.890625 15.1875 32.171875 
z
" id="DejaVuSans-101"/>
        <path d="M 53.515625 70.515625 
L 53.515625 60.890625 
Q 47.90625 63.578125 42.921875 64.890625 
Q 37.9375 66.21875 33.296875 66.21875 
Q 25.25 66.21875 20.875 63.09375 
Q 16.5 59.96875 16.5 54.203125 
Q 16.5 49.359375 19.40625 46.890625 
Q 22.3125 44.4375 30.421875 42.921875 
L 36.375 41.703125 
Q 47.40625 39.59375 52.65625 34.296875 
Q 57.90625 29 57.90625 20.125 
Q 57.90625 9.515625 50.796875 4.046875 
Q 43.703125 -1.421875 29.984375 -1.421875 
Q 24.8125 -1.421875 18.96875 -0.25 
Q 13.140625 0.921875 6.890625 3.21875 
L 6.890625 13.375 
Q 12.890625 10.015625 18.65625 8.296875 
Q 24.421875 6.59375 29.984375 6.59375 
Q 38.421875 6.59375 43.015625 9.90625 
Q 47.609375 13.234375 47.609375 19.390625 
Q 47.609375 24.75 44.3125 27.78125 
Q 41.015625 30.8125 33.5 32.328125 
L 27.484375 33.5 
Q 16.453125 35.6875 11.515625 40.375 
Q 6.59375 45.0625 6.59375 53.421875 
Q 6.59375 63.09375 13.40625 68.65625 
Q 20.21875 74.21875 32.171875 74.21875 
Q 37.3125 74.21875 42.625 73.28125 
Q 47.953125 72.359375 53.515625 70.515625 
z
" id="DejaVuSans-83"/>
        <path d="M 54.890625 33.015625 
L 54.890625 0 
L 45.90625 0 
L 45.90625 32.71875 
Q 45.90625 40.484375 42.875 44.328125 
Q 39.84375 48.1875 33.796875 48.1875 
Q 26.515625 48.1875 22.3125 43.546875 
Q 18.109375 38.921875 18.109375 30.90625 
L 18.109375 0 
L 9.078125 0 
L 9.078125 75.984375 
L 18.109375 75.984375 
L 18.109375 46.1875 
Q 21.34375 51.125 25.703125 53.5625 
Q 30.078125 56 35.796875 56 
Q 45.21875 56 50.046875 50.171875 
Q 54.890625 44.34375 54.890625 33.015625 
z
" id="DejaVuSans-104"/>
        <path d="M 9.421875 75.984375 
L 18.40625 75.984375 
L 18.40625 0 
L 9.421875 0 
z
" id="DejaVuSans-108"/>
       </defs>
       <use xlink:href="#DejaVuSans-80"/>
       <use x="58.552734" xlink:href="#DejaVuSans-114"/>
       <use x="99.666016" xlink:href="#DejaVuSans-105"/>
       <use x="127.449219" xlink:href="#DejaVuSans-118"/>
       <use x="186.628906" xlink:href="#DejaVuSans-97"/>
       <use x="247.908203" xlink:href="#DejaVuSans-116"/>
       <use x="287.117188" xlink:href="#DejaVuSans-101"/>
       <use x="348.640625" xlink:href="#DejaVuSans-32"/>
       <use x="380.427734" xlink:href="#DejaVuSans-83"/>
       <use x="443.904297" xlink:href="#DejaVuSans-99"/>
       <use x="498.884766" xlink:href="#DejaVuSans-104"/>
       <use x="562.263672" xlink:href="#DejaVuSans-111"/>
       <use x="623.445312" xlink:href="#DejaVuSans-111"/>
       <use x="684.626953" xlink:href="#DejaVuSans-108"/>
      </g>
     </g>
    </g>
    <g id="xtick_3">
     <g id="line2d_3">
      <g>
       <use style="fill:#262626;stroke:#262626;" x="158.303808" xlink:href="#m35fc4e21e4" y="342.4585"/>
      </g>
     </g>
     <g id="text_3">
      <!-- Primary School -->
      <g style="fill:#262626;" transform="translate(139.449359 416.257496)rotate(-75)scale(0.088 -0.088)">
       <defs>
        <path d="M 52 44.1875 
Q 55.375 50.25 60.0625 53.125 
Q 64.75 56 71.09375 56 
Q 79.640625 56 84.28125 50.015625 
Q 88.921875 44.046875 88.921875 33.015625 
L 88.921875 0 
L 79.890625 0 
L 79.890625 32.71875 
Q 79.890625 40.578125 77.09375 44.375 
Q 74.3125 48.1875 68.609375 48.1875 
Q 61.625 48.1875 57.5625 43.546875 
Q 53.515625 38.921875 53.515625 30.90625 
L 53.515625 0 
L 44.484375 0 
L 44.484375 32.71875 
Q 44.484375 40.625 41.703125 44.40625 
Q 38.921875 48.1875 33.109375 48.1875 
Q 26.21875 48.1875 22.15625 43.53125 
Q 18.109375 38.875 18.109375 30.90625 
L 18.109375 0 
L 9.078125 0 
L 9.078125 54.6875 
L 18.109375 54.6875 
L 18.109375 46.1875 
Q 21.1875 51.21875 25.484375 53.609375 
Q 29.78125 56 35.6875 56 
Q 41.65625 56 45.828125 52.96875 
Q 50 49.953125 52 44.1875 
z
" id="DejaVuSans-109"/>
        <path d="M 32.171875 -5.078125 
Q 28.375 -14.84375 24.75 -17.8125 
Q 21.140625 -20.796875 15.09375 -20.796875 
L 7.90625 -20.796875 
L 7.90625 -13.28125 
L 13.1875 -13.28125 
Q 16.890625 -13.28125 18.9375 -11.515625 
Q 21 -9.765625 23.484375 -3.21875 
L 25.09375 0.875 
L 2.984375 54.6875 
L 12.5 54.6875 
L 29.59375 11.921875 
L 46.6875 54.6875 
L 56.203125 54.6875 
z
" id="DejaVuSans-121"/>
       </defs>
       <use xlink:href="#DejaVuSans-80"/>
       <use x="58.552734" xlink:href="#DejaVuSans-114"/>
       <use x="99.666016" xlink:href="#DejaVuSans-105"/>
       <use x="127.449219" xlink:href="#DejaVuSans-109"/>
       <use x="224.861328" xlink:href="#DejaVuSans-97"/>
       <use x="286.140625" xlink:href="#DejaVuSans-114"/>
       <use x="327.253906" xlink:href="#DejaVuSans-121"/>
       <use x="386.433594" xlink:href="#DejaVuSans-32"/>
       <use x="418.220703" xlink:href="#DejaVuSans-83"/>
       <use x="481.697266" xlink:href="#DejaVuSans-99"/>
       <use x="536.677734" xlink:href="#DejaVuSans-104"/>
       <use x="600.056641" xlink:href="#DejaVuSans-111"/>
       <use x="661.238281" xlink:href="#DejaVuSans-111"/>
       <use x="722.419922" xlink:href="#DejaVuSans-108"/>
      </g>
     </g>
    </g>
    <g id="xtick_4">
     <g id="line2d_4">
      <g>
       <use style="fill:#262626;stroke:#262626;" x="182.252962" xlink:href="#m35fc4e21e4" y="342.4585"/>
      </g>
     </g>
     <g id="text_4">
      <!-- Junior High School -->
      <g style="fill:#262626;" transform="translate(159.719465 429.98789)rotate(-75)scale(0.088 -0.088)">
       <defs>
        <path d="M 9.8125 72.90625 
L 19.671875 72.90625 
L 19.671875 5.078125 
Q 19.671875 -8.109375 14.671875 -14.0625 
Q 9.671875 -20.015625 -1.421875 -20.015625 
L -5.171875 -20.015625 
L -5.171875 -11.71875 
L -2.09375 -11.71875 
Q 4.4375 -11.71875 7.125 -8.046875 
Q 9.8125 -4.390625 9.8125 5.078125 
z
" id="DejaVuSans-74"/>
        <path d="M 9.8125 72.90625 
L 19.671875 72.90625 
L 19.671875 43.015625 
L 55.515625 43.015625 
L 55.515625 72.90625 
L 65.375 72.90625 
L 65.375 0 
L 55.515625 0 
L 55.515625 34.71875 
L 19.671875 34.71875 
L 19.671875 0 
L 9.8125 0 
z
" id="DejaVuSans-72"/>
        <path d="M 45.40625 27.984375 
Q 45.40625 37.75 41.375 43.109375 
Q 37.359375 48.484375 30.078125 48.484375 
Q 22.859375 48.484375 18.828125 43.109375 
Q 14.796875 37.75 14.796875 27.984375 
Q 14.796875 18.265625 18.828125 12.890625 
Q 22.859375 7.515625 30.078125 7.515625 
Q 37.359375 7.515625 41.375 12.890625 
Q 45.40625 18.265625 45.40625 27.984375 
z
M 54.390625 6.78125 
Q 54.390625 -7.171875 48.1875 -13.984375 
Q 42 -20.796875 29.203125 -20.796875 
Q 24.46875 -20.796875 20.265625 -20.09375 
Q 16.0625 -19.390625 12.109375 -17.921875 
L 12.109375 -9.1875 
Q 16.0625 -11.328125 19.921875 -12.34375 
Q 23.78125 -13.375 27.78125 -13.375 
Q 36.625 -13.375 41.015625 -8.765625 
Q 45.40625 -4.15625 45.40625 5.171875 
L 45.40625 9.625 
Q 42.625 4.78125 38.28125 2.390625 
Q 33.9375 0 27.875 0 
Q 17.828125 0 11.671875 7.65625 
Q 5.515625 15.328125 5.515625 27.984375 
Q 5.515625 40.671875 11.671875 48.328125 
Q 17.828125 56 27.875 56 
Q 33.9375 56 38.28125 53.609375 
Q 42.625 51.21875 45.40625 46.390625 
L 45.40625 54.6875 
L 54.390625 54.6875 
z
" id="DejaVuSans-103"/>
       </defs>
       <use xlink:href="#DejaVuSans-74"/>
       <use x="29.492188" xlink:href="#DejaVuSans-117"/>
       <use x="92.871094" xlink:href="#DejaVuSans-110"/>
       <use x="156.25" xlink:href="#DejaVuSans-105"/>
       <use x="184.033203" xlink:href="#DejaVuSans-111"/>
       <use x="245.214844" xlink:href="#DejaVuSans-114"/>
       <use x="286.328125" xlink:href="#DejaVuSans-32"/>
       <use x="318.115234" xlink:href="#DejaVuSans-72"/>
       <use x="393.310547" xlink:href="#DejaVuSans-105"/>
       <use x="421.09375" xlink:href="#DejaVuSans-103"/>
       <use x="484.570312" xlink:href="#DejaVuSans-104"/>
       <use x="547.949219" xlink:href="#DejaVuSans-32"/>
       <use x="579.736328" xlink:href="#DejaVuSans-83"/>
       <use x="643.212891" xlink:href="#DejaVuSans-99"/>
       <use x="698.193359" xlink:href="#DejaVuSans-104"/>
       <use x="761.572266" xlink:href="#DejaVuSans-111"/>
       <use x="822.753906" xlink:href="#DejaVuSans-111"/>
       <use x="883.935547" xlink:href="#DejaVuSans-108"/>
      </g>
     </g>
    </g>
    <g id="xtick_5">
     <g id="line2d_5">
      <g>
       <use style="fill:#262626;stroke:#262626;" x="206.202115" xlink:href="#m35fc4e21e4" y="342.4585"/>
      </g>
     </g>
     <g id="text_5">
      <!-- Vocational High School -->
      <g style="fill:#262626;" transform="translate(178.375672 449.741436)rotate(-75)scale(0.088 -0.088)">
       <defs>
        <path d="M 28.609375 0 
L 0.78125 72.90625 
L 11.078125 72.90625 
L 34.1875 11.53125 
L 57.328125 72.90625 
L 67.578125 72.90625 
L 39.796875 0 
z
" id="DejaVuSans-86"/>
       </defs>
       <use xlink:href="#DejaVuSans-86"/>
       <use x="60.658203" xlink:href="#DejaVuSans-111"/>
       <use x="121.839844" xlink:href="#DejaVuSans-99"/>
       <use x="176.820312" xlink:href="#DejaVuSans-97"/>
       <use x="238.099609" xlink:href="#DejaVuSans-116"/>
       <use x="277.308594" xlink:href="#DejaVuSans-105"/>
       <use x="305.091797" xlink:href="#DejaVuSans-111"/>
       <use x="366.273438" xlink:href="#DejaVuSans-110"/>
       <use x="429.652344" xlink:href="#DejaVuSans-97"/>
       <use x="490.931641" xlink:href="#DejaVuSans-108"/>
       <use x="518.714844" xlink:href="#DejaVuSans-32"/>
       <use x="550.501953" xlink:href="#DejaVuSans-72"/>
       <use x="625.697266" xlink:href="#DejaVuSans-105"/>
       <use x="653.480469" xlink:href="#DejaVuSans-103"/>
       <use x="716.957031" xlink:href="#DejaVuSans-104"/>
       <use x="780.335938" xlink:href="#DejaVuSans-32"/>
       <use x="812.123047" xlink:href="#DejaVuSans-83"/>
       <use x="875.599609" xlink:href="#DejaVuSans-99"/>
       <use x="930.580078" xlink:href="#DejaVuSans-104"/>
       <use x="993.958984" xlink:href="#DejaVuSans-111"/>
       <use x="1055.140625" xlink:href="#DejaVuSans-111"/>
       <use x="1116.322266" xlink:href="#DejaVuSans-108"/>
      </g>
     </g>
    </g>
    <g id="xtick_6">
     <g id="line2d_6">
      <g>
       <use style="fill:#262626;stroke:#262626;" x="230.151269" xlink:href="#m35fc4e21e4" y="342.4585"/>
      </g>
     </g>
     <g id="text_6">
      <!-- Standard High School -->
      <g style="fill:#262626;" transform="translate(203.777157 444.321264)rotate(-75)scale(0.088 -0.088)">
       <use xlink:href="#DejaVuSans-83"/>
       <use x="63.476562" xlink:href="#DejaVuSans-116"/>
       <use x="102.685547" xlink:href="#DejaVuSans-97"/>
       <use x="163.964844" xlink:href="#DejaVuSans-110"/>
       <use x="227.34375" xlink:href="#DejaVuSans-100"/>
       <use x="290.820312" xlink:href="#DejaVuSans-97"/>
       <use x="352.099609" xlink:href="#DejaVuSans-114"/>
       <use x="391.462891" xlink:href="#DejaVuSans-100"/>
       <use x="454.939453" xlink:href="#DejaVuSans-32"/>
       <use x="486.726562" xlink:href="#DejaVuSans-72"/>
       <use x="561.921875" xlink:href="#DejaVuSans-105"/>
       <use x="589.705078" xlink:href="#DejaVuSans-103"/>
       <use x="653.181641" xlink:href="#DejaVuSans-104"/>
       <use x="716.560547" xlink:href="#DejaVuSans-32"/>
       <use x="748.347656" xlink:href="#DejaVuSans-83"/>
       <use x="811.824219" xlink:href="#DejaVuSans-99"/>
       <use x="866.804688" xlink:href="#DejaVuSans-104"/>
       <use x="930.183594" xlink:href="#DejaVuSans-111"/>
       <use x="991.365234" xlink:href="#DejaVuSans-111"/>
       <use x="1052.546875" xlink:href="#DejaVuSans-108"/>
      </g>
     </g>
    </g>
    <g id="xtick_7">
     <g id="line2d_7">
      <g>
       <use style="fill:#262626;stroke:#262626;" x="254.100423" xlink:href="#m35fc4e21e4" y="342.4585"/>
      </g>
     </g>
     <g id="text_7">
      <!-- Technical Secondary School -->
      <g style="fill:#262626;" transform="translate(220.802384 470.161712)rotate(-75)scale(0.088 -0.088)">
       <defs>
        <path d="M -0.296875 72.90625 
L 61.375 72.90625 
L 61.375 64.59375 
L 35.5 64.59375 
L 35.5 0 
L 25.59375 0 
L 25.59375 64.59375 
L -0.296875 64.59375 
z
" id="DejaVuSans-84"/>
       </defs>
       <use xlink:href="#DejaVuSans-84"/>
       <use x="44.083984" xlink:href="#DejaVuSans-101"/>
       <use x="105.607422" xlink:href="#DejaVuSans-99"/>
       <use x="160.587891" xlink:href="#DejaVuSans-104"/>
       <use x="223.966797" xlink:href="#DejaVuSans-110"/>
       <use x="287.345703" xlink:href="#DejaVuSans-105"/>
       <use x="315.128906" xlink:href="#DejaVuSans-99"/>
       <use x="370.109375" xlink:href="#DejaVuSans-97"/>
       <use x="431.388672" xlink:href="#DejaVuSans-108"/>
       <use x="459.171875" xlink:href="#DejaVuSans-32"/>
       <use x="490.958984" xlink:href="#DejaVuSans-83"/>
       <use x="554.435547" xlink:href="#DejaVuSans-101"/>
       <use x="615.958984" xlink:href="#DejaVuSans-99"/>
       <use x="670.939453" xlink:href="#DejaVuSans-111"/>
       <use x="732.121094" xlink:href="#DejaVuSans-110"/>
       <use x="795.5" xlink:href="#DejaVuSans-100"/>
       <use x="858.976562" xlink:href="#DejaVuSans-97"/>
       <use x="920.255859" xlink:href="#DejaVuSans-114"/>
       <use x="961.369141" xlink:href="#DejaVuSans-121"/>
       <use x="1020.548828" xlink:href="#DejaVuSans-32"/>
       <use x="1052.335938" xlink:href="#DejaVuSans-83"/>
       <use x="1115.8125" xlink:href="#DejaVuSans-99"/>
       <use x="1170.792969" xlink:href="#DejaVuSans-104"/>
       <use x="1234.171875" xlink:href="#DejaVuSans-111"/>
       <use x="1295.353516" xlink:href="#DejaVuSans-111"/>
       <use x="1356.535156" xlink:href="#DejaVuSans-108"/>
      </g>
     </g>
    </g>
    <g id="xtick_8">
     <g id="line2d_8">
      <g>
       <use style="fill:#262626;stroke:#262626;" x="278.049577" xlink:href="#m35fc4e21e4" y="342.4585"/>
      </g>
     </g>
     <g id="text_8">
      <!-- Technical School -->
      <g style="fill:#262626;" transform="translate(257.538169 422.441353)rotate(-75)scale(0.088 -0.088)">
       <use xlink:href="#DejaVuSans-84"/>
       <use x="44.083984" xlink:href="#DejaVuSans-101"/>
       <use x="105.607422" xlink:href="#DejaVuSans-99"/>
       <use x="160.587891" xlink:href="#DejaVuSans-104"/>
       <use x="223.966797" xlink:href="#DejaVuSans-110"/>
       <use x="287.345703" xlink:href="#DejaVuSans-105"/>
       <use x="315.128906" xlink:href="#DejaVuSans-99"/>
       <use x="370.109375" xlink:href="#DejaVuSans-97"/>
       <use x="431.388672" xlink:href="#DejaVuSans-108"/>
       <use x="459.171875" xlink:href="#DejaVuSans-32"/>
       <use x="490.958984" xlink:href="#DejaVuSans-83"/>
       <use x="554.435547" xlink:href="#DejaVuSans-99"/>
       <use x="609.416016" xlink:href="#DejaVuSans-104"/>
       <use x="672.794922" xlink:href="#DejaVuSans-111"/>
       <use x="733.976562" xlink:href="#DejaVuSans-111"/>
       <use x="795.158203" xlink:href="#DejaVuSans-108"/>
      </g>
     </g>
    </g>
    <g id="xtick_9">
     <g id="line2d_9">
      <g>
       <use style="fill:#262626;stroke:#262626;" x="301.998731" xlink:href="#m35fc4e21e4" y="342.4585"/>
      </g>
     </g>
     <g id="text_9">
      <!-- College (Adult) -->
      <g style="fill:#262626;" transform="translate(283.298377 415.682408)rotate(-75)scale(0.088 -0.088)">
       <defs>
        <path d="M 64.40625 67.28125 
L 64.40625 56.890625 
Q 59.421875 61.53125 53.78125 63.8125 
Q 48.140625 66.109375 41.796875 66.109375 
Q 29.296875 66.109375 22.65625 58.46875 
Q 16.015625 50.828125 16.015625 36.375 
Q 16.015625 21.96875 22.65625 14.328125 
Q 29.296875 6.6875 41.796875 6.6875 
Q 48.140625 6.6875 53.78125 8.984375 
Q 59.421875 11.28125 64.40625 15.921875 
L 64.40625 5.609375 
Q 59.234375 2.09375 53.4375 0.328125 
Q 47.65625 -1.421875 41.21875 -1.421875 
Q 24.65625 -1.421875 15.125 8.703125 
Q 5.609375 18.84375 5.609375 36.375 
Q 5.609375 53.953125 15.125 64.078125 
Q 24.65625 74.21875 41.21875 74.21875 
Q 47.75 74.21875 53.53125 72.484375 
Q 59.328125 70.75 64.40625 67.28125 
z
" id="DejaVuSans-67"/>
        <path d="M 31 75.875 
Q 24.46875 64.65625 21.28125 53.65625 
Q 18.109375 42.671875 18.109375 31.390625 
Q 18.109375 20.125 21.3125 9.0625 
Q 24.515625 -2 31 -13.1875 
L 23.1875 -13.1875 
Q 15.875 -1.703125 12.234375 9.375 
Q 8.59375 20.453125 8.59375 31.390625 
Q 8.59375 42.28125 12.203125 53.3125 
Q 15.828125 64.359375 23.1875 75.875 
z
" id="DejaVuSans-40"/>
        <path d="M 34.1875 63.1875 
L 20.796875 26.90625 
L 47.609375 26.90625 
z
M 28.609375 72.90625 
L 39.796875 72.90625 
L 67.578125 0 
L 57.328125 0 
L 50.6875 18.703125 
L 17.828125 18.703125 
L 11.1875 0 
L 0.78125 0 
z
" id="DejaVuSans-65"/>
        <path d="M 8.015625 75.875 
L 15.828125 75.875 
Q 23.140625 64.359375 26.78125 53.3125 
Q 30.421875 42.28125 30.421875 31.390625 
Q 30.421875 20.453125 26.78125 9.375 
Q 23.140625 -1.703125 15.828125 -13.1875 
L 8.015625 -13.1875 
Q 14.5 -2 17.703125 9.0625 
Q 20.90625 20.125 20.90625 31.390625 
Q 20.90625 42.671875 17.703125 53.65625 
Q 14.5 64.65625 8.015625 75.875 
z
" id="DejaVuSans-41"/>
       </defs>
       <use xlink:href="#DejaVuSans-67"/>
       <use x="69.824219" xlink:href="#DejaVuSans-111"/>
       <use x="131.005859" xlink:href="#DejaVuSans-108"/>
       <use x="158.789062" xlink:href="#DejaVuSans-108"/>
       <use x="186.572266" xlink:href="#DejaVuSans-101"/>
       <use x="248.095703" xlink:href="#DejaVuSans-103"/>
       <use x="311.572266" xlink:href="#DejaVuSans-101"/>
       <use x="373.095703" xlink:href="#DejaVuSans-32"/>
       <use x="404.882812" xlink:href="#DejaVuSans-40"/>
       <use x="443.896484" xlink:href="#DejaVuSans-65"/>
       <use x="510.554688" xlink:href="#DejaVuSans-100"/>
       <use x="574.03125" xlink:href="#DejaVuSans-117"/>
       <use x="637.410156" xlink:href="#DejaVuSans-108"/>
       <use x="665.193359" xlink:href="#DejaVuSans-116"/>
       <use x="704.402344" xlink:href="#DejaVuSans-41"/>
      </g>
     </g>
    </g>
    <g id="xtick_10">
     <g id="line2d_10">
      <g>
       <use style="fill:#262626;stroke:#262626;" x="325.947885" xlink:href="#m35fc4e21e4" y="342.4585"/>
      </g>
     </g>
     <g id="text_10">
      <!-- College (Regular) -->
      <g style="fill:#262626;" transform="translate(304.445006 426.141574)rotate(-75)scale(0.088 -0.088)">
       <defs>
        <path d="M 44.390625 34.1875 
Q 47.5625 33.109375 50.5625 29.59375 
Q 53.5625 26.078125 56.59375 19.921875 
L 66.609375 0 
L 56 0 
L 46.6875 18.703125 
Q 43.0625 26.03125 39.671875 28.421875 
Q 36.28125 30.8125 30.421875 30.8125 
L 19.671875 30.8125 
L 19.671875 0 
L 9.8125 0 
L 9.8125 72.90625 
L 32.078125 72.90625 
Q 44.578125 72.90625 50.734375 67.671875 
Q 56.890625 62.453125 56.890625 51.90625 
Q 56.890625 45.015625 53.6875 40.46875 
Q 50.484375 35.9375 44.390625 34.1875 
z
M 19.671875 64.796875 
L 19.671875 38.921875 
L 32.078125 38.921875 
Q 39.203125 38.921875 42.84375 42.21875 
Q 46.484375 45.515625 46.484375 51.90625 
Q 46.484375 58.296875 42.84375 61.546875 
Q 39.203125 64.796875 32.078125 64.796875 
z
" id="DejaVuSans-82"/>
       </defs>
       <use xlink:href="#DejaVuSans-67"/>
       <use x="69.824219" xlink:href="#DejaVuSans-111"/>
       <use x="131.005859" xlink:href="#DejaVuSans-108"/>
       <use x="158.789062" xlink:href="#DejaVuSans-108"/>
       <use x="186.572266" xlink:href="#DejaVuSans-101"/>
       <use x="248.095703" xlink:href="#DejaVuSans-103"/>
       <use x="311.572266" xlink:href="#DejaVuSans-101"/>
       <use x="373.095703" xlink:href="#DejaVuSans-32"/>
       <use x="404.882812" xlink:href="#DejaVuSans-40"/>
       <use x="443.896484" xlink:href="#DejaVuSans-82"/>
       <use x="508.878906" xlink:href="#DejaVuSans-101"/>
       <use x="570.402344" xlink:href="#DejaVuSans-103"/>
       <use x="633.878906" xlink:href="#DejaVuSans-117"/>
       <use x="697.257812" xlink:href="#DejaVuSans-108"/>
       <use x="725.041016" xlink:href="#DejaVuSans-97"/>
       <use x="786.320312" xlink:href="#DejaVuSans-114"/>
       <use x="827.433594" xlink:href="#DejaVuSans-41"/>
      </g>
     </g>
    </g>
    <g id="xtick_11">
     <g id="line2d_11">
      <g>
       <use style="fill:#262626;stroke:#262626;" x="349.897038" xlink:href="#m35fc4e21e4" y="342.4585"/>
      </g>
     </g>
     <g id="text_11">
      <!-- University (Adult) -->
      <g style="fill:#262626;" transform="translate(328.205901 426.844164)rotate(-75)scale(0.088 -0.088)">
       <defs>
        <path d="M 8.6875 72.90625 
L 18.609375 72.90625 
L 18.609375 28.609375 
Q 18.609375 16.890625 22.84375 11.734375 
Q 27.09375 6.59375 36.625 6.59375 
Q 46.09375 6.59375 50.34375 11.734375 
Q 54.59375 16.890625 54.59375 28.609375 
L 54.59375 72.90625 
L 64.5 72.90625 
L 64.5 27.390625 
Q 64.5 13.140625 57.4375 5.859375 
Q 50.390625 -1.421875 36.625 -1.421875 
Q 22.796875 -1.421875 15.734375 5.859375 
Q 8.6875 13.140625 8.6875 27.390625 
z
" id="DejaVuSans-85"/>
        <path d="M 44.28125 53.078125 
L 44.28125 44.578125 
Q 40.484375 46.53125 36.375 47.5 
Q 32.28125 48.484375 27.875 48.484375 
Q 21.1875 48.484375 17.84375 46.4375 
Q 14.5 44.390625 14.5 40.28125 
Q 14.5 37.15625 16.890625 35.375 
Q 19.28125 33.59375 26.515625 31.984375 
L 29.59375 31.296875 
Q 39.15625 29.25 43.1875 25.515625 
Q 47.21875 21.78125 47.21875 15.09375 
Q 47.21875 7.46875 41.1875 3.015625 
Q 35.15625 -1.421875 24.609375 -1.421875 
Q 20.21875 -1.421875 15.453125 -0.5625 
Q 10.6875 0.296875 5.421875 2 
L 5.421875 11.28125 
Q 10.40625 8.6875 15.234375 7.390625 
Q 20.0625 6.109375 24.8125 6.109375 
Q 31.15625 6.109375 34.5625 8.28125 
Q 37.984375 10.453125 37.984375 14.40625 
Q 37.984375 18.0625 35.515625 20.015625 
Q 33.0625 21.96875 24.703125 23.78125 
L 21.578125 24.515625 
Q 13.234375 26.265625 9.515625 29.90625 
Q 5.8125 33.546875 5.8125 39.890625 
Q 5.8125 47.609375 11.28125 51.796875 
Q 16.75 56 26.8125 56 
Q 31.78125 56 36.171875 55.265625 
Q 40.578125 54.546875 44.28125 53.078125 
z
" id="DejaVuSans-115"/>
       </defs>
       <use xlink:href="#DejaVuSans-85"/>
       <use x="73.193359" xlink:href="#DejaVuSans-110"/>
       <use x="136.572266" xlink:href="#DejaVuSans-105"/>
       <use x="164.355469" xlink:href="#DejaVuSans-118"/>
       <use x="223.535156" xlink:href="#DejaVuSans-101"/>
       <use x="285.058594" xlink:href="#DejaVuSans-114"/>
       <use x="326.171875" xlink:href="#DejaVuSans-115"/>
       <use x="378.271484" xlink:href="#DejaVuSans-105"/>
       <use x="406.054688" xlink:href="#DejaVuSans-116"/>
       <use x="445.263672" xlink:href="#DejaVuSans-121"/>
       <use x="504.443359" xlink:href="#DejaVuSans-32"/>
       <use x="536.230469" xlink:href="#DejaVuSans-40"/>
       <use x="575.244141" xlink:href="#DejaVuSans-65"/>
       <use x="641.902344" xlink:href="#DejaVuSans-100"/>
       <use x="705.378906" xlink:href="#DejaVuSans-117"/>
       <use x="768.757812" xlink:href="#DejaVuSans-108"/>
       <use x="796.541016" xlink:href="#DejaVuSans-116"/>
       <use x="835.75" xlink:href="#DejaVuSans-41"/>
      </g>
     </g>
    </g>
    <g id="xtick_12">
     <g id="line2d_12">
      <g>
       <use style="fill:#262626;stroke:#262626;" x="373.846192" xlink:href="#m35fc4e21e4" y="342.4585"/>
      </g>
     </g>
     <g id="text_12">
      <!-- University (Regular) -->
      <g style="fill:#262626;" transform="translate(349.35253 437.30333)rotate(-75)scale(0.088 -0.088)">
       <use xlink:href="#DejaVuSans-85"/>
       <use x="73.193359" xlink:href="#DejaVuSans-110"/>
       <use x="136.572266" xlink:href="#DejaVuSans-105"/>
       <use x="164.355469" xlink:href="#DejaVuSans-118"/>
       <use x="223.535156" xlink:href="#DejaVuSans-101"/>
       <use x="285.058594" xlink:href="#DejaVuSans-114"/>
       <use x="326.171875" xlink:href="#DejaVuSans-115"/>
       <use x="378.271484" xlink:href="#DejaVuSans-105"/>
       <use x="406.054688" xlink:href="#DejaVuSans-116"/>
       <use x="445.263672" xlink:href="#DejaVuSans-121"/>
       <use x="504.443359" xlink:href="#DejaVuSans-32"/>
       <use x="536.230469" xlink:href="#DejaVuSans-40"/>
       <use x="575.244141" xlink:href="#DejaVuSans-82"/>
       <use x="640.226562" xlink:href="#DejaVuSans-101"/>
       <use x="701.75" xlink:href="#DejaVuSans-103"/>
       <use x="765.226562" xlink:href="#DejaVuSans-117"/>
       <use x="828.605469" xlink:href="#DejaVuSans-108"/>
       <use x="856.388672" xlink:href="#DejaVuSans-97"/>
       <use x="917.667969" xlink:href="#DejaVuSans-114"/>
       <use x="958.78125" xlink:href="#DejaVuSans-41"/>
      </g>
     </g>
    </g>
    <g id="xtick_13">
     <g id="line2d_13">
      <g>
       <use style="fill:#262626;stroke:#262626;" x="397.795346" xlink:href="#m35fc4e21e4" y="342.4585"/>
      </g>
     </g>
     <g id="text_13">
      <!-- Graduate School or Above -->
      <g style="fill:#262626;" transform="translate(366.141099 464.026996)rotate(-75)scale(0.088 -0.088)">
       <defs>
        <path d="M 59.515625 10.40625 
L 59.515625 29.984375 
L 43.40625 29.984375 
L 43.40625 38.09375 
L 69.28125 38.09375 
L 69.28125 6.78125 
Q 63.578125 2.734375 56.6875 0.65625 
Q 49.8125 -1.421875 42 -1.421875 
Q 24.90625 -1.421875 15.25 8.5625 
Q 5.609375 18.5625 5.609375 36.375 
Q 5.609375 54.25 15.25 64.234375 
Q 24.90625 74.21875 42 74.21875 
Q 49.125 74.21875 55.546875 72.453125 
Q 61.96875 70.703125 67.390625 67.28125 
L 67.390625 56.78125 
Q 61.921875 61.421875 55.765625 63.765625 
Q 49.609375 66.109375 42.828125 66.109375 
Q 29.4375 66.109375 22.71875 58.640625 
Q 16.015625 51.171875 16.015625 36.375 
Q 16.015625 21.625 22.71875 14.15625 
Q 29.4375 6.6875 42.828125 6.6875 
Q 48.046875 6.6875 52.140625 7.59375 
Q 56.25 8.5 59.515625 10.40625 
z
" id="DejaVuSans-71"/>
        <path d="M 48.6875 27.296875 
Q 48.6875 37.203125 44.609375 42.84375 
Q 40.53125 48.484375 33.40625 48.484375 
Q 26.265625 48.484375 22.1875 42.84375 
Q 18.109375 37.203125 18.109375 27.296875 
Q 18.109375 17.390625 22.1875 11.75 
Q 26.265625 6.109375 33.40625 6.109375 
Q 40.53125 6.109375 44.609375 11.75 
Q 48.6875 17.390625 48.6875 27.296875 
z
M 18.109375 46.390625 
Q 20.953125 51.265625 25.265625 53.625 
Q 29.59375 56 35.59375 56 
Q 45.5625 56 51.78125 48.09375 
Q 58.015625 40.1875 58.015625 27.296875 
Q 58.015625 14.40625 51.78125 6.484375 
Q 45.5625 -1.421875 35.59375 -1.421875 
Q 29.59375 -1.421875 25.265625 0.953125 
Q 20.953125 3.328125 18.109375 8.203125 
L 18.109375 0 
L 9.078125 0 
L 9.078125 75.984375 
L 18.109375 75.984375 
z
" id="DejaVuSans-98"/>
       </defs>
       <use xlink:href="#DejaVuSans-71"/>
       <use x="77.490234" xlink:href="#DejaVuSans-114"/>
       <use x="118.603516" xlink:href="#DejaVuSans-97"/>
       <use x="179.882812" xlink:href="#DejaVuSans-100"/>
       <use x="243.359375" xlink:href="#DejaVuSans-117"/>
       <use x="306.738281" xlink:href="#DejaVuSans-97"/>
       <use x="368.017578" xlink:href="#DejaVuSans-116"/>
       <use x="407.226562" xlink:href="#DejaVuSans-101"/>
       <use x="468.75" xlink:href="#DejaVuSans-32"/>
       <use x="500.537109" xlink:href="#DejaVuSans-83"/>
       <use x="564.013672" xlink:href="#DejaVuSans-99"/>
       <use x="618.994141" xlink:href="#DejaVuSans-104"/>
       <use x="682.373047" xlink:href="#DejaVuSans-111"/>
       <use x="743.554688" xlink:href="#DejaVuSans-111"/>
       <use x="804.736328" xlink:href="#DejaVuSans-108"/>
       <use x="832.519531" xlink:href="#DejaVuSans-32"/>
       <use x="864.306641" xlink:href="#DejaVuSans-111"/>
       <use x="925.488281" xlink:href="#DejaVuSans-114"/>
       <use x="966.601562" xlink:href="#DejaVuSans-32"/>
       <use x="998.388672" xlink:href="#DejaVuSans-65"/>
       <use x="1066.796875" xlink:href="#DejaVuSans-98"/>
       <use x="1130.273438" xlink:href="#DejaVuSans-111"/>
       <use x="1191.455078" xlink:href="#DejaVuSans-118"/>
       <use x="1250.634766" xlink:href="#DejaVuSans-101"/>
      </g>
     </g>
    </g>
    <g id="text_14">
     <!-- Education Level -->
     <g style="fill:#262626;" transform="translate(227.98025 481.929883)scale(0.096 -0.096)">
      <defs>
       <path d="M 9.8125 72.90625 
L 19.671875 72.90625 
L 19.671875 8.296875 
L 55.171875 8.296875 
L 55.171875 0 
L 9.8125 0 
z
" id="DejaVuSans-76"/>
      </defs>
      <use xlink:href="#DejaVuSans-69"/>
      <use x="63.183594" xlink:href="#DejaVuSans-100"/>
      <use x="126.660156" xlink:href="#DejaVuSans-117"/>
      <use x="190.039062" xlink:href="#DejaVuSans-99"/>
      <use x="245.019531" xlink:href="#DejaVuSans-97"/>
      <use x="306.298828" xlink:href="#DejaVuSans-116"/>
      <use x="345.507812" xlink:href="#DejaVuSans-105"/>
      <use x="373.291016" xlink:href="#DejaVuSans-111"/>
      <use x="434.472656" xlink:href="#DejaVuSans-110"/>
      <use x="497.851562" xlink:href="#DejaVuSans-32"/>
      <use x="529.638672" xlink:href="#DejaVuSans-76"/>
      <use x="583.601562" xlink:href="#DejaVuSans-101"/>
      <use x="645.125" xlink:href="#DejaVuSans-118"/>
      <use x="704.304688" xlink:href="#DejaVuSans-101"/>
      <use x="765.828125" xlink:href="#DejaVuSans-108"/>
     </g>
    </g>
   </g>
   <g id="matplotlib.axis_2">
    <g id="ytick_1">
     <g id="line2d_14">
      <defs>
       <path d="M 0 0 
L -4.8 0 
" id="m86340fdabd" style="stroke:#262626;"/>
      </defs>
      <g>
       <use style="fill:#262626;stroke:#262626;" x="110.4055" xlink:href="#m86340fdabd" y="330.821247"/>
      </g>
     </g>
     <g id="text_15">
      <!-- Extremely harmful -->
      <g style="fill:#262626;" transform="translate(20.491 334.164559)scale(0.088 -0.088)">
       <defs>
        <path d="M 54.890625 54.6875 
L 35.109375 28.078125 
L 55.90625 0 
L 45.3125 0 
L 29.390625 21.484375 
L 13.484375 0 
L 2.875 0 
L 24.125 28.609375 
L 4.6875 54.6875 
L 15.28125 54.6875 
L 29.78125 35.203125 
L 44.28125 54.6875 
z
" id="DejaVuSans-120"/>
        <path d="M 37.109375 75.984375 
L 37.109375 68.5 
L 28.515625 68.5 
Q 23.6875 68.5 21.796875 66.546875 
Q 19.921875 64.59375 19.921875 59.515625 
L 19.921875 54.6875 
L 34.71875 54.6875 
L 34.71875 47.703125 
L 19.921875 47.703125 
L 19.921875 0 
L 10.890625 0 
L 10.890625 47.703125 
L 2.296875 47.703125 
L 2.296875 54.6875 
L 10.890625 54.6875 
L 10.890625 58.5 
Q 10.890625 67.625 15.140625 71.796875 
Q 19.390625 75.984375 28.609375 75.984375 
z
" id="DejaVuSans-102"/>
       </defs>
       <use xlink:href="#DejaVuSans-69"/>
       <use x="63.183594" xlink:href="#DejaVuSans-120"/>
       <use x="122.363281" xlink:href="#DejaVuSans-116"/>
       <use x="161.572266" xlink:href="#DejaVuSans-114"/>
       <use x="200.435547" xlink:href="#DejaVuSans-101"/>
       <use x="261.958984" xlink:href="#DejaVuSans-109"/>
       <use x="359.371094" xlink:href="#DejaVuSans-101"/>
       <use x="420.894531" xlink:href="#DejaVuSans-108"/>
       <use x="448.677734" xlink:href="#DejaVuSans-121"/>
       <use x="507.857422" xlink:href="#DejaVuSans-32"/>
       <use x="539.644531" xlink:href="#DejaVuSans-104"/>
       <use x="603.023438" xlink:href="#DejaVuSans-97"/>
       <use x="664.302734" xlink:href="#DejaVuSans-114"/>
       <use x="703.666016" xlink:href="#DejaVuSans-109"/>
       <use x="801.078125" xlink:href="#DejaVuSans-102"/>
       <use x="836.283203" xlink:href="#DejaVuSans-117"/>
       <use x="899.662109" xlink:href="#DejaVuSans-108"/>
      </g>
     </g>
    </g>
    <g id="ytick_2">
     <g id="line2d_15">
      <g>
       <use style="fill:#262626;stroke:#262626;" x="110.4055" xlink:href="#m86340fdabd" y="253.23956"/>
      </g>
     </g>
     <g id="text_16">
      <!-- Very harmful -->
      <g style="fill:#262626;" transform="translate(45.605375 256.582873)scale(0.088 -0.088)">
       <use xlink:href="#DejaVuSans-86"/>
       <use x="60.658203" xlink:href="#DejaVuSans-101"/>
       <use x="122.181641" xlink:href="#DejaVuSans-114"/>
       <use x="163.294922" xlink:href="#DejaVuSans-121"/>
       <use x="222.474609" xlink:href="#DejaVuSans-32"/>
       <use x="254.261719" xlink:href="#DejaVuSans-104"/>
       <use x="317.640625" xlink:href="#DejaVuSans-97"/>
       <use x="378.919922" xlink:href="#DejaVuSans-114"/>
       <use x="418.283203" xlink:href="#DejaVuSans-109"/>
       <use x="515.695312" xlink:href="#DejaVuSans-102"/>
       <use x="550.900391" xlink:href="#DejaVuSans-117"/>
       <use x="614.279297" xlink:href="#DejaVuSans-108"/>
      </g>
     </g>
    </g>
    <g id="ytick_3">
     <g id="line2d_16">
      <g>
       <use style="fill:#262626;stroke:#262626;" x="110.4055" xlink:href="#m86340fdabd" y="175.657873"/>
      </g>
     </g>
     <g id="text_17">
      <!-- Harmful -->
      <g style="fill:#262626;" transform="translate(66.939875 179.001186)scale(0.088 -0.088)">
       <use xlink:href="#DejaVuSans-72"/>
       <use x="75.195312" xlink:href="#DejaVuSans-97"/>
       <use x="136.474609" xlink:href="#DejaVuSans-114"/>
       <use x="175.837891" xlink:href="#DejaVuSans-109"/>
       <use x="273.25" xlink:href="#DejaVuSans-102"/>
       <use x="308.455078" xlink:href="#DejaVuSans-117"/>
       <use x="371.833984" xlink:href="#DejaVuSans-108"/>
      </g>
     </g>
    </g>
    <g id="ytick_4">
     <g id="line2d_17">
      <g>
       <use style="fill:#262626;stroke:#262626;" x="110.4055" xlink:href="#m86340fdabd" y="98.076187"/>
      </g>
     </g>
     <g id="text_18">
      <!-- Not very harmful -->
      <g style="fill:#262626;" transform="translate(27.52 101.419499)scale(0.088 -0.088)">
       <use xlink:href="#DejaVuSans-78"/>
       <use x="74.804688" xlink:href="#DejaVuSans-111"/>
       <use x="135.986328" xlink:href="#DejaVuSans-116"/>
       <use x="175.195312" xlink:href="#DejaVuSans-32"/>
       <use x="206.982422" xlink:href="#DejaVuSans-118"/>
       <use x="266.162109" xlink:href="#DejaVuSans-101"/>
       <use x="327.685547" xlink:href="#DejaVuSans-114"/>
       <use x="368.798828" xlink:href="#DejaVuSans-121"/>
       <use x="427.978516" xlink:href="#DejaVuSans-32"/>
       <use x="459.765625" xlink:href="#DejaVuSans-104"/>
       <use x="523.144531" xlink:href="#DejaVuSans-97"/>
       <use x="584.423828" xlink:href="#DejaVuSans-114"/>
       <use x="623.787109" xlink:href="#DejaVuSans-109"/>
       <use x="721.199219" xlink:href="#DejaVuSans-102"/>
       <use x="756.404297" xlink:href="#DejaVuSans-117"/>
       <use x="819.783203" xlink:href="#DejaVuSans-108"/>
      </g>
     </g>
    </g>
    <g id="ytick_5">
     <g id="line2d_18">
      <g>
       <use style="fill:#262626;stroke:#262626;" x="110.4055" xlink:href="#m86340fdabd" y="20.4945"/>
      </g>
     </g>
     <g id="text_19">
      <!-- Not harmful at all -->
      <g style="fill:#262626;" transform="translate(25.04775 23.837812)scale(0.088 -0.088)">
       <use xlink:href="#DejaVuSans-78"/>
       <use x="74.804688" xlink:href="#DejaVuSans-111"/>
       <use x="135.986328" xlink:href="#DejaVuSans-116"/>
       <use x="175.195312" xlink:href="#DejaVuSans-32"/>
       <use x="206.982422" xlink:href="#DejaVuSans-104"/>
       <use x="270.361328" xlink:href="#DejaVuSans-97"/>
       <use x="331.640625" xlink:href="#DejaVuSans-114"/>
       <use x="371.003906" xlink:href="#DejaVuSans-109"/>
       <use x="468.416016" xlink:href="#DejaVuSans-102"/>
       <use x="503.621094" xlink:href="#DejaVuSans-117"/>
       <use x="567" xlink:href="#DejaVuSans-108"/>
       <use x="594.783203" xlink:href="#DejaVuSans-32"/>
       <use x="626.570312" xlink:href="#DejaVuSans-97"/>
       <use x="687.849609" xlink:href="#DejaVuSans-116"/>
       <use x="727.058594" xlink:href="#DejaVuSans-32"/>
       <use x="758.845703" xlink:href="#DejaVuSans-97"/>
       <use x="820.125" xlink:href="#DejaVuSans-108"/>
       <use x="847.908203" xlink:href="#DejaVuSans-108"/>
      </g>
     </g>
    </g>
    <g id="text_20">
     <!-- Water Quality Perception -->
     <g style="fill:#262626;" transform="translate(14.4945 241.2425)rotate(-90)scale(0.096 -0.096)">
      <defs>
       <path d="M 3.328125 72.90625 
L 13.28125 72.90625 
L 28.609375 11.28125 
L 43.890625 72.90625 
L 54.984375 72.90625 
L 70.3125 11.28125 
L 85.59375 72.90625 
L 95.609375 72.90625 
L 77.296875 0 
L 64.890625 0 
L 49.515625 63.28125 
L 33.984375 0 
L 21.578125 0 
z
" id="DejaVuSans-87"/>
       <path d="M 39.40625 66.21875 
Q 28.65625 66.21875 22.328125 58.203125 
Q 16.015625 50.203125 16.015625 36.375 
Q 16.015625 22.609375 22.328125 14.59375 
Q 28.65625 6.59375 39.40625 6.59375 
Q 50.140625 6.59375 56.421875 14.59375 
Q 62.703125 22.609375 62.703125 36.375 
Q 62.703125 50.203125 56.421875 58.203125 
Q 50.140625 66.21875 39.40625 66.21875 
z
M 53.21875 1.3125 
L 66.21875 -12.890625 
L 54.296875 -12.890625 
L 43.5 -1.21875 
Q 41.890625 -1.3125 41.03125 -1.359375 
Q 40.1875 -1.421875 39.40625 -1.421875 
Q 24.03125 -1.421875 14.8125 8.859375 
Q 5.609375 19.140625 5.609375 36.375 
Q 5.609375 53.65625 14.8125 63.9375 
Q 24.03125 74.21875 39.40625 74.21875 
Q 54.734375 74.21875 63.90625 63.9375 
Q 73.09375 53.65625 73.09375 36.375 
Q 73.09375 23.6875 67.984375 14.640625 
Q 62.890625 5.609375 53.21875 1.3125 
z
" id="DejaVuSans-81"/>
       <path d="M 18.109375 8.203125 
L 18.109375 -20.796875 
L 9.078125 -20.796875 
L 9.078125 54.6875 
L 18.109375 54.6875 
L 18.109375 46.390625 
Q 20.953125 51.265625 25.265625 53.625 
Q 29.59375 56 35.59375 56 
Q 45.5625 56 51.78125 48.09375 
Q 58.015625 40.1875 58.015625 27.296875 
Q 58.015625 14.40625 51.78125 6.484375 
Q 45.5625 -1.421875 35.59375 -1.421875 
Q 29.59375 -1.421875 25.265625 0.953125 
Q 20.953125 3.328125 18.109375 8.203125 
z
M 48.6875 27.296875 
Q 48.6875 37.203125 44.609375 42.84375 
Q 40.53125 48.484375 33.40625 48.484375 
Q 26.265625 48.484375 22.1875 42.84375 
Q 18.109375 37.203125 18.109375 27.296875 
Q 18.109375 17.390625 22.1875 11.75 
Q 26.265625 6.109375 33.40625 6.109375 
Q 40.53125 6.109375 44.609375 11.75 
Q 48.6875 17.390625 48.6875 27.296875 
z
" id="DejaVuSans-112"/>
      </defs>
      <use xlink:href="#DejaVuSans-87"/>
      <use x="92.501953" xlink:href="#DejaVuSans-97"/>
      <use x="153.78125" xlink:href="#DejaVuSans-116"/>
      <use x="192.990234" xlink:href="#DejaVuSans-101"/>
      <use x="254.513672" xlink:href="#DejaVuSans-114"/>
      <use x="295.626953" xlink:href="#DejaVuSans-32"/>
      <use x="327.414062" xlink:href="#DejaVuSans-81"/>
      <use x="406.125" xlink:href="#DejaVuSans-117"/>
      <use x="469.503906" xlink:href="#DejaVuSans-97"/>
      <use x="530.783203" xlink:href="#DejaVuSans-108"/>
      <use x="558.566406" xlink:href="#DejaVuSans-105"/>
      <use x="586.349609" xlink:href="#DejaVuSans-116"/>
      <use x="625.558594" xlink:href="#DejaVuSans-121"/>
      <use x="684.738281" xlink:href="#DejaVuSans-32"/>
      <use x="716.525391" xlink:href="#DejaVuSans-80"/>
      <use x="773.203125" xlink:href="#DejaVuSans-101"/>
      <use x="834.726562" xlink:href="#DejaVuSans-114"/>
      <use x="873.589844" xlink:href="#DejaVuSans-99"/>
      <use x="928.570312" xlink:href="#DejaVuSans-101"/>
      <use x="990.09375" xlink:href="#DejaVuSans-112"/>
      <use x="1053.570312" xlink:href="#DejaVuSans-116"/>
      <use x="1092.779297" xlink:href="#DejaVuSans-105"/>
      <use x="1120.5625" xlink:href="#DejaVuSans-111"/>
      <use x="1181.744141" xlink:href="#DejaVuSans-110"/>
     </g>
    </g>
   </g>
   <g id="PathCollection_1">
    <defs>
     <path d="M 0 3.535534 
C 0.937635 3.535534 1.836992 3.163008 2.5 2.5 
C 3.163008 1.836992 3.535534 0.937635 3.535534 0 
C 3.535534 -0.937635 3.163008 -1.836992 2.5 -2.5 
C 1.836992 -3.163008 0.937635 -3.535534 0 -3.535534 
C -0.937635 -3.535534 -1.836992 -3.163008 -2.5 -2.5 
C -3.163008 -1.836992 -3.535534 -0.937635 -3.535534 0 
C -3.535534 0.937635 -3.163008 1.836992 -2.5 2.5 
C -1.836992 3.163008 -0.937635 3.535534 0 3.535534 
z
" id="m95c6e3cd59" style="stroke:#6a51a3;stroke-width:0.8;"/>
    </defs>
    <g clip-path="url(#p1c2a6328b6)">
     <use style="fill:#6a51a3;stroke:#6a51a3;stroke-width:0.8;" x="110.4055" xlink:href="#m95c6e3cd59" y="199.881691"/>
     <use style="fill:#6a51a3;stroke:#6a51a3;stroke-width:0.8;" x="134.354654" xlink:href="#m95c6e3cd59" y="210.138623"/>
     <use style="fill:#6a51a3;stroke:#6a51a3;stroke-width:0.8;" x="158.303808" xlink:href="#m95c6e3cd59" y="207.795934"/>
     <use style="fill:#6a51a3;stroke:#6a51a3;stroke-width:0.8;" x="182.252962" xlink:href="#m95c6e3cd59" y="217.023698"/>
     <use style="fill:#6a51a3;stroke:#6a51a3;stroke-width:0.8;" x="206.202115" xlink:href="#m95c6e3cd59" y="232.080918"/>
     <use style="fill:#6a51a3;stroke:#6a51a3;stroke-width:0.8;" x="230.151269" xlink:href="#m95c6e3cd59" y="217.491136"/>
     <use style="fill:#6a51a3;stroke:#6a51a3;stroke-width:0.8;" x="254.100423" xlink:href="#m95c6e3cd59" y="206.690548"/>
     <use style="fill:#6a51a3;stroke:#6a51a3;stroke-width:0.8;" x="278.049577" xlink:href="#m95c6e3cd59" y="214.448717"/>
     <use style="fill:#6a51a3;stroke:#6a51a3;stroke-width:0.8;" x="301.998731" xlink:href="#m95c6e3cd59" y="235.999185"/>
     <use style="fill:#6a51a3;stroke:#6a51a3;stroke-width:0.8;" x="325.947885" xlink:href="#m95c6e3cd59" y="272.634982"/>
     <use style="fill:#6a51a3;stroke:#6a51a3;stroke-width:0.8;" x="349.897038" xlink:href="#m95c6e3cd59" y="253.23956"/>
     <use style="fill:#6a51a3;stroke:#6a51a3;stroke-width:0.8;" x="373.846192" xlink:href="#m95c6e3cd59" y="253.23956"/>
     <use style="fill:#6a51a3;stroke:#6a51a3;stroke-width:0.8;" x="421.7445" xlink:href="#m95c6e3cd59" y="253.23956"/>
    </g>
   </g>
   <g id="PolyCollection_1">
    <defs>
     <path d="M 110.4055 -297.977823 
L 110.4055 -284.296055 
L 113.550338 -283.817299 
L 116.695177 -283.398317 
L 119.840015 -282.996064 
L 122.984854 -282.514661 
L 126.129692 -282.231383 
L 129.27453 -281.743225 
L 132.419369 -281.463374 
L 135.564207 -281.123049 
L 138.709045 -280.688142 
L 141.853884 -280.27786 
L 144.998722 -279.816451 
L 148.143561 -279.431413 
L 151.288399 -278.961732 
L 154.433237 -278.492082 
L 157.578076 -277.907315 
L 160.722914 -277.393297 
L 163.867753 -276.786891 
L 167.012591 -276.146811 
L 170.157429 -275.555036 
L 173.302268 -274.964853 
L 176.447106 -274.35851 
L 179.591944 -273.622216 
L 182.736783 -272.934122 
L 185.881621 -272.129217 
L 189.02646 -271.551659 
L 192.171298 -270.845799 
L 195.316136 -270.161189 
L 198.460975 -269.368734 
L 201.605813 -268.686083 
L 204.750652 -268.003525 
L 207.89549 -267.272432 
L 211.040328 -266.58879 
L 214.185167 -265.694823 
L 217.330005 -264.885248 
L 220.474843 -264.062339 
L 223.619682 -263.303908 
L 226.76452 -262.485748 
L 229.909359 -261.779142 
L 233.054197 -261.032565 
L 236.199035 -260.278081 
L 239.343874 -259.498716 
L 242.488712 -258.762306 
L 245.633551 -257.943725 
L 248.778389 -256.994518 
L 251.923227 -255.978388 
L 255.068066 -255.058357 
L 258.212904 -254.297834 
L 261.357742 -253.50971 
L 264.502581 -252.615913 
L 267.647419 -251.832409 
L 270.792258 -250.899488 
L 273.937096 -250.018118 
L 277.081934 -249.222097 
L 280.226773 -248.309692 
L 283.371611 -247.399339 
L 286.516449 -246.488986 
L 289.661288 -245.627612 
L 292.806126 -244.81955 
L 295.950965 -244.053944 
L 299.095803 -243.288338 
L 302.240641 -242.522732 
L 305.38548 -241.757126 
L 308.530318 -240.99152 
L 311.675157 -240.077804 
L 314.819995 -239.157139 
L 317.964833 -238.28411 
L 321.109672 -237.548924 
L 324.25451 -236.642957 
L 327.399348 -235.73699 
L 330.544187 -234.894649 
L 333.689025 -234.069158 
L 336.833864 -233.243666 
L 339.978702 -232.418641 
L 343.12354 -231.595721 
L 346.268379 -230.794039 
L 349.413217 -229.966913 
L 352.558056 -229.116211 
L 355.702894 -228.29072 
L 358.847732 -227.465229 
L 361.992571 -226.626173 
L 365.137409 -225.748064 
L 368.282247 -224.844887 
L 371.427086 -223.950031 
L 374.571924 -223.153817 
L 377.716763 -222.283223 
L 380.861601 -221.388566 
L 384.006439 -220.495452 
L 387.151278 -219.602338 
L 390.296116 -218.774538 
L 393.440955 -217.948125 
L 396.585793 -217.121711 
L 399.730631 -216.295298 
L 402.87547 -215.446385 
L 406.020308 -214.58812 
L 409.165146 -213.729854 
L 412.309985 -212.871589 
L 415.454823 -212.013323 
L 418.599662 -211.155058 
L 421.7445 -210.296792 
L 421.7445 -254.725674 
L 421.7445 -254.725674 
L 418.599662 -255.067817 
L 415.454823 -255.409741 
L 412.309985 -255.749988 
L 409.165146 -256.050714 
L 406.020308 -256.325607 
L 402.87547 -256.599864 
L 399.730631 -256.873747 
L 396.585793 -257.222821 
L 393.440955 -257.612404 
L 390.296116 -257.95708 
L 387.151278 -258.260849 
L 384.006439 -258.562253 
L 380.861601 -258.863658 
L 377.716763 -259.165062 
L 374.571924 -259.466466 
L 371.427086 -259.767871 
L 368.282247 -260.069924 
L 365.137409 -260.39172 
L 361.992571 -260.713515 
L 358.847732 -261.03531 
L 355.702894 -261.356161 
L 352.558056 -261.679625 
L 349.413217 -262.00215 
L 346.268379 -262.324675 
L 343.12354 -262.647199 
L 339.978702 -262.969724 
L 336.833864 -263.292249 
L 333.689025 -263.614774 
L 330.544187 -263.937299 
L 327.399348 -264.259263 
L 324.25451 -264.530301 
L 321.109672 -264.798563 
L 317.964833 -265.066826 
L 314.819995 -265.335088 
L 311.675157 -265.651393 
L 308.530318 -266.046656 
L 305.38548 -266.441918 
L 302.240641 -266.837181 
L 299.095803 -267.162548 
L 295.950965 -267.485072 
L 292.806126 -267.807597 
L 289.661288 -268.13001 
L 286.516449 -268.452006 
L 283.371611 -268.774003 
L 280.226773 -269.095999 
L 277.081934 -269.402391 
L 273.937096 -269.707117 
L 270.792258 -270.028733 
L 267.647419 -270.316568 
L 264.502581 -270.619551 
L 261.357742 -270.888792 
L 258.212904 -271.156379 
L 255.068066 -271.543268 
L 251.923227 -271.9106 
L 248.778389 -272.313438 
L 245.633551 -272.644784 
L 242.488712 -272.967447 
L 239.343874 -273.333368 
L 236.199035 -273.652412 
L 233.054197 -274.05192 
L 229.909359 -274.455027 
L 226.76452 -274.780665 
L 223.619682 -275.072568 
L 220.474843 -275.471274 
L 217.330005 -275.784801 
L 214.185167 -276.205029 
L 211.040328 -276.64432 
L 207.89549 -277.147404 
L 204.750652 -277.579543 
L 201.605813 -277.957484 
L 198.460975 -278.461878 
L 195.316136 -278.964664 
L 192.171298 -279.491112 
L 189.02646 -279.995807 
L 185.881621 -280.452751 
L 182.736783 -281.037305 
L 179.591944 -281.580105 
L 176.447106 -282.126914 
L 173.302268 -282.656873 
L 170.157429 -283.239627 
L 167.012591 -283.9716 
L 163.867753 -284.541904 
L 160.722914 -285.249524 
L 157.578076 -285.978632 
L 154.433237 -286.682422 
L 151.288399 -287.472132 
L 148.143561 -288.198589 
L 144.998722 -289.004942 
L 141.853884 -289.799084 
L 138.709045 -290.546313 
L 135.564207 -291.302662 
L 132.419369 -292.112727 
L 129.27453 -292.972311 
L 126.129692 -293.848198 
L 122.984854 -294.724815 
L 119.840015 -295.537478 
L 116.695177 -296.324467 
L 113.550338 -297.153472 
L 110.4055 -297.977823 
z
" id="mf07ef5ffc9" style="stroke:#ffffff;stroke-opacity:0.15;stroke-width:0.8;"/>
    </defs>
    <g clip-path="url(#p1c2a6328b6)">
     <use style="fill:#6a51a3;fill-opacity:0.15;stroke:#ffffff;stroke-opacity:0.15;stroke-width:0.8;" x="0" xlink:href="#mf07ef5ffc9" y="491.126383"/>
    </g>
   </g>
   <g id="PathCollection_2">
    <defs>
     <path d="M -3.535534 3.535534 
L 3.535534 -3.535534 
M -3.535534 -3.535534 
L 3.535534 3.535534 
" id="mbf44d4ba47" style="stroke:#9e9bc8;stroke-width:1.2;"/>
    </defs>
    <g clip-path="url(#p1c2a6328b6)">
     <use style="fill:#9e9bc8;stroke:#9e9bc8;stroke-width:1.2;" x="110.4055" xlink:href="#mbf44d4ba47" y="218.292854"/>
     <use style="fill:#9e9bc8;stroke:#9e9bc8;stroke-width:1.2;" x="134.354654" xlink:href="#mbf44d4ba47" y="223.40045"/>
     <use style="fill:#9e9bc8;stroke:#9e9bc8;stroke-width:1.2;" x="158.303808" xlink:href="#mbf44d4ba47" y="228.30259"/>
     <use style="fill:#9e9bc8;stroke:#9e9bc8;stroke-width:1.2;" x="182.252962" xlink:href="#mbf44d4ba47" y="234.1898"/>
     <use style="fill:#9e9bc8;stroke:#9e9bc8;stroke-width:1.2;" x="206.202115" xlink:href="#mbf44d4ba47" y="261.492931"/>
     <use style="fill:#9e9bc8;stroke:#9e9bc8;stroke-width:1.2;" x="230.151269" xlink:href="#mbf44d4ba47" y="234.567358"/>
     <use style="fill:#9e9bc8;stroke:#9e9bc8;stroke-width:1.2;" x="254.100423" xlink:href="#mbf44d4ba47" y="244.218434"/>
     <use style="fill:#9e9bc8;stroke:#9e9bc8;stroke-width:1.2;" x="278.049577" xlink:href="#mbf44d4ba47" y="250.653504"/>
     <use style="fill:#9e9bc8;stroke:#9e9bc8;stroke-width:1.2;" x="301.998731" xlink:href="#mbf44d4ba47" y="251.054161"/>
     <use style="fill:#9e9bc8;stroke:#9e9bc8;stroke-width:1.2;" x="325.947885" xlink:href="#mbf44d4ba47" y="250.56433"/>
     <use style="fill:#9e9bc8;stroke:#9e9bc8;stroke-width:1.2;" x="349.897038" xlink:href="#mbf44d4ba47" y="250.852431"/>
     <use style="fill:#9e9bc8;stroke:#9e9bc8;stroke-width:1.2;" x="373.846192" xlink:href="#mbf44d4ba47" y="255.797198"/>
     <use style="fill:#9e9bc8;stroke:#9e9bc8;stroke-width:1.2;" x="397.795346" xlink:href="#mbf44d4ba47" y="271.341954"/>
     <use style="fill:#9e9bc8;stroke:#9e9bc8;stroke-width:1.2;" x="421.7445" xlink:href="#mbf44d4ba47" y="268.755898"/>
    </g>
   </g>
   <g id="PolyCollection_2">
    <defs>
     <path d="M 110.4055 -273.482818 
L 110.4055 -262.891184 
L 113.550338 -262.511253 
L 116.695177 -262.165597 
L 119.840015 -261.803206 
L 122.984854 -261.48255 
L 126.129692 -261.189673 
L 129.27453 -260.889019 
L 132.419369 -260.563783 
L 135.564207 -260.21341 
L 138.709045 -259.880071 
L 141.853884 -259.553229 
L 144.998722 -259.221364 
L 148.143561 -258.863686 
L 151.288399 -258.527836 
L 154.433237 -258.210937 
L 157.578076 -257.882709 
L 160.722914 -257.554316 
L 163.867753 -257.223823 
L 167.012591 -256.883921 
L 170.157429 -256.544019 
L 173.302268 -256.176733 
L 176.447106 -255.76872 
L 179.591944 -255.360707 
L 182.736783 -254.952694 
L 185.881621 -254.617447 
L 189.02646 -254.271509 
L 192.171298 -253.914653 
L 195.316136 -253.534068 
L 198.460975 -253.153727 
L 201.605813 -252.77374 
L 204.750652 -252.421479 
L 207.89549 -252.037881 
L 211.040328 -251.63379 
L 214.185167 -251.272051 
L 217.330005 -250.860851 
L 220.474843 -250.495688 
L 223.619682 -250.092731 
L 226.76452 -249.689037 
L 229.909359 -249.285021 
L 233.054197 -248.872342 
L 236.199035 -248.413933 
L 239.343874 -247.985399 
L 242.488712 -247.55519 
L 245.633551 -247.167943 
L 248.778389 -246.759215 
L 251.923227 -246.312768 
L 255.068066 -245.849517 
L 258.212904 -245.453564 
L 261.357742 -244.990331 
L 264.502581 -244.550535 
L 267.647419 -244.121522 
L 270.792258 -243.674665 
L 273.937096 -243.249013 
L 277.081934 -242.799582 
L 280.226773 -242.3488 
L 283.371611 -241.892303 
L 286.516449 -241.439752 
L 289.661288 -240.938561 
L 292.806126 -240.411331 
L 295.950965 -239.936763 
L 299.095803 -239.426618 
L 302.240641 -238.95677 
L 305.38548 -238.491314 
L 308.530318 -237.982911 
L 311.675157 -237.460333 
L 314.819995 -236.949572 
L 317.964833 -236.452828 
L 321.109672 -235.934243 
L 324.25451 -235.443507 
L 327.399348 -234.961785 
L 330.544187 -234.428459 
L 333.689025 -233.902677 
L 336.833864 -233.402397 
L 339.978702 -232.903048 
L 343.12354 -232.37139 
L 346.268379 -231.880011 
L 349.413217 -231.396751 
L 352.558056 -230.906215 
L 355.702894 -230.405261 
L 358.847732 -229.905886 
L 361.992571 -229.380253 
L 365.137409 -228.843238 
L 368.282247 -228.372996 
L 371.427086 -227.904964 
L 374.571924 -227.387677 
L 377.716763 -226.860442 
L 380.861601 -226.333207 
L 384.006439 -225.821799 
L 387.151278 -225.332902 
L 390.296116 -224.844004 
L 393.440955 -224.355107 
L 396.585793 -223.855777 
L 399.730631 -223.341981 
L 402.87547 -222.828185 
L 406.020308 -222.31439 
L 409.165146 -221.800594 
L 412.309985 -221.286798 
L 415.454823 -220.773003 
L 418.599662 -220.259207 
L 421.7445 -219.745411 
L 421.7445 -232.943416 
L 421.7445 -232.943416 
L 418.599662 -233.258444 
L 415.454823 -233.592232 
L 412.309985 -233.9079 
L 409.165146 -234.232305 
L 406.020308 -234.556294 
L 402.87547 -234.880283 
L 399.730631 -235.204272 
L 396.585793 -235.510424 
L 393.440955 -235.814998 
L 390.296116 -236.119385 
L 387.151278 -236.423446 
L 384.006439 -236.727507 
L 380.861601 -237.074379 
L 377.716763 -237.432129 
L 374.571924 -237.761711 
L 371.427086 -238.058935 
L 368.282247 -238.38818 
L 365.137409 -238.774005 
L 361.992571 -239.099634 
L 358.847732 -239.423741 
L 355.702894 -239.772346 
L 352.558056 -240.08334 
L 349.413217 -240.403712 
L 346.268379 -240.761654 
L 343.12354 -241.118852 
L 339.978702 -241.476051 
L 336.833864 -241.83236 
L 333.689025 -242.165483 
L 330.544187 -242.51289 
L 327.399348 -242.883717 
L 324.25451 -243.224996 
L 321.109672 -243.56749 
L 317.964833 -243.913655 
L 314.819995 -244.272034 
L 311.675157 -244.595387 
L 308.530318 -244.963586 
L 305.38548 -245.351896 
L 302.240641 -245.7078 
L 299.095803 -246.112137 
L 295.950965 -246.475803 
L 292.806126 -246.806345 
L 289.661288 -247.159456 
L 286.516449 -247.531069 
L 283.371611 -247.912772 
L 280.226773 -248.274367 
L 277.081934 -248.663173 
L 273.937096 -249.063951 
L 270.792258 -249.428765 
L 267.647419 -249.829418 
L 264.502581 -250.193301 
L 261.357742 -250.579343 
L 258.212904 -250.978285 
L 255.068066 -251.374724 
L 251.923227 -251.732185 
L 248.778389 -252.200954 
L 245.633551 -252.648057 
L 242.488712 -253.086537 
L 239.343874 -253.501201 
L 236.199035 -253.924404 
L 233.054197 -254.36453 
L 229.909359 -254.783865 
L 226.76452 -255.250174 
L 223.619682 -255.797715 
L 220.474843 -256.266549 
L 217.330005 -256.733293 
L 214.185167 -257.188962 
L 211.040328 -257.672789 
L 207.89549 -258.167277 
L 204.750652 -258.661614 
L 201.605813 -259.120843 
L 198.460975 -259.577722 
L 195.316136 -260.06573 
L 192.171298 -260.508328 
L 189.02646 -261.021503 
L 185.881621 -261.415338 
L 182.736783 -261.883625 
L 179.591944 -262.402793 
L 176.447106 -262.934418 
L 173.302268 -263.468522 
L 170.157429 -263.986241 
L 167.012591 -264.460289 
L 163.867753 -264.95313 
L 160.722914 -265.421334 
L 157.578076 -265.883801 
L 154.433237 -266.379237 
L 151.288399 -266.862395 
L 148.143561 -267.318395 
L 144.998722 -267.869468 
L 141.853884 -268.368399 
L 138.709045 -268.865993 
L 135.564207 -269.362892 
L 132.419369 -269.901272 
L 129.27453 -270.375127 
L 126.129692 -270.853248 
L 122.984854 -271.382157 
L 119.840015 -271.924116 
L 116.695177 -272.42819 
L 113.550338 -272.933536 
L 110.4055 -273.482818 
z
" id="m0b71c9cc93" style="stroke:#ffffff;stroke-opacity:0.15;stroke-width:0.8;"/>
    </defs>
    <g clip-path="url(#p1c2a6328b6)">
     <use style="fill:#9e9bc8;fill-opacity:0.15;stroke:#ffffff;stroke-opacity:0.15;stroke-width:0.8;" x="0" xlink:href="#m0b71c9cc93" y="491.126383"/>
    </g>
   </g>
   <g id="line2d_19">
    <path clip-path="url(#p1c2a6328b6)" d="M 110.4055 208.720111 
L 110.4055 191.043271 
" style="fill:none;stroke:#6a51a3;stroke-linecap:round;stroke-width:2.1;"/>
   </g>
   <g id="line2d_20">
    <path clip-path="url(#p1c2a6328b6)" d="M 134.354654 244.619373 
L 134.354654 175.657873 
" style="fill:none;stroke:#6a51a3;stroke-linecap:round;stroke-width:2.1;"/>
   </g>
   <g id="line2d_21">
    <path clip-path="url(#p1c2a6328b6)" d="M 158.303808 214.141665 
L 158.303808 201.240384 
" style="fill:none;stroke:#6a51a3;stroke-linecap:round;stroke-width:2.1;"/>
   </g>
   <g id="line2d_22">
    <path clip-path="url(#p1c2a6328b6)" d="M 182.252962 222.842324 
L 182.252962 210.04633 
" style="fill:none;stroke:#6a51a3;stroke-linecap:round;stroke-width:2.1;"/>
   </g>
   <g id="line2d_23">
    <path clip-path="url(#p1c2a6328b6)" d="M 206.202115 267.345321 
L 206.202115 189.763635 
" style="fill:none;stroke:#6a51a3;stroke-linecap:round;stroke-width:2.1;"/>
   </g>
   <g id="line2d_24">
    <path clip-path="url(#p1c2a6328b6)" d="M 230.151269 229.679827 
L 230.151269 203.02063 
" style="fill:none;stroke:#6a51a3;stroke-linecap:round;stroke-width:2.1;"/>
   </g>
   <g id="line2d_25">
    <path clip-path="url(#p1c2a6328b6)" d="M 254.100423 231.516688 
L 254.100423 178.761141 
" style="fill:none;stroke:#6a51a3;stroke-linecap:round;stroke-width:2.1;"/>
   </g>
   <g id="line2d_26">
    <path clip-path="url(#p1c2a6328b6)" d="M 278.049577 330.821247 
L 278.049577 98.076187 
" style="fill:none;stroke:#6a51a3;stroke-linecap:round;stroke-width:2.1;"/>
   </g>
   <g id="line2d_27">
    <path clip-path="url(#p1c2a6328b6)" d="M 301.998731 270.479935 
L 301.998731 201.518436 
" style="fill:none;stroke:#6a51a3;stroke-linecap:round;stroke-width:2.1;"/>
   </g>
   <g id="line2d_28">
    <path clip-path="url(#p1c2a6328b6)" d="M 325.947885 301.728114 
L 325.947885 233.844139 
" style="fill:none;stroke:#6a51a3;stroke-linecap:round;stroke-width:2.1;"/>
   </g>
   <g id="line2d_29">
    <path clip-path="url(#p1c2a6328b6)" d="M 349.897038 253.23956 
L 349.897038 253.23956 
" style="fill:none;stroke:#6a51a3;stroke-linecap:round;stroke-width:2.1;"/>
   </g>
   <g id="line2d_30">
    <path clip-path="url(#p1c2a6328b6)" d="M 373.846192 330.821247 
L 373.846192 156.262452 
" style="fill:none;stroke:#6a51a3;stroke-linecap:round;stroke-width:2.1;"/>
   </g>
   <g id="line2d_31">
    <path clip-path="url(#p1c2a6328b6)" d="M 421.7445 253.23956 
L 421.7445 253.23956 
" style="fill:none;stroke:#6a51a3;stroke-linecap:round;stroke-width:2.1;"/>
   </g>
   <g id="line2d_32">
    <path clip-path="url(#p1c2a6328b6)" d="M 110.4055 200.47538 
L 113.550338 201.066627 
L 116.695177 201.657874 
L 119.840015 202.249121 
L 122.984854 202.840368 
L 126.129692 203.431614 
L 129.27453 204.022861 
L 132.419369 204.614108 
L 135.564207 205.205355 
L 138.709045 205.796602 
L 141.853884 206.387849 
L 144.998722 206.979096 
L 148.143561 207.570342 
L 151.288399 208.161589 
L 154.433237 208.752836 
L 157.578076 209.344083 
L 160.722914 209.93533 
L 163.867753 210.526577 
L 167.012591 211.117824 
L 170.157429 211.70907 
L 173.302268 212.300317 
L 176.447106 212.891564 
L 179.591944 213.482811 
L 182.736783 214.074058 
L 185.881621 214.665305 
L 189.02646 215.256551 
L 192.171298 215.847798 
L 195.316136 216.439045 
L 198.460975 217.030292 
L 201.605813 217.621539 
L 204.750652 218.212786 
L 207.89549 218.804033 
L 211.040328 219.395279 
L 214.185167 219.986526 
L 217.330005 220.577773 
L 220.474843 221.16902 
L 223.619682 221.760267 
L 226.76452 222.351514 
L 229.909359 222.942761 
L 233.054197 223.534007 
L 236.199035 224.125254 
L 239.343874 224.716501 
L 242.488712 225.307748 
L 245.633551 225.898995 
L 248.778389 226.490242 
L 251.923227 227.081489 
L 255.068066 227.672735 
L 258.212904 228.263982 
L 261.357742 228.855229 
L 264.502581 229.446476 
L 267.647419 230.037723 
L 270.792258 230.62897 
L 273.937096 231.220217 
L 277.081934 231.811463 
L 280.226773 232.40271 
L 283.371611 232.993957 
L 286.516449 233.585204 
L 289.661288 234.176451 
L 292.806126 234.767698 
L 295.950965 235.358945 
L 299.095803 235.950191 
L 302.240641 236.541438 
L 305.38548 237.132685 
L 308.530318 237.723932 
L 311.675157 238.315179 
L 314.819995 238.906426 
L 317.964833 239.497672 
L 321.109672 240.088919 
L 324.25451 240.680166 
L 327.399348 241.271413 
L 330.544187 241.86266 
L 333.689025 242.453907 
L 336.833864 243.045154 
L 339.978702 243.6364 
L 343.12354 244.227647 
L 346.268379 244.818894 
L 349.413217 245.410141 
L 352.558056 246.001388 
L 355.702894 246.592635 
L 358.847732 247.183882 
L 361.992571 247.775128 
L 365.137409 248.366375 
L 368.282247 248.957622 
L 371.427086 249.548869 
L 374.571924 250.140116 
L 377.716763 250.731363 
L 380.861601 251.32261 
L 384.006439 251.913856 
L 387.151278 252.505103 
L 390.296116 253.09635 
L 393.440955 253.687597 
L 396.585793 254.278844 
L 399.730631 254.870091 
L 402.87547 255.461338 
L 406.020308 256.052584 
L 409.165146 256.643831 
L 412.309985 257.235078 
L 415.454823 257.826325 
L 418.599662 258.417572 
L 421.7445 259.008819 
" style="fill:none;stroke:#6a51a3;stroke-linecap:round;stroke-width:1.8;"/>
   </g>
   <g id="line2d_33">
    <path clip-path="url(#p1c2a6328b6)" d="M 110.4055 230.174734 
L 110.4055 206.410975 
" style="fill:none;stroke:#9e9bc8;stroke-linecap:round;stroke-width:2.1;"/>
   </g>
   <g id="line2d_34">
    <path clip-path="url(#p1c2a6328b6)" d="M 134.354654 265.175204 
L 134.354654 175.657873 
" style="fill:none;stroke:#9e9bc8;stroke-linecap:round;stroke-width:2.1;"/>
   </g>
   <g id="line2d_35">
    <path clip-path="url(#p1c2a6328b6)" d="M 158.303808 235.691322 
L 158.303808 220.598297 
" style="fill:none;stroke:#9e9bc8;stroke-linecap:round;stroke-width:2.1;"/>
   </g>
   <g id="line2d_36">
    <path clip-path="url(#p1c2a6328b6)" d="M 182.252962 240.488511 
L 182.252962 228.198343 
" style="fill:none;stroke:#9e9bc8;stroke-linecap:round;stroke-width:2.1;"/>
   </g>
   <g id="line2d_37">
    <path clip-path="url(#p1c2a6328b6)" d="M 206.202115 277.999673 
L 206.202115 243.335515 
" style="fill:none;stroke:#9e9bc8;stroke-linecap:round;stroke-width:2.1;"/>
   </g>
   <g id="line2d_38">
    <path clip-path="url(#p1c2a6328b6)" d="M 230.151269 242.194032 
L 230.151269 227.460086 
" style="fill:none;stroke:#9e9bc8;stroke-linecap:round;stroke-width:2.1;"/>
   </g>
   <g id="line2d_39">
    <path clip-path="url(#p1c2a6328b6)" d="M 254.100423 253.690617 
L 254.100423 232.942026 
" style="fill:none;stroke:#9e9bc8;stroke-linecap:round;stroke-width:2.1;"/>
   </g>
   <g id="line2d_40">
    <path clip-path="url(#p1c2a6328b6)" d="M 278.049577 271.341954 
L 278.049577 227.378998 
" style="fill:none;stroke:#9e9bc8;stroke-linecap:round;stroke-width:2.1;"/>
   </g>
   <g id="line2d_41">
    <path clip-path="url(#p1c2a6328b6)" d="M 301.998731 260.342109 
L 301.998731 241.219862 
" style="fill:none;stroke:#9e9bc8;stroke-linecap:round;stroke-width:2.1;"/>
   </g>
   <g id="line2d_42">
    <path clip-path="url(#p1c2a6328b6)" d="M 325.947885 261.800298 
L 325.947885 239.863407 
" style="fill:none;stroke:#9e9bc8;stroke-linecap:round;stroke-width:2.1;"/>
   </g>
   <g id="line2d_43">
    <path clip-path="url(#p1c2a6328b6)" d="M 349.897038 266.368769 
L 349.897038 235.336094 
" style="fill:none;stroke:#9e9bc8;stroke-linecap:round;stroke-width:2.1;"/>
   </g>
   <g id="line2d_44">
    <path clip-path="url(#p1c2a6328b6)" d="M 373.846192 264.748931 
L 373.846192 246.845465 
" style="fill:none;stroke:#9e9bc8;stroke-linecap:round;stroke-width:2.1;"/>
   </g>
   <g id="line2d_45">
    <path clip-path="url(#p1c2a6328b6)" d="M 397.795346 286.858291 
L 397.795346 253.23956 
" style="fill:none;stroke:#9e9bc8;stroke-linecap:round;stroke-width:2.1;"/>
   </g>
   <g id="line2d_46">
    <path clip-path="url(#p1c2a6328b6)" d="M 421.7445 299.788572 
L 421.7445 253.23956 
" style="fill:none;stroke:#9e9bc8;stroke-linecap:round;stroke-width:2.1;"/>
   </g>
   <g id="line2d_47">
    <path clip-path="url(#p1c2a6328b6)" d="M 110.4055 223.074419 
L 113.550338 223.494686 
L 116.695177 223.914954 
L 119.840015 224.335221 
L 122.984854 224.755488 
L 126.129692 225.175755 
L 129.27453 225.596023 
L 132.419369 226.01629 
L 135.564207 226.436557 
L 138.709045 226.856824 
L 141.853884 227.277091 
L 144.998722 227.697359 
L 148.143561 228.117626 
L 151.288399 228.537893 
L 154.433237 228.95816 
L 157.578076 229.378427 
L 160.722914 229.798695 
L 163.867753 230.218962 
L 167.012591 230.639229 
L 170.157429 231.059496 
L 173.302268 231.479764 
L 176.447106 231.900031 
L 179.591944 232.320298 
L 182.736783 232.740565 
L 185.881621 233.160832 
L 189.02646 233.5811 
L 192.171298 234.001367 
L 195.316136 234.421634 
L 198.460975 234.841901 
L 201.605813 235.262169 
L 204.750652 235.682436 
L 207.89549 236.102703 
L 211.040328 236.52297 
L 214.185167 236.943237 
L 217.330005 237.363505 
L 220.474843 237.783772 
L 223.619682 238.204039 
L 226.76452 238.624306 
L 229.909359 239.044573 
L 233.054197 239.464841 
L 236.199035 239.885108 
L 239.343874 240.305375 
L 242.488712 240.725642 
L 245.633551 241.14591 
L 248.778389 241.566177 
L 251.923227 241.986444 
L 255.068066 242.406711 
L 258.212904 242.826978 
L 261.357742 243.247246 
L 264.502581 243.667513 
L 267.647419 244.08778 
L 270.792258 244.508047 
L 273.937096 244.928315 
L 277.081934 245.348582 
L 280.226773 245.768849 
L 283.371611 246.189116 
L 286.516449 246.609383 
L 289.661288 247.029651 
L 292.806126 247.449918 
L 295.950965 247.870185 
L 299.095803 248.290452 
L 302.240641 248.71072 
L 305.38548 249.130987 
L 308.530318 249.551254 
L 311.675157 249.971521 
L 314.819995 250.391788 
L 317.964833 250.812056 
L 321.109672 251.232323 
L 324.25451 251.65259 
L 327.399348 252.072857 
L 330.544187 252.493124 
L 333.689025 252.913392 
L 336.833864 253.333659 
L 339.978702 253.753926 
L 343.12354 254.174193 
L 346.268379 254.594461 
L 349.413217 255.014728 
L 352.558056 255.434995 
L 355.702894 255.855262 
L 358.847732 256.275529 
L 361.992571 256.695797 
L 365.137409 257.116064 
L 368.282247 257.536331 
L 371.427086 257.956598 
L 374.571924 258.376866 
L 377.716763 258.797133 
L 380.861601 259.2174 
L 384.006439 259.637667 
L 387.151278 260.057934 
L 390.296116 260.478202 
L 393.440955 260.898469 
L 396.585793 261.318736 
L 399.730631 261.739003 
L 402.87547 262.15927 
L 406.020308 262.579538 
L 409.165146 262.999805 
L 412.309985 263.420072 
L 415.454823 263.840339 
L 418.599662 264.260607 
L 421.7445 264.680874 
" style="fill:none;stroke:#9e9bc8;stroke-linecap:round;stroke-width:1.8;"/>
   </g>
   <g id="patch_3">
    <path d="M 110.4055 342.4585 
L 110.4055 20.4945 
" style="fill:none;stroke:#262626;stroke-linecap:square;stroke-linejoin:miter;"/>
   </g>
   <g id="patch_4">
    <path d="M 110.4055 342.4585 
L 421.7445 342.4585 
" style="fill:none;stroke:#262626;stroke-linecap:square;stroke-linejoin:miter;"/>
   </g>
   <g id="text_21">
    <!-- Education vs. Water Quality Perception, by Rural Classification -->
    <g style="fill:#262626;" transform="translate(116.3345 14.4945)scale(0.096 -0.096)">
     <defs>
      <path d="M 10.6875 12.40625 
L 21 12.40625 
L 21 0 
L 10.6875 0 
z
" id="DejaVuSans-46"/>
      <path d="M 11.71875 12.40625 
L 22.015625 12.40625 
L 22.015625 4 
L 14.015625 -11.625 
L 7.71875 -11.625 
L 11.71875 4 
z
" id="DejaVuSans-44"/>
     </defs>
     <use xlink:href="#DejaVuSans-69"/>
     <use x="63.183594" xlink:href="#DejaVuSans-100"/>
     <use x="126.660156" xlink:href="#DejaVuSans-117"/>
     <use x="190.039062" xlink:href="#DejaVuSans-99"/>
     <use x="245.019531" xlink:href="#DejaVuSans-97"/>
     <use x="306.298828" xlink:href="#DejaVuSans-116"/>
     <use x="345.507812" xlink:href="#DejaVuSans-105"/>
     <use x="373.291016" xlink:href="#DejaVuSans-111"/>
     <use x="434.472656" xlink:href="#DejaVuSans-110"/>
     <use x="497.851562" xlink:href="#DejaVuSans-32"/>
     <use x="529.638672" xlink:href="#DejaVuSans-118"/>
     <use x="588.818359" xlink:href="#DejaVuSans-115"/>
     <use x="640.917969" xlink:href="#DejaVuSans-46"/>
     <use x="672.705078" xlink:href="#DejaVuSans-32"/>
     <use x="704.492188" xlink:href="#DejaVuSans-87"/>
     <use x="796.994141" xlink:href="#DejaVuSans-97"/>
     <use x="858.273438" xlink:href="#DejaVuSans-116"/>
     <use x="897.482422" xlink:href="#DejaVuSans-101"/>
     <use x="959.005859" xlink:href="#DejaVuSans-114"/>
     <use x="1000.119141" xlink:href="#DejaVuSans-32"/>
     <use x="1031.90625" xlink:href="#DejaVuSans-81"/>
     <use x="1110.617188" xlink:href="#DejaVuSans-117"/>
     <use x="1173.996094" xlink:href="#DejaVuSans-97"/>
     <use x="1235.275391" xlink:href="#DejaVuSans-108"/>
     <use x="1263.058594" xlink:href="#DejaVuSans-105"/>
     <use x="1290.841797" xlink:href="#DejaVuSans-116"/>
     <use x="1330.050781" xlink:href="#DejaVuSans-121"/>
     <use x="1389.230469" xlink:href="#DejaVuSans-32"/>
     <use x="1421.017578" xlink:href="#DejaVuSans-80"/>
     <use x="1477.695312" xlink:href="#DejaVuSans-101"/>
     <use x="1539.21875" xlink:href="#DejaVuSans-114"/>
     <use x="1578.082031" xlink:href="#DejaVuSans-99"/>
     <use x="1633.0625" xlink:href="#DejaVuSans-101"/>
     <use x="1694.585938" xlink:href="#DejaVuSans-112"/>
     <use x="1758.0625" xlink:href="#DejaVuSans-116"/>
     <use x="1797.271484" xlink:href="#DejaVuSans-105"/>
     <use x="1825.054688" xlink:href="#DejaVuSans-111"/>
     <use x="1886.236328" xlink:href="#DejaVuSans-110"/>
     <use x="1949.615234" xlink:href="#DejaVuSans-44"/>
     <use x="1981.402344" xlink:href="#DejaVuSans-32"/>
     <use x="2013.189453" xlink:href="#DejaVuSans-98"/>
     <use x="2076.666016" xlink:href="#DejaVuSans-121"/>
     <use x="2135.845703" xlink:href="#DejaVuSans-32"/>
     <use x="2167.632812" xlink:href="#DejaVuSans-82"/>
     <use x="2232.615234" xlink:href="#DejaVuSans-117"/>
     <use x="2295.994141" xlink:href="#DejaVuSans-114"/>
     <use x="2337.107422" xlink:href="#DejaVuSans-97"/>
     <use x="2398.386719" xlink:href="#DejaVuSans-108"/>
     <use x="2426.169922" xlink:href="#DejaVuSans-32"/>
     <use x="2457.957031" xlink:href="#DejaVuSans-67"/>
     <use x="2527.78125" xlink:href="#DejaVuSans-108"/>
     <use x="2555.564453" xlink:href="#DejaVuSans-97"/>
     <use x="2616.84375" xlink:href="#DejaVuSans-115"/>
     <use x="2668.943359" xlink:href="#DejaVuSans-115"/>
     <use x="2721.042969" xlink:href="#DejaVuSans-105"/>
     <use x="2748.826172" xlink:href="#DejaVuSans-102"/>
     <use x="2784.03125" xlink:href="#DejaVuSans-105"/>
     <use x="2811.814453" xlink:href="#DejaVuSans-99"/>
     <use x="2866.794922" xlink:href="#DejaVuSans-97"/>
     <use x="2928.074219" xlink:href="#DejaVuSans-116"/>
     <use x="2967.283203" xlink:href="#DejaVuSans-105"/>
     <use x="2995.066406" xlink:href="#DejaVuSans-111"/>
     <use x="3056.248047" xlink:href="#DejaVuSans-110"/>
    </g>
   </g>
   <g id="legend_1">
    <g id="patch_5">
     <path d="M 320.6755 67.059 
L 415.5845 67.059 
Q 417.3445 67.059 417.3445 65.299 
L 417.3445 26.6545 
Q 417.3445 24.8945 415.5845 24.8945 
L 320.6755 24.8945 
Q 318.9155 24.8945 318.9155 26.6545 
L 318.9155 65.299 
Q 318.9155 67.059 320.6755 67.059 
z
" style="fill:#ffffff;opacity:0.8;stroke:#cccccc;stroke-linejoin:miter;stroke-width:0.8;"/>
    </g>
    <g id="text_22">
     <!-- Rural Classification -->
     <g style="fill:#262626;" transform="translate(322.4355 35.709)scale(0.096 -0.096)">
      <use xlink:href="#DejaVuSans-82"/>
      <use x="64.982422" xlink:href="#DejaVuSans-117"/>
      <use x="128.361328" xlink:href="#DejaVuSans-114"/>
      <use x="169.474609" xlink:href="#DejaVuSans-97"/>
      <use x="230.753906" xlink:href="#DejaVuSans-108"/>
      <use x="258.537109" xlink:href="#DejaVuSans-32"/>
      <use x="290.324219" xlink:href="#DejaVuSans-67"/>
      <use x="360.148438" xlink:href="#DejaVuSans-108"/>
      <use x="387.931641" xlink:href="#DejaVuSans-97"/>
      <use x="449.210938" xlink:href="#DejaVuSans-115"/>
      <use x="501.310547" xlink:href="#DejaVuSans-115"/>
      <use x="553.410156" xlink:href="#DejaVuSans-105"/>
      <use x="581.193359" xlink:href="#DejaVuSans-102"/>
      <use x="616.398438" xlink:href="#DejaVuSans-105"/>
      <use x="644.181641" xlink:href="#DejaVuSans-99"/>
      <use x="699.162109" xlink:href="#DejaVuSans-97"/>
      <use x="760.441406" xlink:href="#DejaVuSans-116"/>
      <use x="799.650391" xlink:href="#DejaVuSans-105"/>
      <use x="827.433594" xlink:href="#DejaVuSans-111"/>
      <use x="888.615234" xlink:href="#DejaVuSans-110"/>
     </g>
    </g>
    <g id="PathCollection_3">
     <g>
      <use style="fill:#6a51a3;stroke:#6a51a3;stroke-width:0.8;" x="342.874687" xlink:href="#m95c6e3cd59" y="46.482125"/>
     </g>
    </g>
    <g id="text_23">
     <!-- Rural -->
     <g style="fill:#262626;" transform="translate(358.714687 48.792125)scale(0.088 -0.088)">
      <use xlink:href="#DejaVuSans-82"/>
      <use x="64.982422" xlink:href="#DejaVuSans-117"/>
      <use x="128.361328" xlink:href="#DejaVuSans-114"/>
      <use x="169.474609" xlink:href="#DejaVuSans-97"/>
      <use x="230.753906" xlink:href="#DejaVuSans-108"/>
     </g>
    </g>
    <g id="PathCollection_4">
     <g>
      <use style="fill:#9e9bc8;stroke:#9e9bc8;stroke-width:1.2;" x="342.874687" xlink:href="#mbf44d4ba47" y="59.398875"/>
     </g>
    </g>
    <g id="text_24">
     <!-- Non-Rural -->
     <g style="fill:#262626;" transform="translate(358.714687 61.708875)scale(0.088 -0.088)">
      <defs>
       <path d="M 4.890625 31.390625 
L 31.203125 31.390625 
L 31.203125 23.390625 
L 4.890625 23.390625 
z
" id="DejaVuSans-45"/>
      </defs>
      <use xlink:href="#DejaVuSans-78"/>
      <use x="74.804688" xlink:href="#DejaVuSans-111"/>
      <use x="135.986328" xlink:href="#DejaVuSans-110"/>
      <use x="199.365234" xlink:href="#DejaVuSans-45"/>
      <use x="235.449219" xlink:href="#DejaVuSans-82"/>
      <use x="300.431641" xlink:href="#DejaVuSans-117"/>
      <use x="363.810547" xlink:href="#DejaVuSans-114"/>
      <use x="404.923828" xlink:href="#DejaVuSans-97"/>
      <use x="466.203125" xlink:href="#DejaVuSans-108"/>
     </g>
    </g>
   </g>
  </g>
 </g>
 <defs>
  <clipPath id="p1c2a6328b6">
   <rect height="321.964" width="311.339" x="110.4055" y="20.4945"/>
  </clipPath>
 </defs>
</svg>
