<?xml version="1.0" encoding="utf-8" standalone="no"?>
<!DOCTYPE svg PUBLIC "-//W3C//DTD SVG 1.1//EN"
  "http://www.w3.org/Graphics/SVG/1.1/DTD/svg11.dtd">
<!-- Created with matplotlib (https://matplotlib.org/) -->
<svg height="363.514219pt" version="1.1" viewBox="0 0 363.361406 363.514219" width="363.361406pt" xmlns="http://www.w3.org/2000/svg" xmlns:xlink="http://www.w3.org/1999/xlink">
 <metadata>
  <rdf:RDF xmlns:cc="http://creativecommons.org/ns#" xmlns:dc="http://purl.org/dc/elements/1.1/" xmlns:rdf="http://www.w3.org/1999/02/22-rdf-syntax-ns#">
   <cc:Work>
    <dc:type rdf:resource="http://purl.org/dc/dcmitype/StillImage"/>
    <dc:date>2021-03-10T10:49:46.617880</dc:date>
    <dc:format>image/svg+xml</dc:format>
    <dc:creator>
     <cc:Agent>
      <dc:title>Matplotlib v3.3.2, https://matplotlib.org/</dc:title>
     </cc:Agent>
    </dc:creator>
   </cc:Work>
  </rdf:RDF>
 </metadata>
 <defs>
  <style type="text/css">*{stroke-linecap:butt;stroke-linejoin:round;}</style>
 </defs>
 <g id="figure_1">
  <g id="patch_1">
   <path d="M 0 363.514219 
L 363.361406 363.514219 
L 363.361406 0 
L 0 0 
z
" style="fill:#ffffff;"/>
  </g>
  <g id="axes_1">
   <g id="patch_2">
    <path d="M 46.964375 321.78 
L 350.044375 321.78 
L 350.044375 7.2 
L 46.964375 7.2 
z
" style="fill:#ffffff;"/>
   </g>
   <g id="matplotlib.axis_1">
    <g id="xtick_1">
     <g id="line2d_1">
      <defs>
       <path d="M 0 0 
L 0 6 
" id="m581e9c27b9" style="stroke:#262626;stroke-width:1.25;"/>
      </defs>
      <g>
       <use style="fill:#262626;stroke:#262626;stroke-width:1.25;" x="70.278221" xlink:href="#m581e9c27b9" y="321.78"/>
      </g>
     </g>
     <g id="text_1">
      <!-- 2 -->
      <g style="fill:#262626;" transform="translate(67.219706 339.153594)scale(0.11 -0.11)">
       <defs>
        <path d="M 50.34375 8.453125 
L 50.34375 0 
L 3.03125 0 
Q 2.9375 3.171875 4.046875 6.109375 
Q 5.859375 10.9375 9.828125 15.625 
Q 13.8125 20.3125 21.34375 26.46875 
Q 33.015625 36.03125 37.109375 41.625 
Q 41.21875 47.21875 41.21875 52.203125 
Q 41.21875 57.421875 37.46875 61 
Q 33.734375 64.59375 27.734375 64.59375 
Q 21.390625 64.59375 17.578125 60.78125 
Q 13.765625 56.984375 13.71875 50.25 
L 4.6875 51.171875 
Q 5.609375 61.28125 11.65625 66.578125 
Q 17.71875 71.875 27.9375 71.875 
Q 38.234375 71.875 44.234375 66.15625 
Q 50.25 60.453125 50.25 52 
Q 50.25 47.703125 48.484375 43.546875 
Q 46.734375 39.40625 42.65625 34.8125 
Q 38.578125 30.21875 29.109375 22.21875 
Q 21.1875 15.578125 18.9375 13.203125 
Q 16.703125 10.84375 15.234375 8.453125 
z
" id="ArialMT-50"/>
       </defs>
       <use xlink:href="#ArialMT-50"/>
      </g>
     </g>
    </g>
    <g id="xtick_2">
     <g id="line2d_2">
      <g>
       <use style="fill:#262626;stroke:#262626;stroke-width:1.25;" x="116.905913" xlink:href="#m581e9c27b9" y="321.78"/>
      </g>
     </g>
     <g id="text_2">
      <!-- 4 -->
      <g style="fill:#262626;" transform="translate(113.847398 339.153594)scale(0.11 -0.11)">
       <defs>
        <path d="M 32.328125 0 
L 32.328125 17.140625 
L 1.265625 17.140625 
L 1.265625 25.203125 
L 33.9375 71.578125 
L 41.109375 71.578125 
L 41.109375 25.203125 
L 50.78125 25.203125 
L 50.78125 17.140625 
L 41.109375 17.140625 
L 41.109375 0 
z
M 32.328125 25.203125 
L 32.328125 57.46875 
L 9.90625 25.203125 
z
" id="ArialMT-52"/>
       </defs>
       <use xlink:href="#ArialMT-52"/>
      </g>
     </g>
    </g>
    <g id="xtick_3">
     <g id="line2d_3">
      <g>
       <use style="fill:#262626;stroke:#262626;stroke-width:1.25;" x="163.533606" xlink:href="#m581e9c27b9" y="321.78"/>
      </g>
     </g>
     <g id="text_3">
      <!-- 6 -->
      <g style="fill:#262626;" transform="translate(160.47509 339.153594)scale(0.11 -0.11)">
       <defs>
        <path d="M 49.75 54.046875 
L 41.015625 53.375 
Q 39.84375 58.546875 37.703125 60.890625 
Q 34.125 64.65625 28.90625 64.65625 
Q 24.703125 64.65625 21.53125 62.3125 
Q 17.390625 59.28125 14.984375 53.46875 
Q 12.59375 47.65625 12.5 36.921875 
Q 15.671875 41.75 20.265625 44.09375 
Q 24.859375 46.4375 29.890625 46.4375 
Q 38.671875 46.4375 44.84375 39.96875 
Q 51.03125 33.5 51.03125 23.25 
Q 51.03125 16.5 48.125 10.71875 
Q 45.21875 4.9375 40.140625 1.859375 
Q 35.0625 -1.21875 28.609375 -1.21875 
Q 17.625 -1.21875 10.6875 6.859375 
Q 3.765625 14.9375 3.765625 33.5 
Q 3.765625 54.25 11.421875 63.671875 
Q 18.109375 71.875 29.4375 71.875 
Q 37.890625 71.875 43.28125 67.140625 
Q 48.6875 62.40625 49.75 54.046875 
z
M 13.875 23.1875 
Q 13.875 18.65625 15.796875 14.5 
Q 17.71875 10.359375 21.1875 8.171875 
Q 24.65625 6 28.46875 6 
Q 34.03125 6 38.03125 10.484375 
Q 42.046875 14.984375 42.046875 22.703125 
Q 42.046875 30.125 38.078125 34.390625 
Q 34.125 38.671875 28.125 38.671875 
Q 22.171875 38.671875 18.015625 34.390625 
Q 13.875 30.125 13.875 23.1875 
z
" id="ArialMT-54"/>
       </defs>
       <use xlink:href="#ArialMT-54"/>
      </g>
     </g>
    </g>
    <g id="xtick_4">
     <g id="line2d_4">
      <g>
       <use style="fill:#262626;stroke:#262626;stroke-width:1.25;" x="210.161298" xlink:href="#m581e9c27b9" y="321.78"/>
      </g>
     </g>
     <g id="text_4">
      <!-- 8 -->
      <g style="fill:#262626;" transform="translate(207.102782 339.153594)scale(0.11 -0.11)">
       <defs>
        <path d="M 17.671875 38.8125 
Q 12.203125 40.828125 9.5625 44.53125 
Q 6.9375 48.25 6.9375 53.421875 
Q 6.9375 61.234375 12.546875 66.546875 
Q 18.171875 71.875 27.484375 71.875 
Q 36.859375 71.875 42.578125 66.421875 
Q 48.296875 60.984375 48.296875 53.171875 
Q 48.296875 48.1875 45.671875 44.5 
Q 43.0625 40.828125 37.75 38.8125 
Q 44.34375 36.671875 47.78125 31.875 
Q 51.21875 27.09375 51.21875 20.453125 
Q 51.21875 11.28125 44.71875 5.03125 
Q 38.234375 -1.21875 27.640625 -1.21875 
Q 17.046875 -1.21875 10.546875 5.046875 
Q 4.046875 11.328125 4.046875 20.703125 
Q 4.046875 27.6875 7.59375 32.390625 
Q 11.140625 37.109375 17.671875 38.8125 
z
M 15.921875 53.71875 
Q 15.921875 48.640625 19.1875 45.40625 
Q 22.46875 42.1875 27.6875 42.1875 
Q 32.765625 42.1875 36.015625 45.375 
Q 39.265625 48.578125 39.265625 53.21875 
Q 39.265625 58.0625 35.90625 61.359375 
Q 32.5625 64.65625 27.59375 64.65625 
Q 22.5625 64.65625 19.234375 61.421875 
Q 15.921875 58.203125 15.921875 53.71875 
z
M 13.09375 20.65625 
Q 13.09375 16.890625 14.875 13.375 
Q 16.65625 9.859375 20.171875 7.921875 
Q 23.6875 6 27.734375 6 
Q 34.03125 6 38.125 10.046875 
Q 42.234375 14.109375 42.234375 20.359375 
Q 42.234375 26.703125 38.015625 30.859375 
Q 33.796875 35.015625 27.4375 35.015625 
Q 21.234375 35.015625 17.15625 30.90625 
Q 13.09375 26.8125 13.09375 20.65625 
z
" id="ArialMT-56"/>
       </defs>
       <use xlink:href="#ArialMT-56"/>
      </g>
     </g>
    </g>
    <g id="xtick_5">
     <g id="line2d_5">
      <g>
       <use style="fill:#262626;stroke:#262626;stroke-width:1.25;" x="256.78899" xlink:href="#m581e9c27b9" y="321.78"/>
      </g>
     </g>
     <g id="text_5">
      <!-- 10 -->
      <g style="fill:#262626;" transform="translate(250.671959 339.153594)scale(0.11 -0.11)">
       <defs>
        <path d="M 37.25 0 
L 28.46875 0 
L 28.46875 56 
Q 25.296875 52.984375 20.140625 49.953125 
Q 14.984375 46.921875 10.890625 45.40625 
L 10.890625 53.90625 
Q 18.265625 57.375 23.78125 62.296875 
Q 29.296875 67.234375 31.59375 71.875 
L 37.25 71.875 
z
" id="ArialMT-49"/>
        <path d="M 4.15625 35.296875 
Q 4.15625 48 6.765625 55.734375 
Q 9.375 63.484375 14.515625 67.671875 
Q 19.671875 71.875 27.484375 71.875 
Q 33.25 71.875 37.59375 69.546875 
Q 41.9375 67.234375 44.765625 62.859375 
Q 47.609375 58.5 49.21875 52.21875 
Q 50.828125 45.953125 50.828125 35.296875 
Q 50.828125 22.703125 48.234375 14.96875 
Q 45.65625 7.234375 40.5 3 
Q 35.359375 -1.21875 27.484375 -1.21875 
Q 17.140625 -1.21875 11.234375 6.203125 
Q 4.15625 15.140625 4.15625 35.296875 
z
M 13.1875 35.296875 
Q 13.1875 17.671875 17.3125 11.828125 
Q 21.4375 6 27.484375 6 
Q 33.546875 6 37.671875 11.859375 
Q 41.796875 17.71875 41.796875 35.296875 
Q 41.796875 52.984375 37.671875 58.78125 
Q 33.546875 64.59375 27.390625 64.59375 
Q 21.34375 64.59375 17.71875 59.46875 
Q 13.1875 52.9375 13.1875 35.296875 
z
" id="ArialMT-48"/>
       </defs>
       <use xlink:href="#ArialMT-49"/>
       <use x="55.615234" xlink:href="#ArialMT-48"/>
      </g>
     </g>
    </g>
    <g id="xtick_6">
     <g id="line2d_6">
      <g>
       <use style="fill:#262626;stroke:#262626;stroke-width:1.25;" x="303.416683" xlink:href="#m581e9c27b9" y="321.78"/>
      </g>
     </g>
     <g id="text_6">
      <!-- 12 -->
      <g style="fill:#262626;" transform="translate(297.299651 339.153594)scale(0.11 -0.11)">
       <use xlink:href="#ArialMT-49"/>
       <use x="55.615234" xlink:href="#ArialMT-50"/>
      </g>
     </g>
    </g>
    <g id="xtick_7">
     <g id="line2d_7">
      <g>
       <use style="fill:#262626;stroke:#262626;stroke-width:1.25;" x="350.044375" xlink:href="#m581e9c27b9" y="321.78"/>
      </g>
     </g>
     <g id="text_7">
      <!-- 14 -->
      <g style="fill:#262626;" transform="translate(343.927344 339.153594)scale(0.11 -0.11)">
       <use xlink:href="#ArialMT-49"/>
       <use x="55.615234" xlink:href="#ArialMT-52"/>
      </g>
     </g>
    </g>
    <g id="text_8">
     <!-- a7a -->
     <g style="fill:#262626;" transform="translate(188.494687 353.929219)scale(0.12 -0.12)">
      <defs>
       <path d="M 40.4375 6.390625 
Q 35.546875 2.25 31.03125 0.53125 
Q 26.515625 -1.171875 21.34375 -1.171875 
Q 12.796875 -1.171875 8.203125 3 
Q 3.609375 7.171875 3.609375 13.671875 
Q 3.609375 17.484375 5.34375 20.625 
Q 7.078125 23.78125 9.890625 25.6875 
Q 12.703125 27.59375 16.21875 28.5625 
Q 18.796875 29.25 24.03125 29.890625 
Q 34.671875 31.15625 39.703125 32.90625 
Q 39.75 34.71875 39.75 35.203125 
Q 39.75 40.578125 37.25 42.78125 
Q 33.890625 45.75 27.25 45.75 
Q 21.046875 45.75 18.09375 43.578125 
Q 15.140625 41.40625 13.71875 35.890625 
L 5.125 37.0625 
Q 6.296875 42.578125 8.984375 45.96875 
Q 11.671875 49.359375 16.75 51.1875 
Q 21.828125 53.03125 28.515625 53.03125 
Q 35.15625 53.03125 39.296875 51.46875 
Q 43.453125 49.90625 45.40625 47.53125 
Q 47.359375 45.171875 48.140625 41.546875 
Q 48.578125 39.3125 48.578125 33.453125 
L 48.578125 21.734375 
Q 48.578125 9.46875 49.140625 6.21875 
Q 49.703125 2.984375 51.375 0 
L 42.1875 0 
Q 40.828125 2.734375 40.4375 6.390625 
z
M 39.703125 26.03125 
Q 34.90625 24.078125 25.34375 22.703125 
Q 19.921875 21.921875 17.671875 20.9375 
Q 15.4375 19.96875 14.203125 18.09375 
Q 12.984375 16.21875 12.984375 13.921875 
Q 12.984375 10.40625 15.640625 8.0625 
Q 18.3125 5.71875 23.4375 5.71875 
Q 28.515625 5.71875 32.46875 7.9375 
Q 36.421875 10.15625 38.28125 14.015625 
Q 39.703125 17 39.703125 22.796875 
z
" id="ArialMT-97"/>
       <path d="M 4.734375 62.203125 
L 4.734375 70.65625 
L 51.078125 70.65625 
L 51.078125 63.8125 
Q 44.234375 56.546875 37.515625 44.484375 
Q 30.8125 32.421875 27.15625 19.671875 
Q 24.515625 10.6875 23.78125 0 
L 14.75 0 
Q 14.890625 8.453125 18.0625 20.40625 
Q 21.234375 32.375 27.171875 43.484375 
Q 33.109375 54.59375 39.796875 62.203125 
z
" id="ArialMT-55"/>
      </defs>
      <use xlink:href="#ArialMT-97"/>
      <use x="55.615234" xlink:href="#ArialMT-55"/>
      <use x="111.230469" xlink:href="#ArialMT-97"/>
     </g>
    </g>
   </g>
   <g id="matplotlib.axis_2">
    <g id="ytick_1">
     <g id="line2d_8">
      <defs>
       <path d="M 0 0 
L -6 0 
" id="mc4156cfc37" style="stroke:#262626;stroke-width:1.25;"/>
      </defs>
      <g>
       <use style="fill:#262626;stroke:#262626;stroke-width:1.25;" x="46.964375" xlink:href="#mc4156cfc37" y="276.730103"/>
      </g>
     </g>
     <g id="text_9">
      <!-- 1.8 -->
      <g style="fill:#262626;" transform="translate(22.174375 280.6669)scale(0.11 -0.11)">
       <defs>
        <path d="M 9.078125 0 
L 9.078125 10.015625 
L 19.09375 10.015625 
L 19.09375 0 
z
" id="ArialMT-46"/>
       </defs>
       <use xlink:href="#ArialMT-49"/>
       <use x="55.615234" xlink:href="#ArialMT-46"/>
       <use x="83.398438" xlink:href="#ArialMT-56"/>
      </g>
     </g>
    </g>
    <g id="ytick_2">
     <g id="line2d_9">
      <g>
       <use style="fill:#262626;stroke:#262626;stroke-width:1.25;" x="46.964375" xlink:href="#mc4156cfc37" y="213.87066"/>
      </g>
     </g>
     <g id="text_10">
      <!-- 2.0 -->
      <g style="fill:#262626;" transform="translate(22.174375 217.807457)scale(0.11 -0.11)">
       <use xlink:href="#ArialMT-50"/>
       <use x="55.615234" xlink:href="#ArialMT-46"/>
       <use x="83.398438" xlink:href="#ArialMT-48"/>
      </g>
     </g>
    </g>
    <g id="ytick_3">
     <g id="line2d_10">
      <g>
       <use style="fill:#262626;stroke:#262626;stroke-width:1.25;" x="46.964375" xlink:href="#mc4156cfc37" y="151.011218"/>
      </g>
     </g>
     <g id="text_11">
      <!-- 2.2 -->
      <g style="fill:#262626;" transform="translate(22.174375 154.948015)scale(0.11 -0.11)">
       <use xlink:href="#ArialMT-50"/>
       <use x="55.615234" xlink:href="#ArialMT-46"/>
       <use x="83.398438" xlink:href="#ArialMT-50"/>
      </g>
     </g>
    </g>
    <g id="ytick_4">
     <g id="line2d_11">
      <g>
       <use style="fill:#262626;stroke:#262626;stroke-width:1.25;" x="46.964375" xlink:href="#mc4156cfc37" y="88.151776"/>
      </g>
     </g>
     <g id="text_12">
      <!-- 2.4 -->
      <g style="fill:#262626;" transform="translate(22.174375 92.088572)scale(0.11 -0.11)">
       <use xlink:href="#ArialMT-50"/>
       <use x="55.615234" xlink:href="#ArialMT-46"/>
       <use x="83.398438" xlink:href="#ArialMT-52"/>
      </g>
     </g>
    </g>
    <g id="ytick_5">
     <g id="line2d_12">
      <g>
       <use style="fill:#262626;stroke:#262626;stroke-width:1.25;" x="46.964375" xlink:href="#mc4156cfc37" y="25.292333"/>
      </g>
     </g>
     <g id="text_13">
      <!-- 2.6 -->
      <g style="fill:#262626;" transform="translate(22.174375 29.22913)scale(0.11 -0.11)">
       <use xlink:href="#ArialMT-50"/>
       <use x="55.615234" xlink:href="#ArialMT-46"/>
       <use x="83.398438" xlink:href="#ArialMT-54"/>
      </g>
     </g>
    </g>
    <g id="text_14">
     <!-- l14d -->
     <g style="fill:#262626;" transform="translate(15.789375 175.832812)rotate(-90)scale(0.12 -0.12)">
      <defs>
       <path d="M 6.390625 0 
L 6.390625 71.578125 
L 15.1875 71.578125 
L 15.1875 0 
z
" id="ArialMT-108"/>
       <path d="M 40.234375 0 
L 40.234375 6.546875 
Q 35.296875 -1.171875 25.734375 -1.171875 
Q 19.53125 -1.171875 14.328125 2.25 
Q 9.125 5.671875 6.265625 11.796875 
Q 3.421875 17.921875 3.421875 25.875 
Q 3.421875 33.640625 6 39.96875 
Q 8.59375 46.296875 13.765625 49.65625 
Q 18.953125 53.03125 25.34375 53.03125 
Q 30.03125 53.03125 33.6875 51.046875 
Q 37.359375 49.078125 39.65625 45.90625 
L 39.65625 71.578125 
L 48.390625 71.578125 
L 48.390625 0 
z
M 12.453125 25.875 
Q 12.453125 15.921875 16.640625 10.984375 
Q 20.84375 6.0625 26.5625 6.0625 
Q 32.328125 6.0625 36.34375 10.765625 
Q 40.375 15.484375 40.375 25.140625 
Q 40.375 35.796875 36.265625 40.765625 
Q 32.171875 45.75 26.171875 45.75 
Q 20.3125 45.75 16.375 40.96875 
Q 12.453125 36.1875 12.453125 25.875 
z
" id="ArialMT-100"/>
      </defs>
      <use xlink:href="#ArialMT-108"/>
      <use x="22.216797" xlink:href="#ArialMT-49"/>
      <use x="77.832031" xlink:href="#ArialMT-52"/>
      <use x="133.447266" xlink:href="#ArialMT-100"/>
     </g>
    </g>
   </g>
   <g id="PathCollection_1">
    <defs>
     <path d="M 0 3 
C 0.795609 3 1.55874 2.683901 2.12132 2.12132 
C 2.683901 1.55874 3 0.795609 3 0 
C 3 -0.795609 2.683901 -1.55874 2.12132 -2.12132 
C 1.55874 -2.683901 0.795609 -3 0 -3 
C -0.795609 -3 -1.55874 -2.683901 -2.12132 -2.12132 
C -2.683901 -1.55874 -3 -0.795609 -3 0 
C -3 0.795609 -2.683901 1.55874 -2.12132 2.12132 
C -1.55874 2.683901 -0.795609 3 0 3 
z
" id="m9d77d47b6a" style="stroke:#4c72b0;stroke-opacity:0.8;"/>
    </defs>
    <g clip-path="url(#pc50c2d688f)">
     <use style="fill:#4c72b0;fill-opacity:0.8;stroke:#4c72b0;stroke-opacity:0.8;" x="46.964375" xlink:href="#m9d77d47b6a" y="21.499091"/>
     <use style="fill:#4c72b0;fill-opacity:0.8;stroke:#4c72b0;stroke-opacity:0.8;" x="70.278221" xlink:href="#m9d77d47b6a" y="71.008291"/>
     <use style="fill:#4c72b0;fill-opacity:0.8;stroke:#4c72b0;stroke-opacity:0.8;" x="93.592067" xlink:href="#m9d77d47b6a" y="62.948227"/>
     <use style="fill:#4c72b0;fill-opacity:0.8;stroke:#4c72b0;stroke-opacity:0.8;" x="116.905913" xlink:href="#m9d77d47b6a" y="103.284604"/>
     <use style="fill:#4c72b0;fill-opacity:0.8;stroke:#4c72b0;stroke-opacity:0.8;" x="140.21976" xlink:href="#m9d77d47b6a" y="224.708495"/>
     <use style="fill:#4c72b0;fill-opacity:0.8;stroke:#4c72b0;stroke-opacity:0.8;" x="163.533606" xlink:href="#m9d77d47b6a" y="120.452345"/>
     <use style="fill:#4c72b0;fill-opacity:0.8;stroke:#4c72b0;stroke-opacity:0.8;" x="186.847452" xlink:href="#m9d77d47b6a" y="158.031054"/>
     <use style="fill:#4c72b0;fill-opacity:0.8;stroke:#4c72b0;stroke-opacity:0.8;" x="210.161298" xlink:href="#m9d77d47b6a" y="194.227085"/>
     <use style="fill:#4c72b0;fill-opacity:0.8;stroke:#4c72b0;stroke-opacity:0.8;" x="233.475144" xlink:href="#m9d77d47b6a" y="201.382029"/>
     <use style="fill:#4c72b0;fill-opacity:0.8;stroke:#4c72b0;stroke-opacity:0.8;" x="256.78899" xlink:href="#m9d77d47b6a" y="207.70797"/>
     <use style="fill:#4c72b0;fill-opacity:0.8;stroke:#4c72b0;stroke-opacity:0.8;" x="280.102837" xlink:href="#m9d77d47b6a" y="204.626625"/>
     <use style="fill:#4c72b0;fill-opacity:0.8;stroke:#4c72b0;stroke-opacity:0.8;" x="303.416683" xlink:href="#m9d77d47b6a" y="223.955063"/>
     <use style="fill:#4c72b0;fill-opacity:0.8;stroke:#4c72b0;stroke-opacity:0.8;" x="326.730529" xlink:href="#m9d77d47b6a" y="287.206677"/>
     <use style="fill:#4c72b0;fill-opacity:0.8;stroke:#4c72b0;stroke-opacity:0.8;" x="350.044375" xlink:href="#m9d77d47b6a" y="266.253529"/>
    </g>
   </g>
   <g id="PolyCollection_1">
    <defs>
     <path d="M 46.964375 -335.30371 
L 46.964375 -260.789317 
L 50.025789 -259.169076 
L 53.087203 -257.461091 
L 56.148617 -255.753105 
L 59.210032 -254.045119 
L 62.271446 -252.345467 
L 65.33286 -250.741755 
L 68.394274 -249.138042 
L 71.455688 -247.534329 
L 74.517102 -245.930617 
L 77.578516 -244.326904 
L 80.639931 -242.723191 
L 83.701345 -241.12326 
L 86.762759 -239.523959 
L 89.824173 -237.924657 
L 92.885587 -236.325356 
L 95.947001 -234.726055 
L 99.008415 -233.114582 
L 102.06983 -231.385037 
L 105.131244 -229.770111 
L 108.192658 -228.230826 
L 111.254072 -226.573841 
L 114.315486 -224.758513 
L 117.3769 -222.948555 
L 120.438314 -221.475922 
L 123.499729 -219.785435 
L 126.561143 -217.894658 
L 129.622557 -215.851605 
L 132.683971 -214.116558 
L 135.745385 -212.304919 
L 138.806799 -210.566406 
L 141.868213 -208.827892 
L 144.929628 -207.09053 
L 147.991042 -205.354232 
L 151.052456 -203.392779 
L 154.11387 -201.87028 
L 157.175284 -199.847533 
L 160.236698 -197.888699 
L 163.298112 -196.035635 
L 166.359527 -194.16974 
L 169.420941 -192.452734 
L 172.482355 -190.695745 
L 175.543769 -188.778031 
L 178.605183 -187.115663 
L 181.666597 -185.465703 
L 184.728011 -183.90543 
L 187.789426 -182.149394 
L 190.85084 -180.013653 
L 193.912254 -178.296486 
L 196.973668 -176.576873 
L 200.035082 -174.442394 
L 203.096496 -172.395889 
L 206.15791 -170.324557 
L 209.219324 -168.361207 
L 212.280739 -166.211011 
L 215.342153 -164.437097 
L 218.403567 -162.219093 
L 221.464981 -159.93279 
L 224.526395 -157.748027 
L 227.587809 -155.505039 
L 230.649223 -153.313835 
L 233.710638 -151.233897 
L 236.772052 -149.205286 
L 239.833466 -146.99329 
L 242.89488 -144.968671 
L 245.956294 -142.731559 
L 249.017708 -140.415801 
L 252.079122 -138.263551 
L 255.140537 -135.822489 
L 258.201951 -133.487846 
L 261.263365 -131.174578 
L 264.324779 -128.659698 
L 267.386193 -126.218862 
L 270.447607 -123.576397 
L 273.509021 -121.298765 
L 276.570436 -119.021133 
L 279.63185 -116.385342 
L 282.693264 -113.746149 
L 285.754678 -111.061282 
L 288.816092 -108.464303 
L 291.877506 -105.809909 
L 294.93892 -103.208102 
L 298.000335 -100.660194 
L 301.061749 -98.10955 
L 304.123163 -95.560247 
L 307.184577 -93.023136 
L 310.245991 -90.473785 
L 313.307405 -87.928667 
L 316.368819 -85.332871 
L 319.430234 -82.828796 
L 322.491648 -80.276927 
L 325.553062 -77.729018 
L 328.614476 -74.940347 
L 331.67589 -72.100284 
L 334.737304 -69.260222 
L 337.798718 -66.420159 
L 340.860133 -63.580096 
L 343.921547 -60.922158 
L 346.982961 -58.37543 
L 350.044375 -56.03331 
L 350.044375 -103.343029 
L 350.044375 -103.343029 
L 346.982961 -105.325806 
L 343.921547 -107.395959 
L 340.860133 -109.287299 
L 337.798718 -111.223582 
L 334.737304 -112.911635 
L 331.67589 -114.768104 
L 328.614476 -116.677585 
L 325.553062 -118.485646 
L 322.491648 -120.496548 
L 319.430234 -122.505068 
L 316.368819 -124.390189 
L 313.307405 -126.543442 
L 310.245991 -128.366709 
L 307.184577 -130.367059 
L 304.123163 -132.216654 
L 301.061749 -134.392888 
L 298.000335 -136.370334 
L 294.93892 -138.277217 
L 291.877506 -140.457773 
L 288.816092 -142.553075 
L 285.754678 -144.721866 
L 282.693264 -146.5034 
L 279.63185 -148.453216 
L 276.570436 -150.703712 
L 273.509021 -152.850947 
L 270.447607 -155.090549 
L 267.386193 -157.38364 
L 264.324779 -159.783631 
L 261.263365 -161.96325 
L 258.201951 -164.250978 
L 255.140537 -166.525833 
L 252.079122 -168.705996 
L 249.017708 -170.935751 
L 245.956294 -173.283368 
L 242.89488 -175.698712 
L 239.833466 -177.930969 
L 236.772052 -180.279283 
L 233.710638 -182.641868 
L 230.649223 -185.017621 
L 227.587809 -187.395561 
L 224.526395 -189.725017 
L 221.464981 -192.180082 
L 218.403567 -194.636968 
L 215.342153 -197.062 
L 212.280739 -199.443066 
L 209.219324 -201.844606 
L 206.15791 -204.242034 
L 203.096496 -206.531494 
L 200.035082 -209.042299 
L 196.973668 -211.443691 
L 193.912254 -213.959355 
L 190.85084 -216.357908 
L 187.789426 -218.782987 
L 184.728011 -221.25767 
L 181.666597 -223.825465 
L 178.605183 -226.092461 
L 175.543769 -228.690355 
L 172.482355 -231.288249 
L 169.420941 -233.781777 
L 166.359527 -236.192122 
L 163.298112 -238.717993 
L 160.236698 -241.243184 
L 157.175284 -243.680141 
L 154.11387 -246.116635 
L 151.052456 -248.553128 
L 147.991042 -250.989622 
L 144.929628 -253.488798 
L 141.868213 -255.86261 
L 138.806799 -258.359959 
L 135.745385 -260.86769 
L 132.683971 -263.28046 
L 129.622557 -265.642796 
L 126.561143 -268.163308 
L 123.499729 -270.735722 
L 120.438314 -273.281683 
L 117.3769 -275.776414 
L 114.315486 -278.349978 
L 111.254072 -280.911644 
L 108.192658 -283.457463 
L 105.131244 -285.968448 
L 102.06983 -288.542834 
L 99.008415 -291.0792 
L 95.947001 -293.64896 
L 92.885587 -296.21872 
L 89.824173 -298.794399 
L 86.762759 -301.382232 
L 83.701345 -303.932052 
L 80.639931 -306.527784 
L 77.578516 -309.199988 
L 74.517102 -311.8011 
L 71.455688 -314.40371 
L 68.394274 -316.978388 
L 65.33286 -319.635665 
L 62.271446 -322.20983 
L 59.210032 -324.822762 
L 56.148617 -327.453499 
L 53.087203 -330.084002 
L 50.025789 -332.710886 
L 46.964375 -335.30371 
z
" id="m607e67aa9d" style="stroke:#ffffff;stroke-opacity:0.15;"/>
    </defs>
    <g clip-path="url(#pc50c2d688f)">
     <use style="fill:#4c72b0;fill-opacity:0.15;stroke:#ffffff;stroke-opacity:0.15;" x="0" xlink:href="#m607e67aa9d" y="363.514219"/>
    </g>
   </g>
   <g id="line2d_13">
    <path clip-path="url(#pc50c2d688f)" d="M 46.964375 54.628963 
L 50.025789 56.912492 
L 53.087203 59.196021 
L 56.148617 61.47955 
L 59.210032 63.763079 
L 62.271446 66.046608 
L 65.33286 68.330137 
L 68.394274 70.613666 
L 71.455688 72.897195 
L 74.517102 75.180724 
L 77.578516 77.464253 
L 80.639931 79.747782 
L 83.701345 82.031311 
L 86.762759 84.31484 
L 89.824173 86.598369 
L 92.885587 88.881898 
L 95.947001 91.165427 
L 99.008415 93.448956 
L 102.06983 95.732485 
L 105.131244 98.016014 
L 108.192658 100.299543 
L 111.254072 102.583072 
L 114.315486 104.866601 
L 117.3769 107.15013 
L 120.438314 109.433659 
L 123.499729 111.717188 
L 126.561143 114.000717 
L 129.622557 116.284246 
L 132.683971 118.567775 
L 135.745385 120.851304 
L 138.806799 123.134833 
L 141.868213 125.418362 
L 144.929628 127.701891 
L 147.991042 129.98542 
L 151.052456 132.268949 
L 154.11387 134.552478 
L 157.175284 136.836007 
L 160.236698 139.119536 
L 163.298112 141.403065 
L 166.359527 143.686594 
L 169.420941 145.970123 
L 172.482355 148.253652 
L 175.543769 150.537181 
L 178.605183 152.82071 
L 181.666597 155.104239 
L 184.728011 157.387768 
L 187.789426 159.671297 
L 190.85084 161.954826 
L 193.912254 164.238355 
L 196.973668 166.521884 
L 200.035082 168.805414 
L 203.096496 171.088943 
L 206.15791 173.372472 
L 209.219324 175.656001 
L 212.280739 177.93953 
L 215.342153 180.223059 
L 218.403567 182.506588 
L 221.464981 184.790117 
L 224.526395 187.073646 
L 227.587809 189.357175 
L 230.649223 191.640704 
L 233.710638 193.924233 
L 236.772052 196.207762 
L 239.833466 198.491291 
L 242.89488 200.77482 
L 245.956294 203.058349 
L 249.017708 205.341878 
L 252.079122 207.625407 
L 255.140537 209.908936 
L 258.201951 212.192465 
L 261.263365 214.475994 
L 264.324779 216.759523 
L 267.386193 219.043052 
L 270.447607 221.326581 
L 273.509021 223.61011 
L 276.570436 225.893639 
L 279.63185 228.177168 
L 282.693264 230.460697 
L 285.754678 232.744226 
L 288.816092 235.027755 
L 291.877506 237.311284 
L 294.93892 239.594813 
L 298.000335 241.878342 
L 301.061749 244.161871 
L 304.123163 246.4454 
L 307.184577 248.728929 
L 310.245991 251.012458 
L 313.307405 253.295987 
L 316.368819 255.579516 
L 319.430234 257.863045 
L 322.491648 260.146574 
L 325.553062 262.430103 
L 328.614476 264.713632 
L 331.67589 266.997161 
L 334.737304 269.28069 
L 337.798718 271.564219 
L 340.860133 273.847748 
L 343.921547 276.131277 
L 346.982961 278.414806 
L 350.044375 280.698335 
" style="fill:none;stroke:#4c72b0;stroke-linecap:round;stroke-width:2.25;"/>
   </g>
   <g id="patch_3">
    <path d="M 46.964375 321.78 
L 46.964375 7.2 
" style="fill:none;stroke:#262626;stroke-linecap:square;stroke-linejoin:miter;stroke-width:1.25;"/>
   </g>
   <g id="patch_4">
    <path d="M 46.964375 321.78 
L 350.044375 321.78 
" style="fill:none;stroke:#262626;stroke-linecap:square;stroke-linejoin:miter;stroke-width:1.25;"/>
   </g>
  </g>
 </g>
 <defs>
  <clipPath id="pc50c2d688f">
   <rect height="314.58" width="303.08" x="46.964375" y="7.2"/>
  </clipPath>
 </defs>
</svg>
