<?xml version="1.0" encoding="utf-8" standalone="no"?>
<!DOCTYPE svg PUBLIC "-//W3C//DTD SVG 1.1//EN"
  "http://www.w3.org/Graphics/SVG/1.1/DTD/svg11.dtd">
<!-- Created with matplotlib (https://matplotlib.org/) -->
<svg height="363.514219pt" version="1.1" viewBox="0 0 420.026655 363.514219" width="420.026655pt" xmlns="http://www.w3.org/2000/svg" xmlns:xlink="http://www.w3.org/1999/xlink">
 <metadata>
  <rdf:RDF xmlns:cc="http://creativecommons.org/ns#" xmlns:dc="http://purl.org/dc/elements/1.1/" xmlns:rdf="http://www.w3.org/1999/02/22-rdf-syntax-ns#">
   <cc:Work>
    <dc:type rdf:resource="http://purl.org/dc/dcmitype/StillImage"/>
    <dc:date>2021-03-11T19:24:53.643685</dc:date>
    <dc:format>image/svg+xml</dc:format>
    <dc:creator>
     <cc:Agent>
      <dc:title>Matplotlib v3.3.4, https://matplotlib.org/</dc:title>
     </cc:Agent>
    </dc:creator>
   </cc:Work>
  </rdf:RDF>
 </metadata>
 <defs>
  <style type="text/css">*{stroke-linecap:butt;stroke-linejoin:round;}</style>
 </defs>
 <g id="figure_1">
  <g id="patch_1">
   <path d="M -0 363.514219 
L 420.026655 363.514219 
L 420.026655 0 
L -0 0 
z
" style="fill:#ffffff;"/>
  </g>
  <g id="axes_1">
   <g id="patch_2">
    <path d="M 46.964375 321.78 
L 359.201905 321.78 
L 359.201905 7.2 
L 46.964375 7.2 
z
" style="fill:#ffffff;"/>
   </g>
   <g id="matplotlib.axis_1">
    <g id="xtick_1">
     <g id="line2d_1">
      <defs>
       <path d="M 0 0 
L 0 6 
" id="m0246d2a527" style="stroke:#262626;stroke-width:1.25;"/>
      </defs>
      <g>
       <use style="fill:#262626;stroke:#262626;stroke-width:1.25;" x="70.982647" xlink:href="#m0246d2a527" y="321.78"/>
      </g>
     </g>
     <g id="text_1">
      <!-- 2 -->
      <g style="fill:#262626;" transform="translate(67.924131 339.153594)scale(0.11 -0.11)">
       <defs>
        <path d="M 50.34375 8.453125 
L 50.34375 0 
L 3.03125 0 
Q 2.9375 3.171875 4.046875 6.109375 
Q 5.859375 10.9375 9.828125 15.625 
Q 13.8125 20.3125 21.34375 26.46875 
Q 33.015625 36.03125 37.109375 41.625 
Q 41.21875 47.21875 41.21875 52.203125 
Q 41.21875 57.421875 37.46875 61 
Q 33.734375 64.59375 27.734375 64.59375 
Q 21.390625 64.59375 17.578125 60.78125 
Q 13.765625 56.984375 13.71875 50.25 
L 4.6875 51.171875 
Q 5.609375 61.28125 11.65625 66.578125 
Q 17.71875 71.875 27.9375 71.875 
Q 38.234375 71.875 44.234375 66.15625 
Q 50.25 60.453125 50.25 52 
Q 50.25 47.703125 48.484375 43.546875 
Q 46.734375 39.40625 42.65625 34.8125 
Q 38.578125 30.21875 29.109375 22.21875 
Q 21.1875 15.578125 18.9375 13.203125 
Q 16.703125 10.84375 15.234375 8.453125 
z
" id="ArialMT-50"/>
       </defs>
       <use xlink:href="#ArialMT-50"/>
      </g>
     </g>
    </g>
    <g id="xtick_2">
     <g id="line2d_2">
      <g>
       <use style="fill:#262626;stroke:#262626;stroke-width:1.25;" x="119.01919" xlink:href="#m0246d2a527" y="321.78"/>
      </g>
     </g>
     <g id="text_2">
      <!-- 4 -->
      <g style="fill:#262626;" transform="translate(115.960674 339.153594)scale(0.11 -0.11)">
       <defs>
        <path d="M 32.328125 0 
L 32.328125 17.140625 
L 1.265625 17.140625 
L 1.265625 25.203125 
L 33.9375 71.578125 
L 41.109375 71.578125 
L 41.109375 25.203125 
L 50.78125 25.203125 
L 50.78125 17.140625 
L 41.109375 17.140625 
L 41.109375 0 
z
M 32.328125 25.203125 
L 32.328125 57.46875 
L 9.90625 25.203125 
z
" id="ArialMT-52"/>
       </defs>
       <use xlink:href="#ArialMT-52"/>
      </g>
     </g>
    </g>
    <g id="xtick_3">
     <g id="line2d_3">
      <g>
       <use style="fill:#262626;stroke:#262626;stroke-width:1.25;" x="167.055733" xlink:href="#m0246d2a527" y="321.78"/>
      </g>
     </g>
     <g id="text_3">
      <!-- 6 -->
      <g style="fill:#262626;" transform="translate(163.997217 339.153594)scale(0.11 -0.11)">
       <defs>
        <path d="M 49.75 54.046875 
L 41.015625 53.375 
Q 39.84375 58.546875 37.703125 60.890625 
Q 34.125 64.65625 28.90625 64.65625 
Q 24.703125 64.65625 21.53125 62.3125 
Q 17.390625 59.28125 14.984375 53.46875 
Q 12.59375 47.65625 12.5 36.921875 
Q 15.671875 41.75 20.265625 44.09375 
Q 24.859375 46.4375 29.890625 46.4375 
Q 38.671875 46.4375 44.84375 39.96875 
Q 51.03125 33.5 51.03125 23.25 
Q 51.03125 16.5 48.125 10.71875 
Q 45.21875 4.9375 40.140625 1.859375 
Q 35.0625 -1.21875 28.609375 -1.21875 
Q 17.625 -1.21875 10.6875 6.859375 
Q 3.765625 14.9375 3.765625 33.5 
Q 3.765625 54.25 11.421875 63.671875 
Q 18.109375 71.875 29.4375 71.875 
Q 37.890625 71.875 43.28125 67.140625 
Q 48.6875 62.40625 49.75 54.046875 
z
M 13.875 23.1875 
Q 13.875 18.65625 15.796875 14.5 
Q 17.71875 10.359375 21.1875 8.171875 
Q 24.65625 6 28.46875 6 
Q 34.03125 6 38.03125 10.484375 
Q 42.046875 14.984375 42.046875 22.703125 
Q 42.046875 30.125 38.078125 34.390625 
Q 34.125 38.671875 28.125 38.671875 
Q 22.171875 38.671875 18.015625 34.390625 
Q 13.875 30.125 13.875 23.1875 
z
" id="ArialMT-54"/>
       </defs>
       <use xlink:href="#ArialMT-54"/>
      </g>
     </g>
    </g>
    <g id="xtick_4">
     <g id="line2d_4">
      <g>
       <use style="fill:#262626;stroke:#262626;stroke-width:1.25;" x="215.092276" xlink:href="#m0246d2a527" y="321.78"/>
      </g>
     </g>
     <g id="text_4">
      <!-- 8 -->
      <g style="fill:#262626;" transform="translate(212.03376 339.153594)scale(0.11 -0.11)">
       <defs>
        <path d="M 17.671875 38.8125 
Q 12.203125 40.828125 9.5625 44.53125 
Q 6.9375 48.25 6.9375 53.421875 
Q 6.9375 61.234375 12.546875 66.546875 
Q 18.171875 71.875 27.484375 71.875 
Q 36.859375 71.875 42.578125 66.421875 
Q 48.296875 60.984375 48.296875 53.171875 
Q 48.296875 48.1875 45.671875 44.5 
Q 43.0625 40.828125 37.75 38.8125 
Q 44.34375 36.671875 47.78125 31.875 
Q 51.21875 27.09375 51.21875 20.453125 
Q 51.21875 11.28125 44.71875 5.03125 
Q 38.234375 -1.21875 27.640625 -1.21875 
Q 17.046875 -1.21875 10.546875 5.046875 
Q 4.046875 11.328125 4.046875 20.703125 
Q 4.046875 27.6875 7.59375 32.390625 
Q 11.140625 37.109375 17.671875 38.8125 
z
M 15.921875 53.71875 
Q 15.921875 48.640625 19.1875 45.40625 
Q 22.46875 42.1875 27.6875 42.1875 
Q 32.765625 42.1875 36.015625 45.375 
Q 39.265625 48.578125 39.265625 53.21875 
Q 39.265625 58.0625 35.90625 61.359375 
Q 32.5625 64.65625 27.59375 64.65625 
Q 22.5625 64.65625 19.234375 61.421875 
Q 15.921875 58.203125 15.921875 53.71875 
z
M 13.09375 20.65625 
Q 13.09375 16.890625 14.875 13.375 
Q 16.65625 9.859375 20.171875 7.921875 
Q 23.6875 6 27.734375 6 
Q 34.03125 6 38.125 10.046875 
Q 42.234375 14.109375 42.234375 20.359375 
Q 42.234375 26.703125 38.015625 30.859375 
Q 33.796875 35.015625 27.4375 35.015625 
Q 21.234375 35.015625 17.15625 30.90625 
Q 13.09375 26.8125 13.09375 20.65625 
z
" id="ArialMT-56"/>
       </defs>
       <use xlink:href="#ArialMT-56"/>
      </g>
     </g>
    </g>
    <g id="xtick_5">
     <g id="line2d_5">
      <g>
       <use style="fill:#262626;stroke:#262626;stroke-width:1.25;" x="263.128819" xlink:href="#m0246d2a527" y="321.78"/>
      </g>
     </g>
     <g id="text_5">
      <!-- 10 -->
      <g style="fill:#262626;" transform="translate(257.011788 339.153594)scale(0.11 -0.11)">
       <defs>
        <path d="M 37.25 0 
L 28.46875 0 
L 28.46875 56 
Q 25.296875 52.984375 20.140625 49.953125 
Q 14.984375 46.921875 10.890625 45.40625 
L 10.890625 53.90625 
Q 18.265625 57.375 23.78125 62.296875 
Q 29.296875 67.234375 31.59375 71.875 
L 37.25 71.875 
z
" id="ArialMT-49"/>
        <path d="M 4.15625 35.296875 
Q 4.15625 48 6.765625 55.734375 
Q 9.375 63.484375 14.515625 67.671875 
Q 19.671875 71.875 27.484375 71.875 
Q 33.25 71.875 37.59375 69.546875 
Q 41.9375 67.234375 44.765625 62.859375 
Q 47.609375 58.5 49.21875 52.21875 
Q 50.828125 45.953125 50.828125 35.296875 
Q 50.828125 22.703125 48.234375 14.96875 
Q 45.65625 7.234375 40.5 3 
Q 35.359375 -1.21875 27.484375 -1.21875 
Q 17.140625 -1.21875 11.234375 6.203125 
Q 4.15625 15.140625 4.15625 35.296875 
z
M 13.1875 35.296875 
Q 13.1875 17.671875 17.3125 11.828125 
Q 21.4375 6 27.484375 6 
Q 33.546875 6 37.671875 11.859375 
Q 41.796875 17.71875 41.796875 35.296875 
Q 41.796875 52.984375 37.671875 58.78125 
Q 33.546875 64.59375 27.390625 64.59375 
Q 21.34375 64.59375 17.71875 59.46875 
Q 13.1875 52.9375 13.1875 35.296875 
z
" id="ArialMT-48"/>
       </defs>
       <use xlink:href="#ArialMT-49"/>
       <use x="55.615234" xlink:href="#ArialMT-48"/>
      </g>
     </g>
    </g>
    <g id="xtick_6">
     <g id="line2d_6">
      <g>
       <use style="fill:#262626;stroke:#262626;stroke-width:1.25;" x="311.165362" xlink:href="#m0246d2a527" y="321.78"/>
      </g>
     </g>
     <g id="text_6">
      <!-- 12 -->
      <g style="fill:#262626;" transform="translate(305.048331 339.153594)scale(0.11 -0.11)">
       <use xlink:href="#ArialMT-49"/>
       <use x="55.615234" xlink:href="#ArialMT-50"/>
      </g>
     </g>
    </g>
    <g id="xtick_7">
     <g id="line2d_7">
      <g>
       <use style="fill:#262626;stroke:#262626;stroke-width:1.25;" x="359.201905" xlink:href="#m0246d2a527" y="321.78"/>
      </g>
     </g>
     <g id="text_7">
      <!-- 14 -->
      <g style="fill:#262626;" transform="translate(353.084874 339.153594)scale(0.11 -0.11)">
       <use xlink:href="#ArialMT-49"/>
       <use x="55.615234" xlink:href="#ArialMT-52"/>
      </g>
     </g>
    </g>
    <g id="text_8">
     <!-- a7a -->
     <g style="fill:#262626;" transform="translate(193.073453 353.929219)scale(0.12 -0.12)">
      <defs>
       <path d="M 40.4375 6.390625 
Q 35.546875 2.25 31.03125 0.53125 
Q 26.515625 -1.171875 21.34375 -1.171875 
Q 12.796875 -1.171875 8.203125 3 
Q 3.609375 7.171875 3.609375 13.671875 
Q 3.609375 17.484375 5.34375 20.625 
Q 7.078125 23.78125 9.890625 25.6875 
Q 12.703125 27.59375 16.21875 28.5625 
Q 18.796875 29.25 24.03125 29.890625 
Q 34.671875 31.15625 39.703125 32.90625 
Q 39.75 34.71875 39.75 35.203125 
Q 39.75 40.578125 37.25 42.78125 
Q 33.890625 45.75 27.25 45.75 
Q 21.046875 45.75 18.09375 43.578125 
Q 15.140625 41.40625 13.71875 35.890625 
L 5.125 37.0625 
Q 6.296875 42.578125 8.984375 45.96875 
Q 11.671875 49.359375 16.75 51.1875 
Q 21.828125 53.03125 28.515625 53.03125 
Q 35.15625 53.03125 39.296875 51.46875 
Q 43.453125 49.90625 45.40625 47.53125 
Q 47.359375 45.171875 48.140625 41.546875 
Q 48.578125 39.3125 48.578125 33.453125 
L 48.578125 21.734375 
Q 48.578125 9.46875 49.140625 6.21875 
Q 49.703125 2.984375 51.375 0 
L 42.1875 0 
Q 40.828125 2.734375 40.4375 6.390625 
z
M 39.703125 26.03125 
Q 34.90625 24.078125 25.34375 22.703125 
Q 19.921875 21.921875 17.671875 20.9375 
Q 15.4375 19.96875 14.203125 18.09375 
Q 12.984375 16.21875 12.984375 13.921875 
Q 12.984375 10.40625 15.640625 8.0625 
Q 18.3125 5.71875 23.4375 5.71875 
Q 28.515625 5.71875 32.46875 7.9375 
Q 36.421875 10.15625 38.28125 14.015625 
Q 39.703125 17 39.703125 22.796875 
z
" id="ArialMT-97"/>
       <path d="M 4.734375 62.203125 
L 4.734375 70.65625 
L 51.078125 70.65625 
L 51.078125 63.8125 
Q 44.234375 56.546875 37.515625 44.484375 
Q 30.8125 32.421875 27.15625 19.671875 
Q 24.515625 10.6875 23.78125 0 
L 14.75 0 
Q 14.890625 8.453125 18.0625 20.40625 
Q 21.234375 32.375 27.171875 43.484375 
Q 33.109375 54.59375 39.796875 62.203125 
z
" id="ArialMT-55"/>
      </defs>
      <use xlink:href="#ArialMT-97"/>
      <use x="55.615234" xlink:href="#ArialMT-55"/>
      <use x="111.230469" xlink:href="#ArialMT-97"/>
     </g>
    </g>
   </g>
   <g id="matplotlib.axis_2">
    <g id="ytick_1">
     <g id="line2d_8">
      <defs>
       <path d="M 0 0 
L -6 0 
" id="mdc92a7ded5" style="stroke:#262626;stroke-width:1.25;"/>
      </defs>
      <g>
       <use style="fill:#262626;stroke:#262626;stroke-width:1.25;" x="46.964375" xlink:href="#mdc92a7ded5" y="307.480909"/>
      </g>
     </g>
     <g id="text_9">
      <!-- 1.0 -->
      <g style="fill:#262626;" transform="translate(22.174375 311.417706)scale(0.11 -0.11)">
       <defs>
        <path d="M 9.078125 0 
L 9.078125 10.015625 
L 19.09375 10.015625 
L 19.09375 0 
z
" id="ArialMT-46"/>
       </defs>
       <use xlink:href="#ArialMT-49"/>
       <use x="55.615234" xlink:href="#ArialMT-46"/>
       <use x="83.398438" xlink:href="#ArialMT-48"/>
      </g>
     </g>
    </g>
    <g id="ytick_2">
     <g id="line2d_9">
      <g>
       <use style="fill:#262626;stroke:#262626;stroke-width:1.25;" x="46.964375" xlink:href="#mdc92a7ded5" y="259.817273"/>
      </g>
     </g>
     <g id="text_10">
      <!-- 1.5 -->
      <g style="fill:#262626;" transform="translate(22.174375 263.75407)scale(0.11 -0.11)">
       <defs>
        <path d="M 4.15625 18.75 
L 13.375 19.53125 
Q 14.40625 12.796875 18.140625 9.390625 
Q 21.875 6 27.15625 6 
Q 33.5 6 37.890625 10.78125 
Q 42.28125 15.578125 42.28125 23.484375 
Q 42.28125 31 38.0625 35.34375 
Q 33.84375 39.703125 27 39.703125 
Q 22.75 39.703125 19.328125 37.765625 
Q 15.921875 35.84375 13.96875 32.765625 
L 5.71875 33.84375 
L 12.640625 70.609375 
L 48.25 70.609375 
L 48.25 62.203125 
L 19.671875 62.203125 
L 15.828125 42.96875 
Q 22.265625 47.46875 29.34375 47.46875 
Q 38.71875 47.46875 45.15625 40.96875 
Q 51.609375 34.46875 51.609375 24.265625 
Q 51.609375 14.546875 45.953125 7.46875 
Q 39.0625 -1.21875 27.15625 -1.21875 
Q 17.390625 -1.21875 11.203125 4.25 
Q 5.03125 9.71875 4.15625 18.75 
z
" id="ArialMT-53"/>
       </defs>
       <use xlink:href="#ArialMT-49"/>
       <use x="55.615234" xlink:href="#ArialMT-46"/>
       <use x="83.398438" xlink:href="#ArialMT-53"/>
      </g>
     </g>
    </g>
    <g id="ytick_3">
     <g id="line2d_10">
      <g>
       <use style="fill:#262626;stroke:#262626;stroke-width:1.25;" x="46.964375" xlink:href="#mdc92a7ded5" y="212.153636"/>
      </g>
     </g>
     <g id="text_11">
      <!-- 2.0 -->
      <g style="fill:#262626;" transform="translate(22.174375 216.090433)scale(0.11 -0.11)">
       <use xlink:href="#ArialMT-50"/>
       <use x="55.615234" xlink:href="#ArialMT-46"/>
       <use x="83.398438" xlink:href="#ArialMT-48"/>
      </g>
     </g>
    </g>
    <g id="ytick_4">
     <g id="line2d_11">
      <g>
       <use style="fill:#262626;stroke:#262626;stroke-width:1.25;" x="46.964375" xlink:href="#mdc92a7ded5" y="164.49"/>
      </g>
     </g>
     <g id="text_12">
      <!-- 2.5 -->
      <g style="fill:#262626;" transform="translate(22.174375 168.426797)scale(0.11 -0.11)">
       <use xlink:href="#ArialMT-50"/>
       <use x="55.615234" xlink:href="#ArialMT-46"/>
       <use x="83.398438" xlink:href="#ArialMT-53"/>
      </g>
     </g>
    </g>
    <g id="ytick_5">
     <g id="line2d_12">
      <g>
       <use style="fill:#262626;stroke:#262626;stroke-width:1.25;" x="46.964375" xlink:href="#mdc92a7ded5" y="116.826364"/>
      </g>
     </g>
     <g id="text_13">
      <!-- 3.0 -->
      <g style="fill:#262626;" transform="translate(22.174375 120.763161)scale(0.11 -0.11)">
       <defs>
        <path d="M 4.203125 18.890625 
L 12.984375 20.0625 
Q 14.5 12.59375 18.140625 9.296875 
Q 21.78125 6 27 6 
Q 33.203125 6 37.46875 10.296875 
Q 41.75 14.59375 41.75 20.953125 
Q 41.75 27 37.796875 30.921875 
Q 33.84375 34.859375 27.734375 34.859375 
Q 25.25 34.859375 21.53125 33.890625 
L 22.515625 41.609375 
Q 23.390625 41.5 23.921875 41.5 
Q 29.546875 41.5 34.03125 44.421875 
Q 38.53125 47.359375 38.53125 53.46875 
Q 38.53125 58.296875 35.25 61.46875 
Q 31.984375 64.65625 26.8125 64.65625 
Q 21.6875 64.65625 18.265625 61.421875 
Q 14.84375 58.203125 13.875 51.765625 
L 5.078125 53.328125 
Q 6.6875 62.15625 12.390625 67.015625 
Q 18.109375 71.875 26.609375 71.875 
Q 32.46875 71.875 37.390625 69.359375 
Q 42.328125 66.84375 44.9375 62.5 
Q 47.5625 58.15625 47.5625 53.265625 
Q 47.5625 48.640625 45.0625 44.828125 
Q 42.578125 41.015625 37.703125 38.765625 
Q 44.046875 37.3125 47.5625 32.6875 
Q 51.078125 28.078125 51.078125 21.140625 
Q 51.078125 11.765625 44.234375 5.25 
Q 37.40625 -1.265625 26.953125 -1.265625 
Q 17.53125 -1.265625 11.296875 4.34375 
Q 5.078125 9.96875 4.203125 18.890625 
z
" id="ArialMT-51"/>
       </defs>
       <use xlink:href="#ArialMT-51"/>
       <use x="55.615234" xlink:href="#ArialMT-46"/>
       <use x="83.398438" xlink:href="#ArialMT-48"/>
      </g>
     </g>
    </g>
    <g id="ytick_6">
     <g id="line2d_13">
      <g>
       <use style="fill:#262626;stroke:#262626;stroke-width:1.25;" x="46.964375" xlink:href="#mdc92a7ded5" y="69.162727"/>
      </g>
     </g>
     <g id="text_14">
      <!-- 3.5 -->
      <g style="fill:#262626;" transform="translate(22.174375 73.099524)scale(0.11 -0.11)">
       <use xlink:href="#ArialMT-51"/>
       <use x="55.615234" xlink:href="#ArialMT-46"/>
       <use x="83.398438" xlink:href="#ArialMT-53"/>
      </g>
     </g>
    </g>
    <g id="ytick_7">
     <g id="line2d_14">
      <g>
       <use style="fill:#262626;stroke:#262626;stroke-width:1.25;" x="46.964375" xlink:href="#mdc92a7ded5" y="21.499091"/>
      </g>
     </g>
     <g id="text_15">
      <!-- 4.0 -->
      <g style="fill:#262626;" transform="translate(22.174375 25.435888)scale(0.11 -0.11)">
       <use xlink:href="#ArialMT-52"/>
       <use x="55.615234" xlink:href="#ArialMT-46"/>
       <use x="83.398438" xlink:href="#ArialMT-48"/>
      </g>
     </g>
    </g>
    <g id="text_16">
     <!-- l14d -->
     <g style="fill:#262626;" transform="translate(15.789375 175.832812)rotate(-90)scale(0.12 -0.12)">
      <defs>
       <path d="M 6.390625 0 
L 6.390625 71.578125 
L 15.1875 71.578125 
L 15.1875 0 
z
" id="ArialMT-108"/>
       <path d="M 40.234375 0 
L 40.234375 6.546875 
Q 35.296875 -1.171875 25.734375 -1.171875 
Q 19.53125 -1.171875 14.328125 2.25 
Q 9.125 5.671875 6.265625 11.796875 
Q 3.421875 17.921875 3.421875 25.875 
Q 3.421875 33.640625 6 39.96875 
Q 8.59375 46.296875 13.765625 49.65625 
Q 18.953125 53.03125 25.34375 53.03125 
Q 30.03125 53.03125 33.6875 51.046875 
Q 37.359375 49.078125 39.65625 45.90625 
L 39.65625 71.578125 
L 48.390625 71.578125 
L 48.390625 0 
z
M 12.453125 25.875 
Q 12.453125 15.921875 16.640625 10.984375 
Q 20.84375 6.0625 26.5625 6.0625 
Q 32.328125 6.0625 36.34375 10.765625 
Q 40.375 15.484375 40.375 25.140625 
Q 40.375 35.796875 36.265625 40.765625 
Q 32.171875 45.75 26.171875 45.75 
Q 20.3125 45.75 16.375 40.96875 
Q 12.453125 36.1875 12.453125 25.875 
z
" id="ArialMT-100"/>
      </defs>
      <use xlink:href="#ArialMT-108"/>
      <use x="22.216797" xlink:href="#ArialMT-49"/>
      <use x="77.832031" xlink:href="#ArialMT-52"/>
      <use x="133.447266" xlink:href="#ArialMT-100"/>
     </g>
    </g>
   </g>
   <g id="PathCollection_1">
    <defs>
     <path d="M 0 3.535534 
C 0.937635 3.535534 1.836992 3.163008 2.5 2.5 
C 3.163008 1.836992 3.535534 0.937635 3.535534 0 
C 3.535534 -0.937635 3.163008 -1.836992 2.5 -2.5 
C 1.836992 -3.163008 0.937635 -3.535534 0 -3.535534 
C -0.937635 -3.535534 -1.836992 -3.163008 -2.5 -2.5 
C -3.163008 -1.836992 -3.535534 -0.937635 -3.535534 0 
C -3.535534 0.937635 -3.163008 1.836992 -2.5 2.5 
C -1.836992 3.163008 -0.937635 3.535534 0 3.535534 
z
" id="m0b3a4e9660" style="stroke:#4c72b0;"/>
    </defs>
    <g clip-path="url(#pb78ab4aab6)">
     <use style="fill:#4c72b0;stroke:#4c72b0;" x="46.964375" xlink:href="#m0b3a4e9660" y="146.590997"/>
     <use style="fill:#4c72b0;stroke:#4c72b0;" x="70.982647" xlink:href="#m0b3a4e9660" y="159.19404"/>
     <use style="fill:#4c72b0;stroke:#4c72b0;" x="95.000918" xlink:href="#m0b3a4e9660" y="156.315498"/>
     <use style="fill:#4c72b0;stroke:#4c72b0;" x="119.01919" xlink:href="#m0b3a4e9660" y="167.653967"/>
     <use style="fill:#4c72b0;stroke:#4c72b0;" x="143.037461" xlink:href="#m0b3a4e9660" y="186.155289"/>
     <use style="fill:#4c72b0;stroke:#4c72b0;" x="167.055733" xlink:href="#m0b3a4e9660" y="168.228324"/>
     <use style="fill:#4c72b0;stroke:#4c72b0;" x="191.074004" xlink:href="#m0b3a4e9660" y="154.957273"/>
     <use style="fill:#4c72b0;stroke:#4c72b0;" x="215.092276" xlink:href="#m0b3a4e9660" y="164.49"/>
     <use style="fill:#4c72b0;stroke:#4c72b0;" x="239.110547" xlink:href="#m0b3a4e9660" y="190.969798"/>
     <use style="fill:#4c72b0;stroke:#4c72b0;" x="263.128819" xlink:href="#m0b3a4e9660" y="235.985455"/>
     <use style="fill:#4c72b0;stroke:#4c72b0;" x="287.147091" xlink:href="#m0b3a4e9660" y="212.153636"/>
     <use style="fill:#4c72b0;stroke:#4c72b0;" x="311.165362" xlink:href="#m0b3a4e9660" y="212.153636"/>
     <use style="fill:#4c72b0;stroke:#4c72b0;" x="359.201905" xlink:href="#m0b3a4e9660" y="212.153636"/>
    </g>
   </g>
   <g id="PolyCollection_1">
    <defs>
     <path d="M 46.964375 -224.652407 
L 46.964375 -208.004449 
L 50.118289 -207.597097 
L 53.272204 -207.223687 
L 56.426118 -206.882663 
L 59.580033 -206.382044 
L 62.733947 -205.960245 
L 65.887862 -205.618247 
L 69.041776 -205.185066 
L 72.195691 -204.760072 
L 75.349605 -204.16394 
L 78.503519 -203.441749 
L 81.657434 -202.916441 
L 84.811348 -202.280292 
L 87.965263 -201.76334 
L 91.119177 -201.251884 
L 94.273092 -200.560921 
L 97.427006 -199.929515 
L 100.580921 -199.176302 
L 103.734835 -198.480648 
L 106.888749 -197.73679 
L 110.042664 -197.069858 
L 113.196578 -196.28631 
L 116.350493 -195.309277 
L 119.504407 -194.516464 
L 122.658322 -193.569644 
L 125.812236 -192.922548 
L 128.966151 -192.036877 
L 132.120065 -191.202289 
L 135.27398 -190.316399 
L 138.427894 -189.506709 
L 141.581808 -188.56129 
L 144.735723 -187.558562 
L 147.889637 -186.69215 
L 151.043552 -185.717165 
L 154.197466 -184.687793 
L 157.351381 -183.702006 
L 160.505295 -182.687735 
L 163.65921 -181.757195 
L 166.813124 -180.719373 
L 169.967038 -179.716388 
L 173.120953 -178.761044 
L 176.274867 -177.860556 
L 179.428782 -176.855023 
L 182.582696 -175.882719 
L 185.736611 -174.844677 
L 188.890525 -173.805811 
L 192.04444 -172.826268 
L 195.198354 -171.81864 
L 198.352268 -170.811012 
L 201.506183 -169.793956 
L 204.660097 -168.729598 
L 207.814012 -167.66594 
L 210.967926 -166.605105 
L 214.121841 -165.607709 
L 217.275755 -164.610314 
L 220.42967 -163.613167 
L 223.583584 -162.618412 
L 226.737498 -161.624031 
L 229.891413 -160.616359 
L 233.045327 -159.623542 
L 236.199242 -158.637327 
L 239.353156 -157.640561 
L 242.507071 -156.576617 
L 245.660985 -155.46559 
L 248.8149 -154.462207 
L 251.968814 -153.450848 
L 255.122728 -152.367011 
L 258.276643 -151.283174 
L 261.430557 -150.218427 
L 264.584472 -149.177436 
L 267.738386 -148.059657 
L 270.892301 -146.943254 
L 274.046215 -145.856812 
L 277.20013 -144.772621 
L 280.354044 -143.68881 
L 283.507958 -142.639711 
L 286.661873 -141.599714 
L 289.815787 -140.559718 
L 292.969702 -139.519722 
L 296.123616 -138.480262 
L 299.277531 -137.441609 
L 302.431445 -136.402991 
L 305.58536 -135.364666 
L 308.739274 -134.326341 
L 311.893189 -133.272183 
L 315.047103 -132.202664 
L 318.201017 -131.133967 
L 321.354932 -130.114532 
L 324.508846 -129.004465 
L 327.662761 -127.952291 
L 330.816675 -126.861255 
L 333.97059 -125.778717 
L 337.124504 -124.707362 
L 340.278419 -123.636007 
L 343.432333 -122.564653 
L 346.586247 -121.493298 
L 349.740162 -120.421943 
L 352.894076 -119.350589 
L 356.047991 -118.279234 
L 359.201905 -117.207879 
L 359.201905 -172.22327 
L 359.201905 -172.22327 
L 356.047991 -172.690389 
L 352.894076 -173.157507 
L 349.740162 -173.624626 
L 346.586247 -174.091745 
L 343.432333 -174.51211 
L 340.278419 -174.920785 
L 337.124504 -175.246622 
L 333.97059 -175.563863 
L 330.816675 -175.881104 
L 327.662761 -176.198345 
L 324.508846 -176.515586 
L 321.354932 -176.905921 
L 318.201017 -177.337878 
L 315.047103 -177.769836 
L 311.893189 -178.201793 
L 308.739274 -178.63375 
L 305.58536 -179.065707 
L 302.431445 -179.497664 
L 299.277531 -179.929621 
L 296.123616 -180.361578 
L 292.969702 -180.793536 
L 289.815787 -181.225493 
L 286.661873 -181.657094 
L 283.507958 -182.086629 
L 280.354044 -182.496988 
L 277.20013 -182.812787 
L 274.046215 -183.128586 
L 270.892301 -183.444386 
L 267.738386 -183.760185 
L 264.584472 -184.075984 
L 261.430557 -184.391784 
L 258.276643 -184.791089 
L 255.122728 -185.202698 
L 251.968814 -185.61386 
L 248.8149 -186.024897 
L 245.660985 -186.435051 
L 242.507071 -186.844152 
L 239.353156 -187.253253 
L 236.199242 -187.674351 
L 233.045327 -188.127994 
L 229.891413 -188.581638 
L 226.737498 -189.035282 
L 223.583584 -189.488925 
L 220.42967 -189.836095 
L 217.275755 -190.170619 
L 214.121841 -190.616932 
L 210.967926 -190.990419 
L 207.814012 -191.416778 
L 204.660097 -191.758936 
L 201.506183 -192.188781 
L 198.352268 -192.584285 
L 195.198354 -192.996586 
L 192.04444 -193.406253 
L 188.890525 -193.815724 
L 185.736611 -194.178157 
L 182.582696 -194.60809 
L 179.428782 -195.054306 
L 176.274867 -195.542731 
L 173.120953 -196.116436 
L 169.967038 -196.687217 
L 166.813124 -197.127086 
L 163.65921 -197.509653 
L 160.505295 -197.775707 
L 157.351381 -198.406137 
L 154.197466 -198.879231 
L 151.043552 -199.414814 
L 147.889637 -199.830239 
L 144.735723 -200.169052 
L 141.581808 -200.640454 
L 138.427894 -201.204962 
L 135.27398 -201.725876 
L 132.120065 -202.375465 
L 128.966151 -203.00868 
L 125.812236 -203.571665 
L 122.658322 -204.126346 
L 119.504407 -204.733503 
L 116.350493 -205.369922 
L 113.196578 -206.009171 
L 110.042664 -206.784326 
L 106.888749 -207.456512 
L 103.734835 -208.190024 
L 100.580921 -208.88785 
L 97.427006 -209.635426 
L 94.273092 -210.576772 
L 91.119177 -211.500403 
L 87.965263 -212.452685 
L 84.811348 -213.326172 
L 81.657434 -214.159521 
L 78.503519 -214.965493 
L 75.349605 -215.709155 
L 72.195691 -216.688417 
L 69.041776 -217.500606 
L 65.887862 -218.55813 
L 62.733947 -219.720971 
L 59.580033 -220.737419 
L 56.426118 -221.826737 
L 53.272204 -222.770591 
L 50.118289 -223.711499 
L 46.964375 -224.652407 
z
" id="ma1096ba199" style="stroke:#ffffff;stroke-opacity:0.15;"/>
    </defs>
    <g clip-path="url(#pb78ab4aab6)">
     <use style="fill:#4c72b0;fill-opacity:0.15;stroke:#ffffff;stroke-opacity:0.15;" x="0" xlink:href="#ma1096ba199" y="363.514219"/>
    </g>
   </g>
   <g id="PathCollection_2">
    <defs>
     <path d="M -3.535534 3.535534 
L 3.535534 -3.535534 
M -3.535534 -3.535534 
L 3.535534 3.535534 
" id="mbb97b73da6" style="stroke:#dd8452;stroke-width:1.5;"/>
    </defs>
    <g clip-path="url(#pb78ab4aab6)">
     <use style="fill:#dd8452;stroke:#dd8452;stroke-width:1.5;" x="46.964375" xlink:href="#mbb97b73da6" y="169.213423"/>
     <use style="fill:#dd8452;stroke:#dd8452;stroke-width:1.5;" x="70.982647" xlink:href="#mbb97b73da6" y="175.489301"/>
     <use style="fill:#dd8452;stroke:#dd8452;stroke-width:1.5;" x="95.000918" xlink:href="#mbb97b73da6" y="181.512727"/>
     <use style="fill:#dd8452;stroke:#dd8452;stroke-width:1.5;" x="119.01919" xlink:href="#mbb97b73da6" y="188.746544"/>
     <use style="fill:#dd8452;stroke:#dd8452;stroke-width:1.5;" x="143.037461" xlink:href="#mbb97b73da6" y="222.294836"/>
     <use style="fill:#dd8452;stroke:#dd8452;stroke-width:1.5;" x="167.055733" xlink:href="#mbb97b73da6" y="189.210462"/>
     <use style="fill:#dd8452;stroke:#dd8452;stroke-width:1.5;" x="191.074004" xlink:href="#mbb97b73da6" y="201.06907"/>
     <use style="fill:#dd8452;stroke:#dd8452;stroke-width:1.5;" x="215.092276" xlink:href="#mbb97b73da6" y="208.976061"/>
     <use style="fill:#dd8452;stroke:#dd8452;stroke-width:1.5;" x="239.110547" xlink:href="#mbb97b73da6" y="209.468361"/>
     <use style="fill:#dd8452;stroke:#dd8452;stroke-width:1.5;" x="263.128819" xlink:href="#mbb97b73da6" y="208.866489"/>
     <use style="fill:#dd8452;stroke:#dd8452;stroke-width:1.5;" x="287.147091" xlink:href="#mbb97b73da6" y="209.22049"/>
     <use style="fill:#dd8452;stroke:#dd8452;stroke-width:1.5;" x="311.165362" xlink:href="#mbb97b73da6" y="215.296294"/>
     <use style="fill:#dd8452;stroke:#dd8452;stroke-width:1.5;" x="335.183634" xlink:href="#mbb97b73da6" y="234.396667"/>
     <use style="fill:#dd8452;stroke:#dd8452;stroke-width:1.5;" x="359.201905" xlink:href="#mbb97b73da6" y="231.219091"/>
    </g>
   </g>
   <g id="PolyCollection_2">
    <defs>
     <path d="M 46.964375 -194.837968 
L 46.964375 -181.566014 
L 50.118289 -181.171092 
L 53.272204 -180.774696 
L 56.426118 -180.379684 
L 59.580033 -179.984673 
L 62.733947 -179.589661 
L 65.887862 -179.194011 
L 69.041776 -178.758977 
L 72.195691 -178.310243 
L 75.349605 -177.861509 
L 78.503519 -177.447293 
L 81.657434 -177.048282 
L 84.811348 -176.589054 
L 87.965263 -176.180444 
L 91.119177 -175.731509 
L 94.273092 -175.282573 
L 97.427006 -174.835167 
L 100.580921 -174.402933 
L 103.734835 -174.031939 
L 106.888749 -173.638554 
L 110.042664 -173.207374 
L 113.196578 -172.76111 
L 116.350493 -172.315489 
L 119.504407 -171.909029 
L 122.658322 -171.528598 
L 125.812236 -171.155693 
L 128.966151 -170.735982 
L 132.120065 -170.326425 
L 135.27398 -169.869956 
L 138.427894 -169.439626 
L 141.581808 -169.016499 
L 144.735723 -168.583222 
L 147.889637 -168.141941 
L 151.043552 -167.68247 
L 154.197466 -167.177559 
L 157.351381 -166.673106 
L 160.505295 -166.134836 
L 163.65921 -165.680894 
L 166.813124 -165.264922 
L 169.967038 -164.718908 
L 173.120953 -164.241912 
L 176.274867 -163.731484 
L 179.428782 -163.249997 
L 182.582696 -162.722602 
L 185.736611 -162.233384 
L 188.890525 -161.716636 
L 192.04444 -161.207291 
L 195.198354 -160.68218 
L 198.352268 -160.17942 
L 201.506183 -159.630205 
L 204.660097 -159.08244 
L 207.814012 -158.507665 
L 210.967926 -157.886932 
L 214.121841 -157.374794 
L 217.275755 -156.806109 
L 220.42967 -156.232184 
L 223.583584 -155.629851 
L 226.737498 -154.952475 
L 229.891413 -154.273609 
L 233.045327 -153.619949 
L 236.199242 -153.029404 
L 239.353156 -152.38013 
L 242.507071 -151.659118 
L 245.660985 -151.036531 
L 248.8149 -150.432619 
L 251.968814 -149.751924 
L 255.122728 -149.080755 
L 258.276643 -148.456968 
L 261.430557 -147.833472 
L 264.584472 -147.211965 
L 267.738386 -146.734165 
L 270.892301 -146.215018 
L 274.046215 -145.497575 
L 277.20013 -144.777258 
L 280.354044 -144.092497 
L 283.507958 -143.469001 
L 286.661873 -142.863457 
L 289.815787 -142.294983 
L 292.969702 -141.663023 
L 296.123616 -141.037956 
L 299.277531 -140.366747 
L 302.431445 -139.733761 
L 305.58536 -139.104079 
L 308.739274 -138.479891 
L 311.893189 -137.855702 
L 315.047103 -137.231514 
L 318.201017 -136.607325 
L 321.354932 -135.948928 
L 324.508846 -135.276654 
L 327.662761 -134.604417 
L 330.816675 -133.936448 
L 333.97059 -133.298805 
L 337.124504 -132.630072 
L 340.278419 -131.969966 
L 343.432333 -131.321644 
L 346.586247 -130.673322 
L 349.740162 -130.019727 
L 352.894076 -129.318865 
L 356.047991 -128.641689 
L 359.201905 -128.006434 
L 359.201905 -146.031982 
L 359.201905 -146.031982 
L 356.047991 -146.442895 
L 352.894076 -146.857593 
L 349.740162 -147.263836 
L 346.586247 -147.632393 
L 343.432333 -148.00095 
L 340.278419 -148.369507 
L 337.124504 -148.738064 
L 333.97059 -149.106622 
L 330.816675 -149.473801 
L 327.662761 -149.842176 
L 324.508846 -150.213158 
L 321.354932 -150.58414 
L 318.201017 -150.957282 
L 315.047103 -151.377664 
L 311.893189 -151.853196 
L 308.739274 -152.284417 
L 305.58536 -152.715638 
L 302.431445 -153.14686 
L 299.277531 -153.574955 
L 296.123616 -154.002312 
L 292.969702 -154.430976 
L 289.815787 -154.862997 
L 286.661873 -155.292248 
L 283.507958 -155.625634 
L 280.354044 -155.949222 
L 277.20013 -156.264099 
L 274.046215 -156.654419 
L 270.892301 -157.092993 
L 267.738386 -157.530275 
L 264.584472 -157.967553 
L 261.430557 -158.404831 
L 258.276643 -158.804213 
L 255.122728 -159.227177 
L 251.968814 -159.660423 
L 248.8149 -160.078352 
L 245.660985 -160.530438 
L 242.507071 -160.975706 
L 239.353156 -161.387797 
L 236.199242 -161.740553 
L 233.045327 -162.232899 
L 229.891413 -162.709939 
L 226.737498 -163.105201 
L 223.583584 -163.59969 
L 220.42967 -164.062219 
L 217.275755 -164.539741 
L 214.121841 -164.985032 
L 210.967926 -165.423035 
L 207.814012 -165.853527 
L 204.660097 -166.299697 
L 201.506183 -166.754957 
L 198.352268 -167.287858 
L 195.198354 -167.736606 
L 192.04444 -168.224275 
L 188.890525 -168.742397 
L 185.736611 -169.254591 
L 182.582696 -169.784881 
L 179.428782 -170.30873 
L 176.274867 -170.839357 
L 173.120953 -171.356564 
L 169.967038 -171.884681 
L 166.813124 -172.429759 
L 163.65921 -173.050855 
L 160.505295 -173.57908 
L 157.351381 -174.082055 
L 154.197466 -174.609068 
L 151.043552 -175.16056 
L 147.889637 -175.687763 
L 144.735723 -176.283289 
L 141.581808 -176.847241 
L 138.427894 -177.397546 
L 135.27398 -177.968485 
L 132.120065 -178.530393 
L 128.966151 -179.114774 
L 125.812236 -179.714234 
L 122.658322 -180.254089 
L 119.504407 -180.82973 
L 116.350493 -181.555726 
L 113.196578 -182.128297 
L 110.042664 -182.785661 
L 106.888749 -183.341696 
L 103.734835 -183.88324 
L 100.580921 -184.526073 
L 97.427006 -185.17441 
L 94.273092 -185.822266 
L 91.119177 -186.423909 
L 87.965263 -187.015631 
L 84.811348 -187.61615 
L 81.657434 -188.201665 
L 78.503519 -188.684946 
L 75.349605 -189.315309 
L 72.195691 -190.001922 
L 69.041776 -190.672529 
L 65.887862 -191.300575 
L 62.733947 -191.882838 
L 59.580033 -192.460723 
L 56.426118 -193.038608 
L 53.272204 -193.635113 
L 50.118289 -194.221834 
L 46.964375 -194.837968 
z
" id="m641ba96cff" style="stroke:#ffffff;stroke-opacity:0.15;"/>
    </defs>
    <g clip-path="url(#pb78ab4aab6)">
     <use style="fill:#dd8452;fill-opacity:0.15;stroke:#ffffff;stroke-opacity:0.15;" x="0" xlink:href="#m641ba96cff" y="363.514219"/>
    </g>
   </g>
   <g id="line2d_15">
    <path clip-path="url(#pb78ab4aab6)" d="M 46.964375 157.451066 
L 46.964375 134.514198 
" style="fill:none;stroke:#4c72b0;stroke-linecap:round;stroke-width:2.625;"/>
   </g>
   <g id="line2d_16">
    <path clip-path="url(#pb78ab4aab6)" d="M 70.982647 201.561717 
L 70.982647 127.418283 
" style="fill:none;stroke:#4c72b0;stroke-linecap:round;stroke-width:2.625;"/>
   </g>
   <g id="line2d_17">
    <path clip-path="url(#pb78ab4aab6)" d="M 95.000918 164.62205 
L 95.000918 148.260469 
" style="fill:none;stroke:#4c72b0;stroke-linecap:round;stroke-width:2.625;"/>
   </g>
   <g id="line2d_18">
    <path clip-path="url(#pb78ab4aab6)" d="M 119.01919 175.819044 
L 119.01919 159.693017 
" style="fill:none;stroke:#4c72b0;stroke-linecap:round;stroke-width:2.625;"/>
   </g>
   <g id="line2d_19">
    <path clip-path="url(#pb78ab4aab6)" d="M 143.037461 229.485868 
L 143.037461 134.158595 
" style="fill:none;stroke:#4c72b0;stroke-linecap:round;stroke-width:2.625;"/>
   </g>
   <g id="line2d_20">
    <path clip-path="url(#pb78ab4aab6)" d="M 167.055733 183.204987 
L 167.055733 151.405865 
" style="fill:none;stroke:#4c72b0;stroke-linecap:round;stroke-width:2.625;"/>
   </g>
   <g id="line2d_21">
    <path clip-path="url(#pb78ab4aab6)" d="M 191.074004 185.462 
L 191.074004 120.639455 
" style="fill:none;stroke:#4c72b0;stroke-linecap:round;stroke-width:2.625;"/>
   </g>
   <g id="line2d_22">
    <path clip-path="url(#pb78ab4aab6)" d="M 215.092276 307.480909 
L 215.092276 21.499091 
" style="fill:none;stroke:#4c72b0;stroke-linecap:round;stroke-width:2.625;"/>
   </g>
   <g id="line2d_23">
    <path clip-path="url(#pb78ab4aab6)" d="M 239.110547 233.337475 
L 239.110547 148.602121 
" style="fill:none;stroke:#4c72b0;stroke-linecap:round;stroke-width:2.625;"/>
   </g>
   <g id="line2d_24">
    <path clip-path="url(#pb78ab4aab6)" d="M 263.128819 283.649091 
L 263.128819 188.321818 
" style="fill:none;stroke:#4c72b0;stroke-linecap:round;stroke-width:2.625;"/>
   </g>
   <g id="line2d_25">
    <path clip-path="url(#pb78ab4aab6)" d="M 287.147091 212.153636 
L 287.147091 212.153636 
" style="fill:none;stroke:#4c72b0;stroke-linecap:round;stroke-width:2.625;"/>
   </g>
   <g id="line2d_26">
    <path clip-path="url(#pb78ab4aab6)" d="M 311.165362 307.480909 
L 311.165362 92.994545 
" style="fill:none;stroke:#4c72b0;stroke-linecap:round;stroke-width:2.625;"/>
   </g>
   <g id="line2d_27">
    <path clip-path="url(#pb78ab4aab6)" d="M 359.201905 212.153636 
L 359.201905 212.153636 
" style="fill:none;stroke:#4c72b0;stroke-linecap:round;stroke-width:2.625;"/>
   </g>
   <g id="line2d_28">
    <path clip-path="url(#pb78ab4aab6)" d="M 46.964375 147.320483 
L 50.118289 148.046968 
L 53.272204 148.773454 
L 56.426118 149.499939 
L 59.580033 150.226424 
L 62.733947 150.952909 
L 65.887862 151.679395 
L 69.041776 152.40588 
L 72.195691 153.132365 
L 75.349605 153.85885 
L 78.503519 154.585335 
L 81.657434 155.311821 
L 84.811348 156.038306 
L 87.965263 156.764791 
L 91.119177 157.491276 
L 94.273092 158.217762 
L 97.427006 158.944247 
L 100.580921 159.670732 
L 103.734835 160.397217 
L 106.888749 161.123703 
L 110.042664 161.850188 
L 113.196578 162.576673 
L 116.350493 163.303158 
L 119.504407 164.029644 
L 122.658322 164.756129 
L 125.812236 165.482614 
L 128.966151 166.209099 
L 132.120065 166.935584 
L 135.27398 167.66207 
L 138.427894 168.388555 
L 141.581808 169.11504 
L 144.735723 169.841525 
L 147.889637 170.568011 
L 151.043552 171.294496 
L 154.197466 172.020981 
L 157.351381 172.747466 
L 160.505295 173.473952 
L 163.65921 174.200437 
L 166.813124 174.926922 
L 169.967038 175.653407 
L 173.120953 176.379893 
L 176.274867 177.106378 
L 179.428782 177.832863 
L 182.582696 178.559348 
L 185.736611 179.285834 
L 188.890525 180.012319 
L 192.04444 180.738804 
L 195.198354 181.465289 
L 198.352268 182.191774 
L 201.506183 182.91826 
L 204.660097 183.644745 
L 207.814012 184.37123 
L 210.967926 185.097715 
L 214.121841 185.824201 
L 217.275755 186.550686 
L 220.42967 187.277171 
L 223.583584 188.003656 
L 226.737498 188.730142 
L 229.891413 189.456627 
L 233.045327 190.183112 
L 236.199242 190.909597 
L 239.353156 191.636083 
L 242.507071 192.362568 
L 245.660985 193.089053 
L 248.8149 193.815538 
L 251.968814 194.542024 
L 255.122728 195.268509 
L 258.276643 195.994994 
L 261.430557 196.721479 
L 264.584472 197.447964 
L 267.738386 198.17445 
L 270.892301 198.900935 
L 274.046215 199.62742 
L 277.20013 200.353905 
L 280.354044 201.080391 
L 283.507958 201.806876 
L 286.661873 202.533361 
L 289.815787 203.259846 
L 292.969702 203.986332 
L 296.123616 204.712817 
L 299.277531 205.439302 
L 302.431445 206.165787 
L 305.58536 206.892273 
L 308.739274 207.618758 
L 311.893189 208.345243 
L 315.047103 209.071728 
L 318.201017 209.798213 
L 321.354932 210.524699 
L 324.508846 211.251184 
L 327.662761 211.977669 
L 330.816675 212.704154 
L 333.97059 213.43064 
L 337.124504 214.157125 
L 340.278419 214.88361 
L 343.432333 215.610095 
L 346.586247 216.336581 
L 349.740162 217.063066 
L 352.894076 217.789551 
L 356.047991 218.516036 
L 359.201905 219.242522 
" style="fill:none;stroke:#4c72b0;stroke-linecap:round;stroke-width:2.25;"/>
   </g>
   <g id="line2d_29">
    <path clip-path="url(#pb78ab4aab6)" d="M 46.964375 182.954292 
L 46.964375 155.472555 
" style="fill:none;stroke:#dd8452;stroke-linecap:round;stroke-width:2.625;"/>
   </g>
   <g id="line2d_30">
    <path clip-path="url(#pb78ab4aab6)" d="M 70.982647 226.819371 
L 70.982647 116.826364 
" style="fill:none;stroke:#dd8452;stroke-linecap:round;stroke-width:2.625;"/>
   </g>
   <g id="line2d_31">
    <path clip-path="url(#pb78ab4aab6)" d="M 95.000918 190.591515 
L 95.000918 171.299091 
" style="fill:none;stroke:#dd8452;stroke-linecap:round;stroke-width:2.625;"/>
   </g>
   <g id="line2d_32">
    <path clip-path="url(#pb78ab4aab6)" d="M 119.01919 195.919685 
L 119.01919 182.139703 
" style="fill:none;stroke:#dd8452;stroke-linecap:round;stroke-width:2.625;"/>
   </g>
   <g id="line2d_33">
    <path clip-path="url(#pb78ab4aab6)" d="M 143.037461 242.577234 
L 143.037461 199.984197 
" style="fill:none;stroke:#dd8452;stroke-linecap:round;stroke-width:2.625;"/>
   </g>
   <g id="line2d_34">
    <path clip-path="url(#pb78ab4aab6)" d="M 167.055733 198.581618 
L 167.055733 179.839307 
" style="fill:none;stroke:#dd8452;stroke-linecap:round;stroke-width:2.625;"/>
   </g>
   <g id="line2d_35">
    <path clip-path="url(#pb78ab4aab6)" d="M 191.074004 213.830177 
L 191.074004 188.321818 
" style="fill:none;stroke:#dd8452;stroke-linecap:round;stroke-width:2.625;"/>
   </g>
   <g id="line2d_36">
    <path clip-path="url(#pb78ab4aab6)" d="M 215.092276 237.574242 
L 215.092276 180.377879 
" style="fill:none;stroke:#dd8452;stroke-linecap:round;stroke-width:2.625;"/>
   </g>
   <g id="line2d_37">
    <path clip-path="url(#pb78ab4aab6)" d="M 239.110547 221.5521 
L 239.110547 197.384622 
" style="fill:none;stroke:#dd8452;stroke-linecap:round;stroke-width:2.625;"/>
   </g>
   <g id="line2d_38">
    <path clip-path="url(#pb78ab4aab6)" d="M 263.128819 222.015078 
L 263.128819 195.06047 
" style="fill:none;stroke:#dd8452;stroke-linecap:round;stroke-width:2.625;"/>
   </g>
   <g id="line2d_39">
    <path clip-path="url(#pb78ab4aab6)" d="M 287.147091 226.819371 
L 287.147091 188.688462 
" style="fill:none;stroke:#dd8452;stroke-linecap:round;stroke-width:2.625;"/>
   </g>
   <g id="line2d_40">
    <path clip-path="url(#pb78ab4aab6)" d="M 311.165362 225.248042 
L 311.165362 205.344545 
" style="fill:none;stroke:#dd8452;stroke-linecap:round;stroke-width:2.625;"/>
   </g>
   <g id="line2d_41">
    <path clip-path="url(#pb78ab4aab6)" d="M 335.183634 256.639697 
L 335.183634 215.251773 
" style="fill:none;stroke:#dd8452;stroke-linecap:round;stroke-width:2.625;"/>
   </g>
   <g id="line2d_42">
    <path clip-path="url(#pb78ab4aab6)" d="M 359.201905 269.35 
L 359.201905 212.153636 
" style="fill:none;stroke:#dd8452;stroke-linecap:round;stroke-width:2.625;"/>
   </g>
   <g id="line2d_43">
    <path clip-path="url(#pb78ab4aab6)" d="M 46.964375 175.088696 
L 50.118289 175.605092 
L 53.272204 176.121489 
L 56.426118 176.637886 
L 59.580033 177.154282 
L 62.733947 177.670679 
L 65.887862 178.187076 
L 69.041776 178.703473 
L 72.195691 179.219869 
L 75.349605 179.736266 
L 78.503519 180.252663 
L 81.657434 180.769059 
L 84.811348 181.285456 
L 87.965263 181.801853 
L 91.119177 182.31825 
L 94.273092 182.834646 
L 97.427006 183.351043 
L 100.580921 183.86744 
L 103.734835 184.383836 
L 106.888749 184.900233 
L 110.042664 185.41663 
L 113.196578 185.933026 
L 116.350493 186.449423 
L 119.504407 186.96582 
L 122.658322 187.482217 
L 125.812236 187.998613 
L 128.966151 188.51501 
L 132.120065 189.031407 
L 135.27398 189.547803 
L 138.427894 190.0642 
L 141.581808 190.580597 
L 144.735723 191.096994 
L 147.889637 191.61339 
L 151.043552 192.129787 
L 154.197466 192.646184 
L 157.351381 193.16258 
L 160.505295 193.678977 
L 163.65921 194.195374 
L 166.813124 194.711771 
L 169.967038 195.228167 
L 173.120953 195.744564 
L 176.274867 196.260961 
L 179.428782 196.777357 
L 182.582696 197.293754 
L 185.736611 197.810151 
L 188.890525 198.326547 
L 192.04444 198.842944 
L 195.198354 199.359341 
L 198.352268 199.875738 
L 201.506183 200.392134 
L 204.660097 200.908531 
L 207.814012 201.424928 
L 210.967926 201.941324 
L 214.121841 202.457721 
L 217.275755 202.974118 
L 220.42967 203.490515 
L 223.583584 204.006911 
L 226.737498 204.523308 
L 229.891413 205.039705 
L 233.045327 205.556101 
L 236.199242 206.072498 
L 239.353156 206.588895 
L 242.507071 207.105292 
L 245.660985 207.621688 
L 248.8149 208.138085 
L 251.968814 208.654482 
L 255.122728 209.170878 
L 258.276643 209.687275 
L 261.430557 210.203672 
L 264.584472 210.720068 
L 267.738386 211.236465 
L 270.892301 211.752862 
L 274.046215 212.269259 
L 277.20013 212.785655 
L 280.354044 213.302052 
L 283.507958 213.818449 
L 286.661873 214.334845 
L 289.815787 214.851242 
L 292.969702 215.367639 
L 296.123616 215.884036 
L 299.277531 216.400432 
L 302.431445 216.916829 
L 305.58536 217.433226 
L 308.739274 217.949622 
L 311.893189 218.466019 
L 315.047103 218.982416 
L 318.201017 219.498813 
L 321.354932 220.015209 
L 324.508846 220.531606 
L 327.662761 221.048003 
L 330.816675 221.564399 
L 333.97059 222.080796 
L 337.124504 222.597193 
L 340.278419 223.113589 
L 343.432333 223.629986 
L 346.586247 224.146383 
L 349.740162 224.66278 
L 352.894076 225.179176 
L 356.047991 225.695573 
L 359.201905 226.21197 
" style="fill:none;stroke:#dd8452;stroke-linecap:round;stroke-width:2.25;"/>
   </g>
   <g id="patch_3">
    <path d="M 46.964375 321.78 
L 46.964375 7.2 
" style="fill:none;stroke:#262626;stroke-linecap:square;stroke-linejoin:miter;stroke-width:1.25;"/>
   </g>
   <g id="patch_4">
    <path d="M 46.964375 321.78 
L 359.201905 321.78 
" style="fill:none;stroke:#262626;stroke-linecap:square;stroke-linejoin:miter;stroke-width:1.25;"/>
   </g>
  </g>
  <g id="legend_1">
   <g id="text_17">
    <!-- a91 -->
    <g style="fill:#262626;" transform="translate(377.071968 169.299453)scale(0.12 -0.12)">
     <defs>
      <path d="M 5.46875 16.546875 
L 13.921875 17.328125 
Q 14.984375 11.375 18.015625 8.6875 
Q 21.046875 6 25.78125 6 
Q 29.828125 6 32.875 7.859375 
Q 35.9375 9.71875 37.890625 12.8125 
Q 39.84375 15.921875 41.15625 21.1875 
Q 42.484375 26.46875 42.484375 31.9375 
Q 42.484375 32.515625 42.4375 33.6875 
Q 39.796875 29.5 35.234375 26.875 
Q 30.671875 24.265625 25.34375 24.265625 
Q 16.453125 24.265625 10.296875 30.703125 
Q 4.15625 37.15625 4.15625 47.703125 
Q 4.15625 58.59375 10.578125 65.234375 
Q 17 71.875 26.65625 71.875 
Q 33.640625 71.875 39.421875 68.109375 
Q 45.21875 64.359375 48.21875 57.390625 
Q 51.21875 50.4375 51.21875 37.25 
Q 51.21875 23.53125 48.234375 15.40625 
Q 45.265625 7.28125 39.375 3.03125 
Q 33.5 -1.21875 25.59375 -1.21875 
Q 17.1875 -1.21875 11.859375 3.4375 
Q 6.546875 8.109375 5.46875 16.546875 
z
M 41.453125 48.140625 
Q 41.453125 55.71875 37.421875 60.15625 
Q 33.40625 64.59375 27.734375 64.59375 
Q 21.875 64.59375 17.53125 59.8125 
Q 13.1875 55.03125 13.1875 47.40625 
Q 13.1875 40.578125 17.3125 36.296875 
Q 21.4375 32.03125 27.484375 32.03125 
Q 33.59375 32.03125 37.515625 36.296875 
Q 41.453125 40.578125 41.453125 48.140625 
z
" id="ArialMT-57"/>
     </defs>
     <use xlink:href="#ArialMT-97"/>
     <use x="55.615234" xlink:href="#ArialMT-57"/>
     <use x="111.230469" xlink:href="#ArialMT-49"/>
    </g>
   </g>
   <g id="PathCollection_3">
    <g>
     <use style="fill:#4c72b0;stroke:#4c72b0;" x="375.036655" xlink:href="#m0b3a4e9660" y="182.170547"/>
    </g>
   </g>
   <g id="text_18">
    <!-- 1.0 -->
    <g style="fill:#262626;" transform="translate(394.836655 185.058047)scale(0.11 -0.11)">
     <use xlink:href="#ArialMT-49"/>
     <use x="55.615234" xlink:href="#ArialMT-46"/>
     <use x="83.398438" xlink:href="#ArialMT-48"/>
    </g>
   </g>
   <g id="PathCollection_4">
    <g>
     <use style="fill:#dd8452;stroke:#dd8452;stroke-width:1.5;" x="375.036655" xlink:href="#mbb97b73da6" y="197.730391"/>
    </g>
   </g>
   <g id="text_19">
    <!-- 2.0 -->
    <g style="fill:#262626;" transform="translate(394.836655 200.617891)scale(0.11 -0.11)">
     <use xlink:href="#ArialMT-50"/>
     <use x="55.615234" xlink:href="#ArialMT-46"/>
     <use x="83.398438" xlink:href="#ArialMT-48"/>
    </g>
   </g>
  </g>
 </g>
 <defs>
  <clipPath id="pb78ab4aab6">
   <rect height="314.58" width="312.23753" x="46.964375" y="7.2"/>
  </clipPath>
 </defs>
</svg>
