<?xml version="1.0" encoding="utf-8" standalone="no"?>
<!DOCTYPE svg PUBLIC "-//W3C//DTD SVG 1.1//EN"
  "http://www.w3.org/Graphics/SVG/1.1/DTD/svg11.dtd">
<!-- Created with matplotlib (https://matplotlib.org/) -->
<svg height="363.514219pt" version="1.1" viewBox="0 0 363.361406 363.514219" width="363.361406pt" xmlns="http://www.w3.org/2000/svg" xmlns:xlink="http://www.w3.org/1999/xlink">
 <metadata>
  <rdf:RDF xmlns:cc="http://creativecommons.org/ns#" xmlns:dc="http://purl.org/dc/elements/1.1/" xmlns:rdf="http://www.w3.org/1999/02/22-rdf-syntax-ns#">
   <cc:Work>
    <dc:type rdf:resource="http://purl.org/dc/dcmitype/StillImage"/>
    <dc:date>2021-03-11T19:31:05.675150</dc:date>
    <dc:format>image/svg+xml</dc:format>
    <dc:creator>
     <cc:Agent>
      <dc:title>Matplotlib v3.3.2, https://matplotlib.org/</dc:title>
     </cc:Agent>
    </dc:creator>
   </cc:Work>
  </rdf:RDF>
 </metadata>
 <defs>
  <style type="text/css">*{stroke-linecap:butt;stroke-linejoin:round;}</style>
 </defs>
 <g id="figure_1">
  <g id="patch_1">
   <path d="M 0 363.514219 
L 363.361406 363.514219 
L 363.361406 0 
L 0 0 
z
" style="fill:#ffffff;"/>
  </g>
  <g id="axes_1">
   <g id="patch_2">
    <path d="M 46.964375 321.78 
L 350.044375 321.78 
L 350.044375 7.2 
L 46.964375 7.2 
z
" style="fill:#ffffff;"/>
   </g>
   <g id="matplotlib.axis_1">
    <g id="xtick_1">
     <g id="line2d_1">
      <defs>
       <path d="M 0 0 
L 0 6 
" id="m661c844340" style="stroke:#262626;stroke-width:1.25;"/>
      </defs>
      <g>
       <use style="fill:#262626;stroke:#262626;stroke-width:1.25;" x="70.278221" xlink:href="#m661c844340" y="321.78"/>
      </g>
     </g>
     <g id="text_1">
      <!-- 2 -->
      <g style="fill:#262626;" transform="translate(67.219706 339.153594)scale(0.11 -0.11)">
       <defs>
        <path d="M 50.34375 8.453125 
L 50.34375 0 
L 3.03125 0 
Q 2.9375 3.171875 4.046875 6.109375 
Q 5.859375 10.9375 9.828125 15.625 
Q 13.8125 20.3125 21.34375 26.46875 
Q 33.015625 36.03125 37.109375 41.625 
Q 41.21875 47.21875 41.21875 52.203125 
Q 41.21875 57.421875 37.46875 61 
Q 33.734375 64.59375 27.734375 64.59375 
Q 21.390625 64.59375 17.578125 60.78125 
Q 13.765625 56.984375 13.71875 50.25 
L 4.6875 51.171875 
Q 5.609375 61.28125 11.65625 66.578125 
Q 17.71875 71.875 27.9375 71.875 
Q 38.234375 71.875 44.234375 66.15625 
Q 50.25 60.453125 50.25 52 
Q 50.25 47.703125 48.484375 43.546875 
Q 46.734375 39.40625 42.65625 34.8125 
Q 38.578125 30.21875 29.109375 22.21875 
Q 21.1875 15.578125 18.9375 13.203125 
Q 16.703125 10.84375 15.234375 8.453125 
z
" id="ArialMT-50"/>
       </defs>
       <use xlink:href="#ArialMT-50"/>
      </g>
     </g>
    </g>
    <g id="xtick_2">
     <g id="line2d_2">
      <g>
       <use style="fill:#262626;stroke:#262626;stroke-width:1.25;" x="116.905913" xlink:href="#m661c844340" y="321.78"/>
      </g>
     </g>
     <g id="text_2">
      <!-- 4 -->
      <g style="fill:#262626;" transform="translate(113.847398 339.153594)scale(0.11 -0.11)">
       <defs>
        <path d="M 32.328125 0 
L 32.328125 17.140625 
L 1.265625 17.140625 
L 1.265625 25.203125 
L 33.9375 71.578125 
L 41.109375 71.578125 
L 41.109375 25.203125 
L 50.78125 25.203125 
L 50.78125 17.140625 
L 41.109375 17.140625 
L 41.109375 0 
z
M 32.328125 25.203125 
L 32.328125 57.46875 
L 9.90625 25.203125 
z
" id="ArialMT-52"/>
       </defs>
       <use xlink:href="#ArialMT-52"/>
      </g>
     </g>
    </g>
    <g id="xtick_3">
     <g id="line2d_3">
      <g>
       <use style="fill:#262626;stroke:#262626;stroke-width:1.25;" x="163.533606" xlink:href="#m661c844340" y="321.78"/>
      </g>
     </g>
     <g id="text_3">
      <!-- 6 -->
      <g style="fill:#262626;" transform="translate(160.47509 339.153594)scale(0.11 -0.11)">
       <defs>
        <path d="M 49.75 54.046875 
L 41.015625 53.375 
Q 39.84375 58.546875 37.703125 60.890625 
Q 34.125 64.65625 28.90625 64.65625 
Q 24.703125 64.65625 21.53125 62.3125 
Q 17.390625 59.28125 14.984375 53.46875 
Q 12.59375 47.65625 12.5 36.921875 
Q 15.671875 41.75 20.265625 44.09375 
Q 24.859375 46.4375 29.890625 46.4375 
Q 38.671875 46.4375 44.84375 39.96875 
Q 51.03125 33.5 51.03125 23.25 
Q 51.03125 16.5 48.125 10.71875 
Q 45.21875 4.9375 40.140625 1.859375 
Q 35.0625 -1.21875 28.609375 -1.21875 
Q 17.625 -1.21875 10.6875 6.859375 
Q 3.765625 14.9375 3.765625 33.5 
Q 3.765625 54.25 11.421875 63.671875 
Q 18.109375 71.875 29.4375 71.875 
Q 37.890625 71.875 43.28125 67.140625 
Q 48.6875 62.40625 49.75 54.046875 
z
M 13.875 23.1875 
Q 13.875 18.65625 15.796875 14.5 
Q 17.71875 10.359375 21.1875 8.171875 
Q 24.65625 6 28.46875 6 
Q 34.03125 6 38.03125 10.484375 
Q 42.046875 14.984375 42.046875 22.703125 
Q 42.046875 30.125 38.078125 34.390625 
Q 34.125 38.671875 28.125 38.671875 
Q 22.171875 38.671875 18.015625 34.390625 
Q 13.875 30.125 13.875 23.1875 
z
" id="ArialMT-54"/>
       </defs>
       <use xlink:href="#ArialMT-54"/>
      </g>
     </g>
    </g>
    <g id="xtick_4">
     <g id="line2d_4">
      <g>
       <use style="fill:#262626;stroke:#262626;stroke-width:1.25;" x="210.161298" xlink:href="#m661c844340" y="321.78"/>
      </g>
     </g>
     <g id="text_4">
      <!-- 8 -->
      <g style="fill:#262626;" transform="translate(207.102782 339.153594)scale(0.11 -0.11)">
       <defs>
        <path d="M 17.671875 38.8125 
Q 12.203125 40.828125 9.5625 44.53125 
Q 6.9375 48.25 6.9375 53.421875 
Q 6.9375 61.234375 12.546875 66.546875 
Q 18.171875 71.875 27.484375 71.875 
Q 36.859375 71.875 42.578125 66.421875 
Q 48.296875 60.984375 48.296875 53.171875 
Q 48.296875 48.1875 45.671875 44.5 
Q 43.0625 40.828125 37.75 38.8125 
Q 44.34375 36.671875 47.78125 31.875 
Q 51.21875 27.09375 51.21875 20.453125 
Q 51.21875 11.28125 44.71875 5.03125 
Q 38.234375 -1.21875 27.640625 -1.21875 
Q 17.046875 -1.21875 10.546875 5.046875 
Q 4.046875 11.328125 4.046875 20.703125 
Q 4.046875 27.6875 7.59375 32.390625 
Q 11.140625 37.109375 17.671875 38.8125 
z
M 15.921875 53.71875 
Q 15.921875 48.640625 19.1875 45.40625 
Q 22.46875 42.1875 27.6875 42.1875 
Q 32.765625 42.1875 36.015625 45.375 
Q 39.265625 48.578125 39.265625 53.21875 
Q 39.265625 58.0625 35.90625 61.359375 
Q 32.5625 64.65625 27.59375 64.65625 
Q 22.5625 64.65625 19.234375 61.421875 
Q 15.921875 58.203125 15.921875 53.71875 
z
M 13.09375 20.65625 
Q 13.09375 16.890625 14.875 13.375 
Q 16.65625 9.859375 20.171875 7.921875 
Q 23.6875 6 27.734375 6 
Q 34.03125 6 38.125 10.046875 
Q 42.234375 14.109375 42.234375 20.359375 
Q 42.234375 26.703125 38.015625 30.859375 
Q 33.796875 35.015625 27.4375 35.015625 
Q 21.234375 35.015625 17.15625 30.90625 
Q 13.09375 26.8125 13.09375 20.65625 
z
" id="ArialMT-56"/>
       </defs>
       <use xlink:href="#ArialMT-56"/>
      </g>
     </g>
    </g>
    <g id="xtick_5">
     <g id="line2d_5">
      <g>
       <use style="fill:#262626;stroke:#262626;stroke-width:1.25;" x="256.78899" xlink:href="#m661c844340" y="321.78"/>
      </g>
     </g>
     <g id="text_5">
      <!-- 10 -->
      <g style="fill:#262626;" transform="translate(250.671959 339.153594)scale(0.11 -0.11)">
       <defs>
        <path d="M 37.25 0 
L 28.46875 0 
L 28.46875 56 
Q 25.296875 52.984375 20.140625 49.953125 
Q 14.984375 46.921875 10.890625 45.40625 
L 10.890625 53.90625 
Q 18.265625 57.375 23.78125 62.296875 
Q 29.296875 67.234375 31.59375 71.875 
L 37.25 71.875 
z
" id="ArialMT-49"/>
        <path d="M 4.15625 35.296875 
Q 4.15625 48 6.765625 55.734375 
Q 9.375 63.484375 14.515625 67.671875 
Q 19.671875 71.875 27.484375 71.875 
Q 33.25 71.875 37.59375 69.546875 
Q 41.9375 67.234375 44.765625 62.859375 
Q 47.609375 58.5 49.21875 52.21875 
Q 50.828125 45.953125 50.828125 35.296875 
Q 50.828125 22.703125 48.234375 14.96875 
Q 45.65625 7.234375 40.5 3 
Q 35.359375 -1.21875 27.484375 -1.21875 
Q 17.140625 -1.21875 11.234375 6.203125 
Q 4.15625 15.140625 4.15625 35.296875 
z
M 13.1875 35.296875 
Q 13.1875 17.671875 17.3125 11.828125 
Q 21.4375 6 27.484375 6 
Q 33.546875 6 37.671875 11.859375 
Q 41.796875 17.71875 41.796875 35.296875 
Q 41.796875 52.984375 37.671875 58.78125 
Q 33.546875 64.59375 27.390625 64.59375 
Q 21.34375 64.59375 17.71875 59.46875 
Q 13.1875 52.9375 13.1875 35.296875 
z
" id="ArialMT-48"/>
       </defs>
       <use xlink:href="#ArialMT-49"/>
       <use x="55.615234" xlink:href="#ArialMT-48"/>
      </g>
     </g>
    </g>
    <g id="xtick_6">
     <g id="line2d_6">
      <g>
       <use style="fill:#262626;stroke:#262626;stroke-width:1.25;" x="303.416683" xlink:href="#m661c844340" y="321.78"/>
      </g>
     </g>
     <g id="text_6">
      <!-- 12 -->
      <g style="fill:#262626;" transform="translate(297.299651 339.153594)scale(0.11 -0.11)">
       <use xlink:href="#ArialMT-49"/>
       <use x="55.615234" xlink:href="#ArialMT-50"/>
      </g>
     </g>
    </g>
    <g id="xtick_7">
     <g id="line2d_7">
      <g>
       <use style="fill:#262626;stroke:#262626;stroke-width:1.25;" x="350.044375" xlink:href="#m661c844340" y="321.78"/>
      </g>
     </g>
     <g id="text_7">
      <!-- 14 -->
      <g style="fill:#262626;" transform="translate(343.927344 339.153594)scale(0.11 -0.11)">
       <use xlink:href="#ArialMT-49"/>
       <use x="55.615234" xlink:href="#ArialMT-52"/>
      </g>
     </g>
    </g>
    <g id="text_8">
     <!-- a7a -->
     <g style="fill:#262626;" transform="translate(188.494687 353.929219)scale(0.12 -0.12)">
      <defs>
       <path d="M 40.4375 6.390625 
Q 35.546875 2.25 31.03125 0.53125 
Q 26.515625 -1.171875 21.34375 -1.171875 
Q 12.796875 -1.171875 8.203125 3 
Q 3.609375 7.171875 3.609375 13.671875 
Q 3.609375 17.484375 5.34375 20.625 
Q 7.078125 23.78125 9.890625 25.6875 
Q 12.703125 27.59375 16.21875 28.5625 
Q 18.796875 29.25 24.03125 29.890625 
Q 34.671875 31.15625 39.703125 32.90625 
Q 39.75 34.71875 39.75 35.203125 
Q 39.75 40.578125 37.25 42.78125 
Q 33.890625 45.75 27.25 45.75 
Q 21.046875 45.75 18.09375 43.578125 
Q 15.140625 41.40625 13.71875 35.890625 
L 5.125 37.0625 
Q 6.296875 42.578125 8.984375 45.96875 
Q 11.671875 49.359375 16.75 51.1875 
Q 21.828125 53.03125 28.515625 53.03125 
Q 35.15625 53.03125 39.296875 51.46875 
Q 43.453125 49.90625 45.40625 47.53125 
Q 47.359375 45.171875 48.140625 41.546875 
Q 48.578125 39.3125 48.578125 33.453125 
L 48.578125 21.734375 
Q 48.578125 9.46875 49.140625 6.21875 
Q 49.703125 2.984375 51.375 0 
L 42.1875 0 
Q 40.828125 2.734375 40.4375 6.390625 
z
M 39.703125 26.03125 
Q 34.90625 24.078125 25.34375 22.703125 
Q 19.921875 21.921875 17.671875 20.9375 
Q 15.4375 19.96875 14.203125 18.09375 
Q 12.984375 16.21875 12.984375 13.921875 
Q 12.984375 10.40625 15.640625 8.0625 
Q 18.3125 5.71875 23.4375 5.71875 
Q 28.515625 5.71875 32.46875 7.9375 
Q 36.421875 10.15625 38.28125 14.015625 
Q 39.703125 17 39.703125 22.796875 
z
" id="ArialMT-97"/>
       <path d="M 4.734375 62.203125 
L 4.734375 70.65625 
L 51.078125 70.65625 
L 51.078125 63.8125 
Q 44.234375 56.546875 37.515625 44.484375 
Q 30.8125 32.421875 27.15625 19.671875 
Q 24.515625 10.6875 23.78125 0 
L 14.75 0 
Q 14.890625 8.453125 18.0625 20.40625 
Q 21.234375 32.375 27.171875 43.484375 
Q 33.109375 54.59375 39.796875 62.203125 
z
" id="ArialMT-55"/>
      </defs>
      <use xlink:href="#ArialMT-97"/>
      <use x="55.615234" xlink:href="#ArialMT-55"/>
      <use x="111.230469" xlink:href="#ArialMT-97"/>
     </g>
    </g>
   </g>
   <g id="matplotlib.axis_2">
    <g id="ytick_1">
     <g id="line2d_8">
      <defs>
       <path d="M 0 0 
L -6 0 
" id="mb04d769ea7" style="stroke:#262626;stroke-width:1.25;"/>
      </defs>
      <g>
       <use style="fill:#262626;stroke:#262626;stroke-width:1.25;" x="46.964375" xlink:href="#mb04d769ea7" y="281.015251"/>
      </g>
     </g>
     <g id="text_9">
      <!-- 1.8 -->
      <g style="fill:#262626;" transform="translate(22.174375 284.952048)scale(0.11 -0.11)">
       <defs>
        <path d="M 9.078125 0 
L 9.078125 10.015625 
L 19.09375 10.015625 
L 19.09375 0 
z
" id="ArialMT-46"/>
       </defs>
       <use xlink:href="#ArialMT-49"/>
       <use x="55.615234" xlink:href="#ArialMT-46"/>
       <use x="83.398438" xlink:href="#ArialMT-56"/>
      </g>
     </g>
    </g>
    <g id="ytick_2">
     <g id="line2d_9">
      <g>
       <use style="fill:#262626;stroke:#262626;stroke-width:1.25;" x="46.964375" xlink:href="#mb04d769ea7" y="217.100443"/>
      </g>
     </g>
     <g id="text_10">
      <!-- 2.0 -->
      <g style="fill:#262626;" transform="translate(22.174375 221.03724)scale(0.11 -0.11)">
       <use xlink:href="#ArialMT-50"/>
       <use x="55.615234" xlink:href="#ArialMT-46"/>
       <use x="83.398438" xlink:href="#ArialMT-48"/>
      </g>
     </g>
    </g>
    <g id="ytick_3">
     <g id="line2d_10">
      <g>
       <use style="fill:#262626;stroke:#262626;stroke-width:1.25;" x="46.964375" xlink:href="#mb04d769ea7" y="153.185635"/>
      </g>
     </g>
     <g id="text_11">
      <!-- 2.2 -->
      <g style="fill:#262626;" transform="translate(22.174375 157.122432)scale(0.11 -0.11)">
       <use xlink:href="#ArialMT-50"/>
       <use x="55.615234" xlink:href="#ArialMT-46"/>
       <use x="83.398438" xlink:href="#ArialMT-50"/>
      </g>
     </g>
    </g>
    <g id="ytick_4">
     <g id="line2d_11">
      <g>
       <use style="fill:#262626;stroke:#262626;stroke-width:1.25;" x="46.964375" xlink:href="#mb04d769ea7" y="89.270827"/>
      </g>
     </g>
     <g id="text_12">
      <!-- 2.4 -->
      <g style="fill:#262626;" transform="translate(22.174375 93.207624)scale(0.11 -0.11)">
       <use xlink:href="#ArialMT-50"/>
       <use x="55.615234" xlink:href="#ArialMT-46"/>
       <use x="83.398438" xlink:href="#ArialMT-52"/>
      </g>
     </g>
    </g>
    <g id="ytick_5">
     <g id="line2d_12">
      <g>
       <use style="fill:#262626;stroke:#262626;stroke-width:1.25;" x="46.964375" xlink:href="#mb04d769ea7" y="25.356019"/>
      </g>
     </g>
     <g id="text_13">
      <!-- 2.6 -->
      <g style="fill:#262626;" transform="translate(22.174375 29.292816)scale(0.11 -0.11)">
       <use xlink:href="#ArialMT-50"/>
       <use x="55.615234" xlink:href="#ArialMT-46"/>
       <use x="83.398438" xlink:href="#ArialMT-54"/>
      </g>
     </g>
    </g>
    <g id="text_14">
     <!-- l14d -->
     <g style="fill:#262626;" transform="translate(15.789375 175.832812)rotate(-90)scale(0.12 -0.12)">
      <defs>
       <path d="M 6.390625 0 
L 6.390625 71.578125 
L 15.1875 71.578125 
L 15.1875 0 
z
" id="ArialMT-108"/>
       <path d="M 40.234375 0 
L 40.234375 6.546875 
Q 35.296875 -1.171875 25.734375 -1.171875 
Q 19.53125 -1.171875 14.328125 2.25 
Q 9.125 5.671875 6.265625 11.796875 
Q 3.421875 17.921875 3.421875 25.875 
Q 3.421875 33.640625 6 39.96875 
Q 8.59375 46.296875 13.765625 49.65625 
Q 18.953125 53.03125 25.34375 53.03125 
Q 30.03125 53.03125 33.6875 51.046875 
Q 37.359375 49.078125 39.65625 45.90625 
L 39.65625 71.578125 
L 48.390625 71.578125 
L 48.390625 0 
z
M 12.453125 25.875 
Q 12.453125 15.921875 16.640625 10.984375 
Q 20.84375 6.0625 26.5625 6.0625 
Q 32.328125 6.0625 36.34375 10.765625 
Q 40.375 15.484375 40.375 25.140625 
Q 40.375 35.796875 36.265625 40.765625 
Q 32.171875 45.75 26.171875 45.75 
Q 20.3125 45.75 16.375 40.96875 
Q 12.453125 36.1875 12.453125 25.875 
z
" id="ArialMT-100"/>
      </defs>
      <use xlink:href="#ArialMT-108"/>
      <use x="22.216797" xlink:href="#ArialMT-49"/>
      <use x="77.832031" xlink:href="#ArialMT-52"/>
      <use x="133.447266" xlink:href="#ArialMT-100"/>
     </g>
    </g>
   </g>
   <g id="PathCollection_1">
    <defs>
     <path d="M 0 3 
C 0.795609 3 1.55874 2.683901 2.12132 2.12132 
C 2.683901 1.55874 3 0.795609 3 0 
C 3 -0.795609 2.683901 -1.55874 2.12132 -2.12132 
C 1.55874 -2.683901 0.795609 -3 0 -3 
C -0.795609 -3 -1.55874 -2.683901 -2.12132 -2.12132 
C -2.683901 -1.55874 -3 -0.795609 -3 0 
C -3 0.795609 -2.683901 1.55874 -2.12132 2.12132 
C -1.55874 2.683901 -0.795609 3 0 3 
z
" id="mb76a345c4b" style="stroke:#4c72b0;stroke-opacity:0.8;"/>
    </defs>
    <g clip-path="url(#p825859750f)">
     <use style="fill:#4c72b0;fill-opacity:0.8;stroke:#4c72b0;stroke-opacity:0.8;" x="46.964375" xlink:href="#mb76a345c4b" y="21.499091"/>
     <use style="fill:#4c72b0;fill-opacity:0.8;stroke:#4c72b0;stroke-opacity:0.8;" x="70.278221" xlink:href="#mb76a345c4b" y="71.839516"/>
     <use style="fill:#4c72b0;fill-opacity:0.8;stroke:#4c72b0;stroke-opacity:0.8;" x="93.592067" xlink:href="#mb76a345c4b" y="63.644129"/>
     <use style="fill:#4c72b0;fill-opacity:0.8;stroke:#4c72b0;stroke-opacity:0.8;" x="116.905913" xlink:href="#mb76a345c4b" y="104.657725"/>
     <use style="fill:#4c72b0;fill-opacity:0.8;stroke:#4c72b0;stroke-opacity:0.8;" x="140.21976" xlink:href="#mb76a345c4b" y="228.120237"/>
     <use style="fill:#4c72b0;fill-opacity:0.8;stroke:#4c72b0;stroke-opacity:0.8;" x="163.533606" xlink:href="#mb76a345c4b" y="122.113701"/>
     <use style="fill:#4c72b0;fill-opacity:0.8;stroke:#4c72b0;stroke-opacity:0.8;" x="186.847452" xlink:href="#mb76a345c4b" y="160.323329"/>
     <use style="fill:#4c72b0;fill-opacity:0.8;stroke:#4c72b0;stroke-opacity:0.8;" x="210.161298" xlink:href="#mb76a345c4b" y="197.127066"/>
     <use style="fill:#4c72b0;fill-opacity:0.8;stroke:#4c72b0;stroke-opacity:0.8;" x="233.475144" xlink:href="#mb76a345c4b" y="204.402137"/>
     <use style="fill:#4c72b0;fill-opacity:0.8;stroke:#4c72b0;stroke-opacity:0.8;" x="256.78899" xlink:href="#mb76a345c4b" y="210.834285"/>
     <use style="fill:#4c72b0;fill-opacity:0.8;stroke:#4c72b0;stroke-opacity:0.8;" x="280.102837" xlink:href="#mb76a345c4b" y="207.701207"/>
     <use style="fill:#4c72b0;fill-opacity:0.8;stroke:#4c72b0;stroke-opacity:0.8;" x="303.416683" xlink:href="#mb76a345c4b" y="227.354156"/>
     <use style="fill:#4c72b0;fill-opacity:0.8;stroke:#4c72b0;stroke-opacity:0.8;" x="326.730529" xlink:href="#mb76a345c4b" y="291.667719"/>
     <use style="fill:#4c72b0;fill-opacity:0.8;stroke:#4c72b0;stroke-opacity:0.8;" x="350.044375" xlink:href="#mb76a345c4b" y="270.362783"/>
    </g>
   </g>
   <g id="PolyCollection_1">
    <defs>
     <path d="M 46.964375 -336.224597 
L 46.964375 -250.607839 
L 50.025789 -248.987372 
L 53.087203 -247.366905 
L 56.148617 -245.746438 
L 59.210032 -244.125971 
L 62.271446 -242.505504 
L 65.33286 -240.885037 
L 68.394274 -239.26457 
L 71.455688 -237.644103 
L 74.517102 -236.023636 
L 77.578516 -234.430955 
L 80.639931 -232.946498 
L 83.701345 -231.462041 
L 86.762759 -229.977584 
L 89.824173 -228.498152 
L 92.885587 -226.996192 
L 95.947001 -225.3992 
L 99.008415 -223.886113 
L 102.06983 -222.299816 
L 105.131244 -220.591532 
L 108.192658 -218.982337 
L 111.254072 -217.373142 
L 114.315486 -215.768678 
L 117.3769 -214.166243 
L 120.438314 -212.564861 
L 123.499729 -210.968606 
L 126.561143 -209.372352 
L 129.622557 -207.776097 
L 132.683971 -206.200073 
L 135.745385 -204.632473 
L 138.806799 -203.040896 
L 141.868213 -201.656121 
L 144.929628 -199.922571 
L 147.991042 -198.18902 
L 151.052456 -196.565138 
L 154.11387 -194.95988 
L 157.175284 -193.354623 
L 160.236698 -191.749366 
L 163.298112 -190.144109 
L 166.359527 -188.49512 
L 169.420941 -186.680265 
L 172.482355 -184.866096 
L 175.543769 -183.051927 
L 178.605183 -181.237758 
L 181.666597 -179.379264 
L 184.728011 -177.603422 
L 187.789426 -175.91497 
L 190.85084 -174.352186 
L 193.912254 -172.796793 
L 196.973668 -171.241399 
L 200.035082 -169.686005 
L 203.096496 -168.130612 
L 206.15791 -166.5117 
L 209.219324 -164.789177 
L 212.280739 -162.816794 
L 215.342153 -160.857062 
L 218.403567 -158.791511 
L 221.464981 -156.980593 
L 224.526395 -154.760241 
L 227.587809 -153.017934 
L 230.649223 -151.193681 
L 233.710638 -149.23608 
L 236.772052 -147.315132 
L 239.833466 -145.232438 
L 242.89488 -143.289947 
L 245.956294 -141.275299 
L 249.017708 -139.163124 
L 252.079122 -136.947681 
L 255.140537 -134.476458 
L 258.201951 -132.095267 
L 261.263365 -129.723012 
L 264.324779 -127.380497 
L 267.386193 -125.039349 
L 270.447607 -122.531517 
L 273.509021 -119.973515 
L 276.570436 -118.025181 
L 279.63185 -115.366351 
L 282.693264 -112.769428 
L 285.754678 -110.502022 
L 288.816092 -107.962876 
L 291.877506 -105.754051 
L 294.93892 -103.479418 
L 298.000335 -100.813467 
L 301.061749 -98.421446 
L 304.123163 -95.892801 
L 307.184577 -93.106217 
L 310.245991 -90.628712 
L 313.307405 -87.935207 
L 316.368819 -85.22978 
L 319.430234 -82.528512 
L 322.491648 -79.827243 
L 325.553062 -77.351469 
L 328.614476 -74.760235 
L 331.67589 -72.03694 
L 334.737304 -69.426758 
L 337.798718 -66.687215 
L 340.860133 -64.178786 
L 343.921547 -61.477214 
L 346.982961 -58.686712 
L 350.044375 -56.03331 
L 350.044375 -101.208695 
L 350.044375 -101.208695 
L 346.982961 -102.869476 
L 343.921547 -104.648148 
L 340.860133 -106.527951 
L 337.798718 -108.287056 
L 334.737304 -110.200176 
L 331.67589 -111.807652 
L 328.614476 -113.550583 
L 325.553062 -115.300674 
L 322.491648 -117.110286 
L 319.430234 -118.881818 
L 316.368819 -121.004597 
L 313.307405 -122.914081 
L 310.245991 -124.671901 
L 307.184577 -126.97102 
L 304.123163 -129.027407 
L 301.061749 -130.822548 
L 298.000335 -132.480568 
L 294.93892 -134.519765 
L 291.877506 -136.677275 
L 288.816092 -138.785911 
L 285.754678 -140.701741 
L 282.693264 -142.927644 
L 279.63185 -145.201821 
L 276.570436 -147.457807 
L 273.509021 -149.629046 
L 270.447607 -151.786832 
L 267.386193 -154.008732 
L 264.324779 -156.29215 
L 261.263365 -158.536784 
L 258.201951 -160.813349 
L 255.140537 -163.103645 
L 252.079122 -165.418988 
L 249.017708 -167.755075 
L 245.956294 -170.255198 
L 242.89488 -172.693432 
L 239.833466 -175.119763 
L 236.772052 -177.421485 
L 233.710638 -179.881323 
L 230.649223 -182.393521 
L 227.587809 -184.616465 
L 224.526395 -186.990232 
L 221.464981 -189.371029 
L 218.403567 -191.640051 
L 215.342153 -194.109621 
L 212.280739 -196.620436 
L 209.219324 -198.976543 
L 206.15791 -201.42043 
L 203.096496 -203.867538 
L 200.035082 -206.316273 
L 196.973668 -208.898759 
L 193.912254 -211.496487 
L 190.85084 -213.922567 
L 187.789426 -216.512688 
L 184.728011 -219.134197 
L 181.666597 -221.749572 
L 178.605183 -224.185787 
L 175.543769 -226.446297 
L 172.482355 -229.068166 
L 169.420941 -231.467401 
L 166.359527 -233.883763 
L 163.298112 -236.35345 
L 160.236698 -238.897031 
L 157.175284 -241.471059 
L 154.11387 -244.045087 
L 151.052456 -246.514403 
L 147.991042 -249.142151 
L 144.929628 -251.687353 
L 141.868213 -254.195697 
L 138.806799 -256.813558 
L 135.745385 -259.493484 
L 132.683971 -262.130949 
L 129.622557 -264.791327 
L 126.561143 -267.414972 
L 123.499729 -270.021338 
L 120.438314 -272.730726 
L 117.3769 -275.27919 
L 114.315486 -277.899569 
L 111.254072 -280.476929 
L 108.192658 -283.124756 
L 105.131244 -285.830493 
L 102.06983 -288.539823 
L 99.008415 -291.061565 
L 95.947001 -293.580198 
L 92.885587 -296.128087 
L 89.824173 -298.771638 
L 86.762759 -301.415188 
L 83.701345 -304.067158 
L 80.639931 -306.704859 
L 77.578516 -309.351008 
L 74.517102 -311.998162 
L 71.455688 -314.718387 
L 68.394274 -317.491064 
L 65.33286 -320.248162 
L 62.271446 -322.825319 
L 59.210032 -325.506686 
L 56.148617 -328.188052 
L 53.087203 -330.867541 
L 50.025789 -333.546069 
L 46.964375 -336.224597 
z
" id="mc3e7ccba3b" style="stroke:#ffffff;stroke-opacity:0.15;"/>
    </defs>
    <g clip-path="url(#p825859750f)">
     <use style="fill:#4c72b0;fill-opacity:0.15;stroke:#ffffff;stroke-opacity:0.15;" x="0" xlink:href="#mc3e7ccba3b" y="363.514219"/>
    </g>
   </g>
   <g id="line2d_13">
    <path clip-path="url(#p825859750f)" d="M 46.964375 55.18519 
L 50.025789 57.507057 
L 53.087203 59.828925 
L 56.148617 62.150793 
L 59.210032 64.472661 
L 62.271446 66.794529 
L 65.33286 69.116397 
L 68.394274 71.438265 
L 71.455688 73.760132 
L 74.517102 76.082 
L 77.578516 78.403868 
L 80.639931 80.725736 
L 83.701345 83.047604 
L 86.762759 85.369472 
L 89.824173 87.69134 
L 92.885587 90.013207 
L 95.947001 92.335075 
L 99.008415 94.656943 
L 102.06983 96.978811 
L 105.131244 99.300679 
L 108.192658 101.622547 
L 111.254072 103.944415 
L 114.315486 106.266282 
L 117.3769 108.58815 
L 120.438314 110.910018 
L 123.499729 113.231886 
L 126.561143 115.553754 
L 129.622557 117.875622 
L 132.683971 120.19749 
L 135.745385 122.519357 
L 138.806799 124.841225 
L 141.868213 127.163093 
L 144.929628 129.484961 
L 147.991042 131.806829 
L 151.052456 134.128697 
L 154.11387 136.450565 
L 157.175284 138.772432 
L 160.236698 141.0943 
L 163.298112 143.416168 
L 166.359527 145.738036 
L 169.420941 148.059904 
L 172.482355 150.381772 
L 175.543769 152.70364 
L 178.605183 155.025507 
L 181.666597 157.347375 
L 184.728011 159.669243 
L 187.789426 161.991111 
L 190.85084 164.312979 
L 193.912254 166.634847 
L 196.973668 168.956715 
L 200.035082 171.278582 
L 203.096496 173.60045 
L 206.15791 175.922318 
L 209.219324 178.244186 
L 212.280739 180.566054 
L 215.342153 182.887922 
L 218.403567 185.20979 
L 221.464981 187.531657 
L 224.526395 189.853525 
L 227.587809 192.175393 
L 230.649223 194.497261 
L 233.710638 196.819129 
L 236.772052 199.140997 
L 239.833466 201.462865 
L 242.89488 203.784732 
L 245.956294 206.1066 
L 249.017708 208.428468 
L 252.079122 210.750336 
L 255.140537 213.072204 
L 258.201951 215.394072 
L 261.263365 217.71594 
L 264.324779 220.037807 
L 267.386193 222.359675 
L 270.447607 224.681543 
L 273.509021 227.003411 
L 276.570436 229.325279 
L 279.63185 231.647147 
L 282.693264 233.969015 
L 285.754678 236.290883 
L 288.816092 238.61275 
L 291.877506 240.934618 
L 294.93892 243.256486 
L 298.000335 245.578354 
L 301.061749 247.900222 
L 304.123163 250.22209 
L 307.184577 252.543958 
L 310.245991 254.865825 
L 313.307405 257.187693 
L 316.368819 259.509561 
L 319.430234 261.831429 
L 322.491648 264.153297 
L 325.553062 266.475165 
L 328.614476 268.797033 
L 331.67589 271.1189 
L 334.737304 273.440768 
L 337.798718 275.762636 
L 340.860133 278.084504 
L 343.921547 280.406372 
L 346.982961 282.72824 
L 350.044375 285.050108 
" style="fill:none;stroke:#4c72b0;stroke-linecap:round;stroke-width:2.25;"/>
   </g>
   <g id="patch_3">
    <path d="M 46.964375 321.78 
L 46.964375 7.2 
" style="fill:none;stroke:#262626;stroke-linecap:square;stroke-linejoin:miter;stroke-width:1.25;"/>
   </g>
   <g id="patch_4">
    <path d="M 46.964375 321.78 
L 350.044375 321.78 
" style="fill:none;stroke:#262626;stroke-linecap:square;stroke-linejoin:miter;stroke-width:1.25;"/>
   </g>
  </g>
 </g>
 <defs>
  <clipPath id="p825859750f">
   <rect height="314.58" width="303.08" x="46.964375" y="7.2"/>
  </clipPath>
 </defs>
</svg>
