<?xml version="1.0" encoding="utf-8" standalone="no"?>
<!DOCTYPE svg PUBLIC "-//W3C//DTD SVG 1.1//EN"
  "http://www.w3.org/Graphics/SVG/1.1/DTD/svg11.dtd">
<!-- Created with matplotlib (https://matplotlib.org/) -->
<svg height="363.514219pt" version="1.1" viewBox="0 0 363.361406 363.514219" width="363.361406pt" xmlns="http://www.w3.org/2000/svg" xmlns:xlink="http://www.w3.org/1999/xlink">
 <metadata>
  <rdf:RDF xmlns:cc="http://creativecommons.org/ns#" xmlns:dc="http://purl.org/dc/elements/1.1/" xmlns:rdf="http://www.w3.org/1999/02/22-rdf-syntax-ns#">
   <cc:Work>
    <dc:type rdf:resource="http://purl.org/dc/dcmitype/StillImage"/>
    <dc:date>2021-03-13T17:43:49.083497</dc:date>
    <dc:format>image/svg+xml</dc:format>
    <dc:creator>
     <cc:Agent>
      <dc:title>Matplotlib v3.3.2, https://matplotlib.org/</dc:title>
     </cc:Agent>
    </dc:creator>
   </cc:Work>
  </rdf:RDF>
 </metadata>
 <defs>
  <style type="text/css">*{stroke-linecap:butt;stroke-linejoin:round;}</style>
 </defs>
 <g id="figure_1">
  <g id="patch_1">
   <path d="M 0 363.514219 
L 363.361406 363.514219 
L 363.361406 0 
L 0 0 
z
" style="fill:#ffffff;"/>
  </g>
  <g id="axes_1">
   <g id="patch_2">
    <path d="M 46.964375 321.78 
L 350.044375 321.78 
L 350.044375 7.2 
L 46.964375 7.2 
z
" style="fill:#ffffff;"/>
   </g>
   <g id="matplotlib.axis_1">
    <g id="xtick_1">
     <g id="line2d_1">
      <defs>
       <path d="M 0 0 
L 0 6 
" id="mcf73c1be45" style="stroke:#262626;stroke-width:1.25;"/>
      </defs>
      <g>
       <use style="fill:#262626;stroke:#262626;stroke-width:1.25;" x="70.278221" xlink:href="#mcf73c1be45" y="321.78"/>
      </g>
     </g>
     <g id="text_1">
      <!-- 2 -->
      <g style="fill:#262626;" transform="translate(67.219706 339.153594)scale(0.11 -0.11)">
       <defs>
        <path d="M 50.34375 8.453125 
L 50.34375 0 
L 3.03125 0 
Q 2.9375 3.171875 4.046875 6.109375 
Q 5.859375 10.9375 9.828125 15.625 
Q 13.8125 20.3125 21.34375 26.46875 
Q 33.015625 36.03125 37.109375 41.625 
Q 41.21875 47.21875 41.21875 52.203125 
Q 41.21875 57.421875 37.46875 61 
Q 33.734375 64.59375 27.734375 64.59375 
Q 21.390625 64.59375 17.578125 60.78125 
Q 13.765625 56.984375 13.71875 50.25 
L 4.6875 51.171875 
Q 5.609375 61.28125 11.65625 66.578125 
Q 17.71875 71.875 27.9375 71.875 
Q 38.234375 71.875 44.234375 66.15625 
Q 50.25 60.453125 50.25 52 
Q 50.25 47.703125 48.484375 43.546875 
Q 46.734375 39.40625 42.65625 34.8125 
Q 38.578125 30.21875 29.109375 22.21875 
Q 21.1875 15.578125 18.9375 13.203125 
Q 16.703125 10.84375 15.234375 8.453125 
z
" id="ArialMT-50"/>
       </defs>
       <use xlink:href="#ArialMT-50"/>
      </g>
     </g>
    </g>
    <g id="xtick_2">
     <g id="line2d_2">
      <g>
       <use style="fill:#262626;stroke:#262626;stroke-width:1.25;" x="116.905913" xlink:href="#mcf73c1be45" y="321.78"/>
      </g>
     </g>
     <g id="text_2">
      <!-- 4 -->
      <g style="fill:#262626;" transform="translate(113.847398 339.153594)scale(0.11 -0.11)">
       <defs>
        <path d="M 32.328125 0 
L 32.328125 17.140625 
L 1.265625 17.140625 
L 1.265625 25.203125 
L 33.9375 71.578125 
L 41.109375 71.578125 
L 41.109375 25.203125 
L 50.78125 25.203125 
L 50.78125 17.140625 
L 41.109375 17.140625 
L 41.109375 0 
z
M 32.328125 25.203125 
L 32.328125 57.46875 
L 9.90625 25.203125 
z
" id="ArialMT-52"/>
       </defs>
       <use xlink:href="#ArialMT-52"/>
      </g>
     </g>
    </g>
    <g id="xtick_3">
     <g id="line2d_3">
      <g>
       <use style="fill:#262626;stroke:#262626;stroke-width:1.25;" x="163.533606" xlink:href="#mcf73c1be45" y="321.78"/>
      </g>
     </g>
     <g id="text_3">
      <!-- 6 -->
      <g style="fill:#262626;" transform="translate(160.47509 339.153594)scale(0.11 -0.11)">
       <defs>
        <path d="M 49.75 54.046875 
L 41.015625 53.375 
Q 39.84375 58.546875 37.703125 60.890625 
Q 34.125 64.65625 28.90625 64.65625 
Q 24.703125 64.65625 21.53125 62.3125 
Q 17.390625 59.28125 14.984375 53.46875 
Q 12.59375 47.65625 12.5 36.921875 
Q 15.671875 41.75 20.265625 44.09375 
Q 24.859375 46.4375 29.890625 46.4375 
Q 38.671875 46.4375 44.84375 39.96875 
Q 51.03125 33.5 51.03125 23.25 
Q 51.03125 16.5 48.125 10.71875 
Q 45.21875 4.9375 40.140625 1.859375 
Q 35.0625 -1.21875 28.609375 -1.21875 
Q 17.625 -1.21875 10.6875 6.859375 
Q 3.765625 14.9375 3.765625 33.5 
Q 3.765625 54.25 11.421875 63.671875 
Q 18.109375 71.875 29.4375 71.875 
Q 37.890625 71.875 43.28125 67.140625 
Q 48.6875 62.40625 49.75 54.046875 
z
M 13.875 23.1875 
Q 13.875 18.65625 15.796875 14.5 
Q 17.71875 10.359375 21.1875 8.171875 
Q 24.65625 6 28.46875 6 
Q 34.03125 6 38.03125 10.484375 
Q 42.046875 14.984375 42.046875 22.703125 
Q 42.046875 30.125 38.078125 34.390625 
Q 34.125 38.671875 28.125 38.671875 
Q 22.171875 38.671875 18.015625 34.390625 
Q 13.875 30.125 13.875 23.1875 
z
" id="ArialMT-54"/>
       </defs>
       <use xlink:href="#ArialMT-54"/>
      </g>
     </g>
    </g>
    <g id="xtick_4">
     <g id="line2d_4">
      <g>
       <use style="fill:#262626;stroke:#262626;stroke-width:1.25;" x="210.161298" xlink:href="#mcf73c1be45" y="321.78"/>
      </g>
     </g>
     <g id="text_4">
      <!-- 8 -->
      <g style="fill:#262626;" transform="translate(207.102782 339.153594)scale(0.11 -0.11)">
       <defs>
        <path d="M 17.671875 38.8125 
Q 12.203125 40.828125 9.5625 44.53125 
Q 6.9375 48.25 6.9375 53.421875 
Q 6.9375 61.234375 12.546875 66.546875 
Q 18.171875 71.875 27.484375 71.875 
Q 36.859375 71.875 42.578125 66.421875 
Q 48.296875 60.984375 48.296875 53.171875 
Q 48.296875 48.1875 45.671875 44.5 
Q 43.0625 40.828125 37.75 38.8125 
Q 44.34375 36.671875 47.78125 31.875 
Q 51.21875 27.09375 51.21875 20.453125 
Q 51.21875 11.28125 44.71875 5.03125 
Q 38.234375 -1.21875 27.640625 -1.21875 
Q 17.046875 -1.21875 10.546875 5.046875 
Q 4.046875 11.328125 4.046875 20.703125 
Q 4.046875 27.6875 7.59375 32.390625 
Q 11.140625 37.109375 17.671875 38.8125 
z
M 15.921875 53.71875 
Q 15.921875 48.640625 19.1875 45.40625 
Q 22.46875 42.1875 27.6875 42.1875 
Q 32.765625 42.1875 36.015625 45.375 
Q 39.265625 48.578125 39.265625 53.21875 
Q 39.265625 58.0625 35.90625 61.359375 
Q 32.5625 64.65625 27.59375 64.65625 
Q 22.5625 64.65625 19.234375 61.421875 
Q 15.921875 58.203125 15.921875 53.71875 
z
M 13.09375 20.65625 
Q 13.09375 16.890625 14.875 13.375 
Q 16.65625 9.859375 20.171875 7.921875 
Q 23.6875 6 27.734375 6 
Q 34.03125 6 38.125 10.046875 
Q 42.234375 14.109375 42.234375 20.359375 
Q 42.234375 26.703125 38.015625 30.859375 
Q 33.796875 35.015625 27.4375 35.015625 
Q 21.234375 35.015625 17.15625 30.90625 
Q 13.09375 26.8125 13.09375 20.65625 
z
" id="ArialMT-56"/>
       </defs>
       <use xlink:href="#ArialMT-56"/>
      </g>
     </g>
    </g>
    <g id="xtick_5">
     <g id="line2d_5">
      <g>
       <use style="fill:#262626;stroke:#262626;stroke-width:1.25;" x="256.78899" xlink:href="#mcf73c1be45" y="321.78"/>
      </g>
     </g>
     <g id="text_5">
      <!-- 10 -->
      <g style="fill:#262626;" transform="translate(250.671959 339.153594)scale(0.11 -0.11)">
       <defs>
        <path d="M 37.25 0 
L 28.46875 0 
L 28.46875 56 
Q 25.296875 52.984375 20.140625 49.953125 
Q 14.984375 46.921875 10.890625 45.40625 
L 10.890625 53.90625 
Q 18.265625 57.375 23.78125 62.296875 
Q 29.296875 67.234375 31.59375 71.875 
L 37.25 71.875 
z
" id="ArialMT-49"/>
        <path d="M 4.15625 35.296875 
Q 4.15625 48 6.765625 55.734375 
Q 9.375 63.484375 14.515625 67.671875 
Q 19.671875 71.875 27.484375 71.875 
Q 33.25 71.875 37.59375 69.546875 
Q 41.9375 67.234375 44.765625 62.859375 
Q 47.609375 58.5 49.21875 52.21875 
Q 50.828125 45.953125 50.828125 35.296875 
Q 50.828125 22.703125 48.234375 14.96875 
Q 45.65625 7.234375 40.5 3 
Q 35.359375 -1.21875 27.484375 -1.21875 
Q 17.140625 -1.21875 11.234375 6.203125 
Q 4.15625 15.140625 4.15625 35.296875 
z
M 13.1875 35.296875 
Q 13.1875 17.671875 17.3125 11.828125 
Q 21.4375 6 27.484375 6 
Q 33.546875 6 37.671875 11.859375 
Q 41.796875 17.71875 41.796875 35.296875 
Q 41.796875 52.984375 37.671875 58.78125 
Q 33.546875 64.59375 27.390625 64.59375 
Q 21.34375 64.59375 17.71875 59.46875 
Q 13.1875 52.9375 13.1875 35.296875 
z
" id="ArialMT-48"/>
       </defs>
       <use xlink:href="#ArialMT-49"/>
       <use x="55.615234" xlink:href="#ArialMT-48"/>
      </g>
     </g>
    </g>
    <g id="xtick_6">
     <g id="line2d_6">
      <g>
       <use style="fill:#262626;stroke:#262626;stroke-width:1.25;" x="303.416683" xlink:href="#mcf73c1be45" y="321.78"/>
      </g>
     </g>
     <g id="text_6">
      <!-- 12 -->
      <g style="fill:#262626;" transform="translate(297.299651 339.153594)scale(0.11 -0.11)">
       <use xlink:href="#ArialMT-49"/>
       <use x="55.615234" xlink:href="#ArialMT-50"/>
      </g>
     </g>
    </g>
    <g id="xtick_7">
     <g id="line2d_7">
      <g>
       <use style="fill:#262626;stroke:#262626;stroke-width:1.25;" x="350.044375" xlink:href="#mcf73c1be45" y="321.78"/>
      </g>
     </g>
     <g id="text_7">
      <!-- 14 -->
      <g style="fill:#262626;" transform="translate(343.927344 339.153594)scale(0.11 -0.11)">
       <use xlink:href="#ArialMT-49"/>
       <use x="55.615234" xlink:href="#ArialMT-52"/>
      </g>
     </g>
    </g>
    <g id="text_8">
     <!-- a7a -->
     <g style="fill:#262626;" transform="translate(188.494687 353.929219)scale(0.12 -0.12)">
      <defs>
       <path d="M 40.4375 6.390625 
Q 35.546875 2.25 31.03125 0.53125 
Q 26.515625 -1.171875 21.34375 -1.171875 
Q 12.796875 -1.171875 8.203125 3 
Q 3.609375 7.171875 3.609375 13.671875 
Q 3.609375 17.484375 5.34375 20.625 
Q 7.078125 23.78125 9.890625 25.6875 
Q 12.703125 27.59375 16.21875 28.5625 
Q 18.796875 29.25 24.03125 29.890625 
Q 34.671875 31.15625 39.703125 32.90625 
Q 39.75 34.71875 39.75 35.203125 
Q 39.75 40.578125 37.25 42.78125 
Q 33.890625 45.75 27.25 45.75 
Q 21.046875 45.75 18.09375 43.578125 
Q 15.140625 41.40625 13.71875 35.890625 
L 5.125 37.0625 
Q 6.296875 42.578125 8.984375 45.96875 
Q 11.671875 49.359375 16.75 51.1875 
Q 21.828125 53.03125 28.515625 53.03125 
Q 35.15625 53.03125 39.296875 51.46875 
Q 43.453125 49.90625 45.40625 47.53125 
Q 47.359375 45.171875 48.140625 41.546875 
Q 48.578125 39.3125 48.578125 33.453125 
L 48.578125 21.734375 
Q 48.578125 9.46875 49.140625 6.21875 
Q 49.703125 2.984375 51.375 0 
L 42.1875 0 
Q 40.828125 2.734375 40.4375 6.390625 
z
M 39.703125 26.03125 
Q 34.90625 24.078125 25.34375 22.703125 
Q 19.921875 21.921875 17.671875 20.9375 
Q 15.4375 19.96875 14.203125 18.09375 
Q 12.984375 16.21875 12.984375 13.921875 
Q 12.984375 10.40625 15.640625 8.0625 
Q 18.3125 5.71875 23.4375 5.71875 
Q 28.515625 5.71875 32.46875 7.9375 
Q 36.421875 10.15625 38.28125 14.015625 
Q 39.703125 17 39.703125 22.796875 
z
" id="ArialMT-97"/>
       <path d="M 4.734375 62.203125 
L 4.734375 70.65625 
L 51.078125 70.65625 
L 51.078125 63.8125 
Q 44.234375 56.546875 37.515625 44.484375 
Q 30.8125 32.421875 27.15625 19.671875 
Q 24.515625 10.6875 23.78125 0 
L 14.75 0 
Q 14.890625 8.453125 18.0625 20.40625 
Q 21.234375 32.375 27.171875 43.484375 
Q 33.109375 54.59375 39.796875 62.203125 
z
" id="ArialMT-55"/>
      </defs>
      <use xlink:href="#ArialMT-97"/>
      <use x="55.615234" xlink:href="#ArialMT-55"/>
      <use x="111.230469" xlink:href="#ArialMT-97"/>
     </g>
    </g>
   </g>
   <g id="matplotlib.axis_2">
    <g id="ytick_1">
     <g id="line2d_8">
      <defs>
       <path d="M 0 0 
L -6 0 
" id="m4365911dc8" style="stroke:#262626;stroke-width:1.25;"/>
      </defs>
      <g>
       <use style="fill:#262626;stroke:#262626;stroke-width:1.25;" x="46.964375" xlink:href="#m4365911dc8" y="278.529867"/>
      </g>
     </g>
     <g id="text_9">
      <!-- 1.8 -->
      <g style="fill:#262626;" transform="translate(22.174375 282.466664)scale(0.11 -0.11)">
       <defs>
        <path d="M 9.078125 0 
L 9.078125 10.015625 
L 19.09375 10.015625 
L 19.09375 0 
z
" id="ArialMT-46"/>
       </defs>
       <use xlink:href="#ArialMT-49"/>
       <use x="55.615234" xlink:href="#ArialMT-46"/>
       <use x="83.398438" xlink:href="#ArialMT-56"/>
      </g>
     </g>
    </g>
    <g id="ytick_2">
     <g id="line2d_9">
      <g>
       <use style="fill:#262626;stroke:#262626;stroke-width:1.25;" x="46.964375" xlink:href="#m4365911dc8" y="215.227171"/>
      </g>
     </g>
     <g id="text_10">
      <!-- 2.0 -->
      <g style="fill:#262626;" transform="translate(22.174375 219.163968)scale(0.11 -0.11)">
       <use xlink:href="#ArialMT-50"/>
       <use x="55.615234" xlink:href="#ArialMT-46"/>
       <use x="83.398438" xlink:href="#ArialMT-48"/>
      </g>
     </g>
    </g>
    <g id="ytick_3">
     <g id="line2d_10">
      <g>
       <use style="fill:#262626;stroke:#262626;stroke-width:1.25;" x="46.964375" xlink:href="#m4365911dc8" y="151.924474"/>
      </g>
     </g>
     <g id="text_11">
      <!-- 2.2 -->
      <g style="fill:#262626;" transform="translate(22.174375 155.861271)scale(0.11 -0.11)">
       <use xlink:href="#ArialMT-50"/>
       <use x="55.615234" xlink:href="#ArialMT-46"/>
       <use x="83.398438" xlink:href="#ArialMT-50"/>
      </g>
     </g>
    </g>
    <g id="ytick_4">
     <g id="line2d_11">
      <g>
       <use style="fill:#262626;stroke:#262626;stroke-width:1.25;" x="46.964375" xlink:href="#m4365911dc8" y="88.621778"/>
      </g>
     </g>
     <g id="text_12">
      <!-- 2.4 -->
      <g style="fill:#262626;" transform="translate(22.174375 92.558575)scale(0.11 -0.11)">
       <use xlink:href="#ArialMT-50"/>
       <use x="55.615234" xlink:href="#ArialMT-46"/>
       <use x="83.398438" xlink:href="#ArialMT-52"/>
      </g>
     </g>
    </g>
    <g id="ytick_5">
     <g id="line2d_12">
      <g>
       <use style="fill:#262626;stroke:#262626;stroke-width:1.25;" x="46.964375" xlink:href="#m4365911dc8" y="25.319081"/>
      </g>
     </g>
     <g id="text_13">
      <!-- 2.6 -->
      <g style="fill:#262626;" transform="translate(22.174375 29.255878)scale(0.11 -0.11)">
       <use xlink:href="#ArialMT-50"/>
       <use x="55.615234" xlink:href="#ArialMT-46"/>
       <use x="83.398438" xlink:href="#ArialMT-54"/>
      </g>
     </g>
    </g>
    <g id="text_14">
     <!-- l14d -->
     <g style="fill:#262626;" transform="translate(15.789375 175.832812)rotate(-90)scale(0.12 -0.12)">
      <defs>
       <path d="M 6.390625 0 
L 6.390625 71.578125 
L 15.1875 71.578125 
L 15.1875 0 
z
" id="ArialMT-108"/>
       <path d="M 40.234375 0 
L 40.234375 6.546875 
Q 35.296875 -1.171875 25.734375 -1.171875 
Q 19.53125 -1.171875 14.328125 2.25 
Q 9.125 5.671875 6.265625 11.796875 
Q 3.421875 17.921875 3.421875 25.875 
Q 3.421875 33.640625 6 39.96875 
Q 8.59375 46.296875 13.765625 49.65625 
Q 18.953125 53.03125 25.34375 53.03125 
Q 30.03125 53.03125 33.6875 51.046875 
Q 37.359375 49.078125 39.65625 45.90625 
L 39.65625 71.578125 
L 48.390625 71.578125 
L 48.390625 0 
z
M 12.453125 25.875 
Q 12.453125 15.921875 16.640625 10.984375 
Q 20.84375 6.0625 26.5625 6.0625 
Q 32.328125 6.0625 36.34375 10.765625 
Q 40.375 15.484375 40.375 25.140625 
Q 40.375 35.796875 36.265625 40.765625 
Q 32.171875 45.75 26.171875 45.75 
Q 20.3125 45.75 16.375 40.96875 
Q 12.453125 36.1875 12.453125 25.875 
z
" id="ArialMT-100"/>
      </defs>
      <use xlink:href="#ArialMT-108"/>
      <use x="22.216797" xlink:href="#ArialMT-49"/>
      <use x="77.832031" xlink:href="#ArialMT-52"/>
      <use x="133.447266" xlink:href="#ArialMT-100"/>
     </g>
    </g>
   </g>
   <g id="PathCollection_1">
    <defs>
     <path d="M 0 3 
C 0.795609 3 1.55874 2.683901 2.12132 2.12132 
C 2.683901 1.55874 3 0.795609 3 0 
C 3 -0.795609 2.683901 -1.55874 2.12132 -2.12132 
C 1.55874 -2.683901 0.795609 -3 0 -3 
C -0.795609 -3 -1.55874 -2.683901 -2.12132 -2.12132 
C -2.683901 -1.55874 -3 -0.795609 -3 0 
C -3 0.795609 -2.683901 1.55874 -2.12132 2.12132 
C -1.55874 2.683901 -0.795609 3 0 3 
z
" id="mac8d88bef4" style="stroke:#4c72b0;stroke-opacity:0.8;"/>
    </defs>
    <g clip-path="url(#p5e4b6e5f14)">
     <use style="fill:#4c72b0;fill-opacity:0.8;stroke:#4c72b0;stroke-opacity:0.8;" x="46.964375" xlink:href="#mac8d88bef4" y="21.499091"/>
     <use style="fill:#4c72b0;fill-opacity:0.8;stroke:#4c72b0;stroke-opacity:0.8;" x="70.278221" xlink:href="#mac8d88bef4" y="71.357406"/>
     <use style="fill:#4c72b0;fill-opacity:0.8;stroke:#4c72b0;stroke-opacity:0.8;" x="93.592067" xlink:href="#mac8d88bef4" y="63.240506"/>
     <use style="fill:#4c72b0;fill-opacity:0.8;stroke:#4c72b0;stroke-opacity:0.8;" x="116.905913" xlink:href="#mac8d88bef4" y="103.861316"/>
     <use style="fill:#4c72b0;fill-opacity:0.8;stroke:#4c72b0;stroke-opacity:0.8;" x="140.21976" xlink:href="#mac8d88bef4" y="226.141429"/>
     <use style="fill:#4c72b0;fill-opacity:0.8;stroke:#4c72b0;stroke-opacity:0.8;" x="163.533606" xlink:href="#mac8d88bef4" y="121.150115"/>
     <use style="fill:#4c72b0;fill-opacity:0.8;stroke:#4c72b0;stroke-opacity:0.8;" x="186.847452" xlink:href="#mac8d88bef4" y="158.993811"/>
     <use style="fill:#4c72b0;fill-opacity:0.8;stroke:#4c72b0;stroke-opacity:0.8;" x="210.161298" xlink:href="#mac8d88bef4" y="195.445078"/>
     <use style="fill:#4c72b0;fill-opacity:0.8;stroke:#4c72b0;stroke-opacity:0.8;" x="233.475144" xlink:href="#mac8d88bef4" y="202.650476"/>
     <use style="fill:#4c72b0;fill-opacity:0.8;stroke:#4c72b0;stroke-opacity:0.8;" x="256.78899" xlink:href="#mac8d88bef4" y="209.021024"/>
     <use style="fill:#4c72b0;fill-opacity:0.8;stroke:#4c72b0;stroke-opacity:0.8;" x="280.102837" xlink:href="#mac8d88bef4" y="205.917951"/>
     <use style="fill:#4c72b0;fill-opacity:0.8;stroke:#4c72b0;stroke-opacity:0.8;" x="303.416683" xlink:href="#mac8d88bef4" y="225.382684"/>
     <use style="fill:#4c72b0;fill-opacity:0.8;stroke:#4c72b0;stroke-opacity:0.8;" x="326.730529" xlink:href="#mac8d88bef4" y="289.080317"/>
     <use style="fill:#4c72b0;fill-opacity:0.8;stroke:#4c72b0;stroke-opacity:0.8;" x="350.044375" xlink:href="#mac8d88bef4" y="267.979418"/>
    </g>
   </g>
   <g id="PolyCollection_1">
    <defs>
     <path d="M 46.964375 -336.077373 
L 46.964375 -253.854843 
L 50.025789 -252.194391 
L 53.087203 -250.533939 
L 56.148617 -248.873487 
L 59.210032 -247.213035 
L 62.271446 -245.552583 
L 65.33286 -243.892132 
L 68.394274 -242.23168 
L 71.455688 -240.571228 
L 74.517102 -238.910776 
L 77.578516 -237.250324 
L 80.639931 -235.589872 
L 83.701345 -233.92942 
L 86.762759 -232.305672 
L 89.824173 -230.804939 
L 92.885587 -229.304206 
L 95.947001 -227.811106 
L 99.008415 -226.253713 
L 102.06983 -224.81783 
L 105.131244 -223.322148 
L 108.192658 -221.826916 
L 111.254072 -220.331684 
L 114.315486 -218.836452 
L 117.3769 -217.335523 
L 120.438314 -215.835919 
L 123.499729 -214.344226 
L 126.561143 -212.882417 
L 129.622557 -211.39748 
L 132.683971 -209.856162 
L 135.745385 -208.356023 
L 138.806799 -206.855884 
L 141.868213 -205.355746 
L 144.929628 -203.855607 
L 147.991042 -202.355469 
L 151.052456 -200.840603 
L 154.11387 -198.841918 
L 157.175284 -196.669066 
L 160.236698 -195.184665 
L 163.298112 -193.700265 
L 166.359527 -192.037156 
L 169.420941 -190.065813 
L 172.482355 -188.424627 
L 175.543769 -186.847178 
L 178.605183 -185.336899 
L 181.666597 -183.498329 
L 184.728011 -181.318458 
L 187.789426 -179.73005 
L 190.85084 -177.876229 
L 193.912254 -175.897204 
L 196.973668 -173.752363 
L 200.035082 -171.845768 
L 203.096496 -170.578408 
L 206.15791 -169.322724 
L 209.219324 -167.518937 
L 212.280739 -165.316456 
L 215.342153 -163.680551 
L 218.403567 -161.430714 
L 221.464981 -159.164795 
L 224.526395 -156.899418 
L 227.587809 -154.780208 
L 230.649223 -152.879225 
L 233.710638 -150.860368 
L 236.772052 -148.243075 
L 239.833466 -146.224352 
L 242.89488 -143.942384 
L 245.956294 -141.326957 
L 249.017708 -138.912761 
L 252.079122 -137.49278 
L 255.140537 -134.78134 
L 258.201951 -132.071178 
L 261.263365 -129.60708 
L 264.324779 -127.416328 
L 267.386193 -124.945876 
L 270.447607 -122.619309 
L 273.509021 -120.543587 
L 276.570436 -118.274928 
L 279.63185 -115.699575 
L 282.693264 -113.188718 
L 285.754678 -110.561772 
L 288.816092 -107.935433 
L 291.877506 -105.305474 
L 294.93892 -102.689274 
L 298.000335 -100.21699 
L 301.061749 -97.425194 
L 304.123163 -95.01033 
L 307.184577 -92.375623 
L 310.245991 -90.055308 
L 313.307405 -87.437826 
L 316.368819 -84.820344 
L 319.430234 -82.202862 
L 322.491648 -79.577479 
L 325.553062 -76.840314 
L 328.614476 -74.103721 
L 331.67589 -71.361741 
L 334.737304 -68.836306 
L 337.798718 -66.426067 
L 340.860133 -63.89192 
L 343.921547 -61.272383 
L 346.982961 -58.652846 
L 350.044375 -56.03331 
L 350.044375 -103.410556 
L 350.044375 -103.410556 
L 346.982961 -104.891348 
L 343.921547 -106.59973 
L 340.860133 -108.107427 
L 337.798718 -109.651621 
L 334.737304 -111.761902 
L 331.67589 -113.809036 
L 328.614476 -115.62806 
L 325.553062 -117.335515 
L 322.491648 -119.134713 
L 319.430234 -120.643531 
L 316.368819 -122.527061 
L 313.307405 -124.60395 
L 310.245991 -126.515776 
L 307.184577 -128.585647 
L 304.123163 -130.446734 
L 301.061749 -132.507122 
L 298.000335 -134.429647 
L 294.93892 -136.485113 
L 291.877506 -138.637737 
L 288.816092 -140.560359 
L 285.754678 -142.86022 
L 282.693264 -145.04719 
L 279.63185 -147.353257 
L 276.570436 -149.415453 
L 273.509021 -151.728626 
L 270.447607 -154.093402 
L 267.386193 -156.247287 
L 264.324779 -158.471268 
L 261.263365 -160.705856 
L 258.201951 -163.087385 
L 255.140537 -165.386518 
L 252.079122 -167.787405 
L 249.017708 -170.187797 
L 245.956294 -172.58762 
L 242.89488 -174.995679 
L 239.833466 -177.387268 
L 236.772052 -179.699697 
L 233.710638 -182.004456 
L 230.649223 -184.43795 
L 227.587809 -186.710066 
L 224.526395 -188.947988 
L 221.464981 -191.364147 
L 218.403567 -193.692436 
L 215.342153 -196.131381 
L 212.280739 -198.449047 
L 209.219324 -200.766396 
L 206.15791 -203.188207 
L 203.096496 -205.630753 
L 200.035082 -208.02675 
L 196.973668 -210.35427 
L 193.912254 -212.788905 
L 190.85084 -215.294057 
L 187.789426 -217.791721 
L 184.728011 -220.291876 
L 181.666597 -222.60594 
L 178.605183 -225.061773 
L 175.543769 -227.503734 
L 172.482355 -229.845686 
L 169.420941 -232.245805 
L 166.359527 -234.667125 
L 163.298112 -237.177104 
L 160.236698 -239.648804 
L 157.175284 -242.140215 
L 154.11387 -244.631134 
L 151.052456 -247.123085 
L 147.991042 -249.688633 
L 144.929628 -252.264803 
L 141.868213 -254.823944 
L 138.806799 -257.479709 
L 135.745385 -260.092065 
L 132.683971 -262.704225 
L 129.622557 -265.314701 
L 126.561143 -267.826075 
L 123.499729 -270.330496 
L 120.438314 -272.887054 
L 117.3769 -275.618361 
L 114.315486 -278.353307 
L 111.254072 -280.988082 
L 108.192658 -283.709574 
L 105.131244 -286.325493 
L 102.06983 -288.877622 
L 99.008415 -291.445095 
L 95.947001 -294.109679 
L 92.885587 -296.622569 
L 89.824173 -299.087859 
L 86.762759 -301.815954 
L 83.701345 -304.493464 
L 80.639931 -307.104646 
L 77.578516 -309.611603 
L 74.517102 -312.327746 
L 71.455688 -314.969087 
L 68.394274 -317.641377 
L 65.33286 -320.324343 
L 62.271446 -322.986908 
L 59.210032 -325.604652 
L 56.148617 -328.221989 
L 53.087203 -330.82142 
L 50.025789 -333.453358 
L 46.964375 -336.077373 
z
" id="m6d81cb09eb" style="stroke:#ffffff;stroke-opacity:0.15;"/>
    </defs>
    <g clip-path="url(#p5e4b6e5f14)">
     <use style="fill:#4c72b0;fill-opacity:0.15;stroke:#ffffff;stroke-opacity:0.15;" x="0" xlink:href="#m6d81cb09eb" y="363.514219"/>
    </g>
   </g>
   <g id="line2d_13">
    <path clip-path="url(#p5e4b6e5f14)" d="M 46.964375 54.862578 
L 50.025789 57.16221 
L 53.087203 59.461841 
L 56.148617 61.761472 
L 59.210032 64.061104 
L 62.271446 66.360735 
L 65.33286 68.660366 
L 68.394274 70.959998 
L 71.455688 73.259629 
L 74.517102 75.55926 
L 77.578516 77.858892 
L 80.639931 80.158523 
L 83.701345 82.458154 
L 86.762759 84.757786 
L 89.824173 87.057417 
L 92.885587 89.357048 
L 95.947001 91.65668 
L 99.008415 93.956311 
L 102.06983 96.255943 
L 105.131244 98.555574 
L 108.192658 100.855205 
L 111.254072 103.154837 
L 114.315486 105.454468 
L 117.3769 107.754099 
L 120.438314 110.053731 
L 123.499729 112.353362 
L 126.561143 114.652993 
L 129.622557 116.952625 
L 132.683971 119.252256 
L 135.745385 121.551887 
L 138.806799 123.851519 
L 141.868213 126.15115 
L 144.929628 128.450781 
L 147.991042 130.750413 
L 151.052456 133.050044 
L 154.11387 135.349675 
L 157.175284 137.649307 
L 160.236698 139.948938 
L 163.298112 142.24857 
L 166.359527 144.548201 
L 169.420941 146.847832 
L 172.482355 149.147464 
L 175.543769 151.447095 
L 178.605183 153.746726 
L 181.666597 156.046358 
L 184.728011 158.345989 
L 187.789426 160.64562 
L 190.85084 162.945252 
L 193.912254 165.244883 
L 196.973668 167.544514 
L 200.035082 169.844146 
L 203.096496 172.143777 
L 206.15791 174.443408 
L 209.219324 176.74304 
L 212.280739 179.042671 
L 215.342153 181.342303 
L 218.403567 183.641934 
L 221.464981 185.941565 
L 224.526395 188.241197 
L 227.587809 190.540828 
L 230.649223 192.840459 
L 233.710638 195.140091 
L 236.772052 197.439722 
L 239.833466 199.739353 
L 242.89488 202.038985 
L 245.956294 204.338616 
L 249.017708 206.638247 
L 252.079122 208.937879 
L 255.140537 211.23751 
L 258.201951 213.537141 
L 261.263365 215.836773 
L 264.324779 218.136404 
L 267.386193 220.436035 
L 270.447607 222.735667 
L 273.509021 225.035298 
L 276.570436 227.33493 
L 279.63185 229.634561 
L 282.693264 231.934192 
L 285.754678 234.233824 
L 288.816092 236.533455 
L 291.877506 238.833086 
L 294.93892 241.132718 
L 298.000335 243.432349 
L 301.061749 245.73198 
L 304.123163 248.031612 
L 307.184577 250.331243 
L 310.245991 252.630874 
L 313.307405 254.930506 
L 316.368819 257.230137 
L 319.430234 259.529768 
L 322.491648 261.8294 
L 325.553062 264.129031 
L 328.614476 266.428662 
L 331.67589 268.728294 
L 334.737304 271.027925 
L 337.798718 273.327557 
L 340.860133 275.627188 
L 343.921547 277.926819 
L 346.982961 280.226451 
L 350.044375 282.526082 
" style="fill:none;stroke:#4c72b0;stroke-linecap:round;stroke-width:2.25;"/>
   </g>
   <g id="patch_3">
    <path d="M 46.964375 321.78 
L 46.964375 7.2 
" style="fill:none;stroke:#262626;stroke-linecap:square;stroke-linejoin:miter;stroke-width:1.25;"/>
   </g>
   <g id="patch_4">
    <path d="M 46.964375 321.78 
L 350.044375 321.78 
" style="fill:none;stroke:#262626;stroke-linecap:square;stroke-linejoin:miter;stroke-width:1.25;"/>
   </g>
  </g>
 </g>
 <defs>
  <clipPath id="p5e4b6e5f14">
   <rect height="314.58" width="303.08" x="46.964375" y="7.2"/>
  </clipPath>
 </defs>
</svg>
