<?xml version="1.0" encoding="utf-8" standalone="no"?>
<!DOCTYPE svg PUBLIC "-//W3C//DTD SVG 1.1//EN"
  "http://www.w3.org/Graphics/SVG/1.1/DTD/svg11.dtd">
<!-- Created with matplotlib (https://matplotlib.org/) -->
<svg height="363.514219pt" version="1.1" viewBox="0 0 419.882567 363.514219" width="419.882567pt" xmlns="http://www.w3.org/2000/svg" xmlns:xlink="http://www.w3.org/1999/xlink">
 <metadata>
  <rdf:RDF xmlns:cc="http://creativecommons.org/ns#" xmlns:dc="http://purl.org/dc/elements/1.1/" xmlns:rdf="http://www.w3.org/1999/02/22-rdf-syntax-ns#">
   <cc:Work>
    <dc:type rdf:resource="http://purl.org/dc/dcmitype/StillImage"/>
    <dc:date>2021-03-11T18:20:12.097969</dc:date>
    <dc:format>image/svg+xml</dc:format>
    <dc:creator>
     <cc:Agent>
      <dc:title>Matplotlib v3.3.4, https://matplotlib.org/</dc:title>
     </cc:Agent>
    </dc:creator>
   </cc:Work>
  </rdf:RDF>
 </metadata>
 <defs>
  <style type="text/css">*{stroke-linecap:butt;stroke-linejoin:round;}</style>
 </defs>
 <g id="figure_1">
  <g id="patch_1">
   <path d="M 0 363.514219 
L 419.882567 363.514219 
L 419.882567 0 
L 0 0 
z
" style="fill:#ffffff;"/>
  </g>
  <g id="axes_1">
   <g id="patch_2">
    <path d="M 46.964375 321.78 
L 359.057817 321.78 
L 359.057817 7.2 
L 46.964375 7.2 
z
" style="fill:#ffffff;"/>
   </g>
   <g id="matplotlib.axis_1">
    <g id="xtick_1">
     <g id="line2d_1">
      <defs>
       <path d="M 0 0 
L 0 6 
" id="m851f845ad2" style="stroke:#262626;stroke-width:1.25;"/>
      </defs>
      <g>
       <use style="fill:#262626;stroke:#262626;stroke-width:1.25;" x="70.971563" xlink:href="#m851f845ad2" y="321.78"/>
      </g>
     </g>
     <g id="text_1">
      <!-- 2 -->
      <g style="fill:#262626;" transform="translate(67.913047 339.153594)scale(0.11 -0.11)">
       <defs>
        <path d="M 50.34375 8.453125 
L 50.34375 0 
L 3.03125 0 
Q 2.9375 3.171875 4.046875 6.109375 
Q 5.859375 10.9375 9.828125 15.625 
Q 13.8125 20.3125 21.34375 26.46875 
Q 33.015625 36.03125 37.109375 41.625 
Q 41.21875 47.21875 41.21875 52.203125 
Q 41.21875 57.421875 37.46875 61 
Q 33.734375 64.59375 27.734375 64.59375 
Q 21.390625 64.59375 17.578125 60.78125 
Q 13.765625 56.984375 13.71875 50.25 
L 4.6875 51.171875 
Q 5.609375 61.28125 11.65625 66.578125 
Q 17.71875 71.875 27.9375 71.875 
Q 38.234375 71.875 44.234375 66.15625 
Q 50.25 60.453125 50.25 52 
Q 50.25 47.703125 48.484375 43.546875 
Q 46.734375 39.40625 42.65625 34.8125 
Q 38.578125 30.21875 29.109375 22.21875 
Q 21.1875 15.578125 18.9375 13.203125 
Q 16.703125 10.84375 15.234375 8.453125 
z
" id="ArialMT-50"/>
       </defs>
       <use xlink:href="#ArialMT-50"/>
      </g>
     </g>
    </g>
    <g id="xtick_2">
     <g id="line2d_2">
      <g>
       <use style="fill:#262626;stroke:#262626;stroke-width:1.25;" x="118.985938" xlink:href="#m851f845ad2" y="321.78"/>
      </g>
     </g>
     <g id="text_2">
      <!-- 4 -->
      <g style="fill:#262626;" transform="translate(115.927423 339.153594)scale(0.11 -0.11)">
       <defs>
        <path d="M 32.328125 0 
L 32.328125 17.140625 
L 1.265625 17.140625 
L 1.265625 25.203125 
L 33.9375 71.578125 
L 41.109375 71.578125 
L 41.109375 25.203125 
L 50.78125 25.203125 
L 50.78125 17.140625 
L 41.109375 17.140625 
L 41.109375 0 
z
M 32.328125 25.203125 
L 32.328125 57.46875 
L 9.90625 25.203125 
z
" id="ArialMT-52"/>
       </defs>
       <use xlink:href="#ArialMT-52"/>
      </g>
     </g>
    </g>
    <g id="xtick_3">
     <g id="line2d_3">
      <g>
       <use style="fill:#262626;stroke:#262626;stroke-width:1.25;" x="167.000314" xlink:href="#m851f845ad2" y="321.78"/>
      </g>
     </g>
     <g id="text_3">
      <!-- 6 -->
      <g style="fill:#262626;" transform="translate(163.941798 339.153594)scale(0.11 -0.11)">
       <defs>
        <path d="M 49.75 54.046875 
L 41.015625 53.375 
Q 39.84375 58.546875 37.703125 60.890625 
Q 34.125 64.65625 28.90625 64.65625 
Q 24.703125 64.65625 21.53125 62.3125 
Q 17.390625 59.28125 14.984375 53.46875 
Q 12.59375 47.65625 12.5 36.921875 
Q 15.671875 41.75 20.265625 44.09375 
Q 24.859375 46.4375 29.890625 46.4375 
Q 38.671875 46.4375 44.84375 39.96875 
Q 51.03125 33.5 51.03125 23.25 
Q 51.03125 16.5 48.125 10.71875 
Q 45.21875 4.9375 40.140625 1.859375 
Q 35.0625 -1.21875 28.609375 -1.21875 
Q 17.625 -1.21875 10.6875 6.859375 
Q 3.765625 14.9375 3.765625 33.5 
Q 3.765625 54.25 11.421875 63.671875 
Q 18.109375 71.875 29.4375 71.875 
Q 37.890625 71.875 43.28125 67.140625 
Q 48.6875 62.40625 49.75 54.046875 
z
M 13.875 23.1875 
Q 13.875 18.65625 15.796875 14.5 
Q 17.71875 10.359375 21.1875 8.171875 
Q 24.65625 6 28.46875 6 
Q 34.03125 6 38.03125 10.484375 
Q 42.046875 14.984375 42.046875 22.703125 
Q 42.046875 30.125 38.078125 34.390625 
Q 34.125 38.671875 28.125 38.671875 
Q 22.171875 38.671875 18.015625 34.390625 
Q 13.875 30.125 13.875 23.1875 
z
" id="ArialMT-54"/>
       </defs>
       <use xlink:href="#ArialMT-54"/>
      </g>
     </g>
    </g>
    <g id="xtick_4">
     <g id="line2d_4">
      <g>
       <use style="fill:#262626;stroke:#262626;stroke-width:1.25;" x="215.01469" xlink:href="#m851f845ad2" y="321.78"/>
      </g>
     </g>
     <g id="text_4">
      <!-- 8 -->
      <g style="fill:#262626;" transform="translate(211.956174 339.153594)scale(0.11 -0.11)">
       <defs>
        <path d="M 17.671875 38.8125 
Q 12.203125 40.828125 9.5625 44.53125 
Q 6.9375 48.25 6.9375 53.421875 
Q 6.9375 61.234375 12.546875 66.546875 
Q 18.171875 71.875 27.484375 71.875 
Q 36.859375 71.875 42.578125 66.421875 
Q 48.296875 60.984375 48.296875 53.171875 
Q 48.296875 48.1875 45.671875 44.5 
Q 43.0625 40.828125 37.75 38.8125 
Q 44.34375 36.671875 47.78125 31.875 
Q 51.21875 27.09375 51.21875 20.453125 
Q 51.21875 11.28125 44.71875 5.03125 
Q 38.234375 -1.21875 27.640625 -1.21875 
Q 17.046875 -1.21875 10.546875 5.046875 
Q 4.046875 11.328125 4.046875 20.703125 
Q 4.046875 27.6875 7.59375 32.390625 
Q 11.140625 37.109375 17.671875 38.8125 
z
M 15.921875 53.71875 
Q 15.921875 48.640625 19.1875 45.40625 
Q 22.46875 42.1875 27.6875 42.1875 
Q 32.765625 42.1875 36.015625 45.375 
Q 39.265625 48.578125 39.265625 53.21875 
Q 39.265625 58.0625 35.90625 61.359375 
Q 32.5625 64.65625 27.59375 64.65625 
Q 22.5625 64.65625 19.234375 61.421875 
Q 15.921875 58.203125 15.921875 53.71875 
z
M 13.09375 20.65625 
Q 13.09375 16.890625 14.875 13.375 
Q 16.65625 9.859375 20.171875 7.921875 
Q 23.6875 6 27.734375 6 
Q 34.03125 6 38.125 10.046875 
Q 42.234375 14.109375 42.234375 20.359375 
Q 42.234375 26.703125 38.015625 30.859375 
Q 33.796875 35.015625 27.4375 35.015625 
Q 21.234375 35.015625 17.15625 30.90625 
Q 13.09375 26.8125 13.09375 20.65625 
z
" id="ArialMT-56"/>
       </defs>
       <use xlink:href="#ArialMT-56"/>
      </g>
     </g>
    </g>
    <g id="xtick_5">
     <g id="line2d_5">
      <g>
       <use style="fill:#262626;stroke:#262626;stroke-width:1.25;" x="263.029065" xlink:href="#m851f845ad2" y="321.78"/>
      </g>
     </g>
     <g id="text_5">
      <!-- 10 -->
      <g style="fill:#262626;" transform="translate(256.912034 339.153594)scale(0.11 -0.11)">
       <defs>
        <path d="M 37.25 0 
L 28.46875 0 
L 28.46875 56 
Q 25.296875 52.984375 20.140625 49.953125 
Q 14.984375 46.921875 10.890625 45.40625 
L 10.890625 53.90625 
Q 18.265625 57.375 23.78125 62.296875 
Q 29.296875 67.234375 31.59375 71.875 
L 37.25 71.875 
z
" id="ArialMT-49"/>
        <path d="M 4.15625 35.296875 
Q 4.15625 48 6.765625 55.734375 
Q 9.375 63.484375 14.515625 67.671875 
Q 19.671875 71.875 27.484375 71.875 
Q 33.25 71.875 37.59375 69.546875 
Q 41.9375 67.234375 44.765625 62.859375 
Q 47.609375 58.5 49.21875 52.21875 
Q 50.828125 45.953125 50.828125 35.296875 
Q 50.828125 22.703125 48.234375 14.96875 
Q 45.65625 7.234375 40.5 3 
Q 35.359375 -1.21875 27.484375 -1.21875 
Q 17.140625 -1.21875 11.234375 6.203125 
Q 4.15625 15.140625 4.15625 35.296875 
z
M 13.1875 35.296875 
Q 13.1875 17.671875 17.3125 11.828125 
Q 21.4375 6 27.484375 6 
Q 33.546875 6 37.671875 11.859375 
Q 41.796875 17.71875 41.796875 35.296875 
Q 41.796875 52.984375 37.671875 58.78125 
Q 33.546875 64.59375 27.390625 64.59375 
Q 21.34375 64.59375 17.71875 59.46875 
Q 13.1875 52.9375 13.1875 35.296875 
z
" id="ArialMT-48"/>
       </defs>
       <use xlink:href="#ArialMT-49"/>
       <use x="55.615234" xlink:href="#ArialMT-48"/>
      </g>
     </g>
    </g>
    <g id="xtick_6">
     <g id="line2d_6">
      <g>
       <use style="fill:#262626;stroke:#262626;stroke-width:1.25;" x="311.043441" xlink:href="#m851f845ad2" y="321.78"/>
      </g>
     </g>
     <g id="text_6">
      <!-- 12 -->
      <g style="fill:#262626;" transform="translate(304.92641 339.153594)scale(0.11 -0.11)">
       <use xlink:href="#ArialMT-49"/>
       <use x="55.615234" xlink:href="#ArialMT-50"/>
      </g>
     </g>
    </g>
    <g id="xtick_7">
     <g id="line2d_7">
      <g>
       <use style="fill:#262626;stroke:#262626;stroke-width:1.25;" x="359.057817" xlink:href="#m851f845ad2" y="321.78"/>
      </g>
     </g>
     <g id="text_7">
      <!-- 14 -->
      <g style="fill:#262626;" transform="translate(352.940785 339.153594)scale(0.11 -0.11)">
       <use xlink:href="#ArialMT-49"/>
       <use x="55.615234" xlink:href="#ArialMT-52"/>
      </g>
     </g>
    </g>
    <g id="text_8">
     <!-- a7a -->
     <g style="fill:#262626;" transform="translate(193.001408 353.929219)scale(0.12 -0.12)">
      <defs>
       <path d="M 40.4375 6.390625 
Q 35.546875 2.25 31.03125 0.53125 
Q 26.515625 -1.171875 21.34375 -1.171875 
Q 12.796875 -1.171875 8.203125 3 
Q 3.609375 7.171875 3.609375 13.671875 
Q 3.609375 17.484375 5.34375 20.625 
Q 7.078125 23.78125 9.890625 25.6875 
Q 12.703125 27.59375 16.21875 28.5625 
Q 18.796875 29.25 24.03125 29.890625 
Q 34.671875 31.15625 39.703125 32.90625 
Q 39.75 34.71875 39.75 35.203125 
Q 39.75 40.578125 37.25 42.78125 
Q 33.890625 45.75 27.25 45.75 
Q 21.046875 45.75 18.09375 43.578125 
Q 15.140625 41.40625 13.71875 35.890625 
L 5.125 37.0625 
Q 6.296875 42.578125 8.984375 45.96875 
Q 11.671875 49.359375 16.75 51.1875 
Q 21.828125 53.03125 28.515625 53.03125 
Q 35.15625 53.03125 39.296875 51.46875 
Q 43.453125 49.90625 45.40625 47.53125 
Q 47.359375 45.171875 48.140625 41.546875 
Q 48.578125 39.3125 48.578125 33.453125 
L 48.578125 21.734375 
Q 48.578125 9.46875 49.140625 6.21875 
Q 49.703125 2.984375 51.375 0 
L 42.1875 0 
Q 40.828125 2.734375 40.4375 6.390625 
z
M 39.703125 26.03125 
Q 34.90625 24.078125 25.34375 22.703125 
Q 19.921875 21.921875 17.671875 20.9375 
Q 15.4375 19.96875 14.203125 18.09375 
Q 12.984375 16.21875 12.984375 13.921875 
Q 12.984375 10.40625 15.640625 8.0625 
Q 18.3125 5.71875 23.4375 5.71875 
Q 28.515625 5.71875 32.46875 7.9375 
Q 36.421875 10.15625 38.28125 14.015625 
Q 39.703125 17 39.703125 22.796875 
z
" id="ArialMT-97"/>
       <path d="M 4.734375 62.203125 
L 4.734375 70.65625 
L 51.078125 70.65625 
L 51.078125 63.8125 
Q 44.234375 56.546875 37.515625 44.484375 
Q 30.8125 32.421875 27.15625 19.671875 
Q 24.515625 10.6875 23.78125 0 
L 14.75 0 
Q 14.890625 8.453125 18.0625 20.40625 
Q 21.234375 32.375 27.171875 43.484375 
Q 33.109375 54.59375 39.796875 62.203125 
z
" id="ArialMT-55"/>
      </defs>
      <use xlink:href="#ArialMT-97"/>
      <use x="55.615234" xlink:href="#ArialMT-55"/>
      <use x="111.230469" xlink:href="#ArialMT-97"/>
     </g>
    </g>
   </g>
   <g id="matplotlib.axis_2">
    <g id="ytick_1">
     <g id="line2d_8">
      <defs>
       <path d="M 0 0 
L -6 0 
" id="m60f5f98f4c" style="stroke:#262626;stroke-width:1.25;"/>
      </defs>
      <g>
       <use style="fill:#262626;stroke:#262626;stroke-width:1.25;" x="46.964375" xlink:href="#m60f5f98f4c" y="307.480909"/>
      </g>
     </g>
     <g id="text_9">
      <!-- 1.0 -->
      <g style="fill:#262626;" transform="translate(22.174375 311.417706)scale(0.11 -0.11)">
       <defs>
        <path d="M 9.078125 0 
L 9.078125 10.015625 
L 19.09375 10.015625 
L 19.09375 0 
z
" id="ArialMT-46"/>
       </defs>
       <use xlink:href="#ArialMT-49"/>
       <use x="55.615234" xlink:href="#ArialMT-46"/>
       <use x="83.398438" xlink:href="#ArialMT-48"/>
      </g>
     </g>
    </g>
    <g id="ytick_2">
     <g id="line2d_9">
      <g>
       <use style="fill:#262626;stroke:#262626;stroke-width:1.25;" x="46.964375" xlink:href="#m60f5f98f4c" y="259.817273"/>
      </g>
     </g>
     <g id="text_10">
      <!-- 1.5 -->
      <g style="fill:#262626;" transform="translate(22.174375 263.75407)scale(0.11 -0.11)">
       <defs>
        <path d="M 4.15625 18.75 
L 13.375 19.53125 
Q 14.40625 12.796875 18.140625 9.390625 
Q 21.875 6 27.15625 6 
Q 33.5 6 37.890625 10.78125 
Q 42.28125 15.578125 42.28125 23.484375 
Q 42.28125 31 38.0625 35.34375 
Q 33.84375 39.703125 27 39.703125 
Q 22.75 39.703125 19.328125 37.765625 
Q 15.921875 35.84375 13.96875 32.765625 
L 5.71875 33.84375 
L 12.640625 70.609375 
L 48.25 70.609375 
L 48.25 62.203125 
L 19.671875 62.203125 
L 15.828125 42.96875 
Q 22.265625 47.46875 29.34375 47.46875 
Q 38.71875 47.46875 45.15625 40.96875 
Q 51.609375 34.46875 51.609375 24.265625 
Q 51.609375 14.546875 45.953125 7.46875 
Q 39.0625 -1.21875 27.15625 -1.21875 
Q 17.390625 -1.21875 11.203125 4.25 
Q 5.03125 9.71875 4.15625 18.75 
z
" id="ArialMT-53"/>
       </defs>
       <use xlink:href="#ArialMT-49"/>
       <use x="55.615234" xlink:href="#ArialMT-46"/>
       <use x="83.398438" xlink:href="#ArialMT-53"/>
      </g>
     </g>
    </g>
    <g id="ytick_3">
     <g id="line2d_10">
      <g>
       <use style="fill:#262626;stroke:#262626;stroke-width:1.25;" x="46.964375" xlink:href="#m60f5f98f4c" y="212.153636"/>
      </g>
     </g>
     <g id="text_11">
      <!-- 2.0 -->
      <g style="fill:#262626;" transform="translate(22.174375 216.090433)scale(0.11 -0.11)">
       <use xlink:href="#ArialMT-50"/>
       <use x="55.615234" xlink:href="#ArialMT-46"/>
       <use x="83.398438" xlink:href="#ArialMT-48"/>
      </g>
     </g>
    </g>
    <g id="ytick_4">
     <g id="line2d_11">
      <g>
       <use style="fill:#262626;stroke:#262626;stroke-width:1.25;" x="46.964375" xlink:href="#m60f5f98f4c" y="164.49"/>
      </g>
     </g>
     <g id="text_12">
      <!-- 2.5 -->
      <g style="fill:#262626;" transform="translate(22.174375 168.426797)scale(0.11 -0.11)">
       <use xlink:href="#ArialMT-50"/>
       <use x="55.615234" xlink:href="#ArialMT-46"/>
       <use x="83.398438" xlink:href="#ArialMT-53"/>
      </g>
     </g>
    </g>
    <g id="ytick_5">
     <g id="line2d_12">
      <g>
       <use style="fill:#262626;stroke:#262626;stroke-width:1.25;" x="46.964375" xlink:href="#m60f5f98f4c" y="116.826364"/>
      </g>
     </g>
     <g id="text_13">
      <!-- 3.0 -->
      <g style="fill:#262626;" transform="translate(22.174375 120.763161)scale(0.11 -0.11)">
       <defs>
        <path d="M 4.203125 18.890625 
L 12.984375 20.0625 
Q 14.5 12.59375 18.140625 9.296875 
Q 21.78125 6 27 6 
Q 33.203125 6 37.46875 10.296875 
Q 41.75 14.59375 41.75 20.953125 
Q 41.75 27 37.796875 30.921875 
Q 33.84375 34.859375 27.734375 34.859375 
Q 25.25 34.859375 21.53125 33.890625 
L 22.515625 41.609375 
Q 23.390625 41.5 23.921875 41.5 
Q 29.546875 41.5 34.03125 44.421875 
Q 38.53125 47.359375 38.53125 53.46875 
Q 38.53125 58.296875 35.25 61.46875 
Q 31.984375 64.65625 26.8125 64.65625 
Q 21.6875 64.65625 18.265625 61.421875 
Q 14.84375 58.203125 13.875 51.765625 
L 5.078125 53.328125 
Q 6.6875 62.15625 12.390625 67.015625 
Q 18.109375 71.875 26.609375 71.875 
Q 32.46875 71.875 37.390625 69.359375 
Q 42.328125 66.84375 44.9375 62.5 
Q 47.5625 58.15625 47.5625 53.265625 
Q 47.5625 48.640625 45.0625 44.828125 
Q 42.578125 41.015625 37.703125 38.765625 
Q 44.046875 37.3125 47.5625 32.6875 
Q 51.078125 28.078125 51.078125 21.140625 
Q 51.078125 11.765625 44.234375 5.25 
Q 37.40625 -1.265625 26.953125 -1.265625 
Q 17.53125 -1.265625 11.296875 4.34375 
Q 5.078125 9.96875 4.203125 18.890625 
z
" id="ArialMT-51"/>
       </defs>
       <use xlink:href="#ArialMT-51"/>
       <use x="55.615234" xlink:href="#ArialMT-46"/>
       <use x="83.398438" xlink:href="#ArialMT-48"/>
      </g>
     </g>
    </g>
    <g id="ytick_6">
     <g id="line2d_13">
      <g>
       <use style="fill:#262626;stroke:#262626;stroke-width:1.25;" x="46.964375" xlink:href="#m60f5f98f4c" y="69.162727"/>
      </g>
     </g>
     <g id="text_14">
      <!-- 3.5 -->
      <g style="fill:#262626;" transform="translate(22.174375 73.099524)scale(0.11 -0.11)">
       <use xlink:href="#ArialMT-51"/>
       <use x="55.615234" xlink:href="#ArialMT-46"/>
       <use x="83.398438" xlink:href="#ArialMT-53"/>
      </g>
     </g>
    </g>
    <g id="ytick_7">
     <g id="line2d_14">
      <g>
       <use style="fill:#262626;stroke:#262626;stroke-width:1.25;" x="46.964375" xlink:href="#m60f5f98f4c" y="21.499091"/>
      </g>
     </g>
     <g id="text_15">
      <!-- 4.0 -->
      <g style="fill:#262626;" transform="translate(22.174375 25.435888)scale(0.11 -0.11)">
       <use xlink:href="#ArialMT-52"/>
       <use x="55.615234" xlink:href="#ArialMT-46"/>
       <use x="83.398438" xlink:href="#ArialMT-48"/>
      </g>
     </g>
    </g>
    <g id="text_16">
     <!-- l14d -->
     <g style="fill:#262626;" transform="translate(15.789375 175.832812)rotate(-90)scale(0.12 -0.12)">
      <defs>
       <path d="M 6.390625 0 
L 6.390625 71.578125 
L 15.1875 71.578125 
L 15.1875 0 
z
" id="ArialMT-108"/>
       <path d="M 40.234375 0 
L 40.234375 6.546875 
Q 35.296875 -1.171875 25.734375 -1.171875 
Q 19.53125 -1.171875 14.328125 2.25 
Q 9.125 5.671875 6.265625 11.796875 
Q 3.421875 17.921875 3.421875 25.875 
Q 3.421875 33.640625 6 39.96875 
Q 8.59375 46.296875 13.765625 49.65625 
Q 18.953125 53.03125 25.34375 53.03125 
Q 30.03125 53.03125 33.6875 51.046875 
Q 37.359375 49.078125 39.65625 45.90625 
L 39.65625 71.578125 
L 48.390625 71.578125 
L 48.390625 0 
z
M 12.453125 25.875 
Q 12.453125 15.921875 16.640625 10.984375 
Q 20.84375 6.0625 26.5625 6.0625 
Q 32.328125 6.0625 36.34375 10.765625 
Q 40.375 15.484375 40.375 25.140625 
Q 40.375 35.796875 36.265625 40.765625 
Q 32.171875 45.75 26.171875 45.75 
Q 20.3125 45.75 16.375 40.96875 
Q 12.453125 36.1875 12.453125 25.875 
z
" id="ArialMT-100"/>
      </defs>
      <use xlink:href="#ArialMT-108"/>
      <use x="22.216797" xlink:href="#ArialMT-49"/>
      <use x="77.832031" xlink:href="#ArialMT-52"/>
      <use x="133.447266" xlink:href="#ArialMT-100"/>
     </g>
    </g>
   </g>
   <g id="PathCollection_1">
    <defs>
     <path d="M 0 3.535534 
C 0.937635 3.535534 1.836992 3.163008 2.5 2.5 
C 3.163008 1.836992 3.535534 0.937635 3.535534 0 
C 3.535534 -0.937635 3.163008 -1.836992 2.5 -2.5 
C 1.836992 -3.163008 0.937635 -3.535534 0 -3.535534 
C -0.937635 -3.535534 -1.836992 -3.163008 -2.5 -2.5 
C -3.163008 -1.836992 -3.535534 -0.937635 -3.535534 0 
C -3.535534 0.937635 -3.163008 1.836992 -2.5 2.5 
C -1.836992 3.163008 -0.937635 3.535534 0 3.535534 
z
" id="m205efe037b" style="stroke:#4c72b0;"/>
    </defs>
    <g clip-path="url(#pa5f00de65d)">
     <use style="fill:#4c72b0;stroke:#4c72b0;" x="46.964375" xlink:href="#m205efe037b" y="146.590997"/>
     <use style="fill:#4c72b0;stroke:#4c72b0;" x="70.971563" xlink:href="#m205efe037b" y="159.19404"/>
     <use style="fill:#4c72b0;stroke:#4c72b0;" x="94.978751" xlink:href="#m205efe037b" y="156.315498"/>
     <use style="fill:#4c72b0;stroke:#4c72b0;" x="118.985938" xlink:href="#m205efe037b" y="167.653967"/>
     <use style="fill:#4c72b0;stroke:#4c72b0;" x="142.993126" xlink:href="#m205efe037b" y="186.155289"/>
     <use style="fill:#4c72b0;stroke:#4c72b0;" x="167.000314" xlink:href="#m205efe037b" y="168.228324"/>
     <use style="fill:#4c72b0;stroke:#4c72b0;" x="191.007502" xlink:href="#m205efe037b" y="154.957273"/>
     <use style="fill:#4c72b0;stroke:#4c72b0;" x="215.01469" xlink:href="#m205efe037b" y="164.49"/>
     <use style="fill:#4c72b0;stroke:#4c72b0;" x="239.021878" xlink:href="#m205efe037b" y="190.969798"/>
     <use style="fill:#4c72b0;stroke:#4c72b0;" x="263.029065" xlink:href="#m205efe037b" y="235.985455"/>
     <use style="fill:#4c72b0;stroke:#4c72b0;" x="287.036253" xlink:href="#m205efe037b" y="212.153636"/>
     <use style="fill:#4c72b0;stroke:#4c72b0;" x="311.043441" xlink:href="#m205efe037b" y="212.153636"/>
     <use style="fill:#4c72b0;stroke:#4c72b0;" x="359.057817" xlink:href="#m205efe037b" y="212.153636"/>
    </g>
   </g>
   <g id="PolyCollection_1">
    <defs>
     <path d="M 46.964375 -223.449583 
L 46.964375 -208.24927 
L 50.116834 -207.753059 
L 53.269293 -207.214227 
L 56.421752 -206.675395 
L 59.574211 -206.122149 
L 62.72667 -205.640734 
L 65.879129 -205.151658 
L 69.031588 -204.713684 
L 72.184047 -204.109659 
L 75.336506 -203.55835 
L 78.488965 -203.073414 
L 81.641424 -202.62532 
L 84.793883 -202.02165 
L 87.946342 -201.511049 
L 91.098801 -201.083614 
L 94.25126 -200.489879 
L 97.403719 -199.816491 
L 100.556178 -199.10262 
L 103.708637 -198.30096 
L 106.861096 -197.507092 
L 110.013555 -196.807228 
L 113.166014 -196.112676 
L 116.318473 -195.311721 
L 119.470932 -194.407181 
L 122.623391 -193.599285 
L 125.77585 -192.734954 
L 128.928309 -191.864198 
L 132.080768 -190.984585 
L 135.233227 -190.035476 
L 138.385686 -189.128315 
L 141.538145 -188.317779 
L 144.690604 -187.483132 
L 147.843063 -186.602732 
L 150.995522 -185.704575 
L 154.147981 -184.752475 
L 157.30044 -183.75643 
L 160.452899 -182.745929 
L 163.605358 -181.739921 
L 166.757817 -180.736179 
L 169.910276 -179.675174 
L 173.062735 -178.587972 
L 176.215194 -177.514724 
L 179.367653 -176.54356 
L 182.520112 -175.42841 
L 185.672571 -174.364728 
L 188.82503 -173.426692 
L 191.977489 -172.548693 
L 195.129948 -171.63919 
L 198.282407 -170.731207 
L 201.434866 -169.784954 
L 204.587325 -168.716467 
L 207.739784 -167.647979 
L 210.892243 -166.579492 
L 214.044702 -165.511004 
L 217.197161 -164.442517 
L 220.34962 -163.396157 
L 223.502079 -162.407396 
L 226.654538 -161.312704 
L 229.806997 -160.181356 
L 232.959456 -159.139937 
L 236.111915 -158.200569 
L 239.264374 -157.2612 
L 242.416833 -156.225713 
L 245.569292 -155.11302 
L 248.721751 -154.000328 
L 251.87421 -152.888373 
L 255.026669 -151.778405 
L 258.179128 -150.771143 
L 261.331587 -149.805706 
L 264.484046 -148.840268 
L 267.636505 -147.87483 
L 270.788964 -146.910228 
L 273.941423 -145.94677 
L 277.093882 -144.984102 
L 280.246341 -144.021433 
L 283.398801 -143.030268 
L 286.55126 -141.985803 
L 289.703719 -140.941337 
L 292.856178 -139.896872 
L 296.008637 -138.846562 
L 299.161096 -137.718104 
L 302.313555 -136.589647 
L 305.466014 -135.461189 
L 308.618473 -134.332732 
L 311.770932 -133.204274 
L 314.923391 -132.167887 
L 318.07585 -131.161657 
L 321.228309 -130.155427 
L 324.380768 -129.0892 
L 327.533227 -127.970178 
L 330.685686 -126.851157 
L 333.838145 -125.732136 
L 336.990604 -124.613114 
L 340.143063 -123.494093 
L 343.295522 -122.375071 
L 346.447981 -121.25605 
L 349.60044 -120.137151 
L 352.752899 -119.020554 
L 355.905358 -117.903957 
L 359.057817 -116.78736 
L 359.057817 -172.372496 
L 359.057817 -172.372496 
L 355.905358 -172.78943 
L 352.752899 -173.206363 
L 349.60044 -173.623297 
L 346.447981 -174.040231 
L 343.295522 -174.457164 
L 340.143063 -174.874098 
L 336.990604 -175.291031 
L 333.838145 -175.707965 
L 330.685686 -176.124899 
L 327.533227 -176.540573 
L 324.380768 -176.960836 
L 321.228309 -177.385113 
L 318.07585 -177.80939 
L 314.923391 -178.233668 
L 311.770932 -178.65754 
L 308.618473 -179.081338 
L 305.466014 -179.452768 
L 302.313555 -179.862877 
L 299.161096 -180.264942 
L 296.008637 -180.641943 
L 292.856178 -180.938039 
L 289.703719 -181.365464 
L 286.55126 -181.750124 
L 283.398801 -182.11005 
L 280.246341 -182.469976 
L 277.093882 -182.829901 
L 273.941423 -183.269747 
L 270.788964 -183.681076 
L 267.636505 -184.059085 
L 264.484046 -184.437095 
L 261.331587 -184.766261 
L 258.179128 -185.094625 
L 255.026669 -185.422989 
L 251.87421 -185.751353 
L 248.721751 -186.079716 
L 245.569292 -186.492991 
L 242.416833 -187.000971 
L 239.264374 -187.472563 
L 236.111915 -187.855178 
L 232.959456 -188.253577 
L 229.806997 -188.751763 
L 226.654538 -189.245926 
L 223.502079 -189.613639 
L 220.34962 -190.078549 
L 217.197161 -190.467811 
L 214.044702 -190.835087 
L 210.892243 -191.202364 
L 207.739784 -191.567992 
L 204.587325 -191.929806 
L 201.434866 -192.324136 
L 198.282407 -192.657456 
L 195.129948 -193.024723 
L 191.977489 -193.39199 
L 188.82503 -193.82965 
L 185.672571 -194.244623 
L 182.520112 -194.69661 
L 179.367653 -195.211798 
L 176.215194 -195.665583 
L 173.062735 -195.987116 
L 169.910276 -196.466666 
L 166.757817 -196.844939 
L 163.605358 -197.283997 
L 160.452899 -197.696663 
L 157.30044 -198.225215 
L 154.147981 -198.699632 
L 150.995522 -199.233886 
L 147.843063 -199.713887 
L 144.690604 -200.208861 
L 141.538145 -200.697229 
L 138.385686 -201.322531 
L 135.233227 -201.922839 
L 132.080768 -202.445734 
L 128.928309 -203.050195 
L 125.77585 -203.545881 
L 122.623391 -204.102383 
L 119.470932 -204.645949 
L 116.318473 -205.256252 
L 113.166014 -205.835521 
L 110.013555 -206.441817 
L 106.861096 -207.100477 
L 103.708637 -207.887682 
L 100.556178 -208.563593 
L 97.403719 -209.243927 
L 94.25126 -209.976278 
L 91.098801 -210.702749 
L 87.946342 -211.490366 
L 84.793883 -212.338491 
L 81.641424 -213.2094 
L 78.488965 -214.124613 
L 75.336506 -215.008418 
L 72.184047 -215.888759 
L 69.031588 -216.793877 
L 65.879129 -217.707123 
L 62.72667 -218.725473 
L 59.574211 -219.634734 
L 56.421752 -220.549729 
L 53.269293 -221.47466 
L 50.116834 -222.442836 
L 46.964375 -223.449583 
z
" id="ma02d23b79d" style="stroke:#ffffff;stroke-opacity:0.15;"/>
    </defs>
    <g clip-path="url(#pa5f00de65d)">
     <use style="fill:#4c72b0;fill-opacity:0.15;stroke:#ffffff;stroke-opacity:0.15;" x="0" xlink:href="#ma02d23b79d" y="363.514219"/>
    </g>
   </g>
   <g id="PathCollection_2">
    <defs>
     <path d="M -3.535534 3.535534 
L 3.535534 -3.535534 
M -3.535534 -3.535534 
L 3.535534 3.535534 
" id="ma47f7d20d5" style="stroke:#dd8452;stroke-width:1.5;"/>
    </defs>
    <g clip-path="url(#pa5f00de65d)">
     <use style="fill:#dd8452;stroke:#dd8452;stroke-width:1.5;" x="46.964375" xlink:href="#ma47f7d20d5" y="169.213423"/>
     <use style="fill:#dd8452;stroke:#dd8452;stroke-width:1.5;" x="70.971563" xlink:href="#ma47f7d20d5" y="175.489301"/>
     <use style="fill:#dd8452;stroke:#dd8452;stroke-width:1.5;" x="94.978751" xlink:href="#ma47f7d20d5" y="181.512727"/>
     <use style="fill:#dd8452;stroke:#dd8452;stroke-width:1.5;" x="118.985938" xlink:href="#ma47f7d20d5" y="188.746544"/>
     <use style="fill:#dd8452;stroke:#dd8452;stroke-width:1.5;" x="142.993126" xlink:href="#ma47f7d20d5" y="222.294836"/>
     <use style="fill:#dd8452;stroke:#dd8452;stroke-width:1.5;" x="167.000314" xlink:href="#ma47f7d20d5" y="189.210462"/>
     <use style="fill:#dd8452;stroke:#dd8452;stroke-width:1.5;" x="191.007502" xlink:href="#ma47f7d20d5" y="201.06907"/>
     <use style="fill:#dd8452;stroke:#dd8452;stroke-width:1.5;" x="215.01469" xlink:href="#ma47f7d20d5" y="208.976061"/>
     <use style="fill:#dd8452;stroke:#dd8452;stroke-width:1.5;" x="239.021878" xlink:href="#ma47f7d20d5" y="209.468361"/>
     <use style="fill:#dd8452;stroke:#dd8452;stroke-width:1.5;" x="263.029065" xlink:href="#ma47f7d20d5" y="208.866489"/>
     <use style="fill:#dd8452;stroke:#dd8452;stroke-width:1.5;" x="287.036253" xlink:href="#ma47f7d20d5" y="209.22049"/>
     <use style="fill:#dd8452;stroke:#dd8452;stroke-width:1.5;" x="311.043441" xlink:href="#ma47f7d20d5" y="215.296294"/>
     <use style="fill:#dd8452;stroke:#dd8452;stroke-width:1.5;" x="335.050629" xlink:href="#ma47f7d20d5" y="234.396667"/>
     <use style="fill:#dd8452;stroke:#dd8452;stroke-width:1.5;" x="359.057817" xlink:href="#ma47f7d20d5" y="231.219091"/>
    </g>
   </g>
   <g id="PolyCollection_2">
    <defs>
     <path d="M 46.964375 -195.133625 
L 46.964375 -181.923479 
L 50.116834 -181.490685 
L 53.269293 -181.063824 
L 56.421752 -180.663831 
L 59.574211 -180.292753 
L 62.72667 -179.895986 
L 65.879129 -179.502224 
L 69.031588 -179.100084 
L 72.184047 -178.673107 
L 75.336506 -178.245701 
L 78.488965 -177.874731 
L 81.641424 -177.480975 
L 84.793883 -177.062987 
L 87.946342 -176.595732 
L 91.098801 -176.15771 
L 94.25126 -175.692173 
L 97.403719 -175.231114 
L 100.556178 -174.770795 
L 103.708637 -174.351235 
L 106.861096 -173.973452 
L 110.013555 -173.546933 
L 113.166014 -173.124772 
L 116.318473 -172.715293 
L 119.470932 -172.305362 
L 122.623391 -171.895156 
L 125.77585 -171.381787 
L 128.928309 -170.947354 
L 132.080768 -170.542823 
L 135.233227 -170.138292 
L 138.385686 -169.661526 
L 141.538145 -169.18663 
L 144.690604 -168.666309 
L 147.843063 -168.206963 
L 150.995522 -167.716272 
L 154.147981 -167.30561 
L 157.30044 -166.840197 
L 160.452899 -166.357693 
L 163.605358 -165.845832 
L 166.757817 -165.363121 
L 169.910276 -164.858108 
L 173.062735 -164.328957 
L 176.215194 -163.795526 
L 179.367653 -163.254217 
L 182.520112 -162.760816 
L 185.672571 -162.154888 
L 188.82503 -161.602555 
L 191.977489 -161.050272 
L 195.129948 -160.519233 
L 198.282407 -159.946132 
L 201.434866 -159.334878 
L 204.587325 -158.828285 
L 207.739784 -158.288118 
L 210.892243 -157.734924 
L 214.044702 -157.182168 
L 217.197161 -156.579674 
L 220.34962 -155.983918 
L 223.502079 -155.379371 
L 226.654538 -154.778937 
L 229.806997 -154.160276 
L 232.959456 -153.574076 
L 236.111915 -152.987877 
L 239.264374 -152.406081 
L 242.416833 -151.830411 
L 245.569292 -151.228173 
L 248.721751 -150.640593 
L 251.87421 -150.015588 
L 255.026669 -149.340114 
L 258.179128 -148.766626 
L 261.331587 -148.126695 
L 264.484046 -147.426763 
L 267.636505 -146.794804 
L 270.788964 -146.16592 
L 273.941423 -145.587683 
L 277.093882 -144.955751 
L 280.246341 -144.36556 
L 283.398801 -143.791698 
L 286.55126 -143.148277 
L 289.703719 -142.482693 
L 292.856178 -141.817109 
L 296.008637 -141.192712 
L 299.161096 -140.622931 
L 302.313555 -139.95857 
L 305.466014 -139.317492 
L 308.618473 -138.664846 
L 311.770932 -138.01259 
L 314.923391 -137.360334 
L 318.07585 -136.708078 
L 321.228309 -136.076007 
L 324.380768 -135.444841 
L 327.533227 -134.813675 
L 330.685686 -134.182509 
L 333.838145 -133.551343 
L 336.990604 -132.920177 
L 340.143063 -132.289011 
L 343.295522 -131.646493 
L 346.447981 -130.994836 
L 349.60044 -130.343179 
L 352.752899 -129.713244 
L 355.905358 -129.03674 
L 359.057817 -128.382861 
L 359.057817 -146.136579 
L 359.057817 -146.136579 
L 355.905358 -146.538823 
L 352.752899 -146.971677 
L 349.60044 -147.40453 
L 346.447981 -147.770365 
L 343.295522 -148.182296 
L 340.143063 -148.562742 
L 336.990604 -148.943009 
L 333.838145 -149.353242 
L 330.685686 -149.741817 
L 327.533227 -150.114099 
L 324.380768 -150.553888 
L 321.228309 -150.965515 
L 318.07585 -151.301475 
L 314.923391 -151.690651 
L 311.770932 -152.116094 
L 308.618473 -152.530636 
L 305.466014 -152.988526 
L 302.313555 -153.422225 
L 299.161096 -153.845787 
L 296.008637 -154.174909 
L 292.856178 -154.564556 
L 289.703719 -154.981541 
L 286.55126 -155.397874 
L 283.398801 -155.813569 
L 280.246341 -156.213981 
L 277.093882 -156.590367 
L 273.941423 -156.990791 
L 270.788964 -157.352995 
L 267.636505 -157.80567 
L 264.484046 -158.206028 
L 261.331587 -158.592412 
L 258.179128 -158.980599 
L 255.026669 -159.384088 
L 251.87421 -159.805152 
L 248.721751 -160.247997 
L 245.569292 -160.732859 
L 242.416833 -161.144183 
L 239.264374 -161.566783 
L 236.111915 -162.050101 
L 232.959456 -162.499331 
L 229.806997 -162.931878 
L 226.654538 -163.352919 
L 223.502079 -163.772707 
L 220.34962 -164.177222 
L 217.197161 -164.597908 
L 214.044702 -165.045773 
L 210.892243 -165.539589 
L 207.739784 -166.06472 
L 204.587325 -166.552493 
L 201.434866 -167.040611 
L 198.282407 -167.53179 
L 195.129948 -168.018554 
L 191.977489 -168.464888 
L 188.82503 -168.956179 
L 185.672571 -169.437993 
L 182.520112 -169.973471 
L 179.367653 -170.590933 
L 176.215194 -171.096333 
L 173.062735 -171.570933 
L 169.910276 -172.106412 
L 166.757817 -172.611789 
L 163.605358 -173.117 
L 160.452899 -173.639261 
L 157.30044 -174.22489 
L 154.147981 -174.798502 
L 150.995522 -175.373101 
L 147.843063 -175.884544 
L 144.690604 -176.388799 
L 141.538145 -176.895369 
L 138.385686 -177.406192 
L 135.233227 -177.96886 
L 132.080768 -178.527708 
L 128.928309 -179.118191 
L 125.77585 -179.697815 
L 122.623391 -180.331943 
L 119.470932 -180.959876 
L 116.318473 -181.573102 
L 113.166014 -182.129132 
L 110.013555 -182.648084 
L 106.861096 -183.267136 
L 103.708637 -183.945792 
L 100.556178 -184.628789 
L 97.403719 -185.250241 
L 94.25126 -185.889666 
L 91.098801 -186.475908 
L 87.946342 -187.107517 
L 84.793883 -187.701297 
L 81.641424 -188.315372 
L 78.488965 -188.944045 
L 75.336506 -189.600029 
L 72.184047 -190.170222 
L 69.031588 -190.767116 
L 65.879129 -191.398768 
L 62.72667 -192.008377 
L 59.574211 -192.634336 
L 56.421752 -193.260125 
L 53.269293 -193.884625 
L 50.116834 -194.509125 
L 46.964375 -195.133625 
z
" id="mb731af5f49" style="stroke:#ffffff;stroke-opacity:0.15;"/>
    </defs>
    <g clip-path="url(#pa5f00de65d)">
     <use style="fill:#dd8452;fill-opacity:0.15;stroke:#ffffff;stroke-opacity:0.15;" x="0" xlink:href="#mb731af5f49" y="363.514219"/>
    </g>
   </g>
   <g id="line2d_15">
    <path clip-path="url(#pa5f00de65d)" d="M 46.964375 157.461122 
L 46.964375 134.926479 
" style="fill:none;stroke:#4c72b0;stroke-linecap:round;stroke-width:2.625;"/>
   </g>
   <g id="line2d_16">
    <path clip-path="url(#pa5f00de65d)" d="M 70.971563 201.561717 
L 70.971563 116.826364 
" style="fill:none;stroke:#4c72b0;stroke-linecap:round;stroke-width:2.625;"/>
   </g>
   <g id="line2d_17">
    <path clip-path="url(#pa5f00de65d)" d="M 94.978751 164.112715 
L 94.978751 148.51828 
" style="fill:none;stroke:#4c72b0;stroke-linecap:round;stroke-width:2.625;"/>
   </g>
   <g id="line2d_18">
    <path clip-path="url(#pa5f00de65d)" d="M 118.985938 175.002536 
L 118.985938 159.897144 
" style="fill:none;stroke:#4c72b0;stroke-linecap:round;stroke-width:2.625;"/>
   </g>
   <g id="line2d_19">
    <path clip-path="url(#pa5f00de65d)" d="M 142.993126 238.151983 
L 142.993126 134.158595 
" style="fill:none;stroke:#4c72b0;stroke-linecap:round;stroke-width:2.625;"/>
   </g>
   <g id="line2d_20">
    <path clip-path="url(#pa5f00de65d)" d="M 167.000314 184.116203 
L 167.000314 152.340446 
" style="fill:none;stroke:#4c72b0;stroke-linecap:round;stroke-width:2.625;"/>
   </g>
   <g id="line2d_21">
    <path clip-path="url(#pa5f00de65d)" d="M 191.007502 189.275091 
L 191.007502 120.639455 
" style="fill:none;stroke:#4c72b0;stroke-linecap:round;stroke-width:2.625;"/>
   </g>
   <g id="line2d_22">
    <path clip-path="url(#pa5f00de65d)" d="M 215.01469 307.480909 
L 215.01469 21.499091 
" style="fill:none;stroke:#4c72b0;stroke-linecap:round;stroke-width:2.625;"/>
   </g>
   <g id="line2d_23">
    <path clip-path="url(#pa5f00de65d)" d="M 239.021878 233.337475 
L 239.021878 159.19404 
" style="fill:none;stroke:#4c72b0;stroke-linecap:round;stroke-width:2.625;"/>
   </g>
   <g id="line2d_24">
    <path clip-path="url(#pa5f00de65d)" d="M 263.029065 271.733182 
L 263.029065 188.321818 
" style="fill:none;stroke:#4c72b0;stroke-linecap:round;stroke-width:2.625;"/>
   </g>
   <g id="line2d_25">
    <path clip-path="url(#pa5f00de65d)" d="M 287.036253 212.153636 
L 287.036253 212.153636 
" style="fill:none;stroke:#4c72b0;stroke-linecap:round;stroke-width:2.625;"/>
   </g>
   <g id="line2d_26">
    <path clip-path="url(#pa5f00de65d)" d="M 311.043441 307.480909 
L 311.043441 92.994545 
" style="fill:none;stroke:#4c72b0;stroke-linecap:round;stroke-width:2.625;"/>
   </g>
   <g id="line2d_27">
    <path clip-path="url(#pa5f00de65d)" d="M 359.057817 212.153636 
L 359.057817 212.153636 
" style="fill:none;stroke:#4c72b0;stroke-linecap:round;stroke-width:2.625;"/>
   </g>
   <g id="line2d_28">
    <path clip-path="url(#pa5f00de65d)" d="M 46.964375 147.320483 
L 50.116834 148.046968 
L 53.269293 148.773454 
L 56.421752 149.499939 
L 59.574211 150.226424 
L 62.72667 150.952909 
L 65.879129 151.679395 
L 69.031588 152.40588 
L 72.184047 153.132365 
L 75.336506 153.85885 
L 78.488965 154.585335 
L 81.641424 155.311821 
L 84.793883 156.038306 
L 87.946342 156.764791 
L 91.098801 157.491276 
L 94.25126 158.217762 
L 97.403719 158.944247 
L 100.556178 159.670732 
L 103.708637 160.397217 
L 106.861096 161.123703 
L 110.013555 161.850188 
L 113.166014 162.576673 
L 116.318473 163.303158 
L 119.470932 164.029644 
L 122.623391 164.756129 
L 125.77585 165.482614 
L 128.928309 166.209099 
L 132.080768 166.935584 
L 135.233227 167.66207 
L 138.385686 168.388555 
L 141.538145 169.11504 
L 144.690604 169.841525 
L 147.843063 170.568011 
L 150.995522 171.294496 
L 154.147981 172.020981 
L 157.30044 172.747466 
L 160.452899 173.473952 
L 163.605358 174.200437 
L 166.757817 174.926922 
L 169.910276 175.653407 
L 173.062735 176.379893 
L 176.215194 177.106378 
L 179.367653 177.832863 
L 182.520112 178.559348 
L 185.672571 179.285834 
L 188.82503 180.012319 
L 191.977489 180.738804 
L 195.129948 181.465289 
L 198.282407 182.191774 
L 201.434866 182.91826 
L 204.587325 183.644745 
L 207.739784 184.37123 
L 210.892243 185.097715 
L 214.044702 185.824201 
L 217.197161 186.550686 
L 220.34962 187.277171 
L 223.502079 188.003656 
L 226.654538 188.730142 
L 229.806997 189.456627 
L 232.959456 190.183112 
L 236.111915 190.909597 
L 239.264374 191.636083 
L 242.416833 192.362568 
L 245.569292 193.089053 
L 248.721751 193.815538 
L 251.87421 194.542024 
L 255.026669 195.268509 
L 258.179128 195.994994 
L 261.331587 196.721479 
L 264.484046 197.447964 
L 267.636505 198.17445 
L 270.788964 198.900935 
L 273.941423 199.62742 
L 277.093882 200.353905 
L 280.246341 201.080391 
L 283.398801 201.806876 
L 286.55126 202.533361 
L 289.703719 203.259846 
L 292.856178 203.986332 
L 296.008637 204.712817 
L 299.161096 205.439302 
L 302.313555 206.165787 
L 305.466014 206.892273 
L 308.618473 207.618758 
L 311.770932 208.345243 
L 314.923391 209.071728 
L 318.07585 209.798213 
L 321.228309 210.524699 
L 324.380768 211.251184 
L 327.533227 211.977669 
L 330.685686 212.704154 
L 333.838145 213.43064 
L 336.990604 214.157125 
L 340.143063 214.88361 
L 343.295522 215.610095 
L 346.447981 216.336581 
L 349.60044 217.063066 
L 352.752899 217.789551 
L 355.905358 218.516036 
L 359.057817 219.242522 
" style="fill:none;stroke:#4c72b0;stroke-linecap:round;stroke-width:2.25;"/>
   </g>
   <g id="line2d_29">
    <path clip-path="url(#pa5f00de65d)" d="M 46.964375 184.6719 
L 46.964375 153.754947 
" style="fill:none;stroke:#dd8452;stroke-linecap:round;stroke-width:2.625;"/>
   </g>
   <g id="line2d_30">
    <path clip-path="url(#pa5f00de65d)" d="M 70.971563 226.819371 
L 70.971563 116.826364 
" style="fill:none;stroke:#dd8452;stroke-linecap:round;stroke-width:2.625;"/>
   </g>
   <g id="line2d_31">
    <path clip-path="url(#pa5f00de65d)" d="M 94.978751 190.591515 
L 94.978751 172.055657 
" style="fill:none;stroke:#dd8452;stroke-linecap:round;stroke-width:2.625;"/>
   </g>
   <g id="line2d_32">
    <path clip-path="url(#pa5f00de65d)" d="M 118.985938 195.919685 
L 118.985938 181.384635 
" style="fill:none;stroke:#dd8452;stroke-linecap:round;stroke-width:2.625;"/>
   </g>
   <g id="line2d_33">
    <path clip-path="url(#pa5f00de65d)" d="M 142.993126 242.577234 
L 142.993126 199.984197 
" style="fill:none;stroke:#dd8452;stroke-linecap:round;stroke-width:2.625;"/>
   </g>
   <g id="line2d_34">
    <path clip-path="url(#pa5f00de65d)" d="M 167.000314 197.935331 
L 167.000314 179.839307 
" style="fill:none;stroke:#dd8452;stroke-linecap:round;stroke-width:2.625;"/>
   </g>
   <g id="line2d_35">
    <path clip-path="url(#pa5f00de65d)" d="M 191.007502 213.816321 
L 191.007502 188.321818 
" style="fill:none;stroke:#dd8452;stroke-linecap:round;stroke-width:2.625;"/>
   </g>
   <g id="line2d_36">
    <path clip-path="url(#pa5f00de65d)" d="M 215.01469 237.574242 
L 215.01469 180.377879 
" style="fill:none;stroke:#dd8452;stroke-linecap:round;stroke-width:2.625;"/>
   </g>
   <g id="line2d_37">
    <path clip-path="url(#pa5f00de65d)" d="M 239.021878 220.880781 
L 239.021878 198.055941 
" style="fill:none;stroke:#dd8452;stroke-linecap:round;stroke-width:2.625;"/>
   </g>
   <g id="line2d_38">
    <path clip-path="url(#pa5f00de65d)" d="M 263.029065 222.688944 
L 263.029065 195.06047 
" style="fill:none;stroke:#dd8452;stroke-linecap:round;stroke-width:2.625;"/>
   </g>
   <g id="line2d_39">
    <path clip-path="url(#pa5f00de65d)" d="M 287.036253 226.819371 
L 287.036253 190.155035 
" style="fill:none;stroke:#dd8452;stroke-linecap:round;stroke-width:2.625;"/>
   </g>
   <g id="line2d_40">
    <path clip-path="url(#pa5f00de65d)" d="M 311.043441 225.261136 
L 311.043441 204.807675 
" style="fill:none;stroke:#dd8452;stroke-linecap:round;stroke-width:2.625;"/>
   </g>
   <g id="line2d_41">
    <path clip-path="url(#pa5f00de65d)" d="M 335.050629 256.639697 
L 335.050629 212.153636 
" style="fill:none;stroke:#dd8452;stroke-linecap:round;stroke-width:2.625;"/>
   </g>
   <g id="line2d_42">
    <path clip-path="url(#pa5f00de65d)" d="M 359.057817 269.35 
L 359.057817 212.153636 
" style="fill:none;stroke:#dd8452;stroke-linecap:round;stroke-width:2.625;"/>
   </g>
   <g id="line2d_43">
    <path clip-path="url(#pa5f00de65d)" d="M 46.964375 175.088696 
L 50.116834 175.605092 
L 53.269293 176.121489 
L 56.421752 176.637886 
L 59.574211 177.154282 
L 62.72667 177.670679 
L 65.879129 178.187076 
L 69.031588 178.703473 
L 72.184047 179.219869 
L 75.336506 179.736266 
L 78.488965 180.252663 
L 81.641424 180.769059 
L 84.793883 181.285456 
L 87.946342 181.801853 
L 91.098801 182.31825 
L 94.25126 182.834646 
L 97.403719 183.351043 
L 100.556178 183.86744 
L 103.708637 184.383836 
L 106.861096 184.900233 
L 110.013555 185.41663 
L 113.166014 185.933026 
L 116.318473 186.449423 
L 119.470932 186.96582 
L 122.623391 187.482217 
L 125.77585 187.998613 
L 128.928309 188.51501 
L 132.080768 189.031407 
L 135.233227 189.547803 
L 138.385686 190.0642 
L 141.538145 190.580597 
L 144.690604 191.096994 
L 147.843063 191.61339 
L 150.995522 192.129787 
L 154.147981 192.646184 
L 157.30044 193.16258 
L 160.452899 193.678977 
L 163.605358 194.195374 
L 166.757817 194.711771 
L 169.910276 195.228167 
L 173.062735 195.744564 
L 176.215194 196.260961 
L 179.367653 196.777357 
L 182.520112 197.293754 
L 185.672571 197.810151 
L 188.82503 198.326547 
L 191.977489 198.842944 
L 195.129948 199.359341 
L 198.282407 199.875738 
L 201.434866 200.392134 
L 204.587325 200.908531 
L 207.739784 201.424928 
L 210.892243 201.941324 
L 214.044702 202.457721 
L 217.197161 202.974118 
L 220.34962 203.490515 
L 223.502079 204.006911 
L 226.654538 204.523308 
L 229.806997 205.039705 
L 232.959456 205.556101 
L 236.111915 206.072498 
L 239.264374 206.588895 
L 242.416833 207.105292 
L 245.569292 207.621688 
L 248.721751 208.138085 
L 251.87421 208.654482 
L 255.026669 209.170878 
L 258.179128 209.687275 
L 261.331587 210.203672 
L 264.484046 210.720068 
L 267.636505 211.236465 
L 270.788964 211.752862 
L 273.941423 212.269259 
L 277.093882 212.785655 
L 280.246341 213.302052 
L 283.398801 213.818449 
L 286.55126 214.334845 
L 289.703719 214.851242 
L 292.856178 215.367639 
L 296.008637 215.884036 
L 299.161096 216.400432 
L 302.313555 216.916829 
L 305.466014 217.433226 
L 308.618473 217.949622 
L 311.770932 218.466019 
L 314.923391 218.982416 
L 318.07585 219.498813 
L 321.228309 220.015209 
L 324.380768 220.531606 
L 327.533227 221.048003 
L 330.685686 221.564399 
L 333.838145 222.080796 
L 336.990604 222.597193 
L 340.143063 223.113589 
L 343.295522 223.629986 
L 346.447981 224.146383 
L 349.60044 224.66278 
L 352.752899 225.179176 
L 355.905358 225.695573 
L 359.057817 226.21197 
" style="fill:none;stroke:#dd8452;stroke-linecap:round;stroke-width:2.25;"/>
   </g>
   <g id="patch_3">
    <path d="M 46.964375 321.78 
L 46.964375 7.2 
" style="fill:none;stroke:#262626;stroke-linecap:square;stroke-linejoin:miter;stroke-width:1.25;"/>
   </g>
   <g id="patch_4">
    <path d="M 46.964375 321.78 
L 359.057817 321.78 
" style="fill:none;stroke:#262626;stroke-linecap:square;stroke-linejoin:miter;stroke-width:1.25;"/>
   </g>
  </g>
  <g id="legend_1">
   <g id="text_17">
    <!-- a91 -->
    <g style="fill:#262626;" transform="translate(376.927879 169.299453)scale(0.12 -0.12)">
     <defs>
      <path d="M 5.46875 16.546875 
L 13.921875 17.328125 
Q 14.984375 11.375 18.015625 8.6875 
Q 21.046875 6 25.78125 6 
Q 29.828125 6 32.875 7.859375 
Q 35.9375 9.71875 37.890625 12.8125 
Q 39.84375 15.921875 41.15625 21.1875 
Q 42.484375 26.46875 42.484375 31.9375 
Q 42.484375 32.515625 42.4375 33.6875 
Q 39.796875 29.5 35.234375 26.875 
Q 30.671875 24.265625 25.34375 24.265625 
Q 16.453125 24.265625 10.296875 30.703125 
Q 4.15625 37.15625 4.15625 47.703125 
Q 4.15625 58.59375 10.578125 65.234375 
Q 17 71.875 26.65625 71.875 
Q 33.640625 71.875 39.421875 68.109375 
Q 45.21875 64.359375 48.21875 57.390625 
Q 51.21875 50.4375 51.21875 37.25 
Q 51.21875 23.53125 48.234375 15.40625 
Q 45.265625 7.28125 39.375 3.03125 
Q 33.5 -1.21875 25.59375 -1.21875 
Q 17.1875 -1.21875 11.859375 3.4375 
Q 6.546875 8.109375 5.46875 16.546875 
z
M 41.453125 48.140625 
Q 41.453125 55.71875 37.421875 60.15625 
Q 33.40625 64.59375 27.734375 64.59375 
Q 21.875 64.59375 17.53125 59.8125 
Q 13.1875 55.03125 13.1875 47.40625 
Q 13.1875 40.578125 17.3125 36.296875 
Q 21.4375 32.03125 27.484375 32.03125 
Q 33.59375 32.03125 37.515625 36.296875 
Q 41.453125 40.578125 41.453125 48.140625 
z
" id="ArialMT-57"/>
     </defs>
     <use xlink:href="#ArialMT-97"/>
     <use x="55.615234" xlink:href="#ArialMT-57"/>
     <use x="111.230469" xlink:href="#ArialMT-49"/>
    </g>
   </g>
   <g id="PathCollection_3">
    <g>
     <use style="fill:#4c72b0;stroke:#4c72b0;" x="374.892567" xlink:href="#m205efe037b" y="182.170547"/>
    </g>
   </g>
   <g id="text_18">
    <!-- 1.0 -->
    <g style="fill:#262626;" transform="translate(394.692567 185.058047)scale(0.11 -0.11)">
     <use xlink:href="#ArialMT-49"/>
     <use x="55.615234" xlink:href="#ArialMT-46"/>
     <use x="83.398438" xlink:href="#ArialMT-48"/>
    </g>
   </g>
   <g id="PathCollection_4">
    <g>
     <use style="fill:#dd8452;stroke:#dd8452;stroke-width:1.5;" x="374.892567" xlink:href="#ma47f7d20d5" y="197.730391"/>
    </g>
   </g>
   <g id="text_19">
    <!-- 2.0 -->
    <g style="fill:#262626;" transform="translate(394.692567 200.617891)scale(0.11 -0.11)">
     <use xlink:href="#ArialMT-50"/>
     <use x="55.615234" xlink:href="#ArialMT-46"/>
     <use x="83.398438" xlink:href="#ArialMT-48"/>
    </g>
   </g>
  </g>
 </g>
 <defs>
  <clipPath id="pa5f00de65d">
   <rect height="314.58" width="312.093442" x="46.964375" y="7.2"/>
  </clipPath>
 </defs>
</svg>
