<?xml version="1.0" encoding="utf-8" standalone="no"?>
<!DOCTYPE svg PUBLIC "-//W3C//DTD SVG 1.1//EN"
  "http://www.w3.org/Graphics/SVG/1.1/DTD/svg11.dtd">
<!-- Created with matplotlib (https://matplotlib.org/) -->
<svg height="363.514219pt" version="1.1" viewBox="0 0 420.026655 363.514219" width="420.026655pt" xmlns="http://www.w3.org/2000/svg" xmlns:xlink="http://www.w3.org/1999/xlink">
 <metadata>
  <rdf:RDF xmlns:cc="http://creativecommons.org/ns#" xmlns:dc="http://purl.org/dc/elements/1.1/" xmlns:rdf="http://www.w3.org/1999/02/22-rdf-syntax-ns#">
   <cc:Work>
    <dc:type rdf:resource="http://purl.org/dc/dcmitype/StillImage"/>
    <dc:date>2021-03-13T17:43:53.166408</dc:date>
    <dc:format>image/svg+xml</dc:format>
    <dc:creator>
     <cc:Agent>
      <dc:title>Matplotlib v3.3.2, https://matplotlib.org/</dc:title>
     </cc:Agent>
    </dc:creator>
   </cc:Work>
  </rdf:RDF>
 </metadata>
 <defs>
  <style type="text/css">*{stroke-linecap:butt;stroke-linejoin:round;}</style>
 </defs>
 <g id="figure_1">
  <g id="patch_1">
   <path d="M -0 363.514219 
L 420.026655 363.514219 
L 420.026655 0 
L -0 0 
z
" style="fill:#ffffff;"/>
  </g>
  <g id="axes_1">
   <g id="patch_2">
    <path d="M 46.964375 321.78 
L 359.201905 321.78 
L 359.201905 7.2 
L 46.964375 7.2 
z
" style="fill:#ffffff;"/>
   </g>
   <g id="matplotlib.axis_1">
    <g id="xtick_1">
     <g id="line2d_1">
      <defs>
       <path d="M 0 0 
L 0 6 
" id="mb92138cdd1" style="stroke:#262626;stroke-width:1.25;"/>
      </defs>
      <g>
       <use style="fill:#262626;stroke:#262626;stroke-width:1.25;" x="46.964375" xlink:href="#mb92138cdd1" y="321.78"/>
      </g>
     </g>
     <g id="text_1">
      <!-- 1.0 -->
      <g style="fill:#262626;" transform="translate(39.319375 339.153594)scale(0.11 -0.11)">
       <defs>
        <path d="M 37.25 0 
L 28.46875 0 
L 28.46875 56 
Q 25.296875 52.984375 20.140625 49.953125 
Q 14.984375 46.921875 10.890625 45.40625 
L 10.890625 53.90625 
Q 18.265625 57.375 23.78125 62.296875 
Q 29.296875 67.234375 31.59375 71.875 
L 37.25 71.875 
z
" id="ArialMT-49"/>
        <path d="M 9.078125 0 
L 9.078125 10.015625 
L 19.09375 10.015625 
L 19.09375 0 
z
" id="ArialMT-46"/>
        <path d="M 4.15625 35.296875 
Q 4.15625 48 6.765625 55.734375 
Q 9.375 63.484375 14.515625 67.671875 
Q 19.671875 71.875 27.484375 71.875 
Q 33.25 71.875 37.59375 69.546875 
Q 41.9375 67.234375 44.765625 62.859375 
Q 47.609375 58.5 49.21875 52.21875 
Q 50.828125 45.953125 50.828125 35.296875 
Q 50.828125 22.703125 48.234375 14.96875 
Q 45.65625 7.234375 40.5 3 
Q 35.359375 -1.21875 27.484375 -1.21875 
Q 17.140625 -1.21875 11.234375 6.203125 
Q 4.15625 15.140625 4.15625 35.296875 
z
M 13.1875 35.296875 
Q 13.1875 17.671875 17.3125 11.828125 
Q 21.4375 6 27.484375 6 
Q 33.546875 6 37.671875 11.859375 
Q 41.796875 17.71875 41.796875 35.296875 
Q 41.796875 52.984375 37.671875 58.78125 
Q 33.546875 64.59375 27.390625 64.59375 
Q 21.34375 64.59375 17.71875 59.46875 
Q 13.1875 52.9375 13.1875 35.296875 
z
" id="ArialMT-48"/>
       </defs>
       <use xlink:href="#ArialMT-49"/>
       <use x="55.615234" xlink:href="#ArialMT-46"/>
       <use x="83.398438" xlink:href="#ArialMT-48"/>
      </g>
     </g>
    </g>
    <g id="xtick_2">
     <g id="line2d_2">
      <g>
       <use style="fill:#262626;stroke:#262626;stroke-width:1.25;" x="85.994066" xlink:href="#mb92138cdd1" y="321.78"/>
      </g>
     </g>
     <g id="text_2">
      <!-- 1.5 -->
      <g style="fill:#262626;" transform="translate(78.349066 339.153594)scale(0.11 -0.11)">
       <defs>
        <path d="M 4.15625 18.75 
L 13.375 19.53125 
Q 14.40625 12.796875 18.140625 9.390625 
Q 21.875 6 27.15625 6 
Q 33.5 6 37.890625 10.78125 
Q 42.28125 15.578125 42.28125 23.484375 
Q 42.28125 31 38.0625 35.34375 
Q 33.84375 39.703125 27 39.703125 
Q 22.75 39.703125 19.328125 37.765625 
Q 15.921875 35.84375 13.96875 32.765625 
L 5.71875 33.84375 
L 12.640625 70.609375 
L 48.25 70.609375 
L 48.25 62.203125 
L 19.671875 62.203125 
L 15.828125 42.96875 
Q 22.265625 47.46875 29.34375 47.46875 
Q 38.71875 47.46875 45.15625 40.96875 
Q 51.609375 34.46875 51.609375 24.265625 
Q 51.609375 14.546875 45.953125 7.46875 
Q 39.0625 -1.21875 27.15625 -1.21875 
Q 17.390625 -1.21875 11.203125 4.25 
Q 5.03125 9.71875 4.15625 18.75 
z
" id="ArialMT-53"/>
       </defs>
       <use xlink:href="#ArialMT-49"/>
       <use x="55.615234" xlink:href="#ArialMT-46"/>
       <use x="83.398438" xlink:href="#ArialMT-53"/>
      </g>
     </g>
    </g>
    <g id="xtick_3">
     <g id="line2d_3">
      <g>
       <use style="fill:#262626;stroke:#262626;stroke-width:1.25;" x="125.023758" xlink:href="#mb92138cdd1" y="321.78"/>
      </g>
     </g>
     <g id="text_3">
      <!-- 2.0 -->
      <g style="fill:#262626;" transform="translate(117.378758 339.153594)scale(0.11 -0.11)">
       <defs>
        <path d="M 50.34375 8.453125 
L 50.34375 0 
L 3.03125 0 
Q 2.9375 3.171875 4.046875 6.109375 
Q 5.859375 10.9375 9.828125 15.625 
Q 13.8125 20.3125 21.34375 26.46875 
Q 33.015625 36.03125 37.109375 41.625 
Q 41.21875 47.21875 41.21875 52.203125 
Q 41.21875 57.421875 37.46875 61 
Q 33.734375 64.59375 27.734375 64.59375 
Q 21.390625 64.59375 17.578125 60.78125 
Q 13.765625 56.984375 13.71875 50.25 
L 4.6875 51.171875 
Q 5.609375 61.28125 11.65625 66.578125 
Q 17.71875 71.875 27.9375 71.875 
Q 38.234375 71.875 44.234375 66.15625 
Q 50.25 60.453125 50.25 52 
Q 50.25 47.703125 48.484375 43.546875 
Q 46.734375 39.40625 42.65625 34.8125 
Q 38.578125 30.21875 29.109375 22.21875 
Q 21.1875 15.578125 18.9375 13.203125 
Q 16.703125 10.84375 15.234375 8.453125 
z
" id="ArialMT-50"/>
       </defs>
       <use xlink:href="#ArialMT-50"/>
       <use x="55.615234" xlink:href="#ArialMT-46"/>
       <use x="83.398438" xlink:href="#ArialMT-48"/>
      </g>
     </g>
    </g>
    <g id="xtick_4">
     <g id="line2d_4">
      <g>
       <use style="fill:#262626;stroke:#262626;stroke-width:1.25;" x="164.053449" xlink:href="#mb92138cdd1" y="321.78"/>
      </g>
     </g>
     <g id="text_4">
      <!-- 2.5 -->
      <g style="fill:#262626;" transform="translate(156.408449 339.153594)scale(0.11 -0.11)">
       <use xlink:href="#ArialMT-50"/>
       <use x="55.615234" xlink:href="#ArialMT-46"/>
       <use x="83.398438" xlink:href="#ArialMT-53"/>
      </g>
     </g>
    </g>
    <g id="xtick_5">
     <g id="line2d_5">
      <g>
       <use style="fill:#262626;stroke:#262626;stroke-width:1.25;" x="203.08314" xlink:href="#mb92138cdd1" y="321.78"/>
      </g>
     </g>
     <g id="text_5">
      <!-- 3.0 -->
      <g style="fill:#262626;" transform="translate(195.43814 339.153594)scale(0.11 -0.11)">
       <defs>
        <path d="M 4.203125 18.890625 
L 12.984375 20.0625 
Q 14.5 12.59375 18.140625 9.296875 
Q 21.78125 6 27 6 
Q 33.203125 6 37.46875 10.296875 
Q 41.75 14.59375 41.75 20.953125 
Q 41.75 27 37.796875 30.921875 
Q 33.84375 34.859375 27.734375 34.859375 
Q 25.25 34.859375 21.53125 33.890625 
L 22.515625 41.609375 
Q 23.390625 41.5 23.921875 41.5 
Q 29.546875 41.5 34.03125 44.421875 
Q 38.53125 47.359375 38.53125 53.46875 
Q 38.53125 58.296875 35.25 61.46875 
Q 31.984375 64.65625 26.8125 64.65625 
Q 21.6875 64.65625 18.265625 61.421875 
Q 14.84375 58.203125 13.875 51.765625 
L 5.078125 53.328125 
Q 6.6875 62.15625 12.390625 67.015625 
Q 18.109375 71.875 26.609375 71.875 
Q 32.46875 71.875 37.390625 69.359375 
Q 42.328125 66.84375 44.9375 62.5 
Q 47.5625 58.15625 47.5625 53.265625 
Q 47.5625 48.640625 45.0625 44.828125 
Q 42.578125 41.015625 37.703125 38.765625 
Q 44.046875 37.3125 47.5625 32.6875 
Q 51.078125 28.078125 51.078125 21.140625 
Q 51.078125 11.765625 44.234375 5.25 
Q 37.40625 -1.265625 26.953125 -1.265625 
Q 17.53125 -1.265625 11.296875 4.34375 
Q 5.078125 9.96875 4.203125 18.890625 
z
" id="ArialMT-51"/>
       </defs>
       <use xlink:href="#ArialMT-51"/>
       <use x="55.615234" xlink:href="#ArialMT-46"/>
       <use x="83.398438" xlink:href="#ArialMT-48"/>
      </g>
     </g>
    </g>
    <g id="xtick_6">
     <g id="line2d_6">
      <g>
       <use style="fill:#262626;stroke:#262626;stroke-width:1.25;" x="242.112831" xlink:href="#mb92138cdd1" y="321.78"/>
      </g>
     </g>
     <g id="text_6">
      <!-- 3.5 -->
      <g style="fill:#262626;" transform="translate(234.467831 339.153594)scale(0.11 -0.11)">
       <use xlink:href="#ArialMT-51"/>
       <use x="55.615234" xlink:href="#ArialMT-46"/>
       <use x="83.398438" xlink:href="#ArialMT-53"/>
      </g>
     </g>
    </g>
    <g id="xtick_7">
     <g id="line2d_7">
      <g>
       <use style="fill:#262626;stroke:#262626;stroke-width:1.25;" x="281.142523" xlink:href="#mb92138cdd1" y="321.78"/>
      </g>
     </g>
     <g id="text_7">
      <!-- 4.0 -->
      <g style="fill:#262626;" transform="translate(273.497523 339.153594)scale(0.11 -0.11)">
       <defs>
        <path d="M 32.328125 0 
L 32.328125 17.140625 
L 1.265625 17.140625 
L 1.265625 25.203125 
L 33.9375 71.578125 
L 41.109375 71.578125 
L 41.109375 25.203125 
L 50.78125 25.203125 
L 50.78125 17.140625 
L 41.109375 17.140625 
L 41.109375 0 
z
M 32.328125 25.203125 
L 32.328125 57.46875 
L 9.90625 25.203125 
z
" id="ArialMT-52"/>
       </defs>
       <use xlink:href="#ArialMT-52"/>
       <use x="55.615234" xlink:href="#ArialMT-46"/>
       <use x="83.398438" xlink:href="#ArialMT-48"/>
      </g>
     </g>
    </g>
    <g id="xtick_8">
     <g id="line2d_8">
      <g>
       <use style="fill:#262626;stroke:#262626;stroke-width:1.25;" x="320.172214" xlink:href="#mb92138cdd1" y="321.78"/>
      </g>
     </g>
     <g id="text_8">
      <!-- 4.5 -->
      <g style="fill:#262626;" transform="translate(312.527214 339.153594)scale(0.11 -0.11)">
       <use xlink:href="#ArialMT-52"/>
       <use x="55.615234" xlink:href="#ArialMT-46"/>
       <use x="83.398438" xlink:href="#ArialMT-53"/>
      </g>
     </g>
    </g>
    <g id="xtick_9">
     <g id="line2d_9">
      <g>
       <use style="fill:#262626;stroke:#262626;stroke-width:1.25;" x="359.201905" xlink:href="#mb92138cdd1" y="321.78"/>
      </g>
     </g>
     <g id="text_9">
      <!-- 5.0 -->
      <g style="fill:#262626;" transform="translate(351.556905 339.153594)scale(0.11 -0.11)">
       <use xlink:href="#ArialMT-53"/>
       <use x="55.615234" xlink:href="#ArialMT-46"/>
       <use x="83.398438" xlink:href="#ArialMT-48"/>
      </g>
     </g>
    </g>
    <g id="text_10">
     <!-- l6a -->
     <g style="fill:#262626;" transform="translate(195.07689 353.929219)scale(0.12 -0.12)">
      <defs>
       <path d="M 6.390625 0 
L 6.390625 71.578125 
L 15.1875 71.578125 
L 15.1875 0 
z
" id="ArialMT-108"/>
       <path d="M 49.75 54.046875 
L 41.015625 53.375 
Q 39.84375 58.546875 37.703125 60.890625 
Q 34.125 64.65625 28.90625 64.65625 
Q 24.703125 64.65625 21.53125 62.3125 
Q 17.390625 59.28125 14.984375 53.46875 
Q 12.59375 47.65625 12.5 36.921875 
Q 15.671875 41.75 20.265625 44.09375 
Q 24.859375 46.4375 29.890625 46.4375 
Q 38.671875 46.4375 44.84375 39.96875 
Q 51.03125 33.5 51.03125 23.25 
Q 51.03125 16.5 48.125 10.71875 
Q 45.21875 4.9375 40.140625 1.859375 
Q 35.0625 -1.21875 28.609375 -1.21875 
Q 17.625 -1.21875 10.6875 6.859375 
Q 3.765625 14.9375 3.765625 33.5 
Q 3.765625 54.25 11.421875 63.671875 
Q 18.109375 71.875 29.4375 71.875 
Q 37.890625 71.875 43.28125 67.140625 
Q 48.6875 62.40625 49.75 54.046875 
z
M 13.875 23.1875 
Q 13.875 18.65625 15.796875 14.5 
Q 17.71875 10.359375 21.1875 8.171875 
Q 24.65625 6 28.46875 6 
Q 34.03125 6 38.03125 10.484375 
Q 42.046875 14.984375 42.046875 22.703125 
Q 42.046875 30.125 38.078125 34.390625 
Q 34.125 38.671875 28.125 38.671875 
Q 22.171875 38.671875 18.015625 34.390625 
Q 13.875 30.125 13.875 23.1875 
z
" id="ArialMT-54"/>
       <path d="M 40.4375 6.390625 
Q 35.546875 2.25 31.03125 0.53125 
Q 26.515625 -1.171875 21.34375 -1.171875 
Q 12.796875 -1.171875 8.203125 3 
Q 3.609375 7.171875 3.609375 13.671875 
Q 3.609375 17.484375 5.34375 20.625 
Q 7.078125 23.78125 9.890625 25.6875 
Q 12.703125 27.59375 16.21875 28.5625 
Q 18.796875 29.25 24.03125 29.890625 
Q 34.671875 31.15625 39.703125 32.90625 
Q 39.75 34.71875 39.75 35.203125 
Q 39.75 40.578125 37.25 42.78125 
Q 33.890625 45.75 27.25 45.75 
Q 21.046875 45.75 18.09375 43.578125 
Q 15.140625 41.40625 13.71875 35.890625 
L 5.125 37.0625 
Q 6.296875 42.578125 8.984375 45.96875 
Q 11.671875 49.359375 16.75 51.1875 
Q 21.828125 53.03125 28.515625 53.03125 
Q 35.15625 53.03125 39.296875 51.46875 
Q 43.453125 49.90625 45.40625 47.53125 
Q 47.359375 45.171875 48.140625 41.546875 
Q 48.578125 39.3125 48.578125 33.453125 
L 48.578125 21.734375 
Q 48.578125 9.46875 49.140625 6.21875 
Q 49.703125 2.984375 51.375 0 
L 42.1875 0 
Q 40.828125 2.734375 40.4375 6.390625 
z
M 39.703125 26.03125 
Q 34.90625 24.078125 25.34375 22.703125 
Q 19.921875 21.921875 17.671875 20.9375 
Q 15.4375 19.96875 14.203125 18.09375 
Q 12.984375 16.21875 12.984375 13.921875 
Q 12.984375 10.40625 15.640625 8.0625 
Q 18.3125 5.71875 23.4375 5.71875 
Q 28.515625 5.71875 32.46875 7.9375 
Q 36.421875 10.15625 38.28125 14.015625 
Q 39.703125 17 39.703125 22.796875 
z
" id="ArialMT-97"/>
      </defs>
      <use xlink:href="#ArialMT-108"/>
      <use x="22.216797" xlink:href="#ArialMT-54"/>
      <use x="77.832031" xlink:href="#ArialMT-97"/>
     </g>
    </g>
   </g>
   <g id="matplotlib.axis_2">
    <g id="ytick_1">
     <g id="line2d_10">
      <defs>
       <path d="M 0 0 
L -6 0 
" id="m9af09bb62a" style="stroke:#262626;stroke-width:1.25;"/>
      </defs>
      <g>
       <use style="fill:#262626;stroke:#262626;stroke-width:1.25;" x="46.964375" xlink:href="#m9af09bb62a" y="313.378793"/>
      </g>
     </g>
     <g id="text_11">
      <!-- 1.5 -->
      <g style="fill:#262626;" transform="translate(22.174375 317.315589)scale(0.11 -0.11)">
       <use xlink:href="#ArialMT-49"/>
       <use x="55.615234" xlink:href="#ArialMT-46"/>
       <use x="83.398438" xlink:href="#ArialMT-53"/>
      </g>
     </g>
    </g>
    <g id="ytick_2">
     <g id="line2d_11">
      <g>
       <use style="fill:#262626;stroke:#262626;stroke-width:1.25;" x="46.964375" xlink:href="#m9af09bb62a" y="247.153986"/>
      </g>
     </g>
     <g id="text_12">
      <!-- 2.0 -->
      <g style="fill:#262626;" transform="translate(22.174375 251.090783)scale(0.11 -0.11)">
       <use xlink:href="#ArialMT-50"/>
       <use x="55.615234" xlink:href="#ArialMT-46"/>
       <use x="83.398438" xlink:href="#ArialMT-48"/>
      </g>
     </g>
    </g>
    <g id="ytick_3">
     <g id="line2d_12">
      <g>
       <use style="fill:#262626;stroke:#262626;stroke-width:1.25;" x="46.964375" xlink:href="#m9af09bb62a" y="180.92918"/>
      </g>
     </g>
     <g id="text_13">
      <!-- 2.5 -->
      <g style="fill:#262626;" transform="translate(22.174375 184.865977)scale(0.11 -0.11)">
       <use xlink:href="#ArialMT-50"/>
       <use x="55.615234" xlink:href="#ArialMT-46"/>
       <use x="83.398438" xlink:href="#ArialMT-53"/>
      </g>
     </g>
    </g>
    <g id="ytick_4">
     <g id="line2d_13">
      <g>
       <use style="fill:#262626;stroke:#262626;stroke-width:1.25;" x="46.964375" xlink:href="#m9af09bb62a" y="114.704374"/>
      </g>
     </g>
     <g id="text_14">
      <!-- 3.0 -->
      <g style="fill:#262626;" transform="translate(22.174375 118.641171)scale(0.11 -0.11)">
       <use xlink:href="#ArialMT-51"/>
       <use x="55.615234" xlink:href="#ArialMT-46"/>
       <use x="83.398438" xlink:href="#ArialMT-48"/>
      </g>
     </g>
    </g>
    <g id="ytick_5">
     <g id="line2d_14">
      <g>
       <use style="fill:#262626;stroke:#262626;stroke-width:1.25;" x="46.964375" xlink:href="#m9af09bb62a" y="48.479568"/>
      </g>
     </g>
     <g id="text_15">
      <!-- 3.5 -->
      <g style="fill:#262626;" transform="translate(22.174375 52.416364)scale(0.11 -0.11)">
       <use xlink:href="#ArialMT-51"/>
       <use x="55.615234" xlink:href="#ArialMT-46"/>
       <use x="83.398438" xlink:href="#ArialMT-53"/>
      </g>
     </g>
    </g>
    <g id="text_16">
     <!-- l6b -->
     <g style="fill:#262626;" transform="translate(15.789375 172.49625)rotate(-90)scale(0.12 -0.12)">
      <defs>
       <path d="M 14.703125 0 
L 6.546875 0 
L 6.546875 71.578125 
L 15.328125 71.578125 
L 15.328125 46.046875 
Q 20.90625 53.03125 29.546875 53.03125 
Q 34.328125 53.03125 38.59375 51.09375 
Q 42.875 49.171875 45.625 45.671875 
Q 48.390625 42.1875 49.953125 37.25 
Q 51.515625 32.328125 51.515625 26.703125 
Q 51.515625 13.375 44.921875 6.09375 
Q 38.328125 -1.171875 29.109375 -1.171875 
Q 19.921875 -1.171875 14.703125 6.5 
z
M 14.59375 26.3125 
Q 14.59375 17 17.140625 12.84375 
Q 21.296875 6.0625 28.375 6.0625 
Q 34.125 6.0625 38.328125 11.0625 
Q 42.53125 16.0625 42.53125 25.984375 
Q 42.53125 36.140625 38.5 40.96875 
Q 34.46875 45.796875 28.765625 45.796875 
Q 23 45.796875 18.796875 40.796875 
Q 14.59375 35.796875 14.59375 26.3125 
z
" id="ArialMT-98"/>
      </defs>
      <use xlink:href="#ArialMT-108"/>
      <use x="22.216797" xlink:href="#ArialMT-54"/>
      <use x="77.832031" xlink:href="#ArialMT-98"/>
     </g>
    </g>
   </g>
   <g id="PathCollection_1">
    <defs>
     <path d="M 0 3.535534 
C 0.937635 3.535534 1.836992 3.163008 2.5 2.5 
C 3.163008 1.836992 3.535534 0.937635 3.535534 0 
C 3.535534 -0.937635 3.163008 -1.836992 2.5 -2.5 
C 1.836992 -3.163008 0.937635 -3.535534 0 -3.535534 
C -0.937635 -3.535534 -1.836992 -3.163008 -2.5 -2.5 
C -3.163008 -1.836992 -3.535534 -0.937635 -3.535534 0 
C -3.535534 0.937635 -3.163008 1.836992 -2.5 2.5 
C -1.836992 3.163008 -0.937635 3.535534 0 3.535534 
z
" id="meccf102d16" style="stroke:#4c72b0;"/>
    </defs>
    <g clip-path="url(#p15de700040)">
     <use style="fill:#4c72b0;stroke:#4c72b0;" x="46.964375" xlink:href="#meccf102d16" y="109.18564"/>
     <use style="fill:#4c72b0;stroke:#4c72b0;" x="125.023758" xlink:href="#meccf102d16" y="157.219064"/>
     <use style="fill:#4c72b0;stroke:#4c72b0;" x="203.08314" xlink:href="#meccf102d16" y="173.570868"/>
     <use style="fill:#4c72b0;stroke:#4c72b0;" x="281.142523" xlink:href="#meccf102d16" y="211.652028"/>
     <use style="fill:#4c72b0;stroke:#4c72b0;" x="359.201905" xlink:href="#meccf102d16" y="256.94374"/>
    </g>
   </g>
   <g id="PolyCollection_1">
    <defs>
     <path d="M 46.964375 -274.225936 
L 46.964375 -231.474969 
L 50.118289 -230.29634 
L 53.272204 -229.119851 
L 56.426118 -227.944091 
L 59.580033 -226.768331 
L 62.733947 -225.628732 
L 65.887862 -224.45583 
L 69.041776 -223.415632 
L 72.195691 -222.338426 
L 75.349605 -221.158468 
L 78.503519 -220.09663 
L 81.657434 -218.964646 
L 84.811348 -217.813215 
L 87.965263 -216.665669 
L 91.119177 -215.658181 
L 94.273092 -214.723824 
L 97.427006 -213.55625 
L 100.580921 -212.388676 
L 103.734835 -211.221103 
L 106.888749 -210.053529 
L 110.042664 -208.885955 
L 113.196578 -207.718382 
L 116.350493 -206.551814 
L 119.504407 -205.385734 
L 122.658322 -204.219655 
L 125.812236 -203.07977 
L 128.966151 -202.04044 
L 132.120065 -201.010617 
L 135.27398 -199.82928 
L 138.427894 -198.715417 
L 141.581808 -197.622279 
L 144.735723 -196.534359 
L 147.889637 -195.601024 
L 151.043552 -194.483978 
L 154.197466 -193.337135 
L 157.351381 -192.190292 
L 160.505295 -191.058792 
L 163.65921 -189.988248 
L 166.813124 -188.850923 
L 169.967038 -187.66286 
L 173.120953 -186.474797 
L 176.274867 -185.300709 
L 179.428782 -184.15141 
L 182.582696 -183.004472 
L 185.736611 -181.869204 
L 188.890525 -180.646757 
L 192.04444 -179.393316 
L 195.198354 -178.151586 
L 198.352268 -176.960881 
L 201.506183 -175.770176 
L 204.660097 -174.583119 
L 207.814012 -173.464671 
L 210.967926 -172.249405 
L 214.121841 -170.972878 
L 217.275755 -169.729166 
L 220.42967 -168.459578 
L 223.583584 -167.18999 
L 226.737498 -165.862595 
L 229.891413 -164.507405 
L 233.045327 -163.192423 
L 236.199242 -161.951002 
L 239.353156 -160.680712 
L 242.507071 -159.330768 
L 245.660985 -158.02755 
L 248.8149 -156.632607 
L 251.968814 -155.255448 
L 255.122728 -153.857113 
L 258.276643 -152.462264 
L 261.430557 -151.073861 
L 264.584472 -149.65045 
L 267.738386 -148.298291 
L 270.892301 -146.857902 
L 274.046215 -145.274931 
L 277.20013 -143.775741 
L 280.354044 -142.23874 
L 283.507958 -140.75704 
L 286.661873 -139.311923 
L 289.815787 -137.868441 
L 292.969702 -136.3527 
L 296.123616 -134.81168 
L 299.277531 -133.288346 
L 302.431445 -131.78357 
L 305.58536 -130.221303 
L 308.739274 -128.68667 
L 311.893189 -127.150087 
L 315.047103 -125.45802 
L 318.201017 -123.861046 
L 321.354932 -122.197375 
L 324.508846 -120.482645 
L 327.662761 -118.873047 
L 330.816675 -117.275184 
L 333.97059 -115.678389 
L 337.124504 -114.084611 
L 340.278419 -112.444149 
L 343.432333 -110.749678 
L 346.586247 -109.068988 
L 349.740162 -107.478882 
L 352.894076 -105.894851 
L 356.047991 -104.277281 
L 359.201905 -102.555953 
L 359.201905 -126.869067 
L 359.201905 -126.869067 
L 356.047991 -127.945139 
L 352.894076 -129.054107 
L 349.740162 -130.220304 
L 346.586247 -131.331395 
L 343.432333 -132.390631 
L 340.278419 -133.587257 
L 337.124504 -134.783099 
L 333.97059 -135.896105 
L 330.816675 -137.002319 
L 327.662761 -138.170916 
L 324.508846 -139.211802 
L 321.354932 -140.314393 
L 318.201017 -141.470164 
L 315.047103 -142.683357 
L 311.893189 -143.993341 
L 308.739274 -145.358295 
L 305.58536 -146.57191 
L 302.431445 -147.742517 
L 299.277531 -148.908466 
L 296.123616 -150.102577 
L 292.969702 -151.255264 
L 289.815787 -152.579627 
L 286.661873 -153.816673 
L 283.507958 -155.056008 
L 280.354044 -156.436323 
L 277.20013 -157.595477 
L 274.046215 -158.891601 
L 270.892301 -160.067002 
L 267.738386 -161.456327 
L 264.584472 -162.953079 
L 261.430557 -164.3186 
L 258.276643 -165.635247 
L 255.122728 -167.077036 
L 251.968814 -168.431035 
L 248.8149 -169.877055 
L 245.660985 -171.279976 
L 242.507071 -172.643562 
L 239.353156 -174.08229 
L 236.199242 -175.653336 
L 233.045327 -177.14756 
L 229.891413 -178.671073 
L 226.737498 -180.266331 
L 223.583584 -181.823351 
L 220.42967 -183.378606 
L 217.275755 -185.016093 
L 214.121841 -186.652709 
L 210.967926 -188.286889 
L 207.814012 -189.866638 
L 204.660097 -191.445909 
L 201.506183 -192.944952 
L 198.352268 -194.6046 
L 195.198354 -196.138281 
L 192.04444 -197.749889 
L 188.890525 -199.341542 
L 185.736611 -200.922798 
L 182.582696 -202.506311 
L 179.428782 -204.212656 
L 176.274867 -205.905535 
L 173.120953 -207.504171 
L 169.967038 -209.102806 
L 166.813124 -210.701442 
L 163.65921 -212.300078 
L 160.505295 -213.898713 
L 157.351381 -215.497349 
L 154.197466 -217.095985 
L 151.043552 -218.69462 
L 147.889637 -220.293256 
L 144.735723 -221.909322 
L 141.581808 -223.589437 
L 138.427894 -225.269552 
L 135.27398 -226.881772 
L 132.120065 -228.443914 
L 128.966151 -230.179935 
L 125.812236 -231.918327 
L 122.658322 -233.688144 
L 119.504407 -235.380808 
L 116.350493 -236.998766 
L 113.196578 -238.663439 
L 110.042664 -240.399191 
L 106.888749 -242.041538 
L 103.734835 -243.744527 
L 100.580921 -245.447517 
L 97.427006 -247.142744 
L 94.273092 -248.834067 
L 91.119177 -250.471642 
L 87.965263 -252.108147 
L 84.811348 -253.825799 
L 81.657434 -255.578446 
L 78.503519 -257.267918 
L 75.349605 -258.954834 
L 72.195691 -260.695077 
L 69.041776 -262.43532 
L 65.887862 -264.175562 
L 62.733947 -265.866822 
L 59.580033 -267.528122 
L 56.426118 -269.189421 
L 53.272204 -270.85072 
L 50.118289 -272.51202 
L 46.964375 -274.225936 
z
" id="m3f0ae96edf" style="stroke:#ffffff;stroke-opacity:0.15;"/>
    </defs>
    <g clip-path="url(#p15de700040)">
     <use style="fill:#4c72b0;fill-opacity:0.15;stroke:#ffffff;stroke-opacity:0.15;" x="0" xlink:href="#m3f0ae96edf" y="363.514219"/>
    </g>
   </g>
   <g id="PathCollection_2">
    <defs>
     <path d="M 0 3.535534 
C 0.937635 3.535534 1.836992 3.163008 2.5 2.5 
C 3.163008 1.836992 3.535534 0.937635 3.535534 0 
C 3.535534 -0.937635 3.163008 -1.836992 2.5 -2.5 
C 1.836992 -3.163008 0.937635 -3.535534 0 -3.535534 
C -0.937635 -3.535534 -1.836992 -3.163008 -2.5 -2.5 
C -3.163008 -1.836992 -3.535534 -0.937635 -3.535534 0 
C -3.535534 0.937635 -3.163008 1.836992 -2.5 2.5 
C -1.836992 3.163008 -0.937635 3.535534 0 3.535534 
z
" id="m00713c976b" style="stroke:#dd8452;"/>
    </defs>
    <g clip-path="url(#p15de700040)">
     <use style="fill:#dd8452;stroke:#dd8452;" x="46.964375" xlink:href="#m00713c976b" y="90.176668"/>
     <use style="fill:#dd8452;stroke:#dd8452;" x="125.023758" xlink:href="#m00713c976b" y="222.795437"/>
     <use style="fill:#dd8452;stroke:#dd8452;" x="203.08314" xlink:href="#m00713c976b" y="208.932812"/>
     <use style="fill:#dd8452;stroke:#dd8452;" x="281.142523" xlink:href="#m00713c976b" y="242.091468"/>
     <use style="fill:#dd8452;stroke:#dd8452;" x="359.201905" xlink:href="#m00713c976b" y="297.707274"/>
    </g>
   </g>
   <g id="PolyCollection_2">
    <defs>
     <path d="M 46.964375 -229.953407 
L 46.964375 -194.672643 
L 50.118289 -193.59661 
L 53.272204 -192.520577 
L 56.426118 -191.444544 
L 59.580033 -190.368511 
L 62.733947 -189.294276 
L 65.887862 -188.198224 
L 69.041776 -187.055959 
L 72.195691 -185.905442 
L 75.349605 -184.754925 
L 78.503519 -183.676042 
L 81.657434 -182.544492 
L 84.811348 -181.46546 
L 87.965263 -180.404479 
L 91.119177 -179.298462 
L 94.273092 -178.213054 
L 97.427006 -177.134804 
L 100.580921 -176.057535 
L 103.734835 -174.980544 
L 106.888749 -173.903552 
L 110.042664 -172.82656 
L 113.196578 -171.749569 
L 116.350493 -170.683155 
L 119.504407 -169.598326 
L 122.658322 -168.507883 
L 125.812236 -167.39456 
L 128.966151 -166.360323 
L 132.120065 -165.255337 
L 135.27398 -164.125396 
L 138.427894 -162.995454 
L 141.581808 -161.865513 
L 144.735723 -160.735571 
L 147.889637 -159.606504 
L 151.043552 -158.455739 
L 154.197466 -157.265638 
L 157.351381 -156.140265 
L 160.505295 -155.031362 
L 163.65921 -153.955921 
L 166.813124 -152.82598 
L 169.967038 -151.696038 
L 173.120953 -150.566097 
L 176.274867 -149.436155 
L 179.428782 -148.306214 
L 182.582696 -147.161311 
L 185.736611 -145.960275 
L 188.890525 -144.786966 
L 192.04444 -143.655325 
L 195.198354 -142.514346 
L 198.352268 -141.35336 
L 201.506183 -140.246541 
L 204.660097 -139.142396 
L 207.814012 -137.937681 
L 210.967926 -136.825673 
L 214.121841 -135.720646 
L 217.275755 -134.528328 
L 220.42967 -133.321054 
L 223.583584 -132.112769 
L 226.737498 -130.909225 
L 229.891413 -129.70083 
L 233.045327 -128.467942 
L 236.199242 -127.284733 
L 239.353156 -126.066471 
L 242.507071 -124.871916 
L 245.660985 -123.636679 
L 248.8149 -122.486931 
L 251.968814 -121.251951 
L 255.122728 -120.045203 
L 258.276643 -118.791229 
L 261.430557 -117.470479 
L 264.584472 -116.211201 
L 267.738386 -115.004691 
L 270.892301 -113.778881 
L 274.046215 -112.457379 
L 277.20013 -111.07686 
L 280.354044 -109.674336 
L 283.507958 -108.266506 
L 286.661873 -106.924454 
L 289.815787 -105.704804 
L 292.969702 -104.313173 
L 296.123616 -102.918284 
L 299.277531 -101.488414 
L 302.431445 -100.103145 
L 305.58536 -98.655335 
L 308.739274 -97.115963 
L 311.893189 -95.613645 
L 315.047103 -94.190887 
L 318.201017 -92.6218 
L 321.354932 -91.246958 
L 324.508846 -89.887357 
L 327.662761 -88.442338 
L 330.816675 -86.92189 
L 333.97059 -85.515439 
L 337.124504 -84.037367 
L 340.278419 -82.53131 
L 343.432333 -81.1037 
L 346.586247 -79.670145 
L 349.740162 -78.240543 
L 352.894076 -76.810203 
L 356.047991 -75.378755 
L 359.201905 -73.883145 
L 359.201905 -88.861466 
L 359.201905 -88.861466 
L 356.047991 -89.963089 
L 352.894076 -91.016731 
L 349.740162 -92.270829 
L 346.586247 -93.335995 
L 343.432333 -94.502193 
L 340.278419 -95.687419 
L 337.124504 -96.93078 
L 333.97059 -98.065931 
L 330.816675 -99.23616 
L 327.662761 -100.369936 
L 324.508846 -101.470255 
L 321.354932 -102.703642 
L 318.201017 -103.983224 
L 315.047103 -105.171798 
L 311.893189 -106.35825 
L 308.739274 -107.562459 
L 305.58536 -108.781963 
L 302.431445 -110.040413 
L 299.277531 -111.358728 
L 296.123616 -112.702346 
L 292.969702 -114.07499 
L 289.815787 -115.32673 
L 286.661873 -116.590559 
L 283.507958 -117.949223 
L 280.354044 -119.19066 
L 277.20013 -120.594161 
L 274.046215 -121.865767 
L 270.892301 -123.095808 
L 267.738386 -124.35883 
L 264.584472 -125.611391 
L 261.430557 -126.944415 
L 258.276643 -128.353257 
L 255.122728 -129.640772 
L 251.968814 -131.120945 
L 248.8149 -132.546692 
L 245.660985 -133.904767 
L 242.507071 -135.307032 
L 239.353156 -136.738294 
L 236.199242 -138.169556 
L 233.045327 -139.65714 
L 229.891413 -141.120241 
L 226.737498 -142.496503 
L 223.583584 -143.90218 
L 220.42967 -145.420498 
L 217.275755 -146.891461 
L 214.121841 -148.402289 
L 210.967926 -149.918695 
L 207.814012 -151.382617 
L 204.660097 -152.755801 
L 201.506183 -154.328644 
L 198.352268 -155.812832 
L 195.198354 -157.336609 
L 192.04444 -158.866508 
L 188.890525 -160.343399 
L 185.736611 -161.807542 
L 182.582696 -163.351007 
L 179.428782 -164.843617 
L 176.274867 -166.283016 
L 173.120953 -167.762137 
L 169.967038 -169.284026 
L 166.813124 -170.812274 
L 163.65921 -172.330777 
L 160.505295 -173.855533 
L 157.351381 -175.400055 
L 154.197466 -176.958434 
L 151.043552 -178.516813 
L 147.889637 -180.024567 
L 144.735723 -181.537965 
L 141.581808 -183.082166 
L 138.427894 -184.70124 
L 135.27398 -186.270644 
L 132.120065 -187.844317 
L 128.966151 -189.361974 
L 125.812236 -190.918657 
L 122.658322 -192.490769 
L 119.504407 -194.07093 
L 116.350493 -195.631624 
L 113.196578 -197.192655 
L 110.042664 -198.73447 
L 106.888749 -200.238808 
L 103.734835 -201.802734 
L 100.580921 -203.366661 
L 97.427006 -204.930587 
L 94.273092 -206.494513 
L 91.119177 -208.058439 
L 87.965263 -209.622366 
L 84.811348 -211.186292 
L 81.657434 -212.750218 
L 78.503519 -214.314144 
L 75.349605 -215.878071 
L 72.195691 -217.441997 
L 69.041776 -219.005923 
L 65.887862 -220.56985 
L 62.733947 -222.133776 
L 59.580033 -223.697702 
L 56.426118 -225.261628 
L 53.272204 -226.825555 
L 50.118289 -228.389481 
L 46.964375 -229.953407 
z
" id="m5667fd02f3" style="stroke:#ffffff;stroke-opacity:0.15;"/>
    </defs>
    <g clip-path="url(#p15de700040)">
     <use style="fill:#dd8452;fill-opacity:0.15;stroke:#ffffff;stroke-opacity:0.15;" x="0" xlink:href="#m5667fd02f3" y="363.514219"/>
    </g>
   </g>
   <g id="line2d_15">
    <path clip-path="url(#p15de700040)" d="M 46.964375 161.682596 
L 46.964375 53.998301 
" style="fill:none;stroke:#4c72b0;stroke-linecap:round;stroke-width:2.625;"/>
   </g>
   <g id="line2d_16">
    <path clip-path="url(#p15de700040)" d="M 125.023758 177.658819 
L 125.023758 136.758869 
" style="fill:none;stroke:#4c72b0;stroke-linecap:round;stroke-width:2.625;"/>
   </g>
   <g id="line2d_17">
    <path clip-path="url(#p15de700040)" d="M 203.08314 186.325275 
L 203.08314 159.344799 
" style="fill:none;stroke:#4c72b0;stroke-linecap:round;stroke-width:2.625;"/>
   </g>
   <g id="line2d_18">
    <path clip-path="url(#p15de700040)" d="M 281.142523 221.665401 
L 281.142523 200.500772 
" style="fill:none;stroke:#4c72b0;stroke-linecap:round;stroke-width:2.625;"/>
   </g>
   <g id="line2d_19">
    <path clip-path="url(#p15de700040)" d="M 359.201905 273.643909 
L 359.201905 239.091836 
" style="fill:none;stroke:#4c72b0;stroke-linecap:round;stroke-width:2.625;"/>
   </g>
   <g id="line2d_20">
    <path clip-path="url(#p15de700040)" d="M 46.964375 110.956293 
L 50.118289 112.35385 
L 53.272204 113.751407 
L 56.426118 115.148964 
L 59.580033 116.546521 
L 62.733947 117.944077 
L 65.887862 119.341634 
L 69.041776 120.739191 
L 72.195691 122.136748 
L 75.349605 123.534305 
L 78.503519 124.931862 
L 81.657434 126.329418 
L 84.811348 127.726975 
L 87.965263 129.124532 
L 91.119177 130.522089 
L 94.273092 131.919646 
L 97.427006 133.317203 
L 100.580921 134.71476 
L 103.734835 136.112316 
L 106.888749 137.509873 
L 110.042664 138.90743 
L 113.196578 140.304987 
L 116.350493 141.702544 
L 119.504407 143.100101 
L 122.658322 144.497657 
L 125.812236 145.895214 
L 128.966151 147.292771 
L 132.120065 148.690328 
L 135.27398 150.087885 
L 138.427894 151.485442 
L 141.581808 152.882999 
L 144.735723 154.280555 
L 147.889637 155.678112 
L 151.043552 157.075669 
L 154.197466 158.473226 
L 157.351381 159.870783 
L 160.505295 161.26834 
L 163.65921 162.665896 
L 166.813124 164.063453 
L 169.967038 165.46101 
L 173.120953 166.858567 
L 176.274867 168.256124 
L 179.428782 169.653681 
L 182.582696 171.051238 
L 185.736611 172.448794 
L 188.890525 173.846351 
L 192.04444 175.243908 
L 195.198354 176.641465 
L 198.352268 178.039022 
L 201.506183 179.436579 
L 204.660097 180.834135 
L 207.814012 182.231692 
L 210.967926 183.629249 
L 214.121841 185.026806 
L 217.275755 186.424363 
L 220.42967 187.82192 
L 223.583584 189.219477 
L 226.737498 190.617033 
L 229.891413 192.01459 
L 233.045327 193.412147 
L 236.199242 194.809704 
L 239.353156 196.207261 
L 242.507071 197.604818 
L 245.660985 199.002374 
L 248.8149 200.399931 
L 251.968814 201.797488 
L 255.122728 203.195045 
L 258.276643 204.592602 
L 261.430557 205.990159 
L 264.584472 207.387716 
L 267.738386 208.785272 
L 270.892301 210.182829 
L 274.046215 211.580386 
L 277.20013 212.977943 
L 280.354044 214.3755 
L 283.507958 215.773057 
L 286.661873 217.170613 
L 289.815787 218.56817 
L 292.969702 219.965727 
L 296.123616 221.363284 
L 299.277531 222.760841 
L 302.431445 224.158398 
L 305.58536 225.555955 
L 308.739274 226.953511 
L 311.893189 228.351068 
L 315.047103 229.748625 
L 318.201017 231.146182 
L 321.354932 232.543739 
L 324.508846 233.941296 
L 327.662761 235.338852 
L 330.816675 236.736409 
L 333.97059 238.133966 
L 337.124504 239.531523 
L 340.278419 240.92908 
L 343.432333 242.326637 
L 346.586247 243.724194 
L 349.740162 245.12175 
L 352.894076 246.519307 
L 356.047991 247.916864 
L 359.201905 249.314421 
" style="fill:none;stroke:#4c72b0;stroke-linecap:round;stroke-width:2.25;"/>
   </g>
   <g id="line2d_21">
    <path clip-path="url(#p15de700040)" d="M 46.964375 153.948703 
L 46.964375 21.499091 
" style="fill:none;stroke:#dd8452;stroke-linecap:round;stroke-width:2.625;"/>
   </g>
   <g id="line2d_22">
    <path clip-path="url(#p15de700040)" d="M 125.023758 240.303144 
L 125.023758 205.268699 
" style="fill:none;stroke:#dd8452;stroke-linecap:round;stroke-width:2.625;"/>
   </g>
   <g id="line2d_23">
    <path clip-path="url(#p15de700040)" d="M 203.08314 219.91667 
L 203.08314 197.579989 
" style="fill:none;stroke:#dd8452;stroke-linecap:round;stroke-width:2.625;"/>
   </g>
   <g id="line2d_24">
    <path clip-path="url(#p15de700040)" d="M 281.142523 248.331316 
L 281.142523 235.380687 
" style="fill:none;stroke:#dd8452;stroke-linecap:round;stroke-width:2.625;"/>
   </g>
   <g id="line2d_25">
    <path clip-path="url(#p15de700040)" d="M 359.201905 307.480909 
L 359.201905 286.248528 
" style="fill:none;stroke:#dd8452;stroke-linecap:round;stroke-width:2.625;"/>
   </g>
   <g id="line2d_26">
    <path clip-path="url(#p15de700040)" d="M 46.964375 150.817753 
L 50.118289 152.147925 
L 53.272204 153.478097 
L 56.426118 154.808269 
L 59.580033 156.138442 
L 62.733947 157.468614 
L 65.887862 158.798786 
L 69.041776 160.128959 
L 72.195691 161.459131 
L 75.349605 162.789303 
L 78.503519 164.119476 
L 81.657434 165.449648 
L 84.811348 166.77982 
L 87.965263 168.109992 
L 91.119177 169.440165 
L 94.273092 170.770337 
L 97.427006 172.100509 
L 100.580921 173.430682 
L 103.734835 174.760854 
L 106.888749 176.091026 
L 110.042664 177.421198 
L 113.196578 178.751371 
L 116.350493 180.081543 
L 119.504407 181.411715 
L 122.658322 182.741888 
L 125.812236 184.07206 
L 128.966151 185.402232 
L 132.120065 186.732405 
L 135.27398 188.062577 
L 138.427894 189.392749 
L 141.581808 190.722921 
L 144.735723 192.053094 
L 147.889637 193.383266 
L 151.043552 194.713438 
L 154.197466 196.043611 
L 157.351381 197.373783 
L 160.505295 198.703955 
L 163.65921 200.034128 
L 166.813124 201.3643 
L 169.967038 202.694472 
L 173.120953 204.024644 
L 176.274867 205.354817 
L 179.428782 206.684989 
L 182.582696 208.015161 
L 185.736611 209.345334 
L 188.890525 210.675506 
L 192.04444 212.005678 
L 195.198354 213.33585 
L 198.352268 214.666023 
L 201.506183 215.996195 
L 204.660097 217.326367 
L 207.814012 218.65654 
L 210.967926 219.986712 
L 214.121841 221.316884 
L 217.275755 222.647057 
L 220.42967 223.977229 
L 223.583584 225.307401 
L 226.737498 226.637573 
L 229.891413 227.967746 
L 233.045327 229.297918 
L 236.199242 230.62809 
L 239.353156 231.958263 
L 242.507071 233.288435 
L 245.660985 234.618607 
L 248.8149 235.94878 
L 251.968814 237.278952 
L 255.122728 238.609124 
L 258.276643 239.939296 
L 261.430557 241.269469 
L 264.584472 242.599641 
L 267.738386 243.929813 
L 270.892301 245.259986 
L 274.046215 246.590158 
L 277.20013 247.92033 
L 280.354044 249.250502 
L 283.507958 250.580675 
L 286.661873 251.910847 
L 289.815787 253.241019 
L 292.969702 254.571192 
L 296.123616 255.901364 
L 299.277531 257.231536 
L 302.431445 258.561709 
L 305.58536 259.891881 
L 308.739274 261.222053 
L 311.893189 262.552225 
L 315.047103 263.882398 
L 318.201017 265.21257 
L 321.354932 266.542742 
L 324.508846 267.872915 
L 327.662761 269.203087 
L 330.816675 270.533259 
L 333.97059 271.863432 
L 337.124504 273.193604 
L 340.278419 274.523776 
L 343.432333 275.853948 
L 346.586247 277.184121 
L 349.740162 278.514293 
L 352.894076 279.844465 
L 356.047991 281.174638 
L 359.201905 282.50481 
" style="fill:none;stroke:#dd8452;stroke-linecap:round;stroke-width:2.25;"/>
   </g>
   <g id="patch_3">
    <path d="M 46.964375 321.78 
L 46.964375 7.2 
" style="fill:none;stroke:#262626;stroke-linecap:square;stroke-linejoin:miter;stroke-width:1.25;"/>
   </g>
   <g id="patch_4">
    <path d="M 46.964375 321.78 
L 359.201905 321.78 
" style="fill:none;stroke:#262626;stroke-linecap:square;stroke-linejoin:miter;stroke-width:1.25;"/>
   </g>
  </g>
  <g id="legend_1">
   <g id="text_17">
    <!-- a91 -->
    <g style="fill:#262626;" transform="translate(377.071968 169.299453)scale(0.12 -0.12)">
     <defs>
      <path d="M 5.46875 16.546875 
L 13.921875 17.328125 
Q 14.984375 11.375 18.015625 8.6875 
Q 21.046875 6 25.78125 6 
Q 29.828125 6 32.875 7.859375 
Q 35.9375 9.71875 37.890625 12.8125 
Q 39.84375 15.921875 41.15625 21.1875 
Q 42.484375 26.46875 42.484375 31.9375 
Q 42.484375 32.515625 42.4375 33.6875 
Q 39.796875 29.5 35.234375 26.875 
Q 30.671875 24.265625 25.34375 24.265625 
Q 16.453125 24.265625 10.296875 30.703125 
Q 4.15625 37.15625 4.15625 47.703125 
Q 4.15625 58.59375 10.578125 65.234375 
Q 17 71.875 26.65625 71.875 
Q 33.640625 71.875 39.421875 68.109375 
Q 45.21875 64.359375 48.21875 57.390625 
Q 51.21875 50.4375 51.21875 37.25 
Q 51.21875 23.53125 48.234375 15.40625 
Q 45.265625 7.28125 39.375 3.03125 
Q 33.5 -1.21875 25.59375 -1.21875 
Q 17.1875 -1.21875 11.859375 3.4375 
Q 6.546875 8.109375 5.46875 16.546875 
z
M 41.453125 48.140625 
Q 41.453125 55.71875 37.421875 60.15625 
Q 33.40625 64.59375 27.734375 64.59375 
Q 21.875 64.59375 17.53125 59.8125 
Q 13.1875 55.03125 13.1875 47.40625 
Q 13.1875 40.578125 17.3125 36.296875 
Q 21.4375 32.03125 27.484375 32.03125 
Q 33.59375 32.03125 37.515625 36.296875 
Q 41.453125 40.578125 41.453125 48.140625 
z
" id="ArialMT-57"/>
     </defs>
     <use xlink:href="#ArialMT-97"/>
     <use x="55.615234" xlink:href="#ArialMT-57"/>
     <use x="111.230469" xlink:href="#ArialMT-49"/>
    </g>
   </g>
   <g id="PathCollection_3">
    <g>
     <use style="fill:#4c72b0;stroke:#4c72b0;" x="375.036655" xlink:href="#meccf102d16" y="182.170547"/>
    </g>
   </g>
   <g id="text_18">
    <!-- 1.0 -->
    <g style="fill:#262626;" transform="translate(394.836655 185.058047)scale(0.11 -0.11)">
     <use xlink:href="#ArialMT-49"/>
     <use x="55.615234" xlink:href="#ArialMT-46"/>
     <use x="83.398438" xlink:href="#ArialMT-48"/>
    </g>
   </g>
   <g id="PathCollection_4">
    <g>
     <use style="fill:#dd8452;stroke:#dd8452;" x="375.036655" xlink:href="#m00713c976b" y="197.730391"/>
    </g>
   </g>
   <g id="text_19">
    <!-- 2.0 -->
    <g style="fill:#262626;" transform="translate(394.836655 200.617891)scale(0.11 -0.11)">
     <use xlink:href="#ArialMT-50"/>
     <use x="55.615234" xlink:href="#ArialMT-46"/>
     <use x="83.398438" xlink:href="#ArialMT-48"/>
    </g>
   </g>
  </g>
 </g>
 <defs>
  <clipPath id="p15de700040">
   <rect height="314.58" width="312.23753" x="46.964375" y="7.2"/>
  </clipPath>
 </defs>
</svg>
