<?xml version="1.0" encoding="utf-8" standalone="no"?>
<!DOCTYPE svg PUBLIC "-//W3C//DTD SVG 1.1//EN"
  "http://www.w3.org/Graphics/SVG/1.1/DTD/svg11.dtd">
<!-- Created with matplotlib (https://matplotlib.org/) -->
<svg height="363.514219pt" version="1.1" viewBox="0 0 420.026655 363.514219" width="420.026655pt" xmlns="http://www.w3.org/2000/svg" xmlns:xlink="http://www.w3.org/1999/xlink">
 <metadata>
  <rdf:RDF xmlns:cc="http://creativecommons.org/ns#" xmlns:dc="http://purl.org/dc/elements/1.1/" xmlns:rdf="http://www.w3.org/1999/02/22-rdf-syntax-ns#">
   <cc:Work>
    <dc:type rdf:resource="http://purl.org/dc/dcmitype/StillImage"/>
    <dc:date>2021-03-10T10:49:51.059660</dc:date>
    <dc:format>image/svg+xml</dc:format>
    <dc:creator>
     <cc:Agent>
      <dc:title>Matplotlib v3.3.2, https://matplotlib.org/</dc:title>
     </cc:Agent>
    </dc:creator>
   </cc:Work>
  </rdf:RDF>
 </metadata>
 <defs>
  <style type="text/css">*{stroke-linecap:butt;stroke-linejoin:round;}</style>
 </defs>
 <g id="figure_1">
  <g id="patch_1">
   <path d="M -0 363.514219 
L 420.026655 363.514219 
L 420.026655 0 
L -0 0 
z
" style="fill:#ffffff;"/>
  </g>
  <g id="axes_1">
   <g id="patch_2">
    <path d="M 46.964375 321.78 
L 359.201905 321.78 
L 359.201905 7.2 
L 46.964375 7.2 
z
" style="fill:#ffffff;"/>
   </g>
   <g id="matplotlib.axis_1">
    <g id="xtick_1">
     <g id="line2d_1">
      <defs>
       <path d="M 0 0 
L 0 6 
" id="m4f09cc6694" style="stroke:#262626;stroke-width:1.25;"/>
      </defs>
      <g>
       <use style="fill:#262626;stroke:#262626;stroke-width:1.25;" x="46.964375" xlink:href="#m4f09cc6694" y="321.78"/>
      </g>
     </g>
     <g id="text_1">
      <!-- 1.0 -->
      <g style="fill:#262626;" transform="translate(39.319375 339.153594)scale(0.11 -0.11)">
       <defs>
        <path d="M 37.25 0 
L 28.46875 0 
L 28.46875 56 
Q 25.296875 52.984375 20.140625 49.953125 
Q 14.984375 46.921875 10.890625 45.40625 
L 10.890625 53.90625 
Q 18.265625 57.375 23.78125 62.296875 
Q 29.296875 67.234375 31.59375 71.875 
L 37.25 71.875 
z
" id="ArialMT-49"/>
        <path d="M 9.078125 0 
L 9.078125 10.015625 
L 19.09375 10.015625 
L 19.09375 0 
z
" id="ArialMT-46"/>
        <path d="M 4.15625 35.296875 
Q 4.15625 48 6.765625 55.734375 
Q 9.375 63.484375 14.515625 67.671875 
Q 19.671875 71.875 27.484375 71.875 
Q 33.25 71.875 37.59375 69.546875 
Q 41.9375 67.234375 44.765625 62.859375 
Q 47.609375 58.5 49.21875 52.21875 
Q 50.828125 45.953125 50.828125 35.296875 
Q 50.828125 22.703125 48.234375 14.96875 
Q 45.65625 7.234375 40.5 3 
Q 35.359375 -1.21875 27.484375 -1.21875 
Q 17.140625 -1.21875 11.234375 6.203125 
Q 4.15625 15.140625 4.15625 35.296875 
z
M 13.1875 35.296875 
Q 13.1875 17.671875 17.3125 11.828125 
Q 21.4375 6 27.484375 6 
Q 33.546875 6 37.671875 11.859375 
Q 41.796875 17.71875 41.796875 35.296875 
Q 41.796875 52.984375 37.671875 58.78125 
Q 33.546875 64.59375 27.390625 64.59375 
Q 21.34375 64.59375 17.71875 59.46875 
Q 13.1875 52.9375 13.1875 35.296875 
z
" id="ArialMT-48"/>
       </defs>
       <use xlink:href="#ArialMT-49"/>
       <use x="55.615234" xlink:href="#ArialMT-46"/>
       <use x="83.398438" xlink:href="#ArialMT-48"/>
      </g>
     </g>
    </g>
    <g id="xtick_2">
     <g id="line2d_2">
      <g>
       <use style="fill:#262626;stroke:#262626;stroke-width:1.25;" x="85.994066" xlink:href="#m4f09cc6694" y="321.78"/>
      </g>
     </g>
     <g id="text_2">
      <!-- 1.5 -->
      <g style="fill:#262626;" transform="translate(78.349066 339.153594)scale(0.11 -0.11)">
       <defs>
        <path d="M 4.15625 18.75 
L 13.375 19.53125 
Q 14.40625 12.796875 18.140625 9.390625 
Q 21.875 6 27.15625 6 
Q 33.5 6 37.890625 10.78125 
Q 42.28125 15.578125 42.28125 23.484375 
Q 42.28125 31 38.0625 35.34375 
Q 33.84375 39.703125 27 39.703125 
Q 22.75 39.703125 19.328125 37.765625 
Q 15.921875 35.84375 13.96875 32.765625 
L 5.71875 33.84375 
L 12.640625 70.609375 
L 48.25 70.609375 
L 48.25 62.203125 
L 19.671875 62.203125 
L 15.828125 42.96875 
Q 22.265625 47.46875 29.34375 47.46875 
Q 38.71875 47.46875 45.15625 40.96875 
Q 51.609375 34.46875 51.609375 24.265625 
Q 51.609375 14.546875 45.953125 7.46875 
Q 39.0625 -1.21875 27.15625 -1.21875 
Q 17.390625 -1.21875 11.203125 4.25 
Q 5.03125 9.71875 4.15625 18.75 
z
" id="ArialMT-53"/>
       </defs>
       <use xlink:href="#ArialMT-49"/>
       <use x="55.615234" xlink:href="#ArialMT-46"/>
       <use x="83.398438" xlink:href="#ArialMT-53"/>
      </g>
     </g>
    </g>
    <g id="xtick_3">
     <g id="line2d_3">
      <g>
       <use style="fill:#262626;stroke:#262626;stroke-width:1.25;" x="125.023758" xlink:href="#m4f09cc6694" y="321.78"/>
      </g>
     </g>
     <g id="text_3">
      <!-- 2.0 -->
      <g style="fill:#262626;" transform="translate(117.378758 339.153594)scale(0.11 -0.11)">
       <defs>
        <path d="M 50.34375 8.453125 
L 50.34375 0 
L 3.03125 0 
Q 2.9375 3.171875 4.046875 6.109375 
Q 5.859375 10.9375 9.828125 15.625 
Q 13.8125 20.3125 21.34375 26.46875 
Q 33.015625 36.03125 37.109375 41.625 
Q 41.21875 47.21875 41.21875 52.203125 
Q 41.21875 57.421875 37.46875 61 
Q 33.734375 64.59375 27.734375 64.59375 
Q 21.390625 64.59375 17.578125 60.78125 
Q 13.765625 56.984375 13.71875 50.25 
L 4.6875 51.171875 
Q 5.609375 61.28125 11.65625 66.578125 
Q 17.71875 71.875 27.9375 71.875 
Q 38.234375 71.875 44.234375 66.15625 
Q 50.25 60.453125 50.25 52 
Q 50.25 47.703125 48.484375 43.546875 
Q 46.734375 39.40625 42.65625 34.8125 
Q 38.578125 30.21875 29.109375 22.21875 
Q 21.1875 15.578125 18.9375 13.203125 
Q 16.703125 10.84375 15.234375 8.453125 
z
" id="ArialMT-50"/>
       </defs>
       <use xlink:href="#ArialMT-50"/>
       <use x="55.615234" xlink:href="#ArialMT-46"/>
       <use x="83.398438" xlink:href="#ArialMT-48"/>
      </g>
     </g>
    </g>
    <g id="xtick_4">
     <g id="line2d_4">
      <g>
       <use style="fill:#262626;stroke:#262626;stroke-width:1.25;" x="164.053449" xlink:href="#m4f09cc6694" y="321.78"/>
      </g>
     </g>
     <g id="text_4">
      <!-- 2.5 -->
      <g style="fill:#262626;" transform="translate(156.408449 339.153594)scale(0.11 -0.11)">
       <use xlink:href="#ArialMT-50"/>
       <use x="55.615234" xlink:href="#ArialMT-46"/>
       <use x="83.398438" xlink:href="#ArialMT-53"/>
      </g>
     </g>
    </g>
    <g id="xtick_5">
     <g id="line2d_5">
      <g>
       <use style="fill:#262626;stroke:#262626;stroke-width:1.25;" x="203.08314" xlink:href="#m4f09cc6694" y="321.78"/>
      </g>
     </g>
     <g id="text_5">
      <!-- 3.0 -->
      <g style="fill:#262626;" transform="translate(195.43814 339.153594)scale(0.11 -0.11)">
       <defs>
        <path d="M 4.203125 18.890625 
L 12.984375 20.0625 
Q 14.5 12.59375 18.140625 9.296875 
Q 21.78125 6 27 6 
Q 33.203125 6 37.46875 10.296875 
Q 41.75 14.59375 41.75 20.953125 
Q 41.75 27 37.796875 30.921875 
Q 33.84375 34.859375 27.734375 34.859375 
Q 25.25 34.859375 21.53125 33.890625 
L 22.515625 41.609375 
Q 23.390625 41.5 23.921875 41.5 
Q 29.546875 41.5 34.03125 44.421875 
Q 38.53125 47.359375 38.53125 53.46875 
Q 38.53125 58.296875 35.25 61.46875 
Q 31.984375 64.65625 26.8125 64.65625 
Q 21.6875 64.65625 18.265625 61.421875 
Q 14.84375 58.203125 13.875 51.765625 
L 5.078125 53.328125 
Q 6.6875 62.15625 12.390625 67.015625 
Q 18.109375 71.875 26.609375 71.875 
Q 32.46875 71.875 37.390625 69.359375 
Q 42.328125 66.84375 44.9375 62.5 
Q 47.5625 58.15625 47.5625 53.265625 
Q 47.5625 48.640625 45.0625 44.828125 
Q 42.578125 41.015625 37.703125 38.765625 
Q 44.046875 37.3125 47.5625 32.6875 
Q 51.078125 28.078125 51.078125 21.140625 
Q 51.078125 11.765625 44.234375 5.25 
Q 37.40625 -1.265625 26.953125 -1.265625 
Q 17.53125 -1.265625 11.296875 4.34375 
Q 5.078125 9.96875 4.203125 18.890625 
z
" id="ArialMT-51"/>
       </defs>
       <use xlink:href="#ArialMT-51"/>
       <use x="55.615234" xlink:href="#ArialMT-46"/>
       <use x="83.398438" xlink:href="#ArialMT-48"/>
      </g>
     </g>
    </g>
    <g id="xtick_6">
     <g id="line2d_6">
      <g>
       <use style="fill:#262626;stroke:#262626;stroke-width:1.25;" x="242.112831" xlink:href="#m4f09cc6694" y="321.78"/>
      </g>
     </g>
     <g id="text_6">
      <!-- 3.5 -->
      <g style="fill:#262626;" transform="translate(234.467831 339.153594)scale(0.11 -0.11)">
       <use xlink:href="#ArialMT-51"/>
       <use x="55.615234" xlink:href="#ArialMT-46"/>
       <use x="83.398438" xlink:href="#ArialMT-53"/>
      </g>
     </g>
    </g>
    <g id="xtick_7">
     <g id="line2d_7">
      <g>
       <use style="fill:#262626;stroke:#262626;stroke-width:1.25;" x="281.142523" xlink:href="#m4f09cc6694" y="321.78"/>
      </g>
     </g>
     <g id="text_7">
      <!-- 4.0 -->
      <g style="fill:#262626;" transform="translate(273.497523 339.153594)scale(0.11 -0.11)">
       <defs>
        <path d="M 32.328125 0 
L 32.328125 17.140625 
L 1.265625 17.140625 
L 1.265625 25.203125 
L 33.9375 71.578125 
L 41.109375 71.578125 
L 41.109375 25.203125 
L 50.78125 25.203125 
L 50.78125 17.140625 
L 41.109375 17.140625 
L 41.109375 0 
z
M 32.328125 25.203125 
L 32.328125 57.46875 
L 9.90625 25.203125 
z
" id="ArialMT-52"/>
       </defs>
       <use xlink:href="#ArialMT-52"/>
       <use x="55.615234" xlink:href="#ArialMT-46"/>
       <use x="83.398438" xlink:href="#ArialMT-48"/>
      </g>
     </g>
    </g>
    <g id="xtick_8">
     <g id="line2d_8">
      <g>
       <use style="fill:#262626;stroke:#262626;stroke-width:1.25;" x="320.172214" xlink:href="#m4f09cc6694" y="321.78"/>
      </g>
     </g>
     <g id="text_8">
      <!-- 4.5 -->
      <g style="fill:#262626;" transform="translate(312.527214 339.153594)scale(0.11 -0.11)">
       <use xlink:href="#ArialMT-52"/>
       <use x="55.615234" xlink:href="#ArialMT-46"/>
       <use x="83.398438" xlink:href="#ArialMT-53"/>
      </g>
     </g>
    </g>
    <g id="xtick_9">
     <g id="line2d_9">
      <g>
       <use style="fill:#262626;stroke:#262626;stroke-width:1.25;" x="359.201905" xlink:href="#m4f09cc6694" y="321.78"/>
      </g>
     </g>
     <g id="text_9">
      <!-- 5.0 -->
      <g style="fill:#262626;" transform="translate(351.556905 339.153594)scale(0.11 -0.11)">
       <use xlink:href="#ArialMT-53"/>
       <use x="55.615234" xlink:href="#ArialMT-46"/>
       <use x="83.398438" xlink:href="#ArialMT-48"/>
      </g>
     </g>
    </g>
    <g id="text_10">
     <!-- l6a -->
     <g style="fill:#262626;" transform="translate(195.07689 353.929219)scale(0.12 -0.12)">
      <defs>
       <path d="M 6.390625 0 
L 6.390625 71.578125 
L 15.1875 71.578125 
L 15.1875 0 
z
" id="ArialMT-108"/>
       <path d="M 49.75 54.046875 
L 41.015625 53.375 
Q 39.84375 58.546875 37.703125 60.890625 
Q 34.125 64.65625 28.90625 64.65625 
Q 24.703125 64.65625 21.53125 62.3125 
Q 17.390625 59.28125 14.984375 53.46875 
Q 12.59375 47.65625 12.5 36.921875 
Q 15.671875 41.75 20.265625 44.09375 
Q 24.859375 46.4375 29.890625 46.4375 
Q 38.671875 46.4375 44.84375 39.96875 
Q 51.03125 33.5 51.03125 23.25 
Q 51.03125 16.5 48.125 10.71875 
Q 45.21875 4.9375 40.140625 1.859375 
Q 35.0625 -1.21875 28.609375 -1.21875 
Q 17.625 -1.21875 10.6875 6.859375 
Q 3.765625 14.9375 3.765625 33.5 
Q 3.765625 54.25 11.421875 63.671875 
Q 18.109375 71.875 29.4375 71.875 
Q 37.890625 71.875 43.28125 67.140625 
Q 48.6875 62.40625 49.75 54.046875 
z
M 13.875 23.1875 
Q 13.875 18.65625 15.796875 14.5 
Q 17.71875 10.359375 21.1875 8.171875 
Q 24.65625 6 28.46875 6 
Q 34.03125 6 38.03125 10.484375 
Q 42.046875 14.984375 42.046875 22.703125 
Q 42.046875 30.125 38.078125 34.390625 
Q 34.125 38.671875 28.125 38.671875 
Q 22.171875 38.671875 18.015625 34.390625 
Q 13.875 30.125 13.875 23.1875 
z
" id="ArialMT-54"/>
       <path d="M 40.4375 6.390625 
Q 35.546875 2.25 31.03125 0.53125 
Q 26.515625 -1.171875 21.34375 -1.171875 
Q 12.796875 -1.171875 8.203125 3 
Q 3.609375 7.171875 3.609375 13.671875 
Q 3.609375 17.484375 5.34375 20.625 
Q 7.078125 23.78125 9.890625 25.6875 
Q 12.703125 27.59375 16.21875 28.5625 
Q 18.796875 29.25 24.03125 29.890625 
Q 34.671875 31.15625 39.703125 32.90625 
Q 39.75 34.71875 39.75 35.203125 
Q 39.75 40.578125 37.25 42.78125 
Q 33.890625 45.75 27.25 45.75 
Q 21.046875 45.75 18.09375 43.578125 
Q 15.140625 41.40625 13.71875 35.890625 
L 5.125 37.0625 
Q 6.296875 42.578125 8.984375 45.96875 
Q 11.671875 49.359375 16.75 51.1875 
Q 21.828125 53.03125 28.515625 53.03125 
Q 35.15625 53.03125 39.296875 51.46875 
Q 43.453125 49.90625 45.40625 47.53125 
Q 47.359375 45.171875 48.140625 41.546875 
Q 48.578125 39.3125 48.578125 33.453125 
L 48.578125 21.734375 
Q 48.578125 9.46875 49.140625 6.21875 
Q 49.703125 2.984375 51.375 0 
L 42.1875 0 
Q 40.828125 2.734375 40.4375 6.390625 
z
M 39.703125 26.03125 
Q 34.90625 24.078125 25.34375 22.703125 
Q 19.921875 21.921875 17.671875 20.9375 
Q 15.4375 19.96875 14.203125 18.09375 
Q 12.984375 16.21875 12.984375 13.921875 
Q 12.984375 10.40625 15.640625 8.0625 
Q 18.3125 5.71875 23.4375 5.71875 
Q 28.515625 5.71875 32.46875 7.9375 
Q 36.421875 10.15625 38.28125 14.015625 
Q 39.703125 17 39.703125 22.796875 
z
" id="ArialMT-97"/>
      </defs>
      <use xlink:href="#ArialMT-108"/>
      <use x="22.216797" xlink:href="#ArialMT-54"/>
      <use x="77.832031" xlink:href="#ArialMT-97"/>
     </g>
    </g>
   </g>
   <g id="matplotlib.axis_2">
    <g id="ytick_1">
     <g id="line2d_10">
      <defs>
       <path d="M 0 0 
L -6 0 
" id="ma39be3a0f9" style="stroke:#262626;stroke-width:1.25;"/>
      </defs>
      <g>
       <use style="fill:#262626;stroke:#262626;stroke-width:1.25;" x="46.964375" xlink:href="#ma39be3a0f9" y="312.783204"/>
      </g>
     </g>
     <g id="text_11">
      <!-- 1.5 -->
      <g style="fill:#262626;" transform="translate(22.174375 316.72)scale(0.11 -0.11)">
       <use xlink:href="#ArialMT-49"/>
       <use x="55.615234" xlink:href="#ArialMT-46"/>
       <use x="83.398438" xlink:href="#ArialMT-53"/>
      </g>
     </g>
    </g>
    <g id="ytick_2">
     <g id="line2d_11">
      <g>
       <use style="fill:#262626;stroke:#262626;stroke-width:1.25;" x="46.964375" xlink:href="#ma39be3a0f9" y="245.563793"/>
      </g>
     </g>
     <g id="text_12">
      <!-- 2.0 -->
      <g style="fill:#262626;" transform="translate(22.174375 249.50059)scale(0.11 -0.11)">
       <use xlink:href="#ArialMT-50"/>
       <use x="55.615234" xlink:href="#ArialMT-46"/>
       <use x="83.398438" xlink:href="#ArialMT-48"/>
      </g>
     </g>
    </g>
    <g id="ytick_3">
     <g id="line2d_12">
      <g>
       <use style="fill:#262626;stroke:#262626;stroke-width:1.25;" x="46.964375" xlink:href="#ma39be3a0f9" y="178.344382"/>
      </g>
     </g>
     <g id="text_13">
      <!-- 2.5 -->
      <g style="fill:#262626;" transform="translate(22.174375 182.281179)scale(0.11 -0.11)">
       <use xlink:href="#ArialMT-50"/>
       <use x="55.615234" xlink:href="#ArialMT-46"/>
       <use x="83.398438" xlink:href="#ArialMT-53"/>
      </g>
     </g>
    </g>
    <g id="ytick_4">
     <g id="line2d_13">
      <g>
       <use style="fill:#262626;stroke:#262626;stroke-width:1.25;" x="46.964375" xlink:href="#ma39be3a0f9" y="111.124972"/>
      </g>
     </g>
     <g id="text_14">
      <!-- 3.0 -->
      <g style="fill:#262626;" transform="translate(22.174375 115.061769)scale(0.11 -0.11)">
       <use xlink:href="#ArialMT-51"/>
       <use x="55.615234" xlink:href="#ArialMT-46"/>
       <use x="83.398438" xlink:href="#ArialMT-48"/>
      </g>
     </g>
    </g>
    <g id="ytick_5">
     <g id="line2d_14">
      <g>
       <use style="fill:#262626;stroke:#262626;stroke-width:1.25;" x="46.964375" xlink:href="#ma39be3a0f9" y="43.905561"/>
      </g>
     </g>
     <g id="text_15">
      <!-- 3.5 -->
      <g style="fill:#262626;" transform="translate(22.174375 47.842358)scale(0.11 -0.11)">
       <use xlink:href="#ArialMT-51"/>
       <use x="55.615234" xlink:href="#ArialMT-46"/>
       <use x="83.398438" xlink:href="#ArialMT-53"/>
      </g>
     </g>
    </g>
    <g id="text_16">
     <!-- l6b -->
     <g style="fill:#262626;" transform="translate(15.789375 172.49625)rotate(-90)scale(0.12 -0.12)">
      <defs>
       <path d="M 14.703125 0 
L 6.546875 0 
L 6.546875 71.578125 
L 15.328125 71.578125 
L 15.328125 46.046875 
Q 20.90625 53.03125 29.546875 53.03125 
Q 34.328125 53.03125 38.59375 51.09375 
Q 42.875 49.171875 45.625 45.671875 
Q 48.390625 42.1875 49.953125 37.25 
Q 51.515625 32.328125 51.515625 26.703125 
Q 51.515625 13.375 44.921875 6.09375 
Q 38.328125 -1.171875 29.109375 -1.171875 
Q 19.921875 -1.171875 14.703125 6.5 
z
M 14.59375 26.3125 
Q 14.59375 17 17.140625 12.84375 
Q 21.296875 6.0625 28.375 6.0625 
Q 34.125 6.0625 38.328125 11.0625 
Q 42.53125 16.0625 42.53125 25.984375 
Q 42.53125 36.140625 38.5 40.96875 
Q 34.46875 45.796875 28.765625 45.796875 
Q 23 45.796875 18.796875 40.796875 
Q 14.59375 35.796875 14.59375 26.3125 
z
" id="ArialMT-98"/>
      </defs>
      <use xlink:href="#ArialMT-108"/>
      <use x="22.216797" xlink:href="#ArialMT-54"/>
      <use x="77.832031" xlink:href="#ArialMT-98"/>
     </g>
    </g>
   </g>
   <g id="PathCollection_1">
    <defs>
     <path d="M 0 3.535534 
C 0.937635 3.535534 1.836992 3.163008 2.5 2.5 
C 3.163008 1.836992 3.535534 0.937635 3.535534 0 
C 3.535534 -0.937635 3.163008 -1.836992 2.5 -2.5 
C 1.836992 -3.163008 0.937635 -3.535534 0 -3.535534 
C -0.937635 -3.535534 -1.836992 -3.163008 -2.5 -2.5 
C -3.163008 -1.836992 -3.535534 -0.937635 -3.535534 0 
C -3.535534 0.937635 -3.163008 1.836992 -2.5 2.5 
C -1.836992 3.163008 -0.937635 3.535534 0 3.535534 
z
" id="mdfb1958791" style="stroke:#4c72b0;"/>
    </defs>
    <g clip-path="url(#p6a9f1abdec)">
     <use style="fill:#4c72b0;stroke:#4c72b0;" x="46.964375" xlink:href="#mdfb1958791" y="105.523354"/>
     <use style="fill:#4c72b0;stroke:#4c72b0;" x="125.023758" xlink:href="#mdfb1958791" y="154.278174"/>
     <use style="fill:#4c72b0;stroke:#4c72b0;" x="203.08314" xlink:href="#mdfb1958791" y="170.875559"/>
     <use style="fill:#4c72b0;stroke:#4c72b0;" x="281.142523" xlink:href="#mdfb1958791" y="209.528645"/>
     <use style="fill:#4c72b0;stroke:#4c72b0;" x="359.201905" xlink:href="#mdfb1958791" y="255.500575"/>
    </g>
   </g>
   <g id="PolyCollection_1">
    <defs>
     <path d="M 46.964375 -276.918021 
L 46.964375 -235.232607 
L 50.118289 -234.112974 
L 53.272204 -232.993341 
L 56.426118 -231.873708 
L 59.580033 -230.754075 
L 62.733947 -229.634442 
L 65.887862 -228.51481 
L 69.041776 -227.395177 
L 72.195691 -226.240738 
L 75.349605 -225.06791 
L 78.503519 -223.896204 
L 81.657434 -222.725784 
L 84.811348 -221.555364 
L 87.965263 -220.467225 
L 91.119177 -219.361331 
L 94.273092 -218.165526 
L 97.427006 -217.022566 
L 100.580921 -215.854053 
L 103.734835 -214.686388 
L 106.888749 -213.564134 
L 110.042664 -212.510624 
L 113.196578 -211.457846 
L 116.350493 -210.245528 
L 119.504407 -209.024885 
L 122.658322 -207.82503 
L 125.812236 -206.609496 
L 128.966151 -205.395362 
L 132.120065 -204.18166 
L 135.27398 -203.05475 
L 138.427894 -201.825842 
L 141.581808 -200.574541 
L 144.735723 -199.426554 
L 147.889637 -198.148751 
L 151.043552 -197.033253 
L 154.197466 -195.918513 
L 157.351381 -194.803773 
L 160.505295 -193.628009 
L 163.65921 -192.423099 
L 166.813124 -191.277948 
L 169.967038 -190.018048 
L 173.120953 -188.810888 
L 176.274867 -187.604679 
L 179.428782 -186.576353 
L 182.582696 -185.455749 
L 185.736611 -184.165415 
L 188.890525 -182.852703 
L 192.04444 -181.599632 
L 195.198354 -180.387056 
L 198.352268 -179.16265 
L 201.506183 -177.953802 
L 204.660097 -176.745756 
L 207.814012 -175.489573 
L 210.967926 -174.219645 
L 214.121841 -172.837266 
L 217.275755 -171.494092 
L 220.42967 -170.380943 
L 223.583584 -169.114284 
L 226.737498 -167.823626 
L 229.891413 -166.544112 
L 233.045327 -165.265057 
L 236.199242 -163.897234 
L 239.353156 -162.530862 
L 242.507071 -161.216885 
L 245.660985 -159.869249 
L 248.8149 -158.455786 
L 251.968814 -156.945001 
L 255.122728 -155.400185 
L 258.276643 -153.988298 
L 261.430557 -152.595939 
L 264.584472 -151.218314 
L 267.738386 -149.752532 
L 270.892301 -148.326388 
L 274.046215 -146.708507 
L 277.20013 -145.177693 
L 280.354044 -143.697859 
L 283.507958 -142.125819 
L 286.661873 -140.615509 
L 289.815787 -139.113513 
L 292.969702 -137.544959 
L 296.123616 -135.751652 
L 299.277531 -134.256449 
L 302.431445 -132.676213 
L 305.58536 -131.19908 
L 308.739274 -129.626953 
L 311.893189 -127.928537 
L 315.047103 -126.237991 
L 318.201017 -124.609594 
L 321.354932 -122.982349 
L 324.508846 -121.357008 
L 327.662761 -119.731668 
L 330.816675 -118.159887 
L 333.97059 -116.681771 
L 337.124504 -115.054983 
L 340.278419 -113.488533 
L 343.432333 -111.863538 
L 346.586247 -110.251187 
L 349.740162 -108.610216 
L 352.894076 -106.979857 
L 356.047991 -105.352944 
L 359.201905 -103.653133 
L 359.201905 -128.655681 
L 359.201905 -128.655681 
L 356.047991 -129.856654 
L 352.894076 -131.057627 
L 349.740162 -132.170514 
L 346.586247 -133.349045 
L 343.432333 -134.463876 
L 340.278419 -135.576362 
L 337.124504 -136.586648 
L 333.97059 -137.763944 
L 330.816675 -138.917703 
L 327.662761 -140.031994 
L 324.508846 -141.146132 
L 321.354932 -142.396326 
L 318.201017 -143.596268 
L 315.047103 -144.677545 
L 311.893189 -145.95655 
L 308.739274 -147.204363 
L 305.58536 -148.474739 
L 302.431445 -149.603236 
L 299.277531 -150.82927 
L 296.123616 -152.064467 
L 292.969702 -153.302771 
L 289.815787 -154.413058 
L 286.661873 -155.794662 
L 283.507958 -157.11576 
L 280.354044 -158.532201 
L 277.20013 -159.927071 
L 274.046215 -161.182558 
L 270.892301 -162.458559 
L 267.738386 -163.822554 
L 264.584472 -165.281589 
L 261.430557 -166.782195 
L 258.276643 -168.132011 
L 255.122728 -169.536572 
L 251.968814 -171.016418 
L 248.8149 -172.480404 
L 245.660985 -173.9055 
L 242.507071 -175.291963 
L 239.353156 -176.822227 
L 236.199242 -178.390566 
L 233.045327 -179.97265 
L 229.891413 -181.423702 
L 226.737498 -182.968083 
L 223.583584 -184.482801 
L 220.42967 -186.151367 
L 217.275755 -187.780964 
L 214.121841 -189.281416 
L 210.967926 -190.753533 
L 207.814012 -192.145214 
L 204.660097 -193.737976 
L 201.506183 -195.285886 
L 198.352268 -196.792317 
L 195.198354 -198.560879 
L 192.04444 -200.310432 
L 188.890525 -201.864022 
L 185.736611 -203.33672 
L 182.582696 -204.955819 
L 179.428782 -206.587744 
L 176.274867 -208.245407 
L 173.120953 -209.888894 
L 169.967038 -211.506785 
L 166.813124 -213.166672 
L 163.65921 -214.803808 
L 160.505295 -216.444456 
L 157.351381 -218.148797 
L 154.197466 -219.853609 
L 151.043552 -221.514566 
L 147.889637 -223.2649 
L 144.735723 -224.866701 
L 141.581808 -226.489754 
L 138.427894 -228.181737 
L 135.27398 -229.806496 
L 132.120065 -231.469725 
L 128.966151 -233.130205 
L 125.812236 -234.864227 
L 122.658322 -236.61877 
L 119.504407 -238.373313 
L 116.350493 -240.056408 
L 113.196578 -241.60337 
L 110.042664 -243.150333 
L 106.888749 -244.729282 
L 103.734835 -246.386293 
L 100.580921 -248.043304 
L 97.427006 -249.700315 
L 94.273092 -251.357326 
L 91.119177 -253.014337 
L 87.965263 -254.671962 
L 84.811348 -256.395473 
L 81.657434 -258.15737 
L 78.503519 -259.896321 
L 75.349605 -261.635272 
L 72.195691 -263.371099 
L 69.041776 -265.106108 
L 65.887862 -266.760504 
L 62.733947 -268.40583 
L 59.580033 -270.051156 
L 56.426118 -271.696482 
L 53.272204 -273.341808 
L 50.118289 -275.121313 
L 46.964375 -276.918021 
z
" id="mc5610f8e6f" style="stroke:#ffffff;stroke-opacity:0.15;"/>
    </defs>
    <g clip-path="url(#p6a9f1abdec)">
     <use style="fill:#4c72b0;fill-opacity:0.15;stroke:#ffffff;stroke-opacity:0.15;" x="0" xlink:href="#mc5610f8e6f" y="363.514219"/>
    </g>
   </g>
   <g id="PathCollection_2">
    <defs>
     <path d="M 0 3.535534 
C 0.937635 3.535534 1.836992 3.163008 2.5 2.5 
C 3.163008 1.836992 3.535534 0.937635 3.535534 0 
C 3.535534 -0.937635 3.163008 -1.836992 2.5 -2.5 
C 1.836992 -3.163008 0.937635 -3.535534 0 -3.535534 
C -0.937635 -3.535534 -1.836992 -3.163008 -2.5 -2.5 
C -3.163008 -1.836992 -3.535534 -0.937635 -3.535534 0 
C -3.535534 0.937635 -3.163008 1.836992 -2.5 2.5 
C -1.836992 3.163008 -0.937635 3.535534 0 3.535534 
z
" id="m1c2ff5d6d4" style="stroke:#dd8452;"/>
    </defs>
    <g clip-path="url(#p6a9f1abdec)">
     <use style="fill:#dd8452;stroke:#dd8452;" x="46.964375" xlink:href="#m1c2ff5d6d4" y="86.228894"/>
     <use style="fill:#dd8452;stroke:#dd8452;" x="125.023758" xlink:href="#m1c2ff5d6d4" y="220.839412"/>
     <use style="fill:#dd8452;stroke:#dd8452;" x="203.08314" xlink:href="#m1c2ff5d6d4" y="206.76859"/>
     <use style="fill:#dd8452;stroke:#dd8452;" x="281.142523" xlink:href="#m1c2ff5d6d4" y="240.425242"/>
     <use style="fill:#dd8452;stroke:#dd8452;" x="359.201905" xlink:href="#m1c2ff5d6d4" y="296.87632"/>
    </g>
   </g>
   <g id="PolyCollection_2">
    <defs>
     <path d="M 46.964375 -234.573296 
L 46.964375 -197.724711 
L 50.118289 -196.619477 
L 53.272204 -195.514243 
L 56.426118 -194.404176 
L 59.580033 -193.284381 
L 62.733947 -192.164586 
L 65.887862 -191.044791 
L 69.041776 -189.924996 
L 72.195691 -188.805201 
L 75.349605 -187.670801 
L 78.503519 -186.485115 
L 81.657434 -185.342181 
L 84.811348 -184.218317 
L 87.965263 -183.189549 
L 91.119177 -182.086431 
L 94.273092 -180.966636 
L 97.427006 -179.847291 
L 100.580921 -178.729376 
L 103.734835 -177.613294 
L 106.888749 -176.490032 
L 110.042664 -175.37119 
L 113.196578 -174.298372 
L 116.350493 -173.23495 
L 119.504407 -172.122857 
L 122.658322 -170.929416 
L 125.812236 -169.772147 
L 128.966151 -168.650588 
L 132.120065 -167.529681 
L 135.27398 -166.410223 
L 138.427894 -165.291172 
L 141.581808 -164.172523 
L 144.735723 -163.053875 
L 147.889637 -161.935226 
L 151.043552 -160.847653 
L 154.197466 -159.767713 
L 157.351381 -158.687773 
L 160.505295 -157.595699 
L 163.65921 -156.33811 
L 166.813124 -155.215647 
L 169.967038 -154.096189 
L 173.120953 -152.896907 
L 176.274867 -151.657824 
L 179.428782 -150.474191 
L 182.582696 -149.346603 
L 185.736611 -148.219015 
L 188.890525 -147.093476 
L 192.04444 -145.915713 
L 195.198354 -144.740946 
L 198.352268 -143.547918 
L 201.506183 -142.324692 
L 204.660097 -141.103186 
L 207.814012 -139.945684 
L 210.967926 -138.819138 
L 214.121841 -137.584426 
L 217.275755 -136.336227 
L 220.42967 -135.12844 
L 223.583584 -133.905601 
L 226.737498 -132.655427 
L 229.891413 -131.387112 
L 233.045327 -130.188651 
L 236.199242 -128.954078 
L 239.353156 -127.736268 
L 242.507071 -126.520425 
L 245.660985 -125.334677 
L 248.8149 -124.164594 
L 251.968814 -122.895415 
L 255.122728 -121.653522 
L 258.276643 -120.381628 
L 261.430557 -119.213691 
L 264.584472 -117.812025 
L 267.738386 -116.457897 
L 270.892301 -115.100574 
L 274.046215 -113.730362 
L 277.20013 -112.4227 
L 280.354044 -111.129676 
L 283.507958 -109.709499 
L 286.661873 -108.288183 
L 289.815787 -106.866682 
L 292.969702 -105.443312 
L 296.123616 -103.970163 
L 299.277531 -102.485425 
L 302.431445 -101.061361 
L 305.58536 -99.547399 
L 308.739274 -98.094396 
L 311.893189 -96.608592 
L 315.047103 -95.084407 
L 318.201017 -93.588593 
L 321.354932 -92.069197 
L 324.508846 -90.550251 
L 327.662761 -88.935915 
L 330.816675 -87.398416 
L 333.97059 -85.866529 
L 337.124504 -84.369107 
L 340.278419 -82.796915 
L 343.432333 -81.245966 
L 346.586247 -79.708655 
L 349.740162 -78.164722 
L 352.894076 -76.617921 
L 356.047991 -75.03084 
L 359.201905 -73.439685 
L 359.201905 -91.222166 
L 359.201905 -91.222166 
L 356.047991 -92.473529 
L 352.894076 -93.562524 
L 349.740162 -94.653351 
L 346.586247 -95.846437 
L 343.432333 -96.822518 
L 340.278419 -97.848196 
L 337.124504 -98.918879 
L 333.97059 -100.184937 
L 330.816675 -101.498674 
L 327.662761 -102.683695 
L 324.508846 -103.765633 
L 321.354932 -104.893901 
L 318.201017 -106.069092 
L 315.047103 -107.304054 
L 311.893189 -108.547381 
L 308.739274 -109.813757 
L 305.58536 -111.144795 
L 302.431445 -112.304993 
L 299.277531 -113.417287 
L 296.123616 -114.617373 
L 292.969702 -115.928758 
L 289.815787 -117.223695 
L 286.661873 -118.597304 
L 283.507958 -119.807149 
L 280.354044 -121.049782 
L 277.20013 -122.245198 
L 274.046215 -123.564376 
L 270.892301 -124.908076 
L 267.738386 -126.216044 
L 264.584472 -127.58155 
L 261.430557 -129.015687 
L 258.276643 -130.556234 
L 255.122728 -132.04448 
L 251.968814 -133.446635 
L 248.8149 -134.97105 
L 245.660985 -136.389517 
L 242.507071 -137.768046 
L 239.353156 -139.185561 
L 236.199242 -140.590686 
L 233.045327 -142.081551 
L 229.891413 -143.484785 
L 226.737498 -144.988518 
L 223.583584 -146.462774 
L 220.42967 -147.972227 
L 217.275755 -149.41586 
L 214.121841 -150.87887 
L 210.967926 -152.422082 
L 207.814012 -153.90087 
L 204.660097 -155.51152 
L 201.506183 -157.11081 
L 198.352268 -158.568403 
L 195.198354 -160.168409 
L 192.04444 -161.693881 
L 188.890525 -163.270564 
L 185.736611 -164.854693 
L 182.582696 -166.383694 
L 179.428782 -167.934644 
L 176.274867 -169.579735 
L 173.120953 -171.197376 
L 169.967038 -172.782913 
L 166.813124 -174.356734 
L 163.65921 -175.903449 
L 160.505295 -177.450164 
L 157.351381 -178.996879 
L 154.197466 -180.574507 
L 151.043552 -182.186071 
L 147.889637 -183.797635 
L 144.735723 -185.416753 
L 141.581808 -187.052791 
L 138.427894 -188.640291 
L 135.27398 -190.245756 
L 132.120065 -191.831584 
L 128.966151 -193.396164 
L 125.812236 -194.982377 
L 122.658322 -196.568591 
L 119.504407 -198.154804 
L 116.350493 -199.786206 
L 113.196578 -201.389053 
L 110.042664 -202.910604 
L 106.888749 -204.494189 
L 103.734835 -206.04378 
L 100.580921 -207.589173 
L 97.427006 -209.191764 
L 94.273092 -210.794354 
L 91.119177 -212.396945 
L 87.965263 -213.999535 
L 84.811348 -215.592207 
L 81.657434 -217.17819 
L 78.503519 -218.764173 
L 75.349605 -220.350156 
L 72.195691 -221.93614 
L 69.041776 -223.519959 
L 65.887862 -225.017787 
L 62.733947 -226.64654 
L 59.580033 -228.275293 
L 56.426118 -229.862943 
L 53.272204 -231.443678 
L 50.118289 -232.965905 
L 46.964375 -234.573296 
z
" id="m27780cbc88" style="stroke:#ffffff;stroke-opacity:0.15;"/>
    </defs>
    <g clip-path="url(#p6a9f1abdec)">
     <use style="fill:#dd8452;fill-opacity:0.15;stroke:#ffffff;stroke-opacity:0.15;" x="0" xlink:href="#m27780cbc88" y="363.514219"/>
    </g>
   </g>
   <g id="line2d_15">
    <path clip-path="url(#p6a9f1abdec)" d="M 46.964375 153.137103 
L 46.964375 52.307987 
" style="fill:none;stroke:#4c72b0;stroke-linecap:round;stroke-width:2.625;"/>
   </g>
   <g id="line2d_16">
    <path clip-path="url(#p6a9f1abdec)" d="M 125.023758 174.195036 
L 125.023758 135.19118 
" style="fill:none;stroke:#4c72b0;stroke-linecap:round;stroke-width:2.625;"/>
   </g>
   <g id="line2d_17">
    <path clip-path="url(#p6a9f1abdec)" d="M 203.08314 184.817363 
L 203.08314 158.42752 
" style="fill:none;stroke:#4c72b0;stroke-linecap:round;stroke-width:2.625;"/>
   </g>
   <g id="line2d_18">
    <path clip-path="url(#p6a9f1abdec)" d="M 281.142523 220.385388 
L 281.142523 199.35911 
" style="fill:none;stroke:#4c72b0;stroke-linecap:round;stroke-width:2.625;"/>
   </g>
   <g id="line2d_19">
    <path clip-path="url(#p6a9f1abdec)" d="M 359.201905 273.036074 
L 359.201905 237.365947 
" style="fill:none;stroke:#4c72b0;stroke-linecap:round;stroke-width:2.625;"/>
   </g>
   <g id="line2d_20">
    <path clip-path="url(#p6a9f1abdec)" d="M 46.964375 107.3206 
L 50.118289 108.739146 
L 53.272204 110.157693 
L 56.426118 111.576239 
L 59.580033 112.994785 
L 62.733947 114.413331 
L 65.887862 115.831877 
L 69.041776 117.250424 
L 72.195691 118.66897 
L 75.349605 120.087516 
L 78.503519 121.506062 
L 81.657434 122.924608 
L 84.811348 124.343155 
L 87.965263 125.761701 
L 91.119177 127.180247 
L 94.273092 128.598793 
L 97.427006 130.017339 
L 100.580921 131.435886 
L 103.734835 132.854432 
L 106.888749 134.272978 
L 110.042664 135.691524 
L 113.196578 137.11007 
L 116.350493 138.528617 
L 119.504407 139.947163 
L 122.658322 141.365709 
L 125.812236 142.784255 
L 128.966151 144.202801 
L 132.120065 145.621348 
L 135.27398 147.039894 
L 138.427894 148.45844 
L 141.581808 149.876986 
L 144.735723 151.295532 
L 147.889637 152.714079 
L 151.043552 154.132625 
L 154.197466 155.551171 
L 157.351381 156.969717 
L 160.505295 158.388263 
L 163.65921 159.80681 
L 166.813124 161.225356 
L 169.967038 162.643902 
L 173.120953 164.062448 
L 176.274867 165.480994 
L 179.428782 166.899541 
L 182.582696 168.318087 
L 185.736611 169.736633 
L 188.890525 171.155179 
L 192.04444 172.573725 
L 195.198354 173.992272 
L 198.352268 175.410818 
L 201.506183 176.829364 
L 204.660097 178.24791 
L 207.814012 179.666456 
L 210.967926 181.085003 
L 214.121841 182.503549 
L 217.275755 183.922095 
L 220.42967 185.340641 
L 223.583584 186.759188 
L 226.737498 188.177734 
L 229.891413 189.59628 
L 233.045327 191.014826 
L 236.199242 192.433372 
L 239.353156 193.851919 
L 242.507071 195.270465 
L 245.660985 196.689011 
L 248.8149 198.107557 
L 251.968814 199.526103 
L 255.122728 200.94465 
L 258.276643 202.363196 
L 261.430557 203.781742 
L 264.584472 205.200288 
L 267.738386 206.618834 
L 270.892301 208.037381 
L 274.046215 209.455927 
L 277.20013 210.874473 
L 280.354044 212.293019 
L 283.507958 213.711565 
L 286.661873 215.130112 
L 289.815787 216.548658 
L 292.969702 217.967204 
L 296.123616 219.38575 
L 299.277531 220.804296 
L 302.431445 222.222843 
L 305.58536 223.641389 
L 308.739274 225.059935 
L 311.893189 226.478481 
L 315.047103 227.897027 
L 318.201017 229.315574 
L 321.354932 230.73412 
L 324.508846 232.152666 
L 327.662761 233.571212 
L 330.816675 234.989758 
L 333.97059 236.408305 
L 337.124504 237.826851 
L 340.278419 239.245397 
L 343.432333 240.663943 
L 346.586247 242.082489 
L 349.740162 243.501036 
L 352.894076 244.919582 
L 356.047991 246.338128 
L 359.201905 247.756674 
" style="fill:none;stroke:#4c72b0;stroke-linecap:round;stroke-width:2.25;"/>
   </g>
   <g id="line2d_21">
    <path clip-path="url(#p6a9f1abdec)" d="M 46.964375 155.937912 
L 46.964375 21.499091 
" style="fill:none;stroke:#dd8452;stroke-linecap:round;stroke-width:2.625;"/>
   </g>
   <g id="line2d_22">
    <path clip-path="url(#p6a9f1abdec)" d="M 125.023758 238.610061 
L 125.023758 203.8414 
" style="fill:none;stroke:#dd8452;stroke-linecap:round;stroke-width:2.625;"/>
   </g>
   <g id="line2d_23">
    <path clip-path="url(#p6a9f1abdec)" d="M 203.08314 217.907807 
L 203.08314 195.629374 
" style="fill:none;stroke:#dd8452;stroke-linecap:round;stroke-width:2.625;"/>
   </g>
   <g id="line2d_24">
    <path clip-path="url(#p6a9f1abdec)" d="M 281.142523 247.117308 
L 281.142523 233.255172 
" style="fill:none;stroke:#dd8452;stroke-linecap:round;stroke-width:2.625;"/>
   </g>
   <g id="line2d_25">
    <path clip-path="url(#p6a9f1abdec)" d="M 359.201905 307.480909 
L 359.201905 286.271731 
" style="fill:none;stroke:#dd8452;stroke-linecap:round;stroke-width:2.625;"/>
   </g>
   <g id="line2d_26">
    <path clip-path="url(#p6a9f1abdec)" d="M 46.964375 147.780723 
L 50.118289 149.130873 
L 53.272204 150.481022 
L 56.426118 151.831172 
L 59.580033 153.181322 
L 62.733947 154.531471 
L 65.887862 155.881621 
L 69.041776 157.231771 
L 72.195691 158.58192 
L 75.349605 159.93207 
L 78.503519 161.282219 
L 81.657434 162.632369 
L 84.811348 163.982519 
L 87.965263 165.332668 
L 91.119177 166.682818 
L 94.273092 168.032968 
L 97.427006 169.383117 
L 100.580921 170.733267 
L 103.734835 172.083416 
L 106.888749 173.433566 
L 110.042664 174.783716 
L 113.196578 176.133865 
L 116.350493 177.484015 
L 119.504407 178.834165 
L 122.658322 180.184314 
L 125.812236 181.534464 
L 128.966151 182.884614 
L 132.120065 184.234763 
L 135.27398 185.584913 
L 138.427894 186.935062 
L 141.581808 188.285212 
L 144.735723 189.635362 
L 147.889637 190.985511 
L 151.043552 192.335661 
L 154.197466 193.685811 
L 157.351381 195.03596 
L 160.505295 196.38611 
L 163.65921 197.736259 
L 166.813124 199.086409 
L 169.967038 200.436559 
L 173.120953 201.786708 
L 176.274867 203.136858 
L 179.428782 204.487008 
L 182.582696 205.837157 
L 185.736611 207.187307 
L 188.890525 208.537457 
L 192.04444 209.887606 
L 195.198354 211.237756 
L 198.352268 212.587905 
L 201.506183 213.938055 
L 204.660097 215.288205 
L 207.814012 216.638354 
L 210.967926 217.988504 
L 214.121841 219.338654 
L 217.275755 220.688803 
L 220.42967 222.038953 
L 223.583584 223.389102 
L 226.737498 224.739252 
L 229.891413 226.089402 
L 233.045327 227.439551 
L 236.199242 228.789701 
L 239.353156 230.139851 
L 242.507071 231.49 
L 245.660985 232.84015 
L 248.8149 234.1903 
L 251.968814 235.540449 
L 255.122728 236.890599 
L 258.276643 238.240748 
L 261.430557 239.590898 
L 264.584472 240.941048 
L 267.738386 242.291197 
L 270.892301 243.641347 
L 274.046215 244.991497 
L 277.20013 246.341646 
L 280.354044 247.691796 
L 283.507958 249.041945 
L 286.661873 250.392095 
L 289.815787 251.742245 
L 292.969702 253.092394 
L 296.123616 254.442544 
L 299.277531 255.792694 
L 302.431445 257.142843 
L 305.58536 258.492993 
L 308.739274 259.843143 
L 311.893189 261.193292 
L 315.047103 262.543442 
L 318.201017 263.893591 
L 321.354932 265.243741 
L 324.508846 266.593891 
L 327.662761 267.94404 
L 330.816675 269.29419 
L 333.97059 270.64434 
L 337.124504 271.994489 
L 340.278419 273.344639 
L 343.432333 274.694788 
L 346.586247 276.044938 
L 349.740162 277.395088 
L 352.894076 278.745237 
L 356.047991 280.095387 
L 359.201905 281.445537 
" style="fill:none;stroke:#dd8452;stroke-linecap:round;stroke-width:2.25;"/>
   </g>
   <g id="patch_3">
    <path d="M 46.964375 321.78 
L 46.964375 7.2 
" style="fill:none;stroke:#262626;stroke-linecap:square;stroke-linejoin:miter;stroke-width:1.25;"/>
   </g>
   <g id="patch_4">
    <path d="M 46.964375 321.78 
L 359.201905 321.78 
" style="fill:none;stroke:#262626;stroke-linecap:square;stroke-linejoin:miter;stroke-width:1.25;"/>
   </g>
  </g>
  <g id="legend_1">
   <g id="text_17">
    <!-- a91 -->
    <g style="fill:#262626;" transform="translate(377.071968 169.299453)scale(0.12 -0.12)">
     <defs>
      <path d="M 5.46875 16.546875 
L 13.921875 17.328125 
Q 14.984375 11.375 18.015625 8.6875 
Q 21.046875 6 25.78125 6 
Q 29.828125 6 32.875 7.859375 
Q 35.9375 9.71875 37.890625 12.8125 
Q 39.84375 15.921875 41.15625 21.1875 
Q 42.484375 26.46875 42.484375 31.9375 
Q 42.484375 32.515625 42.4375 33.6875 
Q 39.796875 29.5 35.234375 26.875 
Q 30.671875 24.265625 25.34375 24.265625 
Q 16.453125 24.265625 10.296875 30.703125 
Q 4.15625 37.15625 4.15625 47.703125 
Q 4.15625 58.59375 10.578125 65.234375 
Q 17 71.875 26.65625 71.875 
Q 33.640625 71.875 39.421875 68.109375 
Q 45.21875 64.359375 48.21875 57.390625 
Q 51.21875 50.4375 51.21875 37.25 
Q 51.21875 23.53125 48.234375 15.40625 
Q 45.265625 7.28125 39.375 3.03125 
Q 33.5 -1.21875 25.59375 -1.21875 
Q 17.1875 -1.21875 11.859375 3.4375 
Q 6.546875 8.109375 5.46875 16.546875 
z
M 41.453125 48.140625 
Q 41.453125 55.71875 37.421875 60.15625 
Q 33.40625 64.59375 27.734375 64.59375 
Q 21.875 64.59375 17.53125 59.8125 
Q 13.1875 55.03125 13.1875 47.40625 
Q 13.1875 40.578125 17.3125 36.296875 
Q 21.4375 32.03125 27.484375 32.03125 
Q 33.59375 32.03125 37.515625 36.296875 
Q 41.453125 40.578125 41.453125 48.140625 
z
" id="ArialMT-57"/>
     </defs>
     <use xlink:href="#ArialMT-97"/>
     <use x="55.615234" xlink:href="#ArialMT-57"/>
     <use x="111.230469" xlink:href="#ArialMT-49"/>
    </g>
   </g>
   <g id="PathCollection_3">
    <g>
     <use style="fill:#4c72b0;stroke:#4c72b0;" x="375.036655" xlink:href="#mdfb1958791" y="182.170547"/>
    </g>
   </g>
   <g id="text_18">
    <!-- 1.0 -->
    <g style="fill:#262626;" transform="translate(394.836655 185.058047)scale(0.11 -0.11)">
     <use xlink:href="#ArialMT-49"/>
     <use x="55.615234" xlink:href="#ArialMT-46"/>
     <use x="83.398438" xlink:href="#ArialMT-48"/>
    </g>
   </g>
   <g id="PathCollection_4">
    <g>
     <use style="fill:#dd8452;stroke:#dd8452;" x="375.036655" xlink:href="#m1c2ff5d6d4" y="197.730391"/>
    </g>
   </g>
   <g id="text_19">
    <!-- 2.0 -->
    <g style="fill:#262626;" transform="translate(394.836655 200.617891)scale(0.11 -0.11)">
     <use xlink:href="#ArialMT-50"/>
     <use x="55.615234" xlink:href="#ArialMT-46"/>
     <use x="83.398438" xlink:href="#ArialMT-48"/>
    </g>
   </g>
  </g>
 </g>
 <defs>
  <clipPath id="p6a9f1abdec">
   <rect height="314.58" width="312.23753" x="46.964375" y="7.2"/>
  </clipPath>
 </defs>
</svg>
