<?xml version="1.0" encoding="utf-8" standalone="no"?>
<!DOCTYPE svg PUBLIC "-//W3C//DTD SVG 1.1//EN"
  "http://www.w3.org/Graphics/SVG/1.1/DTD/svg11.dtd">
<!-- Created with matplotlib (https://matplotlib.org/) -->
<svg height="363.514219pt" version="1.1" viewBox="0 0 420.026655 363.514219" width="420.026655pt" xmlns="http://www.w3.org/2000/svg" xmlns:xlink="http://www.w3.org/1999/xlink">
 <metadata>
  <rdf:RDF xmlns:cc="http://creativecommons.org/ns#" xmlns:dc="http://purl.org/dc/elements/1.1/" xmlns:rdf="http://www.w3.org/1999/02/22-rdf-syntax-ns#">
   <cc:Work>
    <dc:type rdf:resource="http://purl.org/dc/dcmitype/StillImage"/>
    <dc:date>2021-03-08T09:36:20.281496</dc:date>
    <dc:format>image/svg+xml</dc:format>
    <dc:creator>
     <cc:Agent>
      <dc:title>Matplotlib v3.3.2, https://matplotlib.org/</dc:title>
     </cc:Agent>
    </dc:creator>
   </cc:Work>
  </rdf:RDF>
 </metadata>
 <defs>
  <style type="text/css">*{stroke-linecap:butt;stroke-linejoin:round;}</style>
 </defs>
 <g id="figure_1">
  <g id="patch_1">
   <path d="M -0 363.514219 
L 420.026655 363.514219 
L 420.026655 0 
L -0 0 
z
" style="fill:#ffffff;"/>
  </g>
  <g id="axes_1">
   <g id="patch_2">
    <path d="M 46.964375 321.78 
L 359.201905 321.78 
L 359.201905 7.2 
L 46.964375 7.2 
z
" style="fill:#ffffff;"/>
   </g>
   <g id="matplotlib.axis_1">
    <g id="xtick_1">
     <g id="line2d_1">
      <defs>
       <path d="M 0 0 
L 0 6 
" id="m4a8a600d45" style="stroke:#262626;stroke-width:1.25;"/>
      </defs>
      <g>
       <use style="fill:#262626;stroke:#262626;stroke-width:1.25;" x="46.964375" xlink:href="#m4a8a600d45" y="321.78"/>
      </g>
     </g>
     <g id="text_1">
      <!-- 1.0 -->
      <g style="fill:#262626;" transform="translate(39.319375 339.153594)scale(0.11 -0.11)">
       <defs>
        <path d="M 37.25 0 
L 28.46875 0 
L 28.46875 56 
Q 25.296875 52.984375 20.140625 49.953125 
Q 14.984375 46.921875 10.890625 45.40625 
L 10.890625 53.90625 
Q 18.265625 57.375 23.78125 62.296875 
Q 29.296875 67.234375 31.59375 71.875 
L 37.25 71.875 
z
" id="ArialMT-49"/>
        <path d="M 9.078125 0 
L 9.078125 10.015625 
L 19.09375 10.015625 
L 19.09375 0 
z
" id="ArialMT-46"/>
        <path d="M 4.15625 35.296875 
Q 4.15625 48 6.765625 55.734375 
Q 9.375 63.484375 14.515625 67.671875 
Q 19.671875 71.875 27.484375 71.875 
Q 33.25 71.875 37.59375 69.546875 
Q 41.9375 67.234375 44.765625 62.859375 
Q 47.609375 58.5 49.21875 52.21875 
Q 50.828125 45.953125 50.828125 35.296875 
Q 50.828125 22.703125 48.234375 14.96875 
Q 45.65625 7.234375 40.5 3 
Q 35.359375 -1.21875 27.484375 -1.21875 
Q 17.140625 -1.21875 11.234375 6.203125 
Q 4.15625 15.140625 4.15625 35.296875 
z
M 13.1875 35.296875 
Q 13.1875 17.671875 17.3125 11.828125 
Q 21.4375 6 27.484375 6 
Q 33.546875 6 37.671875 11.859375 
Q 41.796875 17.71875 41.796875 35.296875 
Q 41.796875 52.984375 37.671875 58.78125 
Q 33.546875 64.59375 27.390625 64.59375 
Q 21.34375 64.59375 17.71875 59.46875 
Q 13.1875 52.9375 13.1875 35.296875 
z
" id="ArialMT-48"/>
       </defs>
       <use xlink:href="#ArialMT-49"/>
       <use x="55.615234" xlink:href="#ArialMT-46"/>
       <use x="83.398438" xlink:href="#ArialMT-48"/>
      </g>
     </g>
    </g>
    <g id="xtick_2">
     <g id="line2d_2">
      <g>
       <use style="fill:#262626;stroke:#262626;stroke-width:1.25;" x="85.994066" xlink:href="#m4a8a600d45" y="321.78"/>
      </g>
     </g>
     <g id="text_2">
      <!-- 1.5 -->
      <g style="fill:#262626;" transform="translate(78.349066 339.153594)scale(0.11 -0.11)">
       <defs>
        <path d="M 4.15625 18.75 
L 13.375 19.53125 
Q 14.40625 12.796875 18.140625 9.390625 
Q 21.875 6 27.15625 6 
Q 33.5 6 37.890625 10.78125 
Q 42.28125 15.578125 42.28125 23.484375 
Q 42.28125 31 38.0625 35.34375 
Q 33.84375 39.703125 27 39.703125 
Q 22.75 39.703125 19.328125 37.765625 
Q 15.921875 35.84375 13.96875 32.765625 
L 5.71875 33.84375 
L 12.640625 70.609375 
L 48.25 70.609375 
L 48.25 62.203125 
L 19.671875 62.203125 
L 15.828125 42.96875 
Q 22.265625 47.46875 29.34375 47.46875 
Q 38.71875 47.46875 45.15625 40.96875 
Q 51.609375 34.46875 51.609375 24.265625 
Q 51.609375 14.546875 45.953125 7.46875 
Q 39.0625 -1.21875 27.15625 -1.21875 
Q 17.390625 -1.21875 11.203125 4.25 
Q 5.03125 9.71875 4.15625 18.75 
z
" id="ArialMT-53"/>
       </defs>
       <use xlink:href="#ArialMT-49"/>
       <use x="55.615234" xlink:href="#ArialMT-46"/>
       <use x="83.398438" xlink:href="#ArialMT-53"/>
      </g>
     </g>
    </g>
    <g id="xtick_3">
     <g id="line2d_3">
      <g>
       <use style="fill:#262626;stroke:#262626;stroke-width:1.25;" x="125.023758" xlink:href="#m4a8a600d45" y="321.78"/>
      </g>
     </g>
     <g id="text_3">
      <!-- 2.0 -->
      <g style="fill:#262626;" transform="translate(117.378758 339.153594)scale(0.11 -0.11)">
       <defs>
        <path d="M 50.34375 8.453125 
L 50.34375 0 
L 3.03125 0 
Q 2.9375 3.171875 4.046875 6.109375 
Q 5.859375 10.9375 9.828125 15.625 
Q 13.8125 20.3125 21.34375 26.46875 
Q 33.015625 36.03125 37.109375 41.625 
Q 41.21875 47.21875 41.21875 52.203125 
Q 41.21875 57.421875 37.46875 61 
Q 33.734375 64.59375 27.734375 64.59375 
Q 21.390625 64.59375 17.578125 60.78125 
Q 13.765625 56.984375 13.71875 50.25 
L 4.6875 51.171875 
Q 5.609375 61.28125 11.65625 66.578125 
Q 17.71875 71.875 27.9375 71.875 
Q 38.234375 71.875 44.234375 66.15625 
Q 50.25 60.453125 50.25 52 
Q 50.25 47.703125 48.484375 43.546875 
Q 46.734375 39.40625 42.65625 34.8125 
Q 38.578125 30.21875 29.109375 22.21875 
Q 21.1875 15.578125 18.9375 13.203125 
Q 16.703125 10.84375 15.234375 8.453125 
z
" id="ArialMT-50"/>
       </defs>
       <use xlink:href="#ArialMT-50"/>
       <use x="55.615234" xlink:href="#ArialMT-46"/>
       <use x="83.398438" xlink:href="#ArialMT-48"/>
      </g>
     </g>
    </g>
    <g id="xtick_4">
     <g id="line2d_4">
      <g>
       <use style="fill:#262626;stroke:#262626;stroke-width:1.25;" x="164.053449" xlink:href="#m4a8a600d45" y="321.78"/>
      </g>
     </g>
     <g id="text_4">
      <!-- 2.5 -->
      <g style="fill:#262626;" transform="translate(156.408449 339.153594)scale(0.11 -0.11)">
       <use xlink:href="#ArialMT-50"/>
       <use x="55.615234" xlink:href="#ArialMT-46"/>
       <use x="83.398438" xlink:href="#ArialMT-53"/>
      </g>
     </g>
    </g>
    <g id="xtick_5">
     <g id="line2d_5">
      <g>
       <use style="fill:#262626;stroke:#262626;stroke-width:1.25;" x="203.08314" xlink:href="#m4a8a600d45" y="321.78"/>
      </g>
     </g>
     <g id="text_5">
      <!-- 3.0 -->
      <g style="fill:#262626;" transform="translate(195.43814 339.153594)scale(0.11 -0.11)">
       <defs>
        <path d="M 4.203125 18.890625 
L 12.984375 20.0625 
Q 14.5 12.59375 18.140625 9.296875 
Q 21.78125 6 27 6 
Q 33.203125 6 37.46875 10.296875 
Q 41.75 14.59375 41.75 20.953125 
Q 41.75 27 37.796875 30.921875 
Q 33.84375 34.859375 27.734375 34.859375 
Q 25.25 34.859375 21.53125 33.890625 
L 22.515625 41.609375 
Q 23.390625 41.5 23.921875 41.5 
Q 29.546875 41.5 34.03125 44.421875 
Q 38.53125 47.359375 38.53125 53.46875 
Q 38.53125 58.296875 35.25 61.46875 
Q 31.984375 64.65625 26.8125 64.65625 
Q 21.6875 64.65625 18.265625 61.421875 
Q 14.84375 58.203125 13.875 51.765625 
L 5.078125 53.328125 
Q 6.6875 62.15625 12.390625 67.015625 
Q 18.109375 71.875 26.609375 71.875 
Q 32.46875 71.875 37.390625 69.359375 
Q 42.328125 66.84375 44.9375 62.5 
Q 47.5625 58.15625 47.5625 53.265625 
Q 47.5625 48.640625 45.0625 44.828125 
Q 42.578125 41.015625 37.703125 38.765625 
Q 44.046875 37.3125 47.5625 32.6875 
Q 51.078125 28.078125 51.078125 21.140625 
Q 51.078125 11.765625 44.234375 5.25 
Q 37.40625 -1.265625 26.953125 -1.265625 
Q 17.53125 -1.265625 11.296875 4.34375 
Q 5.078125 9.96875 4.203125 18.890625 
z
" id="ArialMT-51"/>
       </defs>
       <use xlink:href="#ArialMT-51"/>
       <use x="55.615234" xlink:href="#ArialMT-46"/>
       <use x="83.398438" xlink:href="#ArialMT-48"/>
      </g>
     </g>
    </g>
    <g id="xtick_6">
     <g id="line2d_6">
      <g>
       <use style="fill:#262626;stroke:#262626;stroke-width:1.25;" x="242.112831" xlink:href="#m4a8a600d45" y="321.78"/>
      </g>
     </g>
     <g id="text_6">
      <!-- 3.5 -->
      <g style="fill:#262626;" transform="translate(234.467831 339.153594)scale(0.11 -0.11)">
       <use xlink:href="#ArialMT-51"/>
       <use x="55.615234" xlink:href="#ArialMT-46"/>
       <use x="83.398438" xlink:href="#ArialMT-53"/>
      </g>
     </g>
    </g>
    <g id="xtick_7">
     <g id="line2d_7">
      <g>
       <use style="fill:#262626;stroke:#262626;stroke-width:1.25;" x="281.142523" xlink:href="#m4a8a600d45" y="321.78"/>
      </g>
     </g>
     <g id="text_7">
      <!-- 4.0 -->
      <g style="fill:#262626;" transform="translate(273.497523 339.153594)scale(0.11 -0.11)">
       <defs>
        <path d="M 32.328125 0 
L 32.328125 17.140625 
L 1.265625 17.140625 
L 1.265625 25.203125 
L 33.9375 71.578125 
L 41.109375 71.578125 
L 41.109375 25.203125 
L 50.78125 25.203125 
L 50.78125 17.140625 
L 41.109375 17.140625 
L 41.109375 0 
z
M 32.328125 25.203125 
L 32.328125 57.46875 
L 9.90625 25.203125 
z
" id="ArialMT-52"/>
       </defs>
       <use xlink:href="#ArialMT-52"/>
       <use x="55.615234" xlink:href="#ArialMT-46"/>
       <use x="83.398438" xlink:href="#ArialMT-48"/>
      </g>
     </g>
    </g>
    <g id="xtick_8">
     <g id="line2d_8">
      <g>
       <use style="fill:#262626;stroke:#262626;stroke-width:1.25;" x="320.172214" xlink:href="#m4a8a600d45" y="321.78"/>
      </g>
     </g>
     <g id="text_8">
      <!-- 4.5 -->
      <g style="fill:#262626;" transform="translate(312.527214 339.153594)scale(0.11 -0.11)">
       <use xlink:href="#ArialMT-52"/>
       <use x="55.615234" xlink:href="#ArialMT-46"/>
       <use x="83.398438" xlink:href="#ArialMT-53"/>
      </g>
     </g>
    </g>
    <g id="xtick_9">
     <g id="line2d_9">
      <g>
       <use style="fill:#262626;stroke:#262626;stroke-width:1.25;" x="359.201905" xlink:href="#m4a8a600d45" y="321.78"/>
      </g>
     </g>
     <g id="text_9">
      <!-- 5.0 -->
      <g style="fill:#262626;" transform="translate(351.556905 339.153594)scale(0.11 -0.11)">
       <use xlink:href="#ArialMT-53"/>
       <use x="55.615234" xlink:href="#ArialMT-46"/>
       <use x="83.398438" xlink:href="#ArialMT-48"/>
      </g>
     </g>
    </g>
    <g id="text_10">
     <!-- l6a -->
     <g style="fill:#262626;" transform="translate(195.07689 353.929219)scale(0.12 -0.12)">
      <defs>
       <path d="M 6.390625 0 
L 6.390625 71.578125 
L 15.1875 71.578125 
L 15.1875 0 
z
" id="ArialMT-108"/>
       <path d="M 49.75 54.046875 
L 41.015625 53.375 
Q 39.84375 58.546875 37.703125 60.890625 
Q 34.125 64.65625 28.90625 64.65625 
Q 24.703125 64.65625 21.53125 62.3125 
Q 17.390625 59.28125 14.984375 53.46875 
Q 12.59375 47.65625 12.5 36.921875 
Q 15.671875 41.75 20.265625 44.09375 
Q 24.859375 46.4375 29.890625 46.4375 
Q 38.671875 46.4375 44.84375 39.96875 
Q 51.03125 33.5 51.03125 23.25 
Q 51.03125 16.5 48.125 10.71875 
Q 45.21875 4.9375 40.140625 1.859375 
Q 35.0625 -1.21875 28.609375 -1.21875 
Q 17.625 -1.21875 10.6875 6.859375 
Q 3.765625 14.9375 3.765625 33.5 
Q 3.765625 54.25 11.421875 63.671875 
Q 18.109375 71.875 29.4375 71.875 
Q 37.890625 71.875 43.28125 67.140625 
Q 48.6875 62.40625 49.75 54.046875 
z
M 13.875 23.1875 
Q 13.875 18.65625 15.796875 14.5 
Q 17.71875 10.359375 21.1875 8.171875 
Q 24.65625 6 28.46875 6 
Q 34.03125 6 38.03125 10.484375 
Q 42.046875 14.984375 42.046875 22.703125 
Q 42.046875 30.125 38.078125 34.390625 
Q 34.125 38.671875 28.125 38.671875 
Q 22.171875 38.671875 18.015625 34.390625 
Q 13.875 30.125 13.875 23.1875 
z
" id="ArialMT-54"/>
       <path d="M 40.4375 6.390625 
Q 35.546875 2.25 31.03125 0.53125 
Q 26.515625 -1.171875 21.34375 -1.171875 
Q 12.796875 -1.171875 8.203125 3 
Q 3.609375 7.171875 3.609375 13.671875 
Q 3.609375 17.484375 5.34375 20.625 
Q 7.078125 23.78125 9.890625 25.6875 
Q 12.703125 27.59375 16.21875 28.5625 
Q 18.796875 29.25 24.03125 29.890625 
Q 34.671875 31.15625 39.703125 32.90625 
Q 39.75 34.71875 39.75 35.203125 
Q 39.75 40.578125 37.25 42.78125 
Q 33.890625 45.75 27.25 45.75 
Q 21.046875 45.75 18.09375 43.578125 
Q 15.140625 41.40625 13.71875 35.890625 
L 5.125 37.0625 
Q 6.296875 42.578125 8.984375 45.96875 
Q 11.671875 49.359375 16.75 51.1875 
Q 21.828125 53.03125 28.515625 53.03125 
Q 35.15625 53.03125 39.296875 51.46875 
Q 43.453125 49.90625 45.40625 47.53125 
Q 47.359375 45.171875 48.140625 41.546875 
Q 48.578125 39.3125 48.578125 33.453125 
L 48.578125 21.734375 
Q 48.578125 9.46875 49.140625 6.21875 
Q 49.703125 2.984375 51.375 0 
L 42.1875 0 
Q 40.828125 2.734375 40.4375 6.390625 
z
M 39.703125 26.03125 
Q 34.90625 24.078125 25.34375 22.703125 
Q 19.921875 21.921875 17.671875 20.9375 
Q 15.4375 19.96875 14.203125 18.09375 
Q 12.984375 16.21875 12.984375 13.921875 
Q 12.984375 10.40625 15.640625 8.0625 
Q 18.3125 5.71875 23.4375 5.71875 
Q 28.515625 5.71875 32.46875 7.9375 
Q 36.421875 10.15625 38.28125 14.015625 
Q 39.703125 17 39.703125 22.796875 
z
" id="ArialMT-97"/>
      </defs>
      <use xlink:href="#ArialMT-108"/>
      <use x="22.216797" xlink:href="#ArialMT-54"/>
      <use x="77.832031" xlink:href="#ArialMT-97"/>
     </g>
    </g>
   </g>
   <g id="matplotlib.axis_2">
    <g id="ytick_1">
     <g id="line2d_10">
      <defs>
       <path d="M 0 0 
L -6 0 
" id="md2c6d7745f" style="stroke:#262626;stroke-width:1.25;"/>
      </defs>
      <g>
       <use style="fill:#262626;stroke:#262626;stroke-width:1.25;" x="46.964375" xlink:href="#md2c6d7745f" y="313.579406"/>
      </g>
     </g>
     <g id="text_11">
      <!-- 1.5 -->
      <g style="fill:#262626;" transform="translate(22.174375 317.516203)scale(0.11 -0.11)">
       <use xlink:href="#ArialMT-49"/>
       <use x="55.615234" xlink:href="#ArialMT-46"/>
       <use x="83.398438" xlink:href="#ArialMT-53"/>
      </g>
     </g>
    </g>
    <g id="ytick_2">
     <g id="line2d_11">
      <g>
       <use style="fill:#262626;stroke:#262626;stroke-width:1.25;" x="46.964375" xlink:href="#md2c6d7745f" y="245.004028"/>
      </g>
     </g>
     <g id="text_12">
      <!-- 2.0 -->
      <g style="fill:#262626;" transform="translate(22.174375 248.940825)scale(0.11 -0.11)">
       <use xlink:href="#ArialMT-50"/>
       <use x="55.615234" xlink:href="#ArialMT-46"/>
       <use x="83.398438" xlink:href="#ArialMT-48"/>
      </g>
     </g>
    </g>
    <g id="ytick_3">
     <g id="line2d_12">
      <g>
       <use style="fill:#262626;stroke:#262626;stroke-width:1.25;" x="46.964375" xlink:href="#md2c6d7745f" y="176.42865"/>
      </g>
     </g>
     <g id="text_13">
      <!-- 2.5 -->
      <g style="fill:#262626;" transform="translate(22.174375 180.365446)scale(0.11 -0.11)">
       <use xlink:href="#ArialMT-50"/>
       <use x="55.615234" xlink:href="#ArialMT-46"/>
       <use x="83.398438" xlink:href="#ArialMT-53"/>
      </g>
     </g>
    </g>
    <g id="ytick_4">
     <g id="line2d_13">
      <g>
       <use style="fill:#262626;stroke:#262626;stroke-width:1.25;" x="46.964375" xlink:href="#md2c6d7745f" y="107.853271"/>
      </g>
     </g>
     <g id="text_14">
      <!-- 3.0 -->
      <g style="fill:#262626;" transform="translate(22.174375 111.790068)scale(0.11 -0.11)">
       <use xlink:href="#ArialMT-51"/>
       <use x="55.615234" xlink:href="#ArialMT-46"/>
       <use x="83.398438" xlink:href="#ArialMT-48"/>
      </g>
     </g>
    </g>
    <g id="ytick_5">
     <g id="line2d_14">
      <g>
       <use style="fill:#262626;stroke:#262626;stroke-width:1.25;" x="46.964375" xlink:href="#md2c6d7745f" y="39.277893"/>
      </g>
     </g>
     <g id="text_15">
      <!-- 3.5 -->
      <g style="fill:#262626;" transform="translate(22.174375 43.21469)scale(0.11 -0.11)">
       <use xlink:href="#ArialMT-51"/>
       <use x="55.615234" xlink:href="#ArialMT-46"/>
       <use x="83.398438" xlink:href="#ArialMT-53"/>
      </g>
     </g>
    </g>
    <g id="text_16">
     <!-- l6b -->
     <g style="fill:#262626;" transform="translate(15.789375 172.49625)rotate(-90)scale(0.12 -0.12)">
      <defs>
       <path d="M 14.703125 0 
L 6.546875 0 
L 6.546875 71.578125 
L 15.328125 71.578125 
L 15.328125 46.046875 
Q 20.90625 53.03125 29.546875 53.03125 
Q 34.328125 53.03125 38.59375 51.09375 
Q 42.875 49.171875 45.625 45.671875 
Q 48.390625 42.1875 49.953125 37.25 
Q 51.515625 32.328125 51.515625 26.703125 
Q 51.515625 13.375 44.921875 6.09375 
Q 38.328125 -1.171875 29.109375 -1.171875 
Q 19.921875 -1.171875 14.703125 6.5 
z
M 14.59375 26.3125 
Q 14.59375 17 17.140625 12.84375 
Q 21.296875 6.0625 28.375 6.0625 
Q 34.125 6.0625 38.328125 11.0625 
Q 42.53125 16.0625 42.53125 25.984375 
Q 42.53125 36.140625 38.5 40.96875 
Q 34.46875 45.796875 28.765625 45.796875 
Q 23 45.796875 18.796875 40.796875 
Q 14.59375 35.796875 14.59375 26.3125 
z
" id="ArialMT-98"/>
      </defs>
      <use xlink:href="#ArialMT-108"/>
      <use x="22.216797" xlink:href="#ArialMT-54"/>
      <use x="77.832031" xlink:href="#ArialMT-98"/>
     </g>
    </g>
   </g>
   <g id="PathCollection_1">
    <defs>
     <path d="M 0 3.535534 
C 0.937635 3.535534 1.836992 3.163008 2.5 2.5 
C 3.163008 1.836992 3.535534 0.937635 3.535534 0 
C 3.535534 -0.937635 3.163008 -1.836992 2.5 -2.5 
C 1.836992 -3.163008 0.937635 -3.535534 0 -3.535534 
C -0.937635 -3.535534 -1.836992 -3.163008 -2.5 -2.5 
C -3.163008 -1.836992 -3.535534 -0.937635 -3.535534 0 
C -3.535534 0.937635 -3.163008 1.836992 -2.5 2.5 
C -1.836992 3.163008 -0.937635 3.535534 0 3.535534 
z
" id="mc5c50fb3f0" style="stroke:#4c72b0;"/>
    </defs>
    <g clip-path="url(#p5f26fd3273)">
     <use style="fill:#4c72b0;stroke:#4c72b0;" x="46.964375" xlink:href="#mc5c50fb3f0" y="102.138656"/>
     <use style="fill:#4c72b0;stroke:#4c72b0;" x="125.023758" xlink:href="#mc5c50fb3f0" y="151.876971"/>
     <use style="fill:#4c72b0;stroke:#4c72b0;" x="203.08314" xlink:href="#mc5c50fb3f0" y="168.809163"/>
     <use style="fill:#4c72b0;stroke:#4c72b0;" x="281.142523" xlink:href="#mc5c50fb3f0" y="208.24197"/>
     <use style="fill:#4c72b0;stroke:#4c72b0;" x="359.201905" xlink:href="#mc5c50fb3f0" y="255.141258"/>
    </g>
   </g>
   <g id="PolyCollection_1">
    <defs>
     <path d="M 46.964375 -279.619664 
L 46.964375 -239.183495 
L 50.118289 -237.947228 
L 53.272204 -236.773246 
L 56.426118 -235.64022 
L 59.580033 -234.564061 
L 62.733947 -233.500091 
L 65.887862 -232.436122 
L 69.041776 -231.372153 
L 72.195691 -230.155767 
L 75.349605 -228.839881 
L 78.503519 -227.697902 
L 81.657434 -226.450012 
L 84.811348 -225.207676 
L 87.965263 -224.04623 
L 91.119177 -222.92922 
L 94.273092 -221.688225 
L 97.427006 -220.44723 
L 100.580921 -219.206235 
L 103.734835 -217.966156 
L 106.888749 -216.728593 
L 110.042664 -215.542545 
L 113.196578 -214.335289 
L 116.350493 -213.098287 
L 119.504407 -211.862118 
L 122.658322 -210.699652 
L 125.812236 -209.461834 
L 128.966151 -208.349767 
L 132.120065 -207.335138 
L 135.27398 -206.065307 
L 138.427894 -204.768936 
L 141.581808 -203.472673 
L 144.735723 -202.17641 
L 147.889637 -200.893401 
L 151.043552 -199.695531 
L 154.197466 -198.497937 
L 157.351381 -197.303794 
L 160.505295 -195.993174 
L 163.65921 -194.837895 
L 166.813124 -193.556414 
L 169.967038 -192.220094 
L 173.120953 -190.883775 
L 176.274867 -189.689825 
L 179.428782 -188.48269 
L 182.582696 -187.124617 
L 185.736611 -186.004277 
L 188.890525 -184.739077 
L 192.04444 -183.442961 
L 195.198354 -182.113442 
L 198.352268 -180.785415 
L 201.506183 -179.504257 
L 204.660097 -178.264415 
L 207.814012 -177.020664 
L 210.967926 -175.782692 
L 214.121841 -174.539299 
L 217.275755 -173.132007 
L 220.42967 -171.90005 
L 223.583584 -170.64038 
L 226.737498 -169.246594 
L 229.891413 -167.85391 
L 233.045327 -166.533949 
L 236.199242 -165.081878 
L 239.353156 -163.789072 
L 242.507071 -162.437195 
L 245.660985 -161.112807 
L 248.8149 -159.705137 
L 251.968814 -158.263413 
L 255.122728 -156.892852 
L 258.276643 -155.506412 
L 261.430557 -154.004032 
L 264.584472 -152.426159 
L 267.738386 -150.999314 
L 270.892301 -149.396413 
L 274.046215 -147.829892 
L 277.20013 -146.259132 
L 280.354044 -144.766306 
L 283.507958 -143.269682 
L 286.661873 -141.777389 
L 289.815787 -140.249897 
L 292.969702 -138.698922 
L 296.123616 -137.13873 
L 299.277531 -135.557309 
L 302.431445 -134.014325 
L 305.58536 -132.453494 
L 308.739274 -130.892662 
L 311.893189 -129.248029 
L 315.047103 -127.536249 
L 318.201017 -125.698397 
L 321.354932 -124.026893 
L 324.508846 -122.411583 
L 327.662761 -120.768843 
L 330.816675 -118.891788 
L 333.97059 -117.015226 
L 337.124504 -115.342601 
L 340.278419 -113.713429 
L 343.432333 -112.092878 
L 346.586247 -110.511817 
L 349.740162 -108.909322 
L 352.894076 -107.259933 
L 356.047991 -105.368933 
L 359.201905 -103.480513 
L 359.201905 -129.261138 
L 359.201905 -129.261138 
L 356.047991 -130.433411 
L 352.894076 -131.663676 
L 349.740162 -132.885141 
L 346.586247 -134.190543 
L 343.432333 -135.327528 
L 340.278419 -136.488182 
L 337.124504 -137.809018 
L 333.97059 -139.071803 
L 330.816675 -140.251981 
L 327.662761 -141.435555 
L 324.508846 -142.656298 
L 321.354932 -143.877042 
L 318.201017 -145.123305 
L 315.047103 -146.43752 
L 311.893189 -147.751736 
L 308.739274 -149.065951 
L 305.58536 -150.304395 
L 302.431445 -151.600237 
L 299.277531 -152.905793 
L 296.123616 -154.117907 
L 292.969702 -155.333129 
L 289.815787 -156.718759 
L 286.661873 -157.896984 
L 283.507958 -159.065239 
L 280.354044 -160.303469 
L 277.20013 -161.771056 
L 274.046215 -163.064779 
L 270.892301 -164.387513 
L 267.738386 -165.703874 
L 264.584472 -167.107564 
L 261.430557 -168.606015 
L 258.276643 -170.099064 
L 255.122728 -171.432413 
L 251.968814 -172.742185 
L 248.8149 -174.064751 
L 245.660985 -175.446392 
L 242.507071 -176.998128 
L 239.353156 -178.438504 
L 236.199242 -179.89171 
L 233.045327 -181.246772 
L 229.891413 -182.82979 
L 226.737498 -184.26261 
L 223.583584 -185.796797 
L 220.42967 -187.29932 
L 217.275755 -189.011489 
L 214.121841 -190.600713 
L 210.967926 -192.026301 
L 207.814012 -193.600521 
L 204.660097 -195.196831 
L 201.506183 -196.717142 
L 198.352268 -198.257213 
L 195.198354 -199.961562 
L 192.04444 -201.591504 
L 188.890525 -203.257257 
L 185.736611 -204.895476 
L 182.582696 -206.609372 
L 179.428782 -208.287834 
L 176.274867 -209.963259 
L 173.120953 -211.699748 
L 169.967038 -213.483869 
L 166.813124 -215.230911 
L 163.65921 -216.962059 
L 160.505295 -218.72835 
L 157.351381 -220.478003 
L 154.197466 -222.223018 
L 151.043552 -223.729109 
L 147.889637 -225.232672 
L 144.735723 -226.737497 
L 141.581808 -228.411595 
L 138.427894 -230.085693 
L 135.27398 -231.746489 
L 132.120065 -233.43221 
L 128.966151 -235.176167 
L 125.812236 -236.920362 
L 122.658322 -238.664557 
L 119.504407 -240.506068 
L 116.350493 -242.27805 
L 113.196578 -244.050031 
L 110.042664 -245.819668 
L 106.888749 -247.58741 
L 103.734835 -249.355153 
L 100.580921 -251.081694 
L 97.427006 -252.774538 
L 94.273092 -254.465447 
L 91.119177 -256.15385 
L 87.965263 -257.84173 
L 84.811348 -259.477816 
L 81.657434 -261.101222 
L 78.503519 -262.724191 
L 75.349605 -264.453017 
L 72.195691 -266.091596 
L 69.041776 -267.726481 
L 65.887862 -269.361367 
L 62.733947 -271.035336 
L 59.580033 -272.752201 
L 56.426118 -274.469067 
L 53.272204 -276.185933 
L 50.118289 -277.902799 
L 46.964375 -279.619664 
z
" id="mc4a8189d12" style="stroke:#ffffff;stroke-opacity:0.15;"/>
    </defs>
    <g clip-path="url(#p5f26fd3273)">
     <use style="fill:#4c72b0;fill-opacity:0.15;stroke:#ffffff;stroke-opacity:0.15;" x="0" xlink:href="#mc4a8189d12" y="363.514219"/>
    </g>
   </g>
   <g id="PathCollection_2">
    <defs>
     <path d="M 0 3.535534 
C 0.937635 3.535534 1.836992 3.163008 2.5 2.5 
C 3.163008 1.836992 3.535534 0.937635 3.535534 0 
C 3.535534 -0.937635 3.163008 -1.836992 2.5 -2.5 
C 1.836992 -3.163008 0.937635 -3.535534 0 -3.535534 
C -0.937635 -3.535534 -1.836992 -3.163008 -2.5 -2.5 
C -3.163008 -1.836992 -3.535534 -0.937635 -3.535534 0 
C -3.535534 0.937635 -3.163008 1.836992 -2.5 2.5 
C -1.836992 3.163008 -0.937635 3.535534 0 3.535534 
z
" id="m3b89c4ab9c" style="stroke:#dd8452;"/>
    </defs>
    <g clip-path="url(#p5f26fd3273)">
     <use style="fill:#dd8452;stroke:#dd8452;" x="46.964375" xlink:href="#m3b89c4ab9c" y="82.454983"/>
     <use style="fill:#dd8452;stroke:#dd8452;" x="125.023758" xlink:href="#m3b89c4ab9c" y="219.7809"/>
     <use style="fill:#dd8452;stroke:#dd8452;" x="203.08314" xlink:href="#m3b89c4ab9c" y="205.426238"/>
     <use style="fill:#dd8452;stroke:#dd8452;" x="281.142523" xlink:href="#m3b89c4ab9c" y="239.761821"/>
     <use style="fill:#dd8452;stroke:#dd8452;" x="359.201905" xlink:href="#m3b89c4ab9c" y="297.351645"/>
    </g>
   </g>
   <g id="PolyCollection_2">
    <defs>
     <path d="M 46.964375 -237.141002 
L 46.964375 -199.061521 
L 50.118289 -197.949634 
L 53.272204 -196.837748 
L 56.426118 -195.725861 
L 59.580033 -194.613974 
L 62.733947 -193.495817 
L 65.887862 -192.348146 
L 69.041776 -191.200475 
L 72.195691 -190.052805 
L 75.349605 -188.905134 
L 78.503519 -187.784199 
L 81.657434 -186.674856 
L 84.811348 -185.565512 
L 87.965263 -184.456169 
L 91.119177 -183.346825 
L 94.273092 -182.237482 
L 97.427006 -181.128138 
L 100.580921 -180.015311 
L 103.734835 -178.83825 
L 106.888749 -177.66119 
L 110.042664 -176.465692 
L 113.196578 -175.252853 
L 116.350493 -174.041481 
L 119.504407 -172.955547 
L 122.658322 -171.856291 
L 125.812236 -170.776178 
L 128.966151 -169.569088 
L 132.120065 -168.361998 
L 135.27398 -167.155238 
L 138.427894 -165.948933 
L 141.581808 -164.871307 
L 144.735723 -163.809522 
L 147.889637 -162.748516 
L 151.043552 -161.60215 
L 154.197466 -160.430614 
L 157.351381 -159.256141 
L 160.505295 -158.081669 
L 163.65921 -156.902976 
L 166.813124 -155.728358 
L 169.967038 -154.539412 
L 173.120953 -153.351019 
L 176.274867 -152.163606 
L 179.428782 -151.03763 
L 182.582696 -149.957687 
L 185.736611 -148.876743 
L 188.890525 -147.693137 
L 192.04444 -146.434957 
L 195.198354 -145.292975 
L 198.352268 -144.114366 
L 201.506183 -142.956753 
L 204.660097 -141.770149 
L 207.814012 -140.552914 
L 210.967926 -139.309832 
L 214.121841 -138.119939 
L 217.275755 -136.903541 
L 220.42967 -135.634856 
L 223.583584 -134.434506 
L 226.737498 -133.160541 
L 229.891413 -132.030008 
L 233.045327 -130.77234 
L 236.199242 -129.583251 
L 239.353156 -128.346089 
L 242.507071 -127.075398 
L 245.660985 -125.857996 
L 248.8149 -124.638457 
L 251.968814 -123.308766 
L 255.122728 -121.920524 
L 258.276643 -120.604244 
L 261.430557 -119.306476 
L 264.584472 -118.013308 
L 267.738386 -116.614226 
L 270.892301 -115.279804 
L 274.046215 -113.994513 
L 277.20013 -112.727944 
L 280.354044 -111.385763 
L 283.507958 -109.856007 
L 286.661873 -108.468205 
L 289.815787 -107.007739 
L 292.969702 -105.560107 
L 296.123616 -104.123102 
L 299.277531 -102.625281 
L 302.431445 -101.096103 
L 305.58536 -99.642263 
L 308.739274 -98.164971 
L 311.893189 -96.673825 
L 315.047103 -95.173223 
L 318.201017 -93.666933 
L 321.354932 -92.054956 
L 324.508846 -90.568906 
L 327.662761 -89.136614 
L 330.816675 -87.627779 
L 333.97059 -86.141778 
L 337.124504 -84.533311 
L 340.278419 -82.92763 
L 343.432333 -81.321682 
L 346.586247 -79.688117 
L 349.740162 -78.083168 
L 352.894076 -76.497326 
L 356.047991 -74.890485 
L 359.201905 -73.3471 
L 359.201905 -90.151041 
L 359.201905 -90.151041 
L 356.047991 -91.360623 
L 352.894076 -92.568317 
L 349.740162 -93.801707 
L 346.586247 -94.987736 
L 343.432333 -96.242937 
L 340.278419 -97.422628 
L 337.124504 -98.665832 
L 333.97059 -99.823006 
L 330.816675 -101.033873 
L 327.662761 -102.242284 
L 324.508846 -103.407014 
L 321.354932 -104.65961 
L 318.201017 -105.806211 
L 315.047103 -107.077752 
L 311.893189 -108.388409 
L 308.739274 -109.692717 
L 305.58536 -110.997026 
L 302.431445 -112.281857 
L 299.277531 -113.601548 
L 296.123616 -114.909952 
L 292.969702 -116.163649 
L 289.815787 -117.517189 
L 286.661873 -118.689192 
L 283.507958 -120.047557 
L 280.354044 -121.297002 
L 277.20013 -122.545824 
L 274.046215 -123.95489 
L 270.892301 -125.393482 
L 267.738386 -126.798199 
L 264.584472 -128.204053 
L 261.430557 -129.642425 
L 258.276643 -131.061267 
L 255.122728 -132.49536 
L 251.968814 -133.877878 
L 248.8149 -135.396074 
L 245.660985 -136.768111 
L 242.507071 -138.242585 
L 239.353156 -139.70947 
L 236.199242 -141.304099 
L 233.045327 -142.744879 
L 229.891413 -144.204972 
L 226.737498 -145.668483 
L 223.583584 -147.281362 
L 220.42967 -148.778603 
L 217.275755 -150.24321 
L 214.121841 -151.806791 
L 210.967926 -153.383568 
L 207.814012 -154.990763 
L 204.660097 -156.610567 
L 201.506183 -158.176277 
L 198.352268 -159.776084 
L 195.198354 -161.390838 
L 192.04444 -162.962112 
L 188.890525 -164.559215 
L 185.736611 -166.156318 
L 182.582696 -167.753421 
L 179.428782 -169.370709 
L 176.274867 -170.982357 
L 173.120953 -172.698715 
L 169.967038 -174.35079 
L 166.813124 -175.972071 
L 163.65921 -177.593352 
L 160.505295 -179.214633 
L 157.351381 -180.942344 
L 154.197466 -182.718772 
L 151.043552 -184.383242 
L 147.889637 -185.919537 
L 144.735723 -187.45578 
L 141.581808 -188.992023 
L 138.427894 -190.552075 
L 135.27398 -192.170461 
L 132.120065 -193.788848 
L 128.966151 -195.36592 
L 125.812236 -196.926826 
L 122.658322 -198.487731 
L 119.504407 -200.048636 
L 116.350493 -201.609542 
L 113.196578 -203.183988 
L 110.042664 -204.881953 
L 106.888749 -206.57883 
L 103.734835 -208.265772 
L 100.580921 -209.840379 
L 97.427006 -211.413265 
L 94.273092 -212.985867 
L 91.119177 -214.597178 
L 87.965263 -216.23192 
L 84.811348 -217.866662 
L 81.657434 -219.455904 
L 78.503519 -221.00871 
L 75.349605 -222.561516 
L 72.195691 -224.114323 
L 69.041776 -225.667129 
L 65.887862 -227.344627 
L 62.733947 -229.025218 
L 59.580033 -230.705809 
L 56.426118 -232.386399 
L 53.272204 -233.978061 
L 50.118289 -235.559532 
L 46.964375 -237.141002 
z
" id="m0a0602d08c" style="stroke:#ffffff;stroke-opacity:0.15;"/>
    </defs>
    <g clip-path="url(#p5f26fd3273)">
     <use style="fill:#dd8452;fill-opacity:0.15;stroke:#ffffff;stroke-opacity:0.15;" x="0" xlink:href="#m0a0602d08c" y="363.514219"/>
    </g>
   </g>
   <g id="line2d_15">
    <path clip-path="url(#p5f26fd3273)" d="M 46.964375 153.641623 
L 46.964375 44.992508 
" style="fill:none;stroke:#4c72b0;stroke-linecap:round;stroke-width:2.625;"/>
   </g>
   <g id="line2d_16">
    <path clip-path="url(#p5f26fd3273)" d="M 125.023758 171.348992 
L 125.023758 130.711731 
" style="fill:none;stroke:#4c72b0;stroke-linecap:round;stroke-width:2.625;"/>
   </g>
   <g id="line2d_17">
    <path clip-path="url(#p5f26fd3273)" d="M 203.08314 182.524239 
L 203.08314 154.586122 
" style="fill:none;stroke:#4c72b0;stroke-linecap:round;stroke-width:2.625;"/>
   </g>
   <g id="line2d_18">
    <path clip-path="url(#p5f26fd3273)" d="M 281.142523 218.375101 
L 281.142523 197.631638 
" style="fill:none;stroke:#4c72b0;stroke-linecap:round;stroke-width:2.625;"/>
   </g>
   <g id="line2d_19">
    <path clip-path="url(#p5f26fd3273)" d="M 359.201905 273.626795 
L 359.201905 238.444644 
" style="fill:none;stroke:#4c72b0;stroke-linecap:round;stroke-width:2.625;"/>
   </g>
   <g id="line2d_20">
    <path clip-path="url(#p5f26fd3273)" d="M 46.964375 103.972157 
L 50.118289 105.419318 
L 53.272204 106.86648 
L 56.426118 108.313641 
L 59.580033 109.760803 
L 62.733947 111.207964 
L 65.887862 112.655126 
L 69.041776 114.102287 
L 72.195691 115.549449 
L 75.349605 116.99661 
L 78.503519 118.443772 
L 81.657434 119.890933 
L 84.811348 121.338095 
L 87.965263 122.785256 
L 91.119177 124.232418 
L 94.273092 125.679579 
L 97.427006 127.126741 
L 100.580921 128.573902 
L 103.734835 130.021064 
L 106.888749 131.468225 
L 110.042664 132.915387 
L 113.196578 134.362548 
L 116.350493 135.80971 
L 119.504407 137.256871 
L 122.658322 138.704033 
L 125.812236 140.151194 
L 128.966151 141.598356 
L 132.120065 143.045517 
L 135.27398 144.492679 
L 138.427894 145.93984 
L 141.581808 147.387002 
L 144.735723 148.834163 
L 147.889637 150.281325 
L 151.043552 151.728486 
L 154.197466 153.175648 
L 157.351381 154.622809 
L 160.505295 156.069971 
L 163.65921 157.517132 
L 166.813124 158.964294 
L 169.967038 160.411455 
L 173.120953 161.858617 
L 176.274867 163.305778 
L 179.428782 164.75294 
L 182.582696 166.200101 
L 185.736611 167.647263 
L 188.890525 169.094424 
L 192.04444 170.541586 
L 195.198354 171.988747 
L 198.352268 173.435908 
L 201.506183 174.88307 
L 204.660097 176.330231 
L 207.814012 177.777393 
L 210.967926 179.224554 
L 214.121841 180.671716 
L 217.275755 182.118877 
L 220.42967 183.566039 
L 223.583584 185.0132 
L 226.737498 186.460362 
L 229.891413 187.907523 
L 233.045327 189.354685 
L 236.199242 190.801846 
L 239.353156 192.249008 
L 242.507071 193.696169 
L 245.660985 195.143331 
L 248.8149 196.590492 
L 251.968814 198.037654 
L 255.122728 199.484815 
L 258.276643 200.931977 
L 261.430557 202.379138 
L 264.584472 203.8263 
L 267.738386 205.273461 
L 270.892301 206.720623 
L 274.046215 208.167784 
L 277.20013 209.614946 
L 280.354044 211.062107 
L 283.507958 212.509269 
L 286.661873 213.95643 
L 289.815787 215.403592 
L 292.969702 216.850753 
L 296.123616 218.297915 
L 299.277531 219.745076 
L 302.431445 221.192238 
L 305.58536 222.639399 
L 308.739274 224.086561 
L 311.893189 225.533722 
L 315.047103 226.980884 
L 318.201017 228.428045 
L 321.354932 229.875207 
L 324.508846 231.322368 
L 327.662761 232.76953 
L 330.816675 234.216691 
L 333.97059 235.663853 
L 337.124504 237.111014 
L 340.278419 238.558176 
L 343.432333 240.005337 
L 346.586247 241.452499 
L 349.740162 242.89966 
L 352.894076 244.346822 
L 356.047991 245.793983 
L 359.201905 247.241145 
" style="fill:none;stroke:#4c72b0;stroke-linecap:round;stroke-width:2.25;"/>
   </g>
   <g id="line2d_21">
    <path clip-path="url(#p5f26fd3273)" d="M 46.964375 148.490532 
L 46.964375 21.499091 
" style="fill:none;stroke:#dd8452;stroke-linecap:round;stroke-width:2.625;"/>
   </g>
   <g id="line2d_22">
    <path clip-path="url(#p5f26fd3273)" d="M 125.023758 237.910023 
L 125.023758 201.651777 
" style="fill:none;stroke:#dd8452;stroke-linecap:round;stroke-width:2.625;"/>
   </g>
   <g id="line2d_23">
    <path clip-path="url(#p5f26fd3273)" d="M 203.08314 216.398299 
L 203.08314 194.052522 
" style="fill:none;stroke:#dd8452;stroke-linecap:round;stroke-width:2.625;"/>
   </g>
   <g id="line2d_24">
    <path clip-path="url(#p5f26fd3273)" d="M 281.142523 245.616635 
L 281.142523 232.931714 
" style="fill:none;stroke:#dd8452;stroke-linecap:round;stroke-width:2.625;"/>
   </g>
   <g id="line2d_25">
    <path clip-path="url(#p5f26fd3273)" d="M 359.201905 307.480909 
L 359.201905 287.222381 
" style="fill:none;stroke:#dd8452;stroke-linecap:round;stroke-width:2.625;"/>
   </g>
   <g id="line2d_26">
    <path clip-path="url(#p5f26fd3273)" d="M 46.964375 145.248452 
L 50.118289 146.625837 
L 53.272204 148.003223 
L 56.426118 149.380608 
L 59.580033 150.757993 
L 62.733947 152.135378 
L 65.887862 153.512763 
L 69.041776 154.890149 
L 72.195691 156.267534 
L 75.349605 157.644919 
L 78.503519 159.022304 
L 81.657434 160.399689 
L 84.811348 161.777075 
L 87.965263 163.15446 
L 91.119177 164.531845 
L 94.273092 165.90923 
L 97.427006 167.286615 
L 100.580921 168.664001 
L 103.734835 170.041386 
L 106.888749 171.418771 
L 110.042664 172.796156 
L 113.196578 174.173542 
L 116.350493 175.550927 
L 119.504407 176.928312 
L 122.658322 178.305697 
L 125.812236 179.683082 
L 128.966151 181.060468 
L 132.120065 182.437853 
L 135.27398 183.815238 
L 138.427894 185.192623 
L 141.581808 186.570008 
L 144.735723 187.947394 
L 147.889637 189.324779 
L 151.043552 190.702164 
L 154.197466 192.079549 
L 157.351381 193.456934 
L 160.505295 194.83432 
L 163.65921 196.211705 
L 166.813124 197.58909 
L 169.967038 198.966475 
L 173.120953 200.34386 
L 176.274867 201.721246 
L 179.428782 203.098631 
L 182.582696 204.476016 
L 185.736611 205.853401 
L 188.890525 207.230787 
L 192.04444 208.608172 
L 195.198354 209.985557 
L 198.352268 211.362942 
L 201.506183 212.740327 
L 204.660097 214.117713 
L 207.814012 215.495098 
L 210.967926 216.872483 
L 214.121841 218.249868 
L 217.275755 219.627253 
L 220.42967 221.004639 
L 223.583584 222.382024 
L 226.737498 223.759409 
L 229.891413 225.136794 
L 233.045327 226.514179 
L 236.199242 227.891565 
L 239.353156 229.26895 
L 242.507071 230.646335 
L 245.660985 232.02372 
L 248.8149 233.401105 
L 251.968814 234.778491 
L 255.122728 236.155876 
L 258.276643 237.533261 
L 261.430557 238.910646 
L 264.584472 240.288032 
L 267.738386 241.665417 
L 270.892301 243.042802 
L 274.046215 244.420187 
L 277.20013 245.797572 
L 280.354044 247.174958 
L 283.507958 248.552343 
L 286.661873 249.929728 
L 289.815787 251.307113 
L 292.969702 252.684498 
L 296.123616 254.061884 
L 299.277531 255.439269 
L 302.431445 256.816654 
L 305.58536 258.194039 
L 308.739274 259.571424 
L 311.893189 260.94881 
L 315.047103 262.326195 
L 318.201017 263.70358 
L 321.354932 265.080965 
L 324.508846 266.45835 
L 327.662761 267.835736 
L 330.816675 269.213121 
L 333.97059 270.590506 
L 337.124504 271.967891 
L 340.278419 273.345277 
L 343.432333 274.722662 
L 346.586247 276.100047 
L 349.740162 277.477432 
L 352.894076 278.854817 
L 356.047991 280.232203 
L 359.201905 281.609588 
" style="fill:none;stroke:#dd8452;stroke-linecap:round;stroke-width:2.25;"/>
   </g>
   <g id="patch_3">
    <path d="M 46.964375 321.78 
L 46.964375 7.2 
" style="fill:none;stroke:#262626;stroke-linecap:square;stroke-linejoin:miter;stroke-width:1.25;"/>
   </g>
   <g id="patch_4">
    <path d="M 46.964375 321.78 
L 359.201905 321.78 
" style="fill:none;stroke:#262626;stroke-linecap:square;stroke-linejoin:miter;stroke-width:1.25;"/>
   </g>
  </g>
  <g id="legend_1">
   <g id="text_17">
    <!-- a91 -->
    <g style="fill:#262626;" transform="translate(377.071968 169.299453)scale(0.12 -0.12)">
     <defs>
      <path d="M 5.46875 16.546875 
L 13.921875 17.328125 
Q 14.984375 11.375 18.015625 8.6875 
Q 21.046875 6 25.78125 6 
Q 29.828125 6 32.875 7.859375 
Q 35.9375 9.71875 37.890625 12.8125 
Q 39.84375 15.921875 41.15625 21.1875 
Q 42.484375 26.46875 42.484375 31.9375 
Q 42.484375 32.515625 42.4375 33.6875 
Q 39.796875 29.5 35.234375 26.875 
Q 30.671875 24.265625 25.34375 24.265625 
Q 16.453125 24.265625 10.296875 30.703125 
Q 4.15625 37.15625 4.15625 47.703125 
Q 4.15625 58.59375 10.578125 65.234375 
Q 17 71.875 26.65625 71.875 
Q 33.640625 71.875 39.421875 68.109375 
Q 45.21875 64.359375 48.21875 57.390625 
Q 51.21875 50.4375 51.21875 37.25 
Q 51.21875 23.53125 48.234375 15.40625 
Q 45.265625 7.28125 39.375 3.03125 
Q 33.5 -1.21875 25.59375 -1.21875 
Q 17.1875 -1.21875 11.859375 3.4375 
Q 6.546875 8.109375 5.46875 16.546875 
z
M 41.453125 48.140625 
Q 41.453125 55.71875 37.421875 60.15625 
Q 33.40625 64.59375 27.734375 64.59375 
Q 21.875 64.59375 17.53125 59.8125 
Q 13.1875 55.03125 13.1875 47.40625 
Q 13.1875 40.578125 17.3125 36.296875 
Q 21.4375 32.03125 27.484375 32.03125 
Q 33.59375 32.03125 37.515625 36.296875 
Q 41.453125 40.578125 41.453125 48.140625 
z
" id="ArialMT-57"/>
     </defs>
     <use xlink:href="#ArialMT-97"/>
     <use x="55.615234" xlink:href="#ArialMT-57"/>
     <use x="111.230469" xlink:href="#ArialMT-49"/>
    </g>
   </g>
   <g id="PathCollection_3">
    <g>
     <use style="fill:#4c72b0;stroke:#4c72b0;" x="375.036655" xlink:href="#mc5c50fb3f0" y="182.170547"/>
    </g>
   </g>
   <g id="text_18">
    <!-- 1.0 -->
    <g style="fill:#262626;" transform="translate(394.836655 185.058047)scale(0.11 -0.11)">
     <use xlink:href="#ArialMT-49"/>
     <use x="55.615234" xlink:href="#ArialMT-46"/>
     <use x="83.398438" xlink:href="#ArialMT-48"/>
    </g>
   </g>
   <g id="PathCollection_4">
    <g>
     <use style="fill:#dd8452;stroke:#dd8452;" x="375.036655" xlink:href="#m3b89c4ab9c" y="197.730391"/>
    </g>
   </g>
   <g id="text_19">
    <!-- 2.0 -->
    <g style="fill:#262626;" transform="translate(394.836655 200.617891)scale(0.11 -0.11)">
     <use xlink:href="#ArialMT-50"/>
     <use x="55.615234" xlink:href="#ArialMT-46"/>
     <use x="83.398438" xlink:href="#ArialMT-48"/>
    </g>
   </g>
  </g>
 </g>
 <defs>
  <clipPath id="p5f26fd3273">
   <rect height="314.58" width="312.23753" x="46.964375" y="7.2"/>
  </clipPath>
 </defs>
</svg>
