<?xml version="1.0" encoding="utf-8" standalone="no"?>
<!DOCTYPE svg PUBLIC "-//W3C//DTD SVG 1.1//EN"
  "http://www.w3.org/Graphics/SVG/1.1/DTD/svg11.dtd">
<!-- Created with matplotlib (https://matplotlib.org/) -->
<svg height="363.514219pt" version="1.1" viewBox="0 0 420.026655 363.514219" width="420.026655pt" xmlns="http://www.w3.org/2000/svg" xmlns:xlink="http://www.w3.org/1999/xlink">
 <metadata>
  <rdf:RDF xmlns:cc="http://creativecommons.org/ns#" xmlns:dc="http://purl.org/dc/elements/1.1/" xmlns:rdf="http://www.w3.org/1999/02/22-rdf-syntax-ns#">
   <cc:Work>
    <dc:type rdf:resource="http://purl.org/dc/dcmitype/StillImage"/>
    <dc:date>2021-03-11T19:31:09.645882</dc:date>
    <dc:format>image/svg+xml</dc:format>
    <dc:creator>
     <cc:Agent>
      <dc:title>Matplotlib v3.3.2, https://matplotlib.org/</dc:title>
     </cc:Agent>
    </dc:creator>
   </cc:Work>
  </rdf:RDF>
 </metadata>
 <defs>
  <style type="text/css">*{stroke-linecap:butt;stroke-linejoin:round;}</style>
 </defs>
 <g id="figure_1">
  <g id="patch_1">
   <path d="M -0 363.514219 
L 420.026655 363.514219 
L 420.026655 0 
L -0 0 
z
" style="fill:#ffffff;"/>
  </g>
  <g id="axes_1">
   <g id="patch_2">
    <path d="M 46.964375 321.78 
L 359.201905 321.78 
L 359.201905 7.2 
L 46.964375 7.2 
z
" style="fill:#ffffff;"/>
   </g>
   <g id="matplotlib.axis_1">
    <g id="xtick_1">
     <g id="line2d_1">
      <defs>
       <path d="M 0 0 
L 0 6 
" id="m674d9a05c2" style="stroke:#262626;stroke-width:1.25;"/>
      </defs>
      <g>
       <use style="fill:#262626;stroke:#262626;stroke-width:1.25;" x="46.964375" xlink:href="#m674d9a05c2" y="321.78"/>
      </g>
     </g>
     <g id="text_1">
      <!-- 1.0 -->
      <g style="fill:#262626;" transform="translate(39.319375 339.153594)scale(0.11 -0.11)">
       <defs>
        <path d="M 37.25 0 
L 28.46875 0 
L 28.46875 56 
Q 25.296875 52.984375 20.140625 49.953125 
Q 14.984375 46.921875 10.890625 45.40625 
L 10.890625 53.90625 
Q 18.265625 57.375 23.78125 62.296875 
Q 29.296875 67.234375 31.59375 71.875 
L 37.25 71.875 
z
" id="ArialMT-49"/>
        <path d="M 9.078125 0 
L 9.078125 10.015625 
L 19.09375 10.015625 
L 19.09375 0 
z
" id="ArialMT-46"/>
        <path d="M 4.15625 35.296875 
Q 4.15625 48 6.765625 55.734375 
Q 9.375 63.484375 14.515625 67.671875 
Q 19.671875 71.875 27.484375 71.875 
Q 33.25 71.875 37.59375 69.546875 
Q 41.9375 67.234375 44.765625 62.859375 
Q 47.609375 58.5 49.21875 52.21875 
Q 50.828125 45.953125 50.828125 35.296875 
Q 50.828125 22.703125 48.234375 14.96875 
Q 45.65625 7.234375 40.5 3 
Q 35.359375 -1.21875 27.484375 -1.21875 
Q 17.140625 -1.21875 11.234375 6.203125 
Q 4.15625 15.140625 4.15625 35.296875 
z
M 13.1875 35.296875 
Q 13.1875 17.671875 17.3125 11.828125 
Q 21.4375 6 27.484375 6 
Q 33.546875 6 37.671875 11.859375 
Q 41.796875 17.71875 41.796875 35.296875 
Q 41.796875 52.984375 37.671875 58.78125 
Q 33.546875 64.59375 27.390625 64.59375 
Q 21.34375 64.59375 17.71875 59.46875 
Q 13.1875 52.9375 13.1875 35.296875 
z
" id="ArialMT-48"/>
       </defs>
       <use xlink:href="#ArialMT-49"/>
       <use x="55.615234" xlink:href="#ArialMT-46"/>
       <use x="83.398438" xlink:href="#ArialMT-48"/>
      </g>
     </g>
    </g>
    <g id="xtick_2">
     <g id="line2d_2">
      <g>
       <use style="fill:#262626;stroke:#262626;stroke-width:1.25;" x="85.994066" xlink:href="#m674d9a05c2" y="321.78"/>
      </g>
     </g>
     <g id="text_2">
      <!-- 1.5 -->
      <g style="fill:#262626;" transform="translate(78.349066 339.153594)scale(0.11 -0.11)">
       <defs>
        <path d="M 4.15625 18.75 
L 13.375 19.53125 
Q 14.40625 12.796875 18.140625 9.390625 
Q 21.875 6 27.15625 6 
Q 33.5 6 37.890625 10.78125 
Q 42.28125 15.578125 42.28125 23.484375 
Q 42.28125 31 38.0625 35.34375 
Q 33.84375 39.703125 27 39.703125 
Q 22.75 39.703125 19.328125 37.765625 
Q 15.921875 35.84375 13.96875 32.765625 
L 5.71875 33.84375 
L 12.640625 70.609375 
L 48.25 70.609375 
L 48.25 62.203125 
L 19.671875 62.203125 
L 15.828125 42.96875 
Q 22.265625 47.46875 29.34375 47.46875 
Q 38.71875 47.46875 45.15625 40.96875 
Q 51.609375 34.46875 51.609375 24.265625 
Q 51.609375 14.546875 45.953125 7.46875 
Q 39.0625 -1.21875 27.15625 -1.21875 
Q 17.390625 -1.21875 11.203125 4.25 
Q 5.03125 9.71875 4.15625 18.75 
z
" id="ArialMT-53"/>
       </defs>
       <use xlink:href="#ArialMT-49"/>
       <use x="55.615234" xlink:href="#ArialMT-46"/>
       <use x="83.398438" xlink:href="#ArialMT-53"/>
      </g>
     </g>
    </g>
    <g id="xtick_3">
     <g id="line2d_3">
      <g>
       <use style="fill:#262626;stroke:#262626;stroke-width:1.25;" x="125.023758" xlink:href="#m674d9a05c2" y="321.78"/>
      </g>
     </g>
     <g id="text_3">
      <!-- 2.0 -->
      <g style="fill:#262626;" transform="translate(117.378758 339.153594)scale(0.11 -0.11)">
       <defs>
        <path d="M 50.34375 8.453125 
L 50.34375 0 
L 3.03125 0 
Q 2.9375 3.171875 4.046875 6.109375 
Q 5.859375 10.9375 9.828125 15.625 
Q 13.8125 20.3125 21.34375 26.46875 
Q 33.015625 36.03125 37.109375 41.625 
Q 41.21875 47.21875 41.21875 52.203125 
Q 41.21875 57.421875 37.46875 61 
Q 33.734375 64.59375 27.734375 64.59375 
Q 21.390625 64.59375 17.578125 60.78125 
Q 13.765625 56.984375 13.71875 50.25 
L 4.6875 51.171875 
Q 5.609375 61.28125 11.65625 66.578125 
Q 17.71875 71.875 27.9375 71.875 
Q 38.234375 71.875 44.234375 66.15625 
Q 50.25 60.453125 50.25 52 
Q 50.25 47.703125 48.484375 43.546875 
Q 46.734375 39.40625 42.65625 34.8125 
Q 38.578125 30.21875 29.109375 22.21875 
Q 21.1875 15.578125 18.9375 13.203125 
Q 16.703125 10.84375 15.234375 8.453125 
z
" id="ArialMT-50"/>
       </defs>
       <use xlink:href="#ArialMT-50"/>
       <use x="55.615234" xlink:href="#ArialMT-46"/>
       <use x="83.398438" xlink:href="#ArialMT-48"/>
      </g>
     </g>
    </g>
    <g id="xtick_4">
     <g id="line2d_4">
      <g>
       <use style="fill:#262626;stroke:#262626;stroke-width:1.25;" x="164.053449" xlink:href="#m674d9a05c2" y="321.78"/>
      </g>
     </g>
     <g id="text_4">
      <!-- 2.5 -->
      <g style="fill:#262626;" transform="translate(156.408449 339.153594)scale(0.11 -0.11)">
       <use xlink:href="#ArialMT-50"/>
       <use x="55.615234" xlink:href="#ArialMT-46"/>
       <use x="83.398438" xlink:href="#ArialMT-53"/>
      </g>
     </g>
    </g>
    <g id="xtick_5">
     <g id="line2d_5">
      <g>
       <use style="fill:#262626;stroke:#262626;stroke-width:1.25;" x="203.08314" xlink:href="#m674d9a05c2" y="321.78"/>
      </g>
     </g>
     <g id="text_5">
      <!-- 3.0 -->
      <g style="fill:#262626;" transform="translate(195.43814 339.153594)scale(0.11 -0.11)">
       <defs>
        <path d="M 4.203125 18.890625 
L 12.984375 20.0625 
Q 14.5 12.59375 18.140625 9.296875 
Q 21.78125 6 27 6 
Q 33.203125 6 37.46875 10.296875 
Q 41.75 14.59375 41.75 20.953125 
Q 41.75 27 37.796875 30.921875 
Q 33.84375 34.859375 27.734375 34.859375 
Q 25.25 34.859375 21.53125 33.890625 
L 22.515625 41.609375 
Q 23.390625 41.5 23.921875 41.5 
Q 29.546875 41.5 34.03125 44.421875 
Q 38.53125 47.359375 38.53125 53.46875 
Q 38.53125 58.296875 35.25 61.46875 
Q 31.984375 64.65625 26.8125 64.65625 
Q 21.6875 64.65625 18.265625 61.421875 
Q 14.84375 58.203125 13.875 51.765625 
L 5.078125 53.328125 
Q 6.6875 62.15625 12.390625 67.015625 
Q 18.109375 71.875 26.609375 71.875 
Q 32.46875 71.875 37.390625 69.359375 
Q 42.328125 66.84375 44.9375 62.5 
Q 47.5625 58.15625 47.5625 53.265625 
Q 47.5625 48.640625 45.0625 44.828125 
Q 42.578125 41.015625 37.703125 38.765625 
Q 44.046875 37.3125 47.5625 32.6875 
Q 51.078125 28.078125 51.078125 21.140625 
Q 51.078125 11.765625 44.234375 5.25 
Q 37.40625 -1.265625 26.953125 -1.265625 
Q 17.53125 -1.265625 11.296875 4.34375 
Q 5.078125 9.96875 4.203125 18.890625 
z
" id="ArialMT-51"/>
       </defs>
       <use xlink:href="#ArialMT-51"/>
       <use x="55.615234" xlink:href="#ArialMT-46"/>
       <use x="83.398438" xlink:href="#ArialMT-48"/>
      </g>
     </g>
    </g>
    <g id="xtick_6">
     <g id="line2d_6">
      <g>
       <use style="fill:#262626;stroke:#262626;stroke-width:1.25;" x="242.112831" xlink:href="#m674d9a05c2" y="321.78"/>
      </g>
     </g>
     <g id="text_6">
      <!-- 3.5 -->
      <g style="fill:#262626;" transform="translate(234.467831 339.153594)scale(0.11 -0.11)">
       <use xlink:href="#ArialMT-51"/>
       <use x="55.615234" xlink:href="#ArialMT-46"/>
       <use x="83.398438" xlink:href="#ArialMT-53"/>
      </g>
     </g>
    </g>
    <g id="xtick_7">
     <g id="line2d_7">
      <g>
       <use style="fill:#262626;stroke:#262626;stroke-width:1.25;" x="281.142523" xlink:href="#m674d9a05c2" y="321.78"/>
      </g>
     </g>
     <g id="text_7">
      <!-- 4.0 -->
      <g style="fill:#262626;" transform="translate(273.497523 339.153594)scale(0.11 -0.11)">
       <defs>
        <path d="M 32.328125 0 
L 32.328125 17.140625 
L 1.265625 17.140625 
L 1.265625 25.203125 
L 33.9375 71.578125 
L 41.109375 71.578125 
L 41.109375 25.203125 
L 50.78125 25.203125 
L 50.78125 17.140625 
L 41.109375 17.140625 
L 41.109375 0 
z
M 32.328125 25.203125 
L 32.328125 57.46875 
L 9.90625 25.203125 
z
" id="ArialMT-52"/>
       </defs>
       <use xlink:href="#ArialMT-52"/>
       <use x="55.615234" xlink:href="#ArialMT-46"/>
       <use x="83.398438" xlink:href="#ArialMT-48"/>
      </g>
     </g>
    </g>
    <g id="xtick_8">
     <g id="line2d_8">
      <g>
       <use style="fill:#262626;stroke:#262626;stroke-width:1.25;" x="320.172214" xlink:href="#m674d9a05c2" y="321.78"/>
      </g>
     </g>
     <g id="text_8">
      <!-- 4.5 -->
      <g style="fill:#262626;" transform="translate(312.527214 339.153594)scale(0.11 -0.11)">
       <use xlink:href="#ArialMT-52"/>
       <use x="55.615234" xlink:href="#ArialMT-46"/>
       <use x="83.398438" xlink:href="#ArialMT-53"/>
      </g>
     </g>
    </g>
    <g id="xtick_9">
     <g id="line2d_9">
      <g>
       <use style="fill:#262626;stroke:#262626;stroke-width:1.25;" x="359.201905" xlink:href="#m674d9a05c2" y="321.78"/>
      </g>
     </g>
     <g id="text_9">
      <!-- 5.0 -->
      <g style="fill:#262626;" transform="translate(351.556905 339.153594)scale(0.11 -0.11)">
       <use xlink:href="#ArialMT-53"/>
       <use x="55.615234" xlink:href="#ArialMT-46"/>
       <use x="83.398438" xlink:href="#ArialMT-48"/>
      </g>
     </g>
    </g>
    <g id="text_10">
     <!-- l6a -->
     <g style="fill:#262626;" transform="translate(195.07689 353.929219)scale(0.12 -0.12)">
      <defs>
       <path d="M 6.390625 0 
L 6.390625 71.578125 
L 15.1875 71.578125 
L 15.1875 0 
z
" id="ArialMT-108"/>
       <path d="M 49.75 54.046875 
L 41.015625 53.375 
Q 39.84375 58.546875 37.703125 60.890625 
Q 34.125 64.65625 28.90625 64.65625 
Q 24.703125 64.65625 21.53125 62.3125 
Q 17.390625 59.28125 14.984375 53.46875 
Q 12.59375 47.65625 12.5 36.921875 
Q 15.671875 41.75 20.265625 44.09375 
Q 24.859375 46.4375 29.890625 46.4375 
Q 38.671875 46.4375 44.84375 39.96875 
Q 51.03125 33.5 51.03125 23.25 
Q 51.03125 16.5 48.125 10.71875 
Q 45.21875 4.9375 40.140625 1.859375 
Q 35.0625 -1.21875 28.609375 -1.21875 
Q 17.625 -1.21875 10.6875 6.859375 
Q 3.765625 14.9375 3.765625 33.5 
Q 3.765625 54.25 11.421875 63.671875 
Q 18.109375 71.875 29.4375 71.875 
Q 37.890625 71.875 43.28125 67.140625 
Q 48.6875 62.40625 49.75 54.046875 
z
M 13.875 23.1875 
Q 13.875 18.65625 15.796875 14.5 
Q 17.71875 10.359375 21.1875 8.171875 
Q 24.65625 6 28.46875 6 
Q 34.03125 6 38.03125 10.484375 
Q 42.046875 14.984375 42.046875 22.703125 
Q 42.046875 30.125 38.078125 34.390625 
Q 34.125 38.671875 28.125 38.671875 
Q 22.171875 38.671875 18.015625 34.390625 
Q 13.875 30.125 13.875 23.1875 
z
" id="ArialMT-54"/>
       <path d="M 40.4375 6.390625 
Q 35.546875 2.25 31.03125 0.53125 
Q 26.515625 -1.171875 21.34375 -1.171875 
Q 12.796875 -1.171875 8.203125 3 
Q 3.609375 7.171875 3.609375 13.671875 
Q 3.609375 17.484375 5.34375 20.625 
Q 7.078125 23.78125 9.890625 25.6875 
Q 12.703125 27.59375 16.21875 28.5625 
Q 18.796875 29.25 24.03125 29.890625 
Q 34.671875 31.15625 39.703125 32.90625 
Q 39.75 34.71875 39.75 35.203125 
Q 39.75 40.578125 37.25 42.78125 
Q 33.890625 45.75 27.25 45.75 
Q 21.046875 45.75 18.09375 43.578125 
Q 15.140625 41.40625 13.71875 35.890625 
L 5.125 37.0625 
Q 6.296875 42.578125 8.984375 45.96875 
Q 11.671875 49.359375 16.75 51.1875 
Q 21.828125 53.03125 28.515625 53.03125 
Q 35.15625 53.03125 39.296875 51.46875 
Q 43.453125 49.90625 45.40625 47.53125 
Q 47.359375 45.171875 48.140625 41.546875 
Q 48.578125 39.3125 48.578125 33.453125 
L 48.578125 21.734375 
Q 48.578125 9.46875 49.140625 6.21875 
Q 49.703125 2.984375 51.375 0 
L 42.1875 0 
Q 40.828125 2.734375 40.4375 6.390625 
z
M 39.703125 26.03125 
Q 34.90625 24.078125 25.34375 22.703125 
Q 19.921875 21.921875 17.671875 20.9375 
Q 15.4375 19.96875 14.203125 18.09375 
Q 12.984375 16.21875 12.984375 13.921875 
Q 12.984375 10.40625 15.640625 8.0625 
Q 18.3125 5.71875 23.4375 5.71875 
Q 28.515625 5.71875 32.46875 7.9375 
Q 36.421875 10.15625 38.28125 14.015625 
Q 39.703125 17 39.703125 22.796875 
z
" id="ArialMT-97"/>
      </defs>
      <use xlink:href="#ArialMT-108"/>
      <use x="22.216797" xlink:href="#ArialMT-54"/>
      <use x="77.832031" xlink:href="#ArialMT-97"/>
     </g>
    </g>
   </g>
   <g id="matplotlib.axis_2">
    <g id="ytick_1">
     <g id="line2d_10">
      <defs>
       <path d="M 0 0 
L -6 0 
" id="maed810934d" style="stroke:#262626;stroke-width:1.25;"/>
      </defs>
      <g>
       <use style="fill:#262626;stroke:#262626;stroke-width:1.25;" x="46.964375" xlink:href="#maed810934d" y="312.783204"/>
      </g>
     </g>
     <g id="text_11">
      <!-- 1.5 -->
      <g style="fill:#262626;" transform="translate(22.174375 316.72)scale(0.11 -0.11)">
       <use xlink:href="#ArialMT-49"/>
       <use x="55.615234" xlink:href="#ArialMT-46"/>
       <use x="83.398438" xlink:href="#ArialMT-53"/>
      </g>
     </g>
    </g>
    <g id="ytick_2">
     <g id="line2d_11">
      <g>
       <use style="fill:#262626;stroke:#262626;stroke-width:1.25;" x="46.964375" xlink:href="#maed810934d" y="245.563793"/>
      </g>
     </g>
     <g id="text_12">
      <!-- 2.0 -->
      <g style="fill:#262626;" transform="translate(22.174375 249.50059)scale(0.11 -0.11)">
       <use xlink:href="#ArialMT-50"/>
       <use x="55.615234" xlink:href="#ArialMT-46"/>
       <use x="83.398438" xlink:href="#ArialMT-48"/>
      </g>
     </g>
    </g>
    <g id="ytick_3">
     <g id="line2d_12">
      <g>
       <use style="fill:#262626;stroke:#262626;stroke-width:1.25;" x="46.964375" xlink:href="#maed810934d" y="178.344382"/>
      </g>
     </g>
     <g id="text_13">
      <!-- 2.5 -->
      <g style="fill:#262626;" transform="translate(22.174375 182.281179)scale(0.11 -0.11)">
       <use xlink:href="#ArialMT-50"/>
       <use x="55.615234" xlink:href="#ArialMT-46"/>
       <use x="83.398438" xlink:href="#ArialMT-53"/>
      </g>
     </g>
    </g>
    <g id="ytick_4">
     <g id="line2d_13">
      <g>
       <use style="fill:#262626;stroke:#262626;stroke-width:1.25;" x="46.964375" xlink:href="#maed810934d" y="111.124972"/>
      </g>
     </g>
     <g id="text_14">
      <!-- 3.0 -->
      <g style="fill:#262626;" transform="translate(22.174375 115.061769)scale(0.11 -0.11)">
       <use xlink:href="#ArialMT-51"/>
       <use x="55.615234" xlink:href="#ArialMT-46"/>
       <use x="83.398438" xlink:href="#ArialMT-48"/>
      </g>
     </g>
    </g>
    <g id="ytick_5">
     <g id="line2d_14">
      <g>
       <use style="fill:#262626;stroke:#262626;stroke-width:1.25;" x="46.964375" xlink:href="#maed810934d" y="43.905561"/>
      </g>
     </g>
     <g id="text_15">
      <!-- 3.5 -->
      <g style="fill:#262626;" transform="translate(22.174375 47.842358)scale(0.11 -0.11)">
       <use xlink:href="#ArialMT-51"/>
       <use x="55.615234" xlink:href="#ArialMT-46"/>
       <use x="83.398438" xlink:href="#ArialMT-53"/>
      </g>
     </g>
    </g>
    <g id="text_16">
     <!-- l6b -->
     <g style="fill:#262626;" transform="translate(15.789375 172.49625)rotate(-90)scale(0.12 -0.12)">
      <defs>
       <path d="M 14.703125 0 
L 6.546875 0 
L 6.546875 71.578125 
L 15.328125 71.578125 
L 15.328125 46.046875 
Q 20.90625 53.03125 29.546875 53.03125 
Q 34.328125 53.03125 38.59375 51.09375 
Q 42.875 49.171875 45.625 45.671875 
Q 48.390625 42.1875 49.953125 37.25 
Q 51.515625 32.328125 51.515625 26.703125 
Q 51.515625 13.375 44.921875 6.09375 
Q 38.328125 -1.171875 29.109375 -1.171875 
Q 19.921875 -1.171875 14.703125 6.5 
z
M 14.59375 26.3125 
Q 14.59375 17 17.140625 12.84375 
Q 21.296875 6.0625 28.375 6.0625 
Q 34.125 6.0625 38.328125 11.0625 
Q 42.53125 16.0625 42.53125 25.984375 
Q 42.53125 36.140625 38.5 40.96875 
Q 34.46875 45.796875 28.765625 45.796875 
Q 23 45.796875 18.796875 40.796875 
Q 14.59375 35.796875 14.59375 26.3125 
z
" id="ArialMT-98"/>
      </defs>
      <use xlink:href="#ArialMT-108"/>
      <use x="22.216797" xlink:href="#ArialMT-54"/>
      <use x="77.832031" xlink:href="#ArialMT-98"/>
     </g>
    </g>
   </g>
   <g id="PathCollection_1">
    <defs>
     <path d="M 0 3.535534 
C 0.937635 3.535534 1.836992 3.163008 2.5 2.5 
C 3.163008 1.836992 3.535534 0.937635 3.535534 0 
C 3.535534 -0.937635 3.163008 -1.836992 2.5 -2.5 
C 1.836992 -3.163008 0.937635 -3.535534 0 -3.535534 
C -0.937635 -3.535534 -1.836992 -3.163008 -2.5 -2.5 
C -3.163008 -1.836992 -3.535534 -0.937635 -3.535534 0 
C -3.535534 0.937635 -3.163008 1.836992 -2.5 2.5 
C -1.836992 3.163008 -0.937635 3.535534 0 3.535534 
z
" id="m4328c066f2" style="stroke:#4c72b0;"/>
    </defs>
    <g clip-path="url(#p4167737dc0)">
     <use style="fill:#4c72b0;stroke:#4c72b0;" x="46.964375" xlink:href="#m4328c066f2" y="105.523354"/>
     <use style="fill:#4c72b0;stroke:#4c72b0;" x="125.023758" xlink:href="#m4328c066f2" y="154.278174"/>
     <use style="fill:#4c72b0;stroke:#4c72b0;" x="203.08314" xlink:href="#m4328c066f2" y="170.875559"/>
     <use style="fill:#4c72b0;stroke:#4c72b0;" x="281.142523" xlink:href="#m4328c066f2" y="209.528645"/>
     <use style="fill:#4c72b0;stroke:#4c72b0;" x="359.201905" xlink:href="#m4328c066f2" y="255.500575"/>
    </g>
   </g>
   <g id="PolyCollection_1">
    <defs>
     <path d="M 46.964375 -278.691284 
L 46.964375 -234.233271 
L 50.118289 -233.082728 
L 53.272204 -231.96658 
L 56.426118 -230.829061 
L 59.580033 -229.722306 
L 62.733947 -228.571526 
L 65.887862 -227.4437 
L 69.041776 -226.315874 
L 72.195691 -225.119287 
L 75.349605 -224.051523 
L 78.503519 -222.98324 
L 81.657434 -221.91424 
L 84.811348 -220.825226 
L 87.965263 -219.587671 
L 91.119177 -218.426138 
L 94.273092 -217.296586 
L 97.427006 -216.169815 
L 100.580921 -215.043045 
L 103.734835 -213.916274 
L 106.888749 -212.789503 
L 110.042664 -211.662732 
L 113.196578 -210.535962 
L 116.350493 -209.391644 
L 119.504407 -208.237603 
L 122.658322 -207.083562 
L 125.812236 -205.965931 
L 128.966151 -204.84958 
L 132.120065 -203.775337 
L 135.27398 -202.648566 
L 138.427894 -201.503596 
L 141.581808 -200.384658 
L 144.735723 -199.264103 
L 147.889637 -198.138139 
L 151.043552 -197.012175 
L 154.197466 -195.886212 
L 157.351381 -194.77505 
L 160.505295 -193.614153 
L 163.65921 -192.505103 
L 166.813124 -191.376812 
L 169.967038 -190.172843 
L 173.120953 -188.954162 
L 176.274867 -187.721421 
L 179.428782 -186.500143 
L 182.582696 -185.278329 
L 185.736611 -184.057539 
L 188.890525 -182.834765 
L 192.04444 -181.612367 
L 195.198354 -180.392216 
L 198.352268 -179.147951 
L 201.506183 -177.756743 
L 204.660097 -176.469153 
L 207.814012 -175.306312 
L 210.967926 -174.145623 
L 214.121841 -172.868289 
L 217.275755 -171.517127 
L 220.42967 -170.251537 
L 223.583584 -169.016864 
L 226.737498 -167.703276 
L 229.891413 -166.521763 
L 233.045327 -165.411049 
L 236.199242 -164.039621 
L 239.353156 -162.635411 
L 242.507071 -161.259024 
L 245.660985 -159.845824 
L 248.8149 -158.420374 
L 251.968814 -157.013359 
L 255.122728 -155.487551 
L 258.276643 -154.085101 
L 261.430557 -152.687086 
L 264.584472 -151.158439 
L 267.738386 -149.72481 
L 270.892301 -148.222964 
L 274.046215 -146.686805 
L 277.20013 -145.229697 
L 280.354044 -143.774242 
L 283.507958 -142.317889 
L 286.661873 -140.828648 
L 289.815787 -139.238007 
L 292.969702 -137.563232 
L 296.123616 -135.929855 
L 299.277531 -134.294724 
L 302.431445 -132.676622 
L 305.58536 -131.248466 
L 308.739274 -129.682804 
L 311.893189 -127.988607 
L 315.047103 -126.388915 
L 318.201017 -124.710528 
L 321.354932 -123.029629 
L 324.508846 -121.391523 
L 327.662761 -119.784362 
L 330.816675 -118.045974 
L 333.97059 -116.343033 
L 337.124504 -114.627223 
L 340.278419 -112.94524 
L 343.432333 -111.263256 
L 346.586247 -109.556276 
L 349.740162 -107.793055 
L 352.894076 -106.028635 
L 356.047991 -104.386485 
L 359.201905 -102.749662 
L 359.201905 -127.977636 
L 359.201905 -127.977636 
L 356.047991 -129.193874 
L 352.894076 -130.308079 
L 349.740162 -131.420201 
L 346.586247 -132.581976 
L 343.432333 -133.781681 
L 340.278419 -134.997301 
L 337.124504 -136.221427 
L 333.97059 -137.371644 
L 330.816675 -138.416587 
L 327.662761 -139.630569 
L 324.508846 -140.931256 
L 321.354932 -142.087275 
L 318.201017 -143.24209 
L 315.047103 -144.52007 
L 311.893189 -145.682203 
L 308.739274 -146.985994 
L 305.58536 -148.36197 
L 302.431445 -149.628136 
L 299.277531 -150.874862 
L 296.123616 -152.184398 
L 292.969702 -153.306109 
L 289.815787 -154.541719 
L 286.661873 -155.869809 
L 283.507958 -157.079875 
L 280.354044 -158.348498 
L 277.20013 -159.83032 
L 274.046215 -161.172468 
L 270.892301 -162.653832 
L 267.738386 -164.081091 
L 264.584472 -165.438446 
L 261.430557 -166.929076 
L 258.276643 -168.134137 
L 255.122728 -169.76379 
L 251.968814 -171.263694 
L 248.8149 -172.658931 
L 245.660985 -173.941471 
L 242.507071 -175.239332 
L 239.353156 -176.836916 
L 236.199242 -178.233269 
L 233.045327 -179.778314 
L 229.891413 -181.342755 
L 226.737498 -182.820241 
L 223.583584 -184.315851 
L 220.42967 -185.801802 
L 217.275755 -187.321804 
L 214.121841 -188.871712 
L 210.967926 -190.334629 
L 207.814012 -191.972574 
L 204.660097 -193.523316 
L 201.506183 -195.082598 
L 198.352268 -196.608922 
L 195.198354 -198.10999 
L 192.04444 -199.776588 
L 188.890525 -201.50548 
L 185.736611 -203.183853 
L 182.582696 -204.742125 
L 179.428782 -206.329511 
L 176.274867 -207.830829 
L 173.120953 -209.471521 
L 169.967038 -211.207033 
L 166.813124 -212.942399 
L 163.65921 -214.674584 
L 160.505295 -216.224737 
L 157.351381 -218.028032 
L 154.197466 -219.727171 
L 151.043552 -221.483154 
L 147.889637 -223.149635 
L 144.735723 -224.924083 
L 141.581808 -226.725166 
L 138.427894 -228.525463 
L 135.27398 -230.207965 
L 132.120065 -231.835242 
L 128.966151 -233.596206 
L 125.812236 -235.250922 
L 122.658322 -236.903512 
L 119.504407 -238.555362 
L 116.350493 -240.207212 
L 113.196578 -241.859063 
L 110.042664 -243.510683 
L 106.888749 -245.161345 
L 103.734835 -246.812007 
L 100.580921 -248.462669 
L 97.427006 -250.113331 
L 94.273092 -251.823001 
L 91.119177 -253.649651 
L 87.965263 -255.476301 
L 84.811348 -257.302951 
L 81.657434 -259.129601 
L 78.503519 -260.956251 
L 75.349605 -262.782901 
L 72.195691 -264.481238 
L 69.041776 -266.174562 
L 65.887862 -267.867885 
L 62.733947 -269.561209 
L 59.580033 -271.364496 
L 56.426118 -273.238937 
L 53.272204 -275.111543 
L 50.118289 -276.981047 
L 46.964375 -278.691284 
z
" id="m5813d5efdd" style="stroke:#ffffff;stroke-opacity:0.15;"/>
    </defs>
    <g clip-path="url(#p4167737dc0)">
     <use style="fill:#4c72b0;fill-opacity:0.15;stroke:#ffffff;stroke-opacity:0.15;" x="0" xlink:href="#m5813d5efdd" y="363.514219"/>
    </g>
   </g>
   <g id="PathCollection_2">
    <defs>
     <path d="M 0 3.535534 
C 0.937635 3.535534 1.836992 3.163008 2.5 2.5 
C 3.163008 1.836992 3.535534 0.937635 3.535534 0 
C 3.535534 -0.937635 3.163008 -1.836992 2.5 -2.5 
C 1.836992 -3.163008 0.937635 -3.535534 0 -3.535534 
C -0.937635 -3.535534 -1.836992 -3.163008 -2.5 -2.5 
C -3.163008 -1.836992 -3.535534 -0.937635 -3.535534 0 
C -3.535534 0.937635 -3.163008 1.836992 -2.5 2.5 
C -1.836992 3.163008 -0.937635 3.535534 0 3.535534 
z
" id="m052a6e5f5b" style="stroke:#dd8452;"/>
    </defs>
    <g clip-path="url(#p4167737dc0)">
     <use style="fill:#dd8452;stroke:#dd8452;" x="46.964375" xlink:href="#m052a6e5f5b" y="86.228894"/>
     <use style="fill:#dd8452;stroke:#dd8452;" x="125.023758" xlink:href="#m052a6e5f5b" y="220.839412"/>
     <use style="fill:#dd8452;stroke:#dd8452;" x="203.08314" xlink:href="#m052a6e5f5b" y="206.76859"/>
     <use style="fill:#dd8452;stroke:#dd8452;" x="281.142523" xlink:href="#m052a6e5f5b" y="240.425242"/>
     <use style="fill:#dd8452;stroke:#dd8452;" x="359.201905" xlink:href="#m052a6e5f5b" y="296.87632"/>
    </g>
   </g>
   <g id="PolyCollection_2">
    <defs>
     <path d="M 46.964375 -234.394973 
L 46.964375 -196.928304 
L 50.118289 -195.826152 
L 53.272204 -194.698775 
L 56.426118 -193.571398 
L 59.580033 -192.444021 
L 62.733947 -191.340846 
L 65.887862 -190.256088 
L 69.041776 -189.171331 
L 72.195691 -188.086745 
L 75.349605 -187.002741 
L 78.503519 -185.918737 
L 81.657434 -184.80122 
L 84.811348 -183.654059 
L 87.965263 -182.506898 
L 91.119177 -181.410987 
L 94.273092 -180.33029 
L 97.427006 -179.249873 
L 100.580921 -178.169456 
L 103.734835 -177.089039 
L 106.888749 -176.008622 
L 110.042664 -174.90571 
L 113.196578 -173.777557 
L 116.350493 -172.653158 
L 119.504407 -171.590813 
L 122.658322 -170.528468 
L 125.812236 -169.466264 
L 128.966151 -168.404707 
L 132.120065 -167.330891 
L 135.27398 -166.188976 
L 138.427894 -165.04491 
L 141.581808 -163.898495 
L 144.735723 -162.752081 
L 147.889637 -161.607507 
L 151.043552 -160.478027 
L 154.197466 -159.316705 
L 157.351381 -158.225617 
L 160.505295 -157.055751 
L 163.65921 -155.894636 
L 166.813124 -154.830573 
L 169.967038 -153.768901 
L 173.120953 -152.707229 
L 176.274867 -151.645556 
L 179.428782 -150.569077 
L 182.582696 -149.384917 
L 185.736611 -148.102344 
L 188.890525 -146.897103 
L 192.04444 -145.761566 
L 195.198354 -144.555776 
L 198.352268 -143.308691 
L 201.506183 -142.131545 
L 204.660097 -140.98461 
L 207.814012 -139.8394 
L 210.967926 -138.683004 
L 214.121841 -137.487359 
L 217.275755 -136.31421 
L 220.42967 -135.143654 
L 223.583584 -133.898818 
L 226.737498 -132.703178 
L 229.891413 -131.506686 
L 233.045327 -130.308751 
L 236.199242 -129.095656 
L 239.353156 -127.8769 
L 242.507071 -126.622209 
L 245.660985 -125.451186 
L 248.8149 -124.200243 
L 251.968814 -122.946964 
L 255.122728 -121.738276 
L 258.276643 -120.426123 
L 261.430557 -119.132294 
L 264.584472 -117.893652 
L 267.738386 -116.568351 
L 270.892301 -115.193547 
L 274.046215 -113.814259 
L 277.20013 -112.441224 
L 280.354044 -110.976659 
L 283.507958 -109.548164 
L 286.661873 -108.207351 
L 289.815787 -106.762084 
L 292.969702 -105.314146 
L 296.123616 -103.747571 
L 299.277531 -102.298215 
L 302.431445 -100.812554 
L 305.58536 -99.280748 
L 308.739274 -97.82613 
L 311.893189 -96.356725 
L 315.047103 -94.932096 
L 318.201017 -93.411434 
L 321.354932 -91.780597 
L 324.508846 -90.302744 
L 327.662761 -88.735805 
L 330.816675 -87.165852 
L 333.97059 -85.642882 
L 337.124504 -84.085007 
L 340.278419 -82.47233 
L 343.432333 -80.918967 
L 346.586247 -79.410505 
L 349.740162 -77.813704 
L 352.894076 -76.360483 
L 356.047991 -74.890199 
L 359.201905 -73.384673 
L 359.201905 -90.248526 
L 359.201905 -90.248526 
L 356.047991 -91.368495 
L 352.894076 -92.525189 
L 349.740162 -93.664532 
L 346.586247 -94.847256 
L 343.432333 -96.049319 
L 340.278419 -97.244316 
L 337.124504 -98.379099 
L 333.97059 -99.427086 
L 330.816675 -100.532195 
L 327.662761 -101.701178 
L 324.508846 -103.059149 
L 321.354932 -104.225578 
L 318.201017 -105.448224 
L 315.047103 -106.737725 
L 311.893189 -108.087306 
L 308.739274 -109.205931 
L 305.58536 -110.399168 
L 302.431445 -111.528984 
L 299.277531 -112.660327 
L 296.123616 -113.961384 
L 292.969702 -115.262327 
L 289.815787 -116.511783 
L 286.661873 -117.815999 
L 283.507958 -119.132556 
L 280.354044 -120.457363 
L 277.20013 -121.766732 
L 274.046215 -123.108661 
L 270.892301 -124.44837 
L 267.738386 -125.861128 
L 264.584472 -127.251678 
L 261.430557 -128.656399 
L 258.276643 -130.092022 
L 255.122728 -131.473856 
L 251.968814 -132.883428 
L 248.8149 -134.276932 
L 245.660985 -135.702284 
L 242.507071 -137.111982 
L 239.353156 -138.606978 
L 236.199242 -140.021166 
L 233.045327 -141.5551 
L 229.891413 -143.041322 
L 226.737498 -144.582441 
L 223.583584 -146.170315 
L 220.42967 -147.608161 
L 217.275755 -149.11661 
L 214.121841 -150.65084 
L 210.967926 -152.172807 
L 207.814012 -153.647808 
L 204.660097 -155.216835 
L 201.506183 -156.740724 
L 198.352268 -158.323935 
L 195.198354 -159.96654 
L 192.04444 -161.609145 
L 188.890525 -163.154462 
L 185.736611 -164.678021 
L 182.582696 -166.293899 
L 179.428782 -167.908015 
L 176.274867 -169.528528 
L 173.120953 -171.146279 
L 169.967038 -172.76403 
L 166.813124 -174.296488 
L 163.65921 -175.814962 
L 160.505295 -177.332179 
L 157.351381 -178.887317 
L 154.197466 -180.469378 
L 151.043552 -182.051439 
L 147.889637 -183.63739 
L 144.735723 -185.226204 
L 141.581808 -186.815019 
L 138.427894 -188.405249 
L 135.27398 -189.997211 
L 132.120065 -191.589173 
L 128.966151 -193.181135 
L 125.812236 -194.772766 
L 122.658322 -196.362579 
L 119.504407 -197.951603 
L 116.350493 -199.540414 
L 113.196578 -201.129225 
L 110.042664 -202.751484 
L 106.888749 -204.354659 
L 103.734835 -205.896421 
L 100.580921 -207.458615 
L 97.427006 -208.993653 
L 94.273092 -210.547193 
L 91.119177 -212.130501 
L 87.965263 -213.713809 
L 84.811348 -215.297117 
L 81.657434 -216.880155 
L 78.503519 -218.461879 
L 75.349605 -220.055121 
L 72.195691 -221.626885 
L 69.041776 -223.210515 
L 65.887862 -224.794144 
L 62.733947 -226.377774 
L 59.580033 -227.97121 
L 56.426118 -229.577151 
L 53.272204 -231.183092 
L 50.118289 -232.789033 
L 46.964375 -234.394973 
z
" id="maa99ad84e8" style="stroke:#ffffff;stroke-opacity:0.15;"/>
    </defs>
    <g clip-path="url(#p4167737dc0)">
     <use style="fill:#dd8452;fill-opacity:0.15;stroke:#ffffff;stroke-opacity:0.15;" x="0" xlink:href="#maa99ad84e8" y="363.514219"/>
    </g>
   </g>
   <g id="line2d_15">
    <path clip-path="url(#p4167737dc0)" d="M 46.964375 156.007932 
L 46.964375 49.507179 
" style="fill:none;stroke:#4c72b0;stroke-linecap:round;stroke-width:2.625;"/>
   </g>
   <g id="line2d_16">
    <path clip-path="url(#p4167737dc0)" d="M 125.023758 173.385913 
L 125.023758 135.19118 
" style="fill:none;stroke:#4c72b0;stroke-linecap:round;stroke-width:2.625;"/>
   </g>
   <g id="line2d_17">
    <path clip-path="url(#p4167737dc0)" d="M 203.08314 184.319441 
L 203.08314 157.431677 
" style="fill:none;stroke:#4c72b0;stroke-linecap:round;stroke-width:2.625;"/>
   </g>
   <g id="line2d_18">
    <path clip-path="url(#p4167737dc0)" d="M 281.142523 220.391163 
L 281.142523 199.590105 
" style="fill:none;stroke:#4c72b0;stroke-linecap:round;stroke-width:2.625;"/>
   </g>
   <g id="line2d_19">
    <path clip-path="url(#p4167737dc0)" d="M 359.201905 273.036074 
L 359.201905 237.365947 
" style="fill:none;stroke:#4c72b0;stroke-linecap:round;stroke-width:2.625;"/>
   </g>
   <g id="line2d_20">
    <path clip-path="url(#p4167737dc0)" d="M 46.964375 107.3206 
L 50.118289 108.739146 
L 53.272204 110.157693 
L 56.426118 111.576239 
L 59.580033 112.994785 
L 62.733947 114.413331 
L 65.887862 115.831877 
L 69.041776 117.250424 
L 72.195691 118.66897 
L 75.349605 120.087516 
L 78.503519 121.506062 
L 81.657434 122.924608 
L 84.811348 124.343155 
L 87.965263 125.761701 
L 91.119177 127.180247 
L 94.273092 128.598793 
L 97.427006 130.017339 
L 100.580921 131.435886 
L 103.734835 132.854432 
L 106.888749 134.272978 
L 110.042664 135.691524 
L 113.196578 137.11007 
L 116.350493 138.528617 
L 119.504407 139.947163 
L 122.658322 141.365709 
L 125.812236 142.784255 
L 128.966151 144.202801 
L 132.120065 145.621348 
L 135.27398 147.039894 
L 138.427894 148.45844 
L 141.581808 149.876986 
L 144.735723 151.295532 
L 147.889637 152.714079 
L 151.043552 154.132625 
L 154.197466 155.551171 
L 157.351381 156.969717 
L 160.505295 158.388263 
L 163.65921 159.80681 
L 166.813124 161.225356 
L 169.967038 162.643902 
L 173.120953 164.062448 
L 176.274867 165.480994 
L 179.428782 166.899541 
L 182.582696 168.318087 
L 185.736611 169.736633 
L 188.890525 171.155179 
L 192.04444 172.573725 
L 195.198354 173.992272 
L 198.352268 175.410818 
L 201.506183 176.829364 
L 204.660097 178.24791 
L 207.814012 179.666456 
L 210.967926 181.085003 
L 214.121841 182.503549 
L 217.275755 183.922095 
L 220.42967 185.340641 
L 223.583584 186.759188 
L 226.737498 188.177734 
L 229.891413 189.59628 
L 233.045327 191.014826 
L 236.199242 192.433372 
L 239.353156 193.851919 
L 242.507071 195.270465 
L 245.660985 196.689011 
L 248.8149 198.107557 
L 251.968814 199.526103 
L 255.122728 200.94465 
L 258.276643 202.363196 
L 261.430557 203.781742 
L 264.584472 205.200288 
L 267.738386 206.618834 
L 270.892301 208.037381 
L 274.046215 209.455927 
L 277.20013 210.874473 
L 280.354044 212.293019 
L 283.507958 213.711565 
L 286.661873 215.130112 
L 289.815787 216.548658 
L 292.969702 217.967204 
L 296.123616 219.38575 
L 299.277531 220.804296 
L 302.431445 222.222843 
L 305.58536 223.641389 
L 308.739274 225.059935 
L 311.893189 226.478481 
L 315.047103 227.897027 
L 318.201017 229.315574 
L 321.354932 230.73412 
L 324.508846 232.152666 
L 327.662761 233.571212 
L 330.816675 234.989758 
L 333.97059 236.408305 
L 337.124504 237.826851 
L 340.278419 239.245397 
L 343.432333 240.663943 
L 346.586247 242.082489 
L 349.740162 243.501036 
L 352.894076 244.919582 
L 356.047991 246.338128 
L 359.201905 247.756674 
" style="fill:none;stroke:#4c72b0;stroke-linecap:round;stroke-width:2.25;"/>
   </g>
   <g id="line2d_21">
    <path clip-path="url(#p4167737dc0)" d="M 46.964375 150.958697 
L 46.964375 21.499091 
" style="fill:none;stroke:#dd8452;stroke-linecap:round;stroke-width:2.625;"/>
   </g>
   <g id="line2d_22">
    <path clip-path="url(#p4167737dc0)" d="M 125.023758 239.382698 
L 125.023758 204.614037 
" style="fill:none;stroke:#dd8452;stroke-linecap:round;stroke-width:2.625;"/>
   </g>
   <g id="line2d_23">
    <path clip-path="url(#p4167737dc0)" d="M 203.08314 217.523696 
L 203.08314 195.23566 
" style="fill:none;stroke:#dd8452;stroke-linecap:round;stroke-width:2.625;"/>
   </g>
   <g id="line2d_24">
    <path clip-path="url(#p4167737dc0)" d="M 281.142523 247.359298 
L 281.142523 234.330683 
" style="fill:none;stroke:#dd8452;stroke-linecap:round;stroke-width:2.625;"/>
   </g>
   <g id="line2d_25">
    <path clip-path="url(#p4167737dc0)" d="M 359.201905 307.480909 
L 359.201905 286.613815 
" style="fill:none;stroke:#dd8452;stroke-linecap:round;stroke-width:2.625;"/>
   </g>
   <g id="line2d_26">
    <path clip-path="url(#p4167737dc0)" d="M 46.964375 147.780723 
L 50.118289 149.130873 
L 53.272204 150.481022 
L 56.426118 151.831172 
L 59.580033 153.181322 
L 62.733947 154.531471 
L 65.887862 155.881621 
L 69.041776 157.231771 
L 72.195691 158.58192 
L 75.349605 159.93207 
L 78.503519 161.282219 
L 81.657434 162.632369 
L 84.811348 163.982519 
L 87.965263 165.332668 
L 91.119177 166.682818 
L 94.273092 168.032968 
L 97.427006 169.383117 
L 100.580921 170.733267 
L 103.734835 172.083416 
L 106.888749 173.433566 
L 110.042664 174.783716 
L 113.196578 176.133865 
L 116.350493 177.484015 
L 119.504407 178.834165 
L 122.658322 180.184314 
L 125.812236 181.534464 
L 128.966151 182.884614 
L 132.120065 184.234763 
L 135.27398 185.584913 
L 138.427894 186.935062 
L 141.581808 188.285212 
L 144.735723 189.635362 
L 147.889637 190.985511 
L 151.043552 192.335661 
L 154.197466 193.685811 
L 157.351381 195.03596 
L 160.505295 196.38611 
L 163.65921 197.736259 
L 166.813124 199.086409 
L 169.967038 200.436559 
L 173.120953 201.786708 
L 176.274867 203.136858 
L 179.428782 204.487008 
L 182.582696 205.837157 
L 185.736611 207.187307 
L 188.890525 208.537457 
L 192.04444 209.887606 
L 195.198354 211.237756 
L 198.352268 212.587905 
L 201.506183 213.938055 
L 204.660097 215.288205 
L 207.814012 216.638354 
L 210.967926 217.988504 
L 214.121841 219.338654 
L 217.275755 220.688803 
L 220.42967 222.038953 
L 223.583584 223.389102 
L 226.737498 224.739252 
L 229.891413 226.089402 
L 233.045327 227.439551 
L 236.199242 228.789701 
L 239.353156 230.139851 
L 242.507071 231.49 
L 245.660985 232.84015 
L 248.8149 234.1903 
L 251.968814 235.540449 
L 255.122728 236.890599 
L 258.276643 238.240748 
L 261.430557 239.590898 
L 264.584472 240.941048 
L 267.738386 242.291197 
L 270.892301 243.641347 
L 274.046215 244.991497 
L 277.20013 246.341646 
L 280.354044 247.691796 
L 283.507958 249.041945 
L 286.661873 250.392095 
L 289.815787 251.742245 
L 292.969702 253.092394 
L 296.123616 254.442544 
L 299.277531 255.792694 
L 302.431445 257.142843 
L 305.58536 258.492993 
L 308.739274 259.843143 
L 311.893189 261.193292 
L 315.047103 262.543442 
L 318.201017 263.893591 
L 321.354932 265.243741 
L 324.508846 266.593891 
L 327.662761 267.94404 
L 330.816675 269.29419 
L 333.97059 270.64434 
L 337.124504 271.994489 
L 340.278419 273.344639 
L 343.432333 274.694788 
L 346.586247 276.044938 
L 349.740162 277.395088 
L 352.894076 278.745237 
L 356.047991 280.095387 
L 359.201905 281.445537 
" style="fill:none;stroke:#dd8452;stroke-linecap:round;stroke-width:2.25;"/>
   </g>
   <g id="patch_3">
    <path d="M 46.964375 321.78 
L 46.964375 7.2 
" style="fill:none;stroke:#262626;stroke-linecap:square;stroke-linejoin:miter;stroke-width:1.25;"/>
   </g>
   <g id="patch_4">
    <path d="M 46.964375 321.78 
L 359.201905 321.78 
" style="fill:none;stroke:#262626;stroke-linecap:square;stroke-linejoin:miter;stroke-width:1.25;"/>
   </g>
  </g>
  <g id="legend_1">
   <g id="text_17">
    <!-- a91 -->
    <g style="fill:#262626;" transform="translate(377.071968 169.299453)scale(0.12 -0.12)">
     <defs>
      <path d="M 5.46875 16.546875 
L 13.921875 17.328125 
Q 14.984375 11.375 18.015625 8.6875 
Q 21.046875 6 25.78125 6 
Q 29.828125 6 32.875 7.859375 
Q 35.9375 9.71875 37.890625 12.8125 
Q 39.84375 15.921875 41.15625 21.1875 
Q 42.484375 26.46875 42.484375 31.9375 
Q 42.484375 32.515625 42.4375 33.6875 
Q 39.796875 29.5 35.234375 26.875 
Q 30.671875 24.265625 25.34375 24.265625 
Q 16.453125 24.265625 10.296875 30.703125 
Q 4.15625 37.15625 4.15625 47.703125 
Q 4.15625 58.59375 10.578125 65.234375 
Q 17 71.875 26.65625 71.875 
Q 33.640625 71.875 39.421875 68.109375 
Q 45.21875 64.359375 48.21875 57.390625 
Q 51.21875 50.4375 51.21875 37.25 
Q 51.21875 23.53125 48.234375 15.40625 
Q 45.265625 7.28125 39.375 3.03125 
Q 33.5 -1.21875 25.59375 -1.21875 
Q 17.1875 -1.21875 11.859375 3.4375 
Q 6.546875 8.109375 5.46875 16.546875 
z
M 41.453125 48.140625 
Q 41.453125 55.71875 37.421875 60.15625 
Q 33.40625 64.59375 27.734375 64.59375 
Q 21.875 64.59375 17.53125 59.8125 
Q 13.1875 55.03125 13.1875 47.40625 
Q 13.1875 40.578125 17.3125 36.296875 
Q 21.4375 32.03125 27.484375 32.03125 
Q 33.59375 32.03125 37.515625 36.296875 
Q 41.453125 40.578125 41.453125 48.140625 
z
" id="ArialMT-57"/>
     </defs>
     <use xlink:href="#ArialMT-97"/>
     <use x="55.615234" xlink:href="#ArialMT-57"/>
     <use x="111.230469" xlink:href="#ArialMT-49"/>
    </g>
   </g>
   <g id="PathCollection_3">
    <g>
     <use style="fill:#4c72b0;stroke:#4c72b0;" x="375.036655" xlink:href="#m4328c066f2" y="182.170547"/>
    </g>
   </g>
   <g id="text_18">
    <!-- 1.0 -->
    <g style="fill:#262626;" transform="translate(394.836655 185.058047)scale(0.11 -0.11)">
     <use xlink:href="#ArialMT-49"/>
     <use x="55.615234" xlink:href="#ArialMT-46"/>
     <use x="83.398438" xlink:href="#ArialMT-48"/>
    </g>
   </g>
   <g id="PathCollection_4">
    <g>
     <use style="fill:#dd8452;stroke:#dd8452;" x="375.036655" xlink:href="#m052a6e5f5b" y="197.730391"/>
    </g>
   </g>
   <g id="text_19">
    <!-- 2.0 -->
    <g style="fill:#262626;" transform="translate(394.836655 200.617891)scale(0.11 -0.11)">
     <use xlink:href="#ArialMT-50"/>
     <use x="55.615234" xlink:href="#ArialMT-46"/>
     <use x="83.398438" xlink:href="#ArialMT-48"/>
    </g>
   </g>
  </g>
 </g>
 <defs>
  <clipPath id="p4167737dc0">
   <rect height="314.58" width="312.23753" x="46.964375" y="7.2"/>
  </clipPath>
 </defs>
</svg>
