<?xml version="1.0" encoding="utf-8" standalone="no"?>
<!DOCTYPE svg PUBLIC "-//W3C//DTD SVG 1.1//EN"
  "http://www.w3.org/Graphics/SVG/1.1/DTD/svg11.dtd">
<!-- Created with matplotlib (https://matplotlib.org/) -->
<svg height="363.514219pt" version="1.1" viewBox="0 0 420.026655 363.514219" width="420.026655pt" xmlns="http://www.w3.org/2000/svg" xmlns:xlink="http://www.w3.org/1999/xlink">
 <metadata>
  <rdf:RDF xmlns:cc="http://creativecommons.org/ns#" xmlns:dc="http://purl.org/dc/elements/1.1/" xmlns:rdf="http://www.w3.org/1999/02/22-rdf-syntax-ns#">
   <cc:Work>
    <dc:type rdf:resource="http://purl.org/dc/dcmitype/StillImage"/>
    <dc:date>2021-03-11T19:24:54.173727</dc:date>
    <dc:format>image/svg+xml</dc:format>
    <dc:creator>
     <cc:Agent>
      <dc:title>Matplotlib v3.3.4, https://matplotlib.org/</dc:title>
     </cc:Agent>
    </dc:creator>
   </cc:Work>
  </rdf:RDF>
 </metadata>
 <defs>
  <style type="text/css">*{stroke-linecap:butt;stroke-linejoin:round;}</style>
 </defs>
 <g id="figure_1">
  <g id="patch_1">
   <path d="M -0 363.514219 
L 420.026655 363.514219 
L 420.026655 0 
L -0 0 
z
" style="fill:#ffffff;"/>
  </g>
  <g id="axes_1">
   <g id="patch_2">
    <path d="M 46.964375 321.78 
L 359.201905 321.78 
L 359.201905 7.2 
L 46.964375 7.2 
z
" style="fill:#ffffff;"/>
   </g>
   <g id="matplotlib.axis_1">
    <g id="xtick_1">
     <g id="line2d_1">
      <defs>
       <path d="M 0 0 
L 0 6 
" id="m017e29206f" style="stroke:#262626;stroke-width:1.25;"/>
      </defs>
      <g>
       <use style="fill:#262626;stroke:#262626;stroke-width:1.25;" x="46.964375" xlink:href="#m017e29206f" y="321.78"/>
      </g>
     </g>
     <g id="text_1">
      <!-- 1.0 -->
      <g style="fill:#262626;" transform="translate(39.319375 339.153594)scale(0.11 -0.11)">
       <defs>
        <path d="M 37.25 0 
L 28.46875 0 
L 28.46875 56 
Q 25.296875 52.984375 20.140625 49.953125 
Q 14.984375 46.921875 10.890625 45.40625 
L 10.890625 53.90625 
Q 18.265625 57.375 23.78125 62.296875 
Q 29.296875 67.234375 31.59375 71.875 
L 37.25 71.875 
z
" id="ArialMT-49"/>
        <path d="M 9.078125 0 
L 9.078125 10.015625 
L 19.09375 10.015625 
L 19.09375 0 
z
" id="ArialMT-46"/>
        <path d="M 4.15625 35.296875 
Q 4.15625 48 6.765625 55.734375 
Q 9.375 63.484375 14.515625 67.671875 
Q 19.671875 71.875 27.484375 71.875 
Q 33.25 71.875 37.59375 69.546875 
Q 41.9375 67.234375 44.765625 62.859375 
Q 47.609375 58.5 49.21875 52.21875 
Q 50.828125 45.953125 50.828125 35.296875 
Q 50.828125 22.703125 48.234375 14.96875 
Q 45.65625 7.234375 40.5 3 
Q 35.359375 -1.21875 27.484375 -1.21875 
Q 17.140625 -1.21875 11.234375 6.203125 
Q 4.15625 15.140625 4.15625 35.296875 
z
M 13.1875 35.296875 
Q 13.1875 17.671875 17.3125 11.828125 
Q 21.4375 6 27.484375 6 
Q 33.546875 6 37.671875 11.859375 
Q 41.796875 17.71875 41.796875 35.296875 
Q 41.796875 52.984375 37.671875 58.78125 
Q 33.546875 64.59375 27.390625 64.59375 
Q 21.34375 64.59375 17.71875 59.46875 
Q 13.1875 52.9375 13.1875 35.296875 
z
" id="ArialMT-48"/>
       </defs>
       <use xlink:href="#ArialMT-49"/>
       <use x="55.615234" xlink:href="#ArialMT-46"/>
       <use x="83.398438" xlink:href="#ArialMT-48"/>
      </g>
     </g>
    </g>
    <g id="xtick_2">
     <g id="line2d_2">
      <g>
       <use style="fill:#262626;stroke:#262626;stroke-width:1.25;" x="85.994066" xlink:href="#m017e29206f" y="321.78"/>
      </g>
     </g>
     <g id="text_2">
      <!-- 1.5 -->
      <g style="fill:#262626;" transform="translate(78.349066 339.153594)scale(0.11 -0.11)">
       <defs>
        <path d="M 4.15625 18.75 
L 13.375 19.53125 
Q 14.40625 12.796875 18.140625 9.390625 
Q 21.875 6 27.15625 6 
Q 33.5 6 37.890625 10.78125 
Q 42.28125 15.578125 42.28125 23.484375 
Q 42.28125 31 38.0625 35.34375 
Q 33.84375 39.703125 27 39.703125 
Q 22.75 39.703125 19.328125 37.765625 
Q 15.921875 35.84375 13.96875 32.765625 
L 5.71875 33.84375 
L 12.640625 70.609375 
L 48.25 70.609375 
L 48.25 62.203125 
L 19.671875 62.203125 
L 15.828125 42.96875 
Q 22.265625 47.46875 29.34375 47.46875 
Q 38.71875 47.46875 45.15625 40.96875 
Q 51.609375 34.46875 51.609375 24.265625 
Q 51.609375 14.546875 45.953125 7.46875 
Q 39.0625 -1.21875 27.15625 -1.21875 
Q 17.390625 -1.21875 11.203125 4.25 
Q 5.03125 9.71875 4.15625 18.75 
z
" id="ArialMT-53"/>
       </defs>
       <use xlink:href="#ArialMT-49"/>
       <use x="55.615234" xlink:href="#ArialMT-46"/>
       <use x="83.398438" xlink:href="#ArialMT-53"/>
      </g>
     </g>
    </g>
    <g id="xtick_3">
     <g id="line2d_3">
      <g>
       <use style="fill:#262626;stroke:#262626;stroke-width:1.25;" x="125.023758" xlink:href="#m017e29206f" y="321.78"/>
      </g>
     </g>
     <g id="text_3">
      <!-- 2.0 -->
      <g style="fill:#262626;" transform="translate(117.378758 339.153594)scale(0.11 -0.11)">
       <defs>
        <path d="M 50.34375 8.453125 
L 50.34375 0 
L 3.03125 0 
Q 2.9375 3.171875 4.046875 6.109375 
Q 5.859375 10.9375 9.828125 15.625 
Q 13.8125 20.3125 21.34375 26.46875 
Q 33.015625 36.03125 37.109375 41.625 
Q 41.21875 47.21875 41.21875 52.203125 
Q 41.21875 57.421875 37.46875 61 
Q 33.734375 64.59375 27.734375 64.59375 
Q 21.390625 64.59375 17.578125 60.78125 
Q 13.765625 56.984375 13.71875 50.25 
L 4.6875 51.171875 
Q 5.609375 61.28125 11.65625 66.578125 
Q 17.71875 71.875 27.9375 71.875 
Q 38.234375 71.875 44.234375 66.15625 
Q 50.25 60.453125 50.25 52 
Q 50.25 47.703125 48.484375 43.546875 
Q 46.734375 39.40625 42.65625 34.8125 
Q 38.578125 30.21875 29.109375 22.21875 
Q 21.1875 15.578125 18.9375 13.203125 
Q 16.703125 10.84375 15.234375 8.453125 
z
" id="ArialMT-50"/>
       </defs>
       <use xlink:href="#ArialMT-50"/>
       <use x="55.615234" xlink:href="#ArialMT-46"/>
       <use x="83.398438" xlink:href="#ArialMT-48"/>
      </g>
     </g>
    </g>
    <g id="xtick_4">
     <g id="line2d_4">
      <g>
       <use style="fill:#262626;stroke:#262626;stroke-width:1.25;" x="164.053449" xlink:href="#m017e29206f" y="321.78"/>
      </g>
     </g>
     <g id="text_4">
      <!-- 2.5 -->
      <g style="fill:#262626;" transform="translate(156.408449 339.153594)scale(0.11 -0.11)">
       <use xlink:href="#ArialMT-50"/>
       <use x="55.615234" xlink:href="#ArialMT-46"/>
       <use x="83.398438" xlink:href="#ArialMT-53"/>
      </g>
     </g>
    </g>
    <g id="xtick_5">
     <g id="line2d_5">
      <g>
       <use style="fill:#262626;stroke:#262626;stroke-width:1.25;" x="203.08314" xlink:href="#m017e29206f" y="321.78"/>
      </g>
     </g>
     <g id="text_5">
      <!-- 3.0 -->
      <g style="fill:#262626;" transform="translate(195.43814 339.153594)scale(0.11 -0.11)">
       <defs>
        <path d="M 4.203125 18.890625 
L 12.984375 20.0625 
Q 14.5 12.59375 18.140625 9.296875 
Q 21.78125 6 27 6 
Q 33.203125 6 37.46875 10.296875 
Q 41.75 14.59375 41.75 20.953125 
Q 41.75 27 37.796875 30.921875 
Q 33.84375 34.859375 27.734375 34.859375 
Q 25.25 34.859375 21.53125 33.890625 
L 22.515625 41.609375 
Q 23.390625 41.5 23.921875 41.5 
Q 29.546875 41.5 34.03125 44.421875 
Q 38.53125 47.359375 38.53125 53.46875 
Q 38.53125 58.296875 35.25 61.46875 
Q 31.984375 64.65625 26.8125 64.65625 
Q 21.6875 64.65625 18.265625 61.421875 
Q 14.84375 58.203125 13.875 51.765625 
L 5.078125 53.328125 
Q 6.6875 62.15625 12.390625 67.015625 
Q 18.109375 71.875 26.609375 71.875 
Q 32.46875 71.875 37.390625 69.359375 
Q 42.328125 66.84375 44.9375 62.5 
Q 47.5625 58.15625 47.5625 53.265625 
Q 47.5625 48.640625 45.0625 44.828125 
Q 42.578125 41.015625 37.703125 38.765625 
Q 44.046875 37.3125 47.5625 32.6875 
Q 51.078125 28.078125 51.078125 21.140625 
Q 51.078125 11.765625 44.234375 5.25 
Q 37.40625 -1.265625 26.953125 -1.265625 
Q 17.53125 -1.265625 11.296875 4.34375 
Q 5.078125 9.96875 4.203125 18.890625 
z
" id="ArialMT-51"/>
       </defs>
       <use xlink:href="#ArialMT-51"/>
       <use x="55.615234" xlink:href="#ArialMT-46"/>
       <use x="83.398438" xlink:href="#ArialMT-48"/>
      </g>
     </g>
    </g>
    <g id="xtick_6">
     <g id="line2d_6">
      <g>
       <use style="fill:#262626;stroke:#262626;stroke-width:1.25;" x="242.112831" xlink:href="#m017e29206f" y="321.78"/>
      </g>
     </g>
     <g id="text_6">
      <!-- 3.5 -->
      <g style="fill:#262626;" transform="translate(234.467831 339.153594)scale(0.11 -0.11)">
       <use xlink:href="#ArialMT-51"/>
       <use x="55.615234" xlink:href="#ArialMT-46"/>
       <use x="83.398438" xlink:href="#ArialMT-53"/>
      </g>
     </g>
    </g>
    <g id="xtick_7">
     <g id="line2d_7">
      <g>
       <use style="fill:#262626;stroke:#262626;stroke-width:1.25;" x="281.142523" xlink:href="#m017e29206f" y="321.78"/>
      </g>
     </g>
     <g id="text_7">
      <!-- 4.0 -->
      <g style="fill:#262626;" transform="translate(273.497523 339.153594)scale(0.11 -0.11)">
       <defs>
        <path d="M 32.328125 0 
L 32.328125 17.140625 
L 1.265625 17.140625 
L 1.265625 25.203125 
L 33.9375 71.578125 
L 41.109375 71.578125 
L 41.109375 25.203125 
L 50.78125 25.203125 
L 50.78125 17.140625 
L 41.109375 17.140625 
L 41.109375 0 
z
M 32.328125 25.203125 
L 32.328125 57.46875 
L 9.90625 25.203125 
z
" id="ArialMT-52"/>
       </defs>
       <use xlink:href="#ArialMT-52"/>
       <use x="55.615234" xlink:href="#ArialMT-46"/>
       <use x="83.398438" xlink:href="#ArialMT-48"/>
      </g>
     </g>
    </g>
    <g id="xtick_8">
     <g id="line2d_8">
      <g>
       <use style="fill:#262626;stroke:#262626;stroke-width:1.25;" x="320.172214" xlink:href="#m017e29206f" y="321.78"/>
      </g>
     </g>
     <g id="text_8">
      <!-- 4.5 -->
      <g style="fill:#262626;" transform="translate(312.527214 339.153594)scale(0.11 -0.11)">
       <use xlink:href="#ArialMT-52"/>
       <use x="55.615234" xlink:href="#ArialMT-46"/>
       <use x="83.398438" xlink:href="#ArialMT-53"/>
      </g>
     </g>
    </g>
    <g id="xtick_9">
     <g id="line2d_9">
      <g>
       <use style="fill:#262626;stroke:#262626;stroke-width:1.25;" x="359.201905" xlink:href="#m017e29206f" y="321.78"/>
      </g>
     </g>
     <g id="text_9">
      <!-- 5.0 -->
      <g style="fill:#262626;" transform="translate(351.556905 339.153594)scale(0.11 -0.11)">
       <use xlink:href="#ArialMT-53"/>
       <use x="55.615234" xlink:href="#ArialMT-46"/>
       <use x="83.398438" xlink:href="#ArialMT-48"/>
      </g>
     </g>
    </g>
    <g id="text_10">
     <!-- l6a -->
     <g style="fill:#262626;" transform="translate(195.07689 353.929219)scale(0.12 -0.12)">
      <defs>
       <path d="M 6.390625 0 
L 6.390625 71.578125 
L 15.1875 71.578125 
L 15.1875 0 
z
" id="ArialMT-108"/>
       <path d="M 49.75 54.046875 
L 41.015625 53.375 
Q 39.84375 58.546875 37.703125 60.890625 
Q 34.125 64.65625 28.90625 64.65625 
Q 24.703125 64.65625 21.53125 62.3125 
Q 17.390625 59.28125 14.984375 53.46875 
Q 12.59375 47.65625 12.5 36.921875 
Q 15.671875 41.75 20.265625 44.09375 
Q 24.859375 46.4375 29.890625 46.4375 
Q 38.671875 46.4375 44.84375 39.96875 
Q 51.03125 33.5 51.03125 23.25 
Q 51.03125 16.5 48.125 10.71875 
Q 45.21875 4.9375 40.140625 1.859375 
Q 35.0625 -1.21875 28.609375 -1.21875 
Q 17.625 -1.21875 10.6875 6.859375 
Q 3.765625 14.9375 3.765625 33.5 
Q 3.765625 54.25 11.421875 63.671875 
Q 18.109375 71.875 29.4375 71.875 
Q 37.890625 71.875 43.28125 67.140625 
Q 48.6875 62.40625 49.75 54.046875 
z
M 13.875 23.1875 
Q 13.875 18.65625 15.796875 14.5 
Q 17.71875 10.359375 21.1875 8.171875 
Q 24.65625 6 28.46875 6 
Q 34.03125 6 38.03125 10.484375 
Q 42.046875 14.984375 42.046875 22.703125 
Q 42.046875 30.125 38.078125 34.390625 
Q 34.125 38.671875 28.125 38.671875 
Q 22.171875 38.671875 18.015625 34.390625 
Q 13.875 30.125 13.875 23.1875 
z
" id="ArialMT-54"/>
       <path d="M 40.4375 6.390625 
Q 35.546875 2.25 31.03125 0.53125 
Q 26.515625 -1.171875 21.34375 -1.171875 
Q 12.796875 -1.171875 8.203125 3 
Q 3.609375 7.171875 3.609375 13.671875 
Q 3.609375 17.484375 5.34375 20.625 
Q 7.078125 23.78125 9.890625 25.6875 
Q 12.703125 27.59375 16.21875 28.5625 
Q 18.796875 29.25 24.03125 29.890625 
Q 34.671875 31.15625 39.703125 32.90625 
Q 39.75 34.71875 39.75 35.203125 
Q 39.75 40.578125 37.25 42.78125 
Q 33.890625 45.75 27.25 45.75 
Q 21.046875 45.75 18.09375 43.578125 
Q 15.140625 41.40625 13.71875 35.890625 
L 5.125 37.0625 
Q 6.296875 42.578125 8.984375 45.96875 
Q 11.671875 49.359375 16.75 51.1875 
Q 21.828125 53.03125 28.515625 53.03125 
Q 35.15625 53.03125 39.296875 51.46875 
Q 43.453125 49.90625 45.40625 47.53125 
Q 47.359375 45.171875 48.140625 41.546875 
Q 48.578125 39.3125 48.578125 33.453125 
L 48.578125 21.734375 
Q 48.578125 9.46875 49.140625 6.21875 
Q 49.703125 2.984375 51.375 0 
L 42.1875 0 
Q 40.828125 2.734375 40.4375 6.390625 
z
M 39.703125 26.03125 
Q 34.90625 24.078125 25.34375 22.703125 
Q 19.921875 21.921875 17.671875 20.9375 
Q 15.4375 19.96875 14.203125 18.09375 
Q 12.984375 16.21875 12.984375 13.921875 
Q 12.984375 10.40625 15.640625 8.0625 
Q 18.3125 5.71875 23.4375 5.71875 
Q 28.515625 5.71875 32.46875 7.9375 
Q 36.421875 10.15625 38.28125 14.015625 
Q 39.703125 17 39.703125 22.796875 
z
" id="ArialMT-97"/>
      </defs>
      <use xlink:href="#ArialMT-108"/>
      <use x="22.216797" xlink:href="#ArialMT-54"/>
      <use x="77.832031" xlink:href="#ArialMT-97"/>
     </g>
    </g>
   </g>
   <g id="matplotlib.axis_2">
    <g id="ytick_1">
     <g id="line2d_10">
      <defs>
       <path d="M 0 0 
L -6 0 
" id="m784b02a443" style="stroke:#262626;stroke-width:1.25;"/>
      </defs>
      <g>
       <use style="fill:#262626;stroke:#262626;stroke-width:1.25;" x="46.964375" xlink:href="#m784b02a443" y="312.426504"/>
      </g>
     </g>
     <g id="text_11">
      <!-- 1.5 -->
      <g style="fill:#262626;" transform="translate(22.174375 316.363301)scale(0.11 -0.11)">
       <use xlink:href="#ArialMT-49"/>
       <use x="55.615234" xlink:href="#ArialMT-46"/>
       <use x="83.398438" xlink:href="#ArialMT-53"/>
      </g>
     </g>
    </g>
    <g id="ytick_2">
     <g id="line2d_11">
      <g>
       <use style="fill:#262626;stroke:#262626;stroke-width:1.25;" x="46.964375" xlink:href="#m784b02a443" y="245.289409"/>
      </g>
     </g>
     <g id="text_12">
      <!-- 2.0 -->
      <g style="fill:#262626;" transform="translate(22.174375 249.226206)scale(0.11 -0.11)">
       <use xlink:href="#ArialMT-50"/>
       <use x="55.615234" xlink:href="#ArialMT-46"/>
       <use x="83.398438" xlink:href="#ArialMT-48"/>
      </g>
     </g>
    </g>
    <g id="ytick_3">
     <g id="line2d_12">
      <g>
       <use style="fill:#262626;stroke:#262626;stroke-width:1.25;" x="46.964375" xlink:href="#m784b02a443" y="178.152313"/>
      </g>
     </g>
     <g id="text_13">
      <!-- 2.5 -->
      <g style="fill:#262626;" transform="translate(22.174375 182.08911)scale(0.11 -0.11)">
       <use xlink:href="#ArialMT-50"/>
       <use x="55.615234" xlink:href="#ArialMT-46"/>
       <use x="83.398438" xlink:href="#ArialMT-53"/>
      </g>
     </g>
    </g>
    <g id="ytick_4">
     <g id="line2d_13">
      <g>
       <use style="fill:#262626;stroke:#262626;stroke-width:1.25;" x="46.964375" xlink:href="#m784b02a443" y="111.015218"/>
      </g>
     </g>
     <g id="text_14">
      <!-- 3.0 -->
      <g style="fill:#262626;" transform="translate(22.174375 114.952015)scale(0.11 -0.11)">
       <use xlink:href="#ArialMT-51"/>
       <use x="55.615234" xlink:href="#ArialMT-46"/>
       <use x="83.398438" xlink:href="#ArialMT-48"/>
      </g>
     </g>
    </g>
    <g id="ytick_5">
     <g id="line2d_14">
      <g>
       <use style="fill:#262626;stroke:#262626;stroke-width:1.25;" x="46.964375" xlink:href="#m784b02a443" y="43.878123"/>
      </g>
     </g>
     <g id="text_15">
      <!-- 3.5 -->
      <g style="fill:#262626;" transform="translate(22.174375 47.81492)scale(0.11 -0.11)">
       <use xlink:href="#ArialMT-51"/>
       <use x="55.615234" xlink:href="#ArialMT-46"/>
       <use x="83.398438" xlink:href="#ArialMT-53"/>
      </g>
     </g>
    </g>
    <g id="text_16">
     <!-- l6b -->
     <g style="fill:#262626;" transform="translate(15.789375 172.49625)rotate(-90)scale(0.12 -0.12)">
      <defs>
       <path d="M 14.703125 0 
L 6.546875 0 
L 6.546875 71.578125 
L 15.328125 71.578125 
L 15.328125 46.046875 
Q 20.90625 53.03125 29.546875 53.03125 
Q 34.328125 53.03125 38.59375 51.09375 
Q 42.875 49.171875 45.625 45.671875 
Q 48.390625 42.1875 49.953125 37.25 
Q 51.515625 32.328125 51.515625 26.703125 
Q 51.515625 13.375 44.921875 6.09375 
Q 38.328125 -1.171875 29.109375 -1.171875 
Q 19.921875 -1.171875 14.703125 6.5 
z
M 14.59375 26.3125 
Q 14.59375 17 17.140625 12.84375 
Q 21.296875 6.0625 28.375 6.0625 
Q 34.125 6.0625 38.328125 11.0625 
Q 42.53125 16.0625 42.53125 25.984375 
Q 42.53125 36.140625 38.5 40.96875 
Q 34.46875 45.796875 28.765625 45.796875 
Q 23 45.796875 18.796875 40.796875 
Q 14.59375 35.796875 14.59375 26.3125 
z
" id="ArialMT-98"/>
      </defs>
      <use xlink:href="#ArialMT-108"/>
      <use x="22.216797" xlink:href="#ArialMT-54"/>
      <use x="77.832031" xlink:href="#ArialMT-98"/>
     </g>
    </g>
   </g>
   <g id="PathCollection_1">
    <defs>
     <path d="M 0 3.535534 
C 0.937635 3.535534 1.836992 3.163008 2.5 2.5 
C 3.163008 1.836992 3.535534 0.937635 3.535534 0 
C 3.535534 -0.937635 3.163008 -1.836992 2.5 -2.5 
C 1.836992 -3.163008 0.937635 -3.535534 0 -3.535534 
C -0.937635 -3.535534 -1.836992 -3.163008 -2.5 -2.5 
C -3.163008 -1.836992 -3.535534 -0.937635 -3.535534 0 
C -3.535534 0.937635 -3.163008 1.836992 -2.5 2.5 
C -1.836992 3.163008 -0.937635 3.535534 0 3.535534 
z
" id="m09fa9c4048" style="stroke:#4c72b0;"/>
    </defs>
    <g clip-path="url(#pfb76c98d61)">
     <use style="fill:#4c72b0;stroke:#4c72b0;" x="46.964375" xlink:href="#m09fa9c4048" y="105.42046"/>
     <use style="fill:#4c72b0;stroke:#4c72b0;" x="125.023758" xlink:href="#m09fa9c4048" y="154.115576"/>
     <use style="fill:#4c72b0;stroke:#4c72b0;" x="203.08314" xlink:href="#m09fa9c4048" y="170.692636"/>
     <use style="fill:#4c72b0;stroke:#4c72b0;" x="281.142523" xlink:href="#m09fa9c4048" y="209.298389"/>
     <use style="fill:#4c72b0;stroke:#4c72b0;" x="359.201905" xlink:href="#m09fa9c4048" y="255.214023"/>
    </g>
   </g>
   <g id="PolyCollection_1">
    <defs>
     <path d="M 46.964375 -276.944076 
L 46.964375 -236.347509 
L 50.118289 -235.276476 
L 53.272204 -234.218993 
L 56.426118 -233.161509 
L 59.580033 -232.005301 
L 62.733947 -230.838039 
L 65.887862 -229.670778 
L 69.041776 -228.504162 
L 72.195691 -227.368421 
L 75.349605 -226.232746 
L 78.503519 -225.0622 
L 81.657434 -223.924865 
L 84.811348 -222.802834 
L 87.965263 -221.666154 
L 91.119177 -220.535915 
L 94.273092 -219.405676 
L 97.427006 -218.275437 
L 100.580921 -217.054659 
L 103.734835 -215.826404 
L 106.888749 -214.655541 
L 110.042664 -213.492184 
L 113.196578 -212.460438 
L 116.350493 -211.344912 
L 119.504407 -210.173416 
L 122.658322 -209.000407 
L 125.812236 -207.826546 
L 128.966151 -206.641342 
L 132.120065 -205.490609 
L 135.27398 -204.358134 
L 138.427894 -203.116117 
L 141.581808 -201.963451 
L 144.735723 -200.803441 
L 147.889637 -199.607246 
L 151.043552 -198.33805 
L 154.197466 -197.172647 
L 157.351381 -195.909458 
L 160.505295 -194.676445 
L 163.65921 -193.563927 
L 166.813124 -192.46786 
L 169.967038 -191.247871 
L 173.120953 -189.952379 
L 176.274867 -188.784061 
L 179.428782 -187.615742 
L 182.582696 -186.396497 
L 185.736611 -185.09408 
L 188.890525 -183.868801 
L 192.04444 -182.779159 
L 195.198354 -181.426568 
L 198.352268 -180.087611 
L 201.506183 -178.78952 
L 204.660097 -177.419281 
L 207.814012 -176.04798 
L 210.967926 -174.673936 
L 214.121841 -173.579712 
L 217.275755 -172.251984 
L 220.42967 -170.864845 
L 223.583584 -169.581609 
L 226.737498 -168.274141 
L 229.891413 -166.873761 
L 233.045327 -165.471113 
L 236.199242 -164.169822 
L 239.353156 -162.83056 
L 242.507071 -161.580478 
L 245.660985 -160.127162 
L 248.8149 -158.694545 
L 251.968814 -157.21185 
L 255.122728 -155.707364 
L 258.276643 -154.245842 
L 261.430557 -152.713065 
L 264.584472 -151.347453 
L 267.738386 -149.993037 
L 270.892301 -148.591385 
L 274.046215 -147.146334 
L 277.20013 -145.692996 
L 280.354044 -144.1862 
L 283.507958 -142.747371 
L 286.661873 -141.144418 
L 289.815787 -139.428882 
L 292.969702 -137.805487 
L 296.123616 -136.255593 
L 299.277531 -134.643753 
L 302.431445 -133.137264 
L 305.58536 -131.592959 
L 308.739274 -130.082464 
L 311.893189 -128.467506 
L 315.047103 -126.787912 
L 318.201017 -125.195172 
L 321.354932 -123.595814 
L 324.508846 -121.998996 
L 327.662761 -120.385899 
L 330.816675 -118.629612 
L 333.97059 -116.949417 
L 337.124504 -115.377719 
L 340.278419 -113.688796 
L 343.432333 -112.076552 
L 346.586247 -110.505305 
L 349.740162 -108.833613 
L 352.894076 -107.191819 
L 356.047991 -105.655538 
L 359.201905 -103.970339 
L 359.201905 -127.898162 
L 359.201905 -127.898162 
L 356.047991 -129.063979 
L 352.894076 -130.20812 
L 349.740162 -131.395986 
L 346.586247 -132.583852 
L 343.432333 -133.771718 
L 340.278419 -134.958661 
L 337.124504 -136.101642 
L 333.97059 -137.284217 
L 330.816675 -138.426974 
L 327.662761 -139.710062 
L 324.508846 -140.944641 
L 321.354932 -142.244592 
L 318.201017 -143.331043 
L 315.047103 -144.756336 
L 311.893189 -145.901253 
L 308.739274 -147.221496 
L 305.58536 -148.448489 
L 302.431445 -149.637475 
L 299.277531 -150.863189 
L 296.123616 -152.148434 
L 292.969702 -153.421131 
L 289.815787 -154.650075 
L 286.661873 -155.712044 
L 283.507958 -157.073364 
L 280.354044 -158.299881 
L 277.20013 -159.60459 
L 274.046215 -160.926758 
L 270.892301 -162.415835 
L 267.738386 -163.728909 
L 264.584472 -165.264365 
L 261.430557 -166.745369 
L 258.276643 -167.998331 
L 255.122728 -169.380556 
L 251.968814 -170.853591 
L 248.8149 -172.337795 
L 245.660985 -173.688608 
L 242.507071 -175.14819 
L 239.353156 -176.579825 
L 236.199242 -178.0428 
L 233.045327 -179.382614 
L 229.891413 -180.860814 
L 226.737498 -182.419287 
L 223.583584 -184.146279 
L 220.42967 -185.656109 
L 217.275755 -187.274146 
L 214.121841 -188.894034 
L 210.967926 -190.527709 
L 207.814012 -192.168724 
L 204.660097 -193.849555 
L 201.506183 -195.442059 
L 198.352268 -197.077212 
L 195.198354 -198.668029 
L 192.04444 -200.190164 
L 188.890525 -201.689238 
L 185.736611 -203.201122 
L 182.582696 -204.821263 
L 179.428782 -206.366074 
L 176.274867 -207.989831 
L 173.120953 -209.597937 
L 169.967038 -211.315944 
L 166.813124 -213.030721 
L 163.65921 -214.64901 
L 160.505295 -216.362711 
L 157.351381 -217.972535 
L 154.197466 -219.550893 
L 151.043552 -221.166473 
L 147.889637 -222.978407 
L 144.735723 -224.891782 
L 141.581808 -226.500481 
L 138.427894 -228.068037 
L 135.27398 -229.776344 
L 132.120065 -231.46551 
L 128.966151 -233.181401 
L 125.812236 -234.904748 
L 122.658322 -236.625684 
L 119.504407 -238.332988 
L 116.350493 -239.98682 
L 113.196578 -241.721393 
L 110.042664 -243.474497 
L 106.888749 -245.157541 
L 103.734835 -246.684068 
L 100.580921 -248.253974 
L 97.427006 -249.905548 
L 94.273092 -251.557122 
L 91.119177 -253.208696 
L 87.965263 -254.86027 
L 84.811348 -256.511844 
L 81.657434 -258.163418 
L 78.503519 -259.814992 
L 75.349605 -261.509567 
L 72.195691 -263.212571 
L 69.041776 -264.915575 
L 65.887862 -266.55981 
L 62.733947 -268.21107 
L 59.580033 -269.962113 
L 56.426118 -271.713156 
L 53.272204 -273.440027 
L 50.118289 -275.185213 
L 46.964375 -276.944076 
z
" id="mb4ffe61a54" style="stroke:#ffffff;stroke-opacity:0.15;"/>
    </defs>
    <g clip-path="url(#pfb76c98d61)">
     <use style="fill:#4c72b0;fill-opacity:0.15;stroke:#ffffff;stroke-opacity:0.15;" x="0" xlink:href="#mb4ffe61a54" y="363.514219"/>
    </g>
   </g>
   <g id="PathCollection_2">
    <defs>
     <path d="M 0 3.535534 
C 0.937635 3.535534 1.836992 3.163008 2.5 2.5 
C 3.163008 1.836992 3.535534 0.937635 3.535534 0 
C 3.535534 -0.937635 3.163008 -1.836992 2.5 -2.5 
C 1.836992 -3.163008 0.937635 -3.535534 0 -3.535534 
C -0.937635 -3.535534 -1.836992 -3.163008 -2.5 -2.5 
C -3.163008 -1.836992 -3.535534 -0.937635 -3.535534 0 
C -3.535534 0.937635 -3.163008 1.836992 -2.5 2.5 
C -1.836992 3.163008 -0.937635 3.535534 0 3.535534 
z
" id="m9b16878c63" style="stroke:#dd8452;"/>
    </defs>
    <g clip-path="url(#pfb76c98d61)">
     <use style="fill:#dd8452;stroke:#dd8452;" x="46.964375" xlink:href="#m9b16878c63" y="86.149627"/>
     <use style="fill:#dd8452;stroke:#dd8452;" x="125.023758" xlink:href="#m9b16878c63" y="220.595305"/>
     <use style="fill:#dd8452;stroke:#dd8452;" x="203.08314" xlink:href="#m9b16878c63" y="206.541714"/>
     <use style="fill:#dd8452;stroke:#dd8452;" x="281.142523" xlink:href="#m9b16878c63" y="240.157151"/>
     <use style="fill:#dd8452;stroke:#dd8452;" x="359.201905" xlink:href="#m9b16878c63" y="296.5391"/>
    </g>
   </g>
   <g id="PolyCollection_2">
    <defs>
     <path d="M 46.964375 -233.689579 
L 46.964375 -199.513495 
L 50.118289 -198.334335 
L 53.272204 -197.155174 
L 56.426118 -195.976013 
L 59.580033 -194.796853 
L 62.733947 -193.617692 
L 65.887862 -192.438532 
L 69.041776 -191.259371 
L 72.195691 -190.080211 
L 75.349605 -188.90105 
L 78.503519 -187.72189 
L 81.657434 -186.542729 
L 84.811348 -185.363569 
L 87.965263 -184.203611 
L 91.119177 -183.10282 
L 94.273092 -182.00262 
L 97.427006 -180.90393 
L 100.580921 -179.80524 
L 103.734835 -178.706551 
L 106.888749 -177.606995 
L 110.042664 -176.505918 
L 113.196578 -175.362754 
L 116.350493 -174.275003 
L 119.504407 -173.194269 
L 122.658322 -172.103129 
L 125.812236 -171.003692 
L 128.966151 -169.904255 
L 132.120065 -168.804817 
L 135.27398 -167.621796 
L 138.427894 -166.39345 
L 141.581808 -165.244728 
L 144.735723 -164.142736 
L 147.889637 -162.908983 
L 151.043552 -161.719555 
L 154.197466 -160.634964 
L 157.351381 -159.52603 
L 160.505295 -158.266038 
L 163.65921 -157.185793 
L 166.813124 -156.122868 
L 169.967038 -154.84087 
L 173.120953 -153.545482 
L 176.274867 -152.418533 
L 179.428782 -151.303929 
L 182.582696 -150.213322 
L 185.736611 -149.07514 
L 188.890525 -147.822131 
L 192.04444 -146.543186 
L 195.198354 -145.264241 
L 198.352268 -144.076483 
L 201.506183 -142.812579 
L 204.660097 -141.55784 
L 207.814012 -140.452569 
L 210.967926 -139.336753 
L 214.121841 -138.076027 
L 217.275755 -136.922904 
L 220.42967 -135.742046 
L 223.583584 -134.521362 
L 226.737498 -133.339766 
L 229.891413 -132.186161 
L 233.045327 -130.843558 
L 236.199242 -129.705339 
L 239.353156 -128.437844 
L 242.507071 -127.156124 
L 245.660985 -125.896622 
L 248.8149 -124.64341 
L 251.968814 -123.323732 
L 255.122728 -122.100339 
L 258.276643 -120.80056 
L 261.430557 -119.54294 
L 264.584472 -118.28081 
L 267.738386 -116.951012 
L 270.892301 -115.723147 
L 274.046215 -114.416803 
L 277.20013 -112.994615 
L 280.354044 -111.609402 
L 283.507958 -110.100253 
L 286.661873 -108.706814 
L 289.815787 -107.414068 
L 292.969702 -105.990736 
L 296.123616 -104.410306 
L 299.277531 -102.995769 
L 302.431445 -101.603689 
L 305.58536 -100.112092 
L 308.739274 -98.739807 
L 311.893189 -97.261601 
L 315.047103 -95.694174 
L 318.201017 -94.280072 
L 321.354932 -92.722014 
L 324.508846 -91.212126 
L 327.662761 -89.669909 
L 330.816675 -88.087237 
L 333.97059 -86.638579 
L 337.124504 -85.098593 
L 340.278419 -83.54946 
L 343.432333 -82.058601 
L 346.586247 -80.555716 
L 349.740162 -79.032206 
L 352.894076 -77.534507 
L 356.047991 -76.041685 
L 359.201905 -74.470808 
L 359.201905 -90.626144 
L 359.201905 -90.626144 
L 356.047991 -91.769147 
L 352.894076 -92.907158 
L 349.740162 -94.05465 
L 346.586247 -95.23653 
L 343.432333 -96.438764 
L 340.278419 -97.669642 
L 337.124504 -98.856222 
L 333.97059 -100.059234 
L 330.816675 -101.171492 
L 327.662761 -102.362394 
L 324.508846 -103.567487 
L 321.354932 -104.711412 
L 318.201017 -105.880016 
L 315.047103 -107.099127 
L 311.893189 -108.334088 
L 308.739274 -109.657214 
L 305.58536 -110.882389 
L 302.431445 -112.091159 
L 299.277531 -113.349821 
L 296.123616 -114.703159 
L 292.969702 -115.924271 
L 289.815787 -117.193726 
L 286.661873 -118.395716 
L 283.507958 -119.58394 
L 280.354044 -120.934734 
L 277.20013 -122.257902 
L 274.046215 -123.531674 
L 270.892301 -124.955439 
L 267.738386 -126.41432 
L 264.584472 -127.797666 
L 261.430557 -129.182742 
L 258.276643 -130.652835 
L 255.122728 -131.843861 
L 251.968814 -133.393297 
L 248.8149 -134.674 
L 245.660985 -136.003507 
L 242.507071 -137.458122 
L 239.353156 -138.816678 
L 236.199242 -140.270709 
L 233.045327 -141.689818 
L 229.891413 -143.24346 
L 226.737498 -144.767225 
L 223.583584 -146.324826 
L 220.42967 -147.855418 
L 217.275755 -149.368351 
L 214.121841 -150.842842 
L 210.967926 -152.427007 
L 207.814012 -153.891989 
L 204.660097 -155.356918 
L 201.506183 -156.957688 
L 198.352268 -158.493062 
L 195.198354 -159.915757 
L 192.04444 -161.410414 
L 188.890525 -162.874021 
L 185.736611 -164.387812 
L 182.582696 -165.947643 
L 179.428782 -167.486016 
L 176.274867 -169.024389 
L 173.120953 -170.561404 
L 169.967038 -172.103303 
L 166.813124 -173.689731 
L 163.65921 -175.210972 
L 160.505295 -176.763169 
L 157.351381 -178.40444 
L 154.197466 -179.985225 
L 151.043552 -181.531478 
L 147.889637 -183.126568 
L 144.735723 -184.685101 
L 141.581808 -186.181967 
L 138.427894 -187.857182 
L 135.27398 -189.558319 
L 132.120065 -191.10409 
L 128.966151 -192.647761 
L 125.812236 -194.193391 
L 122.658322 -195.829829 
L 119.504407 -197.474208 
L 116.350493 -199.116987 
L 113.196578 -200.71768 
L 110.042664 -202.298837 
L 106.888749 -203.877501 
L 103.734835 -205.455704 
L 100.580921 -207.003179 
L 97.427006 -208.530729 
L 94.273092 -210.107329 
L 91.119177 -211.749391 
L 87.965263 -213.353849 
L 84.811348 -214.934988 
L 81.657434 -216.516127 
L 78.503519 -218.09492 
L 75.349605 -219.673227 
L 72.195691 -221.251534 
L 69.041776 -222.820962 
L 65.887862 -224.352563 
L 62.733947 -225.884164 
L 59.580033 -227.415764 
L 56.426118 -228.947365 
L 53.272204 -230.478966 
L 50.118289 -232.07241 
L 46.964375 -233.689579 
z
" id="ma8642e1b39" style="stroke:#ffffff;stroke-opacity:0.15;"/>
    </defs>
    <g clip-path="url(#pfb76c98d61)">
     <use style="fill:#dd8452;fill-opacity:0.15;stroke:#ffffff;stroke-opacity:0.15;" x="0" xlink:href="#ma8642e1b39" y="363.514219"/>
    </g>
   </g>
   <g id="line2d_15">
    <path clip-path="url(#pfb76c98d61)" d="M 46.964375 161.36804 
L 46.964375 49.472881 
" style="fill:none;stroke:#4c72b0;stroke-linecap:round;stroke-width:2.625;"/>
   </g>
   <g id="line2d_16">
    <path clip-path="url(#pfb76c98d61)" d="M 125.023758 173.199917 
L 125.023758 134.223103 
" style="fill:none;stroke:#4c72b0;stroke-linecap:round;stroke-width:2.625;"/>
   </g>
   <g id="line2d_17">
    <path clip-path="url(#pfb76c98d61)" d="M 203.08314 184.617367 
L 203.08314 157.252784 
" style="fill:none;stroke:#4c72b0;stroke-linecap:round;stroke-width:2.625;"/>
   </g>
   <g id="line2d_18">
    <path clip-path="url(#pfb76c98d61)" d="M 281.142523 219.911125 
L 281.142523 198.916364 
" style="fill:none;stroke:#4c72b0;stroke-linecap:round;stroke-width:2.625;"/>
   </g>
   <g id="line2d_19">
    <path clip-path="url(#pfb76c98d61)" d="M 359.201905 271.560446 
L 359.201905 238.8676 
" style="fill:none;stroke:#4c72b0;stroke-linecap:round;stroke-width:2.625;"/>
   </g>
   <g id="line2d_20">
    <path clip-path="url(#pfb76c98d61)" d="M 46.964375 107.215505 
L 50.118289 108.632314 
L 53.272204 110.049123 
L 56.426118 111.465932 
L 59.580033 112.882742 
L 62.733947 114.299551 
L 65.887862 115.71636 
L 69.041776 117.133169 
L 72.195691 118.549978 
L 75.349605 119.966787 
L 78.503519 121.383596 
L 81.657434 122.800405 
L 84.811348 124.217214 
L 87.965263 125.634023 
L 91.119177 127.050832 
L 94.273092 128.467642 
L 97.427006 129.884451 
L 100.580921 131.30126 
L 103.734835 132.718069 
L 106.888749 134.134878 
L 110.042664 135.551687 
L 113.196578 136.968496 
L 116.350493 138.385305 
L 119.504407 139.802114 
L 122.658322 141.218923 
L 125.812236 142.635732 
L 128.966151 144.052541 
L 132.120065 145.469351 
L 135.27398 146.88616 
L 138.427894 148.302969 
L 141.581808 149.719778 
L 144.735723 151.136587 
L 147.889637 152.553396 
L 151.043552 153.970205 
L 154.197466 155.387014 
L 157.351381 156.803823 
L 160.505295 158.220632 
L 163.65921 159.637441 
L 166.813124 161.054251 
L 169.967038 162.47106 
L 173.120953 163.887869 
L 176.274867 165.304678 
L 179.428782 166.721487 
L 182.582696 168.138296 
L 185.736611 169.555105 
L 188.890525 170.971914 
L 192.04444 172.388723 
L 195.198354 173.805532 
L 198.352268 175.222341 
L 201.506183 176.63915 
L 204.660097 178.05596 
L 207.814012 179.472769 
L 210.967926 180.889578 
L 214.121841 182.306387 
L 217.275755 183.723196 
L 220.42967 185.140005 
L 223.583584 186.556814 
L 226.737498 187.973623 
L 229.891413 189.390432 
L 233.045327 190.807241 
L 236.199242 192.22405 
L 239.353156 193.64086 
L 242.507071 195.057669 
L 245.660985 196.474478 
L 248.8149 197.891287 
L 251.968814 199.308096 
L 255.122728 200.724905 
L 258.276643 202.141714 
L 261.430557 203.558523 
L 264.584472 204.975332 
L 267.738386 206.392141 
L 270.892301 207.80895 
L 274.046215 209.225759 
L 277.20013 210.642569 
L 280.354044 212.059378 
L 283.507958 213.476187 
L 286.661873 214.892996 
L 289.815787 216.309805 
L 292.969702 217.726614 
L 296.123616 219.143423 
L 299.277531 220.560232 
L 302.431445 221.977041 
L 305.58536 223.39385 
L 308.739274 224.810659 
L 311.893189 226.227469 
L 315.047103 227.644278 
L 318.201017 229.061087 
L 321.354932 230.477896 
L 324.508846 231.894705 
L 327.662761 233.311514 
L 330.816675 234.728323 
L 333.97059 236.145132 
L 337.124504 237.561941 
L 340.278419 238.97875 
L 343.432333 240.395559 
L 346.586247 241.812368 
L 349.740162 243.229178 
L 352.894076 244.645987 
L 356.047991 246.062796 
L 359.201905 247.479605 
" style="fill:none;stroke:#4c72b0;stroke-linecap:round;stroke-width:2.25;"/>
   </g>
   <g id="line2d_21">
    <path clip-path="url(#pfb76c98d61)" d="M 46.964375 155.773282 
L 46.964375 21.499091 
" style="fill:none;stroke:#dd8452;stroke-linecap:round;stroke-width:2.625;"/>
   </g>
   <g id="line2d_22">
    <path clip-path="url(#pfb76c98d61)" d="M 125.023758 236.800811 
L 125.023758 202.846418 
" style="fill:none;stroke:#dd8452;stroke-linecap:round;stroke-width:2.625;"/>
   </g>
   <g id="line2d_23">
    <path clip-path="url(#pfb76c98d61)" d="M 203.08314 218.05093 
L 203.08314 195.799779 
" style="fill:none;stroke:#dd8452;stroke-linecap:round;stroke-width:2.625;"/>
   </g>
   <g id="line2d_24">
    <path clip-path="url(#pfb76c98d61)" d="M 281.142523 246.960377 
L 281.142523 233.353925 
" style="fill:none;stroke:#dd8452;stroke-linecap:round;stroke-width:2.625;"/>
   </g>
   <g id="line2d_25">
    <path clip-path="url(#pfb76c98d61)" d="M 359.201905 307.480909 
L 359.201905 285.947497 
" style="fill:none;stroke:#dd8452;stroke-linecap:round;stroke-width:2.625;"/>
   </g>
   <g id="line2d_26">
    <path clip-path="url(#pfb76c98d61)" d="M 46.964375 147.626082 
L 50.118289 148.974578 
L 53.272204 150.323074 
L 56.426118 151.671571 
L 59.580033 153.020067 
L 62.733947 154.368563 
L 65.887862 155.717059 
L 69.041776 157.065556 
L 72.195691 158.414052 
L 75.349605 159.762548 
L 78.503519 161.111044 
L 81.657434 162.459541 
L 84.811348 163.808037 
L 87.965263 165.156533 
L 91.119177 166.50503 
L 94.273092 167.853526 
L 97.427006 169.202022 
L 100.580921 170.550518 
L 103.734835 171.899015 
L 106.888749 173.247511 
L 110.042664 174.596007 
L 113.196578 175.944503 
L 116.350493 177.293 
L 119.504407 178.641496 
L 122.658322 179.989992 
L 125.812236 181.338489 
L 128.966151 182.686985 
L 132.120065 184.035481 
L 135.27398 185.383977 
L 138.427894 186.732474 
L 141.581808 188.08097 
L 144.735723 189.429466 
L 147.889637 190.777962 
L 151.043552 192.126459 
L 154.197466 193.474955 
L 157.351381 194.823451 
L 160.505295 196.171948 
L 163.65921 197.520444 
L 166.813124 198.86894 
L 169.967038 200.217436 
L 173.120953 201.565933 
L 176.274867 202.914429 
L 179.428782 204.262925 
L 182.582696 205.611421 
L 185.736611 206.959918 
L 188.890525 208.308414 
L 192.04444 209.65691 
L 195.198354 211.005407 
L 198.352268 212.353903 
L 201.506183 213.702399 
L 204.660097 215.050895 
L 207.814012 216.399392 
L 210.967926 217.747888 
L 214.121841 219.096384 
L 217.275755 220.44488 
L 220.42967 221.793377 
L 223.583584 223.141873 
L 226.737498 224.490369 
L 229.891413 225.838866 
L 233.045327 227.187362 
L 236.199242 228.535858 
L 239.353156 229.884354 
L 242.507071 231.232851 
L 245.660985 232.581347 
L 248.8149 233.929843 
L 251.968814 235.278339 
L 255.122728 236.626836 
L 258.276643 237.975332 
L 261.430557 239.323828 
L 264.584472 240.672325 
L 267.738386 242.020821 
L 270.892301 243.369317 
L 274.046215 244.717813 
L 277.20013 246.06631 
L 280.354044 247.414806 
L 283.507958 248.763302 
L 286.661873 250.111798 
L 289.815787 251.460295 
L 292.969702 252.808791 
L 296.123616 254.157287 
L 299.277531 255.505784 
L 302.431445 256.85428 
L 305.58536 258.202776 
L 308.739274 259.551272 
L 311.893189 260.899769 
L 315.047103 262.248265 
L 318.201017 263.596761 
L 321.354932 264.945257 
L 324.508846 266.293754 
L 327.662761 267.64225 
L 330.816675 268.990746 
L 333.97059 270.339242 
L 337.124504 271.687739 
L 340.278419 273.036235 
L 343.432333 274.384731 
L 346.586247 275.733228 
L 349.740162 277.081724 
L 352.894076 278.43022 
L 356.047991 279.778716 
L 359.201905 281.127213 
" style="fill:none;stroke:#dd8452;stroke-linecap:round;stroke-width:2.25;"/>
   </g>
   <g id="patch_3">
    <path d="M 46.964375 321.78 
L 46.964375 7.2 
" style="fill:none;stroke:#262626;stroke-linecap:square;stroke-linejoin:miter;stroke-width:1.25;"/>
   </g>
   <g id="patch_4">
    <path d="M 46.964375 321.78 
L 359.201905 321.78 
" style="fill:none;stroke:#262626;stroke-linecap:square;stroke-linejoin:miter;stroke-width:1.25;"/>
   </g>
  </g>
  <g id="legend_1">
   <g id="text_17">
    <!-- a91 -->
    <g style="fill:#262626;" transform="translate(377.071968 169.299453)scale(0.12 -0.12)">
     <defs>
      <path d="M 5.46875 16.546875 
L 13.921875 17.328125 
Q 14.984375 11.375 18.015625 8.6875 
Q 21.046875 6 25.78125 6 
Q 29.828125 6 32.875 7.859375 
Q 35.9375 9.71875 37.890625 12.8125 
Q 39.84375 15.921875 41.15625 21.1875 
Q 42.484375 26.46875 42.484375 31.9375 
Q 42.484375 32.515625 42.4375 33.6875 
Q 39.796875 29.5 35.234375 26.875 
Q 30.671875 24.265625 25.34375 24.265625 
Q 16.453125 24.265625 10.296875 30.703125 
Q 4.15625 37.15625 4.15625 47.703125 
Q 4.15625 58.59375 10.578125 65.234375 
Q 17 71.875 26.65625 71.875 
Q 33.640625 71.875 39.421875 68.109375 
Q 45.21875 64.359375 48.21875 57.390625 
Q 51.21875 50.4375 51.21875 37.25 
Q 51.21875 23.53125 48.234375 15.40625 
Q 45.265625 7.28125 39.375 3.03125 
Q 33.5 -1.21875 25.59375 -1.21875 
Q 17.1875 -1.21875 11.859375 3.4375 
Q 6.546875 8.109375 5.46875 16.546875 
z
M 41.453125 48.140625 
Q 41.453125 55.71875 37.421875 60.15625 
Q 33.40625 64.59375 27.734375 64.59375 
Q 21.875 64.59375 17.53125 59.8125 
Q 13.1875 55.03125 13.1875 47.40625 
Q 13.1875 40.578125 17.3125 36.296875 
Q 21.4375 32.03125 27.484375 32.03125 
Q 33.59375 32.03125 37.515625 36.296875 
Q 41.453125 40.578125 41.453125 48.140625 
z
" id="ArialMT-57"/>
     </defs>
     <use xlink:href="#ArialMT-97"/>
     <use x="55.615234" xlink:href="#ArialMT-57"/>
     <use x="111.230469" xlink:href="#ArialMT-49"/>
    </g>
   </g>
   <g id="PathCollection_3">
    <g>
     <use style="fill:#4c72b0;stroke:#4c72b0;" x="375.036655" xlink:href="#m09fa9c4048" y="182.170547"/>
    </g>
   </g>
   <g id="text_18">
    <!-- 1.0 -->
    <g style="fill:#262626;" transform="translate(394.836655 185.058047)scale(0.11 -0.11)">
     <use xlink:href="#ArialMT-49"/>
     <use x="55.615234" xlink:href="#ArialMT-46"/>
     <use x="83.398438" xlink:href="#ArialMT-48"/>
    </g>
   </g>
   <g id="PathCollection_4">
    <g>
     <use style="fill:#dd8452;stroke:#dd8452;" x="375.036655" xlink:href="#m9b16878c63" y="197.730391"/>
    </g>
   </g>
   <g id="text_19">
    <!-- 2.0 -->
    <g style="fill:#262626;" transform="translate(394.836655 200.617891)scale(0.11 -0.11)">
     <use xlink:href="#ArialMT-50"/>
     <use x="55.615234" xlink:href="#ArialMT-46"/>
     <use x="83.398438" xlink:href="#ArialMT-48"/>
    </g>
   </g>
  </g>
 </g>
 <defs>
  <clipPath id="pfb76c98d61">
   <rect height="314.58" width="312.23753" x="46.964375" y="7.2"/>
  </clipPath>
 </defs>
</svg>
