<?xml version="1.0" encoding="utf-8" standalone="no"?>
<!DOCTYPE svg PUBLIC "-//W3C//DTD SVG 1.1//EN"
  "http://www.w3.org/Graphics/SVG/1.1/DTD/svg11.dtd">
<!-- Created with matplotlib (https://matplotlib.org/) -->
<svg height="363.514219pt" version="1.1" viewBox="0 0 420.026655 363.514219" width="420.026655pt" xmlns="http://www.w3.org/2000/svg" xmlns:xlink="http://www.w3.org/1999/xlink">
 <metadata>
  <rdf:RDF xmlns:cc="http://creativecommons.org/ns#" xmlns:dc="http://purl.org/dc/elements/1.1/" xmlns:rdf="http://www.w3.org/1999/02/22-rdf-syntax-ns#">
   <cc:Work>
    <dc:type rdf:resource="http://purl.org/dc/dcmitype/StillImage"/>
    <dc:date>2021-03-11T18:21:06.794726</dc:date>
    <dc:format>image/svg+xml</dc:format>
    <dc:creator>
     <cc:Agent>
      <dc:title>Matplotlib v3.3.4, https://matplotlib.org/</dc:title>
     </cc:Agent>
    </dc:creator>
   </cc:Work>
  </rdf:RDF>
 </metadata>
 <defs>
  <style type="text/css">*{stroke-linecap:butt;stroke-linejoin:round;}</style>
 </defs>
 <g id="figure_1">
  <g id="patch_1">
   <path d="M -0 363.514219 
L 420.026655 363.514219 
L 420.026655 0 
L -0 0 
z
" style="fill:#ffffff;"/>
  </g>
  <g id="axes_1">
   <g id="patch_2">
    <path d="M 46.964375 321.78 
L 359.201905 321.78 
L 359.201905 7.2 
L 46.964375 7.2 
z
" style="fill:#ffffff;"/>
   </g>
   <g id="matplotlib.axis_1">
    <g id="xtick_1">
     <g id="line2d_1">
      <defs>
       <path d="M 0 0 
L 0 6 
" id="m76dde7d368" style="stroke:#262626;stroke-width:1.25;"/>
      </defs>
      <g>
       <use style="fill:#262626;stroke:#262626;stroke-width:1.25;" x="46.964375" xlink:href="#m76dde7d368" y="321.78"/>
      </g>
     </g>
     <g id="text_1">
      <!-- 1.0 -->
      <g style="fill:#262626;" transform="translate(39.319375 339.153594)scale(0.11 -0.11)">
       <defs>
        <path d="M 37.25 0 
L 28.46875 0 
L 28.46875 56 
Q 25.296875 52.984375 20.140625 49.953125 
Q 14.984375 46.921875 10.890625 45.40625 
L 10.890625 53.90625 
Q 18.265625 57.375 23.78125 62.296875 
Q 29.296875 67.234375 31.59375 71.875 
L 37.25 71.875 
z
" id="ArialMT-49"/>
        <path d="M 9.078125 0 
L 9.078125 10.015625 
L 19.09375 10.015625 
L 19.09375 0 
z
" id="ArialMT-46"/>
        <path d="M 4.15625 35.296875 
Q 4.15625 48 6.765625 55.734375 
Q 9.375 63.484375 14.515625 67.671875 
Q 19.671875 71.875 27.484375 71.875 
Q 33.25 71.875 37.59375 69.546875 
Q 41.9375 67.234375 44.765625 62.859375 
Q 47.609375 58.5 49.21875 52.21875 
Q 50.828125 45.953125 50.828125 35.296875 
Q 50.828125 22.703125 48.234375 14.96875 
Q 45.65625 7.234375 40.5 3 
Q 35.359375 -1.21875 27.484375 -1.21875 
Q 17.140625 -1.21875 11.234375 6.203125 
Q 4.15625 15.140625 4.15625 35.296875 
z
M 13.1875 35.296875 
Q 13.1875 17.671875 17.3125 11.828125 
Q 21.4375 6 27.484375 6 
Q 33.546875 6 37.671875 11.859375 
Q 41.796875 17.71875 41.796875 35.296875 
Q 41.796875 52.984375 37.671875 58.78125 
Q 33.546875 64.59375 27.390625 64.59375 
Q 21.34375 64.59375 17.71875 59.46875 
Q 13.1875 52.9375 13.1875 35.296875 
z
" id="ArialMT-48"/>
       </defs>
       <use xlink:href="#ArialMT-49"/>
       <use x="55.615234" xlink:href="#ArialMT-46"/>
       <use x="83.398438" xlink:href="#ArialMT-48"/>
      </g>
     </g>
    </g>
    <g id="xtick_2">
     <g id="line2d_2">
      <g>
       <use style="fill:#262626;stroke:#262626;stroke-width:1.25;" x="85.994066" xlink:href="#m76dde7d368" y="321.78"/>
      </g>
     </g>
     <g id="text_2">
      <!-- 1.5 -->
      <g style="fill:#262626;" transform="translate(78.349066 339.153594)scale(0.11 -0.11)">
       <defs>
        <path d="M 4.15625 18.75 
L 13.375 19.53125 
Q 14.40625 12.796875 18.140625 9.390625 
Q 21.875 6 27.15625 6 
Q 33.5 6 37.890625 10.78125 
Q 42.28125 15.578125 42.28125 23.484375 
Q 42.28125 31 38.0625 35.34375 
Q 33.84375 39.703125 27 39.703125 
Q 22.75 39.703125 19.328125 37.765625 
Q 15.921875 35.84375 13.96875 32.765625 
L 5.71875 33.84375 
L 12.640625 70.609375 
L 48.25 70.609375 
L 48.25 62.203125 
L 19.671875 62.203125 
L 15.828125 42.96875 
Q 22.265625 47.46875 29.34375 47.46875 
Q 38.71875 47.46875 45.15625 40.96875 
Q 51.609375 34.46875 51.609375 24.265625 
Q 51.609375 14.546875 45.953125 7.46875 
Q 39.0625 -1.21875 27.15625 -1.21875 
Q 17.390625 -1.21875 11.203125 4.25 
Q 5.03125 9.71875 4.15625 18.75 
z
" id="ArialMT-53"/>
       </defs>
       <use xlink:href="#ArialMT-49"/>
       <use x="55.615234" xlink:href="#ArialMT-46"/>
       <use x="83.398438" xlink:href="#ArialMT-53"/>
      </g>
     </g>
    </g>
    <g id="xtick_3">
     <g id="line2d_3">
      <g>
       <use style="fill:#262626;stroke:#262626;stroke-width:1.25;" x="125.023758" xlink:href="#m76dde7d368" y="321.78"/>
      </g>
     </g>
     <g id="text_3">
      <!-- 2.0 -->
      <g style="fill:#262626;" transform="translate(117.378758 339.153594)scale(0.11 -0.11)">
       <defs>
        <path d="M 50.34375 8.453125 
L 50.34375 0 
L 3.03125 0 
Q 2.9375 3.171875 4.046875 6.109375 
Q 5.859375 10.9375 9.828125 15.625 
Q 13.8125 20.3125 21.34375 26.46875 
Q 33.015625 36.03125 37.109375 41.625 
Q 41.21875 47.21875 41.21875 52.203125 
Q 41.21875 57.421875 37.46875 61 
Q 33.734375 64.59375 27.734375 64.59375 
Q 21.390625 64.59375 17.578125 60.78125 
Q 13.765625 56.984375 13.71875 50.25 
L 4.6875 51.171875 
Q 5.609375 61.28125 11.65625 66.578125 
Q 17.71875 71.875 27.9375 71.875 
Q 38.234375 71.875 44.234375 66.15625 
Q 50.25 60.453125 50.25 52 
Q 50.25 47.703125 48.484375 43.546875 
Q 46.734375 39.40625 42.65625 34.8125 
Q 38.578125 30.21875 29.109375 22.21875 
Q 21.1875 15.578125 18.9375 13.203125 
Q 16.703125 10.84375 15.234375 8.453125 
z
" id="ArialMT-50"/>
       </defs>
       <use xlink:href="#ArialMT-50"/>
       <use x="55.615234" xlink:href="#ArialMT-46"/>
       <use x="83.398438" xlink:href="#ArialMT-48"/>
      </g>
     </g>
    </g>
    <g id="xtick_4">
     <g id="line2d_4">
      <g>
       <use style="fill:#262626;stroke:#262626;stroke-width:1.25;" x="164.053449" xlink:href="#m76dde7d368" y="321.78"/>
      </g>
     </g>
     <g id="text_4">
      <!-- 2.5 -->
      <g style="fill:#262626;" transform="translate(156.408449 339.153594)scale(0.11 -0.11)">
       <use xlink:href="#ArialMT-50"/>
       <use x="55.615234" xlink:href="#ArialMT-46"/>
       <use x="83.398438" xlink:href="#ArialMT-53"/>
      </g>
     </g>
    </g>
    <g id="xtick_5">
     <g id="line2d_5">
      <g>
       <use style="fill:#262626;stroke:#262626;stroke-width:1.25;" x="203.08314" xlink:href="#m76dde7d368" y="321.78"/>
      </g>
     </g>
     <g id="text_5">
      <!-- 3.0 -->
      <g style="fill:#262626;" transform="translate(195.43814 339.153594)scale(0.11 -0.11)">
       <defs>
        <path d="M 4.203125 18.890625 
L 12.984375 20.0625 
Q 14.5 12.59375 18.140625 9.296875 
Q 21.78125 6 27 6 
Q 33.203125 6 37.46875 10.296875 
Q 41.75 14.59375 41.75 20.953125 
Q 41.75 27 37.796875 30.921875 
Q 33.84375 34.859375 27.734375 34.859375 
Q 25.25 34.859375 21.53125 33.890625 
L 22.515625 41.609375 
Q 23.390625 41.5 23.921875 41.5 
Q 29.546875 41.5 34.03125 44.421875 
Q 38.53125 47.359375 38.53125 53.46875 
Q 38.53125 58.296875 35.25 61.46875 
Q 31.984375 64.65625 26.8125 64.65625 
Q 21.6875 64.65625 18.265625 61.421875 
Q 14.84375 58.203125 13.875 51.765625 
L 5.078125 53.328125 
Q 6.6875 62.15625 12.390625 67.015625 
Q 18.109375 71.875 26.609375 71.875 
Q 32.46875 71.875 37.390625 69.359375 
Q 42.328125 66.84375 44.9375 62.5 
Q 47.5625 58.15625 47.5625 53.265625 
Q 47.5625 48.640625 45.0625 44.828125 
Q 42.578125 41.015625 37.703125 38.765625 
Q 44.046875 37.3125 47.5625 32.6875 
Q 51.078125 28.078125 51.078125 21.140625 
Q 51.078125 11.765625 44.234375 5.25 
Q 37.40625 -1.265625 26.953125 -1.265625 
Q 17.53125 -1.265625 11.296875 4.34375 
Q 5.078125 9.96875 4.203125 18.890625 
z
" id="ArialMT-51"/>
       </defs>
       <use xlink:href="#ArialMT-51"/>
       <use x="55.615234" xlink:href="#ArialMT-46"/>
       <use x="83.398438" xlink:href="#ArialMT-48"/>
      </g>
     </g>
    </g>
    <g id="xtick_6">
     <g id="line2d_6">
      <g>
       <use style="fill:#262626;stroke:#262626;stroke-width:1.25;" x="242.112831" xlink:href="#m76dde7d368" y="321.78"/>
      </g>
     </g>
     <g id="text_6">
      <!-- 3.5 -->
      <g style="fill:#262626;" transform="translate(234.467831 339.153594)scale(0.11 -0.11)">
       <use xlink:href="#ArialMT-51"/>
       <use x="55.615234" xlink:href="#ArialMT-46"/>
       <use x="83.398438" xlink:href="#ArialMT-53"/>
      </g>
     </g>
    </g>
    <g id="xtick_7">
     <g id="line2d_7">
      <g>
       <use style="fill:#262626;stroke:#262626;stroke-width:1.25;" x="281.142523" xlink:href="#m76dde7d368" y="321.78"/>
      </g>
     </g>
     <g id="text_7">
      <!-- 4.0 -->
      <g style="fill:#262626;" transform="translate(273.497523 339.153594)scale(0.11 -0.11)">
       <defs>
        <path d="M 32.328125 0 
L 32.328125 17.140625 
L 1.265625 17.140625 
L 1.265625 25.203125 
L 33.9375 71.578125 
L 41.109375 71.578125 
L 41.109375 25.203125 
L 50.78125 25.203125 
L 50.78125 17.140625 
L 41.109375 17.140625 
L 41.109375 0 
z
M 32.328125 25.203125 
L 32.328125 57.46875 
L 9.90625 25.203125 
z
" id="ArialMT-52"/>
       </defs>
       <use xlink:href="#ArialMT-52"/>
       <use x="55.615234" xlink:href="#ArialMT-46"/>
       <use x="83.398438" xlink:href="#ArialMT-48"/>
      </g>
     </g>
    </g>
    <g id="xtick_8">
     <g id="line2d_8">
      <g>
       <use style="fill:#262626;stroke:#262626;stroke-width:1.25;" x="320.172214" xlink:href="#m76dde7d368" y="321.78"/>
      </g>
     </g>
     <g id="text_8">
      <!-- 4.5 -->
      <g style="fill:#262626;" transform="translate(312.527214 339.153594)scale(0.11 -0.11)">
       <use xlink:href="#ArialMT-52"/>
       <use x="55.615234" xlink:href="#ArialMT-46"/>
       <use x="83.398438" xlink:href="#ArialMT-53"/>
      </g>
     </g>
    </g>
    <g id="xtick_9">
     <g id="line2d_9">
      <g>
       <use style="fill:#262626;stroke:#262626;stroke-width:1.25;" x="359.201905" xlink:href="#m76dde7d368" y="321.78"/>
      </g>
     </g>
     <g id="text_9">
      <!-- 5.0 -->
      <g style="fill:#262626;" transform="translate(351.556905 339.153594)scale(0.11 -0.11)">
       <use xlink:href="#ArialMT-53"/>
       <use x="55.615234" xlink:href="#ArialMT-46"/>
       <use x="83.398438" xlink:href="#ArialMT-48"/>
      </g>
     </g>
    </g>
    <g id="text_10">
     <!-- l6a -->
     <g style="fill:#262626;" transform="translate(195.07689 353.929219)scale(0.12 -0.12)">
      <defs>
       <path d="M 6.390625 0 
L 6.390625 71.578125 
L 15.1875 71.578125 
L 15.1875 0 
z
" id="ArialMT-108"/>
       <path d="M 49.75 54.046875 
L 41.015625 53.375 
Q 39.84375 58.546875 37.703125 60.890625 
Q 34.125 64.65625 28.90625 64.65625 
Q 24.703125 64.65625 21.53125 62.3125 
Q 17.390625 59.28125 14.984375 53.46875 
Q 12.59375 47.65625 12.5 36.921875 
Q 15.671875 41.75 20.265625 44.09375 
Q 24.859375 46.4375 29.890625 46.4375 
Q 38.671875 46.4375 44.84375 39.96875 
Q 51.03125 33.5 51.03125 23.25 
Q 51.03125 16.5 48.125 10.71875 
Q 45.21875 4.9375 40.140625 1.859375 
Q 35.0625 -1.21875 28.609375 -1.21875 
Q 17.625 -1.21875 10.6875 6.859375 
Q 3.765625 14.9375 3.765625 33.5 
Q 3.765625 54.25 11.421875 63.671875 
Q 18.109375 71.875 29.4375 71.875 
Q 37.890625 71.875 43.28125 67.140625 
Q 48.6875 62.40625 49.75 54.046875 
z
M 13.875 23.1875 
Q 13.875 18.65625 15.796875 14.5 
Q 17.71875 10.359375 21.1875 8.171875 
Q 24.65625 6 28.46875 6 
Q 34.03125 6 38.03125 10.484375 
Q 42.046875 14.984375 42.046875 22.703125 
Q 42.046875 30.125 38.078125 34.390625 
Q 34.125 38.671875 28.125 38.671875 
Q 22.171875 38.671875 18.015625 34.390625 
Q 13.875 30.125 13.875 23.1875 
z
" id="ArialMT-54"/>
       <path d="M 40.4375 6.390625 
Q 35.546875 2.25 31.03125 0.53125 
Q 26.515625 -1.171875 21.34375 -1.171875 
Q 12.796875 -1.171875 8.203125 3 
Q 3.609375 7.171875 3.609375 13.671875 
Q 3.609375 17.484375 5.34375 20.625 
Q 7.078125 23.78125 9.890625 25.6875 
Q 12.703125 27.59375 16.21875 28.5625 
Q 18.796875 29.25 24.03125 29.890625 
Q 34.671875 31.15625 39.703125 32.90625 
Q 39.75 34.71875 39.75 35.203125 
Q 39.75 40.578125 37.25 42.78125 
Q 33.890625 45.75 27.25 45.75 
Q 21.046875 45.75 18.09375 43.578125 
Q 15.140625 41.40625 13.71875 35.890625 
L 5.125 37.0625 
Q 6.296875 42.578125 8.984375 45.96875 
Q 11.671875 49.359375 16.75 51.1875 
Q 21.828125 53.03125 28.515625 53.03125 
Q 35.15625 53.03125 39.296875 51.46875 
Q 43.453125 49.90625 45.40625 47.53125 
Q 47.359375 45.171875 48.140625 41.546875 
Q 48.578125 39.3125 48.578125 33.453125 
L 48.578125 21.734375 
Q 48.578125 9.46875 49.140625 6.21875 
Q 49.703125 2.984375 51.375 0 
L 42.1875 0 
Q 40.828125 2.734375 40.4375 6.390625 
z
M 39.703125 26.03125 
Q 34.90625 24.078125 25.34375 22.703125 
Q 19.921875 21.921875 17.671875 20.9375 
Q 15.4375 19.96875 14.203125 18.09375 
Q 12.984375 16.21875 12.984375 13.921875 
Q 12.984375 10.40625 15.640625 8.0625 
Q 18.3125 5.71875 23.4375 5.71875 
Q 28.515625 5.71875 32.46875 7.9375 
Q 36.421875 10.15625 38.28125 14.015625 
Q 39.703125 17 39.703125 22.796875 
z
" id="ArialMT-97"/>
      </defs>
      <use xlink:href="#ArialMT-108"/>
      <use x="22.216797" xlink:href="#ArialMT-54"/>
      <use x="77.832031" xlink:href="#ArialMT-97"/>
     </g>
    </g>
   </g>
   <g id="matplotlib.axis_2">
    <g id="ytick_1">
     <g id="line2d_10">
      <defs>
       <path d="M 0 0 
L -6 0 
" id="m570e21f4c0" style="stroke:#262626;stroke-width:1.25;"/>
      </defs>
      <g>
       <use style="fill:#262626;stroke:#262626;stroke-width:1.25;" x="46.964375" xlink:href="#m570e21f4c0" y="312.088015"/>
      </g>
     </g>
     <g id="text_11">
      <!-- 1.5 -->
      <g style="fill:#262626;" transform="translate(22.174375 316.024812)scale(0.11 -0.11)">
       <use xlink:href="#ArialMT-49"/>
       <use x="55.615234" xlink:href="#ArialMT-46"/>
       <use x="83.398438" xlink:href="#ArialMT-53"/>
      </g>
     </g>
    </g>
    <g id="ytick_2">
     <g id="line2d_11">
      <g>
       <use style="fill:#262626;stroke:#262626;stroke-width:1.25;" x="46.964375" xlink:href="#m570e21f4c0" y="245.029032"/>
      </g>
     </g>
     <g id="text_12">
      <!-- 2.0 -->
      <g style="fill:#262626;" transform="translate(22.174375 248.965829)scale(0.11 -0.11)">
       <use xlink:href="#ArialMT-50"/>
       <use x="55.615234" xlink:href="#ArialMT-46"/>
       <use x="83.398438" xlink:href="#ArialMT-48"/>
      </g>
     </g>
    </g>
    <g id="ytick_3">
     <g id="line2d_12">
      <g>
       <use style="fill:#262626;stroke:#262626;stroke-width:1.25;" x="46.964375" xlink:href="#m570e21f4c0" y="177.97005"/>
      </g>
     </g>
     <g id="text_13">
      <!-- 2.5 -->
      <g style="fill:#262626;" transform="translate(22.174375 181.906847)scale(0.11 -0.11)">
       <use xlink:href="#ArialMT-50"/>
       <use x="55.615234" xlink:href="#ArialMT-46"/>
       <use x="83.398438" xlink:href="#ArialMT-53"/>
      </g>
     </g>
    </g>
    <g id="ytick_4">
     <g id="line2d_13">
      <g>
       <use style="fill:#262626;stroke:#262626;stroke-width:1.25;" x="46.964375" xlink:href="#m570e21f4c0" y="110.911067"/>
      </g>
     </g>
     <g id="text_14">
      <!-- 3.0 -->
      <g style="fill:#262626;" transform="translate(22.174375 114.847864)scale(0.11 -0.11)">
       <use xlink:href="#ArialMT-51"/>
       <use x="55.615234" xlink:href="#ArialMT-46"/>
       <use x="83.398438" xlink:href="#ArialMT-48"/>
      </g>
     </g>
    </g>
    <g id="ytick_5">
     <g id="line2d_14">
      <g>
       <use style="fill:#262626;stroke:#262626;stroke-width:1.25;" x="46.964375" xlink:href="#m570e21f4c0" y="43.852085"/>
      </g>
     </g>
     <g id="text_15">
      <!-- 3.5 -->
      <g style="fill:#262626;" transform="translate(22.174375 47.788882)scale(0.11 -0.11)">
       <use xlink:href="#ArialMT-51"/>
       <use x="55.615234" xlink:href="#ArialMT-46"/>
       <use x="83.398438" xlink:href="#ArialMT-53"/>
      </g>
     </g>
    </g>
    <g id="text_16">
     <!-- l6b -->
     <g style="fill:#262626;" transform="translate(15.789375 172.49625)rotate(-90)scale(0.12 -0.12)">
      <defs>
       <path d="M 14.703125 0 
L 6.546875 0 
L 6.546875 71.578125 
L 15.328125 71.578125 
L 15.328125 46.046875 
Q 20.90625 53.03125 29.546875 53.03125 
Q 34.328125 53.03125 38.59375 51.09375 
Q 42.875 49.171875 45.625 45.671875 
Q 48.390625 42.1875 49.953125 37.25 
Q 51.515625 32.328125 51.515625 26.703125 
Q 51.515625 13.375 44.921875 6.09375 
Q 38.328125 -1.171875 29.109375 -1.171875 
Q 19.921875 -1.171875 14.703125 6.5 
z
M 14.59375 26.3125 
Q 14.59375 17 17.140625 12.84375 
Q 21.296875 6.0625 28.375 6.0625 
Q 34.125 6.0625 38.328125 11.0625 
Q 42.53125 16.0625 42.53125 25.984375 
Q 42.53125 36.140625 38.5 40.96875 
Q 34.46875 45.796875 28.765625 45.796875 
Q 23 45.796875 18.796875 40.796875 
Q 14.59375 35.796875 14.59375 26.3125 
z
" id="ArialMT-98"/>
      </defs>
      <use xlink:href="#ArialMT-108"/>
      <use x="22.216797" xlink:href="#ArialMT-54"/>
      <use x="77.832031" xlink:href="#ArialMT-98"/>
     </g>
    </g>
   </g>
   <g id="PathCollection_1">
    <defs>
     <path d="M 0 3.535534 
C 0.937635 3.535534 1.836992 3.163008 2.5 2.5 
C 3.163008 1.836992 3.535534 0.937635 3.535534 0 
C 3.535534 -0.937635 3.163008 -1.836992 2.5 -2.5 
C 1.836992 -3.163008 0.937635 -3.535534 0 -3.535534 
C -0.937635 -3.535534 -1.836992 -3.163008 -2.5 -2.5 
C -3.163008 -1.836992 -3.535534 -0.937635 -3.535534 0 
C -3.535534 0.937635 -3.163008 1.836992 -2.5 2.5 
C -1.836992 3.163008 -0.937635 3.535534 0 3.535534 
z
" id="m5161366fc9" style="stroke:#4c72b0;"/>
    </defs>
    <g clip-path="url(#pd7c28082a9)">
     <use style="fill:#4c72b0;stroke:#4c72b0;" x="46.964375" xlink:href="#m5161366fc9" y="105.322819"/>
     <use style="fill:#4c72b0;stroke:#4c72b0;" x="125.023758" xlink:href="#m5161366fc9" y="153.961278"/>
     <use style="fill:#4c72b0;stroke:#4c72b0;" x="203.08314" xlink:href="#m5161366fc9" y="170.519052"/>
     <use style="fill:#4c72b0;stroke:#4c72b0;" x="281.142523" xlink:href="#m5161366fc9" y="209.079887"/>
     <use style="fill:#4c72b0;stroke:#4c72b0;" x="359.201905" xlink:href="#m5161366fc9" y="254.942099"/>
    </g>
   </g>
   <g id="PolyCollection_1">
    <defs>
     <path d="M 46.964375 -278.322454 
L 46.964375 -234.903437 
L 50.118289 -233.772824 
L 53.272204 -232.644205 
L 56.426118 -231.516334 
L 59.580033 -230.388463 
L 62.733947 -229.288939 
L 65.887862 -228.204677 
L 69.041776 -227.120415 
L 72.195691 -226.036152 
L 75.349605 -224.953135 
L 78.503519 -223.870912 
L 81.657434 -222.698393 
L 84.811348 -221.648113 
L 87.965263 -220.599754 
L 91.119177 -219.53708 
L 94.273092 -218.429653 
L 97.427006 -217.273411 
L 100.580921 -216.117168 
L 103.734835 -214.957888 
L 106.888749 -213.846201 
L 110.042664 -212.791308 
L 113.196578 -211.690151 
L 116.350493 -210.518356 
L 119.504407 -209.337695 
L 122.658322 -208.157969 
L 125.812236 -206.97933 
L 128.966151 -205.801812 
L 132.120065 -204.643828 
L 135.27398 -203.444503 
L 138.427894 -202.3584 
L 141.581808 -201.30239 
L 144.735723 -200.153069 
L 147.889637 -198.963406 
L 151.043552 -197.775268 
L 154.197466 -196.585935 
L 157.351381 -195.336438 
L 160.505295 -194.113515 
L 163.65921 -192.879695 
L 166.813124 -191.722642 
L 169.967038 -190.514382 
L 173.120953 -189.403503 
L 176.274867 -188.270035 
L 179.428782 -187.08356 
L 182.582696 -185.922115 
L 185.736611 -184.775646 
L 188.890525 -183.617791 
L 192.04444 -182.332205 
L 195.198354 -181.13248 
L 198.352268 -179.861 
L 201.506183 -178.680304 
L 204.660097 -177.50328 
L 207.814012 -176.256284 
L 210.967926 -174.927337 
L 214.121841 -173.642998 
L 217.275755 -172.410527 
L 220.42967 -171.075217 
L 223.583584 -169.67651 
L 226.737498 -168.385012 
L 229.891413 -167.09333 
L 233.045327 -165.848644 
L 236.199242 -164.495085 
L 239.353156 -163.143501 
L 242.507071 -161.905106 
L 245.660985 -160.396737 
L 248.8149 -158.998836 
L 251.968814 -157.527529 
L 255.122728 -156.116661 
L 258.276643 -154.695593 
L 261.430557 -153.382625 
L 264.584472 -151.945743 
L 267.738386 -150.395203 
L 270.892301 -148.923185 
L 274.046215 -147.554224 
L 277.20013 -146.075608 
L 280.354044 -144.606877 
L 283.507958 -143.1815 
L 286.661873 -141.655706 
L 289.815787 -140.108204 
L 292.969702 -138.659743 
L 296.123616 -137.185312 
L 299.277531 -135.615256 
L 302.431445 -134.149199 
L 305.58536 -132.571326 
L 308.739274 -130.994152 
L 311.893189 -129.382326 
L 315.047103 -127.758476 
L 318.201017 -126.073663 
L 321.354932 -124.37668 
L 324.508846 -122.804108 
L 327.662761 -121.228555 
L 330.816675 -119.644034 
L 333.97059 -118.025115 
L 337.124504 -116.369735 
L 340.278419 -114.638516 
L 343.432333 -112.907297 
L 346.586247 -111.224006 
L 349.740162 -109.598764 
L 352.894076 -108.025527 
L 356.047991 -106.42473 
L 359.201905 -104.856575 
L 359.201905 -129.507832 
L 359.201905 -129.507832 
L 356.047991 -130.686956 
L 352.894076 -131.768661 
L 349.740162 -132.87555 
L 346.586247 -134.039097 
L 343.432333 -135.203258 
L 340.278419 -136.424766 
L 337.124504 -137.612131 
L 333.97059 -138.790915 
L 330.816675 -139.928727 
L 327.662761 -141.058607 
L 324.508846 -142.231144 
L 321.354932 -143.451459 
L 318.201017 -144.671774 
L 315.047103 -145.892088 
L 311.893189 -147.112537 
L 308.739274 -148.403601 
L 305.58536 -149.645779 
L 302.431445 -150.79781 
L 299.277531 -152.023608 
L 296.123616 -153.323406 
L 292.969702 -154.52065 
L 289.815787 -155.77916 
L 286.661873 -156.990796 
L 283.507958 -158.183728 
L 280.354044 -159.385002 
L 277.20013 -160.711172 
L 274.046215 -162.055624 
L 270.892301 -163.395873 
L 267.738386 -164.842182 
L 264.584472 -166.205507 
L 261.430557 -167.629672 
L 258.276643 -169.023728 
L 255.122728 -170.415945 
L 251.968814 -171.730734 
L 248.8149 -173.172544 
L 245.660985 -174.615582 
L 242.507071 -176.058289 
L 239.353156 -177.406835 
L 236.199242 -178.785331 
L 233.045327 -180.32248 
L 229.891413 -181.82321 
L 226.737498 -183.277994 
L 223.583584 -184.818337 
L 220.42967 -186.299449 
L 217.275755 -187.711323 
L 214.121841 -189.24579 
L 210.967926 -190.670183 
L 207.814012 -192.3878 
L 204.660097 -194.172503 
L 201.506183 -195.734683 
L 198.352268 -197.373141 
L 195.198354 -198.949693 
L 192.04444 -200.663091 
L 188.890525 -202.196247 
L 185.736611 -203.945786 
L 182.582696 -205.695325 
L 179.428782 -207.444704 
L 176.274867 -209.095478 
L 173.120953 -210.669108 
L 169.967038 -212.490616 
L 166.813124 -214.13998 
L 163.65921 -215.843997 
L 160.505295 -217.485046 
L 157.351381 -219.169087 
L 154.197466 -220.892179 
L 151.043552 -222.611577 
L 147.889637 -224.298707 
L 144.735723 -225.974533 
L 141.581808 -227.676689 
L 138.427894 -229.37195 
L 135.27398 -230.993346 
L 132.120065 -232.780016 
L 128.966151 -234.48424 
L 125.812236 -236.188425 
L 122.658322 -237.890741 
L 119.504407 -239.590714 
L 116.350493 -241.284745 
L 113.196578 -242.839726 
L 110.042664 -244.394708 
L 106.888749 -246.086275 
L 103.734835 -247.898265 
L 100.580921 -249.710254 
L 97.427006 -251.50036 
L 94.273092 -253.204555 
L 91.119177 -254.904267 
L 87.965263 -256.556063 
L 84.811348 -258.175726 
L 81.657434 -259.795388 
L 78.503519 -261.470319 
L 75.349605 -263.225295 
L 72.195691 -264.976692 
L 69.041776 -266.631313 
L 65.887862 -268.379564 
L 62.733947 -270.127004 
L 59.580033 -271.863001 
L 56.426118 -273.414639 
L 53.272204 -274.965192 
L 50.118289 -276.603331 
L 46.964375 -278.322454 
z
" id="ma5ef472c0f" style="stroke:#ffffff;stroke-opacity:0.15;"/>
    </defs>
    <g clip-path="url(#pd7c28082a9)">
     <use style="fill:#4c72b0;fill-opacity:0.15;stroke:#ffffff;stroke-opacity:0.15;" x="0" xlink:href="#ma5ef472c0f" y="363.514219"/>
    </g>
   </g>
   <g id="PathCollection_2">
    <defs>
     <path d="M 0 3.535534 
C 0.937635 3.535534 1.836992 3.163008 2.5 2.5 
C 3.163008 1.836992 3.535534 0.937635 3.535534 0 
C 3.535534 -0.937635 3.163008 -1.836992 2.5 -2.5 
C 1.836992 -3.163008 0.937635 -3.535534 0 -3.535534 
C -0.937635 -3.535534 -1.836992 -3.163008 -2.5 -2.5 
C -3.163008 -1.836992 -3.535534 -0.937635 -3.535534 0 
C -3.535534 0.937635 -3.163008 1.836992 -2.5 2.5 
C -1.836992 3.163008 -0.937635 3.535534 0 3.535534 
z
" id="m8654654ff3" style="stroke:#dd8452;"/>
    </defs>
    <g clip-path="url(#pd7c28082a9)">
     <use style="fill:#dd8452;stroke:#dd8452;" x="46.964375" xlink:href="#m8654654ff3" y="86.074407"/>
     <use style="fill:#dd8452;stroke:#dd8452;" x="125.023758" xlink:href="#m8654654ff3" y="220.363659"/>
     <use style="fill:#dd8452;stroke:#dd8452;" x="203.08314" xlink:href="#m8654654ff3" y="206.32642"/>
     <use style="fill:#dd8452;stroke:#dd8452;" x="281.142523" xlink:href="#m8654654ff3" y="239.902746"/>
     <use style="fill:#dd8452;stroke:#dd8452;" x="359.201905" xlink:href="#m8654654ff3" y="296.219095"/>
    </g>
   </g>
   <g id="PolyCollection_2">
    <defs>
     <path d="M 46.964375 -235.352858 
L 46.964375 -197.228048 
L 50.118289 -196.149704 
L 53.272204 -195.07136 
L 56.426118 -193.993016 
L 59.580033 -192.914671 
L 62.733947 -191.836597 
L 65.887862 -190.759008 
L 69.041776 -189.681419 
L 72.195691 -188.603831 
L 75.349605 -187.526242 
L 78.503519 -186.449389 
L 81.657434 -185.373538 
L 84.811348 -184.247784 
L 87.965263 -183.074966 
L 91.119177 -182.026079 
L 94.273092 -181.005108 
L 97.427006 -179.859528 
L 100.580921 -178.714335 
L 103.734835 -177.553676 
L 106.888749 -176.393017 
L 110.042664 -175.221481 
L 113.196578 -174.067931 
L 116.350493 -172.981128 
L 119.504407 -171.835387 
L 122.658322 -170.682081 
L 125.812236 -169.528776 
L 128.966151 -168.375471 
L 132.120065 -167.223837 
L 135.27398 -166.07455 
L 138.427894 -164.980279 
L 141.581808 -163.83504 
L 144.735723 -162.689802 
L 147.889637 -161.546383 
L 151.043552 -160.482941 
L 154.197466 -159.434648 
L 157.351381 -158.386627 
L 160.505295 -157.29681 
L 163.65921 -156.173009 
L 166.813124 -155.116864 
L 169.967038 -153.990689 
L 173.120953 -152.946721 
L 176.274867 -151.728873 
L 179.428782 -150.608943 
L 182.582696 -149.42047 
L 185.736611 -148.233047 
L 188.890525 -147.148876 
L 192.04444 -146.105559 
L 195.198354 -145.082234 
L 198.352268 -144.023704 
L 201.506183 -142.944738 
L 204.660097 -141.845787 
L 207.814012 -140.705744 
L 210.967926 -139.529754 
L 214.121841 -138.291182 
L 217.275755 -137.1452 
L 220.42967 -135.865556 
L 223.583584 -134.589281 
L 226.737498 -133.457263 
L 229.891413 -132.288408 
L 233.045327 -130.884776 
L 236.199242 -129.679624 
L 239.353156 -128.375739 
L 242.507071 -127.194764 
L 245.660985 -125.859525 
L 248.8149 -124.605556 
L 251.968814 -123.34072 
L 255.122728 -122.144058 
L 258.276643 -120.735437 
L 261.430557 -119.425326 
L 264.584472 -118.195892 
L 267.738386 -116.806734 
L 270.892301 -115.531129 
L 274.046215 -114.306933 
L 277.20013 -112.906744 
L 280.354044 -111.578256 
L 283.507958 -110.244856 
L 286.661873 -108.830925 
L 289.815787 -107.394475 
L 292.969702 -105.999677 
L 296.123616 -104.575447 
L 299.277531 -103.106328 
L 302.431445 -101.644934 
L 305.58536 -100.175625 
L 308.739274 -98.707015 
L 311.893189 -97.278664 
L 315.047103 -95.746438 
L 318.201017 -94.291478 
L 321.354932 -92.676555 
L 324.508846 -91.243198 
L 327.662761 -89.725944 
L 330.816675 -88.196353 
L 333.97059 -86.706067 
L 337.124504 -85.103383 
L 340.278419 -83.546878 
L 343.432333 -82.010443 
L 346.586247 -80.359754 
L 349.740162 -78.767129 
L 352.894076 -77.157214 
L 356.047991 -75.56151 
L 359.201905 -73.969047 
L 359.201905 -91.337095 
L 359.201905 -91.337095 
L 356.047991 -92.510634 
L 352.894076 -93.708108 
L 349.740162 -94.857382 
L 346.586247 -96.080075 
L 343.432333 -97.293188 
L 340.278419 -98.442 
L 337.124504 -99.548606 
L 333.97059 -100.721271 
L 330.816675 -101.891753 
L 327.662761 -103.042285 
L 324.508846 -104.19214 
L 321.354932 -105.3542 
L 318.201017 -106.501685 
L 315.047103 -107.631911 
L 311.893189 -108.804423 
L 308.739274 -109.964606 
L 305.58536 -111.142742 
L 302.431445 -112.454836 
L 299.277531 -113.659847 
L 296.123616 -114.919642 
L 292.969702 -116.176531 
L 289.815787 -117.436209 
L 286.661873 -118.686338 
L 283.507958 -119.924019 
L 280.354044 -121.163064 
L 277.20013 -122.393203 
L 274.046215 -123.730345 
L 270.892301 -125.022144 
L 267.738386 -126.498833 
L 264.584472 -127.879548 
L 261.430557 -129.321077 
L 258.276643 -130.793439 
L 255.122728 -132.267185 
L 251.968814 -133.737934 
L 248.8149 -135.080409 
L 245.660985 -136.558715 
L 242.507071 -137.928142 
L 239.353156 -139.332415 
L 236.199242 -140.851539 
L 233.045327 -142.319313 
L 229.891413 -143.759507 
L 226.737498 -145.26065 
L 223.583584 -146.796217 
L 220.42967 -148.199674 
L 217.275755 -149.778861 
L 214.121841 -151.364578 
L 210.967926 -152.917291 
L 207.814012 -154.436154 
L 204.660097 -156.002318 
L 201.506183 -157.604373 
L 198.352268 -159.24822 
L 195.198354 -160.832278 
L 192.04444 -162.424644 
L 188.890525 -164.004628 
L 185.736611 -165.581075 
L 182.582696 -167.162981 
L 179.428782 -168.743455 
L 176.274867 -170.295432 
L 173.120953 -171.911842 
L 169.967038 -173.496257 
L 166.813124 -175.079254 
L 163.65921 -176.662059 
L 160.505295 -178.247521 
L 157.351381 -179.863593 
L 154.197466 -181.408406 
L 151.043552 -182.962029 
L 147.889637 -184.497164 
L 144.735723 -186.119101 
L 141.581808 -187.707126 
L 138.427894 -189.24484 
L 135.27398 -190.802105 
L 132.120065 -192.404956 
L 128.966151 -194.017644 
L 125.812236 -195.630215 
L 122.658322 -197.236444 
L 119.504407 -198.820059 
L 116.350493 -200.403317 
L 113.196578 -201.98561 
L 110.042664 -203.567903 
L 106.888749 -205.137068 
L 103.734835 -206.718811 
L 100.580921 -208.316594 
L 97.427006 -209.900167 
L 94.273092 -211.483047 
L 91.119177 -213.064888 
L 87.965263 -214.611357 
L 84.811348 -216.154737 
L 81.657434 -217.698118 
L 78.503519 -219.260188 
L 75.349605 -220.868615 
L 72.195691 -222.477041 
L 69.041776 -224.10045 
L 65.887862 -225.728735 
L 62.733947 -227.31383 
L 59.580033 -228.916335 
L 56.426118 -230.527004 
L 53.272204 -232.135716 
L 50.118289 -233.744287 
L 46.964375 -235.352858 
z
" id="m3b30be8647" style="stroke:#ffffff;stroke-opacity:0.15;"/>
    </defs>
    <g clip-path="url(#pd7c28082a9)">
     <use style="fill:#dd8452;fill-opacity:0.15;stroke:#ffffff;stroke-opacity:0.15;" x="0" xlink:href="#m3b30be8647" y="363.514219"/>
    </g>
   </g>
   <g id="line2d_15">
    <path clip-path="url(#pd7c28082a9)" d="M 46.964375 158.41118 
L 46.964375 57.822706 
" style="fill:none;stroke:#4c72b0;stroke-linecap:round;stroke-width:2.625;"/>
   </g>
   <g id="line2d_16">
    <path clip-path="url(#pd7c28082a9)" d="M 125.023758 173.830607 
L 125.023758 135.747728 
" style="fill:none;stroke:#4c72b0;stroke-linecap:round;stroke-width:2.625;"/>
   </g>
   <g id="line2d_17">
    <path clip-path="url(#pd7c28082a9)" d="M 203.08314 182.937382 
L 203.08314 155.617056 
" style="fill:none;stroke:#4c72b0;stroke-linecap:round;stroke-width:2.625;"/>
   </g>
   <g id="line2d_18">
    <path clip-path="url(#pd7c28082a9)" d="M 281.142523 219.686037 
L 281.142523 198.473737 
" style="fill:none;stroke:#4c72b0;stroke-linecap:round;stroke-width:2.625;"/>
   </g>
   <g id="line2d_19">
    <path clip-path="url(#pd7c28082a9)" d="M 359.201905 270.686382 
L 359.201905 238.031573 
" style="fill:none;stroke:#4c72b0;stroke-linecap:round;stroke-width:2.625;"/>
   </g>
   <g id="line2d_20">
    <path clip-path="url(#pd7c28082a9)" d="M 46.964375 107.115776 
L 50.118289 108.530936 
L 53.272204 109.946097 
L 56.426118 111.361257 
L 59.580033 112.776418 
L 62.733947 114.191579 
L 65.887862 115.606739 
L 69.041776 117.0219 
L 72.195691 118.437061 
L 75.349605 119.852221 
L 78.503519 121.267382 
L 81.657434 122.682543 
L 84.811348 124.097703 
L 87.965263 125.512864 
L 91.119177 126.928025 
L 94.273092 128.343185 
L 97.427006 129.758346 
L 100.580921 131.173507 
L 103.734835 132.588667 
L 106.888749 134.003828 
L 110.042664 135.418989 
L 113.196578 136.834149 
L 116.350493 138.24931 
L 119.504407 139.66447 
L 122.658322 141.079631 
L 125.812236 142.494792 
L 128.966151 143.909952 
L 132.120065 145.325113 
L 135.27398 146.740274 
L 138.427894 148.155434 
L 141.581808 149.570595 
L 144.735723 150.985756 
L 147.889637 152.400916 
L 151.043552 153.816077 
L 154.197466 155.231238 
L 157.351381 156.646398 
L 160.505295 158.061559 
L 163.65921 159.47672 
L 166.813124 160.89188 
L 169.967038 162.307041 
L 173.120953 163.722202 
L 176.274867 165.137362 
L 179.428782 166.552523 
L 182.582696 167.967684 
L 185.736611 169.382844 
L 188.890525 170.798005 
L 192.04444 172.213165 
L 195.198354 173.628326 
L 198.352268 175.043487 
L 201.506183 176.458647 
L 204.660097 177.873808 
L 207.814012 179.288969 
L 210.967926 180.704129 
L 214.121841 182.11929 
L 217.275755 183.534451 
L 220.42967 184.949611 
L 223.583584 186.364772 
L 226.737498 187.779933 
L 229.891413 189.195093 
L 233.045327 190.610254 
L 236.199242 192.025415 
L 239.353156 193.440575 
L 242.507071 194.855736 
L 245.660985 196.270897 
L 248.8149 197.686057 
L 251.968814 199.101218 
L 255.122728 200.516379 
L 258.276643 201.931539 
L 261.430557 203.3467 
L 264.584472 204.76186 
L 267.738386 206.177021 
L 270.892301 207.592182 
L 274.046215 209.007342 
L 277.20013 210.422503 
L 280.354044 211.837664 
L 283.507958 213.252824 
L 286.661873 214.667985 
L 289.815787 216.083146 
L 292.969702 217.498306 
L 296.123616 218.913467 
L 299.277531 220.328628 
L 302.431445 221.743788 
L 305.58536 223.158949 
L 308.739274 224.57411 
L 311.893189 225.98927 
L 315.047103 227.404431 
L 318.201017 228.819592 
L 321.354932 230.234752 
L 324.508846 231.649913 
L 327.662761 233.065073 
L 330.816675 234.480234 
L 333.97059 235.895395 
L 337.124504 237.310555 
L 340.278419 238.725716 
L 343.432333 240.140877 
L 346.586247 241.556037 
L 349.740162 242.971198 
L 352.894076 244.386359 
L 356.047991 245.801519 
L 359.201905 247.21668 
" style="fill:none;stroke:#4c72b0;stroke-linecap:round;stroke-width:2.25;"/>
   </g>
   <g id="line2d_21">
    <path clip-path="url(#pd7c28082a9)" d="M 46.964375 155.617056 
L 46.964375 21.499091 
" style="fill:none;stroke:#dd8452;stroke-linecap:round;stroke-width:2.625;"/>
   </g>
   <g id="line2d_22">
    <path clip-path="url(#pd7c28082a9)" d="M 125.023758 237.321103 
L 125.023758 201.86463 
" style="fill:none;stroke:#dd8452;stroke-linecap:round;stroke-width:2.625;"/>
   </g>
   <g id="line2d_23">
    <path clip-path="url(#pd7c28082a9)" d="M 203.08314 217.055857 
L 203.08314 194.064206 
" style="fill:none;stroke:#dd8452;stroke-linecap:round;stroke-width:2.625;"/>
   </g>
   <g id="line2d_24">
    <path clip-path="url(#pd7c28082a9)" d="M 281.142523 246.224172 
L 281.142523 233.581319 
" style="fill:none;stroke:#dd8452;stroke-linecap:round;stroke-width:2.625;"/>
   </g>
   <g id="line2d_25">
    <path clip-path="url(#pd7c28082a9)" d="M 359.201905 307.480909 
L 359.201905 285.639816 
" style="fill:none;stroke:#dd8452;stroke-linecap:round;stroke-width:2.625;"/>
   </g>
   <g id="line2d_26">
    <path clip-path="url(#pd7c28082a9)" d="M 46.964375 147.479335 
L 50.118289 148.826262 
L 53.272204 150.17319 
L 56.426118 151.520117 
L 59.580033 152.867044 
L 62.733947 154.213972 
L 65.887862 155.560899 
L 69.041776 156.907826 
L 72.195691 158.254754 
L 75.349605 159.601681 
L 78.503519 160.948608 
L 81.657434 162.295535 
L 84.811348 163.642463 
L 87.965263 164.98939 
L 91.119177 166.336317 
L 94.273092 167.683245 
L 97.427006 169.030172 
L 100.580921 170.377099 
L 103.734835 171.724027 
L 106.888749 173.070954 
L 110.042664 174.417881 
L 113.196578 175.764809 
L 116.350493 177.111736 
L 119.504407 178.458663 
L 122.658322 179.805591 
L 125.812236 181.152518 
L 128.966151 182.499445 
L 132.120065 183.846373 
L 135.27398 185.1933 
L 138.427894 186.540227 
L 141.581808 187.887154 
L 144.735723 189.234082 
L 147.889637 190.581009 
L 151.043552 191.927936 
L 154.197466 193.274864 
L 157.351381 194.621791 
L 160.505295 195.968718 
L 163.65921 197.315646 
L 166.813124 198.662573 
L 169.967038 200.0095 
L 173.120953 201.356428 
L 176.274867 202.703355 
L 179.428782 204.050282 
L 182.582696 205.39721 
L 185.736611 206.744137 
L 188.890525 208.091064 
L 192.04444 209.437992 
L 195.198354 210.784919 
L 198.352268 212.131846 
L 201.506183 213.478774 
L 204.660097 214.825701 
L 207.814012 216.172628 
L 210.967926 217.519555 
L 214.121841 218.866483 
L 217.275755 220.21341 
L 220.42967 221.560337 
L 223.583584 222.907265 
L 226.737498 224.254192 
L 229.891413 225.601119 
L 233.045327 226.948047 
L 236.199242 228.294974 
L 239.353156 229.641901 
L 242.507071 230.988829 
L 245.660985 232.335756 
L 248.8149 233.682683 
L 251.968814 235.029611 
L 255.122728 236.376538 
L 258.276643 237.723465 
L 261.430557 239.070393 
L 264.584472 240.41732 
L 267.738386 241.764247 
L 270.892301 243.111174 
L 274.046215 244.458102 
L 277.20013 245.805029 
L 280.354044 247.151956 
L 283.507958 248.498884 
L 286.661873 249.845811 
L 289.815787 251.192738 
L 292.969702 252.539666 
L 296.123616 253.886593 
L 299.277531 255.23352 
L 302.431445 256.580448 
L 305.58536 257.927375 
L 308.739274 259.274302 
L 311.893189 260.62123 
L 315.047103 261.968157 
L 318.201017 263.315084 
L 321.354932 264.662012 
L 324.508846 266.008939 
L 327.662761 267.355866 
L 330.816675 268.702794 
L 333.97059 270.049721 
L 337.124504 271.396648 
L 340.278419 272.743575 
L 343.432333 274.090503 
L 346.586247 275.43743 
L 349.740162 276.784357 
L 352.894076 278.131285 
L 356.047991 279.478212 
L 359.201905 280.825139 
" style="fill:none;stroke:#dd8452;stroke-linecap:round;stroke-width:2.25;"/>
   </g>
   <g id="patch_3">
    <path d="M 46.964375 321.78 
L 46.964375 7.2 
" style="fill:none;stroke:#262626;stroke-linecap:square;stroke-linejoin:miter;stroke-width:1.25;"/>
   </g>
   <g id="patch_4">
    <path d="M 46.964375 321.78 
L 359.201905 321.78 
" style="fill:none;stroke:#262626;stroke-linecap:square;stroke-linejoin:miter;stroke-width:1.25;"/>
   </g>
  </g>
  <g id="legend_1">
   <g id="text_17">
    <!-- a91 -->
    <g style="fill:#262626;" transform="translate(377.071968 169.299453)scale(0.12 -0.12)">
     <defs>
      <path d="M 5.46875 16.546875 
L 13.921875 17.328125 
Q 14.984375 11.375 18.015625 8.6875 
Q 21.046875 6 25.78125 6 
Q 29.828125 6 32.875 7.859375 
Q 35.9375 9.71875 37.890625 12.8125 
Q 39.84375 15.921875 41.15625 21.1875 
Q 42.484375 26.46875 42.484375 31.9375 
Q 42.484375 32.515625 42.4375 33.6875 
Q 39.796875 29.5 35.234375 26.875 
Q 30.671875 24.265625 25.34375 24.265625 
Q 16.453125 24.265625 10.296875 30.703125 
Q 4.15625 37.15625 4.15625 47.703125 
Q 4.15625 58.59375 10.578125 65.234375 
Q 17 71.875 26.65625 71.875 
Q 33.640625 71.875 39.421875 68.109375 
Q 45.21875 64.359375 48.21875 57.390625 
Q 51.21875 50.4375 51.21875 37.25 
Q 51.21875 23.53125 48.234375 15.40625 
Q 45.265625 7.28125 39.375 3.03125 
Q 33.5 -1.21875 25.59375 -1.21875 
Q 17.1875 -1.21875 11.859375 3.4375 
Q 6.546875 8.109375 5.46875 16.546875 
z
M 41.453125 48.140625 
Q 41.453125 55.71875 37.421875 60.15625 
Q 33.40625 64.59375 27.734375 64.59375 
Q 21.875 64.59375 17.53125 59.8125 
Q 13.1875 55.03125 13.1875 47.40625 
Q 13.1875 40.578125 17.3125 36.296875 
Q 21.4375 32.03125 27.484375 32.03125 
Q 33.59375 32.03125 37.515625 36.296875 
Q 41.453125 40.578125 41.453125 48.140625 
z
" id="ArialMT-57"/>
     </defs>
     <use xlink:href="#ArialMT-97"/>
     <use x="55.615234" xlink:href="#ArialMT-57"/>
     <use x="111.230469" xlink:href="#ArialMT-49"/>
    </g>
   </g>
   <g id="PathCollection_3">
    <g>
     <use style="fill:#4c72b0;stroke:#4c72b0;" x="375.036655" xlink:href="#m5161366fc9" y="182.170547"/>
    </g>
   </g>
   <g id="text_18">
    <!-- 1.0 -->
    <g style="fill:#262626;" transform="translate(394.836655 185.058047)scale(0.11 -0.11)">
     <use xlink:href="#ArialMT-49"/>
     <use x="55.615234" xlink:href="#ArialMT-46"/>
     <use x="83.398438" xlink:href="#ArialMT-48"/>
    </g>
   </g>
   <g id="PathCollection_4">
    <g>
     <use style="fill:#dd8452;stroke:#dd8452;" x="375.036655" xlink:href="#m8654654ff3" y="197.730391"/>
    </g>
   </g>
   <g id="text_19">
    <!-- 2.0 -->
    <g style="fill:#262626;" transform="translate(394.836655 200.617891)scale(0.11 -0.11)">
     <use xlink:href="#ArialMT-50"/>
     <use x="55.615234" xlink:href="#ArialMT-46"/>
     <use x="83.398438" xlink:href="#ArialMT-48"/>
    </g>
   </g>
  </g>
 </g>
 <defs>
  <clipPath id="pd7c28082a9">
   <rect height="314.58" width="312.23753" x="46.964375" y="7.2"/>
  </clipPath>
 </defs>
</svg>
