<?xml version="1.0" encoding="utf-8" standalone="no"?>
<!DOCTYPE svg PUBLIC "-//W3C//DTD SVG 1.1//EN"
  "http://www.w3.org/Graphics/SVG/1.1/DTD/svg11.dtd">
<!-- Created with matplotlib (https://matplotlib.org/) -->
<svg height="363.514219pt" version="1.1" viewBox="0 0 420.026655 363.514219" width="420.026655pt" xmlns="http://www.w3.org/2000/svg" xmlns:xlink="http://www.w3.org/1999/xlink">
 <metadata>
  <rdf:RDF xmlns:cc="http://creativecommons.org/ns#" xmlns:dc="http://purl.org/dc/elements/1.1/" xmlns:rdf="http://www.w3.org/1999/02/22-rdf-syntax-ns#">
   <cc:Work>
    <dc:type rdf:resource="http://purl.org/dc/dcmitype/StillImage"/>
    <dc:date>2021-03-16T16:57:55.850181</dc:date>
    <dc:format>image/svg+xml</dc:format>
    <dc:creator>
     <cc:Agent>
      <dc:title>Matplotlib v3.3.2, https://matplotlib.org/</dc:title>
     </cc:Agent>
    </dc:creator>
   </cc:Work>
  </rdf:RDF>
 </metadata>
 <defs>
  <style type="text/css">*{stroke-linecap:butt;stroke-linejoin:round;}</style>
 </defs>
 <g id="figure_1">
  <g id="patch_1">
   <path d="M -0 363.514219 
L 420.026655 363.514219 
L 420.026655 0 
L -0 0 
z
" style="fill:#ffffff;"/>
  </g>
  <g id="axes_1">
   <g id="patch_2">
    <path d="M 46.964375 321.78 
L 359.201905 321.78 
L 359.201905 7.2 
L 46.964375 7.2 
z
" style="fill:#ffffff;"/>
   </g>
   <g id="matplotlib.axis_1">
    <g id="xtick_1">
     <g id="line2d_1">
      <defs>
       <path d="M 0 0 
L 0 6 
" id="me28f293faf" style="stroke:#262626;stroke-width:1.25;"/>
      </defs>
      <g>
       <use style="fill:#262626;stroke:#262626;stroke-width:1.25;" x="46.964375" xlink:href="#me28f293faf" y="321.78"/>
      </g>
     </g>
     <g id="text_1">
      <!-- 1.0 -->
      <g style="fill:#262626;" transform="translate(39.319375 339.153594)scale(0.11 -0.11)">
       <defs>
        <path d="M 37.25 0 
L 28.46875 0 
L 28.46875 56 
Q 25.296875 52.984375 20.140625 49.953125 
Q 14.984375 46.921875 10.890625 45.40625 
L 10.890625 53.90625 
Q 18.265625 57.375 23.78125 62.296875 
Q 29.296875 67.234375 31.59375 71.875 
L 37.25 71.875 
z
" id="ArialMT-49"/>
        <path d="M 9.078125 0 
L 9.078125 10.015625 
L 19.09375 10.015625 
L 19.09375 0 
z
" id="ArialMT-46"/>
        <path d="M 4.15625 35.296875 
Q 4.15625 48 6.765625 55.734375 
Q 9.375 63.484375 14.515625 67.671875 
Q 19.671875 71.875 27.484375 71.875 
Q 33.25 71.875 37.59375 69.546875 
Q 41.9375 67.234375 44.765625 62.859375 
Q 47.609375 58.5 49.21875 52.21875 
Q 50.828125 45.953125 50.828125 35.296875 
Q 50.828125 22.703125 48.234375 14.96875 
Q 45.65625 7.234375 40.5 3 
Q 35.359375 -1.21875 27.484375 -1.21875 
Q 17.140625 -1.21875 11.234375 6.203125 
Q 4.15625 15.140625 4.15625 35.296875 
z
M 13.1875 35.296875 
Q 13.1875 17.671875 17.3125 11.828125 
Q 21.4375 6 27.484375 6 
Q 33.546875 6 37.671875 11.859375 
Q 41.796875 17.71875 41.796875 35.296875 
Q 41.796875 52.984375 37.671875 58.78125 
Q 33.546875 64.59375 27.390625 64.59375 
Q 21.34375 64.59375 17.71875 59.46875 
Q 13.1875 52.9375 13.1875 35.296875 
z
" id="ArialMT-48"/>
       </defs>
       <use xlink:href="#ArialMT-49"/>
       <use x="55.615234" xlink:href="#ArialMT-46"/>
       <use x="83.398438" xlink:href="#ArialMT-48"/>
      </g>
     </g>
    </g>
    <g id="xtick_2">
     <g id="line2d_2">
      <g>
       <use style="fill:#262626;stroke:#262626;stroke-width:1.25;" x="85.994066" xlink:href="#me28f293faf" y="321.78"/>
      </g>
     </g>
     <g id="text_2">
      <!-- 1.5 -->
      <g style="fill:#262626;" transform="translate(78.349066 339.153594)scale(0.11 -0.11)">
       <defs>
        <path d="M 4.15625 18.75 
L 13.375 19.53125 
Q 14.40625 12.796875 18.140625 9.390625 
Q 21.875 6 27.15625 6 
Q 33.5 6 37.890625 10.78125 
Q 42.28125 15.578125 42.28125 23.484375 
Q 42.28125 31 38.0625 35.34375 
Q 33.84375 39.703125 27 39.703125 
Q 22.75 39.703125 19.328125 37.765625 
Q 15.921875 35.84375 13.96875 32.765625 
L 5.71875 33.84375 
L 12.640625 70.609375 
L 48.25 70.609375 
L 48.25 62.203125 
L 19.671875 62.203125 
L 15.828125 42.96875 
Q 22.265625 47.46875 29.34375 47.46875 
Q 38.71875 47.46875 45.15625 40.96875 
Q 51.609375 34.46875 51.609375 24.265625 
Q 51.609375 14.546875 45.953125 7.46875 
Q 39.0625 -1.21875 27.15625 -1.21875 
Q 17.390625 -1.21875 11.203125 4.25 
Q 5.03125 9.71875 4.15625 18.75 
z
" id="ArialMT-53"/>
       </defs>
       <use xlink:href="#ArialMT-49"/>
       <use x="55.615234" xlink:href="#ArialMT-46"/>
       <use x="83.398438" xlink:href="#ArialMT-53"/>
      </g>
     </g>
    </g>
    <g id="xtick_3">
     <g id="line2d_3">
      <g>
       <use style="fill:#262626;stroke:#262626;stroke-width:1.25;" x="125.023758" xlink:href="#me28f293faf" y="321.78"/>
      </g>
     </g>
     <g id="text_3">
      <!-- 2.0 -->
      <g style="fill:#262626;" transform="translate(117.378758 339.153594)scale(0.11 -0.11)">
       <defs>
        <path d="M 50.34375 8.453125 
L 50.34375 0 
L 3.03125 0 
Q 2.9375 3.171875 4.046875 6.109375 
Q 5.859375 10.9375 9.828125 15.625 
Q 13.8125 20.3125 21.34375 26.46875 
Q 33.015625 36.03125 37.109375 41.625 
Q 41.21875 47.21875 41.21875 52.203125 
Q 41.21875 57.421875 37.46875 61 
Q 33.734375 64.59375 27.734375 64.59375 
Q 21.390625 64.59375 17.578125 60.78125 
Q 13.765625 56.984375 13.71875 50.25 
L 4.6875 51.171875 
Q 5.609375 61.28125 11.65625 66.578125 
Q 17.71875 71.875 27.9375 71.875 
Q 38.234375 71.875 44.234375 66.15625 
Q 50.25 60.453125 50.25 52 
Q 50.25 47.703125 48.484375 43.546875 
Q 46.734375 39.40625 42.65625 34.8125 
Q 38.578125 30.21875 29.109375 22.21875 
Q 21.1875 15.578125 18.9375 13.203125 
Q 16.703125 10.84375 15.234375 8.453125 
z
" id="ArialMT-50"/>
       </defs>
       <use xlink:href="#ArialMT-50"/>
       <use x="55.615234" xlink:href="#ArialMT-46"/>
       <use x="83.398438" xlink:href="#ArialMT-48"/>
      </g>
     </g>
    </g>
    <g id="xtick_4">
     <g id="line2d_4">
      <g>
       <use style="fill:#262626;stroke:#262626;stroke-width:1.25;" x="164.053449" xlink:href="#me28f293faf" y="321.78"/>
      </g>
     </g>
     <g id="text_4">
      <!-- 2.5 -->
      <g style="fill:#262626;" transform="translate(156.408449 339.153594)scale(0.11 -0.11)">
       <use xlink:href="#ArialMT-50"/>
       <use x="55.615234" xlink:href="#ArialMT-46"/>
       <use x="83.398438" xlink:href="#ArialMT-53"/>
      </g>
     </g>
    </g>
    <g id="xtick_5">
     <g id="line2d_5">
      <g>
       <use style="fill:#262626;stroke:#262626;stroke-width:1.25;" x="203.08314" xlink:href="#me28f293faf" y="321.78"/>
      </g>
     </g>
     <g id="text_5">
      <!-- 3.0 -->
      <g style="fill:#262626;" transform="translate(195.43814 339.153594)scale(0.11 -0.11)">
       <defs>
        <path d="M 4.203125 18.890625 
L 12.984375 20.0625 
Q 14.5 12.59375 18.140625 9.296875 
Q 21.78125 6 27 6 
Q 33.203125 6 37.46875 10.296875 
Q 41.75 14.59375 41.75 20.953125 
Q 41.75 27 37.796875 30.921875 
Q 33.84375 34.859375 27.734375 34.859375 
Q 25.25 34.859375 21.53125 33.890625 
L 22.515625 41.609375 
Q 23.390625 41.5 23.921875 41.5 
Q 29.546875 41.5 34.03125 44.421875 
Q 38.53125 47.359375 38.53125 53.46875 
Q 38.53125 58.296875 35.25 61.46875 
Q 31.984375 64.65625 26.8125 64.65625 
Q 21.6875 64.65625 18.265625 61.421875 
Q 14.84375 58.203125 13.875 51.765625 
L 5.078125 53.328125 
Q 6.6875 62.15625 12.390625 67.015625 
Q 18.109375 71.875 26.609375 71.875 
Q 32.46875 71.875 37.390625 69.359375 
Q 42.328125 66.84375 44.9375 62.5 
Q 47.5625 58.15625 47.5625 53.265625 
Q 47.5625 48.640625 45.0625 44.828125 
Q 42.578125 41.015625 37.703125 38.765625 
Q 44.046875 37.3125 47.5625 32.6875 
Q 51.078125 28.078125 51.078125 21.140625 
Q 51.078125 11.765625 44.234375 5.25 
Q 37.40625 -1.265625 26.953125 -1.265625 
Q 17.53125 -1.265625 11.296875 4.34375 
Q 5.078125 9.96875 4.203125 18.890625 
z
" id="ArialMT-51"/>
       </defs>
       <use xlink:href="#ArialMT-51"/>
       <use x="55.615234" xlink:href="#ArialMT-46"/>
       <use x="83.398438" xlink:href="#ArialMT-48"/>
      </g>
     </g>
    </g>
    <g id="xtick_6">
     <g id="line2d_6">
      <g>
       <use style="fill:#262626;stroke:#262626;stroke-width:1.25;" x="242.112831" xlink:href="#me28f293faf" y="321.78"/>
      </g>
     </g>
     <g id="text_6">
      <!-- 3.5 -->
      <g style="fill:#262626;" transform="translate(234.467831 339.153594)scale(0.11 -0.11)">
       <use xlink:href="#ArialMT-51"/>
       <use x="55.615234" xlink:href="#ArialMT-46"/>
       <use x="83.398438" xlink:href="#ArialMT-53"/>
      </g>
     </g>
    </g>
    <g id="xtick_7">
     <g id="line2d_7">
      <g>
       <use style="fill:#262626;stroke:#262626;stroke-width:1.25;" x="281.142523" xlink:href="#me28f293faf" y="321.78"/>
      </g>
     </g>
     <g id="text_7">
      <!-- 4.0 -->
      <g style="fill:#262626;" transform="translate(273.497523 339.153594)scale(0.11 -0.11)">
       <defs>
        <path d="M 32.328125 0 
L 32.328125 17.140625 
L 1.265625 17.140625 
L 1.265625 25.203125 
L 33.9375 71.578125 
L 41.109375 71.578125 
L 41.109375 25.203125 
L 50.78125 25.203125 
L 50.78125 17.140625 
L 41.109375 17.140625 
L 41.109375 0 
z
M 32.328125 25.203125 
L 32.328125 57.46875 
L 9.90625 25.203125 
z
" id="ArialMT-52"/>
       </defs>
       <use xlink:href="#ArialMT-52"/>
       <use x="55.615234" xlink:href="#ArialMT-46"/>
       <use x="83.398438" xlink:href="#ArialMT-48"/>
      </g>
     </g>
    </g>
    <g id="xtick_8">
     <g id="line2d_8">
      <g>
       <use style="fill:#262626;stroke:#262626;stroke-width:1.25;" x="320.172214" xlink:href="#me28f293faf" y="321.78"/>
      </g>
     </g>
     <g id="text_8">
      <!-- 4.5 -->
      <g style="fill:#262626;" transform="translate(312.527214 339.153594)scale(0.11 -0.11)">
       <use xlink:href="#ArialMT-52"/>
       <use x="55.615234" xlink:href="#ArialMT-46"/>
       <use x="83.398438" xlink:href="#ArialMT-53"/>
      </g>
     </g>
    </g>
    <g id="xtick_9">
     <g id="line2d_9">
      <g>
       <use style="fill:#262626;stroke:#262626;stroke-width:1.25;" x="359.201905" xlink:href="#me28f293faf" y="321.78"/>
      </g>
     </g>
     <g id="text_9">
      <!-- 5.0 -->
      <g style="fill:#262626;" transform="translate(351.556905 339.153594)scale(0.11 -0.11)">
       <use xlink:href="#ArialMT-53"/>
       <use x="55.615234" xlink:href="#ArialMT-46"/>
       <use x="83.398438" xlink:href="#ArialMT-48"/>
      </g>
     </g>
    </g>
    <g id="text_10">
     <!-- l6a -->
     <g style="fill:#262626;" transform="translate(195.07689 353.929219)scale(0.12 -0.12)">
      <defs>
       <path d="M 6.390625 0 
L 6.390625 71.578125 
L 15.1875 71.578125 
L 15.1875 0 
z
" id="ArialMT-108"/>
       <path d="M 49.75 54.046875 
L 41.015625 53.375 
Q 39.84375 58.546875 37.703125 60.890625 
Q 34.125 64.65625 28.90625 64.65625 
Q 24.703125 64.65625 21.53125 62.3125 
Q 17.390625 59.28125 14.984375 53.46875 
Q 12.59375 47.65625 12.5 36.921875 
Q 15.671875 41.75 20.265625 44.09375 
Q 24.859375 46.4375 29.890625 46.4375 
Q 38.671875 46.4375 44.84375 39.96875 
Q 51.03125 33.5 51.03125 23.25 
Q 51.03125 16.5 48.125 10.71875 
Q 45.21875 4.9375 40.140625 1.859375 
Q 35.0625 -1.21875 28.609375 -1.21875 
Q 17.625 -1.21875 10.6875 6.859375 
Q 3.765625 14.9375 3.765625 33.5 
Q 3.765625 54.25 11.421875 63.671875 
Q 18.109375 71.875 29.4375 71.875 
Q 37.890625 71.875 43.28125 67.140625 
Q 48.6875 62.40625 49.75 54.046875 
z
M 13.875 23.1875 
Q 13.875 18.65625 15.796875 14.5 
Q 17.71875 10.359375 21.1875 8.171875 
Q 24.65625 6 28.46875 6 
Q 34.03125 6 38.03125 10.484375 
Q 42.046875 14.984375 42.046875 22.703125 
Q 42.046875 30.125 38.078125 34.390625 
Q 34.125 38.671875 28.125 38.671875 
Q 22.171875 38.671875 18.015625 34.390625 
Q 13.875 30.125 13.875 23.1875 
z
" id="ArialMT-54"/>
       <path d="M 40.4375 6.390625 
Q 35.546875 2.25 31.03125 0.53125 
Q 26.515625 -1.171875 21.34375 -1.171875 
Q 12.796875 -1.171875 8.203125 3 
Q 3.609375 7.171875 3.609375 13.671875 
Q 3.609375 17.484375 5.34375 20.625 
Q 7.078125 23.78125 9.890625 25.6875 
Q 12.703125 27.59375 16.21875 28.5625 
Q 18.796875 29.25 24.03125 29.890625 
Q 34.671875 31.15625 39.703125 32.90625 
Q 39.75 34.71875 39.75 35.203125 
Q 39.75 40.578125 37.25 42.78125 
Q 33.890625 45.75 27.25 45.75 
Q 21.046875 45.75 18.09375 43.578125 
Q 15.140625 41.40625 13.71875 35.890625 
L 5.125 37.0625 
Q 6.296875 42.578125 8.984375 45.96875 
Q 11.671875 49.359375 16.75 51.1875 
Q 21.828125 53.03125 28.515625 53.03125 
Q 35.15625 53.03125 39.296875 51.46875 
Q 43.453125 49.90625 45.40625 47.53125 
Q 47.359375 45.171875 48.140625 41.546875 
Q 48.578125 39.3125 48.578125 33.453125 
L 48.578125 21.734375 
Q 48.578125 9.46875 49.140625 6.21875 
Q 49.703125 2.984375 51.375 0 
L 42.1875 0 
Q 40.828125 2.734375 40.4375 6.390625 
z
M 39.703125 26.03125 
Q 34.90625 24.078125 25.34375 22.703125 
Q 19.921875 21.921875 17.671875 20.9375 
Q 15.4375 19.96875 14.203125 18.09375 
Q 12.984375 16.21875 12.984375 13.921875 
Q 12.984375 10.40625 15.640625 8.0625 
Q 18.3125 5.71875 23.4375 5.71875 
Q 28.515625 5.71875 32.46875 7.9375 
Q 36.421875 10.15625 38.28125 14.015625 
Q 39.703125 17 39.703125 22.796875 
z
" id="ArialMT-97"/>
      </defs>
      <use xlink:href="#ArialMT-108"/>
      <use x="22.216797" xlink:href="#ArialMT-54"/>
      <use x="77.832031" xlink:href="#ArialMT-97"/>
     </g>
    </g>
   </g>
   <g id="matplotlib.axis_2">
    <g id="ytick_1">
     <g id="line2d_10">
      <defs>
       <path d="M 0 0 
L -6 0 
" id="m3ec9d15fa6" style="stroke:#262626;stroke-width:1.25;"/>
      </defs>
      <g>
       <use style="fill:#262626;stroke:#262626;stroke-width:1.25;" x="46.964375" xlink:href="#m3ec9d15fa6" y="312.435194"/>
      </g>
     </g>
     <g id="text_11">
      <!-- 1.5 -->
      <g style="fill:#262626;" transform="translate(22.174375 316.371991)scale(0.11 -0.11)">
       <use xlink:href="#ArialMT-49"/>
       <use x="55.615234" xlink:href="#ArialMT-46"/>
       <use x="83.398438" xlink:href="#ArialMT-53"/>
      </g>
     </g>
    </g>
    <g id="ytick_2">
     <g id="line2d_11">
      <g>
       <use style="fill:#262626;stroke:#262626;stroke-width:1.25;" x="46.964375" xlink:href="#m3ec9d15fa6" y="245.296093"/>
      </g>
     </g>
     <g id="text_12">
      <!-- 2.0 -->
      <g style="fill:#262626;" transform="translate(22.174375 249.23289)scale(0.11 -0.11)">
       <use xlink:href="#ArialMT-50"/>
       <use x="55.615234" xlink:href="#ArialMT-46"/>
       <use x="83.398438" xlink:href="#ArialMT-48"/>
      </g>
     </g>
    </g>
    <g id="ytick_3">
     <g id="line2d_12">
      <g>
       <use style="fill:#262626;stroke:#262626;stroke-width:1.25;" x="46.964375" xlink:href="#m3ec9d15fa6" y="178.156993"/>
      </g>
     </g>
     <g id="text_13">
      <!-- 2.5 -->
      <g style="fill:#262626;" transform="translate(22.174375 182.093789)scale(0.11 -0.11)">
       <use xlink:href="#ArialMT-50"/>
       <use x="55.615234" xlink:href="#ArialMT-46"/>
       <use x="83.398438" xlink:href="#ArialMT-53"/>
      </g>
     </g>
    </g>
    <g id="ytick_4">
     <g id="line2d_13">
      <g>
       <use style="fill:#262626;stroke:#262626;stroke-width:1.25;" x="46.964375" xlink:href="#m3ec9d15fa6" y="111.017892"/>
      </g>
     </g>
     <g id="text_14">
      <!-- 3.0 -->
      <g style="fill:#262626;" transform="translate(22.174375 114.954689)scale(0.11 -0.11)">
       <use xlink:href="#ArialMT-51"/>
       <use x="55.615234" xlink:href="#ArialMT-46"/>
       <use x="83.398438" xlink:href="#ArialMT-48"/>
      </g>
     </g>
    </g>
    <g id="ytick_5">
     <g id="line2d_14">
      <g>
       <use style="fill:#262626;stroke:#262626;stroke-width:1.25;" x="46.964375" xlink:href="#m3ec9d15fa6" y="43.878791"/>
      </g>
     </g>
     <g id="text_15">
      <!-- 3.5 -->
      <g style="fill:#262626;" transform="translate(22.174375 47.815588)scale(0.11 -0.11)">
       <use xlink:href="#ArialMT-51"/>
       <use x="55.615234" xlink:href="#ArialMT-46"/>
       <use x="83.398438" xlink:href="#ArialMT-53"/>
      </g>
     </g>
    </g>
    <g id="text_16">
     <!-- l6b -->
     <g style="fill:#262626;" transform="translate(15.789375 172.49625)rotate(-90)scale(0.12 -0.12)">
      <defs>
       <path d="M 14.703125 0 
L 6.546875 0 
L 6.546875 71.578125 
L 15.328125 71.578125 
L 15.328125 46.046875 
Q 20.90625 53.03125 29.546875 53.03125 
Q 34.328125 53.03125 38.59375 51.09375 
Q 42.875 49.171875 45.625 45.671875 
Q 48.390625 42.1875 49.953125 37.25 
Q 51.515625 32.328125 51.515625 26.703125 
Q 51.515625 13.375 44.921875 6.09375 
Q 38.328125 -1.171875 29.109375 -1.171875 
Q 19.921875 -1.171875 14.703125 6.5 
z
M 14.59375 26.3125 
Q 14.59375 17 17.140625 12.84375 
Q 21.296875 6.0625 28.375 6.0625 
Q 34.125 6.0625 38.328125 11.0625 
Q 42.53125 16.0625 42.53125 25.984375 
Q 42.53125 36.140625 38.5 40.96875 
Q 34.46875 45.796875 28.765625 45.796875 
Q 23 45.796875 18.796875 40.796875 
Q 14.59375 35.796875 14.59375 26.3125 
z
" id="ArialMT-98"/>
      </defs>
      <use xlink:href="#ArialMT-108"/>
      <use x="22.216797" xlink:href="#ArialMT-54"/>
      <use x="77.832031" xlink:href="#ArialMT-98"/>
     </g>
    </g>
   </g>
   <g id="PathCollection_1">
    <defs>
     <path d="M 0 3.535534 
C 0.937635 3.535534 1.836992 3.163008 2.5 2.5 
C 3.163008 1.836992 3.535534 0.937635 3.535534 0 
C 3.535534 -0.937635 3.163008 -1.836992 2.5 -2.5 
C 1.836992 -3.163008 0.937635 -3.535534 0 -3.535534 
C -0.937635 -3.535534 -1.836992 -3.163008 -2.5 -2.5 
C -3.163008 -1.836992 -3.535534 -0.937635 -3.535534 0 
C -3.535534 0.937635 -3.163008 1.836992 -2.5 2.5 
C -1.836992 3.163008 -0.937635 3.535534 0 3.535534 
z
" id="mc3fabc164a" style="stroke:#4c72b0;"/>
    </defs>
    <g clip-path="url(#p6e5bbe30b0)">
     <use style="fill:#4c72b0;stroke:#4c72b0;" x="46.964375" xlink:href="#mc3fabc164a" y="105.422967"/>
     <use style="fill:#4c72b0;stroke:#4c72b0;" x="125.023758" xlink:href="#mc3fabc164a" y="154.119537"/>
     <use style="fill:#4c72b0;stroke:#4c72b0;" x="203.08314" xlink:href="#mc3fabc164a" y="170.697092"/>
     <use style="fill:#4c72b0;stroke:#4c72b0;" x="281.142523" xlink:href="#mc3fabc164a" y="209.303998"/>
     <use style="fill:#4c72b0;stroke:#4c72b0;" x="359.201905" xlink:href="#mc3fabc164a" y="255.221004"/>
    </g>
   </g>
   <g id="PolyCollection_1">
    <defs>
     <path d="M 46.964375 -277.897717 
L 46.964375 -235.745232 
L 50.118289 -234.627828 
L 53.272204 -233.510424 
L 56.426118 -232.392309 
L 59.580033 -231.265836 
L 62.733947 -230.157858 
L 65.887862 -229.056995 
L 69.041776 -227.952153 
L 72.195691 -226.803553 
L 75.349605 -225.6837 
L 78.503519 -224.563846 
L 81.657434 -223.445101 
L 84.811348 -222.326542 
L 87.965263 -221.146699 
L 91.119177 -219.895324 
L 94.273092 -218.643949 
L 97.427006 -217.432924 
L 100.580921 -216.26361 
L 103.734835 -215.129786 
L 106.888749 -213.927227 
L 110.042664 -212.777671 
L 113.196578 -211.679547 
L 116.350493 -210.575617 
L 119.504407 -209.510732 
L 122.658322 -208.423459 
L 125.812236 -207.256897 
L 128.966151 -206.090627 
L 132.120065 -204.925178 
L 135.27398 -203.759729 
L 138.427894 -202.539075 
L 141.581808 -201.322178 
L 144.735723 -200.233322 
L 147.889637 -199.090968 
L 151.043552 -197.921393 
L 154.197466 -196.721126 
L 157.351381 -195.555329 
L 160.505295 -194.329651 
L 163.65921 -193.192503 
L 166.813124 -192.011763 
L 169.967038 -190.828272 
L 173.120953 -189.664213 
L 176.274867 -188.367863 
L 179.428782 -187.16845 
L 182.582696 -186.055106 
L 185.736611 -184.687217 
L 188.890525 -183.342018 
L 192.04444 -182.24393 
L 195.198354 -180.942409 
L 198.352268 -179.640888 
L 201.506183 -178.257194 
L 204.660097 -176.82987 
L 207.814012 -175.480129 
L 210.967926 -174.426505 
L 214.121841 -173.149725 
L 217.275755 -171.826204 
L 220.42967 -170.610908 
L 223.583584 -169.19898 
L 226.737498 -167.870502 
L 229.891413 -166.615389 
L 233.045327 -165.383916 
L 236.199242 -164.021361 
L 239.353156 -162.634678 
L 242.507071 -161.137425 
L 245.660985 -159.835496 
L 248.8149 -158.47943 
L 251.968814 -157.092295 
L 255.122728 -155.814703 
L 258.276643 -154.292522 
L 261.430557 -152.835109 
L 264.584472 -151.356773 
L 267.738386 -149.79268 
L 270.892301 -148.29505 
L 274.046215 -146.764289 
L 277.20013 -145.131793 
L 280.354044 -143.699808 
L 283.507958 -142.146329 
L 286.661873 -140.62662 
L 289.815787 -139.063265 
L 292.969702 -137.453165 
L 296.123616 -135.888886 
L 299.277531 -134.324853 
L 302.431445 -132.757202 
L 305.58536 -131.195075 
L 308.739274 -129.568164 
L 311.893189 -127.849137 
L 315.047103 -126.130002 
L 318.201017 -124.451246 
L 321.354932 -122.771395 
L 324.508846 -121.124441 
L 327.662761 -119.412681 
L 330.816675 -117.695652 
L 333.97059 -116.054069 
L 337.124504 -114.372787 
L 340.278419 -112.691259 
L 343.432333 -111.00973 
L 346.586247 -109.328202 
L 349.740162 -107.541845 
L 352.894076 -105.654566 
L 356.047991 -103.762374 
L 359.201905 -102.050645 
L 359.201905 -128.438748 
L 359.201905 -128.438748 
L 356.047991 -129.672892 
L 352.894076 -130.876248 
L 349.740162 -132.011614 
L 346.586247 -133.220912 
L 343.432333 -134.377447 
L 340.278419 -135.629635 
L 337.124504 -136.779403 
L 333.97059 -137.930253 
L 330.816675 -139.167218 
L 327.662761 -140.421883 
L 324.508846 -141.639116 
L 321.354932 -142.850464 
L 318.201017 -144.061812 
L 315.047103 -145.193032 
L 311.893189 -146.448085 
L 308.739274 -147.705478 
L 305.58536 -148.962024 
L 302.431445 -150.217053 
L 299.277531 -151.328143 
L 296.123616 -152.537271 
L 292.969702 -153.592223 
L 289.815787 -154.854355 
L 286.661873 -156.204533 
L 283.507958 -157.42229 
L 280.354044 -158.847982 
L 277.20013 -159.990728 
L 274.046215 -161.326248 
L 270.892301 -162.663327 
L 267.738386 -163.905309 
L 264.584472 -165.113483 
L 261.430557 -166.401257 
L 258.276643 -167.718532 
L 255.122728 -169.150066 
L 251.968814 -170.597751 
L 248.8149 -171.973089 
L 245.660985 -173.501115 
L 242.507071 -175.021012 
L 239.353156 -176.566406 
L 236.199242 -178.099201 
L 233.045327 -179.577898 
L 229.891413 -181.077341 
L 226.737498 -182.617792 
L 223.583584 -184.220508 
L 220.42967 -185.706818 
L 217.275755 -187.342047 
L 214.121841 -188.917329 
L 210.967926 -190.468698 
L 207.814012 -191.959121 
L 204.660097 -193.45219 
L 201.506183 -195.039653 
L 198.352268 -196.626483 
L 195.198354 -198.121882 
L 192.04444 -199.796748 
L 188.890525 -201.344913 
L 185.736611 -202.913967 
L 182.582696 -204.566292 
L 179.428782 -206.153772 
L 176.274867 -207.841199 
L 173.120953 -209.575797 
L 169.967038 -211.261295 
L 166.813124 -212.928793 
L 163.65921 -214.701189 
L 160.505295 -216.421312 
L 157.351381 -218.120236 
L 154.197466 -219.795153 
L 151.043552 -221.523816 
L 147.889637 -223.128886 
L 144.735723 -224.738702 
L 141.581808 -226.437097 
L 138.427894 -228.163265 
L 135.27398 -229.836038 
L 132.120065 -231.510318 
L 128.966151 -233.184704 
L 125.812236 -234.933847 
L 122.658322 -236.637616 
L 119.504407 -238.336255 
L 116.350493 -240.034799 
L 113.196578 -241.733342 
L 110.042664 -243.501819 
L 106.888749 -245.282985 
L 103.734835 -247.020019 
L 100.580921 -248.702315 
L 97.427006 -250.425281 
L 94.273092 -252.165416 
L 91.119177 -253.90555 
L 87.965263 -255.543153 
L 84.811348 -257.247112 
L 81.657434 -258.913718 
L 78.503519 -260.589156 
L 75.349605 -262.325814 
L 72.195691 -264.062028 
L 69.041776 -265.798243 
L 65.887862 -267.534457 
L 62.733947 -269.269703 
L 59.580033 -271.00412 
L 56.426118 -272.738538 
L 53.272204 -274.472955 
L 50.118289 -276.207373 
L 46.964375 -277.897717 
z
" id="m17d754fbb3" style="stroke:#ffffff;stroke-opacity:0.15;"/>
    </defs>
    <g clip-path="url(#p6e5bbe30b0)">
     <use style="fill:#4c72b0;fill-opacity:0.15;stroke:#ffffff;stroke-opacity:0.15;" x="0" xlink:href="#m17d754fbb3" y="363.514219"/>
    </g>
   </g>
   <g id="PathCollection_2">
    <defs>
     <path d="M 0 3.535534 
C 0.937635 3.535534 1.836992 3.163008 2.5 2.5 
C 3.163008 1.836992 3.535534 0.937635 3.535534 0 
C 3.535534 -0.937635 3.163008 -1.836992 2.5 -2.5 
C 1.836992 -3.163008 0.937635 -3.535534 0 -3.535534 
C -0.937635 -3.535534 -1.836992 -3.163008 -2.5 -2.5 
C -3.163008 -1.836992 -3.535534 -0.937635 -3.535534 0 
C -3.535534 0.937635 -3.163008 1.836992 -2.5 2.5 
C -1.836992 3.163008 -0.937635 3.535534 0 3.535534 
z
" id="mc2e3a27564" style="stroke:#dd8452;"/>
    </defs>
    <g clip-path="url(#p6e5bbe30b0)">
     <use style="fill:#dd8452;stroke:#dd8452;" x="46.964375" xlink:href="#mc2e3a27564" y="86.151558"/>
     <use style="fill:#dd8452;stroke:#dd8452;" x="125.023758" xlink:href="#mc2e3a27564" y="220.601252"/>
     <use style="fill:#dd8452;stroke:#dd8452;" x="203.08314" xlink:href="#mc2e3a27564" y="206.547241"/>
     <use style="fill:#dd8452;stroke:#dd8452;" x="281.142523" xlink:href="#mc2e3a27564" y="240.163682"/>
     <use style="fill:#dd8452;stroke:#dd8452;" x="359.201905" xlink:href="#mc2e3a27564" y="296.547315"/>
    </g>
   </g>
   <g id="PolyCollection_2">
    <defs>
     <path d="M 46.964375 -235.957567 
L 46.964375 -198.007276 
L 50.118289 -196.909747 
L 53.272204 -195.812219 
L 56.426118 -194.716189 
L 59.580033 -193.620404 
L 62.733947 -192.491023 
L 65.887862 -191.342679 
L 69.041776 -190.263931 
L 72.195691 -189.185184 
L 75.349605 -188.106436 
L 78.503519 -187.027689 
L 81.657434 -185.934467 
L 84.811348 -184.836939 
L 87.965263 -183.740495 
L 91.119177 -182.644818 
L 94.273092 -181.549141 
L 97.427006 -180.423138 
L 100.580921 -179.267437 
L 103.734835 -178.111735 
L 106.888749 -176.956034 
L 110.042664 -175.800332 
L 113.196578 -174.606439 
L 116.350493 -173.452928 
L 119.504407 -172.327596 
L 122.658322 -171.168052 
L 125.812236 -170.012409 
L 128.966151 -168.857667 
L 132.120065 -167.794981 
L 135.27398 -166.761307 
L 138.427894 -165.64512 
L 141.581808 -164.552711 
L 144.735723 -163.388212 
L 147.889637 -162.078129 
L 151.043552 -160.880663 
L 154.197466 -159.71691 
L 157.351381 -158.61883 
L 160.505295 -157.522984 
L 163.65921 -156.391341 
L 166.813124 -155.170587 
L 169.967038 -153.952238 
L 173.120953 -153.000457 
L 176.274867 -152.03234 
L 179.428782 -150.935332 
L 182.582696 -149.838323 
L 185.736611 -148.741315 
L 188.890525 -147.56697 
L 192.04444 -146.275115 
L 195.198354 -145.060588 
L 198.352268 -143.95036 
L 201.506183 -142.845659 
L 204.660097 -141.831464 
L 207.814012 -140.627149 
L 210.967926 -139.518914 
L 214.121841 -138.401744 
L 217.275755 -137.221336 
L 220.42967 -135.905186 
L 223.583584 -134.715133 
L 226.737498 -133.522936 
L 229.891413 -132.241985 
L 233.045327 -130.906695 
L 236.199242 -129.648858 
L 239.353156 -128.410374 
L 242.507071 -127.173094 
L 245.660985 -125.822475 
L 248.8149 -124.549163 
L 251.968814 -123.192982 
L 255.122728 -121.861188 
L 258.276643 -120.560727 
L 261.430557 -119.256102 
L 264.584472 -117.963008 
L 267.738386 -116.688158 
L 270.892301 -115.364244 
L 274.046215 -113.945673 
L 277.20013 -112.53221 
L 280.354044 -111.13749 
L 283.507958 -109.779843 
L 286.661873 -108.444248 
L 289.815787 -107.013781 
L 292.969702 -105.544628 
L 296.123616 -104.158238 
L 299.277531 -102.728639 
L 302.431445 -101.231428 
L 305.58536 -99.703017 
L 308.739274 -98.191162 
L 311.893189 -96.757463 
L 315.047103 -95.203412 
L 318.201017 -93.655708 
L 321.354932 -92.288543 
L 324.508846 -90.838516 
L 327.662761 -89.275185 
L 330.816675 -87.675551 
L 333.97059 -86.109778 
L 337.124504 -84.639549 
L 340.278419 -83.163492 
L 343.432333 -81.698813 
L 346.586247 -80.238907 
L 349.740162 -78.757803 
L 352.894076 -77.220397 
L 356.047991 -75.6927 
L 359.201905 -74.097857 
L 359.201905 -90.911808 
L 359.201905 -90.911808 
L 356.047991 -92.017114 
L 352.894076 -93.216792 
L 349.740162 -94.374134 
L 346.586247 -95.55463 
L 343.432333 -96.680417 
L 340.278419 -97.83481 
L 337.124504 -98.955814 
L 333.97059 -99.987564 
L 330.816675 -101.223035 
L 327.662761 -102.432792 
L 324.508846 -103.601435 
L 321.354932 -104.75663 
L 318.201017 -105.968231 
L 315.047103 -107.156973 
L 311.893189 -108.360758 
L 308.739274 -109.596585 
L 305.58536 -110.859088 
L 302.431445 -112.106442 
L 299.277531 -113.344019 
L 296.123616 -114.597338 
L 292.969702 -115.823614 
L 289.815787 -116.986859 
L 286.661873 -118.178957 
L 283.507958 -119.429221 
L 280.354044 -120.695188 
L 277.20013 -122.062504 
L 274.046215 -123.437048 
L 270.892301 -124.735492 
L 267.738386 -126.090296 
L 264.584472 -127.372114 
L 261.430557 -128.776966 
L 258.276643 -130.175769 
L 255.122728 -131.601344 
L 251.968814 -132.919276 
L 248.8149 -134.45966 
L 245.660985 -136.03678 
L 242.507071 -137.66191 
L 239.353156 -139.164894 
L 236.199242 -140.663272 
L 233.045327 -142.179261 
L 229.891413 -143.66872 
L 226.737498 -145.176093 
L 223.583584 -146.673412 
L 220.42967 -148.172738 
L 217.275755 -149.714407 
L 214.121841 -151.175023 
L 210.967926 -152.770585 
L 207.814012 -154.405494 
L 204.660097 -155.828301 
L 201.506183 -157.345463 
L 198.352268 -158.909744 
L 195.198354 -160.468296 
L 192.04444 -162.056444 
L 188.890525 -163.681555 
L 185.736611 -165.234909 
L 182.582696 -166.807126 
L 179.428782 -168.411121 
L 176.274867 -170.033186 
L 173.120953 -171.680383 
L 169.967038 -173.292248 
L 166.813124 -174.902937 
L 163.65921 -176.511711 
L 160.505295 -178.120485 
L 157.351381 -179.729259 
L 154.197466 -181.338033 
L 151.043552 -182.946337 
L 147.889637 -184.465537 
L 144.735723 -186.002279 
L 141.581808 -187.644081 
L 138.427894 -189.26044 
L 135.27398 -190.864177 
L 132.120065 -192.470265 
L 128.966151 -194.075051 
L 125.812236 -195.679046 
L 122.658322 -197.281601 
L 119.504407 -198.896458 
L 116.350493 -200.489196 
L 113.196578 -202.095007 
L 110.042664 -203.699024 
L 106.888749 -205.30302 
L 103.734835 -206.909004 
L 100.580921 -208.548446 
L 97.427006 -210.187888 
L 94.273092 -211.82733 
L 91.119177 -213.466772 
L 87.965263 -215.106213 
L 84.811348 -216.745655 
L 81.657434 -218.357862 
L 78.503519 -219.968218 
L 75.349605 -221.578573 
L 72.195691 -223.188153 
L 69.041776 -224.797221 
L 65.887862 -226.406289 
L 62.733947 -228.015356 
L 59.580033 -229.624424 
L 56.426118 -231.218928 
L 53.272204 -232.798484 
L 50.118289 -234.378026 
L 46.964375 -235.957567 
z
" id="m4de3f48bd2" style="stroke:#ffffff;stroke-opacity:0.15;"/>
    </defs>
    <g clip-path="url(#p6e5bbe30b0)">
     <use style="fill:#dd8452;fill-opacity:0.15;stroke:#ffffff;stroke-opacity:0.15;" x="0" xlink:href="#m4de3f48bd2" y="363.514219"/>
    </g>
   </g>
   <g id="line2d_15">
    <path clip-path="url(#p6e5bbe30b0)" d="M 46.964375 158.574755 
L 46.964375 52.271179 
" style="fill:none;stroke:#4c72b0;stroke-linecap:round;stroke-width:2.625;"/>
   </g>
   <g id="line2d_16">
    <path clip-path="url(#p6e5bbe30b0)" d="M 125.023758 174.012604 
L 125.023758 134.22647 
" style="fill:none;stroke:#4c72b0;stroke-linecap:round;stroke-width:2.625;"/>
   </g>
   <g id="line2d_17">
    <path clip-path="url(#p6e5bbe30b0)" d="M 203.08314 184.124913 
L 203.08314 157.269272 
" style="fill:none;stroke:#4c72b0;stroke-linecap:round;stroke-width:2.625;"/>
   </g>
   <g id="line2d_18">
    <path clip-path="url(#p6e5bbe30b0)" d="M 281.142523 220.14777 
L 281.142523 198.690944 
" style="fill:none;stroke:#4c72b0;stroke-linecap:round;stroke-width:2.625;"/>
   </g>
   <g id="line2d_19">
    <path clip-path="url(#p6e5bbe30b0)" d="M 359.201905 272.151733 
L 359.201905 238.874092 
" style="fill:none;stroke:#4c72b0;stroke-linecap:round;stroke-width:2.625;"/>
   </g>
   <g id="line2d_20">
    <path clip-path="url(#p6e5bbe30b0)" d="M 46.964375 107.218065 
L 50.118289 108.634917 
L 53.272204 110.051768 
L 56.426118 111.46862 
L 59.580033 112.885471 
L 62.733947 114.302322 
L 65.887862 115.719174 
L 69.041776 117.136025 
L 72.195691 118.552877 
L 75.349605 119.969728 
L 78.503519 121.38658 
L 81.657434 122.803431 
L 84.811348 124.220282 
L 87.965263 125.637134 
L 91.119177 127.053985 
L 94.273092 128.470837 
L 97.427006 129.887688 
L 100.580921 131.304539 
L 103.734835 132.721391 
L 106.888749 134.138242 
L 110.042664 135.555094 
L 113.196578 136.971945 
L 116.350493 138.388796 
L 119.504407 139.805648 
L 122.658322 141.222499 
L 125.812236 142.639351 
L 128.966151 144.056202 
L 132.120065 145.473053 
L 135.27398 146.889905 
L 138.427894 148.306756 
L 141.581808 149.723608 
L 144.735723 151.140459 
L 147.889637 152.55731 
L 151.043552 153.974162 
L 154.197466 155.391013 
L 157.351381 156.807865 
L 160.505295 158.224716 
L 163.65921 159.641567 
L 166.813124 161.058419 
L 169.967038 162.47527 
L 173.120953 163.892122 
L 176.274867 165.308973 
L 179.428782 166.725824 
L 182.582696 168.142676 
L 185.736611 169.559527 
L 188.890525 170.976379 
L 192.04444 172.39323 
L 195.198354 173.810081 
L 198.352268 175.226933 
L 201.506183 176.643784 
L 204.660097 178.060636 
L 207.814012 179.477487 
L 210.967926 180.894339 
L 214.121841 182.31119 
L 217.275755 183.728041 
L 220.42967 185.144893 
L 223.583584 186.561744 
L 226.737498 187.978596 
L 229.891413 189.395447 
L 233.045327 190.812298 
L 236.199242 192.22915 
L 239.353156 193.646001 
L 242.507071 195.062853 
L 245.660985 196.479704 
L 248.8149 197.896555 
L 251.968814 199.313407 
L 255.122728 200.730258 
L 258.276643 202.14711 
L 261.430557 203.563961 
L 264.584472 204.980812 
L 267.738386 206.397664 
L 270.892301 207.814515 
L 274.046215 209.231367 
L 277.20013 210.648218 
L 280.354044 212.065069 
L 283.507958 213.481921 
L 286.661873 214.898772 
L 289.815787 216.315624 
L 292.969702 217.732475 
L 296.123616 219.149326 
L 299.277531 220.566178 
L 302.431445 221.983029 
L 305.58536 223.399881 
L 308.739274 224.816732 
L 311.893189 226.233583 
L 315.047103 227.650435 
L 318.201017 229.067286 
L 321.354932 230.484138 
L 324.508846 231.900989 
L 327.662761 233.31784 
L 330.816675 234.734692 
L 333.97059 236.151543 
L 337.124504 237.568395 
L 340.278419 238.985246 
L 343.432333 240.402098 
L 346.586247 241.818949 
L 349.740162 243.2358 
L 352.894076 244.652652 
L 356.047991 246.069503 
L 359.201905 247.486355 
" style="fill:none;stroke:#4c72b0;stroke-linecap:round;stroke-width:2.25;"/>
   </g>
   <g id="line2d_21">
    <path clip-path="url(#p6e5bbe30b0)" d="M 46.964375 150.928357 
L 46.964375 21.499091 
" style="fill:none;stroke:#dd8452;stroke-linecap:round;stroke-width:2.625;"/>
   </g>
   <g id="line2d_22">
    <path clip-path="url(#p6e5bbe30b0)" d="M 125.023758 238.350669 
L 125.023758 203.623548 
" style="fill:none;stroke:#dd8452;stroke-linecap:round;stroke-width:2.625;"/>
   </g>
   <g id="line2d_23">
    <path clip-path="url(#p6e5bbe30b0)" d="M 203.08314 218.056801 
L 203.08314 196.179045 
" style="fill:none;stroke:#dd8452;stroke-linecap:round;stroke-width:2.625;"/>
   </g>
   <g id="line2d_24">
    <path clip-path="url(#p6e5bbe30b0)" d="M 281.142523 246.373303 
L 281.142523 233.957045 
" style="fill:none;stroke:#dd8452;stroke-linecap:round;stroke-width:2.625;"/>
   </g>
   <g id="line2d_25">
    <path clip-path="url(#p6e5bbe30b0)" d="M 359.201905 307.480909 
L 359.201905 285.955396 
" style="fill:none;stroke:#dd8452;stroke-linecap:round;stroke-width:2.625;"/>
   </g>
   <g id="line2d_26">
    <path clip-path="url(#p6e5bbe30b0)" d="M 46.964375 147.629849 
L 50.118289 148.978386 
L 53.272204 150.326922 
L 56.426118 151.675459 
L 59.580033 153.023995 
L 62.733947 154.372532 
L 65.887862 155.721068 
L 69.041776 157.069605 
L 72.195691 158.418141 
L 75.349605 159.766678 
L 78.503519 161.115215 
L 81.657434 162.463751 
L 84.811348 163.812288 
L 87.965263 165.160824 
L 91.119177 166.509361 
L 94.273092 167.857897 
L 97.427006 169.206434 
L 100.580921 170.55497 
L 103.734835 171.903507 
L 106.888749 173.252043 
L 110.042664 174.60058 
L 113.196578 175.949117 
L 116.350493 177.297653 
L 119.504407 178.64619 
L 122.658322 179.994726 
L 125.812236 181.343263 
L 128.966151 182.691799 
L 132.120065 184.040336 
L 135.27398 185.388872 
L 138.427894 186.737409 
L 141.581808 188.085945 
L 144.735723 189.434482 
L 147.889637 190.783019 
L 151.043552 192.131555 
L 154.197466 193.480092 
L 157.351381 194.828628 
L 160.505295 196.177165 
L 163.65921 197.525701 
L 166.813124 198.874238 
L 169.967038 200.222774 
L 173.120953 201.571311 
L 176.274867 202.919848 
L 179.428782 204.268384 
L 182.582696 205.616921 
L 185.736611 206.965457 
L 188.890525 208.313994 
L 192.04444 209.66253 
L 195.198354 211.011067 
L 198.352268 212.359603 
L 201.506183 213.70814 
L 204.660097 215.056676 
L 207.814012 216.405213 
L 210.967926 217.75375 
L 214.121841 219.102286 
L 217.275755 220.450823 
L 220.42967 221.799359 
L 223.583584 223.147896 
L 226.737498 224.496432 
L 229.891413 225.844969 
L 233.045327 227.193505 
L 236.199242 228.542042 
L 239.353156 229.890579 
L 242.507071 231.239115 
L 245.660985 232.587652 
L 248.8149 233.936188 
L 251.968814 235.284725 
L 255.122728 236.633261 
L 258.276643 237.981798 
L 261.430557 239.330334 
L 264.584472 240.678871 
L 267.738386 242.027407 
L 270.892301 243.375944 
L 274.046215 244.724481 
L 277.20013 246.073017 
L 280.354044 247.421554 
L 283.507958 248.77009 
L 286.661873 250.118627 
L 289.815787 251.467163 
L 292.969702 252.8157 
L 296.123616 254.164236 
L 299.277531 255.512773 
L 302.431445 256.86131 
L 305.58536 258.209846 
L 308.739274 259.558383 
L 311.893189 260.906919 
L 315.047103 262.255456 
L 318.201017 263.603992 
L 321.354932 264.952529 
L 324.508846 266.301065 
L 327.662761 267.649602 
L 330.816675 268.998138 
L 333.97059 270.346675 
L 337.124504 271.695212 
L 340.278419 273.043748 
L 343.432333 274.392285 
L 346.586247 275.740821 
L 349.740162 277.089358 
L 352.894076 278.437894 
L 356.047991 279.786431 
L 359.201905 281.134967 
" style="fill:none;stroke:#dd8452;stroke-linecap:round;stroke-width:2.25;"/>
   </g>
   <g id="patch_3">
    <path d="M 46.964375 321.78 
L 46.964375 7.2 
" style="fill:none;stroke:#262626;stroke-linecap:square;stroke-linejoin:miter;stroke-width:1.25;"/>
   </g>
   <g id="patch_4">
    <path d="M 46.964375 321.78 
L 359.201905 321.78 
" style="fill:none;stroke:#262626;stroke-linecap:square;stroke-linejoin:miter;stroke-width:1.25;"/>
   </g>
  </g>
  <g id="legend_1">
   <g id="text_17">
    <!-- a91 -->
    <g style="fill:#262626;" transform="translate(377.071968 169.299453)scale(0.12 -0.12)">
     <defs>
      <path d="M 5.46875 16.546875 
L 13.921875 17.328125 
Q 14.984375 11.375 18.015625 8.6875 
Q 21.046875 6 25.78125 6 
Q 29.828125 6 32.875 7.859375 
Q 35.9375 9.71875 37.890625 12.8125 
Q 39.84375 15.921875 41.15625 21.1875 
Q 42.484375 26.46875 42.484375 31.9375 
Q 42.484375 32.515625 42.4375 33.6875 
Q 39.796875 29.5 35.234375 26.875 
Q 30.671875 24.265625 25.34375 24.265625 
Q 16.453125 24.265625 10.296875 30.703125 
Q 4.15625 37.15625 4.15625 47.703125 
Q 4.15625 58.59375 10.578125 65.234375 
Q 17 71.875 26.65625 71.875 
Q 33.640625 71.875 39.421875 68.109375 
Q 45.21875 64.359375 48.21875 57.390625 
Q 51.21875 50.4375 51.21875 37.25 
Q 51.21875 23.53125 48.234375 15.40625 
Q 45.265625 7.28125 39.375 3.03125 
Q 33.5 -1.21875 25.59375 -1.21875 
Q 17.1875 -1.21875 11.859375 3.4375 
Q 6.546875 8.109375 5.46875 16.546875 
z
M 41.453125 48.140625 
Q 41.453125 55.71875 37.421875 60.15625 
Q 33.40625 64.59375 27.734375 64.59375 
Q 21.875 64.59375 17.53125 59.8125 
Q 13.1875 55.03125 13.1875 47.40625 
Q 13.1875 40.578125 17.3125 36.296875 
Q 21.4375 32.03125 27.484375 32.03125 
Q 33.59375 32.03125 37.515625 36.296875 
Q 41.453125 40.578125 41.453125 48.140625 
z
" id="ArialMT-57"/>
     </defs>
     <use xlink:href="#ArialMT-97"/>
     <use x="55.615234" xlink:href="#ArialMT-57"/>
     <use x="111.230469" xlink:href="#ArialMT-49"/>
    </g>
   </g>
   <g id="PathCollection_3">
    <g>
     <use style="fill:#4c72b0;stroke:#4c72b0;" x="375.036655" xlink:href="#mc3fabc164a" y="182.170547"/>
    </g>
   </g>
   <g id="text_18">
    <!-- 1.0 -->
    <g style="fill:#262626;" transform="translate(394.836655 185.058047)scale(0.11 -0.11)">
     <use xlink:href="#ArialMT-49"/>
     <use x="55.615234" xlink:href="#ArialMT-46"/>
     <use x="83.398438" xlink:href="#ArialMT-48"/>
    </g>
   </g>
   <g id="PathCollection_4">
    <g>
     <use style="fill:#dd8452;stroke:#dd8452;" x="375.036655" xlink:href="#mc2e3a27564" y="197.730391"/>
    </g>
   </g>
   <g id="text_19">
    <!-- 2.0 -->
    <g style="fill:#262626;" transform="translate(394.836655 200.617891)scale(0.11 -0.11)">
     <use xlink:href="#ArialMT-50"/>
     <use x="55.615234" xlink:href="#ArialMT-46"/>
     <use x="83.398438" xlink:href="#ArialMT-48"/>
    </g>
   </g>
  </g>
 </g>
 <defs>
  <clipPath id="p6e5bbe30b0">
   <rect height="314.58" width="312.23753" x="46.964375" y="7.2"/>
  </clipPath>
 </defs>
</svg>
